<?xml version="1.0" encoding="UTF-8"?>
<svg width="203px" height="80px" viewBox="0 0 203 80" version="1.1" xmlns="http://www.w3.org/2000/svg" xmlns:xlink="http://www.w3.org/1999/xlink">
    <!-- Generator: Sketch 51 (57462) - http://www.bohemiancoding.com/sketch -->
    <title>amg-pc-eq</title>
    <desc>Created with Sketch.</desc>
    <defs></defs>
    <g id="Page-1" stroke="none" stroke-width="1" fill="none" fill-rule="evenodd">
        <g id="amg-pc-eq" fill="#FFFFFF" fill-rule="nonzero">
            <rect id="Rectangle-Copy-13_4_" x="85.2" y="79" width="30.3" height="1"></rect>
            <g id="Group" transform="translate(0.000000, 27.000000)">
                <path d="M17.5,24.2 L11.5,24.2 L11.5,31.5 C11.5,31.8 11.5,32 11.5,32.2 C11.5,32.4 11.7,32.7 12.1,33 C12.5,33.4 13.8,33.6 16.1,33.6 C18.6,33.6 20.1,33.4 20.7,32.8 C21.3,32.2 21.6,31.7 21.8,31.2 C22,30.7 22.2,29.9 22.5,29 L23.1,26.7 C23.1,26.5 23.2,26.4 23.3,26.4 C23.4,26.4 23.5,26.5 23.5,26.6 C23.5,26.7 23.5,26.8 23.5,26.8 L23.2,29.5 C23.1,30.2 23.1,30.7 23.1,31.1 C23.1,31.5 23.2,31.8 23.3,32.1 C23.4,32.4 23.5,32.6 23.7,32.8 C23.8,33 23.9,33.2 24,33.4 C24.1,33.5 24.1,33.7 24.1,34 C24.1,34.3 24.1,34.5 24,34.7 C23.4,36.4 21.1,37.2 17.1,37.2 C16.4,37.2 15.6,37.2 14.7,37.1 C13.7,37 12.7,36.9 11.7,36.7 C10.7,36.5 10,36.1 9.6,35.3 C9.3,34.6 9.1,33.8 9.1,32.8 L9.1,24.2 L3.3,24.2 L3.3,27.6 C3.3,27.9 3.1,28.2 2.7,28.4 C2.3,28.6 2,28.7 1.6,28.7 C1.3,28.7 1.1,28.6 1,28.5 C0.9,28.4 0.8,28.1 0.7,27.9 L1,23.7 L1,10.7 L0.8,7 C0.9,6.9 0.9,6.9 0.9,6.9 C0.9,6.9 1.1,7 1.4,7.2 L3.5,8.7 L9,8.7 L9,6.4 L8.9,1.5 C9,1.4 9.1,1.4 9.1,1.3 L9.7,1.5 L12.1,2.2 C12.3,2.3 12.4,2.3 12.5,2.4 C12.6,2.5 12.6,2.6 12.6,2.7 C12.6,2.8 12.5,3 12.3,3.2 L11.5,4 L11.5,8.6 L17.4,8.6 L18.2,7.2 C18.3,7 18.4,6.9 18.5,6.9 C18.6,6.9 18.8,7.1 19.1,7.4 L20.9,9 C21,9.1 21.1,9.2 21.1,9.3 C21.1,9.3 21.1,9.4 21.1,9.4 C21.1,9.4 21,9.6 20.8,9.9 L20.2,10.7 L20.2,22.6 L20.3,25.7 C20.1,26.7 19.5,27.1 18.7,27.1 C17.9,27.1 17.5,26.8 17.5,26.2 L17.5,24.2 Z M9,15.9 L9,9.7 L3.3,9.7 L3.3,15.9 L9,15.9 Z M9,23.1 L9,17 L3.3,17 L3.3,23.1 L9,23.1 Z M17.6,15.9 L17.6,9.7 L11.6,9.7 L11.6,15.9 L17.6,15.9 Z M17.6,23.1 L17.6,17 L11.6,17 L11.6,23.1 L17.6,23.1 Z" id="Shape"></path>
                <path d="M33.9,16.7 L28.4,16.7 C28.2,16.7 28.1,16.5 28.1,16.2 C28.1,15.9 28.2,15.7 28.4,15.7 L39,15.7 L40.2,13.6 C40.4,13.3 40.5,13.1 40.6,13.1 C40.7,13.1 40.8,13.2 41.1,13.5 L42.8,15.7 C42.9,15.9 43,16 43.1,16.2 C43.2,16.4 43.2,16.4 43.2,16.5 C43.2,16.6 43.2,16.7 43.1,16.7 C43,16.8 42.9,16.8 42.8,16.8 L35.3,16.8 L37,17.7 C37.3,17.9 37.5,18.1 37.5,18.3 C37.5,18.5 37.4,18.6 37.1,18.7 L36.5,19 C35.7,20.8 35,22.4 34.4,23.7 C33.8,25 33,26.6 31.9,28.4 C34.2,28.2 36.6,27.9 39.1,27.6 C39,27.1 38.9,26.8 38.9,26.5 C38.8,26.2 38.7,25.8 38.4,25.1 C38.1,24.5 37.9,23.9 37.6,23.5 L36.9,22.3 C36.9,22.2 36.8,22.2 36.8,22.1 C36.8,22 36.8,21.9 36.7,21.9 C36.7,21.8 36.8,21.8 36.9,21.8 C37.1,21.8 37.6,22 38.3,22.5 C39,23 39.7,23.6 40.3,24.2 C40.9,24.8 41.3,25.5 41.7,26 C42,26.5 42.2,27.1 42.3,27.7 C42.4,28.3 42.4,28.8 42.5,29.3 C42.5,29.8 42.4,30.3 42.2,30.7 C41.9,31.5 41.4,31.9 40.8,31.9 C40.4,31.9 40,31.7 39.8,31.3 C39.6,30.9 39.4,30.4 39.4,29.9 L39.2,28.7 C36.2,30.1 33.9,31.2 32.3,32.1 L31.2,32.7 L30.6,33.1 C30.5,33.1 30.5,33.1 30.4,33.1 C30.4,33.1 30.3,32.8 30.1,32.4 L29.2,30 C29.1,29.8 29.1,29.6 29,29.6 C29,29.5 28.9,29.5 28.9,29.4 C28.9,29.4 29,29.3 29.2,29.1 L29.7,28.7 C29.9,28.6 30.3,28.1 30.8,27.3 C31.3,26.5 31.9,24.9 32.5,22.7 C33.2,20.1 33.6,18.2 33.9,16.7 Z M38.2,7.1 L39.2,5.2 C39.3,5 39.4,4.8 39.5,4.8 C39.6,4.8 39.8,4.9 40,5.2 L41.7,7.1 C41.8,7.3 41.9,7.4 42,7.5 C42.1,7.6 42.1,7.7 42.1,7.8 C42.1,7.9 42.1,8 42,8 C41.9,8 41.8,8.1 41.6,8.1 L39.6,8.1 L29.7,8.1 C29.5,8.1 29.3,7.9 29.3,7.5 C29.3,7.1 29.4,6.9 29.7,6.9 L38.2,6.9 L38.2,7.1 Z M40.7,11.5 L40.9,11.5 L45,11.2 C45,10 45,8.9 45,7.9 C45,6.9 45,6 45,5.2 L44.9,3 L44.8,1.2 C44.9,1.1 44.9,1.1 45,1.1 C45.1,1.1 45.3,1.1 45.6,1.2 L48.3,1.9 C48.4,1.9 48.5,2 48.6,2.1 C48.7,2.2 48.8,2.2 48.8,2.3 C48.8,2.3 48.8,2.4 48.8,2.4 C48.8,2.4 48.8,2.5 48.8,2.5 L48.5,2.9 L47.7,4 C47.7,6 47.7,7.2 47.7,7.6 L47.7,11.1 L51,10.9 L51.7,9.5 C51.8,9.2 52,9.1 52.1,9.1 C52.2,9.1 52.4,9.2 52.6,9.4 L54.7,11.5 C54.7,11.5 54.8,11.6 54.9,11.7 C55,11.8 55.1,11.9 55.1,11.9 C55.1,11.9 55.1,12 55.1,12 C55.1,12 55.1,12.1 55.1,12.2 C55.1,12.3 55,12.4 54.9,12.5 L53.9,13.5 C53.9,15.4 53.8,17 53.8,18.2 C53.8,19.4 53.7,21.4 53.6,24.2 C53.5,27 53.4,29.1 53.3,30.6 C53.2,32.1 52.9,33.4 52.6,34.4 C52.3,35.4 51.9,36.1 51.5,36.6 C51.1,37.1 50.7,37.4 50.2,37.7 C49.7,38 49.5,38.1 49.4,38.1 C49.3,38.1 49.3,38.1 49.2,38 C49.2,37.9 49.1,37.9 49.1,37.7 L48.8,36.6 C48.5,35.7 48,35.1 47.3,34.7 L46.2,34.2 C46.1,34.2 46,34.1 46,34 C45.9,33.9 45.9,33.8 45.9,33.8 C45.9,33.6 46,33.5 46.3,33.5 L47.6,33.6 C48.5,33.7 49.2,33.5 49.5,33.2 C49.8,32.9 50.1,32.3 50.4,31.4 C50.7,30.5 50.8,28.9 50.9,26.5 L51.1,20.8 C51.1,19.9 51.2,18.5 51.2,16.6 C51.2,14.7 51.2,13.7 51.2,13.6 L51.2,12 L47.6,12.2 C47.6,12.4 47.6,12.6 47.6,12.7 L47.5,14.9 C47.4,19.8 47,23.4 46.4,25.7 C45.8,28 45.2,29.8 44.4,31 C43.6,32.3 42.8,33.5 41.8,34.5 C40.8,35.6 39.8,36.5 38.8,37.3 L37.9,38 C37.8,38.1 37.6,38.2 37.6,38.2 C37.5,38.2 37.5,38.2 37.4,38.1 C37.4,38.1 37.4,38 37.4,37.9 C37.4,37.8 37.4,37.7 37.6,37.5 L38.6,36.4 C40.8,33.8 42.3,31.6 42.9,29.8 C43.5,28 44,26.3 44.3,24.6 C44.6,22.9 44.8,21.3 44.9,19.6 C45,18 45.1,16.4 45.1,14.8 L45.1,13.5 L45.1,12.3 L40.8,12.6 C40.6,12.6 40.5,12.5 40.5,12.1 C40.5,11.7 40.4,11.6 40.7,11.5 Z" id="Shape"></path>
                <path d="M62,37.4 L62.5,36.7 C62.6,36.6 62.7,36.4 63,35.9 C63.3,35.4 63.4,35.1 63.5,34.9 C63.6,34.7 63.7,34.3 63.9,33.7 C64.1,33.1 64.1,32.7 64,32.4 C63.9,32.1 63.8,32 63.7,31.9 C63.7,31.9 63.5,31.9 63.3,32 C63.1,32.1 62.9,32.1 62.8,32.1 C62.3,32.1 61.9,31.8 61.6,31.4 C61.3,30.9 61.1,30.3 61.1,29.6 C61.1,28.9 61.3,28.2 61.7,27.7 C62.1,27.2 62.6,26.9 63.1,26.9 C63.8,26.9 64.4,27.3 64.8,28 C65.2,28.7 65.4,29.4 65.5,30.2 C65.6,31 65.5,31.7 65.5,32.4 C65.3,33.4 65.1,34.3 64.7,35.1 C64.3,35.9 64,36.5 63.7,36.8 C63.4,37.2 63.1,37.5 62.8,37.8 C62.5,38.1 62.2,38.3 62.1,38.2 C61.9,38.1 61.8,38 61.8,37.9 C61.8,37.8 61.9,37.6 62,37.4 Z" id="Shape"></path>
                <path d="M95.5,19.9 C95.5,19.7 95.5,19.3 95.5,18.6 C95.5,17.9 95.5,17 95.5,15.9 C95.5,14.8 95.5,13.1 95.5,11 C95.5,8.9 95.4,7.6 95.4,7 L95.3,5.3 L93.5,5.3 L89.4,5.3 C89.2,5.3 89,5.1 89,4.7 C89,4.3 89.1,4.1 89.4,4.1 L108,4.1 L109.2,1.9 C109.5,1.3 109.7,1.1 109.7,1.1 C109.7,1.1 109.9,1.3 110.2,1.6 L112.5,4.2 C112.6,4.3 112.7,4.5 112.8,4.6 C112.9,4.7 112.9,4.8 112.9,4.9 C112.9,5.1 112.7,5.2 112.4,5.2 L111.7,5.2 L107,5.2 C107,5.4 107,5.6 106.9,5.8 C106.8,6 106.7,6.1 106.6,6.3 L106.6,19.9 L109.2,19.9 L110.5,17.7 C110.9,17 111.1,16.7 111.2,16.7 C111.3,16.7 111.5,16.9 111.8,17.4 L113.9,20.3 C114,20.5 114.1,20.6 114.1,20.8 C114.1,21 114,21.1 113.7,21.1 L109.8,21.1 L106.6,21.1 L106.6,33.8 L106.7,37.4 C106.4,38.1 105.7,38.4 104.7,38.3 C104.6,38.3 104.5,38.3 104.3,38.2 C104.1,38.2 104,38 103.8,37.8 L103.9,33.1 L103.9,21 L98.2,21 C98.1,22 98,23 97.9,24 C97.8,25 97.6,26 97.3,27.2 C97,28.4 96.6,29.4 96.1,30.4 C95.6,31.3 95,32.2 94.4,32.9 C93.8,33.6 93.1,34.3 92.4,35 C91.7,35.7 90.6,36.4 89.1,37.3 L88,37.8 C87.9,37.8 87.9,37.8 87.8,37.8 C87.8,37.8 87.7,37.8 87.7,37.7 C87.7,37.6 87.7,37.6 87.7,37.5 C87.7,37.4 87.8,37.3 87.9,37.2 L89.1,36.1 C90.4,35 91.6,33.5 92.7,31.9 C93.7,30.2 94.4,28.6 94.8,27 C95.2,25.4 95.4,24 95.5,22.8 L95.6,21.5 L95.6,21 L87.6,21 C87.4,21 87.3,20.8 87.2,20.5 C87.2,20.1 87.3,20 87.6,20 L95.5,20 L95.5,19.9 Z M103.9,19.9 L103.9,5.3 L102.4,5.3 L99,5.3 C98.9,5.6 98.8,5.9 98.8,6 C98.7,6.1 98.6,6.3 98.4,6.5 C98.4,8.5 98.4,9.9 98.5,10.9 C98.6,11.9 98.5,12.8 98.5,13.8 C98.5,14.8 98.5,15.6 98.5,16.3 L98.4,19.6 L98.4,20.1 L103.9,20.1 L103.9,19.9 Z" id="Shape"></path>
                <path d="M127.7,30.2 C128.1,30.9 128.4,31.6 128.4,32.4 C128.4,33 128.3,33.5 128,33.8 C127.8,34.1 127.5,34.3 127.1,34.3 C126.6,34.3 126.2,33.9 125.7,33.2 L124.7,31.3 L124,30.3 C123.3,31.5 122.5,32.6 121.8,33.5 C121,34.5 120.1,35.4 119,36.4 L118.1,37.2 C117.8,37.5 117.6,37.7 117.4,37.8 C117.2,37.9 117.1,37.9 117.1,37.8 C117.1,37.7 117,37.6 117.1,37.6 C117.1,37.5 117.2,37.3 117.4,37.1 L117.9,36.6 L118.8,35.5 C119.8,34.3 120.6,33.2 121.1,32 C121.7,30.9 122.2,29.7 122.6,28.6 C122.4,28.4 122.1,28.2 121.9,28 C121.7,27.8 121,27.4 119.8,26.8 C119.2,26.6 118.8,26.5 118.5,26.5 C118.3,26.5 118.1,26.4 118.1,26.4 C118,26.3 118,26.2 118,26.1 L118,26 L118.6,22 C118.7,21.4 118.8,20.2 119,18.5 C119.2,16.8 119.3,15.7 119.3,15.1 C119.3,14.5 119.4,13.9 119.4,13.2 L117,13.3 C116.8,13.3 116.6,13.1 116.6,12.8 C116.6,12.5 116.7,12.2 116.9,12.2 L119.5,12.1 L119.9,4.8 L120,1.4 C120.1,1.2 120.2,1.2 120.4,1.2 L123,2 C123.3,2.1 123.4,2.2 123.5,2.2 C123.6,2.3 123.6,2.3 123.6,2.4 C123.6,2.5 123.5,2.7 123.2,3 L122.7,3.7 L121.9,12.2 L124.2,12.1 L124.8,11.1 C125,10.7 125.2,10.5 125.2,10.5 C125.2,10.5 125.5,10.6 125.9,10.9 L127.2,12.1 C127.5,12.4 127.7,12.6 127.8,12.7 C127.9,12.8 127.9,12.9 127.9,13 C127.9,13.1 127.8,13.3 127.5,13.6 L127,14.2 C126.9,15.3 126.9,16.4 126.8,17.3 C126.7,18.2 126.6,19.6 126.4,21.3 C126.2,23 125.9,24.6 125.6,26 L125.2,27.5 L125.1,27.9 C126.4,28.7 127.2,29.5 127.7,30.2 Z M123.1,26.8 C123.2,26.2 123.4,25.7 123.4,25.3 C123.5,24.9 123.6,24.1 123.8,22.8 C124,21.5 124.1,20.1 124.3,18.8 C124.4,17.5 124.5,16.1 124.5,14.7 L124.5,13.1 L121.9,13.2 L121.8,14.1 C121.4,18.3 121,21.4 120.7,23.5 L120.3,25.8 C121.7,26.4 122.7,26.7 123.1,26.8 Z M132.5,17.1 L129,18.3 C128.9,18.2 128.7,18 128.6,17.5 L128,15.8 L127.7,14.9 C127.7,14.8 128,14.5 128.7,14.1 C129.3,13.7 129.9,12.6 130.5,10.9 C131.1,9.2 131.5,7.6 131.9,6.3 C132.3,5 132.5,4 132.6,3.3 L132.9,1.3 C132.9,1.2 133,1.1 133,1.1 C133.1,1.1 133.3,1.1 133.5,1.3 L135.9,2.6 C136.2,2.8 136.4,2.9 136.4,3 C136.5,3.1 136.5,3.2 136.5,3.3 C136.5,3.4 136.3,3.6 135.9,3.8 L135.3,4.2 C134.7,5.6 134.2,7 133.6,8.3 C133,9.6 132,11.7 130.4,14.6 C133.3,14.6 136.2,14.5 139.2,14.4 C139.1,14 139,13.5 138.8,12.8 C138.6,12.1 138.2,11.2 137.5,10 L137,9.2 C136.9,9 136.8,8.9 136.8,8.8 C136.8,8.7 136.9,8.6 137,8.6 C137.1,8.6 137.4,8.7 137.7,9 C137.8,9.1 138.1,9.3 138.6,9.7 C139.1,10.1 139.8,10.7 140.5,11.5 C141.2,12.3 141.7,13.1 142,13.8 C142.3,14.5 142.4,15.2 142.4,15.8 C142.4,16.5 142.2,17.1 142,17.7 C141.8,18.3 141.3,18.6 140.9,18.6 C140.5,18.6 140.1,18.4 139.9,18 C139.7,17.6 139.6,17 139.5,16.2 L139.4,15.2 L132.5,17.1 Z M131.6,21.7 L138.4,21.7 L139,20.7 C139.2,20.4 139.3,20.2 139.4,20.2 C139.5,20.2 139.7,20.3 140,20.6 L141.4,21.9 C141.6,22.1 141.7,22.2 141.7,22.3 C141.7,22.4 141.8,22.4 141.8,22.5 C141.8,22.5 141.8,22.6 141.8,22.7 C141.8,22.8 141.7,22.9 141.5,23.2 L141,23.9 L141,32 L141.1,36.2 C141,36.4 141,36.6 140.9,36.7 C140.8,36.8 140.6,36.9 140.2,37 C139.8,37.1 139.5,37.2 139.3,37.1 C139.1,37.1 139,37 138.8,36.9 C138.7,36.8 138.6,36.7 138.6,36.5 L138.6,33.9 L131.5,33.9 L131.5,36.8 C131.5,37 131.4,37.2 131.1,37.4 C130.8,37.6 130.5,37.7 129.9,37.7 C129.6,37.7 129.4,37.6 129.3,37.5 C129.2,37.4 129.1,37.2 129,37 L129.1,32.8 L129.1,24.4 L129,20.4 C129,20.4 129.1,20.3 129.1,20.3 L129.5,20.5 L131.6,21.7 Z M138.6,32.8 L138.6,22.9 L131.5,22.9 L131.5,32.8 L138.6,32.8 Z" id="Shape"></path>
                <path d="M167.9,25.8 L169.2,23.6 C169.3,23.4 169.4,23.3 169.5,23.3 C169.6,23.3 169.8,23.4 170,23.6 L171.9,25.9 C172.1,26.2 172.2,26.4 172.2,26.6 C172.2,26.8 172.1,26.9 171.8,26.9 L165.4,26.9 L165.4,34.4 L165.5,37.4 C165.4,37.6 165.3,37.9 165.1,38.1 C164.9,38.4 164.5,38.5 164,38.5 C163.5,38.5 163.1,38.5 163,38.4 C162.9,38.3 162.8,38.1 162.7,38 L162.8,33.2 L162.8,26.9 L154.3,26.9 C154.3,27.1 154.3,27.3 154.3,27.4 L154.2,28.8 C154,31 153.6,32.6 153,33.6 C152.4,34.6 151.5,35.5 150.5,36.3 C149.5,37.1 148.5,37.6 147.6,38 L146.5,38.4 C146.4,38.4 146.4,38.5 146.3,38.5 C146.3,38.5 146.2,38.5 146.2,38.5 C146.2,38.5 146.1,38.5 146.1,38.4 C146.1,38.4 146.1,38.3 146.1,38.2 C146.1,38.1 146.2,38 146.3,37.9 L147.4,37 C149.3,35.6 150.5,34 150.9,32.5 C151.3,30.9 151.5,29.8 151.6,29 C151.7,28.2 151.7,27.6 151.7,27 L146,27 C145.8,27 145.7,26.8 145.6,26.4 C145.6,26 145.7,25.8 146,25.8 L151.8,25.8 C151.8,25.6 151.8,25.4 151.8,25.2 C151.8,25 151.8,24.9 151.8,24.7 C151.8,24.5 151.8,24.2 151.8,23.8 C151.8,23.4 151.8,23.2 151.8,23.1 L151.8,22.8 L151.8,21.1 L151.7,19.8 C151.7,19.7 151.8,19.7 151.9,19.6 L152.3,19.7 L154.7,20.5 C154.9,20.6 155.1,20.7 155.2,20.8 C155.3,20.9 155.3,21 155.3,21.1 C155.3,21.2 155.2,21.3 155.1,21.5 L154.5,22.2 C154.5,23 154.4,23.6 154.4,24 L154.4,24.9 L154.4,25.8 L162.8,25.8 L162.8,22.9 L162.7,19.6 C162.7,19.5 162.8,19.5 162.8,19.4 L163.2,19.5 L165.8,20.3 C166.1,20.4 166.2,20.5 166.2,20.7 C166.2,20.9 166.1,21.1 165.9,21.3 L165.3,21.9 L165.3,25.7 L167.9,25.7 L167.9,25.8 Z M154.7,6.8 C154.9,6.3 155.1,5.7 155.3,5.1 C155.5,4.5 155.7,3.8 155.9,3.4 L156.4,1.7 L156.7,0.6 C156.7,0.6 156.8,0.6 156.8,0.6 C156.8,0.6 157,0.7 157.2,0.8 L160.2,2.5 C160.4,2.6 160.5,2.7 160.5,2.8 C160.5,2.9 160.6,3 160.6,3.1 C160.6,3.2 160.5,3.4 160.1,3.5 L159.5,3.8 C158.5,5.8 157.9,6.9 157.9,6.9 L166.5,6.9 L167.8,4.7 C168,4.4 168.1,4.2 168.2,4.2 C168.3,4.2 168.5,4.3 168.7,4.6 L170.8,7 C170.9,7.2 171,7.3 171.1,7.4 C171.1,7.5 171.2,7.6 171.2,7.7 C171.2,7.8 171.2,7.9 171.1,7.9 C171,7.9 170.9,8 170.8,8 L166.7,8 L165.9,8 L162.5,8 C163.2,9.6 164.2,11.1 165.4,12.4 C166.6,13.7 167.7,14.6 168.7,15.1 C169.7,15.6 170.7,16 171.6,16.3 L172.3,16.5 C172.5,16.6 172.6,16.7 172.6,16.9 C172.6,17.1 172.5,17.2 172.3,17.3 L171.7,17.5 C171.4,17.6 171.2,17.8 171,18 C170.8,18.2 170.6,18.5 170.4,18.9 C170.2,19.2 170.1,19.5 170,19.7 C170,19.9 169.9,20 169.9,20.1 C169.9,20.2 169.8,20.2 169.8,20.2 C169.6,20.2 168.8,19.7 167.4,18.6 C166,17.5 164.9,16.2 164.2,14.7 C163.5,13.2 163,12.1 162.7,11.2 C162.4,10.3 162.2,9.6 162.1,9.1 L162,8.7 L161.9,8.1 L157.6,8.1 C157.5,8.3 157.4,8.4 157.4,8.4 L156.5,9.9 C155.1,12.3 153.8,14.2 152.4,15.6 C151,17 150.1,18 149.5,18.5 C148.9,19 148.3,19.5 147.6,20 L146.6,20.8 C146.5,20.8 146.5,20.9 146.4,20.9 C146.3,20.9 146.3,20.9 146.2,20.8 C146.2,20.7 146.2,20.7 146.2,20.6 C146.2,20.5 146.3,20.4 146.4,20.2 L147.2,19.3 C148.3,18.2 149.3,16.9 150.2,15.5 C151.1,14.1 151.8,13 152.3,12.1 C152.8,11.2 153.2,10.4 153.6,9.5 L154.1,8.4 L154.3,8 L147,8 C146.8,8 146.7,7.8 146.6,7.4 C146.6,7 146.7,6.8 147,6.8 L154.7,6.8 Z M157.4,17.3 L152.3,17.3 C152.1,17.3 151.9,17.1 151.9,16.7 C151.9,16.3 152,16.1 152.3,16.1 L157.4,16.1 L157.4,12.7 L157.3,9.8 C157.4,9.7 157.5,9.6 157.7,9.7 L160.4,10.4 C160.5,10.4 160.6,10.5 160.7,10.6 C160.8,10.7 160.8,10.8 160.8,10.9 C160.8,11 160.7,11.2 160.5,11.4 L159.9,12.1 L159.9,16.2 L161.4,16.2 L162.4,14.5 C162.5,14.3 162.6,14.2 162.7,14.2 C162.8,14.2 162.9,14.3 163.1,14.5 L164.7,16.4 C164.8,16.6 164.9,16.7 164.9,16.8 C164.9,16.9 164.9,16.9 165,17 C165,17.1 165,17.1 164.9,17.2 C164.8,17.3 164.7,17.3 164.5,17.3 L160,17.3 L160,20.8 L160.1,23 C159.9,23.8 159.2,24.2 158.1,24.2 C157.9,24.2 157.7,24.2 157.6,24.1 C157.5,24 157.4,23.9 157.3,23.7 L157.4,20 L157.4,17.3 Z" id="Shape"></path>
                <path d="M182.4,5.1 L175.5,5.1 C175.2,5.1 175.1,4.9 175.1,4.6 L175.1,4.3 C175.1,4.1 175.2,4 175.3,4 L182.3,4 L183.1,2.6 C183.2,2.4 183.3,2.3 183.3,2.3 C183.3,2.3 183.3,2.3 183.3,2.3 L183.5,2.5 L185.3,4.3 C185.4,4.4 185.4,4.5 185.5,4.5 C185.5,4.6 185.5,4.6 185.5,4.7 C185.5,4.8 185.4,4.9 185.3,5 L184.5,5.8 L183.4,19.2 L184,19.2 L184.5,18.2 C184.6,18 184.7,17.9 184.7,17.9 C184.7,17.9 184.8,17.9 184.8,18 C184.9,18.1 184.9,18.1 185,18.2 L186.9,20.1 C187,20.2 187.1,20.3 187.1,20.4 C187.1,20.5 187,20.6 186.8,20.8 L186.3,21.4 C186.2,22.4 186.2,23.1 186.2,23.6 L186,27.1 C185.9,29 185.8,30.5 185.6,31.6 C185.4,32.7 185.2,33.6 185,34.3 C184.7,35 184.5,35.6 184.2,35.9 C183.9,36.2 183.5,36.6 182.9,36.9 C182.4,37.2 181.9,37.4 181.4,37.5 C181.3,37.5 181.3,37.5 181.2,37.5 C181.1,37.5 181.1,37.3 181.1,37 C181.1,36.7 180.9,36.2 180.6,35.6 C180.3,35 179.9,34.5 179.4,34.1 L178.8,33.7 C178.7,33.7 178.7,33.6 178.7,33.6 C178.7,33.6 178.7,33.5 178.7,33.3 C178.7,33.2 178.8,33.1 178.9,33.2 L179.5,33.4 C180.3,33.6 181,33.7 181.4,33.7 C182.1,33.7 182.6,33.5 182.8,33.1 C183,32.7 183.2,32.1 183.3,31.5 C183.4,30.9 183.5,30.1 183.6,29.2 C183.7,28.3 183.8,27.4 183.8,26.4 C183.9,25.5 183.9,24.5 183.9,23.4 C183.9,22.4 183.9,21.5 183.9,20.8 L183.9,20.3 L178,20.3 L177.2,22 C177.1,22.2 177.1,22.2 177,22.3 C176.9,22.3 176.9,22.2 176.7,22 L175.7,20.6 C175.4,20.3 175.3,20.1 175.3,20 C175.3,20 175.4,19.9 175.5,19.7 L175.9,19.1 C176.1,16.4 176.3,14.1 176.5,12.2 C176.7,10.2 176.8,9 176.8,8.5 L176.9,6.5 L176.9,5.7 C176.9,5.6 176.9,5.6 177,5.5 L177.3,5.7 L179.8,6.9 C179.9,6.9 179.9,7 179.9,7.1 C179.9,7.2 179.8,7.3 179.7,7.5 L179,8.1 C178.8,10.1 178.7,11.8 178.5,13.2 C178.4,14.6 178.2,16.5 178,19 L181.2,19 L182.4,5.1 Z M177.2,30.4 C176.8,30.8 176.6,31 176.5,31 C176.5,31 176.4,30.8 176.3,30.5 L175.3,27.7 C175.2,27.5 175.2,27.4 175.2,27.3 C175.2,27.2 175.4,27.1 175.8,27 L176.6,26.8 C177.3,26.6 178.4,26.2 179.7,25.7 C181,25.2 182.1,24.7 182.8,24.4 L183.3,24.2 C183.4,24.2 183.4,24.2 183.5,24.2 C183.5,24.3 183.5,24.3 183.5,24.4 C183.5,24.5 183.5,24.6 183.4,24.6 L182.5,25.4 L180.4,27.2 L178.5,28.9 L177.2,30.4 Z M187.8,14.3 L187.8,10.6 L187.7,7.4 C187.7,7.4 187.7,7.3 187.8,7.3 C187.9,7.3 188,7.3 188.2,7.5 L190.7,8.5 C190.8,8.5 190.9,8.6 190.9,8.7 C190.9,8.8 191,8.8 191,8.9 C191,9 190.9,9.1 190.8,9.3 L190.2,10 L190.2,13.5 L192.6,12.6 L192.6,4.5 L192.5,1.4 C192.5,1.3 192.6,1.3 192.6,1.3 C192.6,1.3 192.9,1.4 193.3,1.5 L195.3,2.2 C195.5,2.3 195.6,2.4 195.6,2.5 C195.6,2.6 195.5,2.7 195.4,2.8 L194.7,3.7 L194.7,11.8 L197.2,10.9 L197.9,9.4 C198,9.2 198,9.1 198.1,9.1 C198.2,9.1 198.2,9.1 198.4,9.2 L200.4,10.9 C200.6,11.1 200.7,11.2 200.7,11.2 C200.7,11.3 200.7,11.3 200.7,11.3 C200.7,11.3 200.7,11.4 200.6,11.5 C200.5,11.6 200.5,11.7 200.5,11.7 L199.9,12.7 C199.9,14.7 199.9,16.3 199.9,17.6 C199.9,18.9 199.8,20.1 199.8,21.4 C199.8,22.7 199.7,23.5 199.6,24.2 C199.5,24.8 199.4,25.5 199.1,26.2 C198.8,26.9 198.4,27.4 197.9,27.7 C197.3,27.9 197,28.1 196.9,28 C196.8,28 196.7,27.7 196.6,27 C196.5,26.3 196.2,25.9 195.8,25.5 L195.2,25 C195.1,24.9 195.1,24.8 195.1,24.7 C195.1,24.6 195.2,24.5 195.3,24.5 L195.5,24.5 L196.1,24.6 C196.3,24.6 196.4,24.6 196.5,24.6 C197,24.6 197.2,24.2 197.3,23.6 C197.4,22.9 197.5,22.3 197.5,21.6 C197.5,20.9 197.6,20.1 197.6,19.1 C197.6,18.1 197.6,17.1 197.6,16.1 C197.6,15.1 197.6,14.2 197.6,13.4 L197.6,12.8 L197.6,12 L194.8,13 L194.8,26.1 L194.9,29.1 C194.9,29.4 194.8,29.7 194.7,29.8 C194.6,30 194.4,30.1 194.2,30.2 C194,30.3 193.7,30.4 193.4,30.4 C193.2,30.4 193.1,30.4 192.9,30.3 C192.7,30.2 192.6,30.2 192.6,30.1 C192.6,30 192.5,29.9 192.5,29.7 L192.7,25.9 L192.7,13.8 L190.2,14.7 L190.2,31.6 C190.2,32.2 190.2,32.6 190.4,32.8 C190.6,33 190.8,33.2 191.3,33.4 C191.8,33.6 192.9,33.7 194.6,33.7 C196.6,33.7 197.9,33.6 198.4,33.3 C198.9,33 199.3,32.7 199.5,32.4 C199.8,32.1 200,31.5 200.2,30.8 C200.4,30.1 200.6,29.3 200.8,28.7 L201.3,26.9 C201.4,26.7 201.4,26.6 201.5,26.6 C201.6,26.6 201.6,26.7 201.7,26.9 L201.6,28.4 C201.5,29.7 201.4,30.6 201.4,30.9 C201.4,31.4 201.5,31.8 201.6,32.1 L202,32.9 C202.1,33.1 202.2,33.3 202.2,33.5 C202.2,33.6 202.2,33.8 202.2,33.9 C202.2,34.7 201.9,35.3 201.4,35.8 C200.9,36.3 199.9,36.6 198.4,36.8 C196.9,37 195.8,37 195.1,37 C193.7,37 192.2,36.8 190.7,36.5 C189.2,36.1 188.4,35.6 188.2,34.8 C188,34 187.9,33.4 187.9,32.9 L187.9,15.4 L185.1,16.4 C184.9,16.5 184.7,16.3 184.7,16 C184.6,15.7 184.7,15.4 184.9,15.3 L187.8,14.3 Z" id="Shape"></path>
            </g>
            <g id="Group" transform="translate(41.000000, 0.000000)">
                <path d="M2.4,6.1 L0.4,6.1 C0.3,6.1 0.2,6 0.2,5.8 C0.2,5.6 0.3,5.5 0.4,5.5 L2.4,5.5 L2.4,2.5 L2.4,0.9 C2.4,0.9 2.4,0.9 2.5,0.9 C2.5,0.9 2.6,0.9 2.7,1 L3.9,1.5 C4,1.6 4,1.7 3.9,1.8 L3.5,2.2 L3.5,5.5 L3.8,5.5 L4.2,5 C4.3,4.9 4.3,4.8 4.4,4.8 C4.5,4.8 4.6,4.9 4.8,5.2 L5.2,5.7 C5.3,5.8 5.3,6 5.3,6 C5.3,6.1 5.2,6.1 5.1,6.1 L3.4,6.1 L3.4,8.5 C4.2,8.8 4.7,9.1 4.9,9.5 C5,9.9 5.1,10.2 5.1,10.4 L5.1,10.5 L5.7,10.5 C5.7,10.4 5.7,10.3 5.7,10.3 L5.8,9 C5.8,8.3 5.9,7.8 5.9,7.4 L5.9,6.4 C5.7,6.8 5.5,7.1 5.3,7.5 L5,8 C5,8.3 5,8.3 4.9,8.3 C4.9,8.3 4.9,8.2 4.9,8 L5.1,7.4 C5.3,6.9 5.4,6.3 5.6,5.6 C5.8,4.9 5.9,4.5 6,4.1 L6.2,3.1 C6.3,2.6 6.4,2.3 6.4,2.1 L6.5,1.3 L6.5,1 C6.5,1 6.5,1 6.6,1 L6.9,1.2 L8,2 C8.1,2.1 8.1,2.1 8.2,2.2 C8.3,2.3 8.2,2.4 8,2.4 L7.8,2.5 L7.1,4.1 L10.8,4.1 L11.2,3.2 C11.2,3.1 11.3,3 11.3,3 C11.3,3 11.4,3 11.4,3.1 L12.4,4.2 C12.5,4.3 12.5,4.4 12.5,4.4 C12.5,4.5 12.5,4.5 12.4,4.5 L11.8,4.5 L6.9,4.5 L6.2,5.9 L7.2,6.6 L10.2,6.6 L10.5,5.9 C10.6,6 10.6,6 10.6,5.9 C10.6,5.9 10.7,5.9 10.8,6 L11.7,6.8 C11.8,7 11.8,7 11.8,7.1 C11.8,7.2 11.8,7.2 11.7,7.3 L11.4,7.6 L11.3,10.6 L11.4,10.6 L11.7,10 C11.8,9.8 11.9,9.7 11.9,9.7 C11.9,9.7 12,9.7 12.1,9.9 L12.8,10.7 C12.9,10.8 12.9,10.9 12.9,11 C12.9,11.1 12.9,11.1 12.8,11.1 L11.9,11.1 L11.3,11.1 C11.3,11.2 11.3,11.6 11.3,12.1 C11.3,12.6 11.3,13.1 11.3,13.5 L11.2,14.6 L11.2,14.8 L11.3,14.8 L11.6,14.1 C11.7,14 11.7,13.9 11.7,13.9 C11.7,13.9 11.8,13.9 11.9,14.1 L12.5,14.8 C12.7,15 12.8,15.1 12.7,15.2 C12.6,15.3 12.6,15.3 12.6,15.3 L11.5,15.3 L11.1,15.3 C11.1,15.5 11.1,15.6 11.1,15.7 C11.1,15.8 11.1,15.9 11.1,16.1 C11.1,16.2 11,16.5 11,16.8 C11,17.1 10.8,17.4 10.7,17.6 C10.6,17.8 10.4,18 10.2,18.2 C10,18.4 9.7,18.5 9.4,18.6 C9.3,18.6 9.3,18.6 9.2,18.6 C9.2,18.6 9.2,18.5 9.1,18.3 C9,18.1 9,17.9 8.9,17.8 C8.8,17.7 8.7,17.5 8.7,17.5 C8.7,17.5 8.5,17.4 8.4,17.3 L8,17.1 C8,17.1 7.9,17 7.9,17 C7.9,17 7.9,16.9 7.9,16.9 C7.9,16.9 8,16.8 8,16.8 L8.4,16.9 C9,17 9.4,17 9.6,16.8 C9.8,16.6 9.9,16.3 9.9,16 L9.9,15.7 L9.9,15.4 L6.4,15.4 L6.1,15.8 C6.1,15.9 6,16 6,16 C6,16 5.9,16 5.8,15.9 L5.2,15.3 C5.1,15.1 5,15 5,15 C5,15 5,14.9 5,14.9 L5.2,14.7 L5.4,14.5 C5.5,13.8 5.5,13.3 5.6,12.8 C5.6,12.4 5.7,11.8 5.7,11.2 L5,11.2 C4.8,11.4 4.7,11.4 4.5,11.4 C4.3,11.4 4.2,11.3 4.1,11.2 C4.1,11 4,10.9 4,10.8 C4,10.7 4,10.5 4,10.2 C4,9.9 4,9.7 3.9,9.5 C3.8,9.3 3.8,9.2 3.7,9.1 L3.5,8.9 L3.5,15.8 L3.6,17.9 C3.6,18 3.6,18.1 3.5,18.1 C3.4,18.1 3.4,18.2 3.3,18.3 C3.2,18.4 3,18.4 2.8,18.4 C2.6,18.4 2.5,18.4 2.4,18.3 C2.3,18.2 2.3,18.1 2.3,18 L2.4,16.1 L2.4,11 C2.2,11.3 2.1,11.7 1.8,12.1 C1.5,12.5 1.4,12.9 1.2,13.3 C1,13.6 0.9,13.8 0.8,14 C0.7,14.2 0.7,14.2 0.7,14.2 L0.5,14.5 C0.4,14.6 0.4,14.6 0.3,14.6 C0.2,14.6 0.3,14.5 0.3,14.4 L0.5,13.8 C1,12.5 1.4,11.1 1.7,9.7 C2,8.3 2.3,7.1 2.4,6.1 Z M6.5,14.8 L10,14.8 C10,14.7 10,14.6 10,14.5 C10,14.4 10,14 10.1,13.5 L10.1,12.4 L10.1,11.3 L6.7,11.3 L6.5,14.8 Z M6.9,10.6 L10.3,10.6 C10.3,10.4 10.3,10.3 10.3,10.2 C10.3,10.1 10.3,9.9 10.3,9.6 C10.3,9.3 10.3,8.9 10.3,8.4 C10.3,8 10.3,7.7 10.3,7.6 L10.3,7.4 L7.1,7.4 L6.9,10.6 Z M7.7,11.8 C7.7,11.7 7.8,11.6 7.9,11.7 C8.5,12.1 8.8,12.4 9,12.8 C9.1,13.1 9.2,13.4 9.1,13.7 C9.1,13.9 9,14.1 8.9,14.2 C8.8,14.3 8.7,14.4 8.5,14.4 C8.3,14.4 8.2,14.3 8.1,14.1 C8.1,14 8,13.9 8,13.8 C8,13.7 8,13.5 8,13.2 C8,12.9 8,12.7 8,12.6 C8,12.5 7.9,12.3 7.8,12.1 C7.7,11.9 7.7,11.8 7.7,11.8 Z M7.8,7.7 C7.8,7.6 8,7.7 8.1,7.8 C8.3,7.9 8.5,8 8.6,8.1 C8.7,8.2 8.9,8.4 9,8.5 C9.1,8.7 9.2,8.9 9.2,9.1 C9.2,9.3 9.2,9.6 9.1,9.8 C9,10 8.8,10.1 8.6,10.1 C8.4,10.1 8.3,10 8.2,9.8 C8.1,9.7 8.1,9.5 8.1,9.3 L8.1,8.8 C8.1,8.4 8,8.2 7.9,8 C7.8,7.8 7.7,7.7 7.7,7.6 C7.7,7.5 7.8,7.7 7.8,7.7 Z" id="Shape"></path>
                <path d="M23.1,5.4 L23.4,5 C23.5,4.8 23.6,4.7 23.7,4.7 L23.9,5 L24.5,5.6 C24.5,5.6 24.6,5.7 24.6,5.8 C24.6,5.9 24.6,5.9 24.5,5.9 L22.7,5.9 L22.7,7 L23.4,7 L23.7,6.6 C23.8,6.5 23.8,6.4 23.9,6.4 C23.9,6.4 24,6.5 24.1,6.6 L24.6,7.2 C24.7,7.3 24.7,7.4 24.7,7.5 C24.7,7.6 24.7,7.6 24.6,7.6 L22.8,7.6 L22.8,8.8 L24.8,8.8 L25,8 C25.1,7.8 25.2,7.7 25.2,7.7 C25.2,7.7 25.4,7.8 25.5,8 L26.2,8.7 C26.3,8.8 26.4,9 26.4,9 C26.4,9 26.4,9.1 26.4,9.1 C26.4,9.1 26.3,9.1 26.3,9.1 L25.4,9.1 L22.8,9.1 C22.8,9.2 23,9.3 23.1,9.5 C23.3,9.7 23.6,10.1 24.2,10.5 C24.8,10.9 25.5,11.2 26.4,11.3 L26.9,11.3 C26.9,11.3 27,11.3 27,11.4 C27,11.5 27,11.5 27,11.5 C27,11.5 27,11.5 27,11.6 C27,11.7 27,11.7 27,11.7 L26.8,11.8 C26.5,12 26.2,12.3 26.1,12.6 C25.9,12.9 25.8,13.1 25.8,13.1 C25.5,13.1 24.9,12.6 24,11.7 L23.7,12 L23.7,13.5 L23.8,15.1 C23.8,15.2 23.8,15.2 23.7,15.3 C23.6,15.4 23.6,15.4 23.5,15.4 C23.4,15.4 23.3,15.5 23.3,15.5 C23.3,15.5 23.2,15.5 23,15.5 C22.8,15.5 22.7,15.5 22.7,15.4 C22.7,15.3 22.6,15.2 22.6,15.1 L22.6,11.2 L18.4,11.2 L18.4,15.5 C18.4,15.6 18.3,15.7 18.2,15.8 C18.1,15.9 17.9,16 17.6,16 C17.5,16 17.4,16 17.4,15.9 C17.4,15.9 17.3,15.8 17.3,15.7 L17.3,14 L17.3,11.5 C16.4,12.2 15.7,12.7 15.1,13 L14.6,13.3 C14.4,13.4 14.3,13.5 14.2,13.5 C14.1,13.5 14.1,13.5 14.1,13.5 C14.1,13.5 14.1,13.4 14.1,13.4 C14.1,13.3 14.1,13.2 14.2,13.2 L14.5,12.9 L14.9,12.5 C15.4,12.1 15.9,11.6 16.4,10.9 C16.9,10.2 17.3,9.8 17.4,9.5 C17.5,9.3 17.6,9.1 17.7,9 L14.6,9 C14.5,9 14.4,8.9 14.4,8.7 C14.4,8.5 14.4,8.4 14.6,8.4 L18,8.4 L18,7.5 L16.5,7.5 L16.4,7.5 C16.4,7.5 16.3,7.5 16.3,7.4 C16.3,7.4 16.3,7.3 16.3,7.2 C16.3,7.1 16.4,7 16.4,7 L18,7 L18,5.9 L16.5,5.9 L16.4,5.9 C16.4,5.9 16.3,5.9 16.3,5.8 C16.3,5.8 16.3,5.7 16.3,5.6 C16.3,5.5 16.4,5.4 16.4,5.4 L18,5.4 L18,5.2 L18,3.9 L18,3.8 L16.3,3.8 C16.3,3.9 16.3,4 16.3,4.1 C16.3,4.2 16.3,4.3 16.3,4.5 C16.3,4.7 16.3,4.9 16.2,5.2 C16.1,5.4 16,5.7 15.9,5.9 C15.8,6.1 15.5,6.3 15.3,6.3 C15.1,6.3 14.9,6.2 14.7,6 C14.5,5.8 14.5,5.6 14.5,5.3 C14.5,5 14.6,4.8 14.7,4.5 C14.7,4.5 14.9,4.3 15.1,4.1 C15.3,3.9 15.5,3.5 15.6,3.1 L16,2.7 C16,2.6 16,2.6 16.1,2.5 C16.2,2.4 16.2,2.6 16.2,2.7 L16.3,3.1 L16.4,3.3 L20.5,3.3 C20.3,3.2 20.2,3.2 20.2,3.1 C20.2,3 20,2.9 19.9,2.8 C19.9,2.7 19.8,2.5 19.7,2.1 C19.6,1.7 19.5,1.4 19.3,1.2 L19.3,1 C19.2,0.9 19.2,0.9 19.2,0.8 C19.2,0.7 19.3,0.7 19.4,0.7 C19.8,0.7 20.2,0.8 20.6,1 C21,1.2 21.3,1.5 21.3,1.9 C21.3,2.3 21.3,2.5 21.2,2.7 C21.1,2.9 21,3 20.9,3.1 L20.6,3.3 L24.6,3.3 L24.9,2.8 C25,2.6 25.1,2.5 25.1,2.5 C25.1,2.5 25.3,2.6 25.4,2.8 L26.2,3.8 C26.4,4 26.5,4.2 26.5,4.3 C26.5,4.4 26.3,4.5 26.1,4.5 C25.8,4.5 25.6,4.6 25.4,4.6 C25.2,4.7 25,4.8 24.8,4.9 L24.5,5.2 C24.4,5.3 24.3,5.4 24.3,5.3 C24.3,5.2 24.3,5.1 24.3,5.1 L24.6,3.8 L18.3,3.8 L19.2,4.1 C19.4,4.2 19.5,4.2 19.5,4.2 C19.5,4.2 19.5,4.3 19.5,4.3 C19.5,4.3 19.5,4.4 19.3,4.5 L19.1,4.8 L19.1,5.3 L21.5,5.3 L21.5,5 C21.5,4.6 21.5,4.3 21.5,4.2 C21.5,4.1 21.5,4.1 21.5,4.1 L21.7,4.1 L22.7,4.3 C22.8,4.3 22.9,4.4 22.9,4.4 C22.9,4.4 22.9,4.5 22.9,4.5 C22.9,4.5 22.9,4.5 22.9,4.6 C22.9,4.7 22.8,4.7 22.8,4.7 L22.5,4.9 L22.5,5.4 L23.1,5.4 Z M21.1,12.8 C21.1,13.2 21,13.7 21,14.3 C21,14.9 20.8,15.5 20.6,16 C20.4,16.5 20.1,16.9 19.7,17.2 C19.3,17.5 18.9,17.8 18.4,18 C17.9,18.2 17.3,18.4 16.6,18.6 L16,18.7 C15.9,18.7 15.9,18.7 15.8,18.7 C15.7,18.7 15.7,18.7 15.7,18.7 C15.7,18.7 15.7,18.6 15.7,18.6 C15.7,18.5 15.7,18.5 15.8,18.5 L16.1,18.4 L16.5,18.3 C17.1,18.1 17.6,17.9 18,17.6 C18.4,17.3 18.8,17 19.1,16.8 C19.4,16.6 19.6,16.2 19.7,15.7 C19.9,15.2 19.9,14.8 20,14.3 C20.1,13.8 20.1,13.4 20.1,13 L20.1,11.9 C20.1,11.9 20.1,11.8 20.1,11.8 C20.1,11.8 20.1,11.8 20.2,11.8 L21.4,12.2 C21.5,12.2 21.6,12.3 21.6,12.3 C21.6,12.3 21.7,12.4 21.7,12.4 C21.7,12.4 21.7,12.5 21.6,12.6 L21.1,12.8 Z M22.6,10.8 C22.6,10.7 22.7,10.6 22.8,10.5 C22.9,10.4 22.9,10.5 23,10.6 C22.8,10.1 22.6,9.6 22.6,9.2 L19.2,9.2 L19.4,9.3 C19.5,9.4 19.5,9.4 19.5,9.4 C19.5,9.4 19.5,9.5 19.5,9.5 C19.5,9.5 19.5,9.6 19.4,9.6 L19.2,10 L18.4,10.8 L22.6,10.8 Z M21.5,7 L21.5,5.9 L19.1,5.9 L19.1,7 L21.5,7 Z M21.5,8.7 L21.5,7.5 L19.1,7.5 L19.1,8.7 L21.5,8.7 Z M21,15.7 C21,15.6 21.1,15.6 21.2,15.6 C21.2,15.6 21.3,15.6 21.4,15.6 C21.5,15.6 21.8,15.7 22.2,15.7 C22.6,15.7 23.2,15.9 23.8,16.1 C24.4,16.4 24.9,16.6 25,17 C25.2,17.3 25.3,17.6 25.3,17.9 C25.3,18.2 25.3,18.4 25.2,18.6 C25.1,18.8 25,18.9 24.8,18.9 C24.6,18.9 24.4,18.8 24.1,18.5 C24.1,18.5 23.8,18.2 23.5,17.6 C23.2,17 22.7,16.7 22.4,16.5 C22,16.3 21.8,16.1 21.6,16 L21.2,15.8 C21,15.8 21,15.8 21,15.7 Z" id="Shape"></path>
                <path d="M31.1,8.7 L31.3,8.9 C31.4,9 31.5,9.1 31.5,9.1 C31.5,9.1 31.5,9.1 31.5,9.2 C31.5,9.2 31.5,9.2 31.5,9.3 C31.5,9.3 31.5,9.4 31.4,9.5 L31.2,9.8 L31.2,16.5 L31.2,18.2 C31.1,18.6 30.9,18.7 30.7,18.7 C30.5,18.7 30.3,18.7 30.2,18.6 C30.1,18.5 30.1,18.5 30.1,18.4 L30.2,16.4 L30.2,10.1 C30.1,10.3 29.9,10.6 29.6,11 C29.3,11.4 29.2,11.6 29.1,11.7 L28.8,12 C28.6,12.3 28.4,12.4 28.3,12.4 C28.3,12.4 28.2,12.4 28.2,12.4 C28.2,12.4 28.2,12.4 28.2,12.3 C28.2,12.2 28.2,12.3 28.2,12.2 C28.2,12.1 28.2,12.1 28.3,12.1 L28.5,11.8 L28.9,11.1 C29.1,10.7 29.3,10.3 29.4,9.9 C29.5,9.6 29.7,9.1 30,8.4 C30.3,7.7 30.4,7.3 30.5,7 C30.6,6.7 30.7,6.5 30.7,6.2 L31,5.4 C31,5.4 31,5.3 31,5.3 C31,5.3 31.1,5.3 31.2,5.4 L32.2,6.2 C32.3,6.3 32.3,6.3 32.4,6.4 C32.4,6.4 32.5,6.5 32.5,6.6 C32.5,6.7 32.4,6.7 32.3,6.8 L32,6.9 L31.1,8.7 Z M32.1,2.5 C31.6,3.3 31.1,4 30.7,4.6 C30.3,5.2 29.8,5.8 29.2,6.4 L28.9,6.8 C28.7,7 28.6,7.1 28.6,7.1 C28.6,7.1 28.6,7.1 28.5,7.1 C28.5,7.1 28.5,7.1 28.5,7 C28.5,7 28.5,6.9 28.5,6.8 L28.7,6.4 L29,5.8 C29.3,5.3 29.6,4.6 30,3.8 C30.4,2.9 30.6,2.2 30.8,1.6 L31,1.1 C31,1 31.1,1 31.1,1 C31.1,1 31.2,1 31.2,1.1 L32.3,1.9 C32.4,2 32.5,2.1 32.5,2.1 C32.5,2.1 32.5,2.2 32.5,2.2 C32.5,2.2 32.4,2.3 32.3,2.3 L32.1,2.5 Z M32.9,13.4 C33,13.5 33,13.7 33.1,14 C33.2,14.3 33.2,14.6 33.2,14.8 C33.2,15 33.2,15.2 33.2,15.4 C33.2,15.9 33.1,16.4 32.9,16.8 C32.7,17.2 32.5,17.4 32.2,17.4 C32,17.4 31.8,17.3 31.7,17.1 C31.6,16.9 31.6,16.7 31.5,16.5 C31.4,16.3 31.6,16 31.8,15.7 L32.1,15.3 C32.2,15.1 32.3,14.9 32.4,14.7 C32.5,14.5 32.5,14.3 32.6,13.9 L32.7,13.5 C32.7,13.4 32.8,13.3 32.9,13.4 Z M39.3,11.3 L39.7,10.6 C39.8,10.4 39.9,10.3 39.9,10.3 C39.9,10.3 40.1,10.4 40.2,10.6 L40.8,11.3 C40.9,11.5 41,11.6 41,11.7 C41,11.8 41,11.8 40.9,11.8 L31.9,11.8 C31.8,11.8 31.8,11.8 31.7,11.7 C31.7,11.7 31.6,11.6 31.6,11.4 C31.6,11.3 31.7,11.2 31.8,11.2 L39.3,11.2 L39.3,11.3 Z M32.4,4 C32.3,4 32.3,4 32.2,3.9 C32.1,3.8 32.1,3.8 32.1,3.6 C32.1,3.4 32.2,3.4 32.3,3.4 L35.3,3.4 L35.3,2.4 L35.3,1 C35.3,1 35.3,0.9 35.3,0.9 C35.3,0.9 35.4,0.9 35.5,0.9 L36.6,1.2 C36.7,1.2 36.8,1.3 36.8,1.3 C36.8,1.3 37,1.4 37,1.5 C37,1.5 37,1.5 37,1.6 C37,1.6 37,1.6 36.9,1.7 L36.5,2.2 L36.5,3.6 L38.5,3.6 L38.9,2.9 C39,2.7 39.1,2.6 39.1,2.5 C39.1,2.5 39.2,2.5 39.2,2.5 C39.2,2.5 39.4,2.6 39.5,2.8 L40.2,3.6 C40.3,3.8 40.4,3.9 40.4,4 C40.4,4.1 40.3,4.1 40.3,4.1 L36.5,4.1 L36.4,6.1 L38.5,6.1 L38.8,5.6 C38.9,5.4 39,5.4 39,5.4 C39,5.4 39.1,5.5 39.3,5.6 L39.8,6.1 C39.9,6.2 40,6.3 40,6.3 C40,6.3 40,6.4 40,6.4 C40,6.4 39.9,6.5 39.8,6.7 L39.6,7 L39.6,8.4 L39.6,9.9 C39.5,10.1 39.4,10.2 39.2,10.3 C39,10.4 38.8,10.4 38.8,10.4 C38.7,10.4 38.6,10.3 38.6,10.2 L38.6,9.6 L33.9,9.6 L33.9,10.3 C33.9,10.4 33.8,10.5 33.7,10.6 C33.6,10.7 33.4,10.8 33,10.8 C32.9,10.8 32.9,10.8 32.8,10.8 C32.8,10.8 32.7,10.7 32.7,10.6 L32.7,9 L32.7,7.1 L32.7,5.5 C32.7,5.4 32.8,5.4 32.8,5.4 C32.8,5.4 32.9,5.4 33,5.5 L34,6.1 L35.4,6.1 L35.4,4.1 L32.4,4 Z M34.8,6.6 L33.9,6.6 L33.9,9.1 L34.8,9.1 L34.8,6.6 Z M35.1,13.7 L35.1,16.6 C35.1,16.8 35.2,17 35.3,17 C35.4,17 35.7,17.1 36,17.1 C36.6,17.1 37.1,17.1 37.4,16.9 C37.7,16.7 37.9,16.6 38,16.5 C38.1,16.4 38.2,16 38.3,15.7 L38.6,14.5 C38.6,14.4 38.7,14.3 38.8,14.3 C38.8,14.3 38.9,14.3 38.9,14.4 C38.9,14.5 38.9,14.5 38.9,14.5 C38.9,14.5 38.9,14.6 38.9,14.6 L38.8,15.7 C38.8,15.8 38.8,15.9 38.8,15.9 C38.8,16 38.8,16.1 38.8,16.1 C38.8,16.3 38.9,16.5 39,16.6 C39.1,16.7 39.1,16.9 39.2,17 C39.3,17.1 39.2,17.1 39.2,17.2 C39.2,17.6 39,17.9 38.6,18.1 C38.2,18.3 37.5,18.4 36.7,18.4 C35.9,18.4 35.4,18.4 35,18.3 C34.6,18.2 34.4,18 34.4,17.8 C34.4,17.6 34.3,17.3 34.3,17.2 L34.3,14.2 L34.3,12.6 C34.3,12.6 34.3,12.6 34.4,12.5 L34.6,12.6 L35.6,13 C35.7,13 35.7,13.1 35.7,13.2 C35.7,13.3 35.6,13.4 35.5,13.5 L35.1,13.7 Z M36.6,6.6 L35.7,6.6 L35.6,6.8 L35.6,9.1 L36.6,9.1 L36.6,6.6 Z M35.7,12.4 C35.7,12.4 35.7,12.3 35.7,12.4 C35.8,12.3 35.9,12.3 36,12.4 C36,12.4 36.1,12.5 36.4,12.6 C36.7,12.7 36.9,13 37.1,13.3 C37.3,13.6 37.4,14 37.4,14.2 C37.4,14.5 37.4,14.7 37.3,14.9 C37.2,15.2 37,15.3 36.7,15.3 C36.6,15.3 36.4,15.3 36.3,15.2 C36.2,15.1 36.1,15 36.1,14.9 C36.1,14.8 36,14.5 36,14.2 C36,13.8 36,13.6 35.9,13.4 C35.8,13.2 35.8,13 35.7,12.9 L35.5,12.5 C35.7,12.5 35.7,12.5 35.7,12.4 Z M38.6,6.6 L37.6,6.6 L37.5,6.8 L37.5,9.1 L38.6,9.1 L38.6,6.6 Z M38.7,13.2 C38.7,13.2 38.7,13.1 38.8,13.1 C38.8,13.1 39,13.2 39.3,13.4 C39.6,13.6 40,13.9 40.4,14.3 C40.8,14.7 41,15.2 41,15.8 C41,16 41,16.2 40.9,16.4 C40.8,16.6 40.7,16.8 40.5,16.9 C40.3,17 40.1,17 39.9,16.7 C39.8,16.6 39.7,16.4 39.7,16.3 C39.7,16.1 39.6,15.8 39.6,15.4 C39.6,15 39.5,14.7 39.4,14.4 C39.3,14.1 39.2,13.9 39,13.6 L38.8,13.3 C38.8,13.3 38.7,13.2 38.7,13.2 Z" id="Shape"></path>
                <path d="M43.9,12.5 L43.9,4.9 L42.5,4.9 C42.4,4.9 42.3,4.8 42.3,4.6 C42.3,4.4 42.3,4.3 42.5,4.3 L43.9,4.3 L43.9,2.5 L43.8,0.9 C43.8,0.9 43.8,0.8 43.9,0.8 C44,0.8 44,0.8 44.2,0.9 L45.1,1.3 C45.2,1.4 45.3,1.4 45.3,1.4 C45.3,1.4 45.3,1.5 45.3,1.5 C45.3,1.5 45.3,1.6 45.2,1.7 L45,1.9 L45,4.4 L46.8,4.4 L46.8,2.3 L46.8,0.9 C46.8,0.9 46.8,0.8 46.9,0.8 L47.1,1 L48,1.3 C48.1,1.3 48.2,1.4 48.2,1.4 C48.2,1.4 48.2,1.5 48.2,1.5 C48.2,1.5 48.2,1.6 48.1,1.6 L47.8,1.9 L47.8,4.4 L47.9,4.4 L48.3,3.6 C48.4,3.5 48.4,3.4 48.5,3.4 C48.5,3.4 48.6,3.5 48.7,3.7 L49.3,4.6 C49.3,4.7 49.4,4.7 49.4,4.7 C49.4,4.7 49.4,4.8 49.4,4.8 C49.4,4.8 49.4,4.8 49.4,4.8 C49.4,4.8 49.4,4.9 49.3,4.9 L48.3,4.9 L47.8,4.9 L47.8,12.4 L48.2,11.7 C48.3,11.6 48.4,11.5 48.4,11.5 C48.4,11.5 48.5,11.6 48.6,11.7 L49.2,12.7 C49.3,12.8 49.3,12.9 49.3,12.9 C49.3,12.9 49.2,13 49.1,13 L42.4,13 L42.3,13 C42.2,13 42.2,13 42.1,12.9 C42,12.8 42.1,12.8 42,12.6 C41.9,12.4 42.1,12.4 42.2,12.4 L43.9,12.4 L43.9,12.5 Z M45.3,14.7 C44.7,15.4 44.2,16.1 43.7,16.6 C43.2,17.1 42.9,17.5 42.8,17.6 L42.5,17.9 C42.4,18 42.4,18 42.4,18 C42.4,18 42.4,18 42.4,18 C42.4,18 42.4,18 42.4,17.9 C42.4,17.8 42.4,17.8 42.5,17.7 L42.8,17.3 C43,16.9 43.3,16.5 43.6,15.8 C43.9,15.2 44.1,14.7 44.3,14.3 L44.5,13.8 L44.6,13.4 C44.6,13.4 44.6,13.4 44.7,13.4 L44.9,13.6 L45.8,14.3 C45.9,14.4 45.9,14.4 45.9,14.4 C45.9,14.4 45.9,14.5 45.9,14.5 C45.9,14.5 45.9,14.6 45.8,14.6 L45.3,14.7 Z M46.8,6.9 L46.8,4.9 L45,4.9 L45,6.9 L46.8,6.9 Z M46.8,9.7 L46.8,7.4 L45,7.4 L45,9.7 L46.8,9.7 Z M46.8,12.5 L46.8,10.2 L45,10.2 L45,12.5 L46.8,12.5 Z M46.5,14.3 L46.3,14 L46.2,13.9 C46.2,13.9 46.2,13.9 46.2,13.8 C46.2,13.7 46.2,13.7 46.3,13.7 C46.4,13.7 46.7,13.9 47.1,14.2 C47.6,14.5 47.9,14.9 48,15.2 C48.1,15.5 48.3,15.8 48.3,16.1 C48.3,16.3 48.3,16.4 48.2,16.5 C48.1,16.6 48.1,16.8 48,16.9 C47.9,17 47.8,17.1 47.6,17.1 C47.4,17.1 47.3,17 47.2,16.8 C47.1,16.6 47,16.4 47,16.2 L47,15.6 C47,15.3 46.9,15.1 46.8,14.9 C46.7,14.7 46.6,14.5 46.5,14.3 Z M50.6,7.6 L53.2,7.6 L53.7,6.7 C53.8,6.6 53.9,6.5 53.9,6.5 C53.9,6.5 54,6.6 54.1,6.7 L54.9,7.9 C55,7.9 55,8 55,8 C55,8.1 54.9,8.1 54.9,8.1 L53.6,8.1 C53.6,8.2 53.5,8.2 53.5,8.3 L53.4,8.4 L53.3,8.5 L53.3,16.7 L53.3,18.1 C53.2,18.4 53.1,18.6 52.9,18.7 C52.7,18.8 52.6,18.8 52.4,18.8 C52.2,18.8 52.1,18.8 52.1,18.7 C52,18.6 52,18.5 52,18.4 L52.1,16.4 L52.1,8.1 L50.6,8.1 C50.6,9.2 50.6,10.1 50.5,10.8 C50.4,11.5 50.4,12.2 50.3,12.8 C50.2,13.4 50.1,14 49.9,14.5 C49.7,15 49.5,15.5 49.3,15.9 C49.1,16.3 48.9,16.7 48.6,17 L48,17.8 C47.9,18 47.8,18.1 47.7,18.2 L47.4,18.5 C47.4,18.6 47.3,18.6 47.3,18.6 C47.3,18.6 47.2,18.6 47.2,18.6 C47.2,18.6 47.2,18.6 47.2,18.5 C47.2,18.4 47.2,18.4 47.3,18.3 L47.6,17.9 C47.9,17.5 48.2,17 48.5,16.4 C48.8,15.9 48.9,15.3 49.1,14.6 C49.3,13.9 49.3,13.3 49.4,12.8 C49.5,12.3 49.5,11.7 49.5,10.8 C49.5,10 49.5,9.3 49.5,8.6 C49.5,7.9 49.5,7.5 49.5,7.2 C49.5,6.8 49.5,6.5 49.5,6.2 L49.5,4.1 L49.5,3.9 L49.4,2.4 C49.4,2.4 49.4,2.4 49.4,2.3 L49.6,2.5 L50.8,3.3 C51.4,3 51.8,2.6 52.2,2.3 C52.6,2 52.8,1.8 52.9,1.6 L53.2,1.2 C53.3,1.1 53.4,1 53.4,1 C53.4,1 53.5,1.1 53.6,1.3 L54.3,2.4 C54.4,2.5 54.4,2.6 54.4,2.7 C54.4,2.8 54.3,2.8 54.2,2.8 L53.8,2.8 C54,3 53.7,3 53.3,3.1 L52.1,3.3 L50.6,3.6 L50.6,7.6 Z" id="Shape"></path>
                <polygon id="Shape" points="64.7 8.8 64.7 10.5 56.3 10.5 56.3 8.8"></polygon>
                <path d="M76.5,12.7 L77.1,11.7 C77.2,11.6 77.2,11.6 77.3,11.5 C77.4,11.5 77.4,11.6 77.5,11.7 L78.4,12.8 C78.5,12.9 78.5,13 78.5,13.1 C78.5,13.2 78.4,13.2 78.3,13.2 L75.3,13.2 L75.3,16.8 L75.3,18.2 C75.3,18.3 75.2,18.4 75.1,18.5 C75,18.6 74.8,18.7 74.6,18.7 C74.4,18.7 74.2,18.7 74.1,18.6 C74,18.5 74,18.5 74,18.4 L74.1,16.1 L74.1,13.1 L70.1,13.1 C70.1,13.2 70.1,13.3 70.1,13.3 L70.1,14 C70,15 69.8,15.8 69.5,16.3 C69.2,16.8 68.8,17.2 68.3,17.6 C67.8,18 67.4,18.2 66.9,18.4 L66.4,18.6 C66.4,18.6 66.3,18.6 66.3,18.6 C66.3,18.6 66.3,18.6 66.2,18.6 C66.1,18.6 66.2,18.6 66.2,18.6 C66.2,18.6 66.2,18.6 66.2,18.5 C66.2,18.5 66.2,18.4 66.3,18.4 L66.8,18 C67.7,17.3 68.3,16.6 68.5,15.8 C68.7,15.1 68.8,14.5 68.8,14.2 C68.8,13.9 68.8,13.5 68.8,13.3 L66.1,13.3 C66,13.3 65.9,13.2 65.9,13 C65.9,12.8 65.9,12.7 66.1,12.7 L68.8,12.7 C68.8,12.6 68.8,12.5 68.8,12.4 C68.8,12.3 68.8,12.2 68.8,12.2 C68.8,12.1 68.8,12 68.8,11.8 C68.8,11.6 68.8,11.5 68.8,11.5 L68.8,11.3 L68.8,10.5 L68.8,9.9 C68.8,9.9 68.8,9.8 68.9,9.8 L69.1,9.9 L70.3,10.3 C70.4,10.3 70.5,10.4 70.5,10.4 C70.5,10.4 70.6,10.5 70.6,10.5 C70.6,10.5 70.6,10.6 70.5,10.7 L70.2,11 C70.2,11.4 70.2,11.7 70.2,11.8 L70.2,12.2 L70.2,12.6 L74.2,12.6 L74.2,11.2 L74,9.8 C74,9.8 74,9.7 74.1,9.7 L74.3,9.8 L75.5,10.2 C75.6,10.2 75.7,10.3 75.7,10.4 C75.7,10.5 75.7,10.6 75.6,10.7 L75.3,11 L75.3,12.8 L76.5,12.8 L76.5,12.7 Z M70.2,3.7 C70.3,3.5 70.4,3.2 70.5,2.9 C70.6,2.6 70.7,2.3 70.8,2.1 L71,1.3 L71.1,0.8 C71.1,0.8 71.1,0.8 71.2,0.8 C71.3,0.8 71.3,0.8 71.4,0.9 L72.8,1.7 C72.9,1.7 72.9,1.8 72.9,1.8 C72.9,1.8 72.9,1.9 72.9,1.9 C72.9,2 72.8,2 72.7,2.1 L72.4,2.3 C71.9,3.3 71.7,3.8 71.7,3.8 L75.8,3.8 L76.4,2.8 C76.5,2.6 76.6,2.6 76.6,2.6 C76.6,2.6 76.7,2.7 76.8,2.8 L77.8,4 C77.9,4.1 77.9,4.1 77.9,4.2 C77.9,4.2 77.9,4.3 77.9,4.3 C77.9,4.3 77.9,4.4 77.8,4.4 C77.8,4.4 77.7,4.5 77.6,4.5 L75.7,4.5 L75.3,4.5 L73.7,4.5 C74.1,5.3 74.5,6 75.1,6.6 C75.7,7.2 76.2,7.6 76.7,7.9 C77.2,8.2 77.6,8.3 78.1,8.5 L78.4,8.6 C78.5,8.6 78.5,8.7 78.5,8.8 C78.5,8.9 78.5,9 78.4,9 L78.1,9.1 C78,9.2 77.9,9.2 77.8,9.3 C77.7,9.4 77.6,9.5 77.5,9.7 C77.4,9.9 77.3,10 77.3,10.1 C77.3,10.2 77.3,10.2 77.2,10.3 C77.1,10.4 77.2,10.3 77.1,10.3 C77,10.3 76.6,10.1 76,9.5 C75.3,9 74.8,8.3 74.5,7.6 C74.2,6.9 73.9,6.3 73.8,5.9 C73.7,5.5 73.6,5.2 73.5,4.9 L73.5,4.7 L73.4,4.4 L71.3,4.4 C71.3,4.5 71.2,4.5 71.2,4.6 L71,5.1 C70.3,6.2 69.7,7.1 69.1,7.8 C68.5,8.5 68,8.9 67.7,9.2 C67.4,9.5 67.1,9.7 66.8,9.9 L66.3,10.3 C66.3,10.3 66.2,10.3 66.2,10.3 C66.2,10.3 66.1,10.3 66.1,10.3 C66.1,10.3 66.1,10.2 66.1,10.2 C66.1,10.2 66.1,10.1 66.2,10 L66.6,9.6 C67.1,9.1 67.6,8.5 68,7.8 C68.4,7.1 68.8,6.6 69,6.2 C69.2,5.8 69.4,5.4 69.6,5 L69.8,4.5 L69.9,4.3 L66.4,4.3 C66.3,4.3 66.2,4.2 66.2,4 C66.2,3.8 66.2,3.7 66.4,3.7 L70.2,3.7 Z M71.5,8.7 L69.1,8.7 C69,8.7 68.9,8.6 68.9,8.4 C68.9,8.2 68.9,8.1 69.1,8.1 L71.5,8.1 L71.5,6.5 L71.4,5.1 C71.4,5 71.5,5 71.6,5 L72.9,5.3 C73,5.3 73,5.3 73,5.4 C73,5.4 73,5.5 73,5.5 C73,5.5 73,5.6 72.9,5.7 L72.6,6 L72.6,8 L73.3,8 L73.8,7.2 C73.9,7.1 73.9,7.1 73.9,7.1 C73.9,7.1 74,7.1 74.1,7.2 L74.8,8.1 C74.9,8.2 74.9,8.2 74.9,8.3 C74.9,8.4 74.9,8.4 74.9,8.4 C74.9,8.4 74.9,8.5 74.8,8.5 C74.8,8.5 74.7,8.6 74.6,8.6 L72.5,8.6 L72.5,10.3 L72.5,11.4 C72.4,11.8 72.1,12 71.5,12 C71.4,12 71.3,12 71.3,11.9 C71.3,11.8 71.2,11.8 71.2,11.7 L71.2,9.9 L71.2,8.7 L71.5,8.7 Z" id="Shape"></path>
                <path d="M83.4,2.9 L80.1,2.9 C79.9,2.9 79.9,2.8 79.9,2.6 L79.9,2.5 C79.9,2.4 79.9,2.3 80,2.3 L83.3,2.3 L83.7,1.7 C83.8,1.6 83.8,1.6 83.8,1.6 C83.8,1.6 83.8,1.6 83.8,1.6 L83.9,1.7 L84.8,2.6 C84.8,2.6 84.9,2.7 84.9,2.7 C84.9,2.7 84.9,2.8 84.9,2.8 C84.9,2.8 84.9,2.9 84.8,2.9 L84.4,3.3 L84,9.6 L84.3,9.6 L84.5,9.1 C84.6,9 84.6,8.9 84.6,8.9 C84.6,8.9 84.6,8.9 84.7,8.9 C84.7,8.9 84.8,9 84.8,9 L85.7,9.9 C85.8,10 85.8,10 85.8,10.1 C85.8,10.1 85.8,10.2 85.7,10.3 L85.5,10.6 C85.5,11.1 85.4,11.4 85.4,11.7 L85.3,13.4 C85.3,14.3 85.2,15 85.1,15.6 C85,16.1 84.9,16.5 84.8,16.9 C84.7,17.3 84.5,17.5 84.4,17.7 C84.3,17.9 84.1,18 83.8,18.2 C83.5,18.4 83.3,18.4 83.1,18.5 C83.1,18.5 83,18.5 83,18.5 C83,18.5 83,18.4 82.9,18.3 C82.8,18.2 82.8,17.9 82.7,17.6 C82.5,17.3 82.4,17.1 82.1,16.9 L81.8,16.7 C81.8,16.7 81.8,16.7 81.8,16.7 C81.8,16.7 81.8,16.6 81.8,16.6 C81.8,16.6 81.8,16.5 81.9,16.5 L82.2,16.6 C82.6,16.7 82.9,16.8 83.1,16.8 C83.4,16.8 83.7,16.7 83.8,16.5 C83.9,16.3 84,16 84,15.7 C84,15.4 84.1,15 84.2,14.6 C84.3,14.2 84.3,13.7 84.3,13.3 C84.3,12.9 84.4,12.4 84.4,11.9 C84.4,11.4 84.4,11 84.4,10.6 L84.4,10.4 L81.5,10.4 L81.1,11.2 C81.1,11.3 81,11.3 81,11.3 C81,11.3 80.9,11.3 80.9,11.2 L80.4,10.5 C80.3,10.3 80.2,10.2 80.2,10.2 C80.2,10.2 80.2,10.1 80.3,10.1 L80.5,9.8 C80.6,8.5 80.7,7.4 80.8,6.5 C80.9,5.6 80.9,5 81,4.7 L81.1,3.8 L81.1,3.4 C81.1,3.4 81.1,3.3 81.1,3.3 L81.3,3.4 L82.5,4 C82.5,4 82.5,4.1 82.6,4.1 C82.7,4.1 82.6,4.2 82.5,4.3 L82.2,4.6 C82.1,5.6 82,6.4 82,7 C81.9,7.6 81.9,8.6 81.8,9.8 L83.3,9.8 L83.4,2.9 Z M80.9,15 C80.7,15.2 80.6,15.3 80.6,15.3 C80.6,15.3 80.5,15.2 80.5,15.1 L80,13.8 C80,13.7 79.9,13.7 79.9,13.6 C79.9,13.6 80,13.5 80.2,13.5 L80.6,13.4 C80.9,13.3 81.4,13.1 82.1,12.9 C82.8,12.7 83.2,12.4 83.6,12.3 L83.8,12.2 C83.8,12.2 83.9,12.2 83.9,12.2 C83.9,12.2 83.9,12.3 83.9,12.3 C83.9,12.3 83.9,12.4 83.9,12.4 L83.5,12.8 L82.5,13.7 L81.6,14.5 L80.9,15 Z M86,7.3 L86,5.5 L85.9,4 C85.9,4 85.9,4 85.9,4 C85.9,4 86,4 86.1,4.1 L87.3,4.6 C87.3,4.6 87.4,4.6 87.4,4.7 C87.4,4.7 87.4,4.8 87.4,4.8 C87.4,4.8 87.4,4.9 87.3,5 L87,5.2 L87,6.9 L88.2,6.5 L88.2,2.6 L88.1,1.1 C88.1,1.1 88.1,1 88.2,1 C88.3,1 88.3,1 88.6,1.1 L89.5,1.4 C89.6,1.4 89.6,1.5 89.6,1.5 C89.6,1.5 89.6,1.6 89.5,1.6 L89.2,2 L89.2,5.9 L90.4,5.5 L90.7,4.8 C90.7,4.7 90.8,4.7 90.8,4.7 C90.8,4.7 90.9,4.7 90.9,4.7 L91.8,5.5 C91.9,5.6 91.9,5.6 91.9,5.7 C91.9,5.7 91.9,5.7 91.9,5.8 C91.9,5.8 91.9,5.8 91.9,5.9 C91.9,6 92,6 92,6 L91.7,6.5 C91.7,7.4 91.7,8.2 91.7,8.8 C91.7,9.4 91.7,10 91.7,10.6 C91.7,11.2 91.7,11.6 91.6,11.9 C91.5,12.2 91.5,12.5 91.4,12.9 C91.3,13.2 91.1,13.5 90.8,13.6 C90.5,13.7 90.4,13.8 90.3,13.8 C90.3,13.8 90.2,13.6 90.2,13.3 C90.2,13 90,12.8 89.8,12.6 L89.5,12.4 C89.5,12.4 89.4,12.3 89.4,12.3 C89.4,12.3 89.4,12.2 89.5,12.2 L89.6,12.2 L89.9,12.2 C90,12.2 90,12.2 90.1,12.2 C90.3,12.2 90.5,12 90.5,11.7 C90.5,11.4 90.6,11.1 90.6,10.8 C90.6,10.5 90.6,10.1 90.6,9.6 C90.6,9.1 90.6,8.6 90.6,8.2 C90.6,7.7 90.6,7.3 90.6,6.9 L90.6,6.6 L90.6,6.2 L89.3,6.7 L89.3,12.9 L89.4,14.3 C89.4,14.5 89.3,14.6 89.3,14.6 C89.3,14.6 89.2,14.7 89.1,14.8 C89,14.9 88.9,14.9 88.7,14.9 C88.6,14.9 88.5,14.9 88.5,14.9 C88.4,14.9 88.4,14.8 88.3,14.8 C88.2,14.8 88.3,14.7 88.3,14.6 L88.4,12.8 L88.4,7.1 L87,7.4 L87,15.4 C87,15.7 87,15.9 87.1,16 C87.1,16.1 87.3,16.2 87.5,16.3 C87.7,16.4 88.3,16.4 89.1,16.4 C90.1,16.4 90.7,16.3 90.9,16.2 C91.1,16.1 91.3,15.9 91.4,15.8 C91.5,15.6 91.6,15.4 91.7,15 C91.8,14.6 91.9,14.3 92,14 L92.2,13.1 C92.2,13 92.3,12.9 92.3,13 C92.3,13.1 92.4,13.1 92.4,13.1 L92.3,13.8 C92.2,14.4 92.2,14.8 92.2,15 C92.2,15.2 92.2,15.4 92.3,15.6 L92.5,16 C92.6,16.1 92.6,16.2 92.6,16.3 C92.6,16.4 92.6,16.4 92.6,16.5 C92.6,16.9 92.5,17.2 92.2,17.4 C92,17.6 91.5,17.8 90.8,17.9 C90.1,18 89.6,18 89.2,18 C88.5,18 87.8,17.9 87.1,17.8 C86.4,17.7 86,17.4 85.9,17 C85.8,16.6 86,16.2 86,16 L86,7.8 L84.7,8.3 C84.6,8.3 84.5,8.3 84.5,8.1 C84.5,7.9 84.5,7.8 84.6,7.8 L86,7.3 Z" id="Shape"></path>
                <path d="M108.3,2.1 L108.5,5.5 C108.5,5.7 108.5,5.8 108.4,5.9 C108.3,6 108.2,5.9 108.2,5.7 L108,5.2 C107.9,4.9 107.7,4.6 107.5,4.2 C107.3,3.8 107.1,3.5 106.9,3.3 C106.7,3.1 106.4,2.9 106.1,2.8 C105.8,2.7 105.5,2.7 105.2,2.7 L104.1,2.7 C103.8,2.7 103.6,2.7 103.5,2.8 C103.4,2.9 103.4,3 103.4,3.2 L103.4,3.8 L103.4,8.6 L105,8.6 C105.2,8.6 105.4,8.5 105.5,8.4 C105.6,8.3 105.7,8.1 105.8,7.9 C105.9,7.7 105.9,7.4 105.9,7 L105.9,6.4 C105.9,6.2 106,6.1 106.1,6.1 C106.2,6.1 106.3,6.2 106.3,6.4 L106.3,11.5 C106.3,11.7 106.2,11.8 106.1,11.8 C106,11.8 105.9,11.7 105.9,11.5 L105.9,10.6 C105.9,10.2 105.9,10 105.8,9.8 C105.7,9.6 105.6,9.4 105.5,9.4 C105.4,9.3 105.2,9.3 105,9.3 L103.4,9.3 L103.4,14.5 C103.4,15 103.4,15.3 103.5,15.4 C103.5,15.5 103.6,15.6 103.7,15.6 C103.8,15.6 104,15.7 104.2,15.7 L105.8,15.7 C106.1,15.7 106.3,15.6 106.6,15.5 C106.9,15.4 107.1,15.2 107.4,14.9 C107.7,14.6 107.9,14.3 108,14 C108.1,13.7 108.2,13.4 108.4,13 L108.6,12.5 C108.7,12.3 108.7,12.2 108.8,12.3 C108.9,12.4 108.9,12.4 108.9,12.6 L108.6,16.3 L101.3,16.3 C101.2,16.3 101.1,16.2 101.1,16 C101.1,15.8 101.2,15.7 101.3,15.7 L101.6,15.7 C101.8,15.7 101.9,15.7 102,15.6 C102.1,15.5 102.2,15.4 102.3,15.3 C102.4,15.2 102.4,14.9 102.4,14.5 L102.4,4 C102.4,3.5 102.3,3.2 102.2,3 C102.1,2.8 101.9,2.7 101.7,2.7 L101.3,2.7 C101.2,2.7 101.1,2.6 101.1,2.4 C101.1,2.2 101.2,2.1 101.3,2.1 L108.3,2.1 Z" id="Shape"></path>
                <path d="M116.3,16.8 C116.5,17.1 116.7,17.2 117,17.2 C117.2,17.2 117.4,17.1 117.6,17 C117.8,16.9 117.9,16.7 117.9,16.7 C118,16.7 118,16.7 118.1,16.7 C118.2,16.7 118.2,16.9 118.1,17 C118.1,17.1 118,17.2 117.9,17.3 L117.8,17.5 C117.6,17.7 117.5,17.9 117.2,18.1 C116.9,18.3 116.7,18.3 116.5,18.3 C116.2,18.3 116,18.2 115.7,18 C115.4,17.8 115.3,17.4 115.1,16.9 L114.9,16.2 C114.7,16.3 114.4,16.4 114.1,16.5 C113.8,16.6 113.3,16.5 112.8,16.3 C112.3,16.1 111.8,15.8 111.4,15.4 C111,15 110.7,14.5 110.4,13.9 C110.1,13.3 109.9,12.6 109.7,11.8 C109.5,11 109.4,10 109.5,8.9 C109.5,7.9 109.6,7.1 109.8,6.3 C110,5.5 110.3,4.8 110.7,4 C111.1,3.3 111.6,2.8 112.1,2.4 C112.6,2 113.2,1.9 113.7,1.9 C114.3,1.9 114.9,2 115.5,2.3 C116.1,2.6 116.6,3.1 117,3.8 C117.4,4.5 117.8,5.3 118,6.1 C118.2,7 118.3,7.9 118.3,8.9 C118.3,9.9 118.2,10.8 118,11.7 C117.8,12.7 117.5,13.4 117.2,14 C116.9,14.6 116.5,15 116.2,15.3 L115.9,15.6 C116,16.1 116.1,16.5 116.3,16.8 Z M111.9,13.3 C112,13 112.1,12.7 112.3,12.4 C112.5,12.1 112.8,12 113.1,11.9 C113.3,11.9 113.6,11.9 113.8,12 C114,12.1 114.2,12.3 114.3,12.5 C114.5,12.7 114.6,12.9 114.7,13.2 C114.8,13.5 115,13.8 115.1,14.2 L115.3,14.8 C115.4,14.6 115.6,14.4 115.7,14.2 C115.8,14 116,13.6 116.2,13.1 C116.4,12.6 116.5,12 116.6,11.3 C116.7,10.6 116.7,9.7 116.7,8.7 C116.7,7.7 116.6,6.9 116.5,6.2 C116.4,5.5 116.2,4.9 115.9,4.3 C115.6,3.7 115.3,3.3 114.9,2.9 C114.5,2.5 114.1,2.4 113.5,2.4 C113.1,2.4 112.7,2.6 112.3,2.9 C111.9,3.2 111.6,3.6 111.4,4.1 C111.2,4.6 111,5.1 110.8,5.7 C110.7,6.3 110.6,6.8 110.5,7.2 C110.5,7.6 110.4,8.2 110.4,9 C110.4,9.8 110.4,10.5 110.6,11.1 C110.7,12 111,12.9 111.3,13.7 L111.5,14.1 C111.8,14 111.8,13.7 111.9,13.3 Z M114.8,15.4 C114.8,15.2 114.7,15 114.7,14.8 C114.7,14.6 114.6,14.4 114.5,14 C114.4,13.6 114.2,13.3 114,13 C113.8,12.7 113.5,12.5 113.2,12.5 C112.9,12.5 112.7,12.6 112.6,12.9 C112.4,13.1 112.3,13.5 112.3,14 C112.3,14.5 112.3,14.8 112.5,15 C112.6,15.2 112.8,15.4 113.1,15.5 C113.4,15.6 113.6,15.7 113.8,15.7 C114.1,15.7 114.4,15.7 114.6,15.6 C114.8,15.5 114.8,15.4 114.8,15.4 Z" id="Shape"></path>
            </g>
        </g>
    </g>
</svg>