<svg xmlns="http://www.w3.org/2000/svg" width="940" height="153" viewBox="0 0 940 153">
    <g fill="none" fill-rule="evenodd">
        <path fill="#FFF" stroke="#CCC" d="M.5.5h939v152H.5z"/>
        <text fill="#333" font-family="PingFangSC-Regular, PingFang SC" font-size="16">
            <tspan x="458" y="62">活动期间选择置换或重购指定梅赛德斯—奔驰车型，最高可享</tspan> <tspan x="458" y="97">16,000元保险支持，助你轻松攻获全新座驾。</tspan>
        </text>
        <path fill="#333" d="M108.678 57.787l-.1-.996 8.4-5.512v41.338c0 1.837.05 3.027.15 3.57.1.542.304.962.614 1.261.31.3.73.46 1.262.482l1.992.166v1.427h-12.053V98.23c.465-.045.864-.1 1.196-.166a6.287 6.287 0 0 0 1.112-.35c.41-.165.72-.375.93-.63.21-.255.398-.63.564-1.129.166-.498.25-1.51.25-3.038v-31.51c0-1.018-.045-1.854-.134-2.507-.088-.653-.21-1.112-.365-1.378-.155-.265-.487-.42-.996-.464a3.141 3.141 0 0 0-1.262.199l-1.56.531zm39.71-6.01v.963c-1.394.222-2.523.493-3.386.814-.863.32-1.815.907-2.856 1.76-1.04.852-1.903 1.676-2.59 2.473a24.795 24.795 0 0 0-2.025 2.74 22.152 22.152 0 0 0-1.76 3.336c-.509 1.196-.852 2.158-1.029 2.889l-1.295 4.914c1.151-.863 2.064-1.489 2.74-1.876.675-.387 1.466-.72 2.374-.996a7.066 7.066 0 0 1 2.755-.282 6.428 6.428 0 0 1 2.341.747c.764.41 1.483.985 2.158 1.726a9.678 9.678 0 0 1 1.61 2.374c.4.842.742 1.86 1.03 3.055.288 1.195.47 2.407.548 3.636.077 1.228.083 2.518.017 3.868a35.12 35.12 0 0 1-.482 4.549 25.962 25.962 0 0 1-1.129 4.283c-.498 1.395-1.129 2.584-1.892 3.57a9.27 9.27 0 0 1-2.74 2.39c-1.062.609-2.39.88-3.984.813-1.24-.044-2.297-.287-3.17-.73A9.292 9.292 0 0 1 133.197 97a14.262 14.262 0 0 1-1.942-2.457c-.554-.885-1.068-2.114-1.544-3.686a31.328 31.328 0 0 1-1.046-4.714c-.221-1.572-.349-3.498-.382-5.778-.033-2.28.039-4.194.216-5.744.133-1.284.376-2.656.73-4.117.355-1.461.725-2.745 1.113-3.852a31.152 31.152 0 0 1 1.444-3.42c.576-1.173 1.328-2.374 2.258-3.602a29.607 29.607 0 0 1 3.005-3.403 16.696 16.696 0 0 1 3.403-2.574c1.195-.675 2.38-1.167 3.553-1.477 1.173-.31 1.97-.454 2.39-.432l1.993.033zm-8.898 46.086c1.018-.199 1.82-.459 2.407-.78s1.068-.802 1.445-1.444c.376-.642.658-1.406.846-2.291.189-.886.327-1.843.416-2.872.088-1.03.138-2.308.149-3.835a63.639 63.639 0 0 0-.15-4.748c-.11-1.572-.298-2.961-.564-4.167-.266-1.207-.642-2.242-1.129-3.105s-1.101-1.56-1.843-2.092c-.741-.531-1.61-.808-2.606-.83-1.395 0-2.49.343-3.287 1.03l-2.258 1.726a435.72 435.72 0 0 0-.166 3.586 54.61 54.61 0 0 0-.033 3.32c0 1.262.055 2.623.166 4.084.11 1.461.304 2.867.58 4.217.278 1.35.61 2.557.997 3.62.387 1.062.813 1.908 1.278 2.54.465.63.958 1.084 1.478 1.36.52.277 1.278.504 2.274.681zm20.453 8.069l.864-1.13c.11-.132.365-.553.763-1.261.399-.708.67-1.228.814-1.56.144-.333.348-.974.614-1.926s.338-1.65.216-2.092c-.122-.443-.26-.708-.415-.797-.089-.022-.288.033-.598.166s-.575.188-.797.166c-.863-.044-1.544-.443-2.042-1.195-.498-.753-.747-1.738-.747-2.955 0-1.218.31-2.27.93-3.155.62-.885 1.406-1.328 2.357-1.328 1.174.045 2.07.614 2.69 1.71a8.402 8.402 0 0 1 1.079 3.503c.1 1.24.072 2.435-.083 3.586-.244 1.682-.659 3.154-1.245 4.416-.587 1.262-1.118 2.186-1.594 2.773a27.216 27.216 0 0 1-1.494 1.693c-.52.542-.919.77-1.195.68-.277-.088-.415-.26-.415-.514 0-.255.1-.515.298-.78zm16.37-31.477c0-1.749.105-3.669.315-5.76.21-2.092.492-3.885.847-5.38a29.928 29.928 0 0 1 1.378-4.333c.564-1.394 1.234-2.645 2.008-3.752.775-1.106 1.61-1.992 2.507-2.656.897-.664 1.987-1.007 3.27-1.03.952 0 1.821.206 2.607.615.786.41 1.539 1.018 2.258 1.826.72.808 1.406 1.821 2.059 3.038a22.974 22.974 0 0 1 1.643 3.918c.443 1.395.802 3.15 1.08 5.263.276 2.114.447 4.19.514 6.226a98.844 98.844 0 0 1 0 6.275c-.067 2.258-.205 4.2-.415 5.827-.21 1.627-.493 3.05-.847 4.267a27.048 27.048 0 0 1-1.428 3.768c-.597 1.295-1.25 2.419-1.959 3.37a11.91 11.91 0 0 1-2.473 2.474c-.941.697-2.009 1.024-3.204.98-.841-.023-1.688-.272-2.54-.747a8.628 8.628 0 0 1-2.325-1.926c-.697-.808-1.333-1.76-1.909-2.856a26.675 26.675 0 0 1-1.544-3.586c-.454-1.295-.824-2.877-1.112-4.748a60.11 60.11 0 0 1-.598-5.694 76.373 76.373 0 0 1-.132-5.379zm10.392 22.91a3.209 3.209 0 0 0 1.776-.58c.52-.366 1.024-.936 1.511-1.71.487-.776.875-1.644 1.162-2.607.288-.963.515-2.446.681-4.45.166-2.003.282-4.056.349-6.159.066-2.103.1-4.393.1-6.873-.045-2.656-.111-5.019-.2-7.089-.089-2.07-.2-3.68-.332-4.83a40.57 40.57 0 0 0-.648-3.819c-.298-1.394-.664-2.501-1.095-3.32-.432-.82-.93-1.434-1.494-1.843-.565-.41-1.135-.625-1.71-.648-.687 0-1.328.233-1.926.698-.598.465-1.146 1.095-1.644 1.892a10.9 10.9 0 0 0-1.195 2.723c-.299 1.018-.553 2.319-.764 3.901a48.842 48.842 0 0 0-.398 4.665c-.055 1.528-.072 4.206-.05 8.036.022 3.807.078 6.613.166 8.417.089 1.804.277 3.619.565 5.445.287 1.826.675 3.409 1.162 4.748.487 1.34 1.062 2.252 1.726 2.74a3.404 3.404 0 0 0 2.258.663zm13.38-22.91c0-1.749.106-3.669.316-5.76.21-2.092.493-3.885.847-5.38a29.928 29.928 0 0 1 1.378-4.333c.564-1.394 1.234-2.645 2.009-3.752.775-1.106 1.61-1.992 2.507-2.656.896-.664 1.986-1.007 3.27-1.03.952 0 1.82.206 2.607.615.785.41 1.538 1.018 2.257 1.826.72.808 1.406 1.821 2.059 3.038a22.974 22.974 0 0 1 1.644 3.918c.442 1.395.802 3.15 1.079 5.263.276 2.114.448 4.19.514 6.226a98.845 98.845 0 0 1 0 6.275c-.066 2.258-.204 4.2-.415 5.827-.21 1.627-.492 3.05-.846 4.267a27.048 27.048 0 0 1-1.428 3.768c-.598 1.295-1.25 2.419-1.96 3.37a11.91 11.91 0 0 1-2.473 2.474c-.94.697-2.009 1.024-3.204.98-.841-.023-1.688-.272-2.54-.747a8.628 8.628 0 0 1-2.324-1.926c-.697-.808-1.334-1.76-1.91-2.856a26.675 26.675 0 0 1-1.543-3.586c-.454-1.295-.825-2.877-1.113-4.748a60.11 60.11 0 0 1-.597-5.694 76.373 76.373 0 0 1-.133-5.379zm10.394 22.91a3.209 3.209 0 0 0 1.776-.58c.52-.366 1.024-.936 1.51-1.71.488-.776.875-1.644 1.163-2.607.287-.963.514-2.446.68-4.45.166-2.003.283-4.056.349-6.159.066-2.103.1-4.393.1-6.873-.045-2.656-.111-5.019-.2-7.089-.088-2.07-.199-3.68-.332-4.83a40.57 40.57 0 0 0-.647-3.819c-.299-1.394-.664-2.501-1.096-3.32-.431-.82-.93-1.434-1.494-1.843-.564-.41-1.134-.625-1.71-.648-.686 0-1.328.233-1.926.698-.597.465-1.145 1.095-1.643 1.892a10.9 10.9 0 0 0-1.196 2.723c-.298 1.018-.553 2.319-.763 3.901a48.841 48.841 0 0 0-.399 4.665c-.055 1.528-.072 4.206-.05 8.036.023 3.807.078 6.613.167 8.417.088 1.804.276 3.619.564 5.445.288 1.826.675 3.409 1.162 4.748.487 1.34 1.063 2.252 1.727 2.74a3.404 3.404 0 0 0 2.258.663zm13.38-22.91c0-1.749.106-3.669.316-5.76.21-2.092.492-3.885.846-5.38a29.928 29.928 0 0 1 1.378-4.333c.565-1.394 1.234-2.645 2.01-3.752.774-1.106 1.61-1.992 2.506-2.656.897-.664 1.987-1.007 3.27-1.03.952 0 1.821.206 2.607.615.786.41 1.538 1.018 2.258 1.826s1.405 1.821 2.058 3.038a22.974 22.974 0 0 1 1.644 3.918c.443 1.395.802 3.15 1.08 5.263.276 2.114.447 4.19.514 6.226a98.844 98.844 0 0 1 0 6.275c-.067 2.258-.205 4.2-.415 5.827-.21 1.627-.493 3.05-.847 4.267a27.048 27.048 0 0 1-1.428 3.768c-.597 1.295-1.25 2.419-1.959 3.37a11.91 11.91 0 0 1-2.473 2.474c-.941.697-2.01 1.024-3.204.98-.842-.023-1.688-.272-2.54-.747a8.628 8.628 0 0 1-2.325-1.926c-.697-.808-1.333-1.76-1.909-2.856a26.675 26.675 0 0 1-1.544-3.586c-.454-1.295-.824-2.877-1.112-4.748a60.11 60.11 0 0 1-.598-5.694 76.373 76.373 0 0 1-.133-5.379zm10.393 22.91a3.209 3.209 0 0 0 1.776-.58c.52-.366 1.024-.936 1.511-1.71.487-.776.874-1.644 1.162-2.607.288-.963.515-2.446.68-4.45.167-2.003.283-4.056.35-6.159.066-2.103.1-4.393.1-6.873-.045-2.656-.112-5.019-.2-7.089-.089-2.07-.2-3.68-.332-4.83a40.57 40.57 0 0 0-.648-3.819c-.298-1.394-.664-2.501-1.095-3.32-.432-.82-.93-1.434-1.494-1.843-.565-.41-1.135-.625-1.71-.648-.687 0-1.329.233-1.926.698-.598.465-1.146 1.095-1.644 1.892a10.9 10.9 0 0 0-1.195 2.723c-.299 1.018-.553 2.319-.764 3.901a48.842 48.842 0 0 0-.398 4.665c-.056 1.528-.072 4.206-.05 8.036.022 3.807.077 6.613.166 8.417.089 1.804.277 3.619.564 5.445.288 1.826.676 3.409 1.163 4.748.487 1.34 1.062 2.252 1.726 2.74a3.404 3.404 0 0 0 2.258.663zm16.07-27.426c-.221-.044-.382-.127-.481-.249-.1-.121-.155-.415-.166-.88-.011-.464.205-.697.647-.697h33.004l2.557-4.217c.133-.22.26-.337.382-.348.121-.011.337.171.647.548l3.287 4.216c.332.443.498.775.498.997a.795.795 0 0 1-.199.448.52.52 0 0 1-.398.182h-15.141l3.353 1.926c.244.155.41.294.499.415a.61.61 0 0 1 .116.415c-.011.155-.183.388-.515.698l-1.096 1.029v22.81c0 .997.083 1.75.25 2.258.165.51 1.112.742 2.838.698 2.28-.045 3.819-.266 4.616-.665.796-.398 1.433-1.1 1.909-2.108a34.695 34.695 0 0 0 1.344-3.304l1.694-4.88c.133-.421.31-.631.531-.631.11.022.194.121.25.298.054.178.077.31.065.399-.01.088-.016.2-.016.332l-1.063 5.312c-.088.443-.138 1.04-.149 1.793-.011.753.083 1.362.282 1.827.067.177.255.498.565.962.31.465.487.814.53 1.046.045.233.073.454.084.664a2.16 2.16 0 0 1-.083.681c-.288 1.218-1.262 2.241-2.922 3.071-1.66.83-3.951 1.212-6.873 1.146-2.568-.022-4.466-.293-5.694-.814-1.229-.52-1.943-1.2-2.142-2.042-.2-.84-.299-1.815-.299-2.921V69.939H264.5l3.055 1.561c.487.266.73.576.73.93a1.034 1.034 0 0 1-.365.697l-1.229 1.096c-.11 1.527-.215 3.099-.315 4.715-.1 1.615-.244 3.42-.432 5.412s-.553 4.1-1.095 6.325c-.543 2.224-1.61 4.543-3.204 6.956-1.594 2.413-5.114 4.803-10.56 7.172l-1.892.83c-.155.066-.287.06-.398-.017-.11-.077-.172-.227-.183-.448-.01-.221.083-.41.283-.564l1.925-1.295c.62-.421 1.843-1.406 3.67-2.955 1.825-1.55 3.28-3.46 4.365-5.728 1.085-2.269 1.843-4.466 2.275-6.59.432-2.126.725-4.594.88-7.405.155-2.811.243-5.246.265-7.305V69.94h-11.953zm27.692-16.867l2.457-4.017c.199-.332.387-.51.564-.532.155 0 .343.133.565.399l3.386 4.15c.222.31.354.543.399.698.044.154.066.276.066.365v.166c-.044.31-.265.465-.664.465h-30.016c-.332 0-.509-.283-.53-.847-.023-.565.154-.847.53-.847h23.243zM58.252 95.406v-.41l-.103-2.174c.055-.082.1-.13.134-.143.034-.014.215.034.543.143l2.338.8c.164.055.246.154.246.297 0 .144-.048.27-.143.38l-.595.656v.451h3.035l1.046-1.702c.355-.547.547-.837.574-.871.027-.035.233.174.615.625l1.908 2.338c.109.137.164.246.164.328v.144c-.014.164-.144.246-.39.246h-6.952v6.275c0 .766-.014 1.265-.041 1.497a2.036 2.036 0 0 1-.205.677 1.68 1.68 0 0 1-.503.584c-.225.171-.608.404-1.148.698-.54.294-.981.434-1.323.42-.15 0-.246-.024-.287-.072-.041-.048-.065-.263-.072-.646-.007-.383-.12-.776-.338-1.179-.219-.403-.438-.721-.656-.954-.22-.232-.616-.464-1.19-.697l-.39-.164c-.19-.068-.287-.198-.287-.39 0-.068.031-.136.093-.205.061-.068.126-.102.195-.102l.471.061.841.144c1.258.191 1.976.15 2.153-.123.178-.274.267-.834.267-1.682v-4.142H41.6c-.164-.014-.277-.055-.339-.123-.061-.069-.099-.25-.113-.544-.013-.294.123-.44.41-.44h16.694zm6.132-20.097v.02h-6.645a11 11 0 0 0-.133.38c-.048.143-.085.228-.113.256l-.348.41v2.481h3.486l.492-.963c.205-.41.335-.62.39-.626.054-.007.212.1.471.318l1.662 1.518c.45.437.687.68.707.728.02.047.034.092.041.133a.252.252 0 0 1-.01.123l-.308.349-.8.943v7.957l.144 3.015c-.178.615-.482.96-.913 1.035-.43.075-.803.069-1.117-.02-.315-.09-.472-.325-.472-.708v-.554H47.239v1.046c0 .547-.246.89-.738 1.026-.492.137-.82.191-.984.164-.246-.028-.41-.106-.493-.236a1.216 1.216 0 0 1-.164-.482l.144-3.732v-7.855l-.123-4.47c.055-.055.106-.086.154-.093.048-.007.194.058.44.195l1.867 1.19h3.179v-3.528h-8.532c-.232 0-.369-.184-.41-.554-.04-.369.096-.553.41-.553h7.322a1.798 1.798 0 0 1-.165-.328 1.863 1.863 0 0 1-.061-.41l-.103-1.17c-.15-1.12-.492-1.907-1.025-2.358l-.37-.328-.204-.144c-.082-.082-.12-.212-.113-.39.007-.177.126-.259.359-.245.219.027.793.167 1.723.42s1.606.708 2.03 1.364c.424.656.639 1.186.646 1.59.007.402-.01.693-.051.87-.069.356-.24.732-.513 1.129h4.778c.383-1.45.697-2.776.944-3.979l.246-1.21.082-.533c.04-.055.205 0 .492.164l2.543 1.64c.246.165.369.315.369.452-.014.178-.123.307-.328.39l-.8.348c-.424.615-1.073 1.525-1.948 2.728h4.82l1.127-1.867c.26-.437.417-.66.472-.666.054-.007.287.215.697.666l1.764 2.01c.246.287.38.458.4.513.02.055.034.106.04.154.007.048-.013.106-.06.174-.049.068-.12.103-.216.103h-2.502zm-9.31.02H53.33c-.04.137-.075.25-.102.338a1.053 1.053 0 0 1-.082.206c-.028.047-.158.201-.39.461v2.522h2.317V75.33zm5.844 4.676h-3.773v1.62c0 .656.04 1.056.123 1.2.082.143.3.201.656.174.232 0 .516-.068.85-.205.336-.137.572-.205.708-.205.15.027.363.184.636.472.274.287.41.683.41 1.189-.013.3-.071.56-.174.78-.103.218-.407.416-.913.594-.505.178-1.128.267-1.866.267-1.107.027-1.774-.164-2-.575-.225-.41-.365-.779-.42-1.107a6.776 6.776 0 0 1-.082-1.107v-3.097h-2.379a18.817 18.817 0 0 1-.246 1.846c-.11.587-.434 1.278-.974 2.07-.54.794-1.453 1.717-2.738 2.77l-.533.43a.339.339 0 0 1-.246.092c-.082-.006-.13-.027-.144-.061a.538.538 0 0 1-.03-.267c.007-.048.058-.14.154-.277l.287-.41c.779-1.107 1.322-2.085 1.63-2.932.308-.848.485-1.515.533-2 .048-.485.079-.906.092-1.261h-3.24v7.24h13.679v-7.24zm0 8.367H47.239v2.625h13.679v-2.625zm-13.29 9.024c-.013-.028-.016-.11-.01-.247.007-.136.093-.211.257-.225.137 0 .697.236 1.682.707.984.472 1.65 1.074 2 1.805.348.731.522 1.391.522 1.979 0 .479-.072.892-.215 1.24a3.21 3.21 0 0 1-.585.934c-.246.273-.54.403-.882.39-.546 0-.919-.22-1.117-.657a4.078 4.078 0 0 1-.36-1.292l-.081-1.64c-.096-.971-.37-1.798-.82-2.482l-.39-.512zm34.885-1.97V94.34l-.082-3.035a.522.522 0 0 1 .123-.123l.471.205 2.728 1.169c.766-.903 1.442-1.706 2.03-2.41.588-.704.923-1.104 1.005-1.2H73.981c-.232 0-.338-.174-.317-.523.02-.348.126-.523.317-.523h15.402l1.107-1.128c.123-.123.226-.184.308-.184.068.014.191.13.369.349l2.235 2.768c.123.15.178.345.164.585-.013.239-.246.358-.697.358h-.984c-.834.383-1.73.8-2.687 1.251a70.71 70.71 0 0 1-3.014 1.333c-.301.397-.616.766-.944 1.108v1.087h7.465l1.518-2.482c.095-.15.18-.236.256-.256.075-.02.229.092.461.338l2.195 2.461c.095.123.167.236.215.339a.665.665 0 0 1 .072.277c0 .082-.045.17-.133.266a.399.399 0 0 1-.298.144h-11.75v7.28c0 .52-.086.995-.257 1.425-.171.43-.653.851-1.446 1.261-.793.41-1.38.595-1.764.554-.15 0-.235-.02-.256-.061a.94.94 0 0 1-.051-.123 3.446 3.446 0 0 1-.051-.462c-.021-.266-.106-.588-.257-.964a3.271 3.271 0 0 0-.523-.912c-.198-.233-.489-.472-.871-.718l-1.005-.636c-.219-.123-.322-.28-.308-.471.014-.22.171-.315.472-.288l1.23.164c.205.028.598.045 1.18.052.58.007.902-.045.963-.154.062-.11.113-.24.154-.39.041-.15.062-.266.062-.348v-5.21H71.315c-.218 0-.341-.18-.369-.543-.027-.362.096-.543.37-.543h11.197zm9.7-21.122l1.394-2.42c.123-.205.24-.315.35-.328.095 0 .245.109.45.328l2.297 2.563c.082.11.144.216.185.318a.987.987 0 0 1 .071.256c.007.069-.04.15-.143.247a.535.535 0 0 1-.38.143H71.665c-.219 0-.342-.184-.37-.554-.026-.369.097-.553.37-.553h10.972a2.602 2.602 0 0 1-.277-.277 1.948 1.948 0 0 1-.215-.37c-.082-.17-.123-.522-.123-1.055v-.698a9.055 9.055 0 0 0-.103-1.056 2.36 2.36 0 0 0-.39-.974l-.553-.8a.572.572 0 0 1-.093-.195 9.064 9.064 0 0 1-.04-.153c-.008-.028.003-.055.03-.082.027-.11.144-.165.349-.165.724.014 1.425.247 2.102.698.677.45 1.176.936 1.497 1.456.321.52.482 1.087.482 1.702-.014.533-.1.933-.257 1.2a7.252 7.252 0 0 1-.523.769h7.69zm-3.015 10.11H78.76v1.148c0 .165-.103.397-.308.698-.205.3-.57.458-1.097.471-.526.014-.837-.037-.933-.153a1.082 1.082 0 0 1-.205-.482l.123-2.933v-3.445l-.123-3.015c.054-.068.099-.11.133-.123.034-.014.181.055.441.205l2.235 1.374h9.947l.881-1.169c.137-.191.236-.307.298-.348.061-.041.167.006.318.143l2.133 2.174c.123.137.201.24.235.308a.63.63 0 0 1 .062.235c.007.09-.072.223-.236.4l-.78.841v1.866l.083 2.38c-.164.491-.482.816-.954.973-.471.158-.837.23-1.097.216-.479 0-.718-.253-.718-.76v-1.004zM78.76 79.308v4.02h10.438v-4.02H78.76zM318.375 88.434h5.168l1.456-2.42c.082-.123.15-.188.205-.195.055-.007.157.085.308.277l2.215 2.85c.027.055.058.123.092.205a.563.563 0 0 1 .051.164c-.014.164-.11.247-.287.247h-8.49c.574 1.394 1.046 2.474 1.415 3.24.369.765 1.032 1.74 1.99 2.922.956 1.183 1.893 2.088 2.809 2.717.916.63 1.64 1.033 2.173 1.21l.718.246c.123.055.188.161.195.318.007.158-.058.257-.195.298l-.84.307c-.684.26-1.224.65-1.62 1.17l-.575.758c-.137.191-.219.284-.246.277-.027-.007-.123-.1-.287-.277l-.759-.759c-.642-.629-1.316-1.473-2.02-2.532-.704-1.06-1.312-2.26-1.825-3.6-.513-1.34-1.05-3.438-1.61-6.295h-.041v11.915l.123 3.691a4.163 4.163 0 0 1-.185.482c-.082.184-.369.342-.86.472-.493.13-.855.188-1.088.174-.246 0-.393-.048-.44-.144a1.475 1.475 0 0 1-.113-.43l.143-4.902v-7.054c-.52.779-1.148 1.688-1.887 2.727-.738 1.04-1.702 2.164-2.891 3.374-1.19 1.21-1.894 1.917-2.113 2.122l-.8.698c-.109.095-.187.14-.235.133a.193.193 0 0 1-.113-.051c-.027-.028-.048-.09-.062-.185-.013-.096.048-.226.185-.39l.738-.923c.192-.26.653-.98 1.385-2.163a57.084 57.084 0 0 0 2.132-3.774c.69-1.333 1.245-2.553 1.662-3.66.417-1.108.687-1.812.81-2.112h-6.42c-.218 0-.345-.188-.379-.564-.034-.376.093-.564.38-.564h7.608v-2.851l-.082-3.63h-2.133v1.58c0 .45-.27.779-.81.984-.54.205-.92.294-1.138.266-.219-.013-.362-.075-.43-.184-.069-.11-.11-.294-.124-.554l.123-3.65V74.2l-.102-3.917a.448.448 0 0 1 .092-.123c.02-.014.209.096.564.328l1.948 1.292h7.014l.84-1.374c.151-.232.25-.352.298-.359.048-.006.12.031.215.113l1.949 1.866.307.349c.055.068.082.116.082.144v.143c0 .068-.047.15-.143.246l-.882.944v6.336l.103 2.687a1.883 1.883 0 0 1-.216.636c-.102.177-.342.345-.718.502a2.523 2.523 0 0 1-1.076.215c-.356 0-.533-.232-.533-.697v-1.579h-5.004l2.83 1.292c.082.041.154.1.215.174a.323.323 0 0 1 .082.236c-.007.082-.065.185-.174.308l-.677.759v3.712zm2.728-7.65V72.91h-7.363v7.875h7.363zm-14.315-1.702l1.128.78c.068.054.126.112.174.174.048.061.069.13.062.205-.007.075-.072.195-.195.359l-.554.758v20.16l.082 3.896a1.796 1.796 0 0 1-.256.513c-.103.136-.335.256-.697.359a3.22 3.22 0 0 1-1.015.133c-.192 0-.315-.034-.37-.103-.054-.068-.088-.212-.102-.43l.102-4.922V82.979c-1.148 2.42-2.078 4.238-2.789 5.455l-.86 1.435c-.083.15-.162.222-.237.215-.075-.006-.116-.082-.123-.225a1.09 1.09 0 0 1 .051-.4l.554-1.374c.766-1.928 1.62-4.61 2.564-8.05.943-3.438 1.606-6.299 1.989-8.582l.369-2.174.103-.512c0-.014.013-.028.04-.041l.308.184 2.912 1.58c.22.122.322.256.308.4-.014.143-.055.235-.123.276l-.656.41c-.834 2.406-1.368 3.89-1.6 4.45l-1.169 3.056zm42.123 24.056c.041-.178.086-.373.133-.585.048-.212.154-.755.318-1.63.164-.875.37-1.9.616-3.076.246-1.176.382-1.832.41-1.97l.574-3.629c.219-1.066.335-1.894.349-2.481.013-.588.061-.93.143-1.026a.66.66 0 0 1 .195-.174c.048-.02.277.12.687.42l2.297 1.805c.178.15.266.294.266.43-.013.178-.13.315-.348.41l-.677.288c-1.326 3.705-2.078 5.79-2.256 6.255l-1.271 3.199c-.342.902-.568 1.49-.677 1.764h2.768l1.17-1.949c.163-.273.276-.434.338-.481.061-.048.242.112.543.481l1.6 2.072c.15.218.225.424.225.615 0 .232-.123.349-.369.349h-18.19c-.219 0-.352-.182-.4-.544-.048-.362.085-.543.4-.543h11.156zm0-17.924l1.046-1.702c.068-.11.133-.168.195-.175.061-.006.215.12.461.38l1.477 1.722c.178.22.266.404.266.554-.013.233-.13.349-.348.349H341.61c-.218 0-.338-.188-.359-.564-.02-.376.113-.564.4-.564h7.26zm-11.607-13.515l.656-1.435c.082-.178.15-.27.205-.277.055-.007.191.085.41.277l2.113 2.071c.205.205.307.39.307.554-.014.177-.17.355-.472.533l-.758.472c-.301.902-.527 1.572-.677 2.01l-1.415 3.67-.78 2.092c1.272 2.338 2.178 4.054 2.718 5.147.54 1.094.796 2.632.769 4.615-.027 1.709-.345 3.014-.954 3.917-.608.902-1.134 1.449-1.579 1.64-.444.192-.762.28-.953.267a.336.336 0 0 1-.185-.041c-.041-.027-.068-.205-.082-.533-.014-.328-.12-.725-.318-1.19-.198-.465-.448-.813-.748-1.046l-.718-.512c-.137-.096-.198-.22-.185-.37.014-.205.144-.307.39-.307h.78c1.025 0 1.62-.4 1.783-1.2.164-.8.246-1.514.246-2.143-.013-.957-.126-2.013-.338-3.168-.212-1.156-.448-2.116-.707-2.882l-.739-2.194c.383-2.584.67-4.512.862-5.783.191-1.272.362-2.297.512-3.076h-3.22v27.521l.083 4.45a2.86 2.86 0 0 1-.206.687c-.082.171-.3.352-.656.544-.355.191-.663.273-.923.246-.26-.014-.434-.089-.523-.226-.088-.136-.147-.376-.174-.717l.123-6.255V75.719l-.123-5.763a.198.198 0 0 1 .103-.082c.04-.014.232.116.574.39l1.723 1.435h3.076zm10.172 1.108a98.855 98.855 0 0 1-2.954 6.121 41.495 41.495 0 0 1-3.752 5.855l-.862 1.149c-.11.136-.198.201-.266.194-.069-.006-.113-.027-.134-.061a.584.584 0 0 1-.051-.195c-.014-.096.041-.273.164-.533l.574-1.169c.903-1.9 1.781-4.06 2.636-6.48.854-2.42 1.473-4.458 1.856-6.112l.348-1.579.205-.984a.223.223 0 0 1 .082-.041l.472.266 2.769 1.497c.26.15.386.325.379.523a.49.49 0 0 1-.277.441l-.697.39a35.374 35.374 0 0 0 1.907 3.876c.656 1.135 1.552 2.273 2.687 3.414 1.134 1.142 2.426 1.904 3.875 2.287l.595.164c.164.055.246.154.246.297a.34.34 0 0 1-.184.318l-.656.41a9.448 9.448 0 0 0-.636.513c-.287.246-.574.581-.862 1.005l-.574.964c-.11.164-.205.246-.287.246-.205.027-.81-.564-1.815-1.774a16.666 16.666 0 0 1-2.41-3.825c-.601-1.34-1.056-2.47-1.363-3.394-.308-.923-.646-2.184-1.015-3.783zm-5.702 18.949l-.348-1.518c-.014-.013-.024-.054-.031-.123-.007-.068-.003-.116.01-.143.014-.11.082-.164.205-.164.233.027.636.52 1.21 1.476a13.113 13.113 0 0 1 1.344 3.087c.32 1.1.482 2.047.482 2.84 0 .848-.15 1.538-.452 2.071-.3.533-.71.8-1.23.8-.41.014-.742-.195-.995-.625a2.866 2.866 0 0 1-.4-1.395c-.013-.499.048-1.159.185-1.979.082-.492.137-.923.164-1.292.027-.37.044-.824.051-1.364a6.83 6.83 0 0 0-.195-1.671zm4.266-1.415l-.349-1.99a.883.883 0 0 1-.04-.194c0-.034.013-.086.04-.154.028-.096.069-.15.123-.164.028 0 .096.051.206.154.109.102.444.663 1.004 1.681a17.284 17.284 0 0 1 1.374 3.261c.356 1.155.527 2.088.513 2.8a5.245 5.245 0 0 1-.492 1.855c-.287.622-.697.92-1.23.892-.383 0-.684-.218-.903-.656a3.245 3.245 0 0 1-.359-1.302c-.02-.43.017-1.121.113-2.071.096-.95.144-1.733.144-2.349 0-.615-.048-1.203-.144-1.763zm25.47-14.581v-3.794l-.102-2.974.082-.082.985.267 2.502.656c.164.055.242.147.235.277-.006.13-.071.27-.194.42l-.78.964v4.266h7.034l1.128-2.236c.164-.314.284-.478.36-.492.074-.013.174.041.297.164l2.604 2.892c.137.164.195.331.174.502-.02.171-.126.257-.317.257h-11.28v6.685h3.507l.554-1.025c.11-.192.198-.277.266-.257.069.021.185.106.35.257l2.214 2.256c.232.232.335.427.308.584-.028.157-.13.298-.308.42l-.8.575c-.383 1.039-.728 1.941-1.036 2.707-.307.765-.85 1.951-1.63 3.558a32.67 32.67 0 0 1-2.789 4.686 28.74 28.74 0 0 0 5.28 3.117c1.867.848 3.518 1.34 4.953 1.477l1.005.102c.178.028.263.11.257.246a.9.9 0 0 1-.062.318c-.034.075-.078.12-.133.134l-.595.205c-.314.109-.65.314-1.005.615-.355.3-.642.625-.861.974-.219.349-.37.69-.451 1.025-.082.335-.171.51-.267.523-.04.014-.113-.01-.215-.071-.103-.062-.42-.206-.954-.431-.533-.226-1.295-.632-2.286-1.22a39.067 39.067 0 0 1-2.78-1.805c-.86-.615-2.077-1.634-3.65-3.056-1.408 1.203-2.567 2.113-3.476 2.728-.909.615-2.136 1.264-3.68 1.948-1.546.684-2.783 1.169-3.713 1.456l-1.415.43c-.15.055-.24.028-.266-.081a1.13 1.13 0 0 1-.041-.226c0-.164.068-.273.205-.328l.964-.37c.697-.259 2.02-1 3.968-2.224 1.948-1.224 3.865-2.93 5.752-5.117-.93-1.217-1.65-2.4-2.163-3.548-.513-1.148-.981-2.509-1.405-4.08-.424-1.573-.738-3.391-.944-5.456h-3.937c-.191 0-.297-.174-.318-.523-.02-.348.086-.523.318-.523h8.552v-6.685h-10.623c-.246 0-.37-.181-.37-.544 0-.362.124-.543.37-.543h10.623zm-4.08 8.818c.04.178.12.547.236 1.108.116.56.372 1.38.769 2.46.396 1.08.909 2.229 1.538 3.446s1.613 2.55 2.953 3.999c.738-1.244 1.316-2.283 1.733-3.117.417-.834.93-2.014 1.538-3.538s1.07-2.977 1.384-4.358H367.43zm26.947-6.275v-5.886l-.103-3.179a.497.497 0 0 1 .072-.061c.02-.014.188.034.503.143l2.481.882c.137.055.215.11.236.164a.75.75 0 0 1 .04.195c.008.075-.064.195-.214.359l-.718.84v6.543h1.005l.861-1.682c.15-.314.26-.482.328-.502.069-.02.164.05.287.215l1.723 2.338c0 .014.034.096.102.246.069.15.1.24.093.267a.949.949 0 0 1-.052.133.145.145 0 0 1-.143.092h-4.204v6.686l3.097-1.518c.177-.082.27-.044.276.113.007.157-.024.277-.092.359l-.328.328c-.055.068-.5.478-1.333 1.23l-1.62 1.477v14.807c0 .546-.065 1.015-.195 1.404-.13.39-.485.735-1.066 1.036-.581.3-1.016.489-1.303.564-.287.075-.437.106-.45.092-.07 0-.124-.04-.165-.123-.04-.082-.068-.314-.082-.697-.014-.383-.167-.82-.461-1.313-.294-.492-.571-.813-.83-.963l-.903-.493c-.123-.054-.178-.164-.164-.328 0-.04.017-.102.051-.184.034-.082.12-.11.256-.082l.431.102a6.791 6.791 0 0 0 1.548.216c.486.006.78-.069.882-.226.103-.157.154-.427.154-.81V89.972c-1.04.97-1.777 1.668-2.215 2.091l-.861.882c-.123.123-.205.137-.246.041l-.082-.41-.616-2.604-.287-1.026a.22.22 0 0 1 .041-.123l.534-.123 1.333-.513c1.08-.41 1.88-.745 2.399-1.004V79.41h-4.368c-.233 0-.37-.184-.41-.554-.041-.369.095-.553.41-.553h4.368zm14.622 11.525v-2.502l-.144-2.707c.041-.027.076-.048.103-.061l.615.205 2.215.656c.274.096.407.195.4.297a.573.573 0 0 1-.113.298l-.615.8v3.014h.984l.923-1.805c.15-.3.267-.444.349-.43.082.013.273.212.574.594l1.538 2.03c.123.179.181.34.174.483-.006.143-.064.215-.174.215h-4.368v12.407c0 .451-.044.82-.133 1.108-.09.287-.28.55-.575.79-.294.238-.704.485-1.23.738-.526.252-.967.372-1.323.358a.386.386 0 0 1-.154-.03c-.047-.02-.085-.072-.112-.154-.028-.082-.045-.366-.052-.851-.006-.486-.215-.94-.625-1.364-.41-.424-.732-.718-.964-.882l-.615-.39c-.123-.068-.178-.177-.164-.328.013-.205.116-.287.307-.246l.677.164c.56.137 1.176.212 1.846.226.314.014.502-.062.564-.226.061-.164.092-.403.092-.717V90.915h-8.777c-.22 0-.339-.181-.36-.543-.02-.363.1-.544.36-.544h8.777zm-3.179-14.335v-3.179l-.123-2.953a.46.46 0 0 1 .134-.102c.034-.014.188.02.461.102l2.563.8c.165.068.257.147.277.236.02.089-.024.208-.133.359l-.718.964v3.773h2.605l.902-1.825c.096-.191.168-.297.215-.318.048-.02.182.086.4.318l1.764 2.01c.178.218.26.42.246.605-.014.184-.096.277-.246.277h-5.886v6.419h3.917l.882-1.662c.191-.369.318-.56.38-.574.061-.014.174.069.338.246l2.03 2.42c.082.096.12.226.113.39-.007.164-.065.246-.174.246h-16.202l-.164-.082a1.239 1.239 0 0 1-.174-.626c-.007-.239.106-.358.338-.358h6.255v-6.42h-5.106c-.219 0-.335-.177-.349-.533-.013-.355.103-.533.349-.533h5.106zm-4.08 16.714a.368.368 0 0 1 0-.174c.013-.075.068-.127.163-.154.028 0 .287.13.78.39l.738.41c.875.547 1.48 1.2 1.815 1.958.335.759.502 1.425.502 2-.013.355-.116.817-.307 1.384-.192.567-.571.858-1.139.872-.567.013-.953-.185-1.158-.595a1.778 1.778 0 0 1-.236-.79c-.02-.294-.044-.793-.072-1.497-.027-.704-.096-1.288-.205-1.753a5.106 5.106 0 0 0-.513-1.323c-.232-.417-.355-.66-.369-.728z"/>
    </g>
</svg>
