<svg xmlns="http://www.w3.org/2000/svg" width="940" height="153" viewBox="0 0 940 153">
    <g fill="none" fill-rule="evenodd">
        <path fill="#FFF" stroke="#CCC" d="M.5.5h939v152H.5z"/>
        <text fill="#333" font-family="PingFangSC-Regular, PingFang SC" font-size="16">
            <tspan x="448" y="62">1/4的任性由奔驰为它买单。即日起至9月30日，购买梅赛德</tspan> <tspan x="448" y="97">斯-奔驰指定车型即可享受25%购置税支持方案。</tspan>
        </text>
        <path fill="#333" d="M105.412 63.896H92.928c-.222.443-.653 1.362-1.295 2.756-.642 1.395-1.782 3.332-3.42 5.81l-.664 1.03c-.133.222-.277.321-.432.299-.155-.022-.243-.144-.265-.365-.023-.222 0-.41.066-.565l.797-2.025c.376-.908.808-2.125 1.295-3.652a97 97 0 0 0 1.378-4.748c.431-1.638.747-2.989.946-4.051.2-1.063.465-2.502.797-4.317.332-1.815.531-2.988.598-3.52l.232-2.124.1-1.295a.32.32 0 0 1 .166-.133l.53.299 4.815 2.29c.244.134.354.289.332.466-.022.177-.121.365-.299.564L97.41 51.91c-1.505 4.472-2.413 7.117-2.722 7.936l-.665 1.593-.265.631h11.256l1.261-2.59c.177-.398.305-.614.382-.647.078-.033.227.05.448.249l3.155 3.354c.354.376.509.658.465.846-.045.188-.166.404-.366.648l-.996 1.228a300.15 300.15 0 0 0-.016 5.213c.01 1.107.016 1.848.016 2.225-.022 2.545-.055 5.484-.1 8.815a553.008 553.008 0 0 1-.149 7.92 147.29 147.29 0 0 1-.348 6.54c-.177 2.413-.46 4.25-.847 5.512-.387 1.262-.885 2.274-1.494 3.038-.609.764-1.4 1.394-2.374 1.892-.974.499-1.683.736-2.125.714a.37.37 0 0 1-.166-.033c-.045-.022-.078-.221-.1-.598-.022-.376-.177-.973-.465-1.792-.287-.82-.658-1.472-1.112-1.96a6.491 6.491 0 0 0-1.478-1.195l-1.328-.763c-.221-.111-.332-.31-.332-.598 0-.133.045-.25.133-.349.089-.1.2-.138.332-.116l1.694.398c1.261.31 2.268.333 3.021.067.753-.266 1.284-.598 1.594-.996.31-.399.63-1.395.963-2.988.332-1.594.536-4.284.614-8.069.077-3.785.127-7.836.15-12.152v-6.01l-.034-5.977zm-22.678-9.828h-8.433v28.157c0 3.453-.011 5.301-.033 5.545a3.153 3.153 0 0 1-.15.713c-.077.233-.365.432-.863.598a5.104 5.104 0 0 1-1.51.266c-.51.01-.814-.105-.914-.349-.1-.243-.171-.52-.216-.83l.133-5.777V56.26l-.133-6.408a.384.384 0 0 0 .083-.05c.011-.011.183.094.515.315l3.187 2.125h8.202l.796-1.46c.399-.71.642-1.074.73-1.096.09-.023.289.121.599.431l2.855 3.154c.11.133.172.288.183.465.01.177-.061.354-.216.532l-1.096 1.261v24.205l.2 6.94a5.11 5.11 0 0 1-.216.763c-.078.2-.327.454-.748.764-.42.31-.951.454-1.593.432-.664 0-1.068-.144-1.212-.432-.144-.288-.227-.664-.25-1.129l.1-3.586V54.068zm-3.752 34.797c2.9 1.461 4.826 2.684 5.778 3.67.952.984 1.71 2.019 2.274 3.104.565 1.084.825 2.202.78 3.353-.022.576-.182 1.229-.481 1.96-.299.73-.775 1.1-1.428 1.111-.653.012-1.156-.215-1.51-.68-.178-.222-.35-.548-.515-.98-.166-.431-.387-1.15-.664-2.158a63.278 63.278 0 0 0-1.162-3.685c-.498-1.45-1.6-3.039-3.304-4.765a86.895 86.895 0 0 1-.88 3.204c-.365 1.25-1.14 2.828-2.324 4.731-1.184 1.904-2.806 3.952-4.864 6.143l-1.262 1.328c-.487.51-.747.581-.78.216-.034-.365.027-.647.182-.847l1.196-1.593c1.328-1.75 2.59-3.907 3.785-6.475 1.195-2.568 1.948-5.44 2.258-8.616.31-3.177.487-5.545.53-7.106.045-1.56.073-4.471.084-8.732.01-4.261-.006-6.945-.05-8.052l-.166-2.988-.1-1.56a.376.376 0 0 1 .133-.134c.044-.022.222.012.531.1l3.885 1.162c.155.067.238.133.25.2.01.066.016.132.016.199v.132a.862.862 0 0 1-.2.366l-.796.996a423.329 423.329 0 0 0-.116 8.052 349.214 349.214 0 0 1-.067 6.01c-.033 1.471-.133 3.425-.299 5.86-.166 2.435-.304 3.995-.415 4.681l-.299 1.793zm11.854-2.39l8.135-.797c-.31-1.417-.648-2.585-1.013-3.503-.365-.919-.67-1.594-.913-2.026-.244-.431-.376-.691-.399-.78a2.176 2.176 0 0 1-.05-.348c-.01-.144.073-.216.25-.216.243.022 1.405.94 3.486 2.756 2.08 1.815 3.121 4.205 3.121 7.171a7.353 7.353 0 0 1-.282 1.71c-.166.587-.448 1.052-.847 1.395-.398.343-.874.52-1.428.531-.553.011-1.018-.37-1.394-1.145-.244-.465-.365-1.196-.365-2.192v-1.959c-3.83 1.483-6.475 2.69-7.936 3.62l-1.295.863c-.221.155-.41.304-.564.448-.155.144-.266.072-.332-.216L87.78 87.97l-.299-.864c.023-.11.1-.232.233-.365l.797-.531c.199-.155.437-.51.714-1.063.276-.553.713-1.87 1.311-3.95a122.5 122.5 0 0 0 1.594-6.127c.465-2.003.752-3.326.863-3.967l.299-1.561c.155-.885.238-1.323.249-1.312a.384.384 0 0 0 .083.05l.83.498 3.686 2.325c.287.199.415.404.381.614a.647.647 0 0 1-.348.481l-1.229.764a655.18 655.18 0 0 1-6.11 13.514zm43.031-9.895c.155-2.17.299-4.14.432-5.91h-17.465c-.221-.066-.382-.155-.481-.266-.1-.11-.172-.404-.216-.88-.045-.475.188-.713.697-.713h17.465c.022-.62.033-1.096.033-1.428l.066-1.096c.023-.819.034-1.583.034-2.29v-.731h-10.028v1.494c0 .177-.133.481-.398.913-.266.431-.808.67-1.627.714-.82.044-1.29-.017-1.411-.183-.122-.166-.216-.393-.282-.68l.166-4.085v-7.57l-.2-3.619c.067-.044.128-.083.183-.116.055-.033.36.127.913.481l2.822 1.926h24.04l1.128-2.025c.155-.266.271-.393.349-.382.077.01.282.138.614.382l3.121 2.49c.067.088.128.182.183.282.055.1.088.2.1.299.01.1-.084.271-.283.515l-.93 1.095v5.744l.1 2.989c-.155.642-.526 1.129-1.112 1.46-.587.333-1.14.504-1.66.515-.52.011-.87-.088-1.046-.299a1.078 1.078 0 0 1-.266-.713v-1.627h-12.717l3.32 1.062c.2.067.344.144.432.233.089.088.128.215.117.381-.011.166-.139.36-.382.581l-.996.864-.233 2.424h13.547l1.328-2.258c.2-.377.338-.587.415-.631.078-.044.294.11.648.465l3.054 3.088c.332.332.498.575.498.73-.022.31-.232.465-.63.465h-19.026l-.531 5.91h6.906l1.063-1.826c.221-.42.376-.625.465-.614.088.01.265.116.53.315l3.022 2.457c.288.244.46.415.515.515a.81.81 0 0 1 .1.315c.01.11-.117.332-.382.664l-.897 1.196v20.785h3.121l1.494-2.623c.266-.465.449-.709.548-.73.1-.023.349.176.747.597l2.823 3.121c.31.354.487.592.53.714.045.122.073.282.084.481.011.2-.238.3-.747.3h-41.272a.92.92 0 0 1-.365-.267c-.088-.11-.15-.404-.183-.88-.033-.475.183-.713.648-.713h8.068V82.225l-.232-7.77a.593.593 0 0 1 .166-.166l.797.465 3.154 1.826h5.412zm-3.553-15.14V54.4h-5.91v7.04h5.91zm14.643 38.947v-4.848h-16.502v4.848h16.502zm-16.502-16.834v3.885h16.502v-3.885h-16.502zm16.502 10.193v-4.482h-16.502v4.482h16.502zm0-11.986v-3.354h-16.502v3.354h16.502zm-5.81-20.32V54.4H134.1v7.04h5.046zm9.761 0V54.4h-5.976l-.133.266v6.773h6.11zm21.682 2.789V53.936l-1.494.199-2.092.365-1.693.166-1.893.232a.226.226 0 0 1-.15.017.536.536 0 0 1-.215-.133c-.089-.077-.139-.205-.15-.382-.01-.177.16-.332.515-.464l1.66-.631c1.505-.554 3.27-1.423 5.296-2.607 2.025-1.184 3.348-2.03 3.968-2.54l1.262-1.03.73-.73c.11-.066.21-.066.299 0l.365.565 3.52 4.25c.265.332.387.57.365.714a.65.65 0 0 1-.116.315c-.056.067-.25.11-.581.133l-2.092.266-1.362.199-1.527.2a11.49 11.49 0 0 0-.963 1.493l-.033 9.696h.93l1.427-2.756c.244-.487.427-.736.548-.747.122-.011.371.193.747.614l2.79 3.353c.243.288.365.543.365.764-.023.376-.266.564-.73.564h-6.044v6.31c1.417.508 2.513 1 3.287 1.477.775.476 1.434 1.223 1.976 2.24.542 1.02.813 2.026.813 3.022 0 .797-.199 1.6-.597 2.408-.399.807-.952 1.2-1.66 1.178-.31 0-.582-.094-.814-.282-.232-.188-.465-.492-.697-.913a3.365 3.365 0 0 1-.415-1.312 46.039 46.039 0 0 1-.133-2.108c-.044-.952-.16-1.776-.349-2.474-.188-.697-.404-1.156-.647-1.378l-.764-.763v25.633l.133 6.308c-.376 1.24-1.24 1.87-2.59 1.893a1.876 1.876 0 0 1-.78-.1c-.255-.088-.42-.227-.498-.415-.078-.188-.127-.46-.15-.813l.233-8.766V81.162c-1.107 2.214-1.97 3.88-2.59 4.997a401.6 401.6 0 0 1-2.623 4.632l-1.395 2.457c-.199.31-.354.443-.464.398-.111-.044-.172-.171-.183-.381-.011-.21.028-.438.116-.681l.963-2.656c.376-1.063.897-2.668 1.56-4.815.665-2.147 1.218-4.05 1.66-5.71.443-1.66.964-3.83 1.561-6.508.598-2.679 1.052-4.97 1.362-6.874h-7.272c-.376 0-.586-.298-.63-.896-.045-.598.165-.896.63-.896h7.305zm15.008-2.557h7.039a127.045 127.045 0 0 0 1.86-9.629l.464-2.922.133-1.361c.088-.133.276-.11.564.066l4.184 2.856c.509.376.675.697.498.963-.177.265-.365.442-.565.53l-1.129.598c-1.947 4.118-3.375 7.084-4.283 8.899h2.69l.996-2.026c.221-.442.37-.67.448-.68.078-.011.315.15.714.481l3.154 2.623c.177.155.294.294.349.415.055.122.088.244.1.366.01.121-.139.392-.449.813l-.83 1.063v12.418l.166 3.552c-.199.841-.625 1.395-1.278 1.66-.653.266-1.19.399-1.61.399-.93.022-1.395-.399-1.395-1.262v-1.86h-.598c-.044.355-.077.543-.1.565l-.497.565L196.189 97v1.146c0 .276.067.625.2 1.045.132.421 1.029.598 2.69.532 2.058-.045 3.308-.526 3.751-1.445.443-.918.82-2.108 1.129-3.569l1.062-5.047c.045-.243.122-.42.233-.531.11-.11.205-.067.282.133.078.199.116.365.116.498l-.033.166-.365 4.947c-.044.266-.061.725-.05 1.378.011.653.116 1.206.316 1.66.199.454.437.94.713 1.461.277.52.432.863.465 1.03.033.165.05.304.05.414 0 .399-.11.836-.332 1.312-.221.476-.725 1.068-1.51 1.776-.787.709-2.696 1.063-5.728 1.063-3.21.022-5.108-.382-5.695-1.212-.586-.83-.885-1.51-.896-2.042-.011-.531-.017-1.361-.017-2.49v-19.59h-5.644l3.685 2.224c.31.2.504.355.581.465.078.11.117.26.117.448 0 .189-.155.382-.465.582l-.93.597c-.62 3.719-1.118 6.436-1.494 8.152-.376 1.715-1.04 3.591-1.992 5.627-.952 2.037-2.48 3.808-4.582 5.313-2.103 1.505-3.642 2.468-4.616 2.889l-1.494.664c-.11.044-.199.06-.265.05-.067-.012-.122-.061-.166-.15a.62.62 0 0 1-.05-.332c.011-.133.094-.254.249-.365l1.56-1.096c2.524-1.793 4.278-3.763 5.263-5.91.985-2.147 1.721-4.25 2.208-6.309.487-2.058.858-4.09 1.112-6.092.255-2.004.416-3.603.482-4.798l.133-1.96h-.664v1.727c0 .332-.045.615-.133.847-.089.232-.382.487-.88.764-.498.276-.99.404-1.478.382-.464 0-.774-.095-.93-.283-.154-.188-.276-.459-.364-.813l.199-6.541V65.025l-.2-5.943c.089-.044.161-.06.216-.05.056.011.437.282 1.146.814l2.424 1.826zm11.82 16.137l-.033-14.311h-11.787v14.31h11.82zm-13.547-26.862l-.863-1.228c-.155-.2-.238-.338-.25-.415a.313.313 0 0 1 .017-.183c.023-.2.155-.299.399-.299.199.022.52.166.963.432l1.593.93c.753.487 1.627 1.261 2.624 2.324.996 1.062 1.494 2.17 1.494 3.32 0 1.151-.056 1.948-.166 2.39a4.466 4.466 0 0 1-.996 1.794c-.465.509-.941.752-1.428.73-.642 0-1.124-.315-1.445-.946a5.835 5.835 0 0 1-.597-2.059 26.669 26.669 0 0 1-.133-2.424c-.011-.874-.055-1.488-.133-1.842-.077-.354-.249-.82-.514-1.395-.266-.575-.454-.952-.565-1.129zm45.522 6.807V51.61l-.166-4.814.132-.133 1.594.432 4.05 1.062c.267.089.394.238.383.448-.011.21-.116.438-.316.681l-1.261 1.56v6.907h11.388l1.826-3.62c.266-.508.46-.774.581-.796.122-.022.283.066.482.266l4.217 4.681c.221.266.315.537.282.814-.033.276-.205.415-.515.415H233.81v10.824h5.677l.897-1.66c.177-.31.32-.449.431-.415.111.033.3.171.565.415l3.586 3.652c.376.376.542.692.498.946-.044.255-.21.482-.498.681l-1.295.93a164.15 164.15 0 0 1-1.677 4.383c-.498 1.24-1.378 3.16-2.64 5.76a52.893 52.893 0 0 1-4.515 7.587 46.53 46.53 0 0 0 8.55 5.047c3.021 1.372 5.694 2.17 8.018 2.39l1.627.167c.288.044.426.177.415.398a1.456 1.456 0 0 1-.1.515c-.055.122-.127.193-.215.216l-.963.332c-.51.177-1.052.509-1.627.996a6.838 6.838 0 0 0-1.395 1.577c-.354.564-.597 1.118-.73 1.66-.133.542-.277.825-.432.847-.066.022-.182-.017-.348-.116-.166-.1-.681-.333-1.544-.698-.864-.365-2.098-1.024-3.702-1.975a63.25 63.25 0 0 1-4.5-2.922c-1.394-.996-3.364-2.645-5.91-4.947-2.28 1.947-4.155 3.42-5.628 4.416-1.472.996-3.458 2.047-5.96 3.154-2.5 1.107-4.504 1.892-6.01 2.357l-2.29.698c-.244.088-.388.044-.432-.133a1.83 1.83 0 0 1-.066-.366c0-.265.11-.442.332-.53l1.56-.598c1.13-.421 3.27-1.622 6.425-3.603 3.154-1.981 6.259-4.742 9.314-8.284-1.506-1.97-2.673-3.885-3.503-5.744-.83-1.86-1.589-4.062-2.275-6.608-.686-2.545-1.195-5.49-1.527-8.832h-6.375c-.31 0-.482-.282-.515-.846-.033-.565.139-.847.515-.847h13.846V59.514h-17.2c-.398 0-.597-.294-.597-.88 0-.587.199-.88.597-.88h17.2zm-6.608 14.277c.067.288.194.886.382 1.793.188.908.603 2.236 1.245 3.985.642 1.748 1.472 3.608 2.49 5.578 1.019 1.97 2.612 4.128 4.782 6.474 1.195-2.014 2.13-3.696 2.805-5.047.675-1.35 1.505-3.259 2.49-5.727.986-2.468 1.733-4.82 2.242-7.056h-16.436zm43.63-10.16v-9.53l-.167-5.146a.805.805 0 0 1 .116-.1c.033-.021.305.056.814.233l4.017 1.428c.222.088.349.177.382.265.033.089.055.194.067.316.01.122-.106.315-.35.581l-1.161 1.361v10.592h1.627l1.394-2.723c.244-.509.42-.78.532-.813.11-.033.265.083.464.349l2.79 3.785c0 .022.055.155.165.398.111.244.161.388.15.432a1.536 1.536 0 0 1-.083.216.235.235 0 0 1-.233.15h-6.806v10.823l5.013-2.457c.288-.133.438-.072.449.183.01.254-.039.448-.15.58l-.53.532c-.09.11-.809.775-2.16 1.992l-2.622 2.391v23.973c0 .885-.105 1.643-.316 2.274-.21.63-.785 1.19-1.726 1.677-.94.487-1.644.791-2.109.913-.464.122-.708.171-.73.15-.11 0-.2-.067-.266-.2s-.11-.509-.132-1.129c-.023-.62-.272-1.328-.748-2.125-.475-.797-.924-1.317-1.344-1.56l-1.461-.797c-.2-.089-.288-.266-.266-.531 0-.067.028-.166.083-.3.056-.132.194-.176.415-.132l.697.166c.886.221 1.721.337 2.507.349.786.01 1.262-.111 1.428-.366.166-.254.25-.691.25-1.311V80.764a310.986 310.986 0 0 0-3.587 3.386l-1.394 1.428c-.2.2-.332.221-.399.067l-.133-.665-.996-4.216-.465-1.66c0-.067.023-.133.067-.2l.863-.199 2.158-.83c1.749-.664 3.044-1.206 3.885-1.627V63.664h-7.072c-.377 0-.598-.299-.664-.896-.067-.598.155-.897.664-.897h7.072zm23.673 18.66v-4.05l-.233-4.383c.067-.045.122-.078.166-.1l.997.332 3.586 1.063c.442.155.658.315.647.481a.928.928 0 0 1-.183.481l-.996 1.295v4.881h1.594l1.494-2.922c.244-.487.432-.719.565-.697.132.022.442.343.93.963l2.49 3.287c.199.288.293.548.282.78-.011.233-.105.349-.282.349h-7.073v20.088c0 .73-.072 1.328-.216 1.793-.143.465-.453.89-.93 1.278-.475.388-1.14.786-1.991 1.196-.853.409-1.567.603-2.142.58a.625.625 0 0 1-.25-.05c-.077-.032-.137-.115-.182-.248-.044-.133-.072-.592-.083-1.378-.01-.786-.348-1.522-1.012-2.208-.664-.686-1.185-1.162-1.56-1.428l-.997-.63c-.2-.111-.288-.289-.266-.532.022-.332.189-.465.498-.398l1.096.265c.908.221 1.904.343 2.988.365.51.023.814-.1.913-.365.1-.265.15-.653.15-1.162V82.291h-14.211c-.354 0-.548-.293-.581-.88-.033-.586.16-.88.581-.88h14.21zm-5.147-23.209v-5.146l-.199-4.781a.744.744 0 0 1 .216-.166c.055-.023.304.033.747.166l4.15 1.294c.266.111.416.238.449.382.033.144-.039.338-.216.581l-1.162 1.56v6.11h4.217l1.46-2.955c.155-.31.272-.481.35-.514.077-.034.292.138.647.514l2.855 3.254c.288.354.42.68.399.98-.023.298-.155.448-.399.448h-9.53V69.44h6.343l1.427-2.689c.31-.598.515-.908.615-.93.1-.022.282.11.547.399l3.288 3.918c.132.155.193.365.182.63-.01.266-.105.399-.282.399h-26.23l-.266-.133a2.006 2.006 0 0 1-.282-1.013c-.011-.387.171-.58.547-.58h10.127V59.048h-8.267c-.354 0-.542-.288-.565-.863-.022-.576.166-.864.565-.864h8.267zm-6.607 27.06a.595.595 0 0 1 0-.281c.022-.122.11-.205.266-.25.044 0 .464.21 1.261.631l1.196.664c1.416.886 2.396 1.943 2.938 3.171.542 1.229.814 2.308.814 3.238-.023.575-.189 1.322-.498 2.24-.31.92-.925 1.39-1.843 1.412-.919.022-1.544-.299-1.876-.963a2.88 2.88 0 0 1-.382-1.278 90.63 90.63 0 0 1-.116-2.424c-.045-1.14-.155-2.086-.332-2.839a8.267 8.267 0 0 0-.83-2.141c-.377-.676-.576-1.069-.598-1.18zm27.326 15.141v-1.527c2.037-2.545 3.558-4.532 4.566-5.96 1.007-1.428 2.235-3.304 3.685-5.628 1.45-2.324 2.53-4.156 3.237-5.495a45.908 45.908 0 0 0 1.727-3.586 22.999 22.999 0 0 0 1.08-3.187 25.15 25.15 0 0 0 .613-3.254c.133-1.096.2-2.22.2-3.37a27.17 27.17 0 0 0-.382-3.985c-.233-1.394-.603-2.556-1.113-3.486-.509-.93-1.278-1.782-2.307-2.557-1.03-.774-2.109-1.173-3.237-1.195-.731 0-1.395.16-1.993.481-.597.321-1.212.853-1.842 1.594-.631.742-1.068 1.467-1.312 2.175l-1.228 3.121h-.764c.2-1.594.398-2.833.598-3.719.199-.885.514-1.865.946-2.938a10.507 10.507 0 0 1 1.71-2.872c.708-.841 1.494-1.494 2.357-1.96a6.816 6.816 0 0 1 2.822-.796c.687-.022 1.495.077 2.424.299a7.24 7.24 0 0 1 2.54 1.145c.764.543 1.44 1.25 2.026 2.125.586.875 1.079 1.876 1.477 3.005a17.02 17.02 0 0 1 .83 3.486c.155 1.196.21 2.701.166 4.516-.066 1.173-.16 2.097-.282 2.773-.122.675-.349 1.56-.68 2.656a43.731 43.731 0 0 1-.914 2.739c-.276.73-.653 1.6-1.129 2.606-.475 1.008-1.3 2.535-2.473 4.583-1.173 2.047-2.712 4.366-4.615 6.956l-4.55 6.308c3.963-.022 6.603-.022 7.92 0 1.317.022 2.169.028 2.556.017.388-.011.891-.078 1.511-.2.62-.121 1.245-.376 1.876-.763.63-.387 1.002-.736 1.112-1.046l.897-1.926h.863a97.397 97.397 0 0 0-.88 3.071 70.593 70.593 0 0 0-.647 2.64l-.73 3.154h-18.66zm31.576-47.58l11.555-.033-1.76 5.014h-9.529l-2.225 6.84c1.328.398 2.408.758 3.238 1.079.83.32 1.616.73 2.357 1.228.742.498 1.522 1.157 2.34 1.976a14.138 14.138 0 0 1 2.142 2.756c.61 1.018 1.135 2.186 1.578 3.503.442 1.317.758 2.573.946 3.768.188 1.196.249 2.679.183 4.45a29.362 29.362 0 0 1-.449 3.967 21.993 21.993 0 0 1-.963 3.553 20.07 20.07 0 0 1-1.527 3.237 12.302 12.302 0 0 1-2.324 2.856c-.94.863-1.91 1.533-2.905 2.009a9.005 9.005 0 0 1-3.221.846c-1.063.089-1.965.028-2.706-.182a8.677 8.677 0 0 1-1.976-.814c-.575-.332-1.001-.758-1.278-1.278-.277-.52-.415-1.146-.415-1.876 0-.244.044-.515.133-.814.088-.299.282-.57.58-.813.3-.244.604-.365.914-.365.31.022.586.116.83.282.243.166.692.514 1.345 1.046a9.746 9.746 0 0 0 1.959 1.261c.653.31 1.355.465 2.108.465a4.37 4.37 0 0 0 1.793-.299c.553-.22 1.217-.658 1.992-1.311.775-.653 1.45-1.66 2.026-3.022a14.325 14.325 0 0 0 1.079-4.084 24.09 24.09 0 0 0 .05-4.3c-.178-1.682-.482-3.165-.914-4.449a15.818 15.818 0 0 0-1.643-3.486c-.664-1.04-1.373-1.931-2.125-2.673-.753-.741-1.555-1.322-2.407-1.743-.853-.42-1.644-.714-2.374-.88a28.87 28.87 0 0 0-2.408-.431c-.874-.122-1.35-.283-1.427-.482-.078-.2-.083-.498-.017-.896l.764-2.059 4.681-13.846zm21.383-1.228c.51.022 1.112.232 1.81.63.697.4 1.278 1.013 1.743 1.843.465.83.819 1.744 1.062 2.74.244.996.438 2.058.581 3.187.144 1.13.227 2.496.25 4.1.022 1.606-.1 3.37-.366 5.297-.177 1.217-.382 2.186-.614 2.905-.232.72-.537 1.428-.913 2.125a7.746 7.746 0 0 1-1.51 1.942c-.632.598-1.357.897-2.176.897a2.83 2.83 0 0 1-2.025-.73 6.367 6.367 0 0 1-1.411-1.794c-.365-.686-.697-1.516-.996-2.49a23.79 23.79 0 0 1-.73-3.237c-.189-1.184-.283-2.811-.283-4.881 0-2.07.122-3.813.365-5.23.155-.996.46-2.13.913-3.403.454-1.273 1.035-2.241 1.743-2.905.709-.664 1.561-.996 2.557-.996zm0 23.906c.266 0 .548-.127.847-.382.299-.254.58-.774.846-1.56s.449-1.732.548-2.84c.1-1.106.155-2.821.166-5.146.011-2.324-.038-4.504-.149-6.54-.11-1.727-.299-2.967-.565-3.72-.265-.752-.536-1.261-.813-1.527-.277-.265-.559-.41-.847-.431-.332 0-.664.16-.996.481-.332.321-.625.863-.88 1.627-.254.764-.426 1.765-.514 3.005-.089 1.24-.139 2.811-.15 4.715-.01 1.903.017 3.475.083 4.715.045 1.195.122 2.296.233 3.303.11 1.007.282 1.86.514 2.557.233.697.498 1.168.797 1.411.3.244.592.354.88.332zm.133 26.895l18.693-50.834h1.627l-18.593 50.834h-1.727zM373.76 89.33a29.529 29.529 0 0 1 .265-4.366c.2-1.494.532-2.833.996-4.018.465-1.184 1.052-2.13 1.76-2.839.709-.708 1.528-1.062 2.457-1.062.908.022 1.738.398 2.49 1.129.753.73 1.35 1.754 1.793 3.071.443 1.317.764 2.601.963 3.852.2 1.25.3 2.628.3 4.133a32.008 32.008 0 0 1-.316 4.2 22.219 22.219 0 0 1-.93 3.836c-.432 1.283-1.057 2.318-1.876 3.104s-1.671 1.179-2.557 1.179c-.73.022-1.372-.2-1.925-.664-.554-.465-1.074-1.157-1.56-2.075-.488-.92-.914-2.142-1.28-3.67-.364-1.527-.558-3.464-.58-5.81zm5.445 10.525c.266 0 .598-.154.996-.464.399-.31.714-.969.946-1.976.233-1.007.371-2.197.416-3.57.044-1.372.077-3.137.1-5.295.021-2.158-.056-4.045-.233-5.661-.111-.952-.26-1.694-.449-2.225a3.608 3.608 0 0 0-.796-1.328c-.344-.354-.681-.531-1.013-.531-.266.022-.554.171-.863.448-.31.277-.587.791-.83 1.544-.244.752-.427 1.793-.548 3.121a45.458 45.458 0 0 0-.2 3.686 84.668 84.668 0 0 0 .083 4.15c.067 1.86.155 3.254.266 4.183.11.93.282 1.71.515 2.341.232.631.503 1.057.813 1.279.31.221.576.32.797.298z"/>
    </g>
</svg>
