<?xml version="1.0" encoding="UTF-8" standalone="no"?>
<svg width="132px" height="80px" viewBox="0 0 132 80" version="1.1" xmlns="http://www.w3.org/2000/svg" xmlns:xlink="http://www.w3.org/1999/xlink">
    <!-- Generator: Sketch 50 (54983) - http://www.bohemiancoding.com/sketch -->
    <title>C级旅行轿车</title>
    <desc>Created with Sketch.</desc>
    <defs></defs>
    <g id="Page-1" stroke="none" stroke-width="1" fill="none" fill-rule="evenodd">
        <g id="S-Class-Headline&amp;Subheadline-D" transform="translate(-52.000000, 0.000000)" fill="#FFFFFF">
            <g id="C级旅行轿车">
                <rect id="Rectangle-Copy-7" x="103" y="79" width="30" height="1"></rect>
                <path d="M62.2949219,32.9134115 C62.3496096,32.4622374 62.4042966,32.0076521 62.4589844,31.549642 C62.5136721,31.0916319 62.5615232,30.4661498 62.6025391,29.6731771 L62.6845703,27.5813802 L62.6640625,26.0638021 C62.7050783,26.0364582 62.7392577,26.0159506 62.7666016,26.0022787 C62.7939454,25.9886067 63.0195291,26.0364578 63.4433594,26.1458334 L66.3964844,26.9456381 C66.6562513,27.0276697 66.7998046,27.1062822 66.8271484,27.1814779 C66.8544923,27.2566736 66.8647461,27.3660475 66.8579102,27.5096029 C66.8510742,27.6531583 66.7451182,27.8343088 66.5400391,28.0530599 L65.9248047,28.7093099 C65.8017572,29.7620496 65.706055,30.5481745 65.6376953,31.0677084 L65.453125,32.4622396 L65.3916016,32.9134115 L73.2050781,32.9134115 L74.4560547,30.5550131 C74.5791022,30.3499339 74.6782223,30.2439779 74.753418,30.237142 C74.8286137,30.230306 75.0166001,30.384113 75.3173828,30.6985677 L77.4707031,33.0364584 C77.6757823,33.2688814 77.7783203,33.4602857 77.7783203,33.6106771 C77.7646484,33.7063807 77.7236332,33.795247 77.6552734,33.8772787 C77.5869137,33.9593103 77.4980474,34.0003256 77.3886719,34.0003256 L75.6865234,34.0003256 L75.6865234,34.0208334 L66.7451172,34.0208334 C66.8955086,34.4309917 67.0458977,34.7898748 67.1962891,35.0974935 C67.3466804,35.4051123 67.8115195,36.098953 68.5908203,37.1790365 C69.3701211,38.25912 70.7031156,39.2981721 72.5898438,40.296224 C74.4765719,41.2942759 76.2538979,41.8684889 77.921875,42.0188802 L78.7421875,42.1009115 C78.8242192,42.1145834 78.8789061,42.1658525 78.90625,42.2547201 C78.9335939,42.3435877 78.9472656,42.3948567 78.9472656,42.4085287 C78.9335937,42.4632165 78.9096681,42.5315751 78.8754883,42.6136068 C78.8413084,42.6956385 78.7968753,42.7503254 78.7421875,42.7776693 L78.1064453,43.1468099 L77.5117188,43.4749349 C77.2519518,43.6663421 77.0024426,43.9466128 76.7631836,44.3157552 C76.5239246,44.6848977 76.3564458,45.033527 76.2607422,45.3616537 C76.1650386,45.6897803 76.093262,45.9016923 76.0454102,45.9973959 C75.9975584,46.0930995 75.8984383,46.1477864 75.7480469,46.1614584 C75.4335922,46.2024742 74.6269596,45.8435911 73.328125,45.0847982 C72.0292904,44.3260054 70.8227595,43.3040429 69.7084961,42.0188802 C68.5942327,40.7337176 67.7739284,39.4212307 67.2475586,38.0813802 C66.7211888,36.7415298 66.3896491,35.7161494 66.2529297,35.0052084 L66.2119141,34.6770834 L66.0888672,34.0208334 L65.2480469,34.0208334 C65.0976555,34.8001341 64.8857436,35.7093047 64.6123047,36.7483724 C64.3388658,37.7874401 63.7578169,38.9905531 62.8691406,40.3577474 C61.9804643,41.7249418 60.4731552,43.0237569 58.347168,44.2542318 C56.2211808,45.4847067 54.6318412,46.2776675 53.5791016,46.6331381 L52.4921875,47.0022787 C52.3281242,47.0706384 52.2050785,47.0808922 52.1230469,47.0330404 C52.0410152,46.9851886 52,46.9236658 52,46.8484701 C52,46.7732744 52.0136717,46.6946619 52.0410156,46.6126302 C52.0683595,46.5305986 52.1298823,46.4622399 52.2255859,46.4075521 L53.3330078,45.7923177 C54.5498108,45.1223925 55.8930591,44.158535 57.362793,42.9007162 C58.8325269,41.6428974 59.8852507,40.3235746 60.5209961,38.9427084 C61.1567415,37.5618421 61.5532219,36.5569693 61.7104492,35.9280599 C61.8676766,35.2991505 62.0146478,34.6634147 62.1513672,34.0208334 L53.4765625,34.0208334 C53.2441395,34.0208334 53.1142579,33.8362649 53.0869141,33.4671224 C53.0595702,33.09798 53.1894517,32.9134115 53.4765625,32.9134115 L62.2949219,32.9134115 Z M52.9228516,50.3655599 C52.7861321,50.338216 52.687012,50.286947 52.6254883,50.2117513 C52.5639645,50.1365556 52.5297852,49.9554051 52.5229492,49.6682943 C52.5161132,49.3811835 52.635741,49.2376302 52.8818359,49.2376302 L68.7958984,49.2376302 L68.7958984,47.1663412 L68.6933594,43.8850912 C68.7617191,43.8167315 68.8232419,43.7757163 68.8779297,43.7620443 L69.1855469,43.8645834 L71.7900391,44.6438802 C72.1181657,44.7532558 72.2822266,44.8865552 72.2822266,45.0437826 C72.2822266,45.2010099 72.2207037,45.3411453 72.0976562,45.4641927 L71.4414062,46.1614584 L71.4414062,49.2376302 L74.3945312,49.2376302 L75.5019531,47.2483724 C75.6933603,46.9065738 75.8334956,46.7322592 75.9223633,46.7254232 C76.0112309,46.7185872 76.1855456,46.8518867 76.4453125,47.1253256 L78.5166016,49.3196615 C78.6669929,49.4973968 78.766113,49.6375321 78.8139648,49.7400717 C78.8618166,49.8426112 78.8857422,49.9348955 78.8857422,50.0169271 C78.8857422,50.0989588 78.8515628,50.1775713 78.7832031,50.252767 C78.7148434,50.3279627 78.6259771,50.3655599 78.5166016,50.3655599 L71.4208984,50.3655599 L71.4208984,60.9065756 C71.4208984,61.521813 71.1953148,62.0174135 70.7441406,62.393392 C70.2929665,62.7693704 69.7495149,63.1214177 69.1137695,63.4495443 C68.4780242,63.7776709 68.0576182,63.9143883 67.8525391,63.8597006 C67.7978513,63.8597006 67.7568361,63.8460288 67.7294922,63.8186849 C67.7021483,63.791341 67.6782228,63.7366541 67.6577148,63.6546224 C67.6372069,63.5725908 67.5859379,63.1692745 67.5039062,62.4446615 C67.4218746,61.7200485 67.2270523,61.2278659 66.9194336,60.968099 C66.6118149,60.7083321 66.184573,60.4417332 65.6376953,60.1682943 L64.9404297,59.8196615 C64.8310541,59.7649737 64.7592775,59.6931971 64.7250977,59.6043295 C64.6909178,59.5154618 64.6704102,59.4436852 64.6635742,59.3889974 C64.6567382,59.3343097 64.6738279,59.2796227 64.7148438,59.2249349 C64.7695315,59.1292313 64.8789054,59.0882161 65.0429688,59.1018881 L65.8837891,59.2044271 C66.1845718,59.2454429 66.854487,59.2796223 67.8935547,59.3069662 C68.3584008,59.3343101 68.6249997,59.2659514 68.6933594,59.1018881 C68.7617191,58.9378247 68.7958984,58.7600921 68.7958984,58.5686849 L68.7958984,50.3655599 L52.9228516,50.3655599 Z M59.0751953,52.7034506 L58.6035156,51.8831381 C58.5488279,51.8147783 58.5180664,51.7600914 58.5112305,51.7190756 C58.5043945,51.6780597 58.5078124,51.6438804 58.5214844,51.6165365 C58.5214844,51.4524732 58.5966789,51.3499351 58.7470703,51.3089193 C58.8701178,51.2952474 59.3759721,51.5584283 60.2646484,52.0984701 C61.1533248,52.6385119 61.8403296,53.308427 62.3256836,54.1082357 C62.8110376,54.9080444 63.0468751,55.6907514 63.0332031,56.4563802 C63.0195312,56.9212263 62.8691421,57.4749317 62.5820312,58.1175131 C62.2949204,58.7600944 61.8369172,59.0677085 61.2080078,59.0403646 C60.7705056,59.0403646 60.438966,58.8489603 60.2133789,58.4661459 C59.9877918,58.0833315 59.8613283,57.6321641 59.8339844,57.1126302 L59.8544922,55.2464193 C59.8134764,54.3987588 59.5537133,53.551111 59.0751953,52.7034506 Z M100.797422,57.6253256 L89.6411719,57.6253256 L89.6411719,60.7835287 C89.6411719,61.2073589 89.4360958,61.5354806 89.0259375,61.7679037 C88.6157792,62.0003267 88.1987912,62.1097006 87.7749609,62.0960287 C87.4331624,62.0960287 87.2212504,62.0242521 87.1392187,61.8806967 C87.0571871,61.7371412 87.0025001,61.5559907 86.9751562,61.3372396 L87.1392187,54.2620443 L87.1392187,35.8870443 L86.9751562,28.4222006 C87.0161721,28.3811847 87.0537694,28.3572592 87.0879492,28.3504232 C87.1221291,28.3435872 87.282772,28.4358715 87.5698828,28.6272787 L89.8257422,30.2268881 L100.592344,30.2268881 L101.289609,28.7708334 C101.412657,28.5247384 101.511777,28.3948569 101.586973,28.3811849 C101.662168,28.367513 101.843319,28.4973945 102.13043,28.7708334 L103.853086,30.3909506 C103.989805,30.5413419 104.088925,30.6643876 104.150449,30.7600912 C104.211973,30.8557948 104.242734,30.9207355 104.242734,30.9549154 C104.242734,30.9890953 104.225645,31.0506181 104.191465,31.1394857 C104.157285,31.2283533 104.126524,31.2864582 104.09918,31.3138021 L103.463437,32.1956381 L103.463437,55.3489584 L103.565977,60.1888021 C103.347225,61.0227907 102.831117,61.4466146 102.017637,61.4602865 C101.204156,61.4739584 100.797422,61.2073595 100.797422,60.6604818 L100.797422,57.6253256 Z M100.797422,38.7376302 L100.797422,31.3138021 L89.6411719,31.3138021 L89.6411719,38.7376302 L100.797422,38.7376302 Z M100.797422,47.5354818 L100.797422,39.8040365 L89.6411719,39.8040365 L89.6411719,47.5354818 L100.797422,47.5354818 Z M100.797422,56.5384115 L100.797422,48.6223959 L89.6411719,48.6223959 L89.6411719,56.5384115 L100.797422,56.5384115 Z M139.452812,43.4339193 L139.452812,35.7845052 L134.161797,35.7845052 C133.765311,36.6321657 133.433771,37.3260065 133.167168,37.8660482 C132.900565,38.40609 132.500667,39.1238562 131.967461,40.0193685 C131.434255,40.9148808 131.065118,41.5266911 130.860039,41.8548177 L130.121758,42.9622396 C130.039726,43.0989591 129.95086,43.1604819 129.855156,43.1468099 C129.759453,43.1468099 129.711602,43.0750333 129.711602,42.9314779 C129.711602,42.7879225 129.732109,42.654623 129.773125,42.5315756 L130.306328,41.1165365 C130.456719,40.7337221 130.685721,40.0262096 130.99334,38.9939779 C131.300959,37.9617462 131.588065,36.9466196 131.854668,35.9485677 C132.121271,34.9505159 132.411795,33.5970138 132.72625,31.8880209 L133.156914,29.6936849 L133.300469,28.6067709 C133.341485,28.5110673 133.375664,28.4597982 133.403008,28.4529623 C133.430352,28.4461263 133.53289,28.4837236 133.710625,28.5657552 L136.643242,30.0628256 C136.820977,30.1722011 136.906426,30.3123364 136.89959,30.4832357 C136.892754,30.654135 136.779962,30.8216138 136.561211,30.9856771 L135.966484,31.4163412 C135.405935,32.7972075 134.954767,33.8977824 134.612969,34.718099 L139.452812,34.718099 L139.452812,30.3294271 L139.329766,26.5559896 C139.384453,26.5013018 139.425469,26.4705404 139.452812,26.4637045 C139.480156,26.4568685 139.651053,26.5013016 139.965508,26.5970052 L142.734062,27.4378256 C142.92547,27.5061853 143.017754,27.622395 143.010918,27.7864584 C143.004082,27.9505217 142.911798,28.141926 142.734062,28.3606771 L142.077812,29.1194662 L142.077812,34.718099 L146.610039,34.718099 L147.861016,32.3802084 C148.025079,32.0657537 148.131035,31.8948569 148.178887,31.8675131 C148.226739,31.8401692 148.366874,31.9563789 148.599297,32.2161459 L150.793633,34.9026693 C150.944024,35.0940765 151.019219,35.2513015 151.019219,35.374349 C151.005547,35.6477879 150.841486,35.7845052 150.527031,35.7845052 L142.077812,35.7845052 L142.077812,43.4339193 L148.394219,43.4339193 L149.809258,40.8704427 C149.932305,40.6516917 150.021172,40.5388998 150.075859,40.5320638 C150.130547,40.5252279 150.267265,40.6380197 150.486016,40.8704427 L152.782891,43.577474 C152.91961,43.7415373 153.032402,43.9431955 153.12127,44.1824545 C153.210137,44.4217135 153.001643,44.5413412 152.495781,44.5413412 L145.071953,44.5413412 C144.825858,44.8831398 144.586603,45.238605 144.35418,45.6077474 L144.35418,57.7483724 C144.35418,58.1175149 144.408867,58.4388008 144.518242,58.7122396 C144.627618,58.9856785 145.386399,59.11556 146.794609,59.1018881 C148.148132,59.1018881 149.057302,58.9788424 149.522148,58.7327474 C149.986995,58.4866525 150.34246,58.1243514 150.588555,57.6458334 C150.83465,57.1673154 151.108084,56.4768926 151.408867,55.5745443 L152.495781,52.2932943 C152.564141,52.0471993 152.659843,51.9309896 152.782891,51.9446615 C152.878594,51.9720054 152.926445,52.1018869 152.926445,52.3343099 L152.926445,52.764974 L152.41375,55.9641927 C152.331718,56.4427108 152.297539,56.7879222 152.311211,56.9998373 C152.324883,57.2117524 152.37957,57.440754 152.475273,57.686849 L152.926445,58.6097006 C153.186212,59.224938 153.247735,59.7786434 153.111016,60.2708334 C153.042656,60.4895845 152.779475,60.9270801 152.321465,61.5833334 C151.863455,62.2395867 150.274115,62.5677084 147.553398,62.5677084 C146.0905,62.5813803 144.935239,62.4822602 144.087578,62.2703451 C143.239918,62.05843 142.679376,61.8123387 142.405937,61.5320638 C142.132499,61.251789 141.958184,60.9339211 141.882988,60.5784506 C141.807793,60.22298 141.770195,59.8675148 141.770195,59.5120443 L141.770195,44.5413412 L136.909844,44.5413412 L139.10418,45.6077474 C139.322931,45.717123 139.432305,45.8470045 139.432305,45.9973959 C139.432305,46.1067714 139.343438,46.2503247 139.165703,46.4280599 L138.611992,46.9817709 C138.475273,48.0618544 138.335137,49.076981 138.191582,50.027181 C138.048027,50.9773811 137.832697,51.9617462 137.545586,52.980306 C137.258475,53.9988658 136.650083,55.3421141 135.720391,57.0100912 C134.790698,58.6780683 132.610056,60.3596921 129.178398,62.0550131 L128.235039,62.5266927 C128.153007,62.5677086 128.070977,62.5916341 127.988945,62.5984701 C127.906914,62.6053061 127.859063,62.5847985 127.845391,62.5369467 C127.831719,62.4890948 127.821465,62.4104824 127.814629,62.3011068 C127.807793,62.1917313 127.893241,62.0686856 128.070977,61.9319662 L129.014336,61.1936849 C129.287775,60.9886058 129.738942,60.5818716 130.367852,59.9734701 C130.996761,59.3650686 131.697438,58.6267947 132.469902,57.7586263 C133.242367,56.8904579 133.881521,55.738614 134.387383,54.3030599 C134.893245,52.8675059 135.245292,51.4969141 135.443535,50.1912435 C135.641778,48.8855729 135.775078,47.6380268 135.843437,46.4485677 L135.966484,44.5413412 L127.906914,44.5413412 C127.606131,44.5413412 127.452324,44.3567727 127.445488,43.9876302 C127.438652,43.6184878 127.55828,43.4339193 127.804375,43.4339193 L139.452812,43.4339193 Z M178.283437,46.5511068 L179.185781,45.0540365 C179.267813,44.9173171 179.329336,44.8455404 179.370352,44.8387045 C179.411367,44.8318685 179.493398,44.9036451 179.616445,45.0540365 L181.236562,47.2688802 C181.263906,47.3098961 181.277578,47.3577472 181.277578,47.4124349 L181.277578,47.5354818 C181.250234,47.6175135 181.188711,47.6585287 181.093008,47.6585287 L175.760977,47.6585287 L175.760977,50.8577474 L178.344961,50.8577474 L179.329336,49.2171224 C179.384024,49.1077469 179.438711,49.0530599 179.493398,49.0530599 C179.548086,49.0667319 179.616445,49.1214188 179.698477,49.2171224 L181.236562,51.452474 C181.263906,51.4934898 181.29125,51.5550126 181.318594,51.6370443 C181.345938,51.719076 181.359609,51.7669271 181.359609,51.780599 C181.345937,51.9036465 181.257071,51.9651693 181.093008,51.9651693 L175.760977,51.9651693 L175.760977,55.1438802 L179.616445,55.1438802 L180.436758,53.421224 C180.546133,53.2024729 180.628164,53.0965169 180.682852,53.1033529 C180.737539,53.1101889 180.826406,53.1888014 180.949453,53.3391927 L182.85668,55.7796224 C182.897696,55.8616541 182.925039,55.9573563 182.938711,56.0667318 C182.925039,56.1897793 182.849844,56.2513021 182.713125,56.2513021 L175.760977,56.2513021 L175.760977,60.0862631 L175.8225,62.5472006 C175.795156,62.6975919 175.750723,62.8445631 175.689199,62.9881185 C175.627675,63.1316739 175.429435,63.2752272 175.094473,63.4187826 C174.75951,63.562338 174.424552,63.6375326 174.08959,63.6443685 C173.754627,63.6512045 173.552969,63.6033534 173.484609,63.5008138 C173.41625,63.3982743 173.368399,63.2649748 173.341055,63.1009115 L173.423086,59.6145834 L173.423086,56.2513021 L167.598867,56.2513021 C167.380116,56.2513021 167.263906,56.0667337 167.250234,55.6975912 C167.236562,55.3284487 167.352772,55.1438802 167.598867,55.1438802 L173.423086,55.1438802 L173.423086,51.9651693 L168.726797,51.9651693 C168.631093,51.9241535 168.555899,51.8694665 168.501211,51.8011068 C168.446523,51.7327471 168.41918,51.5584324 168.41918,51.2781576 C168.41918,50.9978827 168.521718,50.8577474 168.726797,50.8577474 L173.423086,50.8577474 L173.423086,47.6585287 L168.275625,47.6585287 L168.091055,47.5764974 L167.9475,47.2688802 C167.9475,46.7903622 168.056874,46.5511068 168.275625,46.5511068 L173.423086,46.5511068 L173.423086,45.3001302 L173.361562,42.5110677 C173.41625,42.45638 173.457265,42.4222006 173.484609,42.4085287 C173.511953,42.3948567 173.641835,42.4222002 173.874258,42.4905599 L176.089102,43.2288412 C176.253165,43.2972009 176.345449,43.3553058 176.365957,43.4031576 C176.386465,43.4510094 176.403555,43.4954425 176.417227,43.5364584 C176.430898,43.5774742 176.389883,43.6458329 176.29418,43.7415365 L175.760977,44.3157552 L175.760977,46.5511068 L178.283437,46.5511068 Z M163.82543,40.9319662 C163.770742,41.0413417 163.726309,41.1438798 163.692129,41.2395834 C163.657949,41.335287 163.538321,41.4583326 163.333242,41.608724 L163.333242,46.8792318 L164.604727,46.8792318 L165.404531,45.4026693 C165.513907,45.1839182 165.636952,45.1565747 165.773672,45.3206381 L167.47582,47.5559896 C167.557852,47.6790371 167.598867,47.7679034 167.598867,47.8225912 C167.598867,47.9456387 167.503165,48.0071615 167.311758,48.0071615 L163.333242,48.0071615 L163.333242,56.5794271 C163.757072,56.2786444 164.72093,55.5198629 166.224844,54.3030599 L167.47582,53.2981771 C167.557852,53.2298174 167.622793,53.2332353 167.670645,53.308431 C167.718496,53.3836267 167.742422,53.4554033 167.742422,53.5237631 C167.742422,53.5921228 167.721914,53.6536456 167.680898,53.7083334 L166.573477,55.1438802 C166.300038,55.4993508 165.804437,56.2273708 165.08666,57.3279623 C164.368883,58.4285537 163.517817,59.6897716 162.533437,61.1116537 L161.651602,62.3831381 C161.555898,62.5198575 161.490957,62.5916341 161.456777,62.5984701 C161.422597,62.6053061 161.378164,62.5335294 161.323477,62.3831381 L160.134023,59.655599 C160.03832,59.4368479 159.990469,59.2864588 159.990469,59.2044271 C159.990469,59.1360674 160.123768,58.9583348 160.390371,58.671224 C160.656974,58.3841132 160.841542,58.0594094 160.944082,57.6971029 C161.046622,57.3347964 161.097891,56.8528676 161.097891,56.2513021 L161.097891,48.0071615 L157.344961,48.0071615 L157.078359,47.8636068 C156.982656,47.7268874 156.924551,47.5286472 156.904043,47.2688802 C156.883535,47.0091133 157.030506,46.8792318 157.344961,46.8792318 L161.097891,46.8792318 L161.097891,40.9319662 L158.94457,40.9319662 C158.684803,40.9319662 158.554922,40.7473977 158.554922,40.3782552 C158.554922,40.0091128 158.684803,39.8245443 158.94457,39.8245443 L164.420156,39.8245443 L165.260977,38.2864584 C165.35668,38.122395 165.425039,38.0369467 165.466055,38.0301107 C165.507071,38.0232747 165.595937,38.1087231 165.732656,38.2864584 L167.352773,40.5423177 C167.393789,40.6106775 167.417715,40.6687823 167.424551,40.7166342 C167.431387,40.764486 167.427969,40.7952474 167.414297,40.8089193 C167.373281,40.890951 167.311758,40.9319662 167.229727,40.9319662 L163.82543,40.9319662 Z M172.049062,31.5804037 L177.360586,31.5804037 L178.221914,30.1653646 C178.303946,30.0149732 178.362051,29.9363607 178.39623,29.9295248 C178.43041,29.9226888 178.522695,30.0013013 178.673086,30.1653646 L180.805898,32.6263021 C180.901602,32.7356777 180.963125,32.8177081 180.990469,32.8723959 C181.017813,32.9270836 181.028066,32.9954423 181.02123,33.077474 C181.014394,33.1595057 180.942618,33.2347002 180.805898,33.3030599 L179.616445,33.9593099 C178.618393,35.6136151 177.606685,37.2200443 176.581289,38.7786459 C178.057859,39.8997452 180.026589,40.6175115 182.487539,40.9319662 L183.451406,41.0550131 C183.574454,41.0823569 183.635977,41.1643874 183.635977,41.3011068 C183.622305,41.3968104 183.560782,41.4925126 183.451406,41.5882162 L182.774648,42.2239584 C182.419178,42.552085 182.111564,43.1399698 181.851797,43.9876302 L181.667227,44.5823568 C181.571523,44.8421237 181.506582,44.985677 181.472402,45.0130209 C181.438222,45.0403648 181.35961,45.0198571 181.236562,44.9514974 L180.41625,44.5823568 C178.570538,43.7757121 176.752196,42.4427177 174.961172,40.5833334 C173.060772,42.5110774 170.804935,44.1858653 168.193594,45.6077474 L167.414297,46.0384115 C167.359609,46.0657554 167.318594,46.0725913 167.29125,46.0589193 C167.250234,46.0589193 167.226309,46.0384117 167.219473,45.9973959 C167.212637,45.95638 167.205801,45.9119469 167.198965,45.8640951 C167.192129,45.8162433 167.192129,45.7752281 167.198965,45.7410482 C167.205801,45.7068684 167.243398,45.6624352 167.311758,45.6077474 L167.9475,45.0540365 L169.649648,43.6184896 C170.78442,42.6067658 172.117414,40.9935007 173.648672,38.7786459 C172.814683,37.4251235 172.254142,36.3450562 171.967031,35.5384115 L171.146719,33.3850912 C169.861556,35.7229935 168.952385,37.3020793 168.41918,38.1223959 L167.783437,39.1272787 C167.633046,39.3597017 167.533926,39.4348963 167.486074,39.3528646 C167.438222,39.270833 167.410879,39.1888025 167.404043,39.1067709 C167.397207,39.0247392 167.421133,38.9153653 167.47582,38.7786459 L167.865469,37.7737631 C168.043204,37.308917 168.391833,36.2903725 168.911367,34.718099 C169.430901,33.1458255 169.854725,31.5940832 170.182852,30.0628256 L170.716055,27.5403646 L170.941641,26.4124349 L170.982656,26.1458334 L171.023672,26.0638021 L171.310781,26.2483724 L174.03832,27.9095052 C174.134024,27.977865 174.188711,28.0633133 174.202383,28.1658529 C174.216055,28.2683925 174.14086,28.3675126 173.976797,28.4632162 L173.238516,28.9348959 L172.049062,31.5804037 Z M177.135,32.6878256 L171.515859,32.6878256 L171.454336,32.8313802 C172.411372,34.4856854 173.170153,35.5999321 173.730703,36.1741537 L174.653555,37.1995443 C175.350824,36.064773 175.863514,35.1897818 176.191641,34.5745443 L177.135,32.6878256 Z M161.610586,33.3850912 L164.932852,33.3850912 L165.835195,31.8264974 C165.930899,31.6624341 165.992422,31.5769857 166.019766,31.5701498 C166.04711,31.5633138 166.108632,31.607747 166.204336,31.7034506 L167.885977,34.0413412 C167.954336,34.1370448 167.988516,34.2395828 167.988516,34.3489584 C167.988516,34.4583339 167.899649,34.5130209 167.721914,34.5130209 L161.159414,34.5130209 C159.846907,37.4388167 159.132559,39.0179025 159.016348,39.2503256 C158.900136,39.4827486 158.472894,40.3030529 157.734609,41.7112631 L157.221914,42.6956381 C157.180898,42.7776697 157.119375,42.8118491 157.037344,42.7981771 C156.927968,42.7981771 156.873281,42.7674157 156.873281,42.705892 L156.873281,42.3880209 L157.26293,41.3421224 C157.454337,40.8499325 157.779041,39.8587314 158.237051,38.3684896 C158.695061,36.8782478 159.166736,35.0564887 159.65209,32.9031576 C160.137444,30.7498265 160.448476,29.1878304 160.585195,28.2171224 L160.851797,26.4534506 L160.872305,26.2073568 C160.885977,26.152669 160.91332,26.1184897 160.954336,26.1048177 L161.097891,26.2073568 L163.927969,27.827474 C164.064688,27.9095057 164.150137,27.9778643 164.184316,28.0325521 C164.218496,28.0872399 164.232168,28.1487627 164.225332,28.2171224 C164.218496,28.2854821 164.146719,28.3675126 164.01,28.4632162 L163.251211,28.9759115 L161.610586,33.3850912 Z" id="夺目-先锋"></path>
                <path d="M60.0410156,9.30664062 C60.0084634,9.34570332 59.9726564,9.40429648 59.9335938,9.48242188 C59.8945311,9.56054727 59.8229172,9.64192666 59.71875,9.7265625 L59.71875,12.6269531 L61.0664062,12.6269531 L61.5839844,11.7578125 C61.6881516,11.5755199 61.7532551,11.4827474 61.7792969,11.4794922 C61.8053387,11.476237 61.9095043,11.5690095 62.0917969,11.7578125 L62.9804688,12.7636719 C63.0846359,12.8873704 63.1334636,12.9850257 63.1269531,13.0566406 C63.1204427,13.1282556 63.0585943,13.1640625 62.9414062,13.1640625 L59.71875,13.1640625 L59.71875,16.71875 L62.7363281,16.71875 L63.4101562,15.6738281 L63.5273438,15.5175781 C63.5924482,15.4069005 63.6380207,15.3531901 63.6640625,15.3564453 C63.6901043,15.3597005 63.7975251,15.4654938 63.9863281,15.6738281 L64.9921875,16.8066406 C65.0638024,16.8977869 65.1061197,16.9612628 65.1191406,16.9970703 C65.1321615,17.0328778 65.1402995,17.0817054 65.1435547,17.1435547 C65.1468099,17.205404 65.0703133,17.2363281 64.9140625,17.2363281 L53.6152344,17.2363281 C53.5045567,17.2363281 53.4475912,17.150066 53.4443359,16.9775391 C53.4410807,16.8050122 53.4980463,16.71875 53.6152344,16.71875 L58.4003906,16.71875 L58.4003906,13.1640625 L55.4121094,13.1640625 C55.3665362,13.1445312 55.3307293,13.1201173 55.3046875,13.0908203 C55.2786457,13.0615233 55.2672526,12.9768887 55.2705078,12.8369141 C55.273763,12.6969394 55.3209631,12.6269531 55.4121094,12.6269531 L58.4003906,12.6269531 L58.4003906,9.30664062 L55.4414062,9.30664062 C55.3372391,9.30664062 55.2819011,9.22037847 55.2753906,9.04785156 C55.2688802,8.87532466 55.3242182,8.7890625 55.4414062,8.7890625 L60.3535156,8.7890625 L60.8710938,7.97851562 C60.9882818,7.7897126 61.0566405,7.69694009 61.0761719,7.70019531 C61.0957032,7.70345054 61.1803378,7.78320234 61.3300781,7.93945312 L62.2285156,8.91601562 C62.3261724,9.02669326 62.3717448,9.11458301 62.3652344,9.1796875 C62.3587239,9.26432334 62.3001308,9.30664062 62.1894531,9.30664062 L60.0410156,9.30664062 Z M59.3964844,2.72460938 C58.4003856,4.37175303 57.60124,5.58105083 56.9990234,6.35253906 C56.3968069,7.12402729 55.8304063,7.7815728 55.2998047,8.32519531 C54.7692031,8.86881782 54.3378923,9.26432168 54.0058594,9.51171875 C53.6738265,9.75911582 53.498047,9.89257803 53.4785156,9.91210938 L53.2246094,10.1269531 C53.1790362,10.1660158 53.1302086,10.1839193 53.078125,10.1806641 C53.0260414,10.1774088 53,10.1660157 53,10.1464844 L53,10.0585938 C53,10.0195311 53.0227862,9.97070342 53.0683594,9.91210938 L53.3125,9.62890625 C53.8463568,8.99088223 54.3915988,8.25684009 54.9482422,7.42675781 C55.5048856,6.59667554 56.0940724,5.55990205 56.7158203,4.31640625 C57.3375682,3.07291045 57.7818997,2.08008184 58.0488281,1.33789062 L58.2050781,0.8984375 L58.3125,0.517578125 C58.3255209,0.498046777 58.3352864,0.481770898 58.3417969,0.46875 L58.6738281,0.68359375 L60.1289062,1.58203125 C60.1940107,1.62760439 60.236328,1.66829409 60.2558594,1.70410156 C60.2753907,1.73990903 60.2867838,1.78548149 60.2900391,1.84082031 C60.2932943,1.89615913 60.2493494,1.94986953 60.1582031,2.00195312 L59.6992188,2.27539062 L59.6308594,2.39257812 C60.1451849,3.62956348 60.6562475,4.52473682 61.1640625,5.078125 C61.6718775,5.63151318 62.1145814,6.06445156 62.4921875,6.37695312 C62.8697936,6.68945469 63.2734354,6.9840481 63.703125,7.26074219 C64.1328146,7.53743628 64.5690082,7.74739512 65.0117188,7.890625 L65.4609375,8.02734375 L65.7929688,8.13476562 C65.8776046,8.16731787 65.9231771,8.19824204 65.9296875,8.22753906 C65.9361979,8.25683608 65.9394531,8.2812499 65.9394531,8.30078125 C65.9264322,8.36588574 65.903646,8.40820303 65.8710938,8.42773438 L65.6660156,8.54492188 C65.4707021,8.66210996 65.3160813,8.76953076 65.2021484,8.8671875 C65.0882156,8.96484424 64.9661465,9.10318921 64.8359375,9.28222656 C64.7057285,9.46126392 64.6178388,9.62727788 64.5722656,9.78027344 C64.5266925,9.93326899 64.4941407,10.0276691 64.4746094,10.0634766 C64.455078,10.099284 64.4322918,10.1139323 64.40625,10.1074219 C64.2890619,10.1074219 63.8610063,9.81445605 63.1220703,9.22851562 C62.3831343,8.6425752 61.7858096,7.9964228 61.3300781,7.29003906 C60.8743467,6.58365532 60.4983739,5.89355806 60.2021484,5.21972656 C59.905923,4.54589507 59.692709,3.93229443 59.5625,3.37890625 L59.3964844,2.72460938 Z M72.6220313,3.1640625 L72.9735938,2.48046875 C73.1038028,2.22656123 73.1802994,2.10123696 73.203086,2.10449219 C73.2258725,2.10774741 73.3219002,2.21354062 73.4911719,2.421875 L74.1064063,3.203125 C74.2301048,3.37239668 74.2919531,3.47981748 74.2919531,3.52539062 C74.2854427,3.56445332 74.2659116,3.60026025 74.2333594,3.6328125 C74.2008072,3.66536475 74.1584899,3.68164062 74.1064063,3.68164062 L72.8759375,3.68164062 L72.8759375,3.70117187 L72.211875,3.70117187 L73.3153906,4.54101562 C73.4130474,4.61914102 73.470013,4.67285142 73.4862891,4.70214844 C73.5025652,4.73144546 73.5090756,4.77050757 73.5058203,4.81933594 C73.5025651,4.86816431 73.4521099,4.91536436 73.3544531,4.9609375 L72.9735938,5.15625 C72.556925,6.10677559 72.2346626,6.83919014 72.0067969,7.35351562 L72.8271094,7.35351562 L73.1786719,6.69921875 C73.2893495,6.49739482 73.3528255,6.38834644 73.3691016,6.37207031 C73.3853777,6.35579419 73.4081639,6.36067695 73.437461,6.38671875 C73.466758,6.41276055 73.5334891,6.48762959 73.6376563,6.61132812 L74.2333594,7.37304688 C74.3765893,7.5618499 74.4482031,7.68229141 74.4482031,7.734375 C74.4482031,7.7734377 74.4286721,7.81087222 74.3896094,7.84667969 C74.3505467,7.88248716 74.2984639,7.90039062 74.2333594,7.90039062 L71.9872656,7.90039062 C71.9547134,7.93945332 71.928672,7.97526025 71.9091406,8.0078125 C71.8896093,8.04036475 71.8310161,8.09570273 71.7333594,8.17382812 L71.7333594,10.2148438 L72.368125,10.2148438 L72.8075781,9.453125 C72.8791931,9.31640557 72.9329035,9.24641929 72.968711,9.24316406 C73.0045184,9.23990884 73.0972909,9.32942617 73.2470313,9.51171875 L73.9696875,10.4296875 C74.0282816,10.5078129 74.0575781,10.5729164 74.0575781,10.625 C74.0575781,10.6640627 74.0429299,10.698242 74.0136328,10.7275391 C73.9843358,10.7568361 73.9534116,10.7714844 73.9208594,10.7714844 L71.7333594,10.7714844 L71.7333594,15.9375 C71.7333594,16.2174493 71.6910421,16.443684 71.6064063,16.6162109 C71.5217704,16.7887378 71.4192324,16.9124345 71.2987891,16.9873047 C71.1783458,17.0621749 71.0009387,17.1516922 70.7665625,17.2558594 C70.5321863,17.3600266 70.3759379,17.405599 70.2978125,17.3925781 C70.2652603,17.3925781 70.242474,17.3860678 70.2294531,17.3730469 C70.2164322,17.360026 70.2050391,17.3339846 70.1952735,17.2949219 C70.1855078,17.2558592 70.1789974,17.1809901 70.1757422,17.0703125 C70.172487,16.9596349 70.1497008,16.7985037 70.1073828,16.5869141 C70.0650649,16.3753245 69.9169544,16.1848967 69.6630469,16.015625 L69.2919531,15.7714844 C69.2008069,15.7194008 69.1584896,15.6510421 69.165,15.5664062 C69.165,15.47526 69.2170828,15.4329427 69.32125,15.4394531 L69.7509375,15.4980469 C69.8485943,15.5175782 69.9348564,15.5322265 70.0097266,15.5419922 C70.0845967,15.5517579 70.1383072,15.5566406 70.1708594,15.5566406 L70.3857031,15.5566406 C70.5549748,15.576172 70.6396094,15.5110685 70.6396094,15.3613281 L70.6396094,10.7714844 L68.1005469,10.7714844 L68.0028906,10.7324219 C67.9247653,10.6608069 67.8775652,10.5566413 67.8612891,10.4199219 C67.845013,10.2832024 67.9117441,10.2148438 68.0614844,10.2148438 L70.6396094,10.2148438 L70.6396094,7.90039062 L67.915,7.90039062 L67.836875,7.88085938 C67.7978123,7.86132803 67.7652606,7.83691421 67.7392188,7.80761719 C67.713177,7.77832017 67.6969011,7.69531318 67.6903906,7.55859375 C67.6838802,7.42187432 67.7489837,7.35351562 67.8857031,7.35351562 L71.4794531,7.35351562 C71.5901308,6.91080508 71.7073171,6.33952173 71.8310156,5.63964844 C71.9547142,4.93977515 72.0295832,4.46614707 72.055625,4.21875 L72.1142188,3.70117187 L68.1591406,3.70117187 C68.048463,3.70117187 67.9817319,3.61165454 67.9589453,3.43261719 C67.9361588,3.25357983 68.0028899,3.1640625 68.1591406,3.1640625 L72.6220313,3.1640625 Z M75.7177344,7.00195313 L78.4130469,7.00195313 L78.7548438,6.29882813 C78.8850528,6.03189971 78.9599218,5.89029956 78.9794531,5.87402344 C78.9989845,5.85774731 79.0250259,5.86263008 79.0575781,5.88867188 C79.0901304,5.91471367 79.1910408,6.0319 79.3603125,6.24023438 L80.0341406,7.11914062 C80.0992451,7.21028691 80.1366797,7.27050767 80.1464453,7.29980469 C80.156211,7.32910171 80.1610938,7.3567707 80.1610938,7.3828125 C80.1610938,7.48697969 80.1187765,7.5390625 80.0341406,7.5390625 L78.4911719,7.5390625 C78.4390883,7.64322969 78.396771,7.70996079 78.3642188,7.73925781 C78.3316665,7.76855483 78.2860941,7.79622383 78.2275,7.82226563 L78.2275,16.1914062 L78.2665625,17.4121094 C78.2079685,17.6464855 78.0924097,17.8108719 77.9198828,17.9052734 C77.7473559,17.999675 77.5862247,18.0436198 77.4364844,18.0371094 C77.2607023,18.0371094 77.1483987,17.9980473 77.0995703,17.9199219 C77.050742,17.8417965 77.0198178,17.7473964 77.0067969,17.6367188 L77.0653906,15.6347656 L77.0653906,7.5390625 L75.7177344,7.5390625 C75.6916926,8.39193135 75.6672788,9.14224937 75.6444922,9.79003906 C75.6217056,10.4378288 75.5761332,11.025388 75.5077735,11.5527344 C75.4394137,12.0800808 75.2945584,12.71484 75.0732031,13.4570312 C74.8518479,14.1992225 74.5247027,14.8583956 74.0917578,15.4345703 C73.658813,16.0107451 73.3105092,16.4469386 73.046836,16.7431641 C72.7831628,17.0393895 72.5797143,17.242838 72.4364844,17.3535156 L72.1435156,17.5976562 C72.0849216,17.6432294 72.0377216,17.664388 72.0019141,17.6611328 C71.9661066,17.6578776 71.9433204,17.6464845 71.9335547,17.6269531 C71.923789,17.6074218 71.9189063,17.5878907 71.9189063,17.5683594 C71.9189063,17.548828 71.9205339,17.5244142 71.9237891,17.4951172 C71.9270443,17.4658202 71.9547133,17.4186201 72.0067969,17.3535156 L72.2607031,17.0507812 C72.8726854,16.3151005 73.3593342,15.5338583 73.7206641,14.7070312 C74.081994,13.8802042 74.3082287,13.015955 74.399375,12.1142578 C74.4905213,11.2125606 74.5491145,10.3792356 74.5751563,9.61425781 C74.6011981,8.84928003 74.6174739,7.9264377 74.6239844,6.84570312 C74.6239844,6.14908506 74.6125913,5.45898779 74.5898047,4.77539063 C74.5670181,4.09179346 74.555625,3.71419307 74.555625,3.64257813 L74.555625,3.2421875 L74.4677344,1.86523438 L74.5116797,1.8359375 C74.5214454,1.82942705 74.6272386,1.89778574 74.8290625,2.04101563 L75.805625,2.74414063 C76.6064103,2.30143008 77.2509351,1.86523652 77.7392188,1.43554688 L78.07125,1.14257813 L78.2958594,0.87890625 C78.3284116,0.865885352 78.3609634,0.865885352 78.3935156,0.87890625 L78.6376563,1.20117188 L79.4189063,2.09960938 C79.5556257,2.26237061 79.6239844,2.36979141 79.6239844,2.421875 C79.6174739,2.50000039 79.5719015,2.54557285 79.4872656,2.55859375 L79.0673438,2.62695313 L77.2216406,2.99804688 L75.7470313,3.2421875 C75.7405208,3.96484736 75.7372656,4.50195137 75.7372656,4.85351563 L75.7177344,5.92773438 L75.7177344,7.00195313 Z M69.8778906,12.4707031 C69.6500249,13.0240913 69.4888937,13.4033193 69.3944922,13.6083984 C69.3000907,13.8134776 69.0982698,14.2138642 68.7890235,14.8095703 C68.4797771,15.4052764 68.2763286,15.7747389 68.1786719,15.9179688 L67.8857031,16.3574219 C67.8271091,16.4420577 67.7815366,16.484375 67.7489844,16.484375 C67.7359635,16.4908854 67.7245704,16.4876303 67.7148047,16.4746094 C67.705039,16.4615885 67.7001563,16.4306643 67.7001563,16.3818359 C67.7001563,16.3330076 67.713177,16.2630213 67.7392188,16.171875 L67.8857031,15.7519531 C67.9117449,15.6868486 67.978476,15.4752622 68.0858985,15.1171875 C68.1933209,14.7591128 68.260052,14.5279953 68.2860938,14.4238281 C68.3121356,14.3196609 68.3870046,14.0120468 68.5107031,13.5009766 C68.6344017,12.9899063 68.7125259,12.6074231 68.7450781,12.3535156 L68.8329688,11.7480469 L68.8720313,11.2890625 C68.8785417,11.2630207 68.8915624,11.2434896 68.9110938,11.2304688 L69.086875,11.3574219 L70.0536719,11.9726562 C70.1578391,12.0442712 70.2099219,12.1028644 70.2099219,12.1484375 C70.2099219,12.1679688 70.2001564,12.1972654 70.180625,12.2363281 C70.1610937,12.2753908 70.1383074,12.3014322 70.1122656,12.3144531 L69.8778906,12.4707031 Z M69.1942969,4.79492188 L69.0673438,4.46289062 C69.0543229,4.44986973 69.0478125,4.42220073 69.0478125,4.37988281 L69.0478125,4.296875 C69.0608334,4.23177051 69.09013,4.19921875 69.1357031,4.19921875 C69.1942972,4.2057292 69.4449457,4.4075501 69.8876563,4.8046875 C70.3303668,5.2018249 70.5419532,5.69661162 70.5224219,6.2890625 C70.5159114,6.53645957 70.4508079,6.76594946 70.3271094,6.97753906 C70.2034109,7.18912866 70.0373969,7.29492188 69.8290625,7.29492188 C69.5556237,7.30143232 69.4026304,7.18750117 69.3700781,6.953125 C69.3375259,6.71874883 69.3228776,6.49902446 69.3261328,6.29394531 C69.3293881,6.08886616 69.3310156,5.92447979 69.3310156,5.80078125 C69.3245052,5.3450498 69.2789327,5.0097667 69.1942969,4.79492188 Z M69.9364844,0.7421875 L69.7802344,0.5078125 C69.760703,0.475260254 69.7493099,0.442708496 69.7460547,0.41015625 C69.7427995,0.377604004 69.7444271,0.351562598 69.7509375,0.33203125 C69.7639584,0.286458105 69.7997654,0.260416699 69.8583594,0.25390625 C69.8974221,0.25390625 70.0406498,0.292968359 70.2880469,0.37109375 C70.535444,0.449219141 70.8137615,0.58105376 71.1230078,0.766601562 C71.4322542,0.952149365 71.6112888,1.20605308 71.6601172,1.52832031 C71.7089456,1.85058755 71.7333594,2.04264292 71.7333594,2.10449219 C71.7333594,2.16634146 71.7235939,2.24609326 71.7040625,2.34375 C71.6649998,2.51302168 71.5901308,2.68717358 71.4794531,2.86621094 C71.3687755,3.04524829 71.2027615,3.13151045 70.9814063,3.125 C70.7535405,3.125 70.5940369,3.04524819 70.5028906,2.88574219 C70.4117444,2.72623618 70.3564064,2.54557393 70.336875,2.34375 L70.2782813,1.71875 C70.2587499,1.56249922 70.2310809,1.41601631 70.1952735,1.27929688 C70.159466,1.14257744 70.0732038,0.963542773 69.9364844,0.7421875 Z M72.2802344,12.2363281 L72.1630469,12.0117188 C72.1044529,11.8945307 72.0832942,11.8098961 72.0995703,11.7578125 C72.1158465,11.7057289 72.125612,11.6764323 72.1288672,11.6699219 C72.1321224,11.6634114 72.1435155,11.6569011 72.1630469,11.6503906 C72.2541932,11.6503906 72.4592693,11.7919908 72.7782813,12.0751953 C73.0972933,12.3583999 73.3365487,12.638345 73.4960547,12.9150391 C73.6555607,13.1917332 73.7320573,13.4798162 73.7255469,13.7792969 C73.7190364,14.0071626 73.6588157,14.2220042 73.5448828,14.4238281 C73.43095,14.6256521 73.2763291,14.7265625 73.0810156,14.7265625 C72.8661708,14.7330729 72.7294534,14.6435556 72.6708594,14.4580078 C72.6122654,14.27246 72.5797136,14.0820322 72.5732031,13.8867188 L72.5634375,13.2910156 C72.5373957,12.9003887 72.4429956,12.5488297 72.2802344,12.2363281 Z M89.4901563,1.16210938 L90.1542188,4.4140625 C90.1997919,4.64192822 90.1688678,4.79166631 90.0614454,4.86328125 C89.9540229,4.93489619 89.8677608,4.88606855 89.8026563,4.71679688 L89.6073438,4.2578125 C89.4706244,3.94531094 89.3176311,3.62630371 89.1483594,3.30078125 C88.9790877,2.97525879 88.7121633,2.63672051 88.3475782,2.28515625 C87.982993,1.93359199 87.5044822,1.7708332 86.9120313,1.796875 C86.4107267,1.82942725 85.9484917,2.04752402 85.5253125,2.45117188 C85.1021333,2.85481973 84.7896365,3.37890303 84.5878125,4.0234375 C84.3859886,4.66797197 84.2362505,5.35806924 84.1385938,6.09375 C84.0409371,6.82943076 83.9953646,7.55207979 84.001875,8.26171875 C84.001875,9.55729814 84.1564959,10.6673131 84.4657422,11.5917969 C84.7749886,12.5162807 85.1656097,13.2161435 85.6376172,13.6914062 C86.1096248,14.166669 86.6483564,14.4108072 87.2538282,14.4238281 C87.7811746,14.4433595 88.2238785,14.2936214 88.5819532,13.9746094 C88.9400279,13.6555974 89.2460144,13.2568383 89.4999219,12.7783203 C89.7538294,12.2998023 89.9361193,11.933595 90.0467969,11.6796875 L90.2421094,11.25 C90.3202348,11.0742179 90.3967314,11.0172523 90.4716016,11.0791016 C90.5464718,11.1409508 90.5546097,11.2760406 90.4960157,11.484375 L90.3495313,12.0019531 C90.2648955,12.2819024 90.1005091,12.7083305 89.8563672,13.28125 C89.6122254,13.8541695 89.2509009,14.3831356 88.7723829,14.8681641 C88.2938648,15.3531925 87.7225815,15.6152342 87.0585157,15.6542969 C86.3293454,15.69987 85.6815654,15.4752629 85.1151563,14.9804688 C84.5487472,14.4856746 84.1011605,13.9176464 83.7723829,13.2763672 C83.4436052,12.6350879 83.1978394,11.9189493 83.0350782,11.1279297 C82.8723169,10.3369101 82.7909375,9.41406777 82.7909375,8.359375 C82.797448,7.42187031 82.8706894,6.56250391 83.0106641,5.78125 C83.1506388,4.99999609 83.3654804,4.26595396 83.6551954,3.57910156 C83.9449103,2.89224917 84.3404142,2.324221 84.8417188,1.875 C85.3430234,1.425779 85.9452309,1.17513047 86.6483594,1.12304688 C87.0520073,1.09700508 87.436118,1.14908789 87.8007032,1.27929688 L88.4745313,1.55273438 C88.6177612,1.60481797 88.7316923,1.62434902 88.8163282,1.61132813 C88.9335163,1.59830723 89.0669785,1.52669336 89.2167188,1.39648438 L89.4901563,1.16210938 Z M100.059453,15.6542969 L92.7645313,15.6542969 C92.6473432,15.6542969 92.5903777,15.5566416 92.5936329,15.3613281 C92.5968881,15.1660146 92.6701296,15.0683594 92.8133594,15.0683594 L93.1063282,15.0683594 C93.2951312,15.0683594 93.4416141,15.0276697 93.5457813,14.9462891 C93.6499485,14.8649084 93.7264451,14.7542325 93.7752735,14.6142578 C93.8241019,14.4742832 93.8485157,14.2317726 93.8485157,13.8867188 L93.8485157,3.046875 C93.8485157,2.74088389 93.835495,2.54720093 93.8094532,2.46582031 C93.7834114,2.3844397 93.7101699,2.30143271 93.5897266,2.21679688 C93.4692833,2.13216104 93.3081521,2.08984375 93.1063282,2.08984375 L92.7157032,2.08984375 C92.5659629,2.08984375 92.4910938,1.99056089 92.4910938,1.79199219 C92.4910938,1.59342349 92.5659629,1.49414062 92.7157032,1.49414062 L96.0946094,1.49414062 C96.2248184,1.49414062 96.2996875,1.59342349 96.3192188,1.79199219 C96.3387502,1.99056089 96.2638811,2.08984375 96.0946094,2.08984375 L95.6942188,2.08984375 C95.4989053,2.08984375 95.3556776,2.13053345 95.2645313,2.21191406 C95.173385,2.29329468 95.1099091,2.39908789 95.0741016,2.52929688 C95.0382942,2.65950586 95.0203907,2.82226465 95.0203907,3.01757812 L95.0203907,13.8867188 C95.0203907,14.2187517 95.0529424,14.4596347 95.1180469,14.609375 C95.1831514,14.7591153 95.3052205,14.8730465 95.4842579,14.9511719 C95.6632952,15.0292973 95.9513783,15.0683594 96.3485157,15.0683594 L97.3055469,15.0683594 C97.6310694,15.0683594 97.9435663,15.0195317 98.2430469,14.921875 C98.5425276,14.8242183 98.8029417,14.6516939 99.0242969,14.4042969 C99.2456522,14.1568998 99.4165489,13.8753271 99.5369923,13.5595703 C99.6574356,13.2438135 99.7697391,12.8938821 99.8739063,12.5097656 L100.049688,11.8164062 C100.08875,11.6731764 100.152226,11.5983073 100.240117,11.5917969 C100.328008,11.5852864 100.365443,11.6601555 100.352422,11.8164062 L100.059453,15.6542969 Z M107.865078,1.62109375 L108.656094,5.02929688 C108.701667,5.22461035 108.670743,5.36458291 108.56332,5.44921875 C108.455898,5.53385459 108.363125,5.4654959 108.285,5.24414062 L108.109219,4.78515625 C108.005052,4.50520693 107.824389,4.11784102 107.567227,3.62304688 C107.310064,3.12825273 106.984546,2.68229365 106.590664,2.28515625 C106.196782,1.88801885 105.755706,1.68945312 105.267422,1.68945312 C104.779138,1.69596357 104.375496,1.90429482 104.056484,2.31445312 C103.737472,2.72461143 103.543789,3.28124648 103.47543,3.984375 C103.40707,4.68750352 103.499843,5.28971104 103.75375,5.79101562 C103.923022,6.14909033 104.186691,6.45344927 104.544766,6.70410156 C104.90284,6.95475386 105.389489,7.2184231 106.004727,7.49511719 C106.619964,7.77181128 107.140792,8.06314951 107.567227,8.36914062 C107.993661,8.67513174 108.337082,9.11295288 108.5975,9.68261719 C108.857918,10.2522815 108.993008,10.9016891 109.002774,11.6308594 C109.012539,12.3600297 108.887215,13.0338511 108.626797,13.6523438 C108.392421,14.2187528 108.06202,14.684243 107.635586,15.0488281 C107.209152,15.4134133 106.732268,15.6249997 106.204922,15.6835938 C105.859868,15.7291669 105.537606,15.712891 105.238125,15.6347656 C104.938644,15.5566402 104.694506,15.4720057 104.505703,15.3808594 L103.763516,15.0390625 C103.607265,14.9869789 103.496589,14.9869789 103.431484,15.0390625 C103.36638,15.0781252 103.320808,15.1464839 103.294766,15.2441406 L103.236172,15.4589844 C103.190599,15.5957038 103.12224,15.6705729 103.031094,15.6835938 C102.939948,15.6966146 102.871589,15.5957042 102.826016,15.3808594 L101.820156,11.4746094 C101.768073,11.2467437 101.795742,11.095378 101.903164,11.0205078 C102.010587,10.9456376 102.096849,10.9928377 102.161953,11.1621094 L102.406094,11.7773438 C102.503751,12.0442722 102.703944,12.4658174 103.00668,13.0419922 C103.309416,13.6181669 103.688644,14.091795 104.144375,14.4628906 C104.600107,14.8339862 105.111169,15.0227864 105.677578,15.0292969 C106.029142,15.0358073 106.367681,14.9446624 106.693203,14.7558594 C107.018726,14.5670563 107.298671,14.2431664 107.533047,13.7841797 C107.767423,13.325193 107.884609,12.7734407 107.884609,12.1289062 C107.878099,11.5690076 107.785327,11.1100278 107.606289,10.7519531 C107.427252,10.3938784 107.155445,10.0862643 106.790859,9.82910156 C106.426274,9.57193882 105.93637,9.29687646 105.321133,9.00390625 C104.705895,8.71093604 104.185067,8.41471504 103.758633,8.11523438 C103.332198,7.81575371 102.988777,7.39258086 102.728359,6.84570312 C102.467941,6.29882539 102.329597,5.66243853 102.31332,4.93652344 C102.297044,4.21060835 102.428879,3.52539385 102.708828,2.88085938 C102.969246,2.2884085 103.31755,1.8310563 103.75375,1.50878906 C104.18995,1.18652183 104.697758,1.03515615 105.277188,1.0546875 C105.583179,1.0677084 105.843593,1.12304639 106.058438,1.22070312 C106.273282,1.31835986 106.494634,1.45507725 106.7225,1.63085937 C106.950366,1.8066415 107.109869,1.8750002 107.201016,1.8359375 C107.25961,1.81640615 107.311693,1.77408887 107.357266,1.70898437 L107.493984,1.46484375 C107.533047,1.40624971 107.593268,1.36881519 107.674649,1.35253906 C107.756029,1.33626294 107.819505,1.42578027 107.865078,1.62109375 Z M112.604297,2.0703125 L120.748828,2.0703125 L121.061328,1.57226562 C121.178516,1.3834626 121.259896,1.28743491 121.305469,1.28417969 C121.351042,1.28092446 121.455208,1.35742109 121.617969,1.51367188 L122.155078,2.0703125 L122.496875,2.41210938 C122.516406,2.45768252 122.524544,2.49837222 122.521289,2.53417969 C122.518034,2.56998716 122.467579,2.65624932 122.369922,2.79296875 L122.076953,3.19335938 L122.076953,14.2382812 L122.145313,16.2695312 C122.119271,16.3736984 122.085091,16.4550778 122.042774,16.5136719 C122.000456,16.5722659 121.886524,16.6406246 121.700977,16.71875 C121.515429,16.7968754 121.354298,16.8326823 121.217578,16.8261719 C121.119921,16.8261719 121.035287,16.7952477 120.963672,16.7333984 C120.892057,16.6715492 120.85625,16.5885422 120.85625,16.484375 L120.85625,15.0683594 L112.535938,15.0683594 L112.535938,16.5625 C112.535938,16.6796881 112.462696,16.8050124 112.316211,16.9384766 C112.169726,17.0719408 111.995574,17.1402995 111.79375,17.1435547 C111.591926,17.1468099 111.46823,17.1207685 111.422656,17.0654297 C111.377083,17.0100909 111.344531,16.9368494 111.325,16.8457031 L111.393359,14.5800781 L111.393359,3.53515625 L111.325,1.25976562 C111.357552,1.18164023 111.385221,1.13932295 111.408008,1.1328125 C111.430794,1.12630205 111.510546,1.17512969 111.647266,1.27929688 L112.604297,2.0703125 Z M120.85625,14.53125 L120.85625,2.60742188 L118.707813,2.60742188 C118.681771,2.65950547 118.606902,2.78320215 118.483203,2.97851562 L118.483203,10.2636719 C118.483203,10.3873704 118.505989,10.4801429 118.551563,10.5419922 C118.597136,10.6038415 118.698046,10.6315104 118.854297,10.625 C119.33607,10.6119791 119.655077,10.5550135 119.811328,10.4541016 C119.967579,10.3531896 120.071745,10.3011068 120.123828,10.2978516 C120.175912,10.2945963 120.250781,10.3483067 120.348438,10.4589844 C120.459115,10.5891934 120.548633,10.7389314 120.616992,10.9082031 C120.685352,11.0774748 120.719531,11.2239577 120.719531,11.3476562 C120.7,11.9270862 120.149875,12.2200521 119.069141,12.2265625 C118.164188,12.2395834 117.661264,12.0947281 117.560352,11.7919922 C117.45944,11.4892563 117.408984,11.2467457 117.408984,11.0644531 L117.408984,2.60742188 L116.022266,2.60742188 L115.895313,2.7734375 C115.888802,3.35286748 115.882292,4.0218061 115.875781,4.78027344 C115.869271,5.53874077 115.831836,6.37369336 115.763477,7.28515625 C115.695117,8.19661914 115.520965,9.05598555 115.241016,9.86328125 C114.961066,10.670577 114.394666,11.5559848 113.541797,12.5195312 L113.151172,12.9589844 C112.968879,13.1608083 112.858203,13.2584636 112.819141,13.2519531 C112.81263,13.2519531 112.797982,13.2470704 112.775195,13.2373047 C112.752409,13.227539 112.739388,13.2145183 112.736133,13.1982422 C112.732878,13.1819661 112.729623,13.1591798 112.726367,13.1298828 C112.723112,13.1005858 112.744271,13.0436202 112.789844,12.9589844 L112.994922,12.6269531 L113.346484,12.0019531 C113.645965,11.4680963 113.883593,10.9375026 114.059375,10.4101562 C114.235157,9.88280986 114.363737,9.35058862 114.445117,8.81347656 C114.526498,8.2763645 114.585091,7.68392251 114.620899,7.03613281 C114.656706,6.38834312 114.677865,5.83659082 114.684375,5.38085938 C114.690886,4.92512793 114.695768,4.48893437 114.699024,4.07226562 C114.702279,3.65559688 114.700651,3.3300793 114.694141,3.09570312 L114.684375,2.86132812 L114.674609,2.60742188 L112.535938,2.60742188 L112.535938,14.53125 L120.85625,14.53125 Z M135.009531,2.3046875 L135.292735,1.81640625 C135.409923,1.61458232 135.494557,1.51529946 135.546641,1.51855469 C135.598724,1.52180991 135.715911,1.60807207 135.898203,1.77734375 L136.454844,2.31445313 C136.591563,2.45117256 136.672943,2.54231748 136.698985,2.58789063 C136.725026,2.63346377 136.739675,2.67415347 136.74293,2.70996094 C136.746185,2.74576841 136.685964,2.84830645 136.562266,3.01757813 L136.279063,3.41796875 L136.279063,16.5722656 C136.279063,16.6894537 136.256276,16.8294263 136.210703,16.9921875 C136.16513,17.1549487 136.028413,17.2932937 135.800547,17.4072266 C135.572681,17.5211594 135.351329,17.5992836 135.136485,17.6416016 C134.92164,17.6839195 134.791433,17.7018229 134.74586,17.6953125 C134.693776,17.6953125 134.654714,17.685547 134.628672,17.6660156 C134.60263,17.6464843 134.583099,17.6188153 134.570078,17.5830078 C134.557057,17.5472003 134.544037,17.4690761 134.531016,17.3486328 C134.517995,17.2281895 134.469167,17.0458997 134.384531,16.8017578 C134.299896,16.557616 134.10784,16.3476571 133.80836,16.171875 L133.349375,15.9082031 C133.264739,15.86263 133.225677,15.8007816 133.232188,15.7226562 C133.232188,15.6119786 133.28427,15.563151 133.388438,15.5761719 L134.0525,15.6738281 C134.63193,15.7649744 134.950937,15.7568365 135.009531,15.6494141 C135.068125,15.5419917 135.097422,15.4231777 135.097422,15.2929688 L135.116953,2.83203125 L130.595469,2.83203125 C130.484791,2.83203125 130.419688,2.7441415 130.400156,2.56835938 C130.380625,2.39257725 130.445729,2.3046875 130.595469,2.3046875 L135.009531,2.3046875 Z M127.323985,4.39453125 L127.323985,17.1484375 C127.323985,17.3567719 127.258881,17.498372 127.128672,17.5732422 C126.998463,17.6481124 126.835704,17.6904296 126.640391,17.7001953 C126.445077,17.709961 126.324636,17.6871748 126.279063,17.6318359 C126.233489,17.5764971 126.197683,17.5032557 126.171641,17.4121094 L126.24,15.3125 L126.24,5.33203125 L126.171641,3.09570313 C126.197683,3.06315088 126.217214,3.04524741 126.230235,3.04199219 C126.243255,3.03873696 126.298593,3.05664043 126.39625,3.09570313 L127.460703,3.52539063 C127.603933,3.58398467 127.696706,3.64095024 127.739024,3.69628906 C127.781341,3.75162788 127.800873,3.80371069 127.797617,3.85253906 C127.794362,3.90136743 127.730886,3.98762959 127.607188,4.11132813 L127.323985,4.39453125 Z M127.607188,0.72265625 C127.594167,0.709635352 127.589284,0.67220083 127.592539,0.610351562 C127.595794,0.548502295 127.629974,0.511067773 127.695078,0.498046875 C127.72112,0.498046875 127.932706,0.587564209 128.329844,0.766601562 C128.726981,0.945638916 129.044361,1.21744609 129.281992,1.58203125 C129.519624,1.94661641 129.638438,2.30794092 129.638438,2.66601562 C129.631927,2.91992314 129.587982,3.13313716 129.506602,3.30566406 C129.425221,3.47819097 129.285249,3.64746011 129.08668,3.81347656 C128.888111,3.97949302 128.671642,3.92903779 128.437266,3.66210938 C128.320078,3.53841084 128.250091,3.41634175 128.227305,3.29589844 C128.204518,3.17545513 128.181732,2.91992383 128.158945,2.52929688 C128.136159,2.13866992 128.093842,1.83431099 128.031992,1.61621094 C127.970143,1.39811089 127.883881,1.19140723 127.773203,0.99609375 L127.607188,0.72265625 Z M149.983125,5.16601562 L150.510469,4.19921875 C150.595105,4.04947842 150.650443,3.97623696 150.676485,3.97949219 C150.702526,3.98274741 150.754609,4.02994746 150.832735,4.12109375 L151.711641,5.25390625 C151.809298,5.38411523 151.851615,5.48828086 151.838594,5.56640625 C151.825573,5.64453164 151.783256,5.68359375 151.711641,5.68359375 L148.557344,5.68359375 C148.655001,5.95703262 148.716849,6.12792935 148.742891,6.19628906 C148.768933,6.26464878 148.904022,6.52180767 149.148164,6.96777344 C149.392306,7.41373921 149.774789,7.84830518 150.295625,8.27148438 C150.816461,8.69466357 151.307993,8.98762939 151.770235,9.15039062 L152.229219,9.31640625 C152.300834,9.34244805 152.335013,9.39127568 152.331758,9.46289062 C152.328503,9.53450557 152.294323,9.5833332 152.229219,9.609375 L151.965547,9.71679688 C151.71164,9.82747451 151.513074,9.99999883 151.369844,10.234375 L151.155,10.6542969 C151.096406,10.771485 151.047578,10.8268229 151.008516,10.8203125 C150.910859,10.8138021 150.709038,10.6494157 150.403047,10.3271484 C150.097056,10.0048812 149.861056,9.72005332 149.695039,9.47265625 C149.529023,9.22525918 149.358126,8.91764507 149.182344,8.54980469 C149.006562,8.18196431 148.855196,7.81575703 148.728242,7.45117188 C148.601289,7.08658672 148.510144,6.73014497 148.454805,6.38183594 C148.399466,6.0335269 148.362031,5.80078184 148.3425,5.68359375 L147.697969,5.68359375 C147.632864,5.84635498 147.567761,5.99609307 147.502656,6.1328125 L147.072969,7.0703125 C146.734426,7.75390967 146.291722,8.45214487 145.744844,9.16503906 C145.197966,9.87793325 144.719455,10.4134097 144.309297,10.7714844 L143.947969,11.0839844 C143.856823,11.1686202 143.80474,11.1637375 143.791719,11.0693359 C143.778698,10.9749344 143.804739,10.8886723 143.869844,10.8105469 L144.201875,10.4101562 C144.371147,10.2083323 144.546926,9.97070449 144.729219,9.69726562 C144.911511,9.42382676 145.137746,9.00553667 145.40793,8.44238281 C145.678113,7.87922896 145.875052,7.44791816 145.99875,7.1484375 C146.122449,6.84895684 146.224987,6.57063931 146.306367,6.31347656 C146.387748,6.05631382 146.457734,5.84635498 146.516328,5.68359375 L144.03586,5.68359375 C143.931692,5.68359375 143.874727,5.59733159 143.864961,5.42480469 C143.855195,5.25227778 143.912161,5.16601562 144.03586,5.16601562 L146.682344,5.16601562 C146.701875,5.07486934 146.736055,4.95117266 146.784883,4.79492188 C146.833711,4.63867109 146.887422,4.45800884 146.946016,4.25292969 C147.00461,4.04785054 147.10552,3.60351904 147.24875,2.91992187 C146.174526,3.11523535 145.507215,3.21289062 145.246797,3.21289062 L144.963594,3.21289062 C144.865937,3.21289062 144.821992,3.1754561 144.831758,3.10058594 C144.841524,3.02571577 144.872448,2.97851572 144.924531,2.95898437 L145.403047,2.8125 C145.709038,2.72135371 145.946666,2.64322949 146.115938,2.578125 C146.285209,2.51302051 146.742562,2.31608237 147.488008,1.98730469 C148.233454,1.658527 148.726614,1.41276123 148.9675,1.25 L149.5925,0.830078125 C149.644584,0.797525879 149.703177,0.748698242 149.768281,0.68359375 C149.833386,0.618489258 149.874076,0.581054736 149.890352,0.571289062 C149.906628,0.561523389 149.989635,0.647785547 150.139375,0.830078125 L150.969453,1.88476562 C151.093152,2.0540373 151.150117,2.15820293 151.140352,2.19726562 C151.130586,2.23632832 151.07362,2.2656249 150.969453,2.28515625 L150.44211,2.3828125 C150.188202,2.43489609 149.838271,2.50813755 149.392305,2.60253906 C148.946339,2.69694058 148.521539,2.76692686 148.117891,2.8125 L148.781953,3.21289062 C148.807995,3.23893242 148.824271,3.26985659 148.830781,3.30566406 C148.837292,3.34147153 148.80474,3.38216123 148.733125,3.42773437 L148.469453,3.60351562 C148.313202,4.02669482 148.194389,4.34407446 148.113008,4.55566406 C148.031627,4.76725366 147.958386,4.97070215 147.893281,5.16601562 L149.983125,5.16601562 Z M140.979219,3.42773438 L141.252656,1.93359375 L141.4675,0.56640625 L141.506563,0.166015625 C141.532604,0.146484277 141.607473,0.166015332 141.731172,0.224609375 L142.990938,0.859375 C143.056042,0.898437695 143.091849,0.947265332 143.09836,1.00585938 C143.10487,1.06445342 143.069063,1.12304658 142.990938,1.18164063 L142.62961,1.43554688 L142.170625,3.42773438 L143.586641,3.42773438 L143.928438,2.72460938 C144.000053,2.58788994 144.04888,2.51464849 144.074922,2.50488281 C144.100964,2.49511714 144.143281,2.52278613 144.201875,2.58789063 L145.06125,3.62304688 C145.100313,3.67513047 145.114961,3.74511675 145.105195,3.83300781 C145.09543,3.92089888 145.067761,3.96484375 145.022188,3.96484375 L142.014375,3.96484375 L140.940156,8.11523438 L142.121797,8.11523438 L142.121797,6.77734375 L142.072969,5.14648438 C142.0925,5.11393213 142.118542,5.0911459 142.151094,5.078125 L142.356172,5.16601563 L143.449922,5.57617188 C143.554089,5.62174502 143.601289,5.67220024 143.591524,5.72753906 C143.581758,5.78287788 143.550834,5.83984346 143.49875,5.8984375 L143.176485,6.25976563 L143.176485,8.11523438 L143.518281,8.11523438 L143.928438,7.32421875 C143.987032,7.21354111 144.035859,7.15657554 144.074922,7.15332031 C144.113985,7.15006509 144.156302,7.17773408 144.201875,7.23632813 L144.992891,8.33984375 C145.057995,8.43099004 145.087292,8.50748667 145.080781,8.56933594 C145.074271,8.63118521 145.044974,8.66210938 144.992891,8.66210938 L143.176485,8.66210938 L143.176485,12.1972656 C143.430392,12.0996089 143.625703,12.0247398 143.762422,11.9726563 L144.992891,11.5136719 L145.412813,11.3574219 C145.484428,11.3313801 145.52349,11.3623042 145.53,11.4501953 C145.536511,11.5380864 145.51698,11.5983071 145.471406,11.6308594 L145.06125,11.9140625 C144.996146,11.9596356 144.367897,12.3632774 143.176485,13.125 L143.176485,15.8691406 L143.225313,17.6367188 C143.101614,17.929689 142.904676,18.087565 142.634492,18.1103516 C142.364309,18.1331381 142.20806,18.1087243 142.165742,18.0371094 C142.123424,17.9654944 142.0925,17.884115 142.072969,17.7929688 L142.121797,16.0742188 L142.121797,13.7890625 C141.972057,13.8932297 141.561905,14.1666645 140.891328,14.609375 L140.412813,14.9414062 L140.139375,15.1757812 C140.113333,15.1953126 140.097057,15.2018229 140.090547,15.1953125 C140.077526,15.1953125 140.067761,15.1888021 140.06125,15.1757812 L140.041719,15.0878906 L139.5925,13.2519531 L139.553438,13.1347656 C139.553438,13.1087238 139.566458,13.0794272 139.5925,13.046875 L139.895235,13.0078125 L140.37375,12.9296875 C140.783908,12.864583 141.366585,12.7246104 142.121797,12.5097656 L142.121797,8.66210938 L140.822969,8.66210938 L140.627656,9.15039062 C140.53,9.3847668 140.473034,9.51497383 140.456758,9.54101562 C140.440482,9.56705742 140.425834,9.58170571 140.412813,9.58496094 C140.399792,9.58821616 140.350964,9.53776094 140.266328,9.43359375 L139.5925,8.62304688 C139.546927,8.57747373 139.522513,8.54329438 139.519258,8.52050781 C139.516003,8.49772124 139.563203,8.44401084 139.66086,8.359375 C139.732474,8.30078096 139.807344,8.16406357 139.885469,7.94921875 C139.963594,7.73437393 140.015677,7.57487031 140.041719,7.47070313 L140.305391,6.43554688 C140.363985,6.2141916 140.559295,5.39063213 140.891328,3.96484375 L139.475313,3.96484375 C139.403698,3.88671836 139.363008,3.77766997 139.353242,3.63769531 C139.343477,3.49772065 139.400442,3.42773438 139.524141,3.42773438 L140.979219,3.42773438 Z M149.778047,10.6542969 L149.778047,15.9570312 L149.826875,17.5 C149.820365,17.5976567 149.787813,17.7213534 149.729219,17.8710938 C149.670625,18.0208341 149.498101,18.1022135 149.211641,18.1152344 C148.925181,18.1282553 148.759167,18.0989587 148.713594,18.0273438 C148.668021,17.9557288 148.638724,17.8710942 148.625703,17.7734375 L148.664766,16.4160156 L148.664766,11.2890625 L148.615938,9.609375 C148.641979,9.57682275 148.664766,9.55403652 148.684297,9.54101562 L148.908906,9.63867188 L149.953828,10.0683594 C150.025443,10.1009116 150.059623,10.1448565 150.056367,10.2001953 C150.053112,10.2555341 150.028698,10.3124997 149.983125,10.3710938 L149.778047,10.6542969 Z M147.024141,10.3515625 C147.01763,10.8268253 147.006237,11.2320947 146.989961,11.5673828 C146.973685,11.9026709 146.932995,12.320961 146.867891,12.8222656 C146.802786,13.3235702 146.680717,13.9078743 146.50168,14.5751953 C146.322642,15.2425164 145.979221,15.8333308 145.471406,16.3476562 C144.963591,16.8619817 144.579481,17.2102855 144.319063,17.3925781 L143.81125,17.7539062 C143.700573,17.8385421 143.641979,17.8352869 143.635469,17.7441406 C143.628958,17.6529943 143.64849,17.5813805 143.694063,17.5292969 L144.12375,17.0703125 C144.527398,16.6341124 144.887095,16.0628291 145.202852,15.3564453 C145.518608,14.6500616 145.707409,13.9615919 145.769258,13.2910156 C145.831107,12.6204394 145.868542,12.0784526 145.881563,11.6650391 C145.894584,11.2516255 145.899466,10.9472666 145.896211,10.7519531 C145.892956,10.5566396 145.891328,10.397136 145.891328,10.2734375 L145.871797,9.66796875 L145.8425,9.31640625 C145.855521,9.2968749 145.870169,9.2838542 145.886445,9.27734375 C145.902722,9.2708333 145.962942,9.283854 146.06711,9.31640625 L147.297578,9.73632812 C147.343151,9.75585947 147.37082,9.77701812 147.380586,9.79980469 C147.390352,9.82259126 147.396862,9.83886714 147.400117,9.84863281 C147.403373,9.85839849 147.395235,9.88443989 147.375703,9.92675781 C147.356172,9.96907573 147.339896,9.99674473 147.326875,10.0097656 L147.024141,10.3515625 Z M157.47625,10.0097656 L158.081719,10.0097656 L158.511406,9.140625 C158.530938,9.08854141 158.550469,9.06087241 158.57,9.05761719 C158.589532,9.05436196 158.622083,9.08203096 158.667656,9.140625 L159.468438,10.3710938 C159.546563,10.4882818 159.520522,10.546875 159.390313,10.546875 L157.47625,10.546875 L157.47625,14.6191406 C158.120785,14.4042958 158.605806,14.2350267 158.931328,14.1113281 L159.517266,13.8867188 C159.601902,13.860677 159.647474,13.880208 159.653985,13.9453125 C159.660495,14.010417 159.631198,14.065755 159.566094,14.1113281 L158.999688,14.4824219 C157.87989,15.2181026 156.57131,16.1197863 155.073906,17.1875 L154.683281,17.4707031 C154.598646,17.5292972 154.549818,17.5504558 154.536797,17.5341797 C154.523776,17.5179036 154.514011,17.4837242 154.5075,17.4316406 L154.146172,15.9082031 C154.126641,15.8365882 154.116875,15.7812502 154.116875,15.7421875 L154.116875,15.6933594 C154.116875,15.6673176 154.139661,15.6477865 154.185235,15.6347656 L154.644219,15.5273438 L154.644219,10.5078125 L154.614922,8.90625 C154.634453,8.8802082 154.650729,8.86393232 154.66375,8.85742188 L154.751641,8.89648438 L155.962578,9.32617188 C156.021172,9.35221367 156.052097,9.38964819 156.055352,9.43847656 C156.058607,9.48730493 156.021172,9.55078086 155.943047,9.62890625 L155.630547,9.95117188 L155.630547,15.234375 L156.53875,14.921875 L156.53875,6.43554688 L155.884453,6.43554688 L155.884453,7.23632813 C155.884453,7.4707043 155.72495,7.59602856 155.405938,7.61230469 C155.086926,7.62858081 154.917657,7.61881528 154.898125,7.58300781 C154.878594,7.54720034 154.865573,7.48372441 154.859063,7.39257812 L154.898125,5.73242188 L154.898125,2.6171875 L154.868828,1.12304687 C154.881849,1.10351553 154.898125,1.09049482 154.917656,1.08398437 L155.073906,1.20117187 L155.943047,1.81640625 L157.652031,1.81640625 L158.032891,1.14257812 C158.058933,1.10351543 158.076836,1.08235679 158.086602,1.07910156 C158.096367,1.07584634 158.124036,1.09700498 158.16961,1.14257812 L159.10711,2.06054687 C159.152683,2.11263047 159.175469,2.15820293 159.175469,2.19726562 C159.175469,2.23632832 159.162448,2.26888008 159.136406,2.29492187 L158.765313,2.71484375 L158.765313,5.95703125 L158.784844,6.97265625 C158.73276,7.12890703 158.607436,7.24609336 158.408867,7.32421875 C158.210299,7.40234414 158.039402,7.4348959 157.896172,7.421875 C157.778984,7.41536455 157.720391,7.35351621 157.720391,7.23632813 L157.720391,6.43554688 L157.47625,6.43554688 L157.47625,10.0097656 Z M157.720391,2.36328125 L155.884453,2.36328125 L155.884453,5.87890625 L157.720391,5.87890625 L157.720391,2.36328125 Z M164.556328,4.50195312 L160.767266,4.50195312 L160.054375,6.07421875 L161.089531,6.73828125 L162.446953,6.73828125 L162.749688,6.20117188 C162.795261,6.11653604 162.860364,6.10677051 162.945,6.171875 L163.911797,6.97265625 C163.931328,6.99869805 163.947604,7.02311187 163.960625,7.04589844 C163.973646,7.06868501 163.978529,7.09472642 163.975274,7.12402344 C163.972018,7.15332046 163.95086,7.19075498 163.911797,7.23632812 L163.589531,7.56835938 L163.589531,9.6484375 L163.618828,10.546875 C163.599297,10.6380213 163.568373,10.7161455 163.526055,10.78125 C163.483737,10.8463545 163.371433,10.9147132 163.189141,10.9863281 C163.006848,11.0579431 162.860365,11.0872396 162.749688,11.0742188 C162.665052,11.0677083 162.609714,11.0400393 162.583672,10.9912109 C162.55763,10.9423826 162.54461,10.8723963 162.54461,10.78125 L162.54461,10.3710938 L161.099297,10.3710938 L161.099297,15.2929688 C161.099297,15.4296882 161.107435,15.537109 161.123711,15.6152344 C161.139987,15.6933598 161.226249,15.8105461 161.3825,15.9667969 C161.538751,16.1230477 162.290697,16.184896 163.63836,16.1523438 C164.51727,16.1393229 165.041353,16.0481779 165.210625,15.8789062 C165.379897,15.7096346 165.519869,15.5078137 165.630547,15.2734375 C165.741225,15.0390613 165.903983,14.5931022 166.118828,13.9355469 L166.421563,12.9785156 C166.441094,12.9134111 166.470391,12.8808594 166.509453,12.8808594 C166.555026,12.8873698 166.57944,12.9166664 166.582695,12.96875 C166.585951,13.0208336 166.587578,13.0501302 166.587578,13.0566406 L166.421563,14.0429688 C166.369479,14.3554703 166.333672,14.6126292 166.314141,14.8144531 C166.294609,15.0162771 166.284844,15.16276 166.284844,15.2539062 C166.284844,15.3450525 166.304375,15.4492182 166.343438,15.5664062 C166.362969,15.6575525 166.42319,15.7942699 166.524102,15.9765625 C166.625014,16.1588551 166.675469,16.3134759 166.675469,16.4404297 C166.675469,16.5673834 166.620131,16.7154939 166.509453,16.8847656 C166.372734,17.0800791 166.154637,17.254231 165.855156,17.4072266 C165.555676,17.5602221 164.735371,17.6334636 163.394219,17.6269531 C162.339526,17.6269531 161.576187,17.5748703 161.10418,17.4707031 C160.632172,17.3665359 160.339206,17.192384 160.225274,16.9482422 C160.111341,16.7041003 160.054375,16.4322932 160.054375,16.1328125 L160.054375,8.03710938 L160.015313,6.20117188 C159.761405,6.72851826 159.56935,7.11913936 159.439141,7.37304688 L159.058281,8.0859375 L158.814141,8.57421875 C158.781589,8.63932324 158.749037,8.66861982 158.716485,8.66210938 C158.670911,8.66210938 158.646498,8.63769556 158.643242,8.58886719 C158.639987,8.54003882 158.648125,8.49283877 158.667656,8.44726562 L158.862969,7.8515625 C159.370784,6.32160693 159.746757,5.02116421 159.990899,3.95019531 C160.23504,2.87922642 160.386406,2.16797051 160.445,1.81640625 L160.591485,0.8984375 L160.620781,0.68359375 C160.627292,0.664062402 160.63543,0.651041699 160.645195,0.64453125 C160.654961,0.638020801 160.708672,0.657551855 160.806328,0.703125 L162.095391,1.35742188 C162.186537,1.40950547 162.228854,1.46321587 162.222344,1.51855469 C162.215833,1.57389351 162.189792,1.62109355 162.144219,1.66015625 L161.714531,2.02148438 L160.972344,3.95507812 L164.527031,3.95507812 L164.868828,3.2421875 C164.901381,3.17708301 164.959974,3.17708301 165.04461,3.2421875 L166.118828,4.19921875 L166.187188,4.2578125 C166.193698,4.27734385 166.196953,4.30175767 166.196953,4.33105469 C166.196953,4.36035171 166.170912,4.40755176 166.118828,4.47265625 L165.728203,4.93164062 C165.715182,6.47461709 165.703789,7.72134941 165.694024,8.671875 C165.684258,9.62240059 165.651706,10.4101531 165.596367,11.0351562 C165.541029,11.6601594 165.405939,12.2298151 165.191094,12.7441406 C164.976249,13.2584661 164.5368,13.5839837 163.872735,13.7207031 L163.589531,13.7792969 C163.504896,13.7988282 163.449558,13.7923179 163.423516,13.7597656 L163.374688,13.5644531 L163.306328,13.3007812 C163.260755,13.1445305 163.179376,12.988282 163.062188,12.8320312 C162.945,12.6757805 162.821303,12.5683597 162.691094,12.5097656 L162.280938,12.3242188 C162.254896,12.3177083 162.235365,12.3014324 162.222344,12.2753906 C162.209323,12.2493488 162.201185,12.2086591 162.19793,12.1533203 C162.194675,12.0979815 162.222344,12.0703125 162.280938,12.0703125 L162.886406,12.109375 C163.51141,12.1549481 163.926444,12.0475273 164.131524,11.7871094 C164.336603,11.5266914 164.461927,11.0058633 164.5075,10.2246094 C164.553073,9.44335547 164.57586,8.54492695 164.57586,7.52929688 L164.57586,6.015625 L164.556328,4.50195312 Z M162.54461,9.81445312 L162.54461,7.27539062 L161.099297,7.27539062 L161.099297,9.81445312 L162.54461,9.81445312 Z M174.686172,12.5683594 L174.686172,9.51171875 L171.785781,9.51171875 L171.277969,10.1660156 C171.225885,10.2376306 171.180313,10.2376306 171.14125,10.1660156 L170.438125,8.984375 C170.36,8.86067646 170.31931,8.78743501 170.316055,8.76464844 C170.3128,8.74186187 170.405572,8.68164111 170.594375,8.58398438 C170.705053,8.53190078 170.804336,8.43099033 170.892227,8.28125 C170.980118,8.13150967 171.162408,7.71972993 171.439102,7.04589844 C171.715796,6.37206694 171.925755,5.85286641 172.068985,5.48828125 C172.212214,5.12369609 172.381484,4.66146113 172.576797,4.1015625 L169.354141,4.1015625 C169.243463,4.1015625 169.183242,4.01367275 169.173477,3.83789062 C169.163711,3.6621085 169.223932,3.57421875 169.354141,3.57421875 L172.762344,3.57421875 C172.775365,3.52864561 172.884413,3.18359697 173.089492,2.5390625 C173.294572,1.89452803 173.442682,1.39974131 173.533828,1.0546875 L173.690078,0.46875 L173.768203,0.01953125 C173.774714,0.0130208008 173.784479,0.00651044922 173.7975,0 L174.041641,0.17578125 L175.408828,1.0546875 C175.454401,1.0937502 175.477188,1.1474606 175.477188,1.21582031 C175.477188,1.28418003 175.43487,1.34440078 175.350235,1.39648438 L174.881485,1.69921875 L174.139297,3.57421875 L178.426406,3.57421875 L178.943985,2.6171875 C179.061173,2.39583223 179.134414,2.2786459 179.163711,2.265625 C179.193008,2.2526041 179.262994,2.30468691 179.373672,2.421875 L180.438125,3.66210938 C180.522761,3.76627656 180.563451,3.86393184 180.560196,3.95507812 C180.55694,4.04622441 180.516251,4.09179688 180.438125,4.09179688 L179.940078,4.09179688 L179.940078,4.1015625 L173.924453,4.1015625 L171.942031,8.984375 L174.686172,8.984375 L174.686172,6.953125 L174.64711,5.28320313 C174.673151,5.24414043 174.699193,5.21809902 174.725235,5.20507812 L174.881485,5.2734375 L176.238906,5.84960938 C176.330053,5.89518252 176.37237,5.95703086 176.36586,6.03515625 C176.359349,6.11328164 176.317032,6.18164033 176.238906,6.24023438 L175.926406,6.47460938 L175.926406,8.984375 L177.86,8.984375 L178.338516,8.046875 C178.462214,7.79296748 178.554987,7.68391909 178.616836,7.71972656 C178.678685,7.75553403 178.764948,7.84179619 178.875625,7.97851562 L179.754531,9.05273438 C179.832657,9.15690156 179.871719,9.25618442 179.871719,9.35058594 C179.871719,9.44498745 179.832657,9.4921875 179.754531,9.4921875 L175.926406,9.51171875 L175.926406,12.5683594 L179.168594,12.5683594 L179.754531,11.5332031 C179.832657,11.3834628 179.886367,11.3069662 179.915664,11.3037109 C179.944961,11.3004557 179.988906,11.3281247 180.0475,11.3867188 L181.033828,12.6269531 C181.092422,12.6985681 181.133112,12.7652992 181.155899,12.8271484 C181.178685,12.8889977 181.190078,12.9475909 181.190078,13.0029297 C181.190078,13.0582685 181.147761,13.0859375 181.063125,13.0859375 L179.451797,13.0859375 L179.451797,13.1054688 L175.926406,13.1054688 L175.926406,16.0449219 L175.975235,17.7050781 C175.962214,17.789714 175.94431,17.8613278 175.921524,17.9199219 C175.898737,17.9785159 175.818985,18.0550125 175.682266,18.1494141 C175.545546,18.2438156 175.363257,18.2926432 175.135391,18.2958984 C174.907525,18.2991537 174.770808,18.250326 174.725235,18.1494141 C174.679661,18.0485021 174.65362,17.9166675 174.64711,17.7539062 L174.686172,16.1132812 L174.686172,13.1054688 L168.86586,13.1054688 L168.7975,13.0761719 C168.751927,13.0566405 168.729141,13.0403646 168.729141,13.0273438 L168.70961,12.9199219 C168.70961,12.6855457 168.761692,12.5683594 168.86586,12.5683594 L174.686172,12.5683594 Z" id="全新CLS四门轿跑车"></path>
            </g>
        </g>
    </g>
</svg>