<?xml version="1.0" encoding="UTF-8"?>
<svg width="327px" height="80px" viewBox="0 0 327 80" version="1.1" xmlns="http://www.w3.org/2000/svg" xmlns:xlink="http://www.w3.org/1999/xlink">
    <!-- Generator: Sketch 51 (57462) - http://www.bohemiancoding.com/sketch -->
    <title>pc</title>
    <desc>Created with Sketch.</desc>
    <defs></defs>
    <g id="Page-1" stroke="none" stroke-width="1" fill="none" fill-rule="evenodd">
        <g id="pc" fill="#FFFFFF" fill-rule="nonzero">
            <rect id="Rectangle-Copy-13_1_" x="148.5" y="79" width="30.3" height="1"></rect>
            <g id="Group" transform="translate(99.000000, 27.000000)">
                <path d="M1.1,15.6 L1.2,15.6 L6.5,15.6 L6.5,14.4 L6.4,11.6 C6.5,11.5 6.5,11.5 6.5,11.5 C6.5,11.5 6.6,11.5 6.8,11.6 L9.4,12.6 C9.6,12.7 9.7,12.7 9.7,12.8 C9.7,12.9 9.8,12.9 9.8,13 C9.8,13.1 9.7,13.2 9.5,13.4 L8.7,14.3 L8.7,21.7 L8.9,24.6 C8.9,24.7 8.8,24.9 8.8,25 C8.7,25.2 8.5,25.3 8,25.5 C7.5,25.7 7.2,25.8 6.9,25.7 C6.7,25.7 6.6,25.7 6.5,25.6 C6.4,25.5 6.4,25.4 6.4,25.2 L6.5,22.1 L6.5,21.2 C5.9,21.7 5.5,22 5.2,22.3 L3.9,23.3 L2.3,24.7 L1.6,25.3 L1.4,25 L0.4,22.6 L0.2,22.1 C0.2,22.1 0.2,22.1 0.2,22 C0.2,21.9 0.2,21.9 0.2,21.9 C0.2,21.9 0.3,21.9 0.4,21.8 L2,21.5 C2.4,21.4 3.9,21 6.5,20.3 L6.5,17 L1.1,17 C0.9,17 0.7,16.8 0.7,16.5 C0.7,15.9 0.8,15.7 1.1,15.6 Z M14,10.6 L14,19.5 C14.2,20.2 14.6,21.1 14.9,22.1 C15.2,23.1 15.9,24.3 16.7,25.6 C17.5,26.9 18.6,28.2 20,29.3 C21.4,30.4 22.4,31.2 23.3,31.6 C24.2,32 24.7,32.3 25,32.3 L26.1,32.6 C26.3,32.7 26.4,32.8 26.4,33 C26.4,33.2 26.3,33.3 26.1,33.4 L25.1,33.9 C24.6,34.1 24.2,34.6 23.8,35.3 L23.4,36 C23.3,36.2 23.2,36.3 23.2,36.2 C23.1,36.2 22.6,35.9 21.8,35.2 C21,34.5 20.2,33.8 19.5,33.1 C18.8,32.4 18,31.2 17.1,29.7 C16.2,28.2 15.4,26.5 14.9,24.6 L14.1,21.7 L14.1,32.8 L14.2,37.3 C14.2,37.6 14.1,37.8 14,38 C13.9,38.2 13.6,38.4 13.2,38.6 C12.8,38.8 12.4,38.8 12.1,38.8 C11.9,38.8 11.7,38.7 11.6,38.6 C11.5,38.5 11.5,38.3 11.5,38 L11.7,34.1 L11.7,26 C9.3,29.1 7.5,31.2 6.4,32.3 C5.3,33.4 4.3,34.3 3.4,35.2 C2.5,36.1 1.9,36.5 1.6,36.7 L0.7,37.3 C0.7,37.3 0.6,37.4 0.5,37.4 C0.4,37.4 0.4,37.4 0.4,37.3 C0.4,37.3 0.4,37.2 0.4,37.1 C0.4,37 0.5,36.9 0.7,36.7 L1.3,36.2 C1.6,35.9 2.8,34.5 4.8,32.1 C6.8,29.7 8.5,27 9.9,24 L11.8,20.1 L11.8,10.8 L0.8,10.8 C0.6,10.8 0.4,10.6 0.4,10.2 C0.4,9.8 0.5,9.6 0.8,9.6 L11.7,9.6 L11.7,5.7 C11.2,5.7 10.5,5.7 9.7,5.7 C8.9,5.7 8.1,5.7 7.3,5.7 L3.7,5.8 L2.6,5.8 C2.4,5.8 2.2,5.8 2.1,5.7 C2,5.6 2,5.6 2,5.5 C2,5.4 2,5.4 2.1,5.3 C2.1,5.2 2.2,5.2 2.4,5.1 L3.5,4.9 C4.4,4.8 6.6,4.3 10.1,3.5 C13.6,2.7 16,2 17.3,1.5 L18.3,1 L19.1,0.5 C19.2,0.5 19.4,0.6 19.6,0.8 L22.2,3.5 C22.3,3.6 22.3,3.7 22.3,3.8 C22.3,4 22.2,4.1 21.9,4.1 L20.4,4.3 L17.6,4.7 L14.7,5 C14.6,5.3 14.5,5.5 14.5,5.5 C14.4,5.6 14.3,5.7 14.1,5.8 L14.1,9.4 L21.2,9.4 L22.8,7 C22.9,6.8 23,6.7 23.1,6.7 C23.2,6.7 23.3,6.8 23.4,7 L25.5,9.8 C25.6,10 25.7,10.1 25.7,10.3 C25.7,10.5 25.6,10.6 25.5,10.6 L14,10.6 Z M18.7,17.2 C19.1,16.7 19.7,16.1 20.3,15.4 C20.9,14.7 21.4,14.2 21.5,14 L22.1,13.2 L22.3,12.9 C22.3,12.9 22.3,12.9 22.4,12.9 C22.4,12.9 22.5,13 22.7,13.2 L24.4,15.5 C24.4,15.5 24.4,15.6 24.5,15.7 C24.6,15.8 24.5,15.9 24.6,16 C24.6,16.1 24.5,16.2 24.2,16.2 L23.6,16.2 C21.9,17 20.3,17.7 18.8,18.3 L18.8,20.8 C18.8,21.1 18.9,21.3 19.2,21.6 C19.5,21.8 20,22 20.8,22 C21.9,22 22.7,21.8 23,21.3 C23.4,20.8 23.7,20 24.1,18.6 L24.6,16.8 C24.6,16.6 24.7,16.6 24.8,16.5 C24.9,16.4 25,16.6 25,16.9 L24.9,18.6 C24.9,18.8 24.9,19 24.9,19.3 C24.9,19.6 24.9,19.8 24.9,19.8 C24.9,20.1 24.9,20.4 25,20.6 C25.1,20.8 25.2,21.1 25.4,21.5 C25.6,21.9 25.7,22.2 25.7,22.5 C25.7,23 25.3,23.5 24.7,24 C24.1,24.5 22.8,24.8 21,24.7 C18.6,24.6 17.3,24.3 17,23.8 C16.7,23.3 16.6,22.5 16.6,21.7 L16.6,14.9 L16.5,11.8 C16.5,11.7 16.6,11.7 16.6,11.7 L16.9,11.8 L19.5,12.8 C19.6,12.9 19.7,13 19.7,13.1 C19.7,13.2 19.7,13.4 19.6,13.4 L18.8,14.2 L18.8,17.2 L18.7,17.2 Z" id="Shape"></path>
                <path d="M34,8.1 L37.3,8.1 L38.2,6.5 C38.3,6.3 38.4,6.3 38.4,6.2 C38.4,6.2 38.5,6.2 38.6,6.3 L40.3,8.6 C40.4,8.7 40.4,8.8 40.4,8.9 C40.4,9 40.3,9.1 40.1,9.1 L33.5,9.1 C32.2,12 31.5,13.6 31.4,13.8 C31.3,14 30.9,14.9 30.1,16.3 L29.6,17.3 C29.6,17.4 29.5,17.4 29.4,17.4 C29.3,17.4 29.2,17.4 29.2,17.3 C29.2,17.2 29.2,17.2 29.2,17.1 C29.2,17 29.2,17 29.2,17 L29.6,16 C29.8,15.5 30.1,14.5 30.6,13 C31.1,11.5 31.5,9.7 32,7.5 C32.5,5.3 32.8,3.8 32.9,2.8 L33.2,1 L33.2,0.8 C33.2,0.7 33.2,0.7 33.3,0.7 L33.5,0.8 L36.3,2.4 C36.4,2.5 36.5,2.6 36.6,2.6 C36.6,2.7 36.6,2.7 36.6,2.8 C36.6,2.9 36.5,3 36.4,3 L35.6,3.5 L34,8.1 Z M36.2,15.6 C36.2,15.7 36.1,15.8 36.1,15.9 C36.1,16 35.9,16.1 35.7,16.3 L35.7,21.6 L37,21.6 L37.8,20.1 C37.9,19.9 38,19.9 38.2,20 L39.9,22.2 C40,22.3 40,22.4 40,22.5 C40,22.6 39.9,22.7 39.7,22.7 L35.7,22.7 L35.7,31.3 C36.1,31 37.1,30.2 38.6,29 L39.8,28 C39.9,27.9 40,27.9 40,28 C40,28.1 40.1,28.1 40.1,28.2 C40.1,28.3 40.1,28.3 40,28.4 L38.9,29.8 C38.6,30.2 38.1,30.9 37.4,32 C36.7,33.1 35.8,34.4 34.8,35.8 L33.9,37.1 C33.8,37.2 33.7,37.3 33.7,37.3 C33.7,37.3 33.6,37.2 33.6,37.1 L32.4,34.4 C32.3,34.2 32.2,34 32.3,33.9 C32.3,33.8 32.4,33.7 32.7,33.4 C33,33.1 33.1,32.8 33.3,32.4 C33.4,32 33.5,31.6 33.5,31 L33.5,22.8 L29.7,22.8 L29.4,22.7 C29.3,22.6 29.2,22.4 29.2,22.1 C29.2,21.8 29.3,21.7 29.6,21.7 L33.4,21.7 L33.4,15.8 L31.2,15.8 C31,15.8 30.8,15.6 30.8,15.2 C30.8,14.8 30.9,14.6 31.2,14.6 L36.7,14.6 L37.5,13.1 C37.6,12.9 37.7,12.9 37.7,12.8 C37.7,12.7 37.8,12.9 38,13.1 L39.6,15.4 C39.6,15.5 39.7,15.5 39.7,15.6 C39.7,15.6 39.7,15.7 39.7,15.7 C39.7,15.8 39.6,15.8 39.5,15.8 L36.2,15.8 L36.2,15.6 Z M44.5,6.3 L49.8,6.3 L50.6,4.9 C50.7,4.7 50.7,4.7 50.8,4.7 C50.8,4.7 50.9,4.8 51.1,4.9 L53.2,7.4 C53.3,7.5 53.3,7.6 53.4,7.6 C53.4,7.7 53.4,7.7 53.4,7.8 C53.4,7.9 53.3,8 53.2,8 L52,8.7 C51,10.4 50,12 49,13.5 C50.5,14.6 52.4,15.3 54.9,15.7 L55.9,15.8 C56,15.8 56.1,15.9 56.1,16 C56.1,16.1 56,16.2 55.9,16.3 L55.2,16.9 C54.9,17.2 54.5,17.8 54.3,18.7 L54.1,19.3 C54,19.6 54,19.7 53.9,19.7 C53.9,19.7 53.8,19.7 53.7,19.6 L52.9,19.2 C51.1,18.4 49.2,17.1 47.5,15.2 C45.6,17.1 43.3,18.8 40.7,20.2 L39.9,20.6 C39.9,20.6 39.8,20.6 39.8,20.6 C39.8,20.6 39.7,20.6 39.7,20.5 C39.7,20.5 39.7,20.4 39.7,20.4 C39.7,20.4 39.7,20.3 39.7,20.3 C39.7,20.3 39.7,20.2 39.8,20.2 L40.4,19.6 L42.1,18.2 C43.2,17.2 44.6,15.6 46.1,13.4 C45.3,12 44.7,11 44.4,10.2 L43.6,8 C42.3,10.3 41.4,11.9 40.9,12.7 L40.3,13.7 C40.1,13.9 40,14 40,13.9 C40,13.8 39.9,13.7 39.9,13.7 C39.9,13.7 39.9,13.5 40,13.4 L40.4,12.4 C40.6,11.9 40.9,10.9 41.4,9.3 C41.9,7.7 42.3,6.2 42.7,4.6 L43.2,2.1 L43.4,1 L43.4,0.7 C43.4,0.7 43.4,0.6 43.4,0.6 L43.7,0.8 L46.4,2.5 C46.5,2.6 46.6,2.7 46.6,2.8 C46.6,2.9 46.5,3 46.4,3.1 L45.7,3.6 L44.5,6.3 Z M50.7,21.3 L51.6,19.8 C51.7,19.7 51.8,19.6 51.8,19.6 C51.8,19.6 51.9,19.7 52,19.8 L53.6,22 C53.6,22 53.6,22.1 53.6,22.1 C53.6,22.1 53.6,22.2 53.6,22.2 C53.6,22.3 53.5,22.3 53.4,22.3 L53,22.3 L48.2,22.3 L48.2,25.5 L50.8,25.5 L51.8,23.9 C51.9,23.8 51.9,23.7 52,23.7 C52.1,23.7 52.1,23.8 52.2,23.9 L53.7,26.1 C53.7,26.1 53.7,26.2 53.8,26.3 C53.8,26.4 53.8,26.4 53.8,26.4 C53.8,26.5 53.7,26.6 53.5,26.6 L48.2,26.6 L48.2,29.8 L52,29.8 L52.8,28.1 C52.9,27.9 53,27.8 53,27.8 C53.1,27.8 53.1,27.9 53.3,28 L55.2,30.4 C55.2,30.5 55.3,30.6 55.3,30.7 C55.3,30.8 55.2,30.9 55.1,30.9 L52.3,30.9 L48.2,30.9 L48.2,34.7 L48.3,37.2 C48.3,37.4 48.2,37.5 48.2,37.6 C48.2,37.7 47.9,37.9 47.6,38 C47.3,38.1 46.9,38.2 46.6,38.2 C46.3,38.2 46.1,38.2 46,38.1 C45.9,38 45.9,37.9 45.9,37.7 L46,34.2 L46,31 L40,31 C39.8,31 39.7,30.8 39.6,30.4 C39.6,30 39.7,29.8 40,29.8 L45.8,29.8 L45.8,26.6 L41.1,26.6 C41,26.6 40.9,26.5 40.9,26.4 C40.9,26.3 40.8,26.2 40.8,25.9 C40.8,25.6 40.9,25.5 41.1,25.5 L45.8,25.5 L45.8,22.3 L40.7,22.3 L40.5,22.2 L40.4,21.9 C40.4,21.4 40.5,21.2 40.7,21.2 L45.8,21.2 L45.8,20 L45.7,17.2 C45.7,17.1 45.8,17.1 45.8,17.1 C45.8,17.1 46,17.1 46.2,17.2 L48.4,17.9 C48.6,18 48.7,18 48.7,18.1 C48.7,18.1 48.7,18.2 48.7,18.2 C48.7,18.2 48.7,18.3 48.6,18.4 L48.1,19 L48.1,21.2 L50.7,21.2 L50.7,21.3 Z M43.9,7.4 L43.8,7.5 C44.8,9.2 45.5,10.3 46.1,10.8 L47,11.8 C47.7,10.7 48.2,9.8 48.5,9.2 L49.3,7.7 L49.5,7.3 L43.9,7.3 L43.9,7.4 Z" id="Shape"></path>
                <path d="M74.5,5.8 L78.3,5.7 C78.3,5.1 78.4,4.6 78.4,4.2 C78.4,3.8 78.4,3.5 78.5,3.3 C78.6,3.1 78.5,2.9 78.5,2.9 L78.5,1.5 L78.5,0.7 C78.5,0.6 78.5,0.6 78.5,0.6 C78.5,0.6 78.7,0.6 79,0.7 L81.8,1.5 C81.9,1.6 82,1.6 82,1.8 C82,1.9 81.9,2 81.8,2.2 L81.1,2.9 C81,3.8 81,4.4 81,4.8 L81,5.2 L80.9,5.9 L83.9,5.8 L84.4,4.7 C84.6,4.4 84.6,4.2 84.7,4.2 C84.8,4.2 84.8,4.2 85,4.4 L86.9,6.1 C87,6.2 87.1,6.3 87.1,6.4 C87.1,6.5 87,6.6 86.9,6.8 L86.3,7.4 C86.2,8.5 86.1,9.7 86,10.9 C85.9,12.2 85.7,13.2 85.4,14 C85.1,14.8 84.6,15.4 83.9,15.7 C83.2,16 82.8,16.1 82.7,16 C82.6,16 82.6,15.8 82.6,15.5 C82.6,15.2 82.5,14.8 82.4,14.4 C82.3,13.9 81.9,13.5 81.3,13.2 L80.5,12.7 C80.5,12.7 80.4,12.6 80.4,12.5 C80.4,12.4 80.3,12.3 80.3,12.3 C80.3,12.3 80.3,12.2 80.4,12.1 C80.5,12 80.5,12 80.6,12 L81.2,12.1 L81.8,12.2 C82,12.3 82.2,12.3 82.4,12.3 C82.9,12.3 83.2,12.2 83.4,12 C83.6,11.8 83.8,11.4 83.8,10.8 C83.8,10.2 83.9,9.5 84,8.7 C84.1,7.9 84.1,7.3 84.1,6.8 L80.9,6.9 C80.9,7.1 80.8,7.5 80.6,8.2 C80.4,8.9 80.3,9.6 80,10.4 C79.7,11.2 79.4,12.1 78.9,13 C78.4,13.9 77.7,14.8 76.9,15.8 C76.1,16.8 75.4,17.5 74.9,17.9 L74.3,18.5 C74,18.7 73.9,18.8 73.9,18.6 C73.9,18.4 73.9,18.2 74,18.1 L74.6,17.4 C74.8,17.2 75.1,16.7 75.5,16.1 C75.9,15.5 76.3,14.8 76.6,14.2 C76.9,13.6 77.2,12.6 77.6,11.4 C78,10.2 78.3,8.8 78.5,7.2 L74.9,7.3 C74.5,7.3 74.4,7.2 74.5,6.9 L74.6,6.4 L74.5,5.8 Z M91,30.3 L92,28.4 C92.2,28.1 92.3,27.9 92.3,27.9 C92.3,27.9 92.4,28 92.6,28.2 L94.5,30.6 C94.7,30.8 94.8,31 94.7,31.1 C94.6,31.2 94.6,31.3 94.5,31.3 L94,31.3 L75.5,31.3 C75.3,31.3 75.1,31.1 75.1,30.7 C75.1,30.3 75.2,30.1 75.5,30.1 L91,30.1 L91,30.3 Z M77.6,17.1 L77.7,17.1 L91.3,17.1 L92,16 C92.3,15.6 92.4,15.4 92.5,15.4 C92.6,15.5 92.7,15.6 92.8,15.7 L94.7,17.8 C94.8,17.9 94.8,18 94.9,18.1 C94.9,18.2 94.8,18.4 94.6,18.6 L93.9,19.3 L93,25.5 L96.5,25.5 L97.1,24.2 C97.2,23.9 97.3,23.8 97.4,23.8 C97.5,23.8 97.5,23.8 97.7,24 L99.8,26.2 C99.9,26.3 99.9,26.3 99.9,26.4 L99.9,26.5 C99.9,26.5 99.9,26.6 99.9,26.6 C99.9,26.6 99.8,26.7 99.7,26.8 L98.9,27.5 C98.8,28.5 98.7,29.8 98.5,31.4 C98.3,33 98,34.3 97.6,35.2 C97.2,36.1 96.8,36.7 96.3,37.2 C95.8,37.7 95.4,38 95.1,38.1 L93.8,38.7 C93.6,38.8 93.5,38.8 93.5,38.8 C93.4,38.8 93.3,38.6 93.2,38.2 L93,37.4 C92.8,36.6 92.3,35.9 91.5,35.5 L90.7,35 C90.6,35 90.6,34.9 90.6,34.8 C90.6,34.7 90.6,34.6 90.7,34.5 C90.8,34.4 90.8,34.4 90.9,34.4 L91.5,34.5 C92.2,34.6 92.8,34.7 93.4,34.7 C93.8,34.7 94.3,34.6 94.6,34.5 C94.9,34.4 95.3,33.9 95.5,33.2 C95.7,32.5 95.9,31.8 96.1,30.9 C96.3,30 96.3,29.4 96.4,28.9 C96.4,28.4 96.5,27.7 96.6,26.7 L81,26.7 L80.4,27.6 L80.1,28.2 C80.1,28.3 80,28.3 80,28.3 C80,28.3 79.9,28.2 79.7,28 L78.2,26.5 C78,26.4 78,26.3 78,26.2 C78,26.2 78,26.1 78,26.1 C78,26.1 78,26 78,26 L78.1,25.9 L78.8,25.4 C79,24.4 79.1,23.7 79.2,23.2 C79.3,22.7 79.4,21.9 79.6,20.6 L79.7,19.4 L79.8,18.6 C79.8,18.5 79.8,18.5 79.9,18.4 L80.4,18.7 L82.5,19.9 C82.8,20.1 82.9,20.2 82.9,20.3 C82.9,20.4 82.8,20.5 82.7,20.5 L82,21 L81.3,25.4 L90.4,25.4 L91.3,18.1 L77.6,18.1 C77.4,18.1 77.3,18 77.3,17.7 C77.3,17.4 77.4,17.3 77.6,17.1 Z M95.2,4.9 L95.7,3.9 C96,3.4 96.1,3.1 96.1,3.2 L96.4,3.4 L98.3,5.2 C98.4,5.3 98.4,5.4 98.5,5.5 C98.6,5.6 98.6,5.7 98.6,5.7 C98.6,5.7 98.5,5.9 98.4,6 L97.8,6.7 L97.8,11 L97.9,13.9 C97.8,14.3 97.6,14.6 97.3,14.8 C97,15 96.6,15.1 96.1,15.1 C95.6,15.1 95.4,14.8 95.4,14.1 L95.4,12.8 L90.5,12.8 L90.5,14 C90.5,14.3 90.4,14.6 90.2,14.8 C90,15 89.7,15.2 89.2,15.2 C88.7,15.2 88.4,15.2 88.3,15 C88.2,14.9 88.1,14.7 88.1,14.5 L88.2,11.8 L88.2,6.2 L88.1,3.1 C88.1,3 88.2,3 88.2,3 C88.2,3 88.3,3 88.4,3.1 L90.6,4.6 L95.2,4.6 L95.2,4.9 Z M95.3,11.8 L95.3,6 L90.4,6 L90.4,11.8 L95.3,11.8 Z" id="Shape"></path>
                <path d="M108.4,7.8 L103.5,7.8 C103.3,7.8 103.1,7.6 103.1,7.2 C103.1,6.8 103.2,6.6 103.5,6.6 L108.4,6.6 L108.4,4 L108.3,0.9 C108.4,0.8 108.4,0.8 108.5,0.8 L109,1 L111.2,1.7 C111.4,1.8 111.5,1.8 111.5,1.9 C111.5,2 111.6,2 111.6,2 C111.6,2 111.6,2.1 111.6,2.2 C111.6,2.3 111.5,2.4 111.4,2.6 L110.7,3.4 L110.7,6.7 L112.2,6.7 L113.2,5 C113.3,4.8 113.4,4.6 113.5,4.6 C113.5,4.6 113.7,4.7 113.9,5 L115.4,6.9 C115.6,7.2 115.7,7.4 115.7,7.6 C115.7,7.7 115.7,7.7 115.6,7.8 C115.5,7.9 115.5,7.9 115.4,7.9 L113.4,7.9 L110.8,7.9 L110.8,12 L113.8,11 C113.9,11 114,11 114.1,11 C114.2,11 114.2,11.1 114.2,11.3 C114.2,11.5 114.1,11.6 113.9,11.7 L110.8,13.6 L110.8,20.8 C110.8,21 110.7,21.3 110.5,21.6 C110.3,21.9 110.1,22.1 109.8,22.4 L108.3,23.2 C108,23.4 107.8,23.4 107.7,23.4 C107.6,23.4 107.6,23.4 107.5,23.3 C107.5,23.3 107.5,23.2 107.5,23.2 C107.5,23.2 107.5,23.1 107.4,22.8 L107.3,22.1 C107.1,21.3 106.7,20.8 106.2,20.5 L105.4,20.1 C105.2,20 105.1,19.9 105.2,19.7 C105.2,19.5 105.3,19.4 105.6,19.4 L106.7,19.5 C107.6,19.6 108.2,19.5 108.3,19.4 C108.4,19.3 108.5,19 108.5,18.8 L108.5,14.9 L105.1,17 C104.7,17.2 104.4,17.4 104.3,17.5 C104.1,17.6 104,17.4 103.8,16.9 L103.1,14.5 L102.9,13.8 C102.9,13.7 103,13.7 103,13.6 L103.5,13.5 L104.3,13.3 L106.3,12.9 L108.3,12.4 L108.3,7.8 L108.4,7.8 Z M119.8,9.5 C119.6,11.1 119.4,12.2 119.3,12.7 L119,14 C120.2,14.7 121,15.4 121.4,16 C121.8,16.6 122,17.3 122,18.1 C122,18.5 121.9,18.8 121.7,19.2 C121.5,19.6 121.3,19.8 120.9,19.8 C120.5,19.8 120.3,19.7 120,19.4 C119.7,19.1 119.3,18.5 118.7,17.5 L117.9,16.4 C117.4,17.3 116.9,18 116.3,18.7 C115.7,19.4 115,20 114.1,20.8 L116.4,21.5 C116.7,21.6 116.8,21.7 116.8,21.7 C116.8,21.8 116.8,21.9 116.8,22 C116.8,22.1 116.7,22.2 116.5,22.4 L116,22.9 C115.9,23.4 115.9,23.7 115.9,23.7 L115.7,24.9 L121.8,24.9 L122.5,23.7 C122.6,23.5 122.7,23.3 122.8,23.3 C122.9,23.3 123,23.4 123.2,23.6 L125.1,25.4 C125.2,25.5 125.3,25.6 125.3,25.7 C125.4,25.8 125.4,25.9 125.4,26 C125.4,26.1 125.3,26.2 125.1,26.3 L124.5,26.9 C124.4,27.9 124.2,29.4 123.9,31.5 C123.6,33.5 123.2,35 122.4,36.1 C121.6,37.2 121,37.8 120.2,38 C119.4,38.3 118.9,38.4 118.4,38.4 C118.2,38.4 118.1,38.4 118.1,38.3 C118.1,38.2 118,38.2 118,38.1 C118,38.1 118,37.9 117.9,37.6 C117.9,37.3 117.8,37 117.7,36.6 C117.6,36.2 117.4,35.8 117.2,35.6 C117,35.3 116.8,35.1 116.5,34.8 L115.9,34.2 C115.7,34.1 115.6,33.9 115.7,33.8 C115.7,33.7 115.7,33.6 115.8,33.6 C115.9,33.6 116,33.5 116.1,33.5 L117.1,33.7 C117.9,33.9 118.6,34 119,34 C119.6,34 120,33.7 120.3,33.2 C120.6,32.7 120.9,31.9 121.1,30.9 C121.3,29.9 121.5,29 121.6,28.2 C121.7,27.5 121.8,26.7 121.9,25.9 L115.4,25.9 C115.3,26.2 115.3,26.4 115.3,26.5 L115.2,27.3 C114.9,29 114.4,30.4 113.7,31.5 C113,32.6 112,33.7 110.8,34.6 C109.6,35.6 108.5,36.2 107.4,36.4 C106.4,36.7 105.4,36.9 104.6,37.1 L103.7,37.3 C103.6,37.3 103.5,37.3 103.4,37.2 C103.3,37.1 103.3,37 103.3,36.9 C103.3,36.8 103.4,36.7 103.6,36.6 L104.7,36.2 C108,34.9 110.1,33.3 111,31.4 C111.9,29.5 112.4,28.3 112.5,27.7 C112.6,27.1 112.8,26.5 112.9,25.8 L104.3,25.8 C104.1,25.8 104,25.6 103.9,25.3 C103.8,25 104,24.8 104.4,24.7 L104.5,24.7 L113.1,24.7 C113.2,23.6 113.3,22.9 113.3,22.6 L113.4,21.1 C112.7,21.5 112.3,21.8 112.1,21.9 L111.2,22.4 C110.9,22.6 110.7,22.6 110.7,22.5 C110.7,22.4 110.7,22.3 110.7,22.2 C110.7,22.1 110.8,22 110.9,21.9 L111.6,21.3 C112.7,20.4 113.6,19.5 114.2,18.5 C114.8,17.5 115.6,16.3 116.3,14.7 C115.9,14.2 115.5,13.9 114.9,13.5 C114.4,13.2 114.1,13 114.1,12.9 C114.1,12.8 114.1,12.8 114.1,12.7 L114.1,12.6 C114.1,12.4 114.2,12.4 114.4,12.4 C114.8,12.4 115.6,12.6 116.7,13 C116.9,11.8 117,11 117.1,10.5 C117.1,10 117.2,9.7 117.2,9.5 L113.2,9.8 C112.9,9.8 112.7,9.7 112.7,9.3 C112.6,8.9 112.8,8.7 113.2,8.7 L117.3,8.3 C117.3,8.1 117.3,8 117.3,7.9 C117.3,7.8 117.3,7.4 117.3,6.8 C117.3,6.2 117.3,5.3 117.3,4.2 L117.3,2.5 L117.2,1.4 C117.2,1.3 117.3,1.3 117.3,1.2 L117.7,1.3 L120.3,1.9 C120.4,1.9 120.5,2 120.6,2 C120.7,2 120.7,2.1 120.8,2.2 C120.9,2.3 120.7,2.5 120.4,2.8 L119.9,3.3 C119.8,4.7 119.8,5.5 119.8,5.8 L119.7,7.9 L121.8,7.8 L122.6,7.7 L123.3,6.3 L123.5,6 C123.6,5.8 123.8,5.9 124.1,6.1 L125.7,7.6 C125.9,7.8 126,8 126.1,8.1 C126.2,8.2 126.2,8.3 126.2,8.3 C126.2,8.4 126.1,8.5 125.9,8.8 L125.2,9.7 C125.1,10.5 125,11.2 125,11.7 C125,12.2 125,12.8 125,13.6 C125,15.6 125.1,16.9 125.4,17.5 C125.7,18.1 126,18.5 126.2,18.7 C126.5,18.9 126.7,19 126.9,19 C127,19 127.1,18.9 127.2,18.6 C127.4,18.3 127.6,17.8 127.8,17.1 L128.5,14.9 C128.5,14.7 128.6,14.7 128.7,14.7 C128.8,14.7 128.9,14.8 128.9,14.8 C128.9,14.8 129,15 129,15 C129,15 129,15.1 129,15.2 L128.6,17.8 C128.5,18.2 128.5,18.6 128.5,19.1 C128.5,19.6 128.6,20 128.7,20.4 L129.1,21.4 C129.2,21.7 129.2,22 129.2,22.3 C129.2,23.1 128.8,23.6 128.1,23.6 C127.6,23.6 127,23.4 126.2,22.9 C125.4,22.4 124.8,21.8 124.2,21 C123.6,20.2 123.2,19.3 123,18.2 C122.8,17.1 122.7,15.6 122.7,13.7 C122.7,12.8 122.7,12 122.7,11.4 C122.7,10.8 122.8,9.9 122.8,8.8 L119.8,9.5 Z" id="Shape"></path>
            </g>
            <g id="Group">
                <path d="M4.9,7 C4.3,7.8 3.7,8.4 3.2,9 C2.7,9.5 2.2,9.9 1.9,10.2 C1.6,10.4 1.4,10.6 1.4,10.6 L1.1,10.8 C1.1,10.8 1,10.9 1,10.9 C1,10.9 0.9,10.9 0.9,10.9 C0.9,10.9 0.9,10.9 0.9,10.8 C0.9,10.8 0.9,10.7 1,10.7 L1.2,10.4 C1.8,9.6 2.3,8.9 2.9,8 C3.5,7.1 4,6.2 4.7,4.9 C5.3,3.7 5.7,2.7 6,2 L6.2,1.6 L6.3,1.2 C6.3,1.2 6.3,1.2 6.3,1.2 L6.6,1.4 L8.1,2.3 C8.2,2.3 8.2,2.4 8.2,2.4 C8.2,2.4 8.2,2.5 8.2,2.5 C8.2,2.6 8.2,2.6 8.1,2.7 L7.6,2.9 L7.6,3 C8.1,4.2 8.6,5.1 9.1,5.7 C9.6,6.3 10.1,6.7 10.4,7 C10.8,7.3 11.2,7.6 11.6,7.9 C12,8.2 12.5,8.4 12.9,8.5 L13.3,8.6 L13.6,8.7 C13.7,8.7 13.7,8.8 13.7,8.8 C13.7,8.8 13.7,8.9 13.7,8.9 C13.7,9 13.7,9 13.6,9 L13.4,9.1 C13.2,9.2 13,9.3 12.9,9.4 C12.8,9.5 12.7,9.6 12.5,9.8 C12.4,10 12.3,10.1 12.2,10.3 C12.2,10.5 12.1,10.5 12.1,10.6 C12.1,10.6 12.1,10.7 12,10.6 C11.9,10.6 11.5,10.3 10.7,9.7 C10,9.1 9.4,8.5 8.9,7.8 C8.8,7.2 8.4,6.5 8.1,5.8 C7.8,5.2 7.6,4.6 7.5,4 L7.3,3.3 C6.3,5 5.5,6.2 4.9,7 Z M8,9.9 C8,9.9 7.9,10 7.9,10.1 C7.9,10.2 7.8,10.3 7.7,10.3 L7.7,13.2 L9,13.2 L9.5,12.3 C9.6,12.1 9.7,12 9.7,12 C9.7,12 9.8,12.1 10,12.3 L10.9,13.3 C11,13.4 11.1,13.5 11,13.6 C11,13.7 10.9,13.7 10.8,13.7 L7.7,13.7 L7.7,17.3 L10.7,17.3 L11.4,16.3 L11.5,16.1 C11.6,16 11.6,15.9 11.6,15.9 C11.6,15.9 11.7,16 11.9,16.2 L12.9,17.3 C13,17.4 13,17.5 13,17.5 C13,17.5 13,17.6 13,17.6 C13,17.7 12.9,17.7 12.8,17.7 L12.1,17.7 L1.6,17.7 C1.5,17.7 1.4,17.6 1.4,17.4 C1.4,17.2 1.5,17.1 1.6,17.1 L6.4,17.1 L6.4,13.5 L3.4,13.5 L3.3,13.5 C3.3,13.5 3.2,13.5 3.2,13.4 C3.2,13.4 3.2,13.3 3.2,13.1 C3.2,13 3.2,12.9 3.3,12.9 L6.3,12.9 L6.3,9.9 L3.3,9.9 C3.2,9.9 3.1,9.8 3.1,9.6 C3.1,9.4 3.1,9.3 3.3,9.3 L8.2,9.3 L8.7,8.5 C8.9,8.4 9,8.3 9,8.3 C9,8.3 9.1,8.4 9.3,8.5 L10.2,9.5 C10.3,9.6 10.3,9.7 10.3,9.8 C10.3,9.9 10.2,9.9 10.1,9.9 L9.2,9.9 L8,9.9 Z" id="Shape"></path>
                <path d="M20,3.8 L20.3,3.1 C20.4,2.8 20.5,2.7 20.5,2.7 C20.5,2.7 20.6,2.8 20.8,3 L21.4,3.8 C21.5,4 21.6,4.1 21.6,4.1 C21.6,4.1 21.6,4.2 21.5,4.2 C21.5,4.2 21.4,4.2 21.4,4.2 L20.2,4.2 L19.5,4.2 L20.6,5 C20.7,5.1 20.8,5.1 20.8,5.2 C20.8,5.2 20.8,5.3 20.8,5.3 C20.8,5.3 20.7,5.4 20.6,5.4 L20.2,5.6 C19.8,6.6 19.5,7.3 19.2,7.8 L20,7.8 L20.4,7.1 C20.7,7.1 20.7,7 20.8,7 C20.8,7 20.8,7 20.9,7 C20.9,7 21,7.1 21.1,7.2 L21.6,8 C21.7,8.2 21.8,8.3 21.8,8.4 C21.8,8.4 21.8,8.5 21.7,8.5 C21.7,8.5 21.6,8.6 21.5,8.6 L19.3,8.6 C19.3,8.6 19.2,8.7 19.2,8.7 C19.2,8.7 19.1,8.8 19,8.9 L19,10.9 L19.6,10.9 L20,10.1 C20.1,10 20.1,9.9 20.2,9.9 C20.2,9.9 20.3,10 20.5,10.2 L21.2,11.1 C21.3,11.2 21.3,11.2 21.3,11.3 C21.3,11.3 21.3,11.4 21.3,11.4 C21.3,11.4 21.2,11.4 21.2,11.4 L19,11.4 L19,16.6 C19,16.9 19,17.1 18.9,17.3 C18.8,17.5 18.7,17.6 18.6,17.7 C18.5,17.8 18.3,17.9 18.1,18 C17.9,18 17.8,18 17.7,18 C17.7,18 17.7,18 17.6,18 C17.6,18 17.6,18 17.6,17.9 C17.6,17.8 17.6,17.8 17.6,17.7 C17.6,17.6 17.6,17.4 17.5,17.2 C17.5,17 17.3,16.8 17.1,16.6 L16.7,16.4 C16.6,16.3 16.6,16.3 16.6,16.2 C16.6,16.1 16.6,16.1 16.8,16.1 L17.2,16.2 C17.3,16.2 17.4,16.2 17.5,16.2 C17.6,16.2 17.6,16.2 17.7,16.2 L17.9,16.2 C18.1,16.2 18.2,16.2 18.2,16 L18.2,11.4 L15.7,11.4 L15.6,11.4 C15.5,11.3 15.5,11.2 15.5,11.1 C15.5,11 15.6,10.9 15.7,10.9 L18,10.9 L18,8.5 L15.3,8.5 L15.2,8.5 C15.2,8.5 15.1,8.5 15.1,8.4 C15.1,8.3 15.1,8.3 15.1,8.2 C15.1,8.1 15.1,8 15.3,8 L18.9,8 C19,7.6 19.1,7 19.2,6.3 C19.3,5.6 19.4,5.1 19.4,4.9 L19.5,4.4 L15.5,4.4 C15.4,4.4 15.3,4.3 15.3,4.1 C15.3,3.9 15.3,3.8 15.5,3.8 L20,3.8 Z M17.3,13.1 C17.1,13.7 16.9,14 16.8,14.2 C16.7,14.4 16.5,14.8 16.2,15.4 C15.9,16 15.7,16.4 15.6,16.5 L15.3,17 C15.2,17.1 15.2,17.1 15.2,17.1 C15.2,17.1 15.2,17.1 15.2,17.1 C15.2,17.1 15.2,17.1 15.2,17 C15.2,16.9 15.2,16.9 15.2,16.8 L15.4,16.4 C15.4,16.3 15.5,16.1 15.6,15.8 C15.7,15.4 15.8,15.2 15.8,15.1 C15.8,15 15.9,14.7 16,14.2 C16.1,13.7 16.2,13.3 16.2,13.1 L16.3,12.5 L16.3,12 C16.3,12 16.3,12 16.3,11.9 L16.5,12 L17.5,12.6 C17.6,12.7 17.7,12.7 17.7,12.8 C17.7,12.8 17.7,12.8 17.7,12.9 C17.7,13 17.7,13 17.6,13 L17.3,13.1 Z M16.6,5.4 L16.5,5.1 C16.5,5.1 16.5,5.1 16.5,5 C16.5,5 16.5,4.9 16.5,4.9 C16.5,4.8 16.5,4.8 16.6,4.8 C16.7,4.8 16.9,5 17.3,5.4 C17.7,5.8 18,6.3 17.9,6.9 C17.9,7.1 17.8,7.4 17.7,7.6 C17.6,7.8 17.4,7.9 17.2,7.9 C16.9,7.9 16.8,7.8 16.7,7.6 C16.6,7.4 16.7,7.1 16.7,6.9 C16.7,6.7 16.7,6.5 16.7,6.4 C16.7,6 16.7,5.6 16.6,5.4 Z M17.3,1.4 L17.1,1.2 C17.1,1.2 17.1,1.1 17.1,1.1 C17.1,1.1 17.1,1 17.1,1 C17.1,1 17.1,0.9 17.2,0.9 C17.2,0.9 17.4,0.9 17.6,1 C17.8,1.1 18.1,1.2 18.4,1.4 C18.7,1.6 18.9,1.8 18.9,2.2 C18.9,2.5 19,2.7 19,2.8 C19,2.9 19,2.9 19,3 C19,3.2 18.9,3.3 18.8,3.5 C18.7,3.7 18.5,3.8 18.3,3.8 C18.1,3.8 17.9,3.7 17.8,3.6 C17.7,3.4 17.7,3.3 17.6,3.1 L17.5,2.5 C17.5,2.3 17.5,2.2 17.4,2.1 C17.6,1.8 17.5,1.6 17.3,1.4 Z M25.8,7.6 L26.1,6.9 C26.2,6.6 26.3,6.5 26.3,6.5 C26.3,6.5 26.3,6.5 26.4,6.5 C26.4,6.5 26.5,6.6 26.7,6.9 L27.4,7.8 C27.5,7.9 27.5,8 27.5,8 C27.5,8 27.5,8.1 27.5,8.1 C27.5,8.2 27.5,8.3 27.4,8.3 L25.9,8.3 C25.8,8.4 25.8,8.5 25.8,8.5 C25.8,8.5 25.7,8.6 25.7,8.6 L25.7,17 L25.7,18.2 C25.6,18.4 25.5,18.6 25.4,18.7 C25.2,18.8 25.1,18.8 24.9,18.8 C24.7,18.8 24.6,18.8 24.6,18.7 C24.6,18.6 24.5,18.5 24.5,18.4 L24.6,16.4 L24.6,8.2 L23.3,8.2 C23.3,9.1 23.3,9.8 23.2,10.5 C23.2,11.1 23.1,11.7 23.1,12.3 C23.1,12.9 22.9,13.5 22.7,14.2 C22.5,14.9 22.2,15.6 21.7,16.2 C21.3,16.8 20.9,17.2 20.7,17.5 C20.4,17.8 20.2,18 20.1,18.1 L19.8,18.3 C19.7,18.3 19.7,18.4 19.7,18.4 C19.7,18.4 19.6,18.4 19.6,18.4 C19.6,18.4 19.6,18.4 19.6,18.3 C19.6,18.3 19.6,18.3 19.6,18.2 C19.6,18.1 19.6,18.1 19.7,18.1 L20,17.8 C20.6,17.1 21.1,16.3 21.5,15.5 C21.9,14.7 22.1,13.8 22.2,12.9 C22.3,12 22.4,11.2 22.4,10.4 C22.4,9.6 22.4,8.7 22.4,7.6 C22.4,6.9 22.4,6.2 22.4,5.5 C22.4,4.8 22.4,4.4 22.4,4.4 L22.4,3.9 L22.3,2.5 C22.3,2.5 22.3,2.5 22.3,2.5 C22.3,2.5 22.4,2.6 22.6,2.7 L23.6,3.4 C24.4,3 25,2.5 25.5,2.1 L25.8,1.8 L26,1.5 C26,1.5 26.1,1.5 26.1,1.5 L26,1.8 L26.8,2.7 C27,2.9 27,3 27,3 C27,3.1 27,3.1 26.9,3.1 L26.5,3.2 L24.7,3.6 L23.2,3.8 C23.2,4.5 23.2,5.1 23.2,5.4 L23.2,6.5 L23.2,7.6 L25.8,7.6 Z M19.7,12.9 L19.6,12.7 C19.5,12.6 19.5,12.5 19.5,12.4 C19.5,12.3 19.5,12.3 19.5,12.3 C19.5,12.3 19.5,12.3 19.5,12.3 C19.6,12.3 19.8,12.4 20.1,12.7 C20.4,13 20.7,13.3 20.8,13.5 C21,13.8 21,14.1 21,14.4 C21,14.6 20.9,14.8 20.8,15 C20.7,15.2 20.5,15.3 20.3,15.3 C20.1,15.3 19.9,15.2 19.9,15 C20,14.9 20,14.7 20,14.5 L20,13.9 C19.9,13.5 19.8,13.2 19.7,12.9 Z" id="Shape"></path>
                <path d="M31.1,6.1 L29.1,6.1 C29,6.1 28.9,6 28.9,5.8 C28.9,5.6 29,5.5 29.1,5.5 L31.1,5.5 L31.1,2.5 L31.1,0.9 C31.1,0.9 31.1,0.9 31.2,0.9 C31.2,0.9 31.3,0.9 31.4,1 L32.6,1.5 C32.7,1.6 32.7,1.7 32.6,1.8 L32.2,2.2 L32.2,5.5 L32.5,5.5 L32.8,5 C32.9,4.9 32.9,4.8 33,4.8 C33.1,4.8 33.2,4.9 33.4,5.2 L33.8,5.7 C33.9,5.8 34,6 33.9,6 C33.9,6.1 33.8,6.1 33.7,6.1 L32,6.1 L32,8.5 C32.8,8.8 33.3,9.1 33.5,9.5 C33.6,9.9 33.7,10.2 33.7,10.4 L33.7,10.5 L34.3,10.5 C34.3,10.4 34.3,10.3 34.3,10.3 L34.4,9 C34.4,8.3 34.5,7.8 34.5,7.4 L34.5,6.4 C34.3,6.8 34.1,7.1 33.9,7.5 L33.6,8 C33.5,8.1 33.5,8.2 33.4,8.2 C33.4,8.2 33.4,8.1 33.4,7.9 L33.6,7.3 C33.8,6.8 33.9,6.2 34.1,5.5 C34.3,4.8 34.4,4.4 34.5,4 L34.7,3 C34.8,2.5 34.9,2.2 34.9,2 L35,1.2 L35,0.9 C35,0.9 35,0.9 35.1,0.9 L35.4,1.1 L36.6,2 C36.7,2.1 36.7,2.1 36.8,2.2 C36.8,2.3 36.8,2.4 36.6,2.4 L36.4,2.5 L35.7,4.1 L39.4,4.1 L39.8,3.2 C39.8,3.1 39.9,3 39.9,3 C39.9,3 40,3 40,3.1 L41,4.2 C41.1,4.3 41.1,4.4 41.1,4.4 C41.1,4.5 41.1,4.5 41,4.5 L40.4,4.5 L35.5,4.5 L34.8,5.9 L35.8,6.6 L38.8,6.6 L39.1,5.9 C39.2,6 39.2,6 39.3,5.9 C39.3,5.9 39.4,5.9 39.5,6 L40.4,6.8 C40.4,7 40.4,7 40.4,7.1 C40.4,7.2 40.4,7.2 40.3,7.3 L40,7.6 L39.9,10.6 L40,10.6 L40.3,10 C40.4,9.8 40.5,9.7 40.5,9.7 C40.5,9.7 40.6,9.7 40.7,9.9 L41.4,10.7 C41.5,10.8 41.5,10.9 41.5,11 C41.5,11.1 41.5,11.1 41.4,11.1 L40.5,11.1 L39.9,11.1 C39.9,11.3 39.9,11.6 39.9,12.1 C39.9,12.6 39.9,13.1 39.9,13.5 L39.8,14.6 L39.8,14.8 L39.9,14.8 L40.2,14.1 C40.3,14 40.3,13.9 40.3,13.9 C40.3,13.9 40.4,13.9 40.5,14.1 L41.1,14.8 C41.3,15 41.4,15.1 41.3,15.2 C41.3,15.3 41.2,15.3 41.2,15.3 L40.1,15.3 L39.7,15.3 C39.7,15.5 39.7,15.6 39.7,15.7 C39.7,15.8 39.7,15.9 39.7,16.1 C39.7,16.2 39.6,16.5 39.6,16.8 C39.5,17.1 39.4,17.4 39.3,17.6 C39.2,17.8 39,18 38.8,18.2 C38.6,18.4 38.3,18.5 38,18.6 C37.9,18.6 37.9,18.6 37.8,18.6 C37.8,18.6 37.8,18.5 37.7,18.3 C37.7,18.1 37.6,17.9 37.5,17.8 C37.4,17.7 37.3,17.5 37.3,17.5 C37.2,17.4 37.1,17.4 37,17.3 L36.6,17.1 C36.6,17.1 36.5,17.1 36.5,17 C36.5,17 36.5,16.9 36.5,16.9 C36.5,16.9 36.6,16.8 36.6,16.8 L37,16.9 C37.6,17 38,17 38.2,16.8 C38.4,16.6 38.5,16.3 38.5,16 L38.5,15.7 L38.5,15.4 L35,15.4 L34.7,15.8 C34.6,16 34.6,16 34.5,16 C34.5,16 34.4,16 34.3,15.9 L33.7,15.3 C33.5,15.1 33.5,15 33.5,15 C33.5,15 33.5,14.9 33.5,14.9 L33.7,14.7 L33.9,14.5 C34,13.8 34,13.3 34.1,12.8 C34.1,12.4 34.2,11.8 34.2,11.2 L33.4,11.2 C33.2,11.4 33.1,11.4 32.9,11.4 C32.7,11.4 32.6,11.3 32.5,11.2 C32.4,11.1 32.4,11 32.4,10.8 C32.4,10.7 32.4,10.5 32.4,10.2 C32.4,9.9 32.4,9.7 32.3,9.5 C32.3,9.3 32.2,9.2 32.1,9.1 L31.9,8.9 L31.9,15.8 L32,17.9 C32,18 32,18.1 31.9,18.1 C31.8,18.1 31.8,18.2 31.7,18.3 C31.6,18.4 31.4,18.4 31.2,18.4 C31,18.4 30.9,18.4 30.8,18.3 C30.8,18.2 30.7,18.1 30.7,18 L30.8,16.1 L30.8,11 C30.6,11.3 30.5,11.7 30.2,12.1 C29.9,12.5 29.8,12.9 29.6,13.3 C29.4,13.6 29.3,13.8 29.2,14 C29.1,14.2 29.1,14.2 29.1,14.2 L28.9,14.5 C28.8,14.6 28.8,14.6 28.7,14.6 C28.6,14.6 28.7,14.5 28.7,14.4 L28.9,13.8 C29.4,12.5 29.8,11.1 30.1,9.7 C30.7,8.3 30.9,7.1 31.1,6.1 Z M35.1,14.8 L38.6,14.8 C38.6,14.7 38.6,14.6 38.6,14.5 C38.6,14.3 38.6,14 38.7,13.5 L38.7,12.4 L38.7,11.3 L35.3,11.3 L35.1,14.8 Z M35.5,10.6 L38.9,10.6 C38.9,10.4 38.9,10.3 38.9,10.2 C38.9,10.1 38.9,9.9 38.9,9.6 C38.9,9.3 38.9,8.9 38.9,8.4 C38.9,8 38.9,7.7 38.9,7.6 L38.9,7.4 L35.7,7.4 L35.5,10.6 Z M36.3,11.8 C36.3,11.7 36.4,11.6 36.5,11.7 C37.1,12.1 37.4,12.4 37.6,12.8 C37.7,13.1 37.8,13.4 37.7,13.7 C37.7,13.9 37.6,14.1 37.5,14.2 C37.4,14.3 37.3,14.4 37.1,14.4 C36.9,14.4 36.8,14.3 36.7,14.1 C36.7,14 36.6,13.9 36.6,13.8 C36.6,13.7 36.6,13.5 36.6,13.2 C36.6,12.9 36.6,12.7 36.6,12.6 C36.6,12.5 36.5,12.3 36.4,12.1 C36.3,11.9 36.3,11.8 36.3,11.8 Z M36.4,7.7 C36.4,7.6 36.6,7.7 36.7,7.8 C36.9,7.9 37.1,8 37.2,8.1 C37.3,8.2 37.5,8.4 37.6,8.5 C37.7,8.7 37.8,8.9 37.8,9.1 C37.8,9.3 37.8,9.6 37.7,9.8 C37.6,10 37.4,10.1 37.2,10.1 C37,10.1 36.9,10 36.8,9.8 C36.7,9.7 36.7,9.5 36.7,9.3 L36.7,8.8 C36.7,8.4 36.6,8.2 36.5,8 C36.4,7.8 36.3,7.7 36.3,7.6 C36.4,7.7 36.4,7.7 36.4,7.7 Z" id="Shape"></path>
                <path d="M51.8,5.4 L52,5 C52.1,4.8 52.2,4.7 52.3,4.7 L52.5,5 L53.1,5.6 C53.1,5.6 53.2,5.7 53.2,5.8 C53.2,5.9 53.2,5.9 53.1,5.9 L51.3,5.9 L51.3,7 L52,7 L52.3,6.6 C52.4,6.5 52.4,6.4 52.5,6.4 C52.5,6.4 52.6,6.5 52.7,6.6 L53,7.1 C53.1,7.2 53.1,7.3 53.1,7.4 C53.1,7.5 53.1,7.5 53,7.5 L51.2,7.5 L51.2,8.7 L53.2,8.7 L53.6,8 C53.7,7.8 53.8,7.7 53.8,7.7 C53.8,7.7 54,7.8 54.1,8 L54.8,8.7 C55,8.9 55,9 55,9.1 C55,9.1 55,9.2 55,9.2 C55,9.2 54.9,9.2 54.9,9.2 L54,9.2 L51.4,9.2 C51.4,9.3 51.6,9.4 51.7,9.6 C51.9,9.8 52.2,10.2 52.8,10.6 C53.4,11 54.1,11.3 55,11.4 L55.5,11.4 C55.5,11.4 55.6,11.4 55.6,11.5 C55.6,11.5 55.6,11.6 55.6,11.6 C55.6,11.6 55.6,11.6 55.6,11.7 C55.6,11.7 55.6,11.8 55.6,11.8 L55.4,11.9 C55.1,12.1 54.8,12.4 54.7,12.7 C54.5,13 54.4,13.2 54.4,13.2 C54.1,13.2 53.5,12.7 52.6,11.8 L52.4,12 L52.4,13.5 L52.5,15.1 C52.5,15.2 52.5,15.2 52.4,15.3 C52.4,15.3 52.3,15.4 52.2,15.4 C52.1,15.4 52,15.6 52,15.6 C52,15.6 51.9,15.6 51.7,15.6 C51.5,15.6 51.4,15.6 51.4,15.5 C51.4,15.4 51.3,15.3 51.3,15.2 L51.3,11.3 L47,11.3 L47,15.6 C47,15.7 46.9,15.8 46.8,15.9 C46.7,16 46.5,16.1 46.2,16.1 C46.1,16.1 46,16.1 46,16 C46,16 45.9,15.9 45.9,15.8 L45.9,14.1 L45.9,11.6 C45,12.3 44.3,12.8 43.7,13.1 L43.2,13.4 C43,13.5 42.9,13.6 42.8,13.6 C42.7,13.6 42.7,13.6 42.7,13.6 C42.7,13.6 42.7,13.5 42.7,13.5 C42.7,13.4 42.7,13.3 42.8,13.3 L43.1,13 L43.5,12.6 C44,12.2 44.5,11.7 45,11 C45.5,10.3 45.9,9.9 46,9.6 C46.1,9.4 46.2,9.2 46.3,9.1 L43.2,9.1 C43.1,9.1 43,9 43,8.8 C43,8.6 43,8.5 43.2,8.5 L46.6,8.5 L46.6,7.5 L45.1,7.5 L45,7.5 C45,7.5 44.9,7.5 44.9,7.4 C44.9,7.4 44.9,7.3 44.9,7.2 C45,7.1 45.1,7 45.2,7 L46.8,7 L46.8,5.9 L45.3,5.9 L45.2,5.9 C45.2,5.9 45.1,5.9 45.1,5.8 C45.1,5.8 45.1,5.7 45.1,5.6 C45.1,5.5 45.2,5.4 45.2,5.4 L46.8,5.4 L46.8,5.2 L46.8,3.9 L46.8,3.8 L45.1,3.8 C45.1,3.9 45.1,4 45.1,4.1 C45.1,4.2 45.1,4.3 45.1,4.5 C45.1,4.7 45.1,4.9 45,5.2 C45,5.5 44.9,5.8 44.7,6 C44.5,6.3 44.3,6.4 44.1,6.4 C43.9,6.4 43.7,6.3 43.5,6.1 C43.4,5.9 43.3,5.7 43.3,5.4 C43.3,5.1 43.4,4.9 43.5,4.6 C43.5,4.6 43.7,4.4 43.9,4.2 C44.2,3.9 44.3,3.6 44.4,3.2 L44.5,2.8 C44.5,2.7 44.5,2.7 44.6,2.6 C44.6,2.6 44.7,2.7 44.7,2.8 L45,3.1 L45,3.3 L49.1,3.3 C48.9,3.2 48.8,3.2 48.8,3.1 C48.8,3 48.7,2.9 48.6,2.8 C48.6,2.7 48.5,2.5 48.4,2.1 C48.3,1.7 48.2,1.4 48,1.2 L47.9,1 C47.8,0.9 47.8,0.9 47.8,0.8 C47.8,0.7 47.9,0.7 48,0.7 C48.4,0.7 48.8,0.8 49.2,1 C49.7,1.2 49.9,1.5 49.9,1.9 C49.9,2.3 49.9,2.5 49.8,2.7 C49.7,2.9 49.6,3 49.6,3.1 L49.3,3.3 L53.3,3.3 L53.6,2.8 C53.7,2.6 53.8,2.5 53.8,2.5 C53.8,2.5 54,2.6 54.1,2.8 L54.9,3.8 C55.1,4 55.2,4.2 55.2,4.3 C55.2,4.4 55,4.5 54.8,4.5 C54.5,4.5 54.3,4.6 54.1,4.6 C53.9,4.7 53.7,4.8 53.5,4.9 L53.2,5.2 C53,5.5 53,5.5 53,5.4 C53,5.3 53,5.2 53,5.2 L53.3,3.9 L47,3.9 L47.9,4.2 C48.1,4.3 48.2,4.3 48.2,4.3 C48.2,4.3 48.2,4.4 48.2,4.4 C48.2,4.4 48.2,4.5 48,4.6 L47.8,4.9 L47.8,5.4 L50.2,5.4 L50.2,5 C50.2,4.6 50.2,4.3 50.2,4.2 C50.2,4.1 50.2,4.1 50.2,4.1 L50.4,4.1 L51.4,4.3 C51.5,4.3 51.6,4.4 51.6,4.4 C51.6,4.4 51.6,4.5 51.6,4.5 C51.6,4.5 51.6,4.5 51.6,4.6 C51.6,4.7 51.5,4.7 51.5,4.7 L51.2,4.9 L51.2,5.4 L51.8,5.4 Z M49.7,12.8 C49.7,13.2 49.6,13.7 49.6,14.3 C49.6,14.9 49.4,15.5 49.2,16 C49,16.5 48.7,16.9 48.3,17.2 C48,17.5 47.5,17.8 47,18 C46.5,18.2 45.9,18.4 45.2,18.6 L44.6,18.7 C44.5,18.7 44.5,18.7 44.4,18.7 C44.3,18.7 44.3,18.7 44.3,18.7 C44.3,18.7 44.3,18.6 44.3,18.6 C44.3,18.5 44.3,18.5 44.4,18.5 L44.7,18.4 L45.1,18.3 C45.7,18.1 46.2,17.9 46.6,17.6 C47,17.3 47.4,17.1 47.7,16.8 C48,16.5 48.2,16.2 48.3,15.7 C48.5,15.2 48.5,14.8 48.6,14.3 C48.7,13.8 48.7,13.4 48.7,13 L48.7,11.9 C48.7,11.9 48.7,11.8 48.7,11.8 C48.7,11.8 48.7,11.8 48.8,11.8 L50,12.2 C50.1,12.2 50.2,12.3 50.2,12.3 C50.2,12.3 50.3,12.4 50.3,12.4 C50.3,12.4 50.3,12.5 50.2,12.6 L49.7,12.8 Z M51.2,10.8 C51.2,10.7 51.3,10.6 51.4,10.5 C51.5,10.4 51.5,10.5 51.6,10.6 C51.4,10.1 51.2,9.6 51.2,9.2 L47.8,9.2 L48,9.4 C48.1,9.5 48.1,9.5 48.1,9.5 C48.1,9.5 48.1,9.6 48.1,9.6 C48.1,9.6 48.1,9.7 48,9.7 L47.8,10 L47,10.8 L51.2,10.8 Z M50.2,7 L50.2,5.9 L47.8,5.9 L47.8,7 L50.2,7 Z M50.2,8.7 L50.2,7.5 L47.8,7.5 L47.8,8.7 L50.2,8.7 Z M49.6,15.7 C49.6,15.6 49.7,15.6 49.8,15.6 C49.8,15.6 49.9,15.6 50,15.6 C50.1,15.6 50.4,15.7 50.8,15.7 C51.2,15.7 51.8,15.9 52.4,16.1 C53,16.4 53.5,16.6 53.6,17 C53.8,17.3 53.9,17.6 53.9,17.9 C53.9,18.2 53.9,18.4 53.8,18.6 C53.7,18.8 53.6,18.9 53.4,18.9 C53.2,18.9 53,18.8 52.7,18.5 C52.7,18.5 52.4,18.2 52.1,17.6 C51.7,17.1 51.3,16.7 51,16.5 C50.6,16.3 50.4,16.1 50.2,16 L49.8,15.8 C49.6,15.8 49.6,15.8 49.6,15.7 Z" id="Shape"></path>
                <path d="M59.7,8.7 L59.9,8.9 C60,9 60.1,9.1 60.1,9.1 C60.1,9.1 60.1,9.1 60.1,9.2 C60.1,9.2 60.1,9.2 60.1,9.3 C60.1,9.3 60.1,9.4 60,9.5 L59.8,9.8 L59.8,16.5 L59.8,18.2 C59.7,18.6 59.5,18.7 59.3,18.7 C59,18.7 58.9,18.7 58.8,18.6 C58.8,18.6 58.7,18.5 58.7,18.4 L58.8,16.4 L58.8,10.1 C58.7,10.3 58.5,10.6 58.2,11 C57.9,11.4 57.8,11.6 57.7,11.7 L57.5,12 C57.3,12.3 57.1,12.4 57,12.4 C57,12.4 56.9,12.4 56.9,12.4 C56.9,12.4 56.9,12.4 56.9,12.3 C56.9,12.2 56.9,12.3 56.9,12.2 C56.9,12.2 56.9,12.1 57,12.1 L57.2,11.8 L57.6,11.1 C57.8,10.7 58,10.3 58.1,9.9 C58.2,9.6 58.4,9.1 58.7,8.4 C59,7.7 59.1,7.3 59.2,7 C59.3,6.7 59.4,6.5 59.4,6.2 L59.6,5.4 C59.6,5.4 59.6,5.3 59.6,5.3 C59.6,5.3 59.7,5.3 59.8,5.4 L60.8,6.2 C60.9,6.3 61,6.3 61,6.3 C61,6.3 61.1,6.4 61.1,6.5 C61.1,6.6 61,6.6 60.9,6.7 L60.6,6.9 L59.7,8.7 Z M60.7,2.5 C60.2,3.3 59.7,4 59.3,4.6 C58.9,5.2 58.4,5.8 57.8,6.4 L57.5,6.8 C57.3,7 57.2,7.1 57.2,7.1 C57.2,7.1 57.2,7.1 57.1,7.1 C57.1,7.1 57.1,7.1 57.1,7 C57.1,7 57.1,6.9 57.1,6.8 L57.3,6.4 L57.6,5.8 C57.9,5.3 58.2,4.6 58.6,3.8 C59,2.9 59.2,2.2 59.4,1.6 L59.6,1 C59.6,0.9 59.6,0.9 59.7,0.9 C59.7,0.9 59.8,0.9 59.8,1 L60.9,1.8 C61,2 61.1,2.1 61.1,2.1 C61.1,2.1 61.1,2.2 61.1,2.2 C61.1,2.2 61,2.3 60.9,2.3 L60.7,2.5 Z M61.5,13.4 C61.6,13.5 61.6,13.7 61.7,14 C61.8,14.3 61.8,14.6 61.8,14.8 C61.8,15 61.8,15.2 61.8,15.4 C61.8,15.9 61.7,16.4 61.5,16.8 C61.3,17.2 61.1,17.4 60.8,17.4 C60.6,17.4 60.4,17.3 60.3,17.1 C60.2,16.9 60.2,16.7 60.1,16.5 C60.1,16.3 60.2,16 60.4,15.7 L60.7,15.3 C60.8,15.1 60.9,14.9 61,14.7 C61.1,14.5 61.1,14.3 61.2,13.9 L61.3,13.5 C61.4,13.4 61.4,13.3 61.5,13.4 Z M67.9,11.3 L68.3,10.6 C68.4,10.4 68.5,10.3 68.5,10.3 C68.5,10.3 68.7,10.4 68.8,10.6 L69.4,11.3 C69.5,11.5 69.6,11.6 69.6,11.7 C69.6,11.8 69.6,11.8 69.5,11.8 L60.5,11.8 C60.4,11.8 60.4,11.8 60.3,11.7 C60.3,11.7 60.2,11.6 60.2,11.4 C60.2,11.3 60.3,11.2 60.4,11.2 L67.9,11.2 L67.9,11.3 Z M61,4 C60.9,4 60.9,4 60.8,3.9 C60.8,3.9 60.7,3.8 60.7,3.6 C60.7,3.5 60.8,3.4 60.9,3.4 L63.9,3.4 L63.9,2.4 L64,1 C64,1 64,0.9 64,0.9 C64,0.9 64.1,0.9 64.2,0.9 L65.3,1.2 C65.4,1.2 65.5,1.3 65.5,1.3 C65.6,1.3 65.6,1.4 65.6,1.4 C65.6,1.4 65.6,1.4 65.6,1.5 C65.6,1.5 65.6,1.5 65.5,1.6 L65.1,2.1 L65.1,3.5 L67.1,3.5 L67.5,2.8 C67.6,2.6 67.7,2.5 67.7,2.4 C67.7,2.4 67.8,2.4 67.8,2.4 C67.8,2.4 68,2.5 68.1,2.7 L68.8,3.5 C68.9,3.7 69,3.8 69,3.9 C69.1,4 69,4.1 69,4.1 L65.2,4.1 L65.1,6.1 L67.2,6.1 L67.5,5.6 C67.6,5.4 67.7,5.4 67.7,5.4 C67.7,5.4 67.8,5.5 68,5.6 L68.5,6.1 C68.6,6.2 68.7,6.3 68.7,6.3 C68.7,6.3 68.7,6.4 68.7,6.4 C68.7,6.4 68.6,6.5 68.5,6.7 L68.3,7 L68.3,8.4 L68.3,9.9 C68.2,10.1 68.1,10.2 67.9,10.3 C67.7,10.4 67.5,10.4 67.5,10.4 C67.4,10.4 67.3,10.3 67.3,10.2 L67.3,9.6 L62.6,9.6 L62.6,10.3 C62.6,10.4 62.5,10.5 62.4,10.6 C62.3,10.7 62.1,10.8 61.7,10.8 C61.6,10.8 61.6,10.8 61.5,10.8 C61.5,10.8 61.4,10.7 61.4,10.6 L61.4,9 L61.4,7.1 L61.4,5.5 C61.4,5.4 61.5,5.4 61.5,5.4 C61.5,5.4 61.6,5.4 61.7,5.5 L62.6,6.1 L64,6.1 L64,4.1 L61,4 Z M63.4,6.6 L62.5,6.6 L62.5,9.1 L63.4,9.1 L63.4,6.6 Z M63.7,13.7 L63.7,16.6 C63.7,16.8 63.8,17 63.9,17 C64,17 64.3,17.1 64.6,17.1 C65.2,17.1 65.7,17.1 66,16.9 C66.3,16.8 66.5,16.6 66.6,16.5 C66.7,16.3 66.8,16 66.9,15.7 L67.2,14.5 C67.2,14.4 67.3,14.3 67.4,14.3 C67.4,14.3 67.5,14.3 67.5,14.4 C67.5,14.4 67.5,14.5 67.5,14.5 C67.5,14.5 67.5,14.6 67.5,14.6 L67.4,15.7 C67.4,15.8 67.4,15.9 67.4,15.9 C67.4,16 67.4,16.1 67.4,16.1 C67.4,16.3 67.5,16.5 67.6,16.6 C67.7,16.7 67.7,16.9 67.8,17 C67.8,17.1 67.8,17.1 67.8,17.2 C67.8,17.6 67.6,17.9 67.2,18.1 C66.8,18.3 66.1,18.4 65.3,18.4 C64.5,18.4 64,18.4 63.6,18.3 C63.2,18.2 63,18 63,17.8 C62.9,17.5 62.9,17.3 62.9,17.2 L62.9,14.2 L62.9,12.6 C62.9,12.6 62.9,12.6 63,12.5 L63.2,12.6 L64.2,13 C64.3,13 64.3,13.1 64.3,13.2 C64.3,13.3 64.2,13.4 64.1,13.5 L63.7,13.7 Z M65.2,6.6 L64.3,6.6 L64.2,6.8 L64.2,9.1 L65.2,9.1 L65.2,6.6 Z M64.3,12.4 C64.3,12.4 64.3,12.3 64.3,12.4 C64.4,12.3 64.5,12.3 64.6,12.4 C64.6,12.4 64.7,12.5 65,12.6 C65.3,12.7 65.5,13 65.7,13.3 C65.9,13.6 66,14 66,14.2 C66,14.5 66,14.7 65.9,14.9 C65.8,15.2 65.6,15.3 65.3,15.3 C65.2,15.3 65,15.3 64.9,15.2 C64.8,15.1 64.7,15 64.7,14.9 C64.7,14.8 64.6,14.5 64.6,14.2 C64.6,13.8 64.6,13.6 64.5,13.4 C64.4,13.2 64.4,13 64.3,12.9 L64.1,12.5 C64.3,12.5 64.3,12.5 64.3,12.4 Z M67.2,6.6 L66.2,6.6 L66.1,6.8 L66.1,9.1 L67.2,9.1 L67.2,6.6 Z M67.4,13.2 C67.4,13.2 67.4,13.1 67.5,13.1 C67.5,13.1 67.7,13.2 68,13.4 C68.3,13.6 68.7,13.9 69.1,14.3 C69.5,14.7 69.7,15.2 69.7,15.8 C69.7,16 69.7,16.2 69.6,16.4 C69.5,16.6 69.4,16.8 69.2,16.9 C69,17 68.8,17 68.6,16.7 C68.5,16.6 68.4,16.4 68.4,16.3 C68.4,16.1 68.3,15.8 68.3,15.4 C68.3,15 68.2,14.7 68.1,14.4 C68,14.1 67.9,13.9 67.7,13.6 L67.5,13.3 C67.4,13.3 67.4,13.2 67.4,13.2 Z" id="Shape"></path>
                <path d="M72.5,12.5 L72.5,4.9 L71.1,4.9 C71,4.9 70.9,4.8 70.9,4.6 C70.9,4.4 70.9,4.3 71.1,4.3 L72.5,4.3 L72.5,2.5 L72.4,0.9 C72.4,0.9 72.4,0.8 72.5,0.8 C72.5,0.8 72.6,0.8 72.8,0.9 L73.7,1.3 C73.8,1.4 73.9,1.4 73.9,1.4 C73.9,1.4 73.9,1.5 73.9,1.5 C73.9,1.5 73.9,1.6 73.8,1.7 L73.6,1.9 L73.6,4.4 L75.4,4.4 L75.4,2.3 L75.4,0.9 C75.4,0.9 75.4,0.8 75.5,0.8 L75.7,1 L76.6,1.3 C76.7,1.3 76.8,1.4 76.8,1.4 C76.8,1.4 76.8,1.5 76.8,1.5 C76.8,1.5 76.8,1.6 76.7,1.6 L76.4,1.9 L76.4,4.4 L76.5,4.4 L77,3.6 C77.1,3.5 77.1,3.4 77.2,3.4 C77.2,3.4 77.3,3.5 77.4,3.7 L78,4.6 C78,4.7 78,4.7 78,4.8 C78,4.8 78,4.9 78,4.9 C78,4.9 78,4.9 78,4.9 C78,4.9 78,5 77.9,5 L76.9,5 L76.4,5 L76.4,12.5 L76.8,11.8 C76.9,11.7 77,11.6 77,11.6 C77,11.6 77.1,11.7 77.2,11.8 L77.8,12.8 C77.9,12.9 77.9,13 77.9,13 C77.9,13 77.8,13.1 77.7,13.1 L71,13.1 L70.9,13.1 C70.8,13.1 70.8,13.1 70.7,13 C70.7,13 70.7,12.9 70.6,12.7 C70.6,12.6 70.7,12.5 70.8,12.5 L72.5,12.5 Z M73.9,14.7 C73.3,15.4 72.8,16.1 72.3,16.6 C71.8,17.1 71.5,17.5 71.4,17.6 L71.1,17.9 C71.1,18 71,18 71,18 C71,18 71,18 71,18 C71,18 71,18 71,17.9 C71,17.8 71,17.8 71.1,17.7 L71.4,17.3 C71.6,16.9 71.9,16.5 72.2,15.8 C72.5,15.2 72.7,14.7 72.9,14.3 L73.1,13.8 L73.2,13.4 C73.2,13.4 73.2,13.4 73.3,13.4 L73.5,13.6 L74.4,14.3 C74.5,14.4 74.5,14.4 74.5,14.4 C74.5,14.4 74.5,14.5 74.5,14.5 C74.5,14.5 74.5,14.6 74.4,14.6 L73.9,14.7 Z M75.4,6.9 L75.4,4.9 L73.6,4.9 L73.6,6.9 L75.4,6.9 Z M75.4,9.7 L75.4,7.4 L73.6,7.4 L73.6,9.7 L75.4,9.7 Z M75.4,12.5 L75.4,10.2 L73.6,10.2 L73.6,12.5 L75.4,12.5 Z M75.1,14.3 L74.9,14 L74.8,13.9 C74.8,13.9 74.8,13.9 74.8,13.8 C74.8,13.7 74.8,13.7 74.9,13.7 C75,13.7 75.3,13.9 75.7,14.2 C76.2,14.5 76.5,14.9 76.6,15.2 C76.8,15.5 76.9,15.8 76.9,16.1 C76.9,16.3 76.9,16.4 76.8,16.5 C76.8,16.6 76.7,16.8 76.6,16.9 C76.5,17 76.4,17.1 76.2,17.1 C76,17.1 75.9,17 75.8,16.8 C75.7,16.6 75.6,16.4 75.6,16.2 L75.5,15.6 C75.5,15.3 75.4,15.1 75.3,14.9 C75.3,14.7 75.2,14.5 75.1,14.3 Z M79.3,7.6 L81.9,7.6 L82.4,6.7 C82.5,6.6 82.6,6.5 82.6,6.5 C82.6,6.5 82.7,6.6 82.8,6.7 L83.6,7.9 C83.6,7.9 83.6,8 83.6,8 C83.6,8.1 83.5,8.1 83.5,8.1 L82.2,8.1 C82.2,8.2 82.1,8.2 82.1,8.3 L82,8.3 L81.9,8.4 L81.9,16.6 L81.9,18 C81.8,18.3 81.7,18.5 81.5,18.6 C81.3,18.7 81.2,18.7 81,18.7 C80.8,18.7 80.7,18.7 80.7,18.6 C80.6,18.5 80.6,18.4 80.6,18.3 L80.7,16.3 L80.7,8.1 L79.2,8.1 C79.2,9.2 79.2,10.1 79.1,10.8 C79,11.5 79,12.2 78.9,12.8 C78.8,13.4 78.7,14 78.5,14.5 C78.3,15 78.1,15.5 77.9,15.9 C77.7,16.3 77.5,16.7 77.2,17 L76.6,17.8 C76.5,18 76.4,18.1 76.3,18.2 L76,18.5 C76,18.6 75.9,18.6 75.9,18.6 C75.9,18.6 75.8,18.6 75.8,18.6 C75.8,18.6 75.8,18.6 75.8,18.5 C75.8,18.4 75.8,18.4 75.9,18.3 L76.2,17.9 C76.5,17.5 76.8,17 77.1,16.4 C77.4,15.9 77.5,15.3 77.7,14.6 C77.9,13.9 77.9,13.3 78,12.8 C78.1,12.3 78.1,11.7 78.1,10.8 C78.1,10 78.1,9.3 78.1,8.6 C78.1,7.9 78.1,7.5 78.1,7.2 C78.1,6.8 78.1,6.5 78.1,6.2 L78.1,4.1 L78.1,3.9 L78,2.4 C78,2.4 78,2.4 78,2.3 L78.2,2.5 L79.4,3.3 C80,3 80.4,2.6 80.8,2.3 C81.2,2 81.4,1.8 81.5,1.6 L81.8,1.2 C81.9,1.1 82,1 82,1 C82,1 82.1,1.1 82.2,1.3 L82.9,2.4 C83,2.5 83,2.6 83,2.7 C83,2.8 82.9,2.8 82.8,2.8 L82.4,2.8 C82.3,2.8 82,2.9 81.6,3 L80.4,3.2 L78.9,3.5 L78.9,7.6 L79.3,7.6 Z" id="Shape"></path>
                <polygon id="Shape" points="93.3 8.8 93.3 10.5 84.9 10.5 84.9 8.8"></polygon>
                <path d="M100.6,10.9 L97.2,10.9 L96.3,14.6 C96.3,14.7 96.2,14.9 96.3,15 C96.4,15.1 96.4,15.3 96.5,15.4 C96.6,15.5 96.8,15.6 97.1,15.6 L97.6,15.6 C97.8,15.6 97.8,15.7 97.8,15.9 C97.8,16.1 97.7,16.2 97.6,16.2 L94.7,16.2 C94.6,16.2 94.5,16.1 94.5,15.9 C94.5,15.7 94.6,15.6 94.7,15.6 L95.1,15.6 C95.2,15.6 95.4,15.6 95.5,15.5 C95.6,15.4 95.7,15.3 95.8,15.2 C95.9,15.1 96,14.9 96,14.6 L99,2.1 C99.1,1.8 99.2,1.7 99.3,1.7 C99.5,1.7 99.6,1.8 99.6,2.1 L102.9,14.6 C103,15 103.1,15.2 103.3,15.4 C103.5,15.6 103.6,15.7 103.8,15.7 L104,15.7 C104.1,15.7 104.2,15.8 104.2,16 C104.2,16.2 104.1,16.3 104,16.3 L100.8,16.3 C100.7,16.3 100.6,16.2 100.6,16 C100.6,15.8 100.7,15.7 100.8,15.7 L101,15.7 C101.3,15.7 101.5,15.7 101.6,15.6 C101.7,15.5 101.7,15.4 101.8,15.3 C101.8,15.2 101.8,15 101.7,14.6 L100.6,10.9 Z M97.3,10.4 L100.4,10.4 L98.7,4.1 L97.3,10.4 Z" id="Shape"></path>
                <path d="M107.7,2 L111,13.7 L114.2,2 L116.7,2 C116.9,2 116.9,2.1 116.9,2.3 C116.9,2.5 116.8,2.6 116.7,2.6 L116.2,2.6 C116,2.6 115.9,2.6 115.8,2.7 C115.7,2.8 115.7,2.8 115.7,2.9 C115.7,3 115.7,3.1 115.7,3.4 L115.7,14.3 C115.7,14.7 115.7,14.9 115.8,15.1 C115.9,15.3 115.9,15.4 116,15.5 C116.1,15.6 116.3,15.6 116.5,15.6 L117,15.6 C117.1,15.6 117.2,15.7 117.2,15.9 C117.2,16.1 117.1,16.2 117,16.2 L113.5,16.2 C113.4,16.2 113.3,16.1 113.3,15.9 C113.3,15.7 113.4,15.6 113.5,15.6 L113.8,15.6 C114,15.6 114.1,15.6 114.2,15.5 C114.3,15.4 114.4,15.3 114.4,15.2 C114.4,15.1 114.5,14.8 114.5,14.5 L114.5,3.2 L111,15.9 C110.9,16.1 110.8,16.2 110.7,16.2 C110.6,16.2 110.5,16.1 110.4,15.8 L107,3.8 L107,14.7 C107,15 107,15.1 107.1,15.2 C107.2,15.3 107.3,15.4 107.4,15.5 C107.6,15.6 107.8,15.6 108,15.6 L108.3,15.6 C108.5,15.6 108.5,15.7 108.5,15.9 C108.5,16.1 108.4,16.2 108.3,16.2 L105.3,16.2 C105.2,16.2 105.1,16.1 105.1,15.9 C105.1,15.7 105.2,15.6 105.3,15.6 L105.7,15.6 C105.9,15.6 106,15.6 106.1,15.5 C106.2,15.4 106.3,15.3 106.4,15.2 C106.5,15.1 106.5,14.9 106.5,14.7 L106.5,4 C106.5,3.6 106.5,3.3 106.4,3.1 C106.4,2.9 106.3,2.8 106.2,2.7 C106.1,2.6 105.9,2.6 105.7,2.6 L105.2,2.6 C105,2.6 105,2.5 105,2.3 C105,2.1 105.1,2 105.2,2 L107.7,2 Z" id="Shape"></path>
                <path d="M123.8,10.4 L123.2,10.4 C123,10.4 123,10.3 123,10.1 C123,9.9 123.1,9.8 123.2,9.8 L126.9,9.8 C127.1,9.8 127.1,9.9 127.1,10.1 C127.1,10.3 127,10.4 126.9,10.4 L126.5,10.4 C126.3,10.4 126.2,10.4 126.1,10.5 C126,10.6 125.9,10.7 125.9,10.8 C125.9,10.9 125.8,11.1 125.8,11.2 L125.8,15.6 C125.8,15.7 125.8,15.8 125.7,15.9 C125.6,15.9 125.6,15.9 125.5,15.8 L125.3,15.6 C125.2,15.5 125,15.4 124.8,15.4 C124.6,15.4 124.4,15.5 124.1,15.6 C123.8,15.8 123.6,15.9 123.3,16 C123,16.1 122.7,16.2 122.3,16.2 C121.9,16.2 121.4,16.1 120.9,15.9 C120.4,15.7 119.9,15.3 119.5,14.7 C119,14.1 118.7,13.5 118.4,12.7 C118.1,11.9 118,11.2 117.9,10.3 C117.8,9.5 117.8,8.6 117.9,7.6 C118,6.6 118.2,5.7 118.4,4.9 C118.7,4.1 119,3.5 119.4,3 C119.8,2.5 120.3,2.1 120.8,1.9 C121.3,1.7 121.8,1.6 122.3,1.6 C122.6,1.6 122.8,1.6 123,1.7 C123.2,1.8 123.4,1.8 123.6,1.9 C123.8,2 124,2.1 124,2.1 C124.2,2.1 124.3,2.1 124.4,2.1 C124.5,2.1 125,2.1 125,2 L125.1,1.8 C125.1,1.7 125.2,1.7 125.3,1.7 C125.4,1.7 125.5,1.8 125.5,2 L126.3,5.1 C126.4,5.4 126.3,5.6 126.2,5.7 C126.1,5.8 126,5.7 125.9,5.5 L125.7,5.1 C125.6,4.8 125.4,4.5 125.2,4.2 C125,3.9 124.8,3.6 124.5,3.3 C124.2,3 123.9,2.8 123.5,2.6 C123.1,2.4 122.7,2.4 122.2,2.6 C121.9,2.7 121.5,2.9 121.2,3.2 C120.9,3.5 120.6,3.9 120.3,4.5 C120,5.1 119.8,5.7 119.7,6.5 C119.6,7.2 119.5,7.9 119.5,8.6 C119.5,9.3 119.5,9.9 119.5,10.4 C119.6,11.4 119.8,12.3 120.1,13.2 C120.4,14 120.8,14.6 121.3,15 C121.8,15.4 122.3,15.6 122.8,15.6 C123.3,15.6 123.8,15.5 124.1,15.2 C124.5,14.9 124.7,14.6 124.8,14.2 C124.9,13.8 125,13.4 125,13.1 L125,11.5 C125,11.2 125,11 124.9,10.9 C124.8,10.7 124.7,10.6 124.6,10.5 C124.3,10.4 124.1,10.4 123.8,10.4 Z" id="Shape"></path>
                <path d="M140.9,10.4 L140.3,10.4 C140.1,10.4 140.1,10.3 140.1,10.1 C140.1,9.9 140.2,9.8 140.3,9.8 L144,9.8 C144.2,9.8 144.2,9.9 144.2,10.1 C144.2,10.3 144.1,10.4 144,10.4 L143.6,10.4 C143.4,10.4 143.3,10.4 143.2,10.5 C143.1,10.6 143,10.7 143,10.8 C143,10.9 142.9,11.1 142.9,11.2 L142.9,15.6 C142.9,15.7 142.9,15.8 142.8,15.9 C142.7,15.9 142.7,15.9 142.6,15.8 L142.4,15.6 C142.3,15.5 142.1,15.4 141.9,15.4 C141.7,15.4 141.5,15.5 141.2,15.6 C140.9,15.8 140.7,15.9 140.4,16 C140.1,16.1 139.8,16.2 139.4,16.2 C139,16.2 138.5,16.1 138,15.9 C137.5,15.7 137,15.3 136.6,14.7 C136.1,14.1 135.8,13.5 135.5,12.7 C135.2,11.9 135.1,11.2 135,10.3 C134.9,9.5 134.9,8.6 135,7.6 C135.1,6.6 135.3,5.7 135.5,4.9 C135.8,4.1 136.1,3.5 136.5,3 C136.9,2.5 137.4,2.1 137.9,1.9 C138.4,1.7 138.9,1.6 139.4,1.6 C139.7,1.6 139.9,1.6 140.1,1.7 C140.3,1.8 140.5,1.8 140.7,1.9 C140.9,2 141.1,2.1 141.1,2.1 C141.3,2.1 141.4,2.1 141.5,2.1 C141.6,2.1 141.7,1.9 141.7,1.8 L141.8,1.6 C141.8,1.5 141.9,1.5 142,1.5 C142.1,1.5 142.2,1.6 142.2,1.8 L143,4.9 C143.1,5.2 143,5.4 142.9,5.5 C142.8,5.6 142.7,5.5 142.6,5.3 L142.4,4.9 C142.3,4.6 142.1,4.3 141.9,4 C141.7,3.7 141.5,3.4 141.2,3.1 C140.9,2.8 140.6,2.6 140.2,2.4 C139.8,2.2 139.4,2.2 138.9,2.4 C138.6,2.5 138.2,2.7 137.9,3 C137.6,3.3 137.3,3.7 137,4.3 C136.7,4.9 136.5,5.5 136.4,6.3 C136.3,7 136.2,7.7 136.2,8.4 C136.2,9.1 136.2,9.7 136.2,10.2 C136.3,11.2 136.5,12.1 136.8,13 C137.1,13.8 137.5,14.4 138,14.8 C138.5,15.2 139,15.4 139.5,15.4 C140,15.4 140.5,15.3 140.8,15 C141.2,14.7 141.4,14.4 141.5,14 C141.6,13.6 141.7,13.2 141.7,12.9 L141.7,11.3 C141.7,11 141.7,10.8 141.6,10.7 C141.5,10.5 141.4,10.4 141.3,10.3 C141.4,10.4 141.1,10.4 140.9,10.4 Z" id="Shape"></path>
                <path d="M152.5,16.3 L145.2,16.3 C145.1,16.3 145,16.2 145,16 C145,15.8 145.1,15.7 145.2,15.7 L145.5,15.7 C145.7,15.7 145.8,15.7 145.9,15.6 C146,15.5 146.1,15.4 146.1,15.3 C146.1,15.2 146.2,14.9 146.2,14.6 L146.2,3.7 C146.2,3.4 146.2,3.2 146.2,3.1 C146.2,3 146.1,2.9 146,2.9 C145.9,2.8 145.7,2.8 145.5,2.8 L145.1,2.8 C144.9,2.8 144.9,2.7 144.9,2.5 C144.9,2.3 145,2.2 145.1,2.2 L148.5,2.2 C148.6,2.2 148.7,2.3 148.7,2.5 C148.7,2.7 148.6,2.8 148.5,2.8 L148.1,2.8 C147.9,2.8 147.8,2.8 147.7,2.9 C147.6,3 147.5,3.1 147.5,3.2 C147.5,3.3 147.4,3.5 147.4,3.7 L147.4,14.5 C147.4,14.8 147.4,15.1 147.5,15.2 C147.6,15.3 147.7,15.5 147.9,15.5 C148.1,15.6 148.4,15.6 148.8,15.6 L149.8,15.6 C150.1,15.6 150.4,15.6 150.7,15.5 C151,15.4 151.3,15.2 151.5,15 C151.7,14.8 151.9,14.5 152,14.2 C152.1,13.9 152.2,13.5 152.3,13.2 L152.5,12.5 C152.5,12.4 152.6,12.3 152.7,12.3 C152.8,12.3 152.8,12.4 152.8,12.5 L152.5,16.3 Z" id="Shape"></path>
                <path d="M162,5 C162,5.2 162,5.4 161.9,5.4 C161.8,5.5 161.7,5.4 161.6,5.3 L161.4,4.8 C161.3,4.5 161.1,4.2 160.9,3.8 C160.7,3.5 160.5,3.1 160.1,2.8 C159.7,2.5 159.3,2.3 158.7,2.3 C158.2,2.3 157.7,2.6 157.3,3 C156.9,3.4 156.6,3.9 156.4,4.6 C156.2,5.2 156,5.9 155.9,6.7 C155.8,7.4 155.8,8.2 155.8,8.9 C155.8,10.2 156,11.3 156.3,12.2 C156.6,13.1 157,13.8 157.5,14.3 C158,14.8 158.5,15 159.1,15 C159.6,15 160.1,14.9 160.4,14.6 C160.8,14.3 161.1,13.9 161.3,13.4 C161.6,12.9 161.7,12.6 161.8,12.3 L162,11.9 C162.1,11.7 162.2,11.7 162.2,11.7 C162.3,11.8 162.3,11.9 162.2,12.1 L162,12.6 C161.9,12.9 161.8,13.3 161.5,13.9 C161.3,14.5 160.9,15 160.4,15.5 C159.9,16 159.3,16.2 158.7,16.3 C158,16.3 157.3,16.1 156.8,15.6 C156.2,15.1 155.8,14.5 155.5,13.9 C155.2,13.3 154.9,12.5 154.8,11.8 C154.7,11.1 154.6,10.1 154.6,9 C154.6,8.1 154.7,7.2 154.8,6.4 C154.9,5.6 155.2,4.9 155.4,4.2 C155.7,3.5 156.1,2.9 156.6,2.5 C157.1,2.1 157.7,1.8 158.4,1.7 C158.8,1.7 159.2,1.7 159.6,1.9 L160.3,2.2 C160.4,2.3 160.6,2.3 160.6,2.3 C160.7,2.3 160.9,2.2 161,2.1 L161.3,1.9 L162,5 Z" id="Shape"></path>
                <path d="M176.9,2.7 C176.5,2.8 176.2,2.8 175.9,2.9 C175.6,3 175.4,3.2 175.1,3.4 C174.8,3.7 174.5,3.9 174.3,4.1 C174.1,4.3 173.9,4.6 173.7,4.9 C173.5,5.2 173.3,5.5 173.2,5.9 C173.1,6.3 172.9,6.5 172.9,6.7 L172.5,8.1 C172.8,7.8 173.1,7.7 173.3,7.5 C173.5,7.4 173.7,7.3 174,7.2 C174.3,7.1 174.5,7.1 174.8,7.1 C175,7.1 175.3,7.2 175.5,7.3 C175.7,7.4 175.9,7.6 176.1,7.8 C176.3,8 176.5,8.3 176.6,8.5 C176.7,8.7 176.8,9 176.9,9.4 C177,9.8 177,10.1 177.1,10.5 C177.2,10.9 177.1,11.2 177.1,11.6 C177.1,12.1 177,12.5 177,12.9 C177,13.3 176.8,13.7 176.7,14.2 C176.6,14.6 176.4,15 176.1,15.2 C175.9,15.5 175.6,15.7 175.3,15.9 C175,16.1 174.6,16.2 174.1,16.1 C173.7,16.1 173.4,16 173.2,15.9 C172.9,15.8 172.7,15.6 172.5,15.4 C172.3,15.2 172.1,14.9 171.9,14.7 C171.7,14.4 171.6,14.1 171.4,13.6 C171.3,13.1 171.2,12.7 171.1,12.2 C171,11.7 171,11.2 171,10.5 C171,9.8 171,9.3 171.1,8.8 C171.1,8.4 171.2,8 171.3,7.6 C171.4,7.2 171.5,6.8 171.6,6.5 C171.7,6.2 171.9,5.8 172,5.5 C172.2,5.2 172.4,4.8 172.7,4.4 C173,4 173.3,3.7 173.6,3.4 C173.9,3.1 174.3,2.8 174.6,2.6 C175,2.4 175.3,2.3 175.6,2.2 C175.9,2.1 176.2,2.1 176.3,2.1 L176.9,2.1 L176.9,2.7 Z M174.2,15.9 C174.5,15.8 174.7,15.8 174.9,15.7 C175.1,15.6 175.2,15.5 175.3,15.3 C175.4,15.1 175.5,14.9 175.5,14.6 C175.6,14.3 175.6,14.1 175.6,13.8 C175.6,13.5 175.6,13.1 175.6,12.7 C175.6,12.3 175.6,11.8 175.6,11.3 C175.6,10.8 175.5,10.4 175.4,10.1 C175.3,9.7 175.2,9.4 175.1,9.2 C175,8.9 174.8,8.7 174.6,8.6 C174.4,8.4 174.1,8.4 173.8,8.4 C173.4,8.4 173.1,8.5 172.8,8.7 L172.3,9 C172.3,9.4 172.3,9.7 172.2,10.1 C172.2,10.4 172.2,10.7 172.2,11.1 C172.2,11.5 172.2,11.9 172.2,12.3 C172.2,12.7 172.3,13.1 172.4,13.5 C172.5,13.9 172.6,14.3 172.7,14.6 C172.8,14.9 172.9,15.2 173.1,15.3 C173.2,15.5 173.4,15.6 173.5,15.7 C173.7,15.8 173.9,15.9 174.2,15.9 Z" id="Shape"></path>
                <path d="M179.8,8.9 C180.1,8.8 180.4,8.7 180.5,8.7 C180.7,8.6 180.9,8.5 181,8.4 C181.1,8.3 181.3,8.1 181.5,7.8 C181.7,7.6 181.8,7.3 181.9,7 C182,6.7 182,6.3 182.1,5.9 C182.1,5.5 182,5.1 181.9,4.8 C181.8,4.6 181.7,4.4 181.6,4.2 C181.5,4 181.3,3.9 181.1,3.8 C180.9,3.7 180.7,3.6 180.4,3.6 C180.1,3.6 179.9,3.7 179.7,3.8 C179.5,3.9 179.3,4.1 179.2,4.3 L178.9,4.8 L178.7,5 C178.6,5.1 178.6,5.1 178.5,5.1 C178.4,5.1 178.4,5 178.4,4.9 C178.4,4.8 178.4,4.7 178.6,4.4 L178.9,3.7 C179,3.4 179.2,3.2 179.3,3 C179.5,2.8 179.7,2.7 179.9,2.5 C180.1,2.4 180.4,2.3 180.6,2.2 C180.9,2.2 181.1,2.2 181.4,2.2 C181.6,2.3 181.9,2.3 182,2.4 C182.2,2.5 182.3,2.6 182.5,2.8 C182.6,3 182.8,3.2 182.9,3.4 C183,3.7 183.1,3.9 183.1,4.1 C183.1,4.3 183.2,4.6 183.1,4.9 C183.1,5.2 183,5.5 183,5.8 C182.9,6.1 182.8,6.3 182.7,6.6 C182.6,6.9 182.4,7.1 182.2,7.3 L181.9,8 C182.2,8.3 182.5,8.5 182.7,8.7 C182.9,8.9 183,9.1 183.2,9.3 C183.3,9.5 183.5,9.8 183.6,10.2 C183.7,10.6 183.8,11 183.8,11.4 C183.8,11.8 183.8,12.3 183.7,12.7 C183.6,13.1 183.6,13.4 183.4,13.8 C183.3,14.2 183.2,14.5 183,14.8 C182.8,15.1 182.7,15.3 182.4,15.5 C182.2,15.7 181.9,15.9 181.6,16 C181.3,16.1 181.1,16.2 180.8,16.3 C180.5,16.3 180.2,16.3 179.9,16.3 C179.7,16.3 179.5,16.3 179.3,16.2 C179.1,16.2 178.9,16.1 178.8,16 C178.7,15.9 178.6,15.8 178.5,15.7 C178.4,15.6 178.4,15.4 178.4,15.3 C178.4,15.2 178.4,15 178.4,15 C178.4,14.9 178.5,14.8 178.6,14.7 C178.7,14.6 178.8,14.6 178.9,14.6 C179,14.6 179.2,14.7 179.4,14.8 C179.6,15 179.8,15.1 179.9,15.2 C180,15.3 180.2,15.3 180.4,15.3 C180.6,15.3 180.9,15.3 181.1,15.3 C181.4,15.2 181.6,15.1 181.8,14.9 C182,14.7 182.2,14.5 182.3,14.2 C182.4,13.9 182.5,13.6 182.6,13.3 C182.7,13 182.7,12.7 182.7,12.3 C182.7,12 182.7,11.7 182.6,11.4 C182.5,11.1 182.4,10.8 182.3,10.6 C182.2,10.4 182,10.1 181.8,9.8 C181.6,9.6 181.3,9.4 181.2,9.4 L180,9.2 L180,8.9 L179.8,8.9 Z" id="Shape"></path>
                <path d="M191.8,13 C191.8,12.5 191.8,12.2 191.8,12 C191.8,11.8 191.8,11.6 191.8,11.5 C191.8,11.4 191.9,11.2 192.1,10.9 C192.2,10.6 192.5,10.2 192.7,9.6 L195.6,3.4 L196,2.5 L196.7,2.5 L196.7,11.5 L198,11.5 L198,13 L196.7,13 L196.7,16.3 L195.6,16.3 L195.6,13 L191.8,13 Z M192.5,11.4 L195.8,11.4 L195.8,4.3 L192.5,11.4 Z" id="Shape"></path>
                <path d="M201.4,2 L204.7,13.7 L207.8,2 L210.3,2 C210.5,2 210.5,2.1 210.5,2.3 C210.5,2.5 210.4,2.6 210.3,2.6 L209.8,2.6 C209.6,2.6 209.5,2.6 209.4,2.7 C209.3,2.8 209.3,2.8 209.3,2.9 C209.3,3 209.3,3.1 209.3,3.4 L209.3,14.3 C209.3,14.7 209.3,14.9 209.4,15.1 C209.5,15.3 209.5,15.4 209.6,15.5 C209.7,15.6 209.9,15.6 210.1,15.6 L210.6,15.6 C210.7,15.6 210.8,15.7 210.8,15.9 C210.8,16.1 210.7,16.2 210.6,16.2 L207,16.2 C206.9,16.2 206.8,16.1 206.8,15.9 C206.8,15.7 206.9,15.6 207,15.6 L207.3,15.6 C207.5,15.6 207.6,15.6 207.7,15.5 C207.8,15.4 207.9,15.3 207.9,15.2 C207.9,15.1 208,14.8 208,14.5 L208,3.2 L204.6,15.9 C204.5,16.1 204.4,16.2 204.3,16.2 C204.2,16.2 204.1,16.1 204,15.8 L200.6,3.8 L200.6,14.7 C200.6,15 200.6,15.1 200.7,15.2 C200.8,15.3 200.9,15.4 201,15.5 C201.2,15.6 201.4,15.6 201.6,15.6 L201.9,15.6 C202.1,15.6 202.1,15.7 202.1,15.9 C202.1,16.1 202,16.2 201.9,16.2 L198.9,16.2 C198.8,16.2 198.7,16.1 198.7,15.9 C198.7,15.7 198.8,15.6 198.9,15.6 L199.3,15.6 C199.5,15.6 199.6,15.6 199.7,15.5 C199.8,15.4 199.9,15.3 200,15.2 C200.1,15.1 200.1,14.9 200.1,14.7 L200.1,4 C200.1,3.6 200.1,3.3 200,3.1 C200,2.9 199.9,2.8 199.8,2.7 C199.7,2.6 199.5,2.6 199.3,2.6 L198.8,2.6 C198.6,2.6 198.6,2.5 198.6,2.3 C198.6,2.1 198.7,2 198.8,2 L201.4,2 Z" id="Shape"></path>
                <path d="M217.8,10.9 L214.4,10.9 L213.5,14.6 C213.5,14.7 213.4,14.9 213.5,15 C213.6,15.1 213.6,15.3 213.7,15.4 C213.8,15.5 214,15.6 214.3,15.6 L214.8,15.6 C215,15.6 215,15.7 215,15.9 C215,16.1 214.9,16.2 214.8,16.2 L211.9,16.2 C211.8,16.2 211.7,16.1 211.7,15.9 C211.7,15.7 211.8,15.6 211.9,15.6 L212.3,15.6 C212.4,15.6 212.6,15.6 212.7,15.5 C212.8,15.4 212.9,15.3 213,15.2 C213.1,15.1 213.2,14.9 213.2,14.6 L216.2,2.1 C216.3,1.8 216.4,1.7 216.5,1.7 C216.7,1.7 216.8,1.8 216.8,2.1 L220.1,14.6 C220.2,15 220.3,15.2 220.5,15.4 C220.7,15.6 220.8,15.7 221,15.7 L221.2,15.7 C221.3,15.7 221.4,15.8 221.4,16 C221.4,16.2 221.3,16.3 221.2,16.3 L218,16.3 C217.9,16.3 217.8,16.2 217.8,16 C217.8,15.8 217.9,15.7 218,15.7 L218.2,15.7 C218.5,15.7 218.7,15.7 218.8,15.6 C218.9,15.5 218.9,15.4 219,15.3 C219,15.2 219,15 218.9,14.6 L217.8,10.9 Z M214.5,10.4 L217.6,10.4 L216,4.1 L214.5,10.4 Z" id="Shape"></path>
                <path d="M222.8,1.9 L230.9,1.9 L231.4,5.2 C231.4,5.4 231.4,5.5 231.3,5.6 C231.2,5.7 231.1,5.6 231.1,5.4 L230.9,4.8 C230.8,4.6 230.7,4.4 230.5,4.1 C230.3,3.8 230.1,3.5 229.8,3.2 C229.5,2.9 229.2,2.7 229,2.7 C228.8,2.7 228.4,2.6 228.1,2.5 C227.9,2.5 227.7,2.5 227.6,2.6 C227.5,2.7 227.5,2.8 227.4,2.8 C227.4,2.9 227.4,3.3 227.4,4.1 L227.4,13.8 C227.4,14.7 227.4,15.2 227.5,15.3 C227.5,15.4 227.6,15.4 227.8,15.5 C227.9,15.6 228.1,15.6 228.2,15.6 L228.8,15.6 C228.9,15.6 229,15.7 229,15.9 C229,16.1 228.9,16.2 228.7,16.2 L225,16.2 C224.9,16.2 224.8,16.1 224.8,15.9 C224.8,15.7 224.9,15.6 225,15.6 L225.5,15.6 C225.7,15.6 225.9,15.5 226,15.4 C226.1,15.3 226.2,15.2 226.2,15.1 C226.2,15 226.3,14.8 226.3,14.4 L226.3,4.1 C226.3,3.4 226.3,3.1 226.2,2.9 C226.1,2.8 226,2.7 225.9,2.6 C225.8,2.5 225.6,2.5 225.3,2.5 C225,2.5 224.8,2.6 224.6,2.7 C224.4,2.8 224.2,3 224,3.2 C223.8,3.4 223.6,3.7 223.4,3.9 C223.3,4.1 223.1,4.4 223,4.6 L222.7,5.2 C222.6,5.4 222.5,5.5 222.4,5.5 C222.3,5.4 222.3,5.3 222.3,5.2 L222.8,1.9 Z" id="Shape"></path>
                <path d="M233.6,14.5 L233.6,3.7 C233.6,3.4 233.6,3.2 233.6,3.1 C233.6,3 233.5,2.9 233.4,2.8 C233.3,2.7 233.2,2.6 233,2.6 L232.5,2.6 C232.4,2.6 232.3,2.5 232.3,2.3 C232.3,2.1 232.4,2 232.5,2 L235.9,2 C236.1,2 236.2,2.1 236.2,2.3 C236.2,2.5 236.1,2.6 235.9,2.6 L235.5,2.6 C235.3,2.6 235.1,2.6 235,2.7 C234.9,2.8 234.8,2.9 234.8,3 C234.8,3.1 234.8,3.3 234.8,3.5 L234.8,14.3 C234.8,14.7 234.8,14.9 234.9,15 C234.9,15.1 235,15.2 235.1,15.3 C235.2,15.4 235.4,15.5 235.6,15.5 L236,15.5 C236.1,15.5 236.2,15.6 236.2,15.8 C236.2,16 236.1,16.1 236,16.1 L232.6,16.1 C232.4,16.1 232.4,16 232.4,15.8 C232.4,15.6 232.5,15.5 232.6,15.5 L233.1,15.5 C233.2,15.5 233.3,15.5 233.4,15.4 C233.5,15.3 233.5,15.2 233.6,15.1 C233.6,15.1 233.6,14.8 233.6,14.5 Z" id="Shape"></path>
                <path d="M245.3,5 C245.3,5.2 245.3,5.4 245.2,5.4 C245.1,5.5 245,5.4 244.9,5.3 L244.7,4.8 C244.6,4.5 244.4,4.2 244.2,3.8 C244,3.5 243.8,3.1 243.4,2.8 C243,2.5 242.6,2.3 242,2.3 C241.5,2.3 241,2.6 240.6,3 C240.2,3.4 239.9,3.9 239.7,4.6 C239.5,5.2 239.3,5.9 239.2,6.7 C239.1,7.4 239.1,8.2 239.1,8.9 C239.1,10.2 239.3,11.3 239.6,12.2 C239.9,13.1 240.3,13.8 240.8,14.3 C241.3,14.8 241.8,15 242.4,15 C242.9,15 243.4,14.9 243.7,14.6 C244.1,14.3 244.4,13.9 244.6,13.4 C244.9,12.9 245,12.6 245.1,12.3 L245.3,11.9 C245.4,11.7 245.5,11.7 245.5,11.7 C245.6,11.8 245.6,11.9 245.5,12.1 L245.3,12.6 C245.2,12.9 245.1,13.3 244.8,13.9 C244.6,14.5 244.2,15 243.7,15.5 C243.2,16 242.6,16.2 242,16.3 C241.3,16.3 240.6,16.1 240.1,15.6 C239.5,15.1 239.1,14.5 238.8,13.9 C238.5,13.3 238.2,12.5 238.1,11.8 C238,11.1 237.9,10.1 237.9,9 C237.9,8.1 238,7.2 238.1,6.4 C238.2,5.6 238.5,4.9 238.7,4.2 C239,3.5 239.4,2.9 239.9,2.5 C240.4,2.1 241,1.8 241.7,1.7 C242.1,1.7 242.5,1.7 242.9,1.9 L243.6,2.2 C243.7,2.3 243.9,2.3 243.9,2.3 C244,2.3 244.2,2.2 244.3,2.1 L244.6,1.9 L245.3,5 Z" id="Shape"></path>
                <polygon id="Shape" points="251 3.7 252.2 3.7 252.2 8.9 255.8 8.9 255.8 10.6 252.2 10.6 252.2 15.8 251 15.8 251 10.6 247.4 10.6 247.4 8.8 251 8.8"></polygon>
                <path d="M265.5,4 L265.8,2.5 L266,1.1 L266,0.7 C266,0.7 266.1,0.7 266.2,0.8 L267.5,1.4 C267.6,1.4 267.6,1.5 267.6,1.5 C267.6,1.6 267.6,1.6 267.5,1.7 L267.1,2 L266.6,4 L268,4 L268.3,3.3 C268.4,3.2 268.4,3.1 268.4,3.1 C268.4,3.1 268.5,3.1 268.5,3.2 L269.4,4.2 C269.4,4.3 269.5,4.3 269.4,4.4 C269.3,4.5 269.4,4.5 269.3,4.5 L266.3,4.5 L265.2,8.7 L266.4,8.7 L266.4,7.4 L266.3,5.8 C266.3,5.8 266.3,5.7 266.4,5.7 L266.6,5.8 L267.7,6.2 C267.8,6.2 267.9,6.3 267.8,6.4 C267.8,6.5 267.8,6.5 267.7,6.6 L267.4,7 L267.4,8.9 L267.7,8.9 L268.1,8.1 C268.2,8 268.2,7.9 268.2,7.9 C268.2,7.9 268.3,7.9 268.3,8 L269.1,9.1 C269.2,9.2 269.2,9.3 269.2,9.3 C269.2,9.4 269.2,9.4 269.1,9.4 L267.3,9.4 L267.3,12.9 C267.6,12.8 267.8,12.7 267.9,12.7 L269.1,12.2 L270,12 C270.1,12 270.1,12 270.1,12.1 C270.1,12.2 270.1,12.2 270,12.3 L269.6,12.6 C269.5,12.6 268.9,13 267.7,13.8 L267.7,16.5 L267.8,18.3 C267.7,18.6 267.5,18.8 267.2,18.8 C266.9,18.8 266.8,18.8 266.7,18.7 C266.7,18.6 266.6,18.5 266.6,18.5 L266.7,16.8 L266.7,14.5 C266.5,14.6 266.1,14.9 265.5,15.3 L265,15.6 L264.7,15.8 C264.7,15.8 264.7,15.8 264.6,15.8 C264.6,15.8 264.6,15.8 264.6,15.8 L264.6,15.7 L264.1,13.9 L264.1,13.8 C264.1,13.8 264.1,13.7 264.1,13.7 L264.4,13.7 L264.9,13.6 C265.3,13.5 265.9,13.4 266.7,13.2 L266.7,9.3 L265.4,9.3 L265.2,9.8 C265.1,10 265,10.2 265,10.2 C265,10.2 265,10.2 265,10.2 C265,10.2 264.9,10.2 264.9,10 L264.2,9.2 C264.2,9.2 264.1,9.1 264.1,9.1 C264.1,9.1 264.1,9 264.2,8.9 C264.3,8.8 264.3,8.7 264.4,8.5 C264.5,8.3 264.5,8.1 264.6,8 L264.9,7 C265,6.8 265.1,6 265.5,4.5 L264.1,4.5 L264,4.5 C263.9,4.4 263.9,4.3 263.9,4.2 C263.9,4.1 263.9,4 264.1,4 L265.5,4 Z M271.6,11 C271.6,11.5 271.6,11.9 271.6,12.2 C271.6,12.5 271.5,13 271.5,13.5 C271.4,14 271.3,14.6 271.1,15.3 C270.9,16 270.6,16.6 270.1,17.1 C269.6,17.6 269.2,18 268.9,18.1 L268.4,18.5 C268.3,18.6 268.2,18.6 268.2,18.5 C268.2,18.4 268.2,18.3 268.3,18.3 L268.7,17.8 C269.1,17.4 269.5,16.8 269.8,16.1 C270.1,15.4 270.3,14.7 270.4,14 C270.5,13.3 270.5,12.8 270.5,12.4 C270.5,12 270.5,11.7 270.5,11.5 C270.5,11.3 270.5,11.1 270.5,11 L270.5,10.4 L270.5,10 C270.5,10 270.5,10 270.5,10 C270.5,10 270.6,10 270.7,10 L271.9,10.4 C271.9,10.4 272,10.4 272,10.5 C272,10.5 272,10.5 272,10.5 C272,10.5 272,10.5 272,10.6 C272,10.6 272,10.7 272,10.7 L271.6,11 Z M274.6,5.8 L275.1,4.8 C275.2,4.7 275.2,4.6 275.3,4.6 C275.3,4.6 275.4,4.7 275.5,4.7 L276.4,5.8 C276.5,5.9 276.5,6 276.5,6.1 C276.5,6.2 276.4,6.2 276.4,6.2 L275.3,6.2 L273.3,6.2 C273.4,6.5 273.5,6.6 273.5,6.7 C273.5,6.8 273.7,7 273.9,7.5 C274.1,7.9 274.5,8.4 275,8.8 C275.5,9.2 276,9.5 276.5,9.7 L277,9.9 C277.1,9.9 277.1,10 277.1,10 C277.1,10.1 277.1,10.1 277,10.1 L276.7,10.2 C276.4,10.3 276.2,10.5 276.1,10.7 L275.9,11.1 C275.8,11.2 275.8,11.3 275.7,11.3 C275.6,11.3 275.4,11.1 275.1,10.8 C274.8,10.5 274.6,10.2 274.4,9.9 C274.2,9.7 274.1,9.3 273.9,9 C273.7,8.6 273.6,8.3 273.4,7.9 C273.3,7.5 273.2,7.2 273.1,6.8 C273,6.5 273,6.2 273,6.1 L272.4,6.1 C272.3,6.3 272.3,6.4 272.2,6.5 L271.8,7.4 C271.5,8.1 271,8.8 270.5,9.5 C270,10.2 269.5,10.7 269.1,11.1 L268.7,11.4 C268.6,11.5 268.6,11.5 268.5,11.4 C268.5,11.3 268.5,11.2 268.6,11.1 L268.9,10.7 C269.1,10.5 269.2,10.3 269.4,10 C269.6,9.7 269.8,9.3 270.1,8.7 C270.4,8.1 270.6,7.7 270.7,7.4 C270.8,7.1 270.9,6.8 271,6.6 C271.1,6.3 271.2,6.1 271.2,6 L268.7,6 C268.6,6 268.5,5.9 268.5,5.7 C268.5,5.5 268.5,5.4 268.7,5.4 L271.3,5.4 C271.3,5.3 271.4,5.2 271.4,5 C271.4,4.8 271.5,4.7 271.6,4.5 C271.7,4.3 271.8,3.9 271.9,3.2 C270.8,3.4 270.2,3.5 269.9,3.5 L269.6,3.5 C269.5,3.5 269.5,3.5 269.5,3.4 C269.5,3.3 269.5,3.3 269.6,3.3 L270.1,3.2 C270.4,3.1 270.6,3 270.8,3 C271,2.9 271.4,2.7 272.2,2.4 C272.9,2.1 273.4,1.8 273.7,1.7 L274.3,1.3 C274.3,1.3 274.4,1.2 274.5,1.2 C274.6,1.1 274.6,1.1 274.6,1.1 C274.6,1.1 274.7,1.2 274.8,1.4 L275.6,2.5 C275.7,2.7 275.8,2.8 275.8,2.8 C275.8,2.8 275.7,2.9 275.6,2.9 L275,3 C274.7,3.1 274.4,3.1 273.9,3.2 C273.5,3.3 273,3.4 272.6,3.4 L273.3,3.8 C273.3,3.8 273.3,3.9 273.4,3.9 C273.4,3.9 273.4,4 273.3,4 L273,4.2 C272.8,4.6 272.7,4.9 272.6,5.2 C272.5,5.4 272.4,5.6 272.4,5.8 L274.6,5.8 Z M274.3,11.3 L274.3,16.6 L274.4,18.1 C274.4,18.2 274.4,18.3 274.3,18.5 C274.2,18.7 274.1,18.7 273.8,18.7 C273.5,18.7 273.3,18.7 273.3,18.6 C273.3,18.5 273.2,18.4 273.2,18.3 L273.2,16.9 L273.2,11.8 L273.1,10.1 C273.1,10.1 273.2,10 273.2,10 L273.4,10.1 L274.4,10.5 C274.5,10.5 274.5,10.6 274.5,10.6 C274.5,10.7 274.5,10.7 274.4,10.8 L274.3,11.3 Z" id="Shape"></path>
                <path d="M281.5,10.6 L282.1,10.6 L282.5,9.7 C282.5,9.6 282.5,9.6 282.6,9.6 C282.6,9.6 282.6,9.6 282.7,9.7 L283.5,10.9 C283.6,11 283.5,11.1 283.4,11.1 L281.5,11.1 L281.5,15.2 C282.1,15 282.6,14.8 283,14.7 L283.6,14.5 C283.7,14.5 283.7,14.5 283.7,14.6 C283.7,14.7 283.7,14.7 283.6,14.8 L283,15.2 C281.9,15.9 280.6,16.8 279.1,17.9 L278.7,18.2 C278.6,18.3 278.6,18.3 278.6,18.3 C278.6,18.3 278.6,18.3 278.6,18.2 L278.2,16.7 C278.2,16.6 278.2,16.6 278.2,16.5 C278.2,16.5 278.2,16.5 278.2,16.5 C278.2,16.5 278.2,16.5 278.3,16.4 L278.8,16.3 L278.8,11.3 L278.8,9.7 C278.8,9.7 278.8,9.7 278.9,9.7 L279,9.7 L280.2,10.1 C280.3,10.1 280.3,10.2 280.3,10.2 C280.3,10.2 280.3,10.3 280.2,10.4 L279.9,10.7 L279.9,16 L280.8,15.7 L280.8,7.1 L280.1,7.1 L280.1,7.9 C280.1,8.1 279.9,8.3 279.6,8.3 C279.3,8.3 279.1,8.3 279.1,8.3 C279.1,8.3 279.1,8.2 279.1,8.1 L279.1,6.4 L279.1,3.2 L279.1,1.7 C279.1,1.7 279.1,1.7 279.1,1.7 L279.3,1.8 L280.2,2.4 L281.9,2.4 L282.3,1.7 C282.3,1.7 282.3,1.6 282.3,1.6 C282.3,1.6 282.3,1.6 282.4,1.7 L283.3,2.6 C283.3,2.7 283.4,2.7 283.4,2.7 C283.4,2.7 283.4,2.8 283.4,2.8 L283,3.2 L283,6.4 L283,7.4 C282.9,7.6 282.8,7.7 282.6,7.8 C282.4,7.9 282.2,7.9 282.1,7.9 C282,7.9 281.9,7.8 281.9,7.7 L281.9,7.1 L281.7,7.1 L281.7,10.6 L281.5,10.6 Z M281.7,3 L279.9,3 L279.9,6.5 L281.7,6.5 L281.7,3 Z M284.8,5.1 L284.1,6.7 L285.1,7.4 L286.5,7.4 L286.8,6.9 C286.8,6.8 286.9,6.8 287,6.9 L288,7.7 C288,7.7 288,7.8 288.1,7.8 C288.1,7.8 288.1,7.8 288.1,7.9 C288.1,7.9 288.1,8 288,8 L287.7,8.3 L287.7,10.4 L287.7,11.3 C287.7,11.4 287.7,11.5 287.6,11.5 C287.6,11.6 287.4,11.6 287.3,11.7 C287.1,11.8 287,11.8 286.9,11.8 C286.8,11.8 286.8,11.8 286.7,11.7 C286.6,11.6 286.7,11.6 286.7,11.5 L286.7,11 L285.3,11 L285.3,15.9 C285.3,16 285.3,16.1 285.3,16.2 C285.3,16.3 285.4,16.4 285.6,16.6 C285.8,16.8 286.5,16.8 287.9,16.8 C288.8,16.8 289.3,16.7 289.5,16.5 C289.7,16.3 289.8,16.1 289.9,15.9 C290,15.7 290.2,15.2 290.4,14.6 L290.7,13.6 C290.7,13.5 290.7,13.5 290.8,13.5 C290.8,13.5 290.9,13.5 290.9,13.6 C290.9,13.7 290.9,13.7 290.9,13.7 L290.7,14.7 C290.6,15 290.6,15.3 290.6,15.5 C290.6,15.7 290.6,15.8 290.6,15.9 C290.6,16 290.6,16.1 290.7,16.2 C290.7,16.3 290.8,16.4 290.9,16.6 C291,16.8 291,16.9 291.1,17.1 C291.1,17.2 291,17.4 290.9,17.5 C290.8,17.7 290.6,17.9 290.3,18 C290,18.2 289.2,18.2 287.8,18.2 C286.7,18.2 286,18.1 285.5,18 C285,17.9 284.7,17.7 284.6,17.5 C284.5,17.3 284.4,17 284.4,16.7 L284.4,8.7 L284.4,6.9 C284.1,7.4 284,7.8 283.8,8.1 L283.4,8.8 L283.2,9.3 C283.2,9.4 283.1,9.4 283.1,9.4 C283.1,9.4 283,9.4 283,9.3 C283,9.3 283,9.2 283,9.2 L283.2,8.6 C283.7,7.1 284.1,5.8 284.3,4.7 C284.5,3.6 284.7,2.9 284.8,2.6 L285,1.7 L285,1.5 C285,1.5 285,1.5 285,1.5 C285,1.5 285.1,1.5 285.2,1.6 L286.5,2.3 C286.6,2.4 286.6,2.4 286.6,2.5 C286.6,2.6 286.6,2.6 286.5,2.6 L286.1,3 L285,4.6 L288.5,4.6 L288.8,3.9 C288.8,3.8 288.9,3.8 289,3.9 L290.1,4.9 L290.2,5 C290.2,5 290.2,5 290.2,5.1 C290.2,5.1 290.2,5.2 290.1,5.2 L289.7,5.7 C289.7,7.2 289.7,8.5 289.7,9.4 C289.7,10.4 289.7,11.1 289.6,11.8 C289.5,12.4 289.4,13 289.2,13.5 C289,14 288.5,14.3 287.9,14.5 L287.6,14.6 C287.5,14.6 287.5,14.6 287.4,14.6 L287.4,14.4 L287.3,14.1 C287.3,13.9 287.2,13.8 287.1,13.6 C287,13.4 286.9,13.3 286.7,13.3 L286.3,13.1 C286.3,13.1 286.3,13.1 286.2,13.1 C286.2,13.1 286.2,13 286.2,13 C286.2,12.9 286.2,12.9 286.3,12.9 L286.9,12.9 C287.5,12.9 287.9,12.8 288.1,12.6 C288.3,12.3 288.4,11.8 288.5,11 C288.6,10.2 288.6,9.3 288.6,8.3 C288.6,7.5 288.6,7 288.6,6.8 L288.6,5.3 L284.8,5.3 L284.8,5.1 Z M286.6,10.4 L286.6,7.9 L285.2,7.9 L285.2,10.4 L286.6,10.4 Z" id="Shape"></path>
                <path d="M304.9,2.2 L305.7,5.6 C305.7,5.8 305.7,5.9 305.6,6 C305.5,6.1 305.4,6 305.3,5.8 L305.1,5.3 C305,5 304.8,4.6 304.6,4.1 C304.3,3.6 304,3.2 303.6,2.8 C303.2,2.4 302.8,2.2 302.3,2.2 C301.8,2.2 301.4,2.4 301.1,2.8 C300.8,3.2 300.6,3.8 300.5,4.5 C300.4,5.2 300.5,5.8 300.8,6.3 C301,6.7 301.2,7 301.6,7.2 C302,7.5 302.4,7.7 303.1,8 C303.7,8.3 304.2,8.6 304.7,8.9 C305.1,9.2 305.5,9.6 305.7,10.2 C306,10.8 306.1,11.4 306.1,12.1 C306.1,12.8 306,13.5 305.7,14.1 C305.5,14.7 305.1,15.1 304.7,15.5 C304.3,15.9 303.8,16.1 303.3,16.1 C303,16.1 302.6,16.1 302.3,16.1 C302,16.1 301.8,15.9 301.6,15.8 L300.9,15.5 C300.7,15.4 300.6,15.4 300.6,15.5 C300.5,15.5 300.5,15.6 300.5,15.7 L300.4,15.9 C300.4,16 300.3,16.1 300.2,16.1 C300.1,16.1 300,16 300,15.8 L299,11.9 C298.9,11.7 299,11.5 299.1,11.4 C299.2,11.3 299.3,11.4 299.4,11.5 L299.6,12.1 C299.7,12.4 299.9,12.8 300.2,13.4 C300.5,14 300.9,14.4 301.3,14.8 C301.8,15.2 302.3,15.4 302.8,15.4 C303.2,15.4 303.5,15.3 303.8,15.1 C304.1,14.9 304.4,14.6 304.6,14.1 C304.8,13.6 304.9,13.1 304.9,12.4 C304.9,11.8 304.8,11.4 304.6,11 C304.4,10.6 304.1,10.3 303.8,10.1 C303.4,9.8 302.9,9.6 302.3,9.3 C301.7,9 301.2,8.7 300.7,8.4 C300.3,8.1 299.9,7.7 299.7,7.1 C299.4,6.6 299.3,5.9 299.3,5.2 C299.3,4.5 299.4,3.8 299.7,3.1 C300,2.5 300.3,2.1 300.7,1.7 C301.1,1.3 301.6,1.2 302.2,1.2 C302.5,1.2 302.8,1.3 303,1.4 C303.2,1.5 303.4,1.6 303.7,1.8 C304,2 304.1,2 304.2,2 C304.3,2 304.3,1.9 304.4,1.9 L304.5,1.7 C304.5,1.6 304.6,1.6 304.7,1.6 C304.8,2 304.8,2 304.9,2.2 Z" id="Shape"></path>
                <path d="M308.2,11.6 L308.2,3.5 C308.2,3.2 308.2,2.9 308.2,2.8 C308.2,2.7 308.1,2.6 308,2.5 C307.9,2.4 307.7,2.3 307.5,2.3 L307,2.3 C306.9,2.3 306.8,2.2 306.8,2 C306.8,1.8 306.9,1.7 307,1.7 L310.8,1.7 C311,1.7 311,1.8 311,2 C311,2.2 310.9,2.3 310.8,2.3 L310.4,2.3 C310.1,2.3 309.9,2.4 309.8,2.5 C309.7,2.6 309.6,2.7 309.6,2.8 C309.6,2.9 309.5,3.2 309.5,3.7 L309.5,11 C309.5,12 309.6,12.8 309.7,13.4 C309.9,14 310.1,14.4 310.6,14.7 C311.1,15 311.5,15.2 312,15.2 C312.6,15.2 313.1,15 313.5,14.6 C314,14.2 314.2,13.8 314.3,13.3 C314.4,12.8 314.4,12.3 314.4,11.7 L314.4,3.5 C314.4,3.2 314.4,2.9 314.3,2.8 C314.3,2.6 314.2,2.5 314.1,2.4 C314,2.3 313.9,2.3 313.7,2.3 L313.2,2.3 C313,2.3 312.9,2.2 312.9,2 C312.9,1.8 313,1.7 313.2,1.7 L315.9,1.7 C316,1.7 316.1,1.8 316.1,2 C316.1,2.2 316,2.3 315.9,2.3 L315.5,2.3 C315.2,2.3 315.1,2.3 315,2.4 C314.9,2.5 314.9,2.6 314.8,2.7 C314.8,2.8 314.7,3 314.7,3.3 L314.7,11.9 C314.7,12.6 314.7,13.2 314.6,13.7 C314.5,14.2 314.3,14.6 314,15 C313.7,15.4 313.4,15.7 313,15.9 C312.6,16.1 312.2,16.2 311.7,16.3 C311.3,16.3 310.8,16.3 310.3,16.2 C309.8,16.1 309.4,15.8 309.1,15.4 C308.7,15 308.5,14.5 308.3,13.8 C308.3,13.1 308.2,12.4 308.2,11.6 Z" id="Shape"></path>
                <path d="M322.1,13.8 L324.5,3.8 C324.6,3.5 324.6,3.3 324.6,3.1 C324.6,2.9 324.5,2.8 324.4,2.7 C324.3,2.6 324.2,2.6 324,2.6 L323.4,2.6 C323.2,2.6 323.2,2.5 323.1,2.3 C323,2.1 323.2,2 323.4,2 L326.6,2 C326.8,2 326.9,2.1 326.9,2.3 C326.9,2.5 326.8,2.6 326.6,2.6 L326.1,2.6 C325.8,2.6 325.6,2.7 325.5,2.8 C325.4,2.9 325.3,3 325.2,3.2 C325.1,3.3 325.1,3.5 325,3.8 L322.1,16 C322,16.3 321.9,16.4 321.8,16.5 C321.6,16.6 321.4,16.1 321.2,15.2 L318.3,3.7 C318.3,3.5 318.2,3.4 318.1,3.2 C318,3 317.9,2.9 317.9,2.8 C317.8,2.7 317.7,2.7 317.5,2.7 L317.2,2.7 C317,2.7 317,2.6 317,2.4 C317,2.2 317,2 317.2,2 L320.7,2 C320.9,2 321,2.1 321,2.3 C321,2.5 320.9,2.6 320.7,2.6 L320,2.6 C319.7,2.6 319.5,2.7 319.5,2.8 C319.5,2.9 319.5,3 319.5,3.1 C319.5,3.2 319.5,3.3 319.6,3.5 L322.1,13.8 Z" id="Shape"></path>
            </g>
        </g>
    </g>
</svg>