<?xml version="1.0" encoding="UTF-8"?>
<svg width="153px" height="80px" viewBox="0 0 153 80" version="1.1" xmlns="http://www.w3.org/2000/svg" xmlns:xlink="http://www.w3.org/1999/xlink">
    <!-- Generator: Sketch 50 (54983) - http://www.bohemiancoding.com/sketch -->
    <title>AMG-GT-S</title>
    <desc>Created with Sketch.</desc>
    <defs></defs>
    <g id="Page-1" stroke="none" stroke-width="1" fill="none" fill-rule="evenodd">
        <g id="AMG-C63-Headline&amp;Subheadline-D" transform="translate(-68.000000, 0.000000)" fill="#FFFFFF">
            <g id="AMG-GT-S" transform="translate(62.000000, 0.000000)">
                <rect id="Rectangle-Copy-4" x="67" y="79" width="30" height="1"></rect>
                <path d="M33.355957,30.8847656 L34.5371094,31.5854492 C34.68392,31.6788742 34.7840167,31.7689612 34.8374023,31.8557129 C34.890788,31.9424646 34.9174805,32.0392247 34.9174805,32.1459961 C34.9174805,32.2527675 34.8107107,32.3728834 34.597168,32.5063477 L33.8964844,32.9467773 C32.8154243,34.7218513 31.6676493,36.5102449 30.453125,38.3120117 L31.8945312,39.2929688 C32.014649,39.3863937 32.1013995,39.4798172 32.1547852,39.5732422 C32.2081708,39.6666671 32.2315267,39.7600907 32.2248535,39.8535156 C32.2181803,39.9469406 32.1347664,40.0737297 31.9746094,40.2338867 L31.1337891,41.0146484 L31.1337891,58.2314453 L31.2338867,62.0751953 C31.180501,62.288738 31.1037603,62.468912 31.0036621,62.6157227 C30.903564,62.7625333 30.663332,62.8859858 30.282959,62.986084 C29.902586,63.0861821 29.5222187,63.1462401 29.1418457,63.1662598 C28.7614727,63.1862794 28.5412601,63.129558 28.4812012,62.9960938 C28.4211423,62.8626295 28.3911133,62.64909 28.3911133,62.3554688 L28.4711914,57.4506836 L28.4711914,41.074707 C26.2957248,44.0109196 24.4806388,46.213046 23.0258789,47.6811523 C21.571119,49.1492586 20.0429768,50.5439387 18.4414062,51.8652344 L17.4003906,52.7260742 C17.3069657,52.8061527 17.2235518,52.8428549 17.1501465,52.8361816 C17.0767412,52.8295084 17.033366,52.8061525 17.0200195,52.7661133 C17.0066731,52.726074 17,52.6459967 17,52.5258789 C17,52.4057611 17.0800773,52.2522796 17.2402344,52.0654297 L18.1010742,51.0844727 C20.50343,48.3884956 22.8857304,45.0652867 25.2480469,41.1147461 C27.6103634,37.1642055 29.4321225,33.7542461 30.7133789,30.8847656 L17.6806641,30.8847656 C17.4537749,30.8847656 17.3369955,30.7045916 17.3303223,30.3442383 C17.3236491,29.9838849 17.4404285,29.8037109 17.6806641,29.8037109 L37.6801758,29.8037109 L38.9814453,27.4213867 C39.2350273,26.9409156 39.3885088,26.7040201 39.4418945,26.7106934 C39.4952802,26.7173666 39.6420886,26.8541653 39.8823242,27.1210938 L42.5649414,30.1640625 C42.6450199,30.2574874 42.7084145,30.3575841 42.755127,30.4643555 C42.8018394,30.5711268 42.8251953,30.6378579 42.8251953,30.6645508 C42.8251953,30.8113614 42.6917331,30.8847656 42.4248047,30.8847656 L33.355957,30.8847656 Z M33.0556641,41.6352539 C33.0823569,41.4884433 33.1524246,41.3983563 33.2658691,41.3649902 C33.3793137,41.3316242 33.5094394,41.348307 33.65625,41.4150391 L34.6171875,41.8354492 C35.0709658,42.048992 35.6882285,42.3893206 36.4689941,42.8564453 C37.2497598,43.32357 38.0605427,43.92415 38.9013672,44.6582031 C39.7421917,45.3922563 40.5729939,46.4232518 41.3937988,47.7512207 C42.2146037,49.0791896 42.5415861,50.4371675 42.3747559,51.8251953 C42.2079256,53.2132231 41.6440478,53.8805341 40.6831055,53.8271484 C40.4161771,53.813802 40.1225602,53.6403011 39.8022461,53.3066406 C39.481932,52.9729801 38.9514197,51.6550408 38.2106934,49.3527832 C37.469967,47.0505256 36.5490778,45.3188535 35.447998,44.1577148 C34.3469183,42.9965762 33.6662611,42.3292652 33.4060059,42.1557617 C33.1457507,41.9822582 33.0289712,41.8087574 33.0556641,41.6352539 Z M67.4086914,34.328125 L68.75,32.1660156 C68.8434249,32.019205 68.8968098,31.9491373 68.9101562,31.9558105 C68.9235027,31.9624838 69.0102531,32.0592439 69.1704102,32.2460938 L71.4526367,35.0688477 C71.5193688,35.1622726 71.5527344,35.2290037 71.5527344,35.269043 C71.5260415,35.3891608 71.4259449,35.4492188 71.2524414,35.4492188 L46.96875,35.4492188 C46.7285144,35.4492188 46.5983888,35.2623717 46.5783691,34.8886719 C46.5583495,34.5149721 46.6751289,34.328125 46.9287109,34.328125 L67.4086914,34.328125 Z M63.2446289,39.4331055 L64.3657227,37.53125 C64.4858404,37.3444001 64.5458984,37.2443035 64.5458984,37.230957 C64.5859377,37.2443035 64.6526688,37.2910152 64.7460938,37.3710938 L67.0083008,40.0737305 C67.0750329,40.1671554 67.1083984,40.2338865 67.1083984,40.2739258 C67.0817056,40.40739 66.9816089,40.4741211 66.8081055,40.4741211 L50.5322266,40.4741211 C50.2652981,40.4741211 50.138509,40.3006202 50.1518555,39.9536133 C50.1652019,39.6066063 50.2719717,39.4331055 50.472168,39.4331055 L63.2446289,39.4331055 Z M63.625,44.0175781 L64.7460938,42.2958984 C64.8128259,42.1757806 64.8862301,42.1223958 64.9663086,42.1357422 C64.9663086,42.1490886 65.0130204,42.2024735 65.1064453,42.2958984 L67.1083984,44.6582031 C67.188477,44.7649745 67.2351887,44.8317056 67.2485352,44.8583984 C67.2618816,44.8850913 67.2685547,44.9117837 67.2685547,44.9384766 C67.2552083,45.0452479 67.2018234,45.0986328 67.1083984,45.0986328 L50.6723633,45.0986328 C50.3387028,45.0986328 50.1985674,44.9184588 50.2519531,44.5581055 C50.3053388,44.1977521 50.4254548,44.0175781 50.6123047,44.0175781 L63.625,44.0175781 Z M53.7553711,59.3325195 L53.7553711,61.0942383 C53.7553711,61.2944346 53.6853034,61.4879548 53.545166,61.6748047 C53.4050286,61.8616546 53.1481138,62.0017899 52.7744141,62.0952148 C52.4007143,62.1886398 52.140463,62.2286785 51.9936523,62.215332 C51.6466454,62.215332 51.4531252,62.1486009 51.4130859,62.0151367 C51.3730467,61.8816725 51.3496908,61.7682296 51.3430176,61.6748047 C51.3363444,61.5813797 51.3396809,61.5079755 51.3530273,61.4545898 L51.4331055,58.4316406 L51.4331055,51.0844727 L51.3530273,47.7211914 C51.3663738,47.6411129 51.3830565,47.5944011 51.4030762,47.5810547 C51.4230958,47.5677083 51.5131828,47.6210931 51.6733398,47.7412109 L53.8154297,49.3027344 L63.9052734,49.3027344 L64.565918,48.0214844 C64.6193037,47.9280594 64.669352,47.8846842 64.7160645,47.8913574 C64.7627769,47.8980306 64.8395177,47.9414058 64.9462891,48.0214844 L67.1083984,49.8432617 C67.188477,49.9233402 67.2351887,49.9900713 67.2485352,50.043457 L67.2485352,50.1035156 C67.2485352,50.1435549 67.2451986,50.1702473 67.2385254,50.1835938 C67.2318522,50.1969402 67.2084963,50.2303057 67.168457,50.2836914 L66.4077148,51.2646484 L66.4077148,58.1713867 L66.4677734,60.59375 C66.4410806,60.7405606 66.3810226,60.9607733 66.2875977,61.2543945 C66.1941727,61.5480158 65.8037958,61.6981608 65.1164551,61.704834 C64.4291144,61.7115072 64.0554202,61.6614589 63.9953613,61.5546875 C63.9353024,61.4479161 63.9052734,61.2944346 63.9052734,61.0942383 L63.9052734,59.3325195 L53.7553711,59.3325195 Z M63.9052734,58.2514648 L63.9052734,50.4238281 L53.7553711,50.4238281 L53.7553711,58.2514648 L63.9052734,58.2514648 Z M56.3979492,26.0600586 C56.4513349,26.0200193 56.5314122,26 56.6381836,26 C57.0118834,26.0533857 57.5357225,26.283608 58.2097168,26.6906738 C58.8837111,27.0977397 59.4509254,27.6315885 59.911377,28.2922363 C60.3718285,28.9528842 60.5620121,29.8904562 60.4819336,31.1049805 C60.4018551,32.3195048 59.8813525,32.9000654 58.9204102,32.8466797 C58.2130498,32.8199868 57.799317,32.4829948 57.6791992,31.8356934 C57.5590814,31.1883919 57.4956869,30.5010616 57.4890137,29.7736816 C57.4823405,29.0463017 57.39559,28.4223659 57.2287598,27.9018555 C57.0619295,27.3813451 56.878419,27.014324 56.6782227,26.8007812 C56.4780263,26.5872385 56.3612469,26.4304204 56.3278809,26.3303223 C56.2945148,26.2302241 56.3178707,26.1401371 56.3979492,26.0600586 Z M101.200684,31.7856445 L90.9106445,31.7856445 C90.7905267,31.7456053 90.7004398,31.6855473 90.6403809,31.6054688 C90.580322,31.5253902 90.5536295,31.3518894 90.5603027,31.0849609 C90.5669759,30.8180325 90.6837554,30.6845703 90.9106445,30.6845703 L111.410645,30.6845703 L112.491699,28.7226562 C112.611817,28.4824207 112.721923,28.3589681 112.822021,28.3522949 C112.92212,28.3456217 113.092284,28.4690743 113.33252,28.7226562 L115.254395,30.9248047 C115.414552,31.125001 115.507975,31.2551267 115.534668,31.3151855 C115.561361,31.3752444 115.574707,31.468668 115.574707,31.595459 C115.574707,31.72225 115.421225,31.7856445 115.114258,31.7856445 L103.623047,31.7856445 L104.423828,32.2460938 C104.530599,32.3128259 104.600667,32.3762204 104.634033,32.4362793 C104.667399,32.4963382 104.684082,32.5664058 104.684082,32.6464844 C104.684082,32.7265629 104.563966,32.8400058 104.32373,32.9868164 L103.623047,33.4072266 C103.369465,34.0211619 103.182618,34.4816065 103.0625,34.7885742 L102.22168,37.0507812 L101.621094,38.5722656 L110.249512,38.5722656 L110.910156,37.3310547 C111.04362,37.0507798 111.143717,36.9139811 111.210449,36.9206543 C111.277181,36.9273275 111.42399,37.0240876 111.650879,37.2109375 L113.512695,38.8525391 C113.659506,38.9860033 113.749593,39.0827634 113.782959,39.1428223 C113.816325,39.2028812 113.829671,39.2629392 113.822998,39.322998 C113.816325,39.3830569 113.732911,39.5131826 113.572754,39.7133789 L113.032227,40.394043 L113.032227,59.9130859 C113.032227,60.3802107 112.798668,60.8006166 112.331543,61.1743164 C111.864418,61.5480162 111.393964,61.8249503 110.920166,62.005127 C110.446368,62.1853036 110.129395,62.2687175 109.969238,62.2553711 C109.902506,62.2553711 109.859131,62.2453614 109.839111,62.2253418 C109.819092,62.2053222 109.802409,62.1652835 109.789063,62.1052246 C109.775716,62.0451657 109.755697,61.8750014 109.729004,61.5947266 C109.702311,61.3144517 109.612224,60.9274113 109.45874,60.4335938 C109.305256,59.9397762 108.974937,59.5594089 108.467773,59.2924805 L107.687012,58.8920898 C107.500162,58.7986649 107.406738,58.6785489 107.406738,58.5317383 C107.406738,58.4783526 107.433431,58.4216312 107.486816,58.3615723 C107.540202,58.3015134 107.606933,58.2714844 107.687012,58.2714844 L108.567871,58.3515625 C109.515467,58.4449874 110.062662,58.4149584 110.209473,58.2614746 C110.356283,58.1079908 110.429688,57.851076 110.429688,57.4907227 L110.429688,39.7133789 L106.846191,39.7133789 L106.425781,40.394043 L106.425781,56.8500977 L106.505859,59.3925781 C106.292317,60.1933634 105.771814,60.5870769 104.944336,60.5737305 C104.637368,60.5737305 104.440512,60.5103359 104.35376,60.3835449 C104.267008,60.2567539 104.19694,60.0999358 104.143555,59.9130859 L104.223633,55.8891602 L104.223633,39.7133789 L101.34082,39.7133789 L101.080566,40.1538086 L101.080566,56.2094727 L101.160645,59.2124023 C100.987141,60.0398804 100.62012,60.4569498 100.05957,60.463623 C99.4990206,60.4702963 99.1687017,60.4202479 99.0686035,60.3134766 C98.9685054,60.2067052 98.8984377,60.0865892 98.8583984,59.953125 L98.9384766,55.2685547 L98.9384766,39.7133789 L95.4951172,39.7133789 L95.4951172,60.9741211 C95.4951172,61.160971 95.4150399,61.4045395 95.2548828,61.704834 C95.0947258,62.0051285 94.7543971,62.1986487 94.2338867,62.2854004 C93.7133763,62.3721521 93.3964036,62.3521328 93.282959,62.2253418 C93.1695144,62.0985508 93.0794274,61.9417327 93.0126953,61.7548828 L93.1328125,56.0893555 L93.1328125,42.2358398 L93.0126953,36.6704102 C93.0794274,36.5903316 93.1328123,36.5469564 93.1728516,36.5402832 C93.2128908,36.53361 93.346353,36.6170239 93.5732422,36.7905273 L95.7753906,38.5722656 L100.05957,38.5722656 C100.339845,36.9706951 100.520019,35.9497092 100.600098,35.5092773 C100.680176,35.0688455 100.880369,33.8276469 101.200684,31.7856445 Z M128.666992,43.4570312 L129.407715,43.4570312 L129.888184,42.5761719 C130.061687,42.2692042 130.16512,42.1123861 130.198486,42.1057129 C130.231852,42.0990397 130.328612,42.1824536 130.48877,42.355957 L132.250488,44.3979492 C132.35726,44.5447598 132.410645,44.6682124 132.410645,44.7683105 C132.410645,44.8684087 132.330567,45.0052075 132.17041,45.1787109 L131.609863,45.7993164 C131.543131,46.960455 131.483073,48.0381623 131.429688,49.0324707 C131.376302,50.0267791 131.292888,51.1311788 131.179443,52.3457031 C131.065999,53.5602274 130.909181,54.7480411 130.708984,55.9091797 C130.508788,57.0703183 130.248537,58.0812945 129.928223,58.9421387 C129.607909,59.8029828 129.244224,60.38688 128.837158,60.6938477 C128.430092,61.0008153 127.962975,61.281086 127.435791,61.534668 C126.908607,61.78825 126.498211,61.908366 126.20459,61.8950195 C126.137858,61.8950195 126.071127,61.8783368 126.004395,61.8449707 C125.937662,61.8116047 125.887614,61.5213244 125.854248,60.9741211 C125.820882,60.4269178 125.627362,59.923098 125.273682,59.4626465 C124.920001,59.002195 124.56299,58.6652029 124.202637,58.4516602 L123.441895,58.03125 C123.34847,57.9912107 123.308431,57.9044603 123.321777,57.7709961 C123.321777,57.7443033 123.331787,57.6809087 123.351807,57.5808105 C123.371826,57.4807124 123.448567,57.4373372 123.582031,57.4506836 L124.703125,57.6708984 C126.184578,57.9645197 127.238929,57.7676629 127.866211,57.0803223 C128.493493,56.3929816 128.88387,54.6212708 129.037354,51.7651367 C129.190837,48.9090026 129.280924,47.113936 129.307617,46.3798828 C129.33431,45.6458297 129.347656,45.1787119 129.347656,44.9785156 L129.347656,44.5380859 L122.601074,44.5380859 L122.260742,45.3989258 C122.113932,45.785972 122.007162,45.9895019 121.94043,46.0095215 C121.873698,46.0295411 121.720216,45.9127617 121.47998,45.6591797 L120.158691,44.3979492 C120.038574,44.2911779 119.978516,44.2111005 119.978516,44.1577148 L119.978516,44.0576172 L120.158691,43.7973633 L120.779297,42.7563477 C120.832683,42.2091444 120.879394,41.7954116 120.919434,41.5151367 L121.199707,36.9907227 L121.47998,33.2871094 L121.540039,31.5854492 L121.600098,30.2041016 C121.640137,30.1373695 121.676839,30.0973308 121.710205,30.0839844 C121.743571,30.070638 121.887043,30.1373691 122.140625,30.2841797 L124.202637,31.5053711 C124.482912,31.6788746 124.609701,31.825683 124.583008,31.9458008 C124.556315,32.0659186 124.429526,32.2194001 124.202637,32.40625 L123.702148,32.8266602 C123.555338,34.7218519 123.448568,36.1365513 123.381836,37.0708008 L123.101562,40.2539062 L122.841309,43.4570312 L126.404785,43.4570312 L127.425781,29.203125 L120.579102,29.203125 C120.365559,29.203125 120.235433,29.0196145 120.188721,28.6525879 C120.142008,28.2855613 120.272134,28.1020508 120.579102,28.1020508 L127.285645,28.1020508 L127.946289,26.8208008 C128.173178,26.3803689 128.31665,26.1701659 128.376709,26.1901855 C128.436768,26.2102052 128.533528,26.2936191 128.666992,26.4404297 L130.248535,28.2021484 C130.422039,28.4023448 130.508789,28.5825187 130.508789,28.7426758 C130.495443,28.8094079 130.482096,28.8627928 130.46875,28.902832 C130.455404,28.9428713 130.381999,29.0429679 130.248535,29.203125 L129.647949,29.9638672 L128.666992,43.4570312 Z M133.211426,31.0449219 L131.32959,31.0449219 C131.116047,31.0449219 131.002604,30.8647479 130.989258,30.5043945 C130.975911,30.1440412 131.089354,29.9638672 131.32959,29.9638672 L140.158203,29.9638672 L140.878906,28.6425781 C141.01237,28.4023425 141.092448,28.27889 141.119141,28.2722168 C141.145833,28.2655436 141.225911,28.3289381 141.359375,28.4624023 L143.321289,30.6245117 C143.481446,30.824708 143.561523,30.9948723 143.561523,31.1350098 C143.561523,31.2751472 143.481446,31.4119459 143.321289,31.5454102 L142.540527,32.2661133 C142.42041,33.2937877 142.300294,34.2380328 142.180176,35.098877 C142.060058,35.9597211 141.873211,37.1141692 141.619629,38.5622559 C141.366047,40.0103425 141.122478,41.2748969 140.888916,42.355957 C140.655354,43.4370171 140.351727,44.6915619 139.978027,46.1196289 C139.604328,47.5476959 139.370769,48.395181 139.277344,48.6621094 L138.696777,50.1235352 C139.404138,51.4982165 140.174882,52.6927033 141.009033,53.7070312 C141.843185,54.7213592 142.493813,55.4554014 142.960938,55.9091797 C143.428062,56.362958 144.122066,56.8701144 145.042969,57.4306641 L145.943848,57.9912109 C146.01058,58.0445966 146.050618,58.1046546 146.063965,58.1713867 L146.063965,58.2915039 C146.063965,58.3448896 146.060628,58.3949379 146.053955,58.4416504 C146.047282,58.4883629 146.01058,58.5183919 145.943848,58.5317383 L145.383301,58.671875 C144.622555,58.8720713 144.062014,59.3158332 143.70166,60.0031738 C143.341307,60.6905145 143.127767,61.0275066 143.061035,61.0141602 C143.007649,61.0141602 142.940918,60.9674484 142.86084,60.8740234 L142.360352,60.4135742 C141.679684,59.7595996 140.878911,58.7519599 139.958008,57.390625 C139.037105,56.0292901 138.162927,54.5545327 137.335449,52.9663086 C136.708167,54.0340223 136.12427,54.9348922 135.58374,55.6689453 C135.04321,56.4029985 134.255783,57.343907 133.221436,58.4916992 C132.187088,59.6394914 131.136073,60.5603806 130.068359,61.2543945 L129.748047,61.4545898 C129.521158,61.6014005 129.407715,61.5780446 129.407715,61.3845215 C129.407715,61.1909984 129.447754,61.0475265 129.527832,60.9541016 L130.108398,60.3134766 L131.249512,59.0922852 C131.609865,58.6651997 132.063637,58.0646198 132.61084,57.2905273 C133.158043,56.5164349 133.588459,55.855797 133.9021,55.3085938 C134.215741,54.7613905 134.606117,54.0240118 135.073242,53.0964355 C135.540367,52.1688593 135.833984,51.5315773 135.954102,51.1845703 L136.214355,50.4238281 C135.506995,48.421865 134.979819,46.7168853 134.632812,45.3088379 C134.285806,43.9007905 133.998862,42.1657818 133.771973,40.1037598 C133.545084,38.0417377 133.398275,36.3634505 133.331543,35.0688477 L133.231445,31.4853516 L133.211426,31.0449219 Z M133.751953,31.0449219 C133.845378,32.4196032 133.992186,33.7575619 134.192383,35.0588379 C134.392579,36.3601139 134.696206,37.9883529 135.103271,39.9436035 C135.510337,41.8988542 135.840656,43.2401494 136.094238,43.9675293 C136.34782,44.6949092 136.75488,45.7792897 137.31543,47.2207031 C137.50228,46.5533821 137.662434,45.9661484 137.795898,45.4589844 C137.929363,44.9518204 138.11621,44.144374 138.356445,43.0366211 C138.596681,41.9288682 138.880288,40.467457 139.207275,38.6523438 C139.534263,36.8372305 139.851235,34.3014486 140.158203,31.0449219 L133.751953,31.0449219 Z M121.179687,54.2275391 L120.158691,51.8051758 C120.038574,51.5249009 119.981852,51.3647463 119.988525,51.324707 C119.995199,51.2846678 120.018554,51.237956 120.058594,51.1845703 L120.859375,51.0444336 L121.800293,50.8041992 C122.013836,50.7508135 122.924715,50.4305042 124.532959,49.8432617 C126.141203,49.2560192 127.058755,48.9023444 127.285645,48.7822266 L128.126465,48.3618164 C128.353354,48.255045 128.470133,48.3017568 128.476807,48.5019531 C128.48348,48.7021494 128.420085,48.8489579 128.286621,48.9423828 L127.625977,49.4829102 L124.843262,51.8652344 L122.601074,53.7070312 L121.760254,54.4677734 L121.5,54.7280273 C121.446614,54.7680666 121.399903,54.7680666 121.359863,54.7280273 L121.179687,54.2275391 Z" id="不言-而驭"></path>
                <path d="M13.7934815,11.6484375 C13.7934815,11.5117181 13.8652581,11.4877925 14.0088135,11.5766602 C14.6308869,11.9799825 15.0034418,12.3542463 15.1264893,12.6994629 C15.2495368,13.0446795 15.2973878,13.3505846 15.270044,13.6171875 C15.249536,13.8154307 15.1931401,13.9914543 15.1008545,14.1452637 C15.0085689,14.299073 14.8633067,14.3811035 14.6650635,14.3913574 C14.4668203,14.4016114 14.3198491,14.3110361 14.2241455,14.1196289 C14.1694577,14.0307613 14.1352784,13.9179694 14.1216065,13.78125 C14.1079345,13.6445306 14.1028076,13.4394545 14.1062256,13.1660156 C14.1096436,12.8925768 14.1010987,12.6840827 14.0805908,12.5405273 C14.0600829,12.4448237 14.0071049,12.273927 13.9216553,12.027832 C13.8362056,11.7817371 13.7934815,11.6552735 13.7934815,11.6484375 Z M13.8652588,7.32128906 C13.9062746,7.26660129 14.0276113,7.30078063 14.2292725,7.42382812 C14.4309336,7.54687562 14.6103752,7.66479436 14.7676025,7.77758789 C14.9248299,7.89038142 15.0564204,8.04589745 15.1623779,8.24414062 C15.2683355,8.4423838 15.3366942,8.66796749 15.3674561,8.92089844 C15.3982179,9.17382939 15.3623296,9.41308481 15.25979,9.63867188 C15.1572505,9.86425894 15.0000255,9.98217768 14.7881104,9.99243164 C14.5761952,10.0026856 14.4189702,9.90185653 14.3164307,9.68994141 C14.2617429,9.58056586 14.2309815,9.4062512 14.2241455,9.16699219 L14.2036377,8.66455078 C14.1831298,8.28173637 14.121607,7.99975677 14.0190674,7.81860352 C13.9165278,7.63745027 13.8618409,7.51440462 13.8550049,7.44946289 C13.8481689,7.38452116 13.8515869,7.34179698 13.8652588,7.32128906 Z M8.26662599,5.71142578 L6.18508302,5.71142578 C6.0688715,5.71142578 6.00734868,5.61743258 6.0005127,5.42944336 C5.99367673,5.24145414 6.05519956,5.14746094 6.18508302,5.14746094 L8.27687989,5.14746094 L8.27687989,2.04052734 L8.23586427,0.379394531 C8.25637218,0.352050645 8.27346185,0.334960972 8.2871338,0.328125 C8.30080574,0.321289028 8.37941824,0.34521457 8.52297364,0.399902344 L9.7739502,0.881835938 C9.91066964,0.936523711 9.91066964,1.04247968 9.7739502,1.19970703 L9.38430177,1.66113281 L9.38430177,5.14746094 L9.72268067,5.14746094 L10.0713135,4.53222656 C10.1601811,4.38183519 10.219995,4.30151372 10.2507568,4.29125977 C10.2815187,4.28100581 10.4131092,4.40576042 10.6455322,4.66552734 L11.0864502,5.17822266 C11.2505135,5.38330181 11.3188722,5.52514609 11.2915283,5.60375977 C11.2641844,5.68237344 11.2129154,5.72167969 11.1377197,5.72167969 L9.38430177,5.72167969 L9.38430177,8.22363281 C10.2798141,8.51757959 10.7993401,8.88329859 10.9428955,9.32080078 C11.0864509,9.75830297 11.1479737,10.0624991 11.1274658,10.2333984 L11.106958,10.387207 L11.7734619,10.387207 C11.7802979,10.2846675 11.7837158,10.206055 11.7837158,10.1513672 L11.8862549,8.78759766 C11.9341067,8.06982063 11.9648681,7.50927936 11.97854,7.10595703 L12.0093018,6.10107422 C11.8178946,6.47021669 11.5991467,6.87011503 11.3530518,7.30078125 L11.0659424,7.80322266 C10.9839107,7.95361403 10.91897,8.00659202 10.8711182,7.9621582 C10.8232664,7.91772439 10.8232664,7.82373119 10.8711182,7.68017578 L11.0761963,7.0546875 C11.2470956,6.51464574 11.4214103,5.90112648 11.5991455,5.21411133 C11.7768808,4.52709617 11.9033444,4.01953289 11.97854,3.69140625 L12.2143799,2.64550781 C12.3305914,2.11230202 12.402368,1.75683683 12.4297119,1.57910156 L12.5630127,0.758789063 L12.6040283,0.440917969 C12.6177003,0.420410054 12.6416258,0.406738315 12.6758057,0.399902344 L12.9424072,0.594726563 L14.0908447,1.34326172 C14.1865483,1.41162144 14.2395263,1.48510703 14.2497803,1.5637207 C14.2600342,1.64233438 14.2036383,1.72265584 14.0805908,1.8046875 L13.8652588,1.94824219 L13.1372315,3.67089844 L16.9721924,3.67089844 L17.4233643,2.74804688 C17.4712161,2.63867133 17.5122313,2.57885747 17.5464111,2.56860352 C17.580591,2.55834956 17.63186,2.59081994 17.7002197,2.66601563 L18.7461182,3.84521484 C18.8213139,3.94091845 18.8537842,4.02636681 18.8435303,4.1015625 C18.8332763,4.17675819 18.8008059,4.21435547 18.7461182,4.21435547 L18.1001221,4.21435547 L18.1001221,4.22460938 L12.9013916,4.22460938 L12.2143799,5.72167969 L13.2602783,6.41894531 L16.4389893,6.41894531 L16.7466065,5.72167969 C16.8012942,5.59179623 16.8423094,5.52172857 16.8696533,5.51147461 C16.8969972,5.50122065 16.961938,5.54394483 17.0644775,5.63964844 L17.997583,6.52148438 C18.0659427,6.59668006 18.101831,6.66674772 18.105249,6.73168945 C18.108667,6.79663118 18.0659428,6.87695265 17.9770752,6.97265625 L17.7002197,7.28027344 L17.6079346,10.387207 L17.7104736,10.387207 L18.0385986,9.79248047 C18.1411382,9.59423729 18.2129148,9.49340822 18.2539307,9.48999023 C18.2949465,9.48657225 18.3633052,9.53955023 18.4590088,9.64892578 L19.1767822,10.5307617 C19.2519779,10.6401373 19.2861573,10.7341305 19.2793213,10.8127441 C19.2724853,10.8913578 19.2417239,10.9306641 19.1870361,10.9306641 L18.212915,10.9306641 L18.212915,10.940918 L17.5874268,10.940918 C17.5805908,11.0981453 17.572046,11.4433567 17.561792,11.9765625 C17.551538,12.5097683 17.5361573,12.9985329 17.5156494,13.4428711 L17.454126,14.550293 L17.454126,14.7758789 L17.5156494,14.7758789 L17.88479,14.0375977 C17.9463138,13.9145502 17.9907469,13.8496094 18.0180908,13.8427734 C18.0454347,13.8359375 18.1103755,13.8906244 18.212915,14.0068359 L18.869165,14.7553711 C19.0537363,14.9741222 19.1340577,15.1210934 19.1101318,15.1962891 C19.0862059,15.2714848 19.0434818,15.309082 18.981958,15.309082 L17.782251,15.309082 L17.782251,15.3398438 L17.4028565,15.3398438 C17.3755126,15.510743 17.3567139,15.6474604 17.34646,15.75 C17.336206,15.8525396 17.3225343,15.9755852 17.3054443,16.1191406 C17.2883544,16.262696 17.2405033,16.5002425 17.1618897,16.8317871 C17.083276,17.1633317 16.9892828,17.4401844 16.8799072,17.6623535 C16.7705317,17.8845226 16.5927991,18.1049794 16.3467041,18.3237305 C16.1006091,18.5424816 15.8066668,18.675781 15.4648682,18.7236328 C15.3828365,18.7373048 15.3298585,18.7355958 15.3059326,18.7185059 C15.2820067,18.7014159 15.2512453,18.593751 15.2136475,18.3955078 C15.1760496,18.1972646 15.1093999,18.0109872 15.0136963,17.8366699 C14.9179927,17.6623526 14.8325443,17.5427249 14.7573486,17.4777832 C14.682153,17.4128415 14.5830329,17.3461917 14.4599854,17.277832 L14.0498291,17.0625 C14.0019773,17.0419921 13.967798,17.0095217 13.94729,16.9650879 C13.9267821,16.9206541 13.9233642,16.872803 13.9370361,16.8215332 C13.9507081,16.7702634 13.9917233,16.7480468 14.060083,16.7548828 L14.4804932,16.8369141 C15.1504184,16.9736335 15.5691154,16.9428721 15.7365967,16.7446289 C15.904078,16.5463857 16.0219967,16.2626972 16.0903565,15.8935547 L16.1723877,15.3398438 L12.4912354,15.3398438 L12.2143799,15.8012695 C12.1186763,15.9584969 12.0571535,16.0405273 12.0298096,16.0473633 C12.0024657,16.0541993 11.9443608,16.0097661 11.8554932,15.9140625 L11.2402588,15.2783203 C11.0761955,15.107421 10.9924561,15.004883 10.9890381,14.9707031 C10.9856201,14.9365233 10.990747,14.9023439 11.004419,14.8681641 L11.1992432,14.6630859 L11.3940674,14.4169922 C11.4760991,13.6992152 11.5410398,13.1096214 11.5888916,12.6481934 C11.6367434,12.1867653 11.6811766,11.6176792 11.7221924,10.940918 L10.9223877,10.940918 C10.7651604,11.1049813 10.6028085,11.1853028 10.4353272,11.1818848 C10.2678459,11.1784668 10.1448002,11.113526 10.0661865,10.9870605 C9.98757286,10.8605951 9.94143074,10.7238777 9.9277588,10.5769043 C9.91408685,10.4299309 9.90554202,10.2231459 9.90212403,9.95654297 C9.89870605,9.68994007 9.87307154,9.45239362 9.82521974,9.24389648 C9.77736793,9.03539935 9.70559131,8.89013713 9.6098877,8.80810547 L9.38430177,8.60302734 L9.38430177,15.8935547 L9.4458252,18.046875 C9.42531729,18.1425786 9.40139175,18.2211911 9.37404786,18.2827148 C9.34670397,18.3442386 9.26809148,18.4211421 9.13820802,18.5134277 C9.00832456,18.6057134 8.84255473,18.6569824 8.64089356,18.6672363 C8.4392324,18.6774903 8.31618675,18.639893 8.27175294,18.5544434 C8.22731912,18.4689937 8.19826668,18.3647467 8.18459474,18.2416992 L8.24611817,16.2114258 L8.24611817,10.828125 L7.65651856,11.9816895 C7.42067754,12.4431175 7.20705663,12.8464338 7.01564942,13.1916504 C6.82424222,13.536867 6.6994876,13.7658686 6.64138185,13.8786621 C6.58327609,13.9914556 6.5405519,14.0683592 6.51320802,14.109375 L6.30812989,14.4477539 C6.24660615,14.5502935 6.19191919,14.575928 6.14406739,14.5246582 C6.09621559,14.4733884 6.09621559,14.3862311 6.14406739,14.2631836 L6.34914552,13.6787109 C6.85500742,12.2705008 7.26515957,10.8452221 7.57961427,9.40283203 C7.89406896,7.96044201 8.12307058,6.72998556 8.26662599,5.71142578 Z M12.5425049,14.7758789 L16.2339111,14.7758789 C16.2339111,14.7075192 16.2458739,14.5896004 16.2697998,14.4221191 C16.2937257,14.2546378 16.3159423,13.8872099 16.3364502,13.3198242 L16.4184815,10.940918 L12.8808838,10.940918 L12.5425049,14.7758789 Z M12.9116455,10.387207 L16.4492432,10.387207 C16.4492432,10.1957998 16.4509521,10.0522466 16.4543701,9.95654297 C16.4577881,9.86083937 16.462915,9.63696465 16.469751,9.28491211 C16.476587,8.93285957 16.4782959,8.52954329 16.4748779,8.07495117 C16.47146,7.62035906 16.469751,7.33496152 16.469751,7.21875 L16.469751,6.99316406 L13.1577393,6.99316406 L12.9116455,10.387207 Z M23.7446045,3.33251953 L23.7497314,3.33251953 L24.6623291,3.59912109 C24.8605722,3.66064484 24.9733641,3.70507799 25.000708,3.73242188 C25.0280519,3.75976576 25.0434326,3.79052717 25.0468505,3.82470703 C25.0502685,3.85888689 24.9972905,3.94091732 24.887915,4.07080078 L24.6623291,4.34765625 L24.6623291,4.921875 L27.1335205,4.921875 L27.1335205,4.47070312 C27.1335205,4.01269302 27.1249756,3.73584032 27.1078857,3.64013672 C27.0907958,3.54443312 27.0856689,3.49999997 27.0925048,3.50683594 L27.3283447,3.45556641 L28.3947509,3.71191406 C28.5314704,3.74609392 28.604956,3.78027327 28.6152099,3.81445312 C28.6254639,3.84863298 28.6322997,3.87255853 28.6357177,3.88623047 C28.6391357,3.89990241 28.6271729,3.93408176 28.5998291,3.98876953 C28.5724852,4.0434573 28.5348879,4.09130839 28.4870361,4.13232422 L28.2204345,4.36816406 L28.2204345,4.921875 L28.8049072,4.921875 L29.0612548,4.51171875 C29.1979743,4.29296766 29.2868406,4.18017582 29.3278564,4.17333984 L29.5842041,4.47070312 L30.1789306,5.13720703 C30.2199465,5.18505883 30.2626706,5.25341752 30.3071045,5.34228516 C30.3515383,5.43115279 30.3019782,5.47558594 30.1584228,5.47558594 L28.2204345,5.47558594 L28.2204345,6.62402344 L28.9587158,6.62402344 L29.2560791,6.15234375 C29.3381107,6.01562432 29.3945066,5.94897459 29.4252685,5.95239258 C29.4560304,5.95581056 29.526098,6.02246029 29.6354736,6.15234375 L30.1174072,6.76757812 C30.2131108,6.89062562 30.2609619,6.98632778 30.2609619,7.0546875 C30.2609619,7.13671916 30.2199467,7.17773438 30.137915,7.17773438 L28.2204345,7.17773438 L28.2204345,8.40820312 L30.3429931,8.40820312 L30.7634033,7.70068359 C30.8727788,7.50927639 30.9531003,7.41699215 31.0043701,7.42382812 C31.0556399,7.4306641 31.1667227,7.52294833 31.337622,7.70068359 L32.0348877,8.46972656 C32.1784431,8.62695391 32.2502197,8.73632782 32.2502197,8.79785156 C32.2433837,8.83203142 32.226294,8.86621077 32.1989502,8.90039062 C32.1716063,8.93457048 32.1374269,8.95166016 32.0964111,8.95166016 L31.1735595,8.95166016 L31.1735595,8.97216797 L28.4562744,8.97216797 C28.5109621,9.04052769 28.6305899,9.19604371 28.8151611,9.4387207 C28.9997323,9.6813977 29.3910858,10.0283181 29.9892334,10.4794922 C30.5873809,10.9306663 31.3410355,11.2006831 32.2502197,11.2895508 L32.7526611,11.3408203 C32.8005129,11.3476563 32.8312743,11.3698729 32.8449463,11.4074707 C32.8586182,11.4450685 32.8654541,11.4689941 32.8654541,11.479248 C32.8654541,11.489502 32.8586182,11.5117186 32.8449463,11.5458984 C32.8312743,11.5800783 32.8141846,11.6040038 32.7936767,11.6176758 L32.5885986,11.7509766 C32.253636,11.9765636 32.0041268,12.268797 31.8400634,12.6276855 C31.6760001,12.9865741 31.5632083,13.1591798 31.5016845,13.1455078 C31.1803939,13.097656 30.5412401,12.6225631 29.5842041,11.7202148 L29.4406494,11.8740234 L29.4406494,13.4633789 L29.4919189,15.1655273 C29.478247,15.254395 29.4594483,15.3176268 29.4355224,15.3552246 C29.4115965,15.3928225 29.3466558,15.4423825 29.2406982,15.5039062 C29.1347406,15.56543 29.062964,15.6047362 29.0253662,15.6218262 C28.9877683,15.6389161 28.8783944,15.6560058 28.6972412,15.6730957 C28.5160879,15.6901856 28.405005,15.6679691 28.3639892,15.6064453 C28.3229734,15.5449216 28.3024658,15.4458015 28.3024658,15.309082 L28.3024658,11.1767578 L23.8522705,11.1767578 L23.8522705,15.7089844 C23.8522705,15.8251959 23.7804938,15.9448236 23.6369384,16.0678711 C23.493383,16.1909186 23.2917249,16.2524414 23.031958,16.2524414 C22.9089105,16.2592774 22.828589,16.2370608 22.7909912,16.185791 C22.7533933,16.1345212 22.7311768,16.0576177 22.7243408,15.9550781 L22.7653564,14.1811523 L22.7653564,11.5561523 C21.7946484,12.3217812 21.035867,12.854979 20.4889892,13.1557617 L19.9968017,13.4223633 C19.7848866,13.5385748 19.6515871,13.6035156 19.5968994,13.6171875 C19.5422116,13.6308594 19.5114502,13.6223146 19.5046142,13.5915527 C19.4977782,13.5607909 19.4943603,13.5317384 19.4943603,13.5043945 C19.5011963,13.4223629 19.5490474,13.3403324 19.637915,13.2583008 L19.9968017,12.9711914 L20.4274658,12.6020508 C20.9059838,12.1987285 21.4340547,11.6416051 22.0116943,10.9306641 C22.5893339,10.219723 22.9362543,9.74633907 23.0524658,9.51049805 C23.1686773,9.27465702 23.2677974,9.09521546 23.3498291,8.97216797 L20.0685791,8.97216797 C19.9523675,8.97216797 19.8891358,8.87817477 19.8788818,8.69018555 C19.8686278,8.50219633 19.9318596,8.40820312 20.0685791,8.40820312 L23.5959228,8.40820312 L23.5959228,7.17773438 L21.9963134,7.17773438 L21.8937744,7.14697266 C21.8459226,7.12646474 21.8083253,7.0974123 21.7809814,7.05981445 C21.7536375,7.02221661 21.7450927,6.94018618 21.7553466,6.8137207 C21.7656006,6.68725523 21.8185786,6.62402344 21.9142822,6.62402344 L23.5959228,6.62402344 L23.5959228,5.47558594 L22.0373291,5.47558594 L21.9450439,5.44482422 C21.8971921,5.4243163 21.8595948,5.39868179 21.8322509,5.36791992 C21.8049071,5.33715805 21.7946532,5.25512762 21.8014892,5.12182617 C21.8083252,4.98852472 21.8595942,4.921875 21.9552978,4.921875 L23.5959228,4.921875 L23.5959228,4.74755859 L23.5549072,3.39404297 L23.575415,3.33251953 L21.7912353,3.33251953 C21.7912353,3.43505911 21.7929443,3.53247024 21.7963623,3.62475586 C21.7997803,3.71704148 21.8031982,3.8725575 21.8066162,4.09130859 C21.8100342,4.31005969 21.7843996,4.54589717 21.7297119,4.79882812 C21.6750241,5.05859505 21.5673592,5.32006704 21.4067138,5.58325195 C21.2460685,5.84643686 21.0324476,5.97460941 20.7658447,5.96777344 C20.5060778,5.96777344 20.3112555,5.85669056 20.181372,5.63452148 C20.0514886,5.4123524 19.9848388,5.16284318 19.9814209,4.88598633 C19.9780029,4.60912948 20.0651602,4.34423955 20.2428955,4.09130859 C20.2565674,4.07080068 20.4052476,3.91357569 20.6889404,3.61962891 C20.9726332,3.32568212 21.1520748,2.97363486 21.2272705,2.56347656 L21.3093017,2.09179688 C21.3298096,1.9892573 21.36228,1.93457035 21.4067138,1.92773438 C21.4511476,1.9208984 21.5007077,1.99267503 21.5553955,2.14306641 L21.6681884,2.54296875 L21.7297119,2.74804688 L25.985083,2.74804688 C25.8210196,2.67285119 25.7013919,2.59423869 25.6261963,2.51220703 C25.5510006,2.43017537 25.4946046,2.33276424 25.4570068,2.2199707 C25.419409,2.10717717 25.366431,1.85425001 25.2980713,1.46118164 C25.2297115,1.06811327 25.09983,0.755372256 24.9084228,0.522949219 L24.7443603,0.328125 C24.6760006,0.252929312 24.6452392,0.179443718 24.6520752,0.107666016 C24.6589111,0.035888313 24.7238519,0 24.8468994,0 C25.2160418,0.0136719434 25.6364478,0.135008621 26.1081298,0.364013672 C26.5798119,0.593018723 26.8173583,0.904050769 26.8207763,1.29711914 C26.8241943,1.69018751 26.8019777,1.95507744 26.7541259,2.09179688 C26.6720943,2.31738394 26.5900638,2.45410132 26.5080322,2.50195312 L26.1593994,2.74804688 L30.3840088,2.74804688 L30.7018798,2.23535156 C30.8249273,2.03710838 30.9103757,1.93969725 30.9582275,1.94311523 C31.0060793,1.94653322 31.125707,2.05761609 31.3171142,2.27636719 L32.1989502,3.30175781 C32.4040293,3.54785279 32.4946046,3.73754816 32.4706787,3.87084961 C32.4467528,4.00415106 32.2929457,4.07763665 32.0092529,4.09130859 C31.7255601,4.10498054 31.4709239,4.14599575 31.2453369,4.21435547 C31.0197498,4.28271519 30.8249275,4.39208909 30.6608642,4.54248047 L30.3122314,4.87060547 C30.1550041,5.01416087 30.0746826,5.03637745 30.0712646,4.93725586 C30.0678466,4.83813427 30.0729735,4.77490248 30.0866455,4.74755859 L30.4045166,3.33251953 L23.7446045,3.33251953 Z M28.2306884,10.612793 C28.2853762,10.4760735 28.3417721,10.3786624 28.3998779,10.3205566 C28.4579837,10.2624509 28.5280513,10.2949213 28.610083,10.4179688 C28.3844959,9.87109102 28.2306888,9.38916224 28.1486572,8.97216797 L24.6008056,8.97216797 L24.8161377,9.12597656 C24.8844974,9.18066434 24.9340574,9.23022439 24.9648193,9.2746582 C24.9955812,9.31909202 25.0092529,9.3669431 25.0058349,9.41821289 C25.0024169,9.46948268 24.9596928,9.51904273 24.8776611,9.56689453 L24.6213134,9.72070312 L23.7804931,10.612793 L28.2306884,10.612793 Z M27.1335205,8.40820312 L27.1335205,7.17773438 L24.6623291,7.17773438 L24.6623291,8.40820312 L27.1335205,8.40820312 Z M27.1335205,6.62402344 L27.1335205,5.47558594 L24.6623291,5.47558594 L24.6623291,6.62402344 L27.1335205,6.62402344 Z M26.641333,12.7558594 C26.6139891,13.1728536 26.5763918,13.6940887 26.52854,14.3195801 C26.4806882,14.9450715 26.3576426,15.5312473 26.1593994,16.078125 C25.9611562,16.6250027 25.6535421,17.0505356 25.2365478,17.3547363 C24.8195535,17.6589371 24.3478786,17.9374987 23.8215088,18.1904297 C23.2951389,18.4433606 22.6594031,18.6416008 21.9142822,18.7851562 L21.2375244,18.918457 C21.1623287,18.9389649 21.095679,18.9475098 21.0375732,18.9440918 C20.9794674,18.9406738 20.9384522,18.9235841 20.9145263,18.8928223 C20.8906004,18.8620604 20.8786377,18.8193362 20.8786377,18.7646484 C20.8786377,18.7099607 20.912817,18.6621096 20.9811767,18.6210938 L21.2477783,18.5390625 L21.6989502,18.3852539 C22.2868437,18.1870107 22.8080787,17.9409194 23.2626709,17.6469727 C23.717263,17.3530259 24.0863999,17.0693373 24.3700927,16.7958984 C24.6537856,16.5224596 24.8759513,16.1430688 25.0365966,15.6577148 C25.197242,15.1723609 25.2946531,14.6989769 25.328833,14.2375488 C25.3630128,13.7761207 25.3835204,13.3095727 25.3903564,12.8378906 L25.4006103,11.7099609 C25.4006103,11.6621091 25.4057372,11.6313477 25.4159912,11.6176758 C25.4262451,11.6040038 25.4621334,11.6040038 25.5236572,11.6176758 L26.7643798,12.0073242 C26.8600834,12.0415041 26.9318601,12.0791014 26.9797119,12.1201172 C27.0275637,12.161133 27.0497803,12.2072751 27.0463623,12.2585449 C27.0429443,12.3098147 26.9968022,12.3833003 26.9079345,12.4790039 L26.641333,12.7558594 Z M26.6823486,15.9550781 C26.586645,15.9003904 26.5405029,15.8405765 26.5439209,15.7756348 C26.5473388,15.710693 26.6242424,15.6645509 26.7746338,15.637207 C26.8224856,15.6303711 26.8959711,15.6423338 26.9950927,15.6730957 C27.0942143,15.7038576 27.3676491,15.7397459 27.8154052,15.7807617 C28.2631614,15.8217775 28.8271206,15.9755846 29.5072998,16.2421875 C30.1874789,16.5087904 30.6232656,16.8078597 30.8146728,17.1394043 C31.00608,17.4709489 31.1017822,17.7700182 31.1017822,18.0366211 C31.1017822,18.303224 31.0539311,18.5390615 30.9582275,18.7441406 C30.8625239,18.9492198 30.7070079,19.0637206 30.4916748,19.0876465 C30.2763417,19.1115724 30.049049,18.9833998 29.80979,18.703125 C29.7619382,18.6552732 29.5363545,18.351077 29.1330322,17.7905273 C28.7297099,17.2299777 28.3400653,16.8369152 27.9640869,16.6113281 C27.5881084,16.3857411 27.3010019,16.2250981 27.1027588,16.1293945 L26.6823486,15.9550781 Z M37.3153564,3.51708984 C37.2264887,3.51025387 37.1666749,3.48974626 37.135913,3.45556641 C37.1051511,3.42138655 37.0812256,3.33081128 37.0641357,3.18383789 C37.0470457,3.0368645 37.1171134,2.96337891 37.2743407,2.96337891 L40.4633056,2.96337891 L40.4633056,1.74316406 L40.4325439,0.317871094 C40.4530518,0.270019292 40.4667235,0.240966848 40.4735595,0.230712891 C40.4803955,0.220458933 40.5521721,0.232421704 40.6888915,0.266601562 L41.8475829,0.584472656 C41.9364506,0.611816543 42.0099361,0.649413823 42.0680419,0.697265625 C42.1261477,0.745117427 42.158618,0.786132642 42.165454,0.8203125 L42.165454,0.840820312 C42.165454,0.868164199 42.163745,0.890380774 42.1603271,0.907470703 C42.1569091,0.924560632 42.1381104,0.950195142 42.1039306,0.984375 L41.6732665,1.46630859 L41.6322509,2.96337891 L43.7548095,2.96337891 L44.1752196,2.20458984 C44.2845952,1.99951069 44.3597897,1.87475608 44.4008056,1.83032227 C44.4418214,1.78588845 44.4913815,1.77905258 44.5494872,1.80981445 C44.607593,1.84057633 44.7152579,1.94482333 44.8724853,2.12255859 L45.6312743,3.00439453 C45.7611578,3.16845785 45.8260985,3.29492143 45.8260985,3.38378906 C45.8124266,3.47949267 45.7611576,3.52734375 45.67229,3.52734375 L41.6322509,3.52734375 L41.5604735,5.61914062 L43.7137939,5.61914062 L44.0009032,5.12695312 C44.0966068,4.95605383 44.1649655,4.87231444 44.2059814,4.87573242 C44.2469972,4.87915041 44.3563711,4.9628898 44.5341064,5.12695312 L45.0980712,5.67041016 C45.2416266,5.81396556 45.3219481,5.90112289 45.339038,5.93188477 C45.3561279,5.96264664 45.3629638,6.00024392 45.3595458,6.04467773 C45.3561278,6.08911155 45.3031498,6.17968682 45.2006103,6.31640625 L44.9340087,6.65478516 L44.9340087,8.16210938 L44.9647704,9.71044922 C44.8690668,9.91552837 44.7118418,10.0471189 44.4930907,10.1052246 C44.2743396,10.1633304 44.1205326,10.1889649 44.031665,10.1821289 C43.8812736,10.1752929 43.806079,10.1035163 43.806079,9.96679688 L43.806079,9.38232422 L38.8739501,9.38232422 L38.8739501,10.0693359 C38.8739501,10.1650395 38.8124273,10.2692865 38.6893798,10.3820801 C38.5663323,10.4948736 38.3339128,10.5478516 37.9921142,10.5410156 C37.9169185,10.5410156 37.8622315,10.5256349 37.8280517,10.494873 C37.7938718,10.4641112 37.7631104,10.4008794 37.7357665,10.3051758 L37.787036,8.64404297 L37.787036,6.69580078 L37.7357665,4.97314453 C37.7699464,4.91162079 37.7972899,4.87744144 37.8177978,4.87060547 C37.8383057,4.8637695 37.9066644,4.89794884 38.0228759,4.97314453 L38.9867431,5.61914062 L40.412036,5.61914062 L40.4633056,3.52734375 L37.356372,3.52734375 L37.3153564,3.51708984 Z M43.806079,6.20361328 L42.8114501,6.20361328 L42.6576415,6.3984375 L42.6576415,8.82861328 L43.806079,8.82861328 L43.806079,6.20361328 Z M41.7552978,6.20361328 L40.8427001,6.20361328 L40.750415,6.37792969 L40.750415,8.82861328 L41.7552978,8.82861328 L41.7552978,6.20361328 Z M39.8275634,6.20361328 L38.8739501,6.20361328 L38.8739501,8.82861328 L39.8275634,8.82861328 L39.8275634,6.20361328 Z M44.575122,11.1665039 L44.9647704,10.4692383 C45.0878179,10.2299793 45.1715573,10.1086426 45.2159911,10.1052246 C45.2604249,10.1018066 45.3817616,10.2094716 45.5800048,10.4282227 L46.2567626,11.2075195 C46.407154,11.3784188 46.4789306,11.5083003 46.4720946,11.597168 C46.4652587,11.6791996 46.4242435,11.7202148 46.3490478,11.7202148 L36.9462157,11.7202148 C36.8641841,11.7133789 36.8060792,11.6928713 36.7718993,11.6586914 C36.7377195,11.6245115 36.712085,11.5339363 36.694995,11.3869629 C36.6779051,11.2399895 36.7513907,11.1665039 36.915454,11.1665039 L44.575122,11.1665039 Z M35.931079,8.38769531 L36.1771728,8.60302734 C36.2933843,8.70556692 36.358325,8.76879871 36.371997,8.79272461 C36.3856689,8.81665051 36.3925048,8.83886708 36.3925048,8.859375 C36.3925048,8.87988292 36.3890869,8.90209949 36.3822509,8.92602539 C36.3754149,8.94995129 36.3412356,9.00292928 36.2797118,9.08496094 L36.0336181,9.38232422 L36.0336181,16.4370117 L36.0848876,18.2314453 C35.99602,18.6005878 35.8097425,18.7885742 35.5260497,18.7954102 C35.2423569,18.8022461 35.081714,18.7834475 35.0441161,18.7390137 C35.0065183,18.6945799 34.9774658,18.6313481 34.9569579,18.5493164 L35.0082275,16.4780273 L35.0082275,9.90527344 C34.8988519,10.0830087 34.6989027,10.382078 34.4083739,10.8024902 C34.1178451,11.2229025 33.9452394,11.4672848 33.8905517,11.5356445 L33.5931884,11.9047852 C33.3470934,12.2055679 33.1864505,12.3457032 33.1112548,12.3251953 C33.0770749,12.3251953 33.0565673,12.3149415 33.0497314,12.2944336 C33.0428954,12.2739257 33.0394775,12.2534181 33.0394775,12.2329102 L33.0394775,12.1611328 C33.0394775,12.1337889 33.0599851,12.0859378 33.1010009,12.0175781 L33.3265868,11.6689453 L33.7162353,10.8896484 C33.9486583,10.4179664 34.1349357,10.0061053 34.2750732,9.65405273 C34.4152106,9.30200019 34.6168687,8.77051137 34.8800536,8.05957031 C35.1432385,7.34862926 35.3158442,6.86499152 35.3978759,6.60864258 C35.4799076,6.35229364 35.561938,6.07373197 35.6439696,5.77294922 L35.8695556,4.93212891 C35.8763915,4.89794905 35.8866454,4.87573247 35.9003173,4.86547852 C35.9139892,4.85522456 35.97893,4.89111287 36.0951415,4.97314453 L37.1820556,5.77294922 C37.2504153,5.82763699 37.3051022,5.88061498 37.3461181,5.93188477 C37.3871339,5.98315455 37.4059325,6.03955047 37.4025146,6.10107422 C37.3990966,6.16259796 37.3358648,6.22753872 37.2128173,6.29589844 L36.9257079,6.47021484 L35.931079,8.38769531 Z M40.1249267,13.6787109 L40.1249267,16.7548828 C40.1249267,16.9941418 40.2018302,17.1376951 40.3556396,17.1855469 C40.5094489,17.2333987 40.7606671,17.2573242 41.1093017,17.2573242 C41.765555,17.2641602 42.2406479,17.2077643 42.5345946,17.0881348 C42.8285414,16.9685053 43.0336175,16.8129892 43.149829,16.621582 C43.2660405,16.4301748 43.3822503,16.1396504 43.4984618,15.75 L43.8470946,14.5400391 C43.8881105,14.3964837 43.9462154,14.328125 44.021411,14.3349609 C44.0555909,14.3417969 44.0778075,14.3674314 44.0880614,14.4118652 C44.0983154,14.4562991 44.1034423,14.4921874 44.1034423,14.5195312 L44.1034423,14.6220703 L43.9701415,15.75 C43.9633055,15.8320317 43.9581786,15.9123531 43.9547607,15.9909668 C43.9513427,16.0695805 43.9598875,16.1567378 43.9803954,16.2524414 C44.0077393,16.4506846 44.0658442,16.6420889 44.1547118,16.8266602 C44.2435795,17.0112314 44.2999754,17.135986 44.3239013,17.2009277 C44.3478272,17.2658695 44.35979,17.3530268 44.35979,17.4624023 C44.35979,17.8520527 44.1410421,18.1682117 43.70354,18.4108887 C43.2660378,18.6535657 42.5858688,18.7714844 41.6630126,18.7646484 C40.849532,18.7646484 40.2531024,18.7185063 39.873706,18.6262207 C39.4943095,18.5339351 39.2670169,18.3510756 39.1918212,18.0776367 C39.1166255,17.8041979 39.0790282,17.5922859 39.0790282,17.4418945 L39.0790282,14.2426758 L39.0277587,12.5200195 C39.0482666,12.4926756 39.0721922,12.472168 39.099536,12.4584961 L39.325122,12.5405273 L40.42229,12.9301758 C40.4974856,12.9575197 40.533374,13.0139156 40.529956,13.0993652 C40.526538,13.1848149 40.4701421,13.2890619 40.3607665,13.4121094 L40.1249267,13.6787109 Z M36.9974853,1.90722656 C36.4506075,2.77539497 35.9652608,3.505124 35.5414306,4.09643555 C35.1176003,4.6877471 34.6049101,5.33202776 34.0033446,6.02929688 L33.6649657,6.41894531 C33.5077384,6.60351655 33.3881107,6.69238285 33.306079,6.68554688 C33.2855711,6.68554688 33.2684814,6.67871101 33.2548095,6.66503906 C33.2411375,6.65136712 33.2343017,6.62402364 33.2343017,6.58300781 C33.2343017,6.54199198 33.2479734,6.48730503 33.2753173,6.41894531 L33.5009032,6.02929688 L33.849536,5.39355469 C34.1366469,4.87402084 34.4733134,4.15796355 34.8595458,3.24536133 C35.2457782,2.33275911 35.5311757,1.57226867 35.715747,0.963867188 L35.8900634,0.369140625 C35.9105713,0.30761688 35.9327879,0.280273403 35.9567138,0.287109375 C35.9806397,0.293945347 36.0267818,0.321288823 36.0951415,0.369140625 L37.2025634,1.24072266 C37.3324469,1.3500982 37.4093504,1.42187483 37.4332763,1.45605469 C37.4572022,1.49023455 37.467456,1.53124976 37.464038,1.57910156 C37.46062,1.62695336 37.407642,1.67822238 37.3051025,1.73291016 L36.9974853,1.90722656 Z M37.6537353,13.5556641 C37.7015871,13.2890612 37.756274,13.2207025 37.8177978,13.3505859 C37.8793215,13.4804694 37.9459712,13.7060531 38.0177489,14.0273437 C38.0895266,14.3486344 38.1390867,14.6169423 38.1664306,14.8322754 C38.1937745,15.0476085 38.2074462,15.2680653 38.2074462,15.4936523 C38.2006102,16.054202 38.1049081,16.5498025 37.9203368,16.9804688 C37.7357656,17.411135 37.4760026,17.6230469 37.14104,17.6162109 C36.9017809,17.6162109 36.7291752,17.5187998 36.6232177,17.3239746 C36.5172601,17.1291494 36.4625732,16.9052747 36.4591552,16.6523438 C36.4557372,16.3994128 36.5565663,16.1123063 36.7616454,15.7910156 L37.0795165,15.3706055 C37.2094,15.1860342 37.3153559,14.991212 37.3973876,14.7861328 C37.4794193,14.5810537 37.54436,14.3178727 37.5922118,13.996582 L37.6537353,13.5556641 Z M40.8221923,12.4379883 C40.8016844,12.3969725 40.7931395,12.3525393 40.7965575,12.3046875 C40.7999755,12.2568357 40.8307369,12.2226564 40.8888427,12.2021484 C40.9469484,12.1816405 41.0272699,12.2124019 41.1298095,12.2944336 C41.1366455,12.3012696 41.266527,12.3867179 41.5194579,12.5507812 C41.7723889,12.7148446 42.0184802,12.9746076 42.2577392,13.3300781 C42.4969982,13.6855487 42.6166259,14.0170883 42.6166259,14.324707 C42.6166259,14.6323258 42.5756107,14.878417 42.493579,15.0629883 C42.3568596,15.377443 42.1654552,15.53125 41.9193603,15.5244141 C41.7758049,15.5244141 41.6493413,15.473145 41.5399657,15.3706055 C41.4305902,15.2680659 41.3553956,15.1484382 41.3143798,15.0117188 C41.273364,14.8749993 41.2511474,14.6135273 41.2477294,14.2272949 C41.2443114,13.8410625 41.2203859,13.5505381 41.1759521,13.3557129 C41.1315182,13.1608877 41.0751223,12.9780282 41.0067626,12.8071289 L40.8221923,12.4379883 Z M44.0419189,13.2583008 C44.014575,13.217285 43.9991943,13.1728518 43.9957763,13.125 C43.9923583,13.0771482 44.0385004,13.0429689 44.134204,13.0224609 C44.1547119,13.0224609 44.3238997,13.1147452 44.6417724,13.2993164 C44.9596451,13.4838876 45.3321999,13.8017556 45.7594482,14.2529297 C46.1866964,14.7041038 46.4003173,15.2373016 46.4003173,15.8525391 C46.4003173,16.0234384 46.3678469,16.2250965 46.3029052,16.4575195 C46.2379635,16.6899426 46.0978281,16.8728021 45.882495,17.0061035 C45.6671619,17.139405 45.4569589,17.0761732 45.2518798,16.8164062 C45.1356683,16.6865228 45.0587648,16.5327157 45.0211669,16.3549805 C44.9835691,16.1772452 44.9374269,15.874758 44.8827392,15.4475098 C44.8280514,15.0202615 44.7511479,14.6682143 44.6520263,14.3913574 C44.5529047,14.1145006 44.4247321,13.8496106 44.2675048,13.5966797 L44.0419189,13.2583008 Z M48.184204,12.4174805 L48.184204,4.46044922 L46.7281493,4.46044922 C46.6119378,4.46044922 46.5435791,4.36645602 46.5230712,4.1784668 C46.5025632,3.99047758 46.5709219,3.89648438 46.7281493,3.89648438 L48.184204,3.89648438 L48.184204,1.86621094 L48.1329344,0.143554687 C48.1534424,0.0957028857 48.170532,0.0683594092 48.184204,0.0615234375 C48.1978759,0.0546874658 48.2867422,0.0820309424 48.4508055,0.143554687 L49.4454344,0.522949219 C49.5753179,0.577636992 49.6505125,0.620361174 49.6710204,0.651123047 C49.6915283,0.681884919 49.7034911,0.717773232 49.706909,0.758789062 C49.710327,0.799804893 49.657349,0.871581519 49.5479735,0.974121094 L49.3018797,1.22021484 L49.3018797,3.89648438 L51.2193602,3.89648438 L51.2193602,1.66113281 L51.1885985,0.235839844 C51.2091064,0.201659985 51.2261961,0.177734443 51.239868,0.1640625 L51.5269774,0.276855469 L52.5113524,0.635742187 C52.620728,0.676758018 52.6839597,0.710937363 52.7010497,0.73828125 C52.7181396,0.765625137 52.7283934,0.794677581 52.7318114,0.825439453 C52.7352294,0.856201326 52.702759,0.905761377 52.6343993,0.974121094 L52.337036,1.30224609 L52.337036,3.89648438 L52.4190672,3.89648438 L52.8907469,3.06591797 C52.9727786,2.92236256 53.0360104,2.84887697 53.0804442,2.84545898 C53.124878,2.842041 53.2120353,2.94287007 53.3419188,3.14794922 L53.9366454,4.13232422 C53.9708252,4.20068394 53.9930418,4.25195295 54.0032958,4.28613281 C54.0135497,4.32031267 54.0186766,4.34252925 54.0186766,4.3527832 L54.0186766,4.38867188 C53.9981687,4.42968771 53.9708252,4.45019531 53.9366454,4.45019531 L52.8907469,4.45019531 L52.8907469,4.46044922 L52.337036,4.46044922 L52.337036,12.3046875 L52.7471922,11.6176758 C52.8428959,11.4604484 52.9078366,11.380127 52.9420165,11.376709 C52.9761963,11.373291 53.0343012,11.4331049 53.1163329,11.5561523 L53.7930907,12.6430664 C53.8614504,12.7661139 53.8956297,12.8532712 53.8956297,12.904541 C53.8956297,12.9558108 53.8375249,12.9814453 53.7213133,12.9814453 L46.7178954,12.9814453 L46.6563719,12.9711914 C46.5811762,12.9643554 46.5264893,12.9438478 46.4923094,12.909668 C46.4581296,12.8754881 46.4393309,12.7849128 46.435913,12.6379395 C46.432495,12.4909661 46.4991447,12.4174805 46.6358641,12.4174805 L48.184204,12.4174805 Z M51.2193602,6.51123047 L51.2193602,4.46044922 L49.3018797,4.46044922 L49.3018797,6.51123047 L51.2193602,6.51123047 Z M51.2193602,9.45410156 L51.2193602,7.07519531 L49.3018797,7.07519531 L49.3018797,9.45410156 L51.2193602,9.45410156 Z M51.2193602,12.4174805 L51.2193602,10.0078125 L49.3018797,10.0078125 L49.3018797,12.4174805 L51.2193602,12.4174805 Z M55.290161,7.20849609 L58.0484618,7.20849609 L58.5816649,6.26513672 C58.6705325,6.10790937 58.7371823,6.02758791 58.7816161,6.02416992 C58.8260499,6.02075194 58.9029534,6.1010734 59.012329,6.26513672 L59.8018797,7.47509766 C59.8565675,7.56396529 59.8804931,7.62548811 59.8736571,7.65966797 C59.8599851,7.72802769 59.8121341,7.76220703 59.7301024,7.76220703 L58.3458251,7.76220703 C58.3116452,7.8168948 58.2808838,7.88183556 58.2535399,7.95703125 L58.1920165,8.02880859 L58.0997313,8.14160156 L58.0997313,16.7958984 L58.1407469,18.2416992 C58.0860592,18.542482 57.9630135,18.7407222 57.7716063,18.8364258 C57.5801991,18.9321294 57.4127203,18.9765625 57.2691649,18.9697266 C57.1119376,18.9697266 57.0042726,18.9355472 56.9461669,18.8671875 C56.8880611,18.7988278 56.8487549,18.6928718 56.8282469,18.5493164 L56.8897704,16.4780273 L56.8897704,7.76220703 L55.290161,7.76220703 C55.2696531,8.89697833 55.2474365,9.85400001 55.2235106,10.6333008 C55.1995847,11.4126016 55.1431888,12.1166961 55.0543212,12.7456055 C54.9654535,13.3745149 54.8304451,13.9692355 54.6492919,14.5297852 C54.4681386,15.0903348 54.2750253,15.5773905 54.0699462,15.9909668 C53.864867,16.4045431 53.6324475,16.7890607 53.3726805,17.1445312 L52.6959227,17.9853516 C52.5386954,18.1767588 52.4293215,18.3032223 52.3677977,18.3647461 L52.008911,18.7236328 C51.9542232,18.7783206 51.9080811,18.8039551 51.8704833,18.8005371 C51.8328854,18.7971191 51.8072509,18.7868653 51.793579,18.7697754 C51.779907,18.7526855 51.7764891,18.7185061 51.7833251,18.6672363 C51.790161,18.6159665 51.8243404,18.5493168 51.8858641,18.4672852 L52.1729735,18.0673828 C52.5216081,17.6025367 52.8292222,17.0915555 53.0958251,16.5344238 C53.362428,15.9772921 53.5623771,15.3449742 53.6956786,14.6374512 C53.82898,13.9299281 53.9281001,13.3164088 53.9930419,12.796875 C54.0579836,12.2773412 54.0989988,11.5937542 54.1160887,10.7460938 C54.1331787,9.89843326 54.1451414,9.13110695 54.1519774,8.4440918 C54.1588134,7.75707664 54.1622313,7.27685684 54.1622313,7.00341797 L54.1622313,5.99853516 L54.1109618,3.82470703 L54.1109618,3.38378906 L54.0186766,1.81494141 C54.0323486,1.78759752 54.0460203,1.76708991 54.0596922,1.75341797 L54.3262938,1.93798828 L55.5465087,2.76855469 C56.1344022,2.40624819 56.6214579,2.06787267 57.0076903,1.75341797 C57.3939227,1.43896327 57.6485588,1.20996166 57.7716063,1.06640625 L58.0997313,0.687011719 C58.2022709,0.563964229 58.2689206,0.504150374 58.2996825,0.507568359 C58.3304444,0.510986345 58.4141838,0.60839748 58.5509032,0.799804687 L59.3096922,1.93798828 C59.3985599,2.07470771 59.444702,2.17553678 59.44812,2.24047852 C59.451538,2.30542025 59.3917241,2.34130856 59.2686766,2.34814453 L58.8892821,2.38916016 C58.7730706,2.4028321 58.5030537,2.46093699 58.0792235,2.56347656 L56.8385008,2.80957031 L55.290161,3.12744141 L55.290161,7.20849609 Z M49.712036,14.7451172 C49.1241424,15.5312539 48.573855,16.2028781 48.0611571,16.7600098 C47.5484592,17.3171415 47.2203375,17.6572259 47.0767821,17.7802734 L46.7384032,18.0673828 C46.6700435,18.1289066 46.6221924,18.15625 46.5948485,18.1494141 C46.5811766,18.1494141 46.5692138,18.1459961 46.5589598,18.1391602 C46.5487059,18.1323242 46.54187,18.1015628 46.538452,18.046875 C46.535034,17.9921872 46.5606685,17.9238285 46.6153563,17.8417969 L46.9127196,17.4008789 C47.1588146,17.0249005 47.4459211,16.5139192 47.7740477,15.8679199 C48.1021744,15.2219206 48.3414298,14.6938497 48.4918212,14.2836914 L48.7071532,13.7197266 L48.8199462,13.340332 C48.8404541,13.3129881 48.8643796,13.3061523 48.8917235,13.3198242 L49.0865477,13.4941406 L49.9991454,14.2426758 C50.0743411,14.3110355 50.1204832,14.3605955 50.1375731,14.3913574 C50.154663,14.4221193 50.1632079,14.4597166 50.1632079,14.5041504 C50.1632079,14.5485842 50.1153568,14.5878905 50.0196532,14.6220703 L49.712036,14.7451172 Z M50.9322508,14.2631836 L50.7271727,13.9658203 L50.6246337,13.8325195 C50.6177977,13.8120116 50.6143797,13.7880861 50.6143797,13.7607422 C50.6212157,13.6855465 50.6553951,13.6445313 50.7169188,13.6376953 C50.8126224,13.6376953 51.0997289,13.8137189 51.5782469,14.1657715 C52.056765,14.517824 52.3831777,14.8613265 52.557495,15.1962891 C52.7318123,15.5312517 52.8189696,15.8593734 52.8189696,16.1806641 C52.8189696,16.3447274 52.798462,16.4968255 52.7574462,16.6369629 C52.7164303,16.7771003 52.6463627,16.9189446 52.5472411,17.0625 C52.4481195,17.2060554 52.3233649,17.277832 52.1729735,17.277832 C51.9952382,17.284668 51.8585209,17.1872569 51.7628172,16.9855957 C51.6671136,16.7839345 51.598755,16.5600598 51.5577391,16.3139648 L51.4552001,15.6474609 C51.4073483,15.3603501 51.3441165,15.1125499 51.2655028,14.9040527 C51.1868891,14.6955556 51.0758062,14.4819347 50.9322508,14.2631836 Z M68.8660399,8.54150391 L68.8660399,10.3051758 L60.0271727,10.3051758 L60.0271727,8.54150391 L68.8660399,8.54150391 Z M75.2846922,10.7255859 L71.6753172,10.7255859 L70.7319578,14.6938477 C70.6909419,14.851075 70.6738523,15.0048821 70.6806882,15.1552734 C70.6875242,15.3056648 70.7473381,15.4355463 70.8601316,15.5449219 C70.9729251,15.6542974 71.1797102,15.7089844 71.4804929,15.7089844 L71.9521726,15.7089844 C72.1162359,15.7089844 72.1982664,15.8132314 72.1982664,16.0217285 C72.1982664,16.2302257 72.1162359,16.3344727 71.9521726,16.3344727 L68.8657468,16.3344727 C68.7358634,16.3344727 68.6623778,16.2302257 68.6452879,16.0217285 C68.6281979,15.8132314 68.7016835,15.7089844 68.8657468,15.7089844 L69.2759031,15.7089844 C69.4194585,15.7089844 69.5459221,15.6679692 69.6552976,15.5859375 C69.7646732,15.5039058 69.8620843,15.3876961 69.947534,15.2373047 C70.0329836,15.0869133 70.1064692,14.8852552 70.1679929,14.6323242 L73.3672117,1.53808594 C73.4424074,1.24413916 73.5603261,1.09375003 73.7209715,1.08691406 C73.8816168,1.08007809 74.0029535,1.21337754 74.0849851,1.48681641 L77.5713132,14.6015625 C77.6670169,14.970705 77.7951894,15.2475577 77.9558347,15.4321289 C78.1164801,15.6167001 78.2856678,15.7089844 78.4634031,15.7089844 L78.6992429,15.7089844 C78.8427983,15.7089844 78.914575,15.8132314 78.914575,16.0217285 C78.914575,16.2302257 78.8427983,16.3344727 78.6992429,16.3344727 L75.3564695,16.3344727 C75.2197501,16.3344727 75.1513914,16.2302257 75.1513914,16.0217285 C75.1513914,15.8132314 75.2197501,15.7089844 75.3564695,15.7089844 L75.6128172,15.7089844 C75.9341078,15.7089844 76.135766,15.6645512 76.2177976,15.5756836 C76.2998293,15.486816 76.3510983,15.382569 76.3716062,15.2629395 C76.3921141,15.1433099 76.3579348,14.8989276 76.2690672,14.5297852 L75.2846922,10.7255859 Z M71.8291257,10.1616211 L75.1206297,10.1616211 L73.3877195,3.58886719 L71.8291257,10.1616211 Z M81.5802976,1.34326172 L85.0666257,13.5864258 L88.3273679,1.34326172 L90.9216062,1.34326172 C91.0788335,1.34326172 91.1642819,1.46288943 91.1779538,1.70214844 C91.1916258,1.94140745 91.1061774,2.06103516 90.9216062,2.06103516 L90.4089109,2.06103516 C90.2175036,2.06103516 90.0807863,2.1003414 89.9987546,2.17895508 C89.9167229,2.25756875 89.8705808,2.32934538 89.8603269,2.39428711 C89.8500729,2.45922884 89.844946,2.63867041 89.844946,2.93261719 L89.844946,14.4272461 C89.844946,14.8100605 89.8722895,15.0834953 89.9269773,15.2475586 C89.981665,15.4116219 90.0688224,15.5380855 90.1884519,15.6269531 C90.3080814,15.7158208 90.4806871,15.7602539 90.7062741,15.7602539 L91.1779538,15.7602539 C91.3283452,15.7602539 91.4035398,15.8559561 91.4035398,16.0473633 C91.4035398,16.2387705 91.3283452,16.3344727 91.1779538,16.3344727 L87.5378171,16.3344727 C87.4010977,16.3344727 87.332739,16.2387705 87.332739,16.0473633 C87.332739,15.8559561 87.4010977,15.7602539 87.5378171,15.7602539 L87.8659421,15.7602539 C88.0505133,15.7602539 88.1974845,15.7124028 88.3068601,15.6166992 C88.4162356,15.5209956 88.4897212,15.4064948 88.5273191,15.2731934 C88.5649169,15.1398919 88.5837155,14.8818379 88.5837155,14.4990234 L88.5837155,2.59423828 L85.0256101,15.9755859 C84.9572504,16.201173 84.8581303,16.3225097 84.7282468,16.3395996 C84.5983633,16.3566895 84.4958253,16.2250991 84.4206296,15.9448242 L80.8317624,3.32226562 L80.8420163,14.8066406 C80.8420163,15.0732435 80.8796136,15.2629389 80.9548093,15.3757324 C81.030005,15.488526 81.1496327,15.5808102 81.313696,15.6525879 C81.4777593,15.7243656 81.6794175,15.7602539 81.9186765,15.7602539 L82.2673093,15.7602539 C82.4450446,15.7602539 82.527075,15.8559561 82.513403,16.0473633 C82.4997311,16.2387705 82.4177007,16.3344727 82.2673093,16.3344727 L79.1193601,16.3344727 C78.9894766,16.3344727 78.9142821,16.2387705 78.8937741,16.0473633 C78.8732662,15.8559561 78.9484608,15.7602539 79.1193601,15.7602539 L79.560278,15.7602539 C79.7175054,15.7602539 79.8661855,15.7260746 80.006323,15.6577148 C80.1464604,15.5893551 80.2421626,15.4987799 80.2934323,15.3859863 C80.3447021,15.2731928 80.3703366,15.0937512 80.3703366,14.8476562 L80.3703366,3.48632812 C80.3703366,3.04882594 80.3464111,2.74975666 80.2985593,2.58911133 C80.2507075,2.42846599 80.170386,2.30029345 80.0575925,2.20458984 C79.944799,2.10888624 79.7585215,2.06103516 79.4987546,2.06103516 L78.9860593,2.06103516 C78.81516,2.06103516 78.7297116,1.94140745 78.7297116,1.70214844 C78.7297116,1.46288943 78.81516,1.34326172 78.9860593,1.34326172 L81.5802976,1.34326172 Z M97.2889889,10.171875 L96.6737546,10.171875 C96.5165272,10.171875 96.4344968,10.0625011 96.4276608,9.84375 C96.4208248,9.62499891 96.5028553,9.515625 96.6737546,9.515625 L100.518969,9.515625 C100.683033,9.515625 100.761645,9.62499891 100.754809,9.84375 C100.747973,10.0625011 100.669361,10.171875 100.518969,10.171875 L100.139575,10.171875 C99.9618396,10.171875 99.8268312,10.2163081 99.7345456,10.3051758 C99.64226,10.3940434 99.5739013,10.5034173 99.5294674,10.6333008 C99.4850336,10.7631842 99.4628171,10.9067375 99.4628171,11.0639648 L99.4628171,15.7192383 C99.4628171,15.8696297 99.4303467,15.9636229 99.3654049,16.0012207 C99.3004632,16.0388185 99.2303956,16.0200199 99.1551999,15.9448242 L98.9911374,15.75 C98.8749259,15.6269525 98.7211188,15.5620118 98.5297116,15.5551758 C98.3656483,15.5551758 98.1417736,15.6337883 97.8580807,15.7910156 C97.5743879,15.948243 97.2924083,16.0866693 97.0121335,16.2062988 C96.7318586,16.3259283 96.400319,16.3891601 96.0175046,16.3959961 C95.5663304,16.409668 95.0826927,16.2985852 94.5665768,16.0627441 C94.050461,15.8269031 93.5446066,15.4184599 93.0489987,14.8374023 C92.5533908,14.2563448 92.174,13.5710489 91.9108151,12.7814941 C91.6476302,11.9919394 91.4784424,11.1545454 91.4032467,10.2692871 C91.3280511,9.38402878 91.3348869,8.44922367 91.4237546,7.46484375 C91.5194582,6.41210411 91.7006087,5.46875417 91.9672116,4.63476562 C92.2338145,3.80077708 92.5790259,3.12231707 93.0028561,2.59936523 C93.4266864,2.0764134 93.9034882,1.70214957 94.433276,1.4765625 C94.9630638,1.25097543 95.4979706,1.14501946 96.0380124,1.15869141 C96.3114512,1.17236335 96.5558336,1.20825166 96.7711667,1.26635742 C96.9864998,1.32446318 97.2069566,1.40820258 97.4325436,1.51757812 C97.6581307,1.62695367 97.8153557,1.68847649 97.9042233,1.70214844 C98.0819586,1.75000024 98.216967,1.73803747 98.3092526,1.66625977 C98.4015382,1.59448206 98.4750238,1.50048886 98.5297116,1.38427734 L98.6322507,1.15869141 C98.6732665,1.07665975 98.7382072,1.02709969 98.8270749,1.01000977 C98.9159425,0.992919836 98.9911371,1.10058478 99.0526608,1.33300781 L99.8217038,4.59375 C99.8900635,4.89453275 99.8558841,5.09106399 99.7191647,5.18334961 C99.5824453,5.27563523 99.4730714,5.21923931 99.3910397,5.01416016 L99.2064694,4.61425781 C99.0765859,4.327147 98.914234,4.02295083 98.7194089,3.70166016 C98.5245837,3.38036949 98.2767834,3.07275538 97.9760007,2.77880859 C97.6752179,2.48486181 97.3146258,2.24560639 96.8942135,2.06103516 C96.4738013,1.87646392 96.0038353,1.85937425 95.4843014,2.00976562 C95.1356669,2.1123052 94.7870376,2.31567231 94.438403,2.61987305 C94.0897684,2.92407379 93.7633557,3.38720392 93.4591549,4.00927734 C93.1549542,4.63135077 92.9464602,5.31493768 92.8336667,6.06005859 C92.7208731,6.80517951 92.6559324,7.55199821 92.6388424,8.30053711 C92.6217525,9.04907601 92.6337153,9.68993874 92.6747311,10.2231445 C92.7499268,11.2895561 92.949876,12.2653764 93.2745846,13.1506348 C93.5992933,14.0358931 94.0077365,14.66992 94.4999264,15.0527344 C94.9921164,15.4355488 95.5184783,15.6406249 96.079028,15.6679688 C96.6190698,15.7021486 97.077073,15.5671402 97.4530514,15.2629395 C97.8290299,14.9587387 98.0699943,14.5981466 98.1759518,14.1811523 C98.2819094,13.7641581 98.3348874,13.3881853 98.3348874,13.0532227 L98.3348874,11.3408203 C98.3348874,11.0742174 98.304126,10.8554696 98.2426022,10.6845703 C98.1810785,10.513671 98.0819584,10.3854985 97.9452389,10.3000488 C97.8085195,10.2145992 97.5897717,10.171875 97.2889889,10.171875 Z M112.771801,10.171875 L112.156567,10.171875 C111.99934,10.171875 111.917309,10.0625011 111.910473,9.84375 C111.903637,9.62499891 111.985668,9.515625 112.156567,9.515625 L116.001782,9.515625 C116.165845,9.515625 116.244458,9.62499891 116.237622,9.84375 C116.230786,10.0625011 116.152173,10.171875 116.001782,10.171875 L115.622387,10.171875 C115.444652,10.171875 115.309644,10.2163081 115.217358,10.3051758 C115.125072,10.3940434 115.056714,10.5034173 115.01228,10.6333008 C114.967846,10.7631842 114.945629,10.9067375 114.945629,11.0639648 L114.945629,15.7192383 C114.945629,15.8696297 114.913159,15.9636229 114.848217,16.0012207 C114.783276,16.0388185 114.713208,16.0200199 114.638012,15.9448242 L114.47395,15.75 C114.357738,15.6269525 114.203931,15.5620118 114.012524,15.5551758 C113.848461,15.5551758 113.624586,15.6337883 113.340893,15.7910156 C113.0572,15.948243 112.775221,16.0866693 112.494946,16.2062988 C112.214671,16.3259283 111.883131,16.3891601 111.500317,16.3959961 C111.049143,16.409668 110.565505,16.2985852 110.049389,16.0627441 C109.533273,15.8269031 109.027419,15.4184599 108.531811,14.8374023 C108.036203,14.2563448 107.656812,13.5710489 107.393628,12.7814941 C107.130443,11.9919394 106.961255,11.1545454 106.886059,10.2692871 C106.810863,9.38402878 106.817699,8.44922367 106.906567,7.46484375 C107.002271,6.41210411 107.183421,5.46875417 107.450024,4.63476562 C107.716627,3.80077708 108.061838,3.12231707 108.485669,2.59936523 C108.909499,2.0764134 109.386301,1.70214957 109.916088,1.4765625 C110.445876,1.25097543 110.980783,1.14501946 111.520825,1.15869141 C111.794264,1.17236335 112.038646,1.20825166 112.253979,1.26635742 C112.469312,1.32446318 112.689769,1.40820258 112.915356,1.51757812 C113.140943,1.62695367 113.298168,1.68847649 113.387036,1.70214844 C113.564771,1.75000024 113.699779,1.73803747 113.792065,1.66625977 C113.884351,1.59448206 113.957836,1.50048886 114.012524,1.38427734 L114.115063,1.15869141 C114.156079,1.07665975 114.22102,1.02709969 114.309887,1.01000977 C114.398755,0.992919836 114.473949,1.10058478 114.535473,1.33300781 L115.304516,4.59375 C115.372876,4.89453275 115.338697,5.09106399 115.201977,5.18334961 C115.065258,5.27563523 114.955884,5.21923931 114.873852,5.01416016 L114.689282,4.61425781 C114.559398,4.327147 114.397046,4.02295083 114.202221,3.70166016 C114.007396,3.38036949 113.759596,3.07275538 113.458813,2.77880859 C113.15803,2.48486181 112.797438,2.24560639 112.377026,2.06103516 C111.956614,1.87646392 111.486648,1.85937425 110.967114,2.00976562 C110.618479,2.1123052 110.26985,2.31567231 109.921215,2.61987305 C109.572581,2.92407379 109.246168,3.38720392 108.941967,4.00927734 C108.637767,4.63135077 108.429273,5.31493768 108.316479,6.06005859 C108.203686,6.80517951 108.138745,7.55199821 108.121655,8.30053711 C108.104565,9.04907601 108.116528,9.68993874 108.157544,10.2231445 C108.232739,11.2895561 108.432688,12.2653764 108.757397,13.1506348 C109.082106,14.0358931 109.490549,14.66992 109.982739,15.0527344 C110.474929,15.4355488 111.001291,15.6406249 111.56184,15.6679688 C112.101882,15.7021486 112.559885,15.5671402 112.935864,15.2629395 C113.311842,14.9587387 113.552807,14.5981466 113.658764,14.1811523 C113.764722,13.7641581 113.8177,13.3881853 113.8177,13.0532227 L113.8177,11.3408203 C113.8177,11.0742174 113.786938,10.8554696 113.725415,10.6845703 C113.663891,10.513671 113.564771,10.3854985 113.428051,10.3000488 C113.291332,10.2145992 113.072584,10.171875 112.771801,10.171875 Z M116.237329,1.3125 L124.830102,1.29199219 L125.373559,4.74755859 C125.407739,4.9389658 125.371851,5.06372041 125.265893,5.12182617 C125.159936,5.17993193 125.072778,5.12353601 125.004418,4.95263672 L124.748071,4.35791016 C124.666039,4.17333892 124.534449,3.91357589 124.353295,3.57861328 C124.172142,3.24365067 123.939723,2.93432759 123.65603,2.65063477 C123.372337,2.36694194 123.074977,2.17382864 122.76394,2.07128906 C122.452903,1.96874949 122.146998,1.91406253 121.846215,1.90722656 C121.60012,1.90722656 121.432642,1.94824178 121.343774,2.03027344 C121.254906,2.1123051 121.195092,2.19091759 121.164331,2.26611328 C121.133569,2.34130897 121.118188,2.78564046 121.118188,3.59912109 L121.118188,13.8735352 C121.118188,14.8374072 121.143823,15.3535153 121.195092,15.421875 C121.246362,15.4902347 121.3489,15.5654293 121.502709,15.6474609 C121.656519,15.7294926 121.812035,15.7705078 121.969262,15.7705078 L122.574243,15.7705078 C122.704126,15.7705078 122.779321,15.8696279 122.799829,16.0678711 C122.820337,16.2661143 122.728052,16.3652344 122.522973,16.3652344 L118.534204,16.3652344 C118.390648,16.3652344 118.306909,16.2661143 118.282983,16.0678711 C118.259057,15.8696279 118.342796,15.7705078 118.534204,15.7705078 L119.057153,15.7705078 C119.269068,15.7705078 119.445092,15.710694 119.585229,15.5910645 C119.725366,15.4714349 119.812524,15.3483893 119.846704,15.2219238 C119.880883,15.0954584 119.897973,14.854494 119.897973,14.4990234 L119.897973,3.55810547 C119.897973,2.86767233 119.85354,2.45068431 119.764672,2.30712891 C119.675805,2.1635735 119.56814,2.05590856 119.441674,1.98413086 C119.315209,1.91235316 119.105006,1.89013658 118.811059,1.91748047 C118.517112,1.95166033 118.269312,2.01831005 118.067651,2.11743164 C117.86599,2.21655323 117.645533,2.40795757 117.406274,2.69165039 C117.167015,2.97534322 116.972193,3.23852418 116.821801,3.48120117 C116.67141,3.72387817 116.541528,3.97851429 116.432153,4.24511719 L116.13479,4.921875 C116.03225,5.15429804 115.939966,5.24316434 115.857934,5.18847656 C115.775902,5.13378879 115.741723,5.02441488 115.755395,4.86035156 L116.237329,1.3125 Z M139.964282,5.97802734 L140.343676,5.37304688 C140.466724,5.18163967 140.5385,5.07397473 140.559008,5.05004883 C140.579516,5.02612293 140.608569,5.01586912 140.646166,5.01928711 C140.683764,5.0227051 140.767504,5.10302656 140.897387,5.26025391 L141.492114,5.97802734 C141.649341,6.17627052 141.724536,6.31298791 141.7177,6.38818359 C141.710864,6.47705123 141.669848,6.52148438 141.594653,6.52148438 L140.682055,6.52148438 L140.682055,6.53173828 L138.282641,6.53173828 C138.364673,6.75048938 138.313404,6.86669915 138.128832,6.88037109 L137.944262,6.92138672 L136.775317,8.00830078 C137.035084,8.31591951 137.320481,8.6765116 137.631518,9.09008789 C137.942555,9.50366418 138.272385,10.1035117 138.62102,10.8896484 C139.003834,10.4931621 139.412278,10.0163602 139.846362,9.45922852 C140.280446,8.90209682 140.589769,8.48339984 140.77434,8.203125 L141.133227,7.63916016 C141.167407,7.59130835 141.196459,7.56396488 141.220385,7.55712891 C141.244311,7.55029293 141.293871,7.59814402 141.369067,7.70068359 L142.199633,8.76708984 C142.343189,8.95849705 142.414965,9.07812476 142.414965,9.12597656 C142.408129,9.22168017 142.346606,9.26953125 142.230395,9.26953125 L141.881762,9.26953125 C141.177657,9.78222913 140.507742,10.2368144 139.871997,10.6333008 C139.93352,10.8930677 140.025804,11.2246074 140.148852,11.6279297 C140.271899,12.031252 140.634201,12.6635699 141.235766,13.5249023 C141.837332,14.3862348 142.561934,15.0151347 143.409594,15.4116211 L144.29143,15.8217773 C144.352954,15.8559572 144.383715,15.9106442 144.383715,15.9858398 C144.383715,16.0815434 144.346118,16.1396483 144.270922,16.1601562 L143.922289,16.2626953 C143.778734,16.3105471 143.655688,16.3737789 143.553149,16.4523926 C143.450609,16.5310063 143.354907,16.6318353 143.266039,16.7548828 L142.845629,17.4008789 C142.804613,17.4624027 142.767016,17.4931641 142.732836,17.4931641 C142.671313,17.5 142.47649,17.3667006 142.148364,17.0932617 C141.820237,16.8198229 141.454518,16.3652376 141.051196,15.7294922 C140.647873,15.0937468 140.335132,14.4306675 140.112963,13.7402344 C139.890794,13.0498012 139.74895,12.3354529 139.687426,11.597168 L139.605395,10.7871094 L138.744067,11.3100586 C138.812427,11.6176773 138.904711,12.0415012 139.020922,12.581543 C139.137134,13.1215847 139.195239,13.8632765 139.195239,14.8066406 C139.188403,15.9482479 139.063648,16.777097 138.820971,17.2932129 C138.578294,17.8093288 138.280934,18.2092271 137.928881,18.4929199 C137.576829,18.7766127 137.250416,18.918457 136.949633,18.918457 C136.915453,18.925293 136.884692,18.9218751 136.857348,18.9082031 C136.830004,18.8945312 136.800952,18.850098 136.77019,18.7749023 C136.739428,18.6997067 136.694995,18.5356458 136.636889,18.2827148 C136.578783,18.0297839 136.486499,17.8076181 136.360034,17.6162109 C136.233568,17.4248037 136.105396,17.2880863 135.975512,17.2060547 L135.33977,16.847168 C135.278246,16.8198241 135.250903,16.7651371 135.257739,16.6831055 C135.257739,16.560058 135.309008,16.508789 135.411547,16.5292969 L136.129321,16.7138672 C136.245532,16.748047 136.445481,16.7668457 136.729174,16.7702637 C137.012867,16.7736817 137.231615,16.7121588 137.385424,16.5856934 C137.539234,16.4592279 137.655443,16.2849132 137.734057,16.0627441 C137.812671,15.8405751 137.86394,15.4816919 137.887866,14.986084 C137.911792,14.490476 137.927172,14.0546894 137.934008,13.6787109 C137.934008,13.412108 137.93059,13.203614 137.923754,13.0532227 L137.882739,12.3149414 C137.212813,13.0942422 136.568533,13.7863739 135.949877,14.3913574 C135.331222,14.9963409 134.666434,15.5483373 133.955493,16.0473633 C133.244552,16.5463892 132.762623,16.8642571 132.509692,17.0009766 L131.894457,17.3393555 C131.73723,17.4282231 131.631274,17.4572755 131.576586,17.4265137 C131.521899,17.3957518 131.494555,17.3718263 131.494555,17.3547363 L131.494555,17.2983398 C131.501391,17.2299801 131.53557,17.1650394 131.597094,17.1035156 L131.82268,16.9394531 L132.427661,16.4780273 C133.077078,15.9858374 133.688888,15.4406768 134.26311,14.8425293 C134.837331,14.2443818 135.361984,13.6445343 135.837084,13.0429688 C136.312184,12.4414032 136.864181,11.5698299 137.49309,10.4282227 L137.349536,9.90527344 C136.700118,10.6230505 136.030203,11.3134732 135.33977,11.9765625 C134.649337,12.6396518 133.692315,13.3403283 132.468676,14.0786133 L131.914965,14.4169922 C131.73723,14.5263677 131.622729,14.5571291 131.571459,14.5092773 C131.52019,14.4614255 131.497973,14.4135745 131.504809,14.3657227 C131.504809,14.3110349 131.538988,14.2495121 131.607348,14.1811523 L131.853442,13.996582 L132.386645,13.5761719 C133.036062,13.063474 133.788008,12.3234912 134.642504,11.3562012 C135.497001,10.3889112 136.163498,9.44043434 136.642016,8.51074219 L136.4677,8.28515625 C135.818282,8.83886996 135.201345,9.31908976 134.61687,9.72583008 C134.032394,10.1325704 133.45989,10.4760728 132.89934,10.7563477 L132.345629,11.0332031 C132.161058,11.1289067 132.046557,11.1545412 132.002123,11.1101074 C131.95769,11.0656736 131.938891,11.0263674 131.945727,10.9921875 C131.945727,10.9511717 131.979906,10.8964847 132.048266,10.828125 L132.386645,10.5922852 L132.807055,10.284668 C133.593192,9.71728232 134.256271,9.11572583 134.796313,8.47998047 C135.336355,7.8442351 135.821701,7.19482753 136.252368,6.53173828 L133.401782,6.53173828 C133.28557,6.53173828 133.217211,6.43945405 133.196704,6.25488281 C133.176196,6.07031158 133.244554,5.97802734 133.401782,5.97802734 L139.964282,5.97802734 Z M142.045825,3.81445313 L133.453051,3.81445313 C133.453051,3.9169927 133.456469,4.00756797 133.463305,4.08618164 C133.470141,4.16479531 133.473559,4.25195265 133.473559,4.34765625 C133.466723,4.74414261 133.417163,5.10302574 133.324877,5.42431641 C133.232592,5.74560708 133.097583,6.0002432 132.919848,6.18823242 C132.742113,6.37622164 132.554126,6.46679691 132.355883,6.45996094 C132.007249,6.45996094 131.781665,6.32666149 131.679125,6.06005859 C131.576586,5.7934557 131.523608,5.60205136 131.52019,5.48583984 C131.516772,5.36962833 131.521899,5.27392616 131.535571,5.19873047 C131.569751,4.97997938 131.622729,4.81250058 131.694506,4.69628906 C131.766284,4.58007754 131.961106,4.33227729 132.278979,3.95288086 C132.596852,3.57348443 132.779711,3.15820538 132.827563,2.70703125 L132.868579,2.24560547 C132.875415,2.12255798 132.911303,2.04907239 132.976245,2.02514648 C133.041186,2.00122058 133.114672,2.136229 133.196704,2.43017578 C133.258227,2.66943479 133.295825,2.81640598 133.309497,2.87109375 C133.323168,2.92578152 133.350512,3.05566304 133.391528,3.26074219 L142.015063,3.26074219 L142.281664,2.84033203 C142.411548,2.63525288 142.493578,2.53100588 142.527758,2.52758789 C142.561938,2.5241699 142.688402,2.64892452 142.907153,2.90185547 L143.81975,3.96826172 C144.02483,4.20752073 144.13933,4.36816365 144.163256,4.45019531 C144.187182,4.53222697 144.200854,4.60058566 144.204272,4.65527344 C144.20769,4.70996121 144.182055,4.7680661 144.127368,4.82958984 C144.059008,4.9116215 143.918873,4.94067395 143.706957,4.91674805 C143.495042,4.89282215 143.276295,4.91162079 143.050707,4.97314453 C142.82512,5.03466828 142.657642,5.10815387 142.548266,5.19360352 C142.43889,5.27905316 142.305591,5.41064364 142.148364,5.58837891 L141.90227,5.86523438 C141.779222,6.00878978 141.705737,6.06347673 141.681811,6.02929688 C141.657885,5.99511702 141.644213,5.9541018 141.640795,5.90625 C141.637377,5.8583982 141.652758,5.7695319 141.686938,5.63964844 L141.809985,5.05517578 L141.963793,4.22460938 C142.011645,3.97851439 142.038989,3.84179701 142.045825,3.81445313 Z M136.41643,0.389648438 C136.368578,0.321288721 136.344653,0.259765898 136.344653,0.205078125 C136.344653,0.150390352 136.402758,0.112793071 136.518969,0.0922851562 C136.546313,0.0922851562 136.587328,0.0991210254 136.642016,0.112792969 L137.093188,0.24609375 C137.694753,0.444336929 138.094652,0.728025498 138.292895,1.09716797 C138.491138,1.46631044 138.588549,1.79272319 138.585131,2.07641602 C138.581713,2.36010884 138.50481,2.62158083 138.354418,2.86083984 C138.204027,3.10009885 137.998951,3.21630863 137.739184,3.20947266 C137.547777,3.20947266 137.387134,3.13598706 137.25725,2.98901367 C137.127367,2.84204028 137.050463,2.700196 137.026538,2.56347656 C137.002612,2.42675713 136.985522,2.21313622 136.975268,1.92260742 C136.965014,1.63207863 136.925708,1.38427837 136.857348,1.17919922 C136.788988,0.974120068 136.642017,0.710939106 136.41643,0.389648438 Z M147.931274,8.38769531 C147.856078,9.52930258 147.767212,10.552974 147.664672,11.4587402 C147.562133,12.3645065 147.391236,13.2548784 147.151977,14.1298828 C146.912718,15.0048872 146.620485,15.7944301 146.275268,16.4985352 C145.930051,17.2026402 145.589967,17.7836891 145.255004,18.2416992 L144.967895,18.6210938 C144.906371,18.7099614 144.85852,18.7578125 144.82434,18.7646484 C144.79016,18.7714844 144.766235,18.7680665 144.752563,18.7543945 C144.738891,18.7407226 144.730346,18.716797 144.726928,18.6826172 C144.72351,18.6484373 144.749145,18.5766607 144.803832,18.4672852 L144.998657,18.046875 C145.251588,17.5273412 145.497679,16.8933143 145.736938,16.1447754 C145.976197,15.3962365 146.206907,14.3811099 146.429077,13.0993652 C146.651246,11.8176205 146.782836,9.91895789 146.823852,7.40332031 L146.84436,5.42431641 L146.864868,4.63476562 L144.87561,4.63476562 L144.82434,4.62451172 C144.776488,4.6040038 144.7406,4.58007826 144.716674,4.55273438 C144.692748,4.52539049 144.67395,4.43823316 144.660278,4.29125977 C144.646606,4.14428637 144.714964,4.07080078 144.865356,4.07080078 L149.387328,4.07080078 L149.807739,3.34277344 C149.841919,3.27441372 149.874389,3.19751019 149.905151,3.11206055 C149.935913,3.0266109 149.966674,2.99072259 149.997436,3.00439453 C150.028198,3.01806647 150.098265,3.09667897 150.207641,3.24023438 L151.048461,4.35791016 C151.171509,3.85204825 151.270629,3.42480643 151.345825,3.07617188 C151.42102,2.72753732 151.496215,2.31909414 151.571411,1.85083008 C151.646606,1.38256602 151.694457,1.04589946 151.714965,0.840820312 L151.745727,0.440917969 L151.755981,0.184570312 C151.796997,0.116210596 151.865355,0.109374727 151.961059,0.1640625 L153.242797,0.933105469 C153.359009,1.00830116 153.420532,1.05957018 153.427368,1.08691406 C153.434204,1.11425795 153.43933,1.15185523 153.442748,1.19970703 C153.446166,1.24755883 153.413696,1.29540992 153.345336,1.34326172 L153.006957,1.57910156 C152.576291,2.74121675 152.299438,3.45898301 152.176391,3.73242188 L155.570434,3.73242188 L156.124145,2.7890625 C156.199341,2.65917904 156.260863,2.59252931 156.308715,2.58911133 C156.356567,2.58569334 156.452269,2.67285067 156.595825,2.85058594 L157.385375,3.82470703 C157.481079,3.95459049 157.534057,4.03491196 157.544311,4.06567383 C157.554565,4.0964357 157.561401,4.13915988 157.564819,4.19384766 C157.568237,4.24853543 157.515259,4.27587891 157.405883,4.27587891 L156.759887,4.27587891 L156.759887,4.29638672 L151.961059,4.29638672 C151.455197,5.3627983 151.007448,6.22411781 150.617797,6.88037109 L150.340942,7.33154297 C150.299926,7.39990269 150.26062,7.43237306 150.223022,7.42895508 C150.185424,7.42553709 150.163207,7.41357432 150.156371,7.39306641 C150.149535,7.37255849 150.144409,7.34350605 150.140991,7.3059082 C150.137573,7.26831036 150.156371,7.1982427 150.197387,7.09570312 L150.36145,6.64453125 C150.498169,6.26171684 150.710081,5.59180166 150.997192,4.63476562 L148.320922,4.63476562 C148.238891,4.84668075 148.187622,4.95947259 148.167114,4.97314453 L148.074828,5.06542969 C148.026977,6.11133335 147.985961,7.03759362 147.951782,7.84423828 L149.069457,7.84423828 L149.377075,7.23925781 C149.45227,7.08203046 149.494994,7.00512694 149.505248,7.00854492 C149.515502,7.01196291 149.592406,7.0751947 149.735961,7.19824219 L150.556274,7.96728516 C150.556274,7.97412113 150.587035,8.01855428 150.648559,8.10058594 C150.710083,8.1826176 150.739135,8.24414042 150.735717,8.28515625 C150.732299,8.32617208 150.686157,8.40136664 150.597289,8.51074219 L150.36145,8.80810547 C150.340942,9.25244363 150.303344,10.0300237 150.248657,11.1408691 C150.193969,12.2517145 150.12561,13.2958935 150.043578,14.2734375 C149.961547,15.2509815 149.836792,15.9824194 149.669311,16.4677734 C149.50183,16.9531274 149.226686,17.4555638 148.843871,17.9750977 C148.461057,18.4946315 148.143189,18.6962896 147.890258,18.5800781 C147.849242,18.5664062 147.815063,18.5493165 147.787719,18.5288086 C147.760375,18.5083007 147.75183,18.3920909 147.762084,18.1801758 C147.772338,17.9682607 147.760376,17.7836922 147.726196,17.6264648 C147.657836,17.3735339 147.560425,17.156495 147.433959,16.9753418 C147.307494,16.7941885 147.196411,16.6762698 147.100707,16.621582 L146.905883,16.519043 C146.817016,16.4780271 146.776,16.4096684 146.782836,16.3139648 C146.782836,16.272949 146.798217,16.2370607 146.828979,16.2062988 C146.859741,16.175537 146.895629,16.1669921 146.936645,16.1806641 L147.192993,16.2729492 C147.575807,16.4233406 147.83557,16.4916993 147.972289,16.4780273 C148.2594,16.4643554 148.476439,16.2387717 148.623412,15.8012695 C148.770386,15.3637673 148.891723,14.4084546 148.987426,12.9353027 C149.08313,11.4621508 149.158324,9.94629686 149.213012,8.38769531 L147.931274,8.38769531 Z M152.894164,11.6176758 C152.914672,11.1733376 152.933471,10.8076186 152.950561,10.5205078 C152.967651,10.233397 152.996703,9.49512313 153.037719,8.30566406 L152.248168,8.30566406 C151.920042,9.06445692 151.67395,9.60449058 151.509887,9.92578125 L151.140746,10.612793 L150.884399,11.0947266 C150.822875,11.1972661 150.771606,11.2468262 150.73059,11.2434082 C150.689574,11.2399902 150.662231,11.2297364 150.648559,11.2126465 C150.634887,11.1955566 150.62976,11.1647951 150.633178,11.1203613 C150.636596,11.0759275 150.648559,11.0126957 150.669067,10.9306641 L150.853637,10.3051758 C151.058716,9.63525056 151.262083,8.86621528 151.463745,7.99804688 C151.665406,7.12987847 151.796996,6.31641004 151.85852,5.55761719 L151.899536,5.14746094 L151.920043,4.85009766 C151.940551,4.83642571 152.002074,4.85693332 152.104614,4.91162109 L153.365844,5.58837891 C153.427368,5.62939474 153.458129,5.67382789 153.458129,5.72167969 C153.451293,5.7900394 153.413696,5.85498016 153.345336,5.91650391 L153.006957,6.19335938 L152.484008,7.75195313 L155.406371,7.75195313 L155.826782,6.97265625 C155.915649,6.79492099 155.972045,6.70776365 155.995971,6.71118164 C156.019897,6.71459963 156.110472,6.80175696 156.2677,6.97265625 L156.954711,7.79296875 C157.098267,7.96386804 157.171752,8.08862265 157.17517,8.16723633 C157.178588,8.24585 157.084595,8.28515625 156.893188,8.28515625 L155.765258,8.28515625 L155.765258,8.30566406 L154.43225,8.30566406 C154.391235,8.39453169 154.31604,8.5141594 154.206664,8.66455078 C154.165649,9.6010789 154.131469,10.3017555 154.104125,10.7666016 L154.06311,11.3920898 L154.042602,11.6176758 L155.867797,11.6176758 L156.411254,10.6743164 C156.506958,10.5170891 156.561645,10.4401855 156.575317,10.4436035 C156.588989,10.4470215 156.684691,10.5615223 156.862426,10.7871094 L157.508422,11.6279297 C157.686158,11.8671887 157.775024,12.0175778 157.775024,12.0791016 C157.775024,12.1406253 157.734009,12.1713867 157.651977,12.1713867 L156.575317,12.1713867 L156.575317,12.1816406 L154.257934,12.1816406 C154.33313,12.5097673 154.430541,12.887449 154.55017,13.3146973 C154.6698,13.7419455 154.893675,14.2272922 155.221801,14.770752 C155.549928,15.3142117 155.924192,15.7790508 156.344604,16.1652832 C156.765016,16.5515156 157.217892,16.8095697 157.703246,16.9394531 L158.00061,17.0214844 C158.103149,17.0556642 158.166381,17.0864256 158.190307,17.1137695 C158.214233,17.1411134 158.227905,17.1821286 158.231323,17.2368164 C158.234741,17.2915042 158.192016,17.3393553 158.103149,17.3803711 L157.939086,17.4624023 C157.651975,17.6059577 157.433228,17.7734365 157.282836,17.9648438 C157.132445,18.156251 157.033325,18.3425284 156.985473,18.5236816 C156.937621,18.7048349 156.90686,18.8124998 156.893188,18.8466797 C156.879516,18.8808595 156.859008,18.8945313 156.831664,18.8876953 C156.742797,18.8808593 156.549683,18.7253433 156.252319,18.4211426 C155.954954,18.1169418 155.756714,17.9084478 155.657592,17.7956543 C155.558471,17.6828608 155.348268,17.3513211 155.026977,16.8010254 C154.705686,16.2507297 154.485229,15.6337925 154.3656,14.9501953 C154.24597,14.2665981 154.169067,13.6821313 154.134887,13.1967773 L154.083618,12.3969727 L154.073364,12.1816406 L153.981078,12.1816406 C153.919555,12.6191428 153.859741,13.0241681 153.801635,13.3967285 C153.743529,13.769289 153.598267,14.290524 153.365844,14.9604492 C153.133421,15.6303744 152.762575,16.228513 152.253295,16.7548828 C151.744015,17.2812526 151.344117,17.6418447 151.053588,17.8366699 C150.763059,18.0314951 150.417848,18.2314443 150.017944,18.4365234 C149.618039,18.6416026 149.380493,18.7509765 149.305297,18.7646484 L149.141235,18.8056641 C149.072875,18.826172 149.038696,18.7885747 149.038696,18.6928711 C149.038696,18.6313473 149.069457,18.5800783 149.130981,18.5390625 L149.295043,18.4262695 C149.876101,18.0297832 150.436642,17.5632351 150.976684,17.0266113 C151.516726,16.4899876 151.925169,15.7961468 152.202026,14.9450684 C152.478883,14.0939899 152.641235,13.5009782 152.689086,13.1660156 C152.736938,12.831053 152.784789,12.5029313 152.832641,12.1816406 L150.556274,12.1816406 C150.440062,12.1816406 150.371704,12.0876474 150.351196,11.8996582 C150.330688,11.711669 150.399046,11.6176758 150.556274,11.6176758 L152.894164,11.6176758 Z M146.926391,0.553710937 C146.926391,0.444335391 146.953734,0.386230503 147.008422,0.379394531 C147.076782,0.379394531 147.189574,0.43066355 147.346801,0.533203125 L147.787719,0.830566406 C148.519168,1.35693623 148.881469,1.98583619 148.874633,2.71728516 C148.874633,2.92236431 148.819946,3.17016456 148.710571,3.46069336 C148.601195,3.75122216 148.406373,3.89819334 148.126098,3.90161133 C147.845823,3.90502931 147.633911,3.81103611 147.490356,3.61962891 C147.360472,3.46240156 147.292114,3.24365375 147.285278,2.96337891 C147.271606,2.84716739 147.275024,2.64380028 147.295532,2.35327148 C147.31604,2.06274269 147.324584,1.89184596 147.321166,1.84057617 C147.317748,1.78930638 147.309204,1.66455177 147.295532,1.46630859 C147.28186,1.26806542 147.206665,1.04589967 147.069946,0.799804687 L146.926391,0.553710937 Z" id="梅赛德斯-AMG-GT-家族"></path>
            </g>
        </g>
    </g>
</svg>