<?xml version="1.0" encoding="UTF-8"?>
<svg width="246px" height="80px" viewBox="0 0 246 80" version="1.1" xmlns="http://www.w3.org/2000/svg" xmlns:xlink="http://www.w3.org/1999/xlink">
    <!-- Generator: Sketch 50 (54983) - http://www.bohemiancoding.com/sketch -->
    <title>AM</title>
    <desc>Created with Sketch.</desc>
    <defs></defs>
    <g id="Page-1" stroke="none" stroke-width="1" fill="none" fill-rule="evenodd">
        <g id="AMG-C63-Headline&amp;Subheadline-D" transform="translate(-21.000000, 0.000000)" fill="#FFFFFF">
            <g id="AM" transform="translate(14.000000, 0.000000)">
                <path d="M89.6418227,10.744043 L86.0324477,10.744043 L85.0890883,14.7123047 C85.0480725,14.8695321 85.0309828,15.0233391 85.0378188,15.1737305 C85.0446548,15.3241219 85.1044686,15.4540034 85.2172622,15.5633789 C85.3300557,15.6727545 85.5368407,15.7274414 85.8376235,15.7274414 L86.3093032,15.7274414 C86.4733665,15.7274414 86.5553969,15.8316885 86.5553969,16.0401856 C86.5553969,16.2486827 86.4733665,16.3529297 86.3093032,16.3529297 L83.2228774,16.3529297 C83.0929939,16.3529297 83.0195083,16.2486827 83.0024184,16.0401856 C82.9853285,15.8316885 83.0588141,15.7274414 83.2228774,15.7274414 L83.6330336,15.7274414 C83.7765891,15.7274414 83.9030526,15.6864262 84.0124282,15.6043946 C84.1218037,15.5223629 84.2192149,15.4061531 84.3046645,15.2557618 C84.3901142,15.1053704 84.4635997,14.9037122 84.5251235,14.6507813 L87.7243422,1.55654301 C87.7995379,1.26259623 87.9174567,1.1122071 88.078102,1.10537113 C88.2387473,1.09853516 88.360084,1.23183461 88.4421157,1.50527348 L91.9284438,14.6200196 C92.0241474,14.989162 92.15232,15.2660147 92.3129653,15.450586 C92.4736106,15.6351572 92.6427984,15.7274414 92.8205336,15.7274414 L93.0563735,15.7274414 C93.1999289,15.7274414 93.2717055,15.8316885 93.2717055,16.0401856 C93.2717055,16.2486827 93.1999289,16.3529297 93.0563735,16.3529297 L89.7136001,16.3529297 C89.5768806,16.3529297 89.5085219,16.2486827 89.5085219,16.0401856 C89.5085219,15.8316885 89.5768806,15.7274414 89.7136001,15.7274414 L89.9699477,15.7274414 C90.2912384,15.7274414 90.4928965,15.6830083 90.5749282,15.5941407 C90.6569598,15.505273 90.7082289,15.401026 90.7287368,15.2813965 C90.7492447,15.161767 90.7150653,14.9173847 90.6261977,14.5482422 L89.6418227,10.744043 Z M86.1862563,10.1800782 L89.4777602,10.1800782 L87.7448501,3.60732426 L86.1862563,10.1800782 Z M97.2374282,1.36171879 L100.723756,13.6048829 L103.984498,1.36171879 L106.578737,1.36171879 C106.735964,1.36171879 106.821412,1.4813465 106.835084,1.72060551 C106.848756,1.95986452 106.763308,2.07949223 106.578737,2.07949223 L106.066041,2.07949223 C105.874634,2.07949223 105.737917,2.11879847 105.655885,2.19741215 C105.573854,2.27602582 105.527711,2.34780245 105.517457,2.41274418 C105.507204,2.47768591 105.502077,2.65712748 105.502077,2.95107426 L105.502077,14.4457032 C105.502077,14.8285176 105.52942,15.1019523 105.584108,15.2660157 C105.638796,15.430079 105.725953,15.5565426 105.845582,15.6454102 C105.965212,15.7342778 106.137818,15.778711 106.363405,15.778711 L106.835084,15.778711 C106.985476,15.778711 107.06067,15.8744131 107.06067,16.0658204 C107.06067,16.2572276 106.985476,16.3529297 106.835084,16.3529297 L103.194948,16.3529297 C103.058228,16.3529297 102.98987,16.2572276 102.98987,16.0658204 C102.98987,15.8744131 103.058228,15.778711 103.194948,15.778711 L103.523073,15.778711 C103.707644,15.778711 103.854615,15.7308599 103.963991,15.6351563 C104.073366,15.5394527 104.146852,15.4249519 104.18445,15.2916504 C104.222048,15.158349 104.240846,14.9002949 104.240846,14.5174805 L104.240846,2.61269535 L100.682741,15.994043 C100.614381,16.2196301 100.515261,16.3409668 100.385377,16.3580567 C100.255494,16.3751466 100.152956,16.2435561 100.07776,15.9632813 L96.488893,3.3407227 L96.4991469,14.8250977 C96.4991469,15.0917006 96.5367442,15.281396 96.6119399,15.3941895 C96.6871356,15.506983 96.8067633,15.5992673 96.9708266,15.671045 C97.1348899,15.7428227 97.3365481,15.778711 97.5758071,15.778711 L97.9244399,15.778711 C98.1021752,15.778711 98.1842056,15.8744131 98.1705336,16.0658204 C98.1568617,16.2572276 98.0748313,16.3529297 97.9244399,16.3529297 L94.7764907,16.3529297 C94.6466072,16.3529297 94.5714127,16.2572276 94.5509047,16.0658204 C94.5303968,15.8744131 94.6055914,15.778711 94.7764907,15.778711 L95.2174086,15.778711 C95.374636,15.778711 95.5233162,15.7445316 95.6634536,15.6761719 C95.803591,15.6078122 95.8992932,15.5172369 95.9505629,15.4044434 C96.0018327,15.2916499 96.0274672,15.1122083 96.0274672,14.8661133 L96.0274672,3.5047852 C96.0274672,3.06728301 96.0035417,2.76821373 95.9556899,2.6075684 C95.9078381,2.44692306 95.8275166,2.31875052 95.7147231,2.22304691 C95.6019296,2.12734331 95.4156521,2.07949223 95.1558852,2.07949223 L94.6431899,2.07949223 C94.4722906,2.07949223 94.3868422,1.95986452 94.3868422,1.72060551 C94.3868422,1.4813465 94.4722906,1.36171879 94.6431899,1.36171879 L97.2374282,1.36171879 Z M114.24612,10.1903321 L113.630885,10.1903321 C113.473658,10.1903321 113.391627,10.0809582 113.384791,9.86220707 C113.377955,9.64345598 113.459986,9.53408207 113.630885,9.53408207 L117.4761,9.53408207 C117.640163,9.53408207 117.718776,9.64345598 117.71194,9.86220707 C117.705104,10.0809582 117.626491,10.1903321 117.4761,10.1903321 L117.096706,10.1903321 C116.91897,10.1903321 116.783962,10.2347652 116.691676,10.3236329 C116.599391,10.4125005 116.531032,10.5218744 116.486598,10.6517579 C116.442164,10.7816413 116.419948,10.9251946 116.419948,11.0824219 L116.419948,15.7376954 C116.419948,15.8880867 116.387477,15.9820799 116.322536,16.0196778 C116.257594,16.0572756 116.187526,16.038477 116.112331,15.9632813 L115.948268,15.7684571 C115.832057,15.6454096 115.678249,15.5804688 115.486842,15.5736329 C115.322779,15.5736329 115.098904,15.6522453 114.815211,15.8094727 C114.531519,15.9667 114.249539,16.1051264 113.969264,16.2247559 C113.688989,16.3443854 113.35745,16.4076172 112.974635,16.4144532 C112.523461,16.4281251 112.039823,16.3170422 111.523707,16.0812012 C111.007592,15.8453602 110.501737,15.436917 110.006129,14.8558594 C109.510521,14.2748018 109.131131,13.5895059 108.867946,12.7999512 C108.604761,12.0103965 108.435573,11.1730025 108.360377,10.2877442 C108.285182,9.40248585 108.292018,8.46768074 108.380885,7.48330082 C108.476589,6.43056118 108.657739,5.48721124 108.924342,4.6532227 C109.190945,3.81923415 109.536157,3.14077414 109.959987,2.61782231 C110.383817,2.09487047 110.860619,1.72060664 111.390407,1.49501957 C111.920195,1.26943251 112.455101,1.16347653 112.995143,1.17714848 C113.268582,1.19082042 113.512964,1.22670873 113.728297,1.28481449 C113.94363,1.34292025 114.164087,1.42665965 114.389674,1.5360352 C114.615261,1.64541074 114.772486,1.70693356 114.861354,1.72060551 C115.039089,1.76845731 115.174098,1.75649454 115.266383,1.68471684 C115.358669,1.61293913 115.432154,1.51894593 115.486842,1.40273441 L115.589381,1.17714848 C115.630397,1.09511682 115.695338,1.04555677 115.784206,1.02846684 C115.873073,1.01137691 115.948268,1.11904185 116.009791,1.35146488 L116.778834,4.61220707 C116.847194,4.91298982 116.813015,5.10952106 116.676295,5.20180668 C116.539576,5.2940923 116.430202,5.23769638 116.34817,5.03261723 L116.1636,4.63271488 C116.033717,4.34560407 115.871365,4.0414079 115.67654,3.72011723 C115.481714,3.39882656 115.233914,3.09121245 114.933131,2.79726566 C114.632349,2.50331888 114.271756,2.26406346 113.851344,2.07949223 C113.430932,1.89492099 112.960966,1.87783132 112.441432,2.0282227 C112.092798,2.13076227 111.744168,2.33412938 111.395534,2.63833012 C111.046899,2.94253086 110.720486,3.40566099 110.416286,4.02773441 C110.112085,4.64980784 109.903591,5.33339475 109.790797,6.07851566 C109.678004,6.82363658 109.613063,7.57045528 109.595973,8.31899418 C109.578883,9.06753308 109.590846,9.70839581 109.631862,10.2416016 C109.707057,11.3080132 109.907007,12.2838335 110.231715,13.1690918 C110.556424,14.0543502 110.964867,14.688377 111.457057,15.0711914 C111.949247,15.4540059 112.475609,15.6590819 113.036159,15.6864258 C113.5762,15.7206057 114.034204,15.5855973 114.410182,15.2813965 C114.786161,14.9771958 115.027125,14.6166037 115.133082,14.1996094 C115.23904,13.7826151 115.292018,13.4066423 115.292018,13.0716797 L115.292018,11.3592774 C115.292018,11.0926745 115.261257,10.8739267 115.199733,10.7030274 C115.138209,10.5321281 115.039089,10.4039555 114.90237,10.3185059 C114.76565,10.2330563 114.546902,10.1903321 114.24612,10.1903321 Z M121.082936,8.33437504 L121.134206,8.32412113 L127.912038,8.33437504 L128.250416,7.7806641 C128.3803,7.56191301 128.464039,7.46621084 128.501637,7.49355473 C128.539235,7.52089861 128.588795,7.5687497 128.650319,7.63710941 L129.593678,8.66250004 C129.634694,8.71035184 129.660329,8.76162086 129.670582,8.81630863 C129.680836,8.87099641 129.627858,8.95302684 129.511647,9.06240238 L129.142506,9.40078129 L128.711842,12.4872071 L130.46526,12.4872071 L130.783131,11.8617188 C130.851491,11.7318353 130.901051,11.6617677 130.931813,11.6515137 C130.962575,11.6412598 131.008717,11.6668943 131.070241,11.728418 L132.136647,12.8460938 C132.170827,12.8871096 132.191334,12.917871 132.19817,12.9383789 L132.19817,12.9896485 C132.19817,13.0101564 132.196461,13.0272461 132.193043,13.040918 C132.189625,13.05459 132.160573,13.0853514 132.105885,13.1332032 L131.726491,13.4715821 C131.678639,13.9569361 131.605153,14.6114705 131.506032,15.4352051 C131.40691,16.2589397 131.254812,16.8844217 131.049733,17.31167 C130.844654,17.7389182 130.627615,18.0653309 130.39861,18.290918 C130.169605,18.5165051 129.969656,18.6668942 129.798756,18.7420899 L129.142506,19.0189454 C129.067311,19.0667972 129.016042,19.0873048 128.988698,19.0804688 C128.927174,19.0736328 128.875905,18.9745127 128.834889,18.7831055 L128.752858,18.3729493 C128.657154,17.962791 128.407645,17.6380872 128.004323,17.3988282 L127.60442,17.1527344 C127.556569,17.1322265 127.532643,17.0963382 127.532643,17.0450684 C127.532643,16.9937986 127.542897,16.9510744 127.563405,16.9168946 C127.583913,16.8827147 127.614674,16.869043 127.65569,16.8758789 L127.983815,16.9374024 C128.332449,17.0057621 128.650317,17.0399414 128.937428,17.0399414 C129.163015,17.0467774 129.3698,17.0057622 129.55779,16.9168946 C129.745779,16.8280269 129.897877,16.6109881 130.014088,16.2657715 C130.1303,15.920555 130.222584,15.5411642 130.290944,15.1275879 C130.359304,14.7140116 130.402028,14.3790541 130.419118,14.1227051 C130.436208,13.8663562 130.461842,13.5057641 130.496022,13.040918 L122.754323,13.040918 L122.477467,13.4920899 L122.344166,13.7689454 C122.323659,13.7962892 122.309987,13.8116699 122.303151,13.8150879 C122.296315,13.8185059 122.251882,13.7723638 122.16985,13.6766602 L121.400807,12.928125 C121.325611,12.8597653 121.286305,12.8153322 121.282887,12.7948243 L121.272633,12.7333008 C121.269215,12.7127929 121.27776,12.6922853 121.298268,12.6717774 L121.359791,12.6307618 L121.718678,12.3744141 C121.814382,11.8753882 121.881032,11.5096692 121.918629,11.2772461 C121.956227,11.0448231 122.016041,10.6141633 122.098073,9.98525395 L122.16985,9.40078129 L122.200612,9.02138676 C122.214284,8.9872069 122.227955,8.95986342 122.241627,8.93935551 L122.487721,9.0829102 L123.53362,9.67763676 C123.677175,9.76650439 123.743825,9.83657205 123.733571,9.88784184 C123.723317,9.93911162 123.697682,9.97841787 123.656666,10.0057618 L123.287526,10.2826172 L122.938893,12.4872071 L127.481373,12.4872071 L127.932545,8.85732426 L121.113698,8.85732426 C121.011158,8.85732426 120.956471,8.7872566 120.949635,8.64711918 C120.942799,8.50698176 120.987232,8.40273476 121.082936,8.33437504 Z M127.747975,14.9378907 L128.26067,13.9945313 C128.349538,13.823632 128.399098,13.7398926 128.409352,13.7433106 C128.419606,13.7467286 128.472584,13.8031245 128.568288,13.9125 L129.542409,15.1122071 C129.62444,15.2284186 129.662038,15.3189939 129.655202,15.3839356 C129.648366,15.4488773 129.617604,15.4813477 129.562916,15.4813477 L129.306569,15.4813477 L129.306569,15.5018555 L120.047291,15.5018555 C119.93108,15.5018555 119.869557,15.4078623 119.862721,15.2198731 C119.855885,15.0318839 119.917408,14.9378907 120.047291,14.9378907 L127.747975,14.9378907 Z M119.380788,2.74599613 L119.493581,2.66396488 L121.380299,2.62294926 C121.400807,2.30849456 121.417897,2.0504405 121.431569,1.84877934 C121.445241,1.64711817 121.453786,1.49160215 121.457204,1.3822266 C121.460622,1.27285106 121.462331,1.20449236 121.462331,1.17714848 L121.452077,0.490136758 L121.431569,0.0697266019 C121.438405,0.0355467435 121.44695,0.0133301688 121.457204,0.00307621125 C121.467458,-0.00717774627 121.544361,0.0082029593 121.687916,0.0492187894 L123.102956,0.469628946 C123.178151,0.496972832 123.21404,0.539697014 123.210622,0.597802774 C123.207204,0.655908533 123.171315,0.715722388 123.102956,0.777246133 L122.744069,1.11562504 C122.709889,1.54629126 122.685963,1.8675771 122.672291,2.07949223 L122.651784,2.27431645 L122.610768,2.61269535 L124.118092,2.58193363 L124.37444,2.0384766 C124.449636,1.87441328 124.495778,1.78554698 124.512868,1.77187504 C124.529958,1.7582031 124.586353,1.79238244 124.682057,1.8744141 L125.615163,2.70498051 C125.676686,2.76650425 125.705739,2.82290017 125.702321,2.87416996 C125.698903,2.92543975 125.663014,2.98867154 125.594655,3.06386723 L125.297291,3.36123051 C125.256276,3.91494421 125.210134,4.50624689 125.158864,5.13515629 C125.107594,5.76406568 125.011892,6.28700967 124.871754,6.70400395 C124.731617,7.12099822 124.480399,7.40810472 124.118092,7.56533207 C123.755786,7.72255942 123.55071,7.77724637 123.502858,7.72939457 C123.475514,7.70888666 123.453297,7.62685623 123.436207,7.48330082 C123.419118,7.33974542 123.378102,7.14834108 123.313161,6.90908207 C123.248219,6.66982306 123.072195,6.46474699 122.785084,6.2938477 L122.385182,6.06826176 C122.364674,6.06142579 122.342458,6.03408231 122.318532,5.98623051 C122.294606,5.93837871 122.286061,5.90419936 122.292897,5.88369145 C122.292897,5.8700195 122.301442,5.84438499 122.318532,5.80678715 C122.335622,5.7691893 122.368092,5.75039066 122.415944,5.75039066 L122.692799,5.79140629 L122.990163,5.85292973 C123.099538,5.88027361 123.202076,5.89052742 123.29778,5.88369145 C123.530203,5.88369145 123.7011,5.83754933 123.810475,5.74526371 C123.919851,5.65297809 123.988209,5.44619305 124.015553,5.12490238 C124.042897,4.80361171 124.068532,4.45498239 124.092457,4.07900395 C124.116383,3.7030255 124.131764,3.38857552 124.1386,3.13564457 L122.528737,3.16640629 C122.515065,3.26210989 122.47405,3.47402184 122.40569,3.80214848 C122.33733,4.13027512 122.236501,4.50282999 122.1032,4.91982426 C121.969898,5.33681853 121.780203,5.76406035 121.534108,6.20156254 C121.288013,6.63906473 120.954764,7.09877693 120.534352,7.58071293 C120.11394,8.06264893 119.787527,8.40956929 119.555104,8.62148441 L119.226979,8.9188477 C119.097096,9.04189519 119.028737,9.05214899 119.021901,8.94960941 C119.015065,8.84706984 119.035572,8.76162147 119.083424,8.69326176 L119.380788,8.33437504 C119.483327,8.21132755 119.638843,7.98745283 119.84734,7.66274418 C120.055837,7.33803553 120.235279,7.01333174 120.38567,6.68862309 C120.536062,6.36391443 120.703541,5.89736636 120.888112,5.28896488 C121.072683,4.6805634 121.216236,3.98330475 121.318776,3.19716801 L119.514088,3.22792973 C119.322681,3.2347657 119.25774,3.16298907 119.319264,3.0125977 L119.380788,2.74599613 Z M129.850026,2.23330082 L130.085866,1.75136723 C130.215749,1.4916003 130.287526,1.36855466 130.301198,1.3822266 L130.321706,1.40273441 L130.46526,1.51552738 L131.40862,2.43837895 C131.435963,2.47939478 131.459889,2.52211896 131.480397,2.56655277 C131.500905,2.61098659 131.50945,2.64516594 131.506032,2.66909184 C131.502614,2.69301774 131.463307,2.74941366 131.388112,2.83828129 L131.111256,3.16640629 L131.111256,5.32998051 L131.152272,6.77578129 C131.10442,6.98769641 131.000173,7.13808553 130.839528,7.22695316 C130.678882,7.3158208 130.482351,7.36196291 130.249928,7.3653809 C130.017505,7.36879888 129.901295,7.20644699 129.901295,6.87832035 L129.901295,6.24257816 L127.440358,6.24257816 L127.440358,6.84755863 C127.440358,6.99111404 127.390798,7.12954039 127.291676,7.26284184 C127.192555,7.39614328 127.026785,7.46791991 126.794362,7.47817387 C126.561939,7.48842783 126.420094,7.45766641 126.368825,7.38588871 C126.317555,7.31411101 126.281667,7.23037161 126.261159,7.13466801 L126.312428,5.79140629 L126.312428,3.00234379 L126.250905,1.47451176 C126.271413,1.43349593 126.286793,1.41127935 126.297047,1.40786137 C126.307301,1.40444338 126.339772,1.42324202 126.394459,1.46425785 L127.47112,2.23330082 L129.850026,2.23330082 Z M129.901295,5.68886723 L129.901295,2.78701176 L127.440358,2.78701176 L127.440358,5.68886723 L129.901295,5.68886723 Z M135.128248,9.39052738 L136.738112,9.39052738 L137.496901,2.33583988 L134.092604,2.33583988 C133.860181,2.33583988 133.798658,2.24697358 133.908034,2.06923832 L134.000319,1.81289066 L134.08235,1.76162113 L137.486647,1.76162113 L137.814772,1.15664066 C137.889968,1.01308526 137.934401,0.936181731 137.948073,0.925927774 C137.961745,0.915673816 137.999342,0.941308326 138.060866,1.00283207 L138.963209,1.95644535 C139.031569,2.03847701 139.076002,2.1017088 139.09651,2.14614262 C139.117018,2.19057643 139.127272,2.23159165 139.127272,2.26918949 C139.127272,2.30678734 139.099928,2.35292945 139.045241,2.40761723 L138.583815,2.8587891 L137.855788,9.39052738 L138.060866,9.39052738 L138.265944,8.97011723 C138.361647,8.77871002 138.426588,8.68471682 138.460768,8.68813481 C138.494948,8.69155279 138.556471,8.73769491 138.645338,8.82656254 L139.598952,9.83144535 L139.609206,5.41201176 L139.537428,3.88417973 C139.564772,3.82949195 139.588698,3.79873054 139.609206,3.79189457 L139.691237,3.8431641 L140.69612,4.46865238 L142.14192,4.46865238 L142.090651,1.45400395 L142.029127,0.264550821 C142.042799,0.237206934 142.056471,0.216699326 142.070143,0.203027383 L142.305983,0.295312539 L143.567213,0.736230508 C143.642409,0.770410367 143.693678,0.804589712 143.721022,0.838769571 C143.748366,0.872949429 143.767164,0.908837742 143.777418,0.946435586 C143.787672,0.98403343 143.731276,1.06093696 143.608229,1.17714848 L143.26985,1.50527348 L143.26985,4.46865238 L144.705397,4.46865238 L144.951491,3.98671879 L145.105299,3.6688477 C145.159987,3.64833978 145.218092,3.66884739 145.279616,3.73037113 L146.233229,4.76601566 C146.294753,4.84121135 146.33235,4.89589831 146.346022,4.93007816 C146.359694,4.96425802 146.368239,5.00527324 146.371657,5.05312504 C146.375075,5.10097684 146.34944,5.14882793 146.294752,5.19667973 L145.94612,5.51455082 L145.94612,8.98037113 L145.997389,10.4056641 C145.970045,10.5560555 145.910231,10.6944818 145.817946,10.8209473 C145.72566,10.9474128 145.547928,11.0123535 145.284743,11.0157715 C145.021558,11.0191895 144.859206,10.9781743 144.797682,10.8927246 C144.736158,10.807275 144.705397,10.6791025 144.705397,10.5082032 L144.705397,9.86220707 L143.26985,9.86220707 C143.249342,10.2860373 143.230544,10.6585922 143.213454,10.9798829 C143.196364,11.3011735 143.157057,11.7318333 143.095534,12.271875 C143.03401,12.8119168 142.948562,13.2938456 142.839186,13.7176758 L142.685377,14.3431641 C143.396318,15.0267613 144.13801,15.5172349 144.910475,15.8145996 C145.68294,16.1119644 146.274243,16.2640625 146.684401,16.2708985 L147.115065,16.2811524 C147.190261,16.2879884 147.229567,16.3358394 147.232985,16.4247071 C147.236403,16.5135747 147.20735,16.5785155 147.145827,16.6195313 L146.899733,16.7835938 C146.571606,16.9955089 146.359694,17.2894513 146.263991,17.6654297 L146.151198,18.1371094 C146.09651,18.2669929 146.038405,18.3353516 145.976881,18.3421875 C145.949537,18.3490235 145.905104,18.3336428 145.843581,18.296045 C145.782057,18.2584471 145.647048,18.1935064 145.438551,18.1012207 C145.230054,18.0089351 144.785723,17.75259 144.105543,17.3321778 C143.425364,16.9117655 142.763994,16.3153359 142.121413,15.5428711 C141.704418,16.1239287 141.275467,16.6212382 140.834547,17.0348145 C140.393627,17.4483908 140.051834,17.7337883 139.809157,17.8910157 C139.56648,18.048243 139.260575,18.2396473 138.891432,18.4652344 L138.368483,18.7831055 C138.327467,18.8104494 138.28987,18.8138673 138.25569,18.7933594 C138.22151,18.7728515 138.202711,18.7301273 138.199293,18.6651856 C138.195875,18.6002439 138.228346,18.54043 138.296706,18.4857422 L138.758131,18.1166016 C139.393877,17.6039037 139.898022,17.0997584 140.270582,16.6041504 C140.643143,16.1085425 141.034496,15.4574259 141.444655,14.6507813 C141.376295,14.5072259 141.325026,14.397852 141.290846,14.3226563 L140.942213,13.6151368 C140.74397,13.2186504 140.591872,12.873439 140.485915,12.5794922 C140.379957,12.2855454 140.303053,12.0582528 140.255202,11.8976075 C140.20735,11.7369621 140.174879,11.6241703 140.15779,11.5592286 C140.1407,11.4942868 140.135573,11.4413088 140.142409,11.400293 C140.149245,11.3592772 140.17317,11.3302247 140.214186,11.3131348 C140.255202,11.2960449 140.383374,11.4703595 140.598707,11.836084 C140.814041,12.2018085 140.998609,12.5025868 141.152418,12.7384278 C141.306228,12.9742688 141.516431,13.2391587 141.783034,13.5331055 C141.844557,13.1502911 141.902662,12.7674824 141.95735,12.384668 C142.012038,12.0018536 142.049635,11.5780297 142.070143,11.1131836 L142.121413,9.86220707 L140.685866,9.86220707 L140.685866,10.5082032 C140.685866,10.6517586 140.622634,10.7748042 140.496168,10.8773438 C140.369703,10.9798834 140.185134,11.0345703 139.942457,11.0414063 C139.69978,11.0482423 139.576735,10.9833015 139.573317,10.8465821 C139.569899,10.7098626 139.571608,10.638086 139.578444,10.63125 L139.598952,10.0160157 L139.219557,10.4466797 C139.205885,11.0277373 139.192213,11.5011213 139.178541,11.8668457 C139.16487,12.2325702 139.146071,12.6410134 139.122145,13.0921875 C139.098219,13.5433617 139.060622,14.0748505 139.009352,14.68667 C138.958082,15.2984894 138.853835,15.894919 138.696608,16.4759766 C138.539381,17.0570342 138.252274,17.5167464 137.83528,17.855127 C137.418285,18.1935076 137.07991,18.3558595 136.820143,18.3421875 C136.779127,18.3421875 136.746657,18.3336427 136.722731,18.3165528 C136.698805,18.2994628 136.674879,18.18838 136.650954,17.9833008 C136.627028,17.7782217 136.541579,17.5440932 136.394606,17.2809082 C136.247633,17.0177233 136.057937,16.8177742 135.825514,16.6810547 L135.507643,16.4964844 C135.466627,16.4828125 135.444411,16.4657228 135.440993,16.4452149 C135.437575,16.424707 135.434157,16.3802738 135.430739,16.3119141 C135.427321,16.2435544 135.466627,16.2162109 135.548659,16.2298829 L135.979323,16.3119141 C136.293777,16.3734378 136.580884,16.4041993 136.840651,16.4041993 C137.189285,16.4110352 137.437086,16.2298847 137.584059,15.8607422 C137.731032,15.4915998 137.831862,14.9977082 137.886549,14.3790528 C137.941237,13.7603973 137.98567,13.1109898 138.01985,12.4308106 C138.05403,11.7506314 138.074538,11.2875013 138.081373,11.0414063 C138.088209,10.7953113 138.095045,10.603907 138.101881,10.4671875 L138.101881,10.2621094 L138.091627,9.94423832 L135.076979,9.94423832 L134.841139,10.3646485 L134.697584,10.63125 C134.677077,10.6585939 134.659987,10.6739746 134.646315,10.6773926 C134.632643,10.6808106 134.605299,10.658594 134.564284,10.6107422 L133.908034,10.0057618 C133.798658,9.91689413 133.743971,9.86049821 133.743971,9.83657231 L133.743971,9.79042973 C133.743971,9.78359376 133.767897,9.74941441 133.815748,9.68789066 L134.061842,9.38027348 C134.137038,8.83339574 134.219068,8.23013029 134.307936,7.57045902 C134.396804,6.91078776 134.458326,6.42715001 134.492506,6.11953129 L134.707838,4.13027348 L134.78987,3.40224613 L134.800123,2.94082035 C134.813795,2.91347647 134.824049,2.89467783 134.830885,2.88442387 C134.837721,2.87416991 134.926587,2.91005822 135.097487,2.99208988 L136.163893,3.54580082 C136.211745,3.57314471 136.23567,3.61074199 136.23567,3.65859379 C136.23567,3.70644559 136.201491,3.75771461 136.133131,3.81240238 L135.825514,4.06875004 L135.128248,9.39052738 Z M142.131666,9.27773441 C142.12483,9.18203081 142.12483,9.10683625 142.131666,9.05214848 L142.14192,7.21669926 L142.14192,5.03261723 L140.685866,5.03261723 L140.685866,9.27773441 L142.131666,9.27773441 Z M143.26985,5.03261723 L143.290358,9.27773441 L144.705397,9.27773441 L144.705397,5.03261723 L143.26985,5.03261723 Z M134.225905,14.3739258 L133.867018,13.2767579 L133.805495,13.1126954 C133.798659,13.0853515 133.798659,13.0648439 133.805495,13.0511719 C133.812331,13.0375 133.904615,13.0135744 134.08235,12.9793946 L134.728346,12.8563477 C135.377763,12.7333002 136.204904,12.4872089 137.209791,12.1180664 L137.650709,11.9540039 C137.725905,11.9266601 137.768629,11.9591304 137.778883,12.0514161 C137.789137,12.1437017 137.760085,12.2171873 137.691725,12.271875 L137.312331,12.5897461 C137.161939,12.7196296 136.878251,12.9366684 136.461256,13.2408692 C136.044262,13.5450699 135.699051,13.8099598 135.425612,14.0355469 L134.830885,14.5379883 C134.598462,14.7293955 134.465163,14.8336425 134.430983,14.8507325 C134.396803,14.8678224 134.328444,14.7088884 134.225905,14.3739258 Z M156.874245,8.39589848 L151.398659,8.39589848 C151.282447,8.39589848 151.212379,8.30190528 151.188454,8.11391606 C151.164528,7.92592683 151.234595,7.83193363 151.398659,7.83193363 L156.997291,7.83193363 L157.304909,7.39101566 C157.400612,7.25429623 157.463844,7.18764651 157.494606,7.19106449 C157.525368,7.19448248 157.622779,7.28847568 157.786842,7.47304691 L158.668678,8.55996098 C158.825906,8.76504013 158.904518,8.90859338 158.904518,8.99062504 C158.904518,9.10000059 158.849831,9.15810547 158.740456,9.16494145 L158.299538,9.21621098 C157.622776,9.48964984 157.20237,9.67763625 157.038307,9.78017582 L156.289772,10.2210938 C156.405983,10.2826175 156.453835,10.3338866 156.433327,10.3749024 C156.412819,10.4159182 156.375221,10.4603514 156.320534,10.5082032 L156.002663,10.7850586 L156.002663,11.9027344 L159.273659,11.9027344 L159.868385,10.9491211 C159.998269,10.73037 160.085426,10.6192872 160.12986,10.6158692 C160.174294,10.6124512 160.292212,10.7235341 160.48362,10.9491211 L161.396217,12.0257813 C161.457741,12.1078129 161.515846,12.2052241 161.570534,12.3180176 C161.625221,12.4308112 161.57737,12.4872071 161.426979,12.4872071 L156.002663,12.4872071 L156.002663,17.1681153 C156.002663,17.2740728 155.995827,17.3749019 155.982155,17.4706055 C155.947975,17.6688487 155.88987,17.8329095 155.807838,17.962793 C155.725807,18.0926765 155.602761,18.2105952 155.438698,18.3165528 C155.274634,18.4225103 155.049051,18.5233394 154.76194,18.619043 C154.474829,18.7147466 154.32444,18.7591798 154.310768,18.7523438 C154.269752,18.7455078 154.2407,18.7284181 154.22361,18.7010743 C154.20652,18.6737304 154.197975,18.5763192 154.197975,18.4088379 C154.197975,18.2413566 154.160378,18.0619151 154.085182,17.8705079 C153.914283,17.4740215 153.62034,17.1732433 153.203346,16.9681641 L152.875221,16.8143555 C152.827369,16.7938476 152.803444,16.7562503 152.803444,16.7015625 C152.803444,16.6468748 152.81028,16.6058596 152.823952,16.5785157 C152.84446,16.5101559 152.878639,16.4793945 152.926491,16.4862305 L153.244362,16.5580079 C153.770732,16.6810553 154.133033,16.7323244 154.331276,16.7118164 C154.481667,16.7049805 154.577369,16.6622563 154.618385,16.5836426 C154.659401,16.5050289 154.679909,16.4041999 154.679909,16.2811524 L154.679909,12.4872071 L149.142799,12.4872071 L149.030006,12.4461914 C148.961647,12.3504878 148.925758,12.235987 148.92234,12.1026856 C148.918922,11.9693841 148.975318,11.9027344 149.09153,11.9027344 L154.679909,11.9027344 L154.679909,10.9491211 L154.628639,9.53408207 C154.655983,9.48623027 154.679909,9.45888679 154.700416,9.45205082 C154.720924,9.44521485 154.806373,9.47597626 154.956764,9.54433598 L156.002663,10.0365235 C156.180398,9.71523281 156.313697,9.46914152 156.402565,9.29824223 L156.781959,8.57021488 L156.874245,8.39589848 Z M157.069069,5.18642582 C157.28782,4.47548477 157.46897,3.75600954 157.612526,3.02797856 C157.756081,2.29994757 157.862037,1.73086147 157.930397,1.32070316 L158.04319,0.592675821 L158.094459,0.172265664 C158.114967,0.158593721 158.207252,0.199608936 158.371315,0.295312539 L159.560768,1.03359379 C159.793191,1.18398517 159.905983,1.30703081 159.899147,1.40273441 C159.892311,1.46425816 159.851296,1.51552718 159.7761,1.55654301 L159.314674,1.84365238 C158.631077,3.21768269 158.060282,4.33192936 157.602272,5.18642582 L159.59153,5.18642582 L159.837623,4.80703129 C159.926491,4.67714783 159.988014,4.6104981 160.022194,4.60708012 C160.056374,4.60366213 160.16233,4.70790914 160.340065,4.91982426 L161.396217,6.21181645 C161.573953,6.43740351 161.662819,6.60488231 161.662819,6.71425785 C161.662819,6.85097729 161.599587,6.93642565 161.473122,6.97060551 C161.346656,7.00478537 161.15867,7.03383781 160.909157,7.05776371 C160.659644,7.08168961 160.406717,7.15859314 160.150368,7.2884766 C159.894019,7.41836006 159.615457,7.68837689 159.314674,8.0985352 L159.099342,8.39589848 C159.017311,8.51211 158.959206,8.54628934 158.925026,8.49843754 C158.890846,8.45058574 158.872047,8.40786156 158.868629,8.37026371 C158.865211,8.33266587 158.877174,8.26943408 158.904518,8.18056645 L159.017311,7.72939457 C159.181374,7.06630532 159.295875,6.60146622 159.360817,6.33486332 C159.425759,6.06826043 159.475319,5.87002022 159.509498,5.74013676 L150.660377,5.74013676 C150.749245,6.32119435 150.793678,6.76552585 150.793678,7.07314457 C150.780006,7.66787411 150.656961,8.12758631 150.424538,8.45229496 C150.192115,8.77700362 149.949441,8.93422861 149.69651,8.92397465 C149.443579,8.91372069 149.257302,8.80776472 149.137672,8.60610356 C149.018043,8.40444239 148.961647,8.16006007 148.968483,7.87294926 C148.968483,7.68837802 148.994117,7.52431716 149.045387,7.38076176 C149.096657,7.23720635 149.170143,7.09023517 149.265846,6.93984379 L149.532448,6.56044926 C149.826395,6.08193124 149.973366,5.53506171 149.973366,4.91982426 L149.973366,4.70449223 L149.942604,4.3250977 C149.956276,4.24306604 149.983619,4.19863289 150.024635,4.19179691 C150.079323,4.18496094 150.156227,4.30117072 150.255348,4.54042973 C150.35447,4.77968874 150.431373,4.99501861 150.486061,5.18642582 L157.069069,5.18642582 Z M150.844948,0.838769571 C150.831276,0.825097627 150.821022,0.797754151 150.814186,0.756738321 C150.80735,0.715722491 150.851783,0.688379014 150.947487,0.674707071 C151.036354,0.667871099 151.256811,0.808006416 151.608864,1.09511723 C151.960916,1.38222804 152.331762,1.70522285 152.721413,2.06411137 C153.111063,2.42299988 153.292213,2.96474251 153.26487,3.68935551 C153.244362,4.03115409 153.157204,4.30458886 153.003395,4.50966801 C152.849586,4.71474716 152.670144,4.8172852 152.465065,4.8172852 C152.294166,4.82412117 152.143776,4.75747144 152.013893,4.61733402 C151.88401,4.4771966 151.793434,4.2892102 151.742165,4.05336918 C151.690895,3.81752816 151.648171,3.51333198 151.613991,3.14077152 C151.579811,2.76821107 151.526833,2.43838038 151.455055,2.15126957 C151.383277,1.86415876 151.241433,1.53261911 151.029518,1.15664066 L150.844948,0.838769571 Z M153.931373,0.469628946 C153.931373,0.373925342 153.955299,0.326074258 154.003151,0.326074258 C154.064675,0.33291023 154.372289,0.580710486 154.926002,1.06948246 C155.479716,1.55825444 155.818092,2.01113077 155.941139,2.42812504 C156.064187,2.84511931 156.127418,3.15956929 156.130836,3.37148441 C156.134254,3.58339954 156.101784,3.78847561 156.033424,3.98671879 C155.876197,4.49258069 155.630106,4.74550785 155.295143,4.74550785 C155.137916,4.75234382 154.994362,4.68398513 154.864479,4.54042973 C154.734596,4.39687432 154.657692,4.21743276 154.633766,4.00209965 C154.60984,3.78676654 154.596168,3.46889863 154.59275,3.04848637 C154.589332,2.62807411 154.546608,2.22475783 154.464577,1.83852543 C154.382545,1.45229303 154.269753,1.11904441 154.126198,0.838769571 L153.931373,0.469628946 Z M172.662721,10.5697266 L173.575319,11.0516602 C173.664186,11.106348 173.70862,11.1678708 173.70862,11.2362305 C173.70862,11.3045902 173.671022,11.3763669 173.595827,11.4515625 L173.206178,11.8104493 L173.206178,16.3324219 C173.199342,16.3939457 173.218141,16.4776851 173.262575,16.5836426 C173.307008,16.6896002 173.402711,16.7630858 173.549684,16.8041016 C173.696657,16.8451174 173.886353,16.8622071 174.118776,16.8553711 C174.590458,16.8553711 174.913453,16.7955573 175.08777,16.6759278 C175.262087,16.5562983 175.395387,16.416163 175.487672,16.2555176 C175.579958,16.0948723 175.687623,15.795803 175.81067,15.3583008 L176.220827,13.8817383 C176.248171,13.7723628 176.289186,13.7176758 176.343874,13.7176758 C176.398561,13.7245118 176.429323,13.7997064 176.436159,13.9432618 L176.343874,15.5428711 C176.337038,15.6180668 176.331911,15.7411125 176.328493,15.9120118 C176.325075,16.0829111 176.340455,16.2093746 176.374635,16.2914063 L176.559206,16.6400391 C176.620729,16.7630866 176.656618,16.8639157 176.666872,16.9425293 C176.677126,17.021143 176.682252,17.0843748 176.682252,17.1322266 C176.682252,17.1800784 176.678834,17.2313474 176.671999,17.2860352 C176.617311,17.6141618 176.408817,17.9081042 176.04651,18.1678711 C175.684204,18.4276381 175.079229,18.5506837 174.231569,18.5370118 C172.994258,18.5301758 172.307253,18.364406 172.170534,18.0396973 C172.033814,17.7149887 171.965456,17.4706063 171.965456,17.306543 L171.965456,10.5697266 L170.068483,10.5697266 L171.124635,11.072168 C171.234011,11.1268558 171.286989,11.1900876 171.283571,11.2618653 C171.280153,11.333643 171.244264,11.4105465 171.175905,11.4925782 L170.806764,11.8924805 C170.74524,12.5418978 170.6803,13.1280736 170.61194,13.6510254 C170.54358,14.1739773 170.372683,14.816549 170.099245,15.5787598 C169.825806,16.3409706 169.333623,16.9561989 168.622682,17.4244629 C167.911741,17.892727 167.255498,18.2464832 166.653932,18.4857422 L166.274538,18.6395508 C166.25403,18.6463868 166.224977,18.6515137 166.187379,18.6549317 C166.149782,18.6583497 166.115602,18.6515138 166.08484,18.6344239 C166.054078,18.6173339 166.036989,18.5694829 166.033571,18.4908692 C166.030153,18.4122555 166.079713,18.3421878 166.182252,18.2806641 L166.653932,18.0038086 C166.790652,17.921777 167.000855,17.766261 167.284547,17.5372559 C167.56824,17.3082508 167.828003,17.0638685 168.063844,16.8041016 C168.299685,16.5443347 168.547485,16.1461453 168.807252,15.6095215 C169.067019,15.0728977 169.244752,14.3841839 169.340456,13.5433594 C169.436159,12.7025349 169.490846,12.0736349 169.504518,11.6566407 L169.525026,10.5697266 L168.017702,10.5697266 C167.963014,10.5492187 167.921999,10.5218752 167.894655,10.4876954 C167.867311,10.4535155 167.845094,10.3646492 167.828004,10.2210938 C167.810914,10.0775384 167.880982,10.0057618 168.038209,10.0057618 L174.405885,10.0057618 L174.887819,9.16494145 C174.96985,9.01455007 175.033082,8.94106448 175.077516,8.94448246 C175.12195,8.94790045 175.205689,9.02138604 175.328737,9.16494145 L176.036256,10.0570313 C176.145632,10.2074227 176.200319,10.3202145 176.200319,10.3954102 C176.193483,10.5116217 176.125124,10.5697266 175.995241,10.5697266 L172.662721,10.5697266 Z M174.457155,3.89443363 L174.836549,3.22792973 C174.904909,3.11171821 174.956178,3.05190435 174.990358,3.04848637 C175.024538,3.04506838 175.099732,3.11171811 175.215944,3.24843754 L176.272096,4.53017582 C176.40198,4.68740317 176.46692,4.82412055 176.46692,4.94033207 C176.460084,5.0770515 176.408815,5.16249987 176.313112,5.19667973 C176.217408,5.23085959 175.996951,5.261621 175.651735,5.28896488 C175.306518,5.31630877 175.017703,5.4974593 174.78528,5.83242191 L174.477663,6.27333988 C174.395631,6.38271543 174.33069,6.43398445 174.282838,6.42714848 C174.248658,6.42714848 174.228151,6.40834984 174.221315,6.37075199 C174.214479,6.33315415 174.209352,6.2938479 174.205934,6.25283207 C174.202516,6.21181624 174.207643,6.16054722 174.221315,6.09902348 L174.518678,4.44814457 L169.0636,4.44814457 C169.077272,4.59169998 169.089235,4.71645459 169.099489,4.82241215 C169.109743,4.92836971 169.11487,5.10781127 169.11487,5.36074223 C169.11487,5.61367318 169.056765,5.88710794 168.940553,6.18105473 C168.838014,6.42714971 168.709841,6.61684508 168.556032,6.75014652 C168.402222,6.88344797 168.250124,6.94667976 168.099733,6.93984379 C167.880982,6.93984379 167.716921,6.83559678 167.607545,6.62709965 C167.49817,6.41860251 167.443483,6.2049816 167.443483,5.98623051 C167.443483,5.89736288 167.46399,5.76919033 167.505006,5.60170902 C167.546022,5.43422772 167.660523,5.21889784 167.848512,4.95571293 C168.036501,4.69252802 168.17151,4.48745195 168.253541,4.34047856 C168.335573,4.19350516 168.39026,3.95595871 168.417604,3.62783207 L168.448366,3.10488285 C168.455202,2.98183536 168.489381,2.9168946 168.550905,2.91005863 C168.639772,2.91005863 168.718385,3.01430564 168.786745,3.22280277 C168.855104,3.43129991 168.926881,3.65517462 169.002077,3.89443363 L174.457155,3.89443363 Z M166.25403,2.34609379 L164.869752,2.34609379 L164.869752,15.8915039 L164.910768,18.0858399 C164.835572,18.3387708 164.714236,18.5011227 164.546754,18.5729004 C164.379273,18.6446781 164.222048,18.6822754 164.075075,18.6856934 C163.928101,18.6891114 163.832399,18.6600589 163.787965,18.5985352 C163.743531,18.5370115 163.711061,18.4481452 163.690553,18.3319336 L163.741823,15.1942383 L163.741823,3.89443363 L163.680299,0.787500039 C163.714479,0.732812266 163.743532,0.703759822 163.767457,0.700341836 C163.791383,0.69692385 163.837526,0.725976294 163.905885,0.787500039 L165.003053,1.78212895 L166.151491,1.78212895 L166.530885,1.0438477 C166.626589,0.852440489 166.69153,0.758447288 166.725709,0.761865274 C166.759889,0.76528326 166.821412,0.811425376 166.91028,0.900293008 L167.761354,1.80263676 C167.850222,1.89834036 167.904909,1.97182595 167.925416,2.02309574 C167.945924,2.07436553 167.957887,2.12221661 167.961305,2.16665043 C167.964723,2.21108425 167.908327,2.27773397 167.792116,2.3666016 L167.453737,2.64345707 C167.105102,3.68252477 166.89319,4.29091712 166.817995,4.46865238 L166.028444,6.53994145 C166.247195,6.89541197 166.438599,7.21840679 166.602663,7.50893559 C166.766726,7.79946438 166.971802,8.20961653 167.217897,8.73940434 C167.463992,9.26919214 167.631471,9.7101057 167.720338,10.0621582 C167.809206,10.4142108 167.853639,10.7816388 167.853639,11.1644532 C167.846803,11.8343784 167.730593,12.3624493 167.505006,12.7486817 C167.279419,13.1349141 167.035037,13.4186026 166.771852,13.5997559 C166.508667,13.7809091 166.301882,13.8680665 166.151491,13.8612305 C166.110475,13.8612305 166.078004,13.8526857 166.054079,13.8355957 C166.030153,13.8185058 166.013063,13.7108409 166.002809,13.5125977 C165.992555,13.3143545 165.944704,13.1229502 165.859254,12.9383789 C165.773805,12.7538077 165.679812,12.6205083 165.577272,12.5384766 L165.17737,12.2513672 C165.10901,12.2035154 165.078248,12.1419926 165.085084,12.0667969 C165.09192,11.9916012 165.146607,11.9471681 165.249147,11.9334961 L165.700319,11.8924805 C165.98743,11.8719726 166.187379,11.7899422 166.300172,11.6463868 C166.412966,11.5028314 166.48816,11.2960463 166.525758,11.0260254 C166.563356,10.7560045 166.582155,10.4876967 166.582155,10.2210938 C166.582155,9.85878729 166.54114,9.4247096 166.459108,8.9188477 C166.377076,8.41298579 166.236941,7.95498256 166.038698,7.54482426 L165.649049,6.69375004 C165.833621,5.46327514 165.951539,4.66518741 166.002809,4.29946293 C166.054079,3.93373845 166.137818,3.28262191 166.25403,2.34609379 Z M168.981569,7.62685551 C168.920045,7.61318356 168.872194,7.59096699 168.838014,7.56020512 C168.803834,7.52944324 168.783327,7.44057695 168.776491,7.29360356 C168.769655,7.14663016 168.838013,7.07314457 168.981569,7.07314457 L173.042116,7.07314457 L173.401002,6.37587895 C173.48987,6.20497965 173.558229,6.11782232 173.606081,6.11440434 C173.653932,6.11098635 173.722291,6.16396434 173.811159,6.27333988 L174.559694,7.19619145 C174.587038,7.2303713 174.610963,7.27480445 174.631471,7.32949223 C174.651979,7.38418 174.663942,7.43203108 174.66736,7.47304691 C174.670778,7.51406274 174.655397,7.55166002 174.621217,7.58583988 C174.587037,7.62001974 174.552858,7.63710941 174.518678,7.63710941 L169.043092,7.63710941 L168.981569,7.62685551 Z M170.929811,1.15664066 L170.663209,0.695214883 C170.635866,0.661035025 170.618776,0.623437744 170.61194,0.582421914 C170.605104,0.541406084 170.599977,0.514062608 170.596559,0.500390664 C170.593141,0.486718721 170.59485,0.473046983 170.601686,0.459375039 C170.615358,0.418359209 170.656373,0.391015733 170.724733,0.377343789 C170.840944,0.356835874 171.087036,0.450829075 171.463014,0.659326211 C171.838993,0.867823347 172.126099,1.13442224 172.324342,1.4591309 C172.522585,1.78383955 172.623414,2.10170747 172.626832,2.41274418 C172.63025,2.72378089 172.560183,3.00234256 172.416627,3.24843754 C172.232056,3.55605626 172.00989,3.70986332 171.750124,3.70986332 C171.62024,3.71669929 171.492067,3.66884821 171.365602,3.56630863 C171.239137,3.46376906 171.148561,3.28261853 171.093874,3.0228516 C171.06653,2.90664008 171.052858,2.75625096 171.052858,2.57167973 L171.08362,1.85390629 C171.069948,1.55312354 171.018679,1.32070398 170.929811,1.15664066 Z" id="AMG驾驶学院"></path>
                <rect id="Rectangle-Copy-3" x="115" y="79" width="30" height="1"></rect>
                <path d="M18.0708008,40.1760526 L18.0708008,30.7068143 L17.9707031,26.3825955 C17.997396,26.3292098 18.0307615,26.2824981 18.0708008,26.2424588 L18.8515625,26.5027127 L21.734375,27.3835721 C21.9612642,27.4636506 22.074707,27.5837666 22.074707,27.7439236 C22.074707,27.9040807 22.0079759,28.0575622 21.8745117,28.2043729 L20.9335938,29.225369 L20.9335938,40.1760526 L27.8803711,40.1760526 L29.3818359,37.7136502 C29.541993,37.4600682 29.6487628,37.3299426 29.7021484,37.3232693 C29.7555341,37.3165961 29.8489577,37.3933369 29.9824219,37.553494 L32.5449219,40.7766385 C32.6383468,40.8967563 32.6850586,41.003526 32.6850586,41.096951 C32.6717122,41.2170688 32.5916348,41.2771268 32.4448242,41.2771268 L20.9335938,41.2771268 L20.9335938,57.2727322 L21.0537109,60.956326 C20.9869788,61.1965616 20.8968918,61.4134377 20.7834473,61.6069608 C20.6700027,61.8004839 20.3563665,61.9873309 19.8425293,62.1675076 C19.3286921,62.3476843 18.9116227,62.4244251 18.5913086,62.3977322 C18.2976873,62.3843858 18.1141768,62.3143182 18.0407715,62.1875272 C17.9673662,62.0607362 17.9306641,61.8505332 17.9306641,61.5569119 L18.0708008,57.0725369 L18.0708008,41.2771268 L7.48046875,41.2771268 L7.40039062,41.2571072 C7.25358,41.2304144 7.15014678,41.1770295 7.09008789,41.096951 C7.030029,41.0168725 7,40.8433716 7,40.5764432 C7,40.3095148 7.11344288,40.1760526 7.34033203,40.1760526 L18.0708008,40.1760526 Z M44.0356445,43.359158 L41.0327148,43.359158 C40.7791328,43.359158 40.6189782,43.1823206 40.5522461,42.8286404 C40.485514,42.4749603 40.6456686,42.2981229 41.0327148,42.2981229 L52.5839844,42.2981229 L53.1645508,41.1770291 C53.2846686,40.9367935 53.3847652,40.8200141 53.4648438,40.8266873 C53.5449223,40.8333605 53.6650383,40.9101013 53.8251953,41.0569119 L55.9472656,43.1189236 C56.0940763,43.2790807 56.1674805,43.4258891 56.1674805,43.5593533 C56.154134,43.6928175 56.1007492,43.8062604 56.0073242,43.8996854 L55.3466797,44.5803494 C55.3199868,45.9283379 55.3033041,47.1261612 55.2966309,48.1738553 C55.2899576,49.2215493 55.2599287,50.4760941 55.206543,51.9375272 C55.1531573,53.3989603 55.0397144,54.8503618 54.8662109,56.2917752 C54.6927075,57.7331887 54.4124368,58.8275788 54.0253906,59.5749783 C53.6383444,60.3223779 53.1812364,60.9229578 52.6540527,61.3767361 C52.1268691,61.8305145 51.6831073,62.1374775 51.3227539,62.2976346 C50.9624005,62.4577916 50.7221686,62.5311958 50.6020508,62.5178494 C50.5086258,62.5178494 50.4452313,62.5011667 50.4118652,62.4678006 C50.3784992,62.4344345 50.3451336,62.3843862 50.3117676,62.3176541 C50.2784015,62.250922 50.2483725,62.1441522 50.2216797,61.9973416 L49.9814453,60.956326 C49.8880204,60.6627047 49.7078464,60.3290492 49.440918,59.9553494 C49.1739896,59.5816496 48.8670265,59.2947059 48.5200195,59.0945096 L47.4589844,58.5139432 C47.3388666,58.4605575 47.2554527,58.3871533 47.2087402,58.2937283 C47.1620278,58.2003034 47.1386719,58.1235626 47.1386719,58.0635037 C47.1386719,58.0034448 47.175374,57.9333772 47.2487793,57.8532986 C47.3221846,57.7732201 47.4322909,57.7398546 47.5791016,57.753201 L48.7802734,57.9133572 C49.9547585,58.0735143 50.7188296,57.9967735 51.0725098,57.6831326 C51.4261899,57.3694917 51.6997874,56.992461 51.8933105,56.5520291 C52.0868336,56.1115972 52.2369786,55.3909013 52.34375,54.3899197 C52.4505214,53.3889382 52.5339352,52.2044611 52.5939941,50.8364529 C52.654053,49.4684448 52.6907551,47.6433491 52.7041016,45.3611111 L52.7041016,43.359158 L47.0786133,43.359158 L46.7182617,43.9797635 C46.6248368,45.3144056 46.5314132,46.6123255 46.4379883,47.8735623 C46.3445633,49.1347991 46.1376969,50.4861039 45.8173828,51.9275174 C45.4970687,53.3689309 44.9432006,54.7669475 44.1557617,56.1216092 C43.3683229,57.4762709 42.4741261,58.5539782 41.4731445,59.3547635 C40.472163,60.1555487 39.5712931,60.8228598 38.7705078,61.3567166 L37.8295898,61.9773221 C37.7628577,62.0307078 37.6694342,62.0540637 37.5493164,62.0473904 C37.4291986,62.0407172 37.3624675,61.9773227 37.3491211,61.8572049 C37.3357747,61.7370871 37.4091789,61.5969518 37.5693359,61.4367947 L38.4902344,60.5359158 C40.7724723,58.2670243 42.1771621,56.1049365 42.7043457,54.0495877 C43.2315293,51.9942389 43.5651848,50.2525571 43.7053223,48.8244901 C43.8454597,47.396423 43.9288736,46.2252921 43.9555664,45.3110623 C43.9822592,44.3968325 43.9956055,43.8930127 43.9956055,43.7995877 L44.0356445,43.359158 Z M46.0576172,31.9680447 C44.9765571,34.0500864 43.8888401,36.0386733 42.7944336,37.9338651 C41.7000271,39.8290568 40.6390025,41.4339399 39.6113281,42.7485623 C38.5836537,44.0631848 37.8496116,44.9473719 37.4091797,45.4011502 L36.5283203,46.3020291 C36.3681633,46.4755326 36.2580569,46.532254 36.197998,46.4721951 C36.1379392,46.4121362 36.1079102,46.3153761 36.1079102,46.1819119 C36.1079102,46.0484477 36.1479488,45.9083124 36.2280273,45.7615018 L36.96875,44.6203885 C37.8229209,43.2990928 38.6503866,41.7209022 39.4511719,39.8857693 C40.2519571,38.0506365 40.9059219,36.4424169 41.4130859,35.0610623 C41.9202499,33.6797078 42.2739248,32.6020004 42.4741211,31.827908 L42.9746094,29.865994 L43.2749023,28.6848416 C43.3549809,28.6448024 43.4884431,28.684841 43.675293,28.8049588 L46.578125,30.8669705 C46.831707,31.0671668 46.9618326,31.2640236 46.9685059,31.4575467 C46.9751791,31.6510698 46.8583996,31.7745223 46.6181641,31.827908 L46.0576172,31.9680447 Z M52.3037109,29.6257596 C52.4371751,30.1863093 52.580647,30.7068119 52.7341309,31.187283 C52.8876147,31.6677542 53.2813282,32.5752972 53.9152832,33.9099393 C54.5492382,35.2445814 55.6035896,36.732685 57.0783691,38.3742947 C58.5531486,40.0159045 59.9311459,41.1169677 61.2124023,41.6775174 L62.0332031,42.037869 C62.1933602,42.1179475 62.2734375,42.2447366 62.2734375,42.4182401 C62.2734375,42.5917435 62.2067064,42.6985133 62.0732422,42.7385526 L61.3725586,42.9787869 C60.7052375,43.2056761 60.1914081,43.4992929 59.8310547,43.8596463 C59.4707013,44.2199997 59.2071135,44.570338 59.0402832,44.9106717 C58.8734529,45.2510054 58.7633466,45.4211697 58.7099609,45.4211697 C58.5364575,45.4345162 57.9992721,44.9440426 57.0983887,43.9497342 C56.1975053,42.9554258 55.3533568,41.7108908 54.565918,40.2160916 C53.7784791,38.7212925 53.1845723,37.4333822 52.7841797,36.3523221 C52.3837871,35.271262 51.8732941,33.5863016 51.2526855,31.2973904 C50.632077,29.0084793 50.2750656,27.7305786 50.1816406,27.4636502 L49.9414063,26.7829861 C49.8746741,26.6495219 49.8479817,26.5527618 49.8613281,26.4927029 C49.8746745,26.432644 49.9080401,26.3892688 49.9614258,26.362576 C50.0148115,26.3358831 50.1549468,26.3492294 50.3818359,26.4026151 L53.2246094,27.2634549 C53.4114593,27.330187 53.5215656,27.4102643 53.5549316,27.5036893 C53.5882977,27.5971142 53.6016439,27.6538357 53.5949707,27.6738553 C53.5882975,27.6938749 53.5649416,27.7572695 53.5249023,27.8640408 C53.4848631,27.9708122 53.4514975,28.0442164 53.4248047,28.0842557 L52.3037109,29.6257596 Z M68.559082,59.4148221 L68.559082,39.3952908 L68.4389648,34.1301541 C68.4790041,34.0901149 68.5056965,34.066759 68.519043,34.0600858 C68.5323894,34.0534125 68.6525054,34.1301533 68.8793945,34.2903104 L70.8212891,35.7517361 L73.6240234,35.7517361 C73.864259,34.8441795 74.0878082,33.9566558 74.2946777,33.0891385 C74.5015473,32.2216211 74.698404,31.2073084 74.8852539,30.0461697 L75.1855469,28.0842557 L75.265625,27.343533 C75.2789714,27.3301866 75.2989908,27.3168404 75.3256836,27.303494 L75.6459961,27.4836697 L78.7290039,29.1052518 C78.889161,29.1986767 78.9692383,29.3187927 78.9692383,29.4656033 C78.9558919,29.6257604 78.8758145,29.7525495 78.7290039,29.8459744 L77.9282227,30.3064236 C76.8738554,32.2416547 75.8595426,34.0567407 74.8852539,35.7517361 L84.3745117,35.7517361 L85.0952148,34.2903104 C85.2153326,34.0367284 85.3354486,33.9499779 85.4555664,34.0300565 L87.9179688,36.2322049 C87.9446616,36.2722442 87.9813637,36.325629 88.0280762,36.3923611 C88.0747886,36.4590933 88.094808,36.5191512 88.0881348,36.5725369 C88.0814616,36.6259226 88.0447594,36.6926537 87.9780273,36.7727322 L86.9970703,37.8337674 L86.9970703,59.4148221 L87.3574219,59.4148221 L88.5786133,57.4729276 C88.6987311,57.2593848 88.7788084,57.1492785 88.8188477,57.1426053 C88.8588869,57.1359321 88.9389642,57.2059997 89.059082,57.3528104 L91.0610352,59.9353299 C91.1411137,60.0421013 91.2011717,60.1622172 91.2412109,60.2956815 C91.2812502,60.4291457 91.1411149,60.4958768 90.8208008,60.4958768 L65.6762695,60.4958768 C65.436034,60.4958768 65.315918,60.3157028 65.315918,59.9553494 C65.315918,59.5949961 65.436034,59.4148221 65.6762695,59.4148221 L68.559082,59.4148221 Z M73.9643555,59.4148221 L73.9643555,36.8728299 L71.0214844,36.8728299 L71.0214844,59.4148221 L73.9643555,59.4148221 Z M79.1494141,59.4148221 L79.1494141,36.8728299 L76.5268555,36.8728299 C76.4601234,37.0196405 76.319988,37.166449 76.1064453,37.3132596 L76.1064453,59.4148221 L79.1494141,59.4148221 Z M84.4545898,59.4148221 L84.4545898,36.8728299 L81.7319336,36.8728299 C81.6652015,37.0329869 81.5183931,37.1797954 81.2915039,37.3132596 L81.2915039,59.4148221 L84.4545898,59.4148221 Z M106.835937,37.6135526 L109.999023,37.6135526 L109.999023,31.3074002 L109.818848,26.7829861 C109.912273,26.6762148 109.985677,26.6161568 110.039062,26.6028104 C110.092448,26.5894639 110.292641,26.6295026 110.639648,26.7229276 L112.981934,27.3835721 C113.195476,27.4503042 113.332275,27.5170353 113.392334,27.5837674 C113.452393,27.6504995 113.479085,27.7339134 113.472412,27.8340115 C113.465739,27.9341097 113.375652,28.0709085 113.202148,28.2444119 L112.541504,28.9450955 L112.541504,37.6135526 L115.544434,37.6135526 L116.465332,35.7317166 L116.765625,35.0910916 C116.819011,35.0510524 117.005858,35.2245532 117.326172,35.6115994 L119.087891,37.7336697 C119.248048,37.9338661 119.344808,38.0906841 119.378174,38.2041287 C119.41154,38.3175733 119.434896,38.4276796 119.448242,38.534451 C119.461589,38.6412224 119.261395,38.6946072 118.847656,38.6946072 L112.541504,38.6946072 L112.541504,47.4831815 L114.84375,47.4831815 L115.70459,45.7214627 C115.89144,45.3344165 116.021565,45.1442329 116.094971,45.1509061 C116.168376,45.1575793 116.345213,45.3210705 116.625488,45.6413846 L118.327148,47.5632596 C118.447266,47.7234166 118.53068,47.8568788 118.577393,47.9636502 C118.624105,48.0704216 118.650797,48.157172 118.657471,48.2239041 C118.664144,48.2906362 118.624105,48.3640404 118.537354,48.444119 C118.450602,48.5241975 118.333822,48.5642361 118.187012,48.5642361 L112.541504,48.5642361 L112.541504,58.8943143 L116.425293,58.8943143 L117.326172,57.0525174 C117.579754,56.5453534 117.736572,56.2851021 117.796631,56.2717557 C117.85669,56.2584093 118.033527,56.4185639 118.327148,56.7522244 L120.148926,59.0144315 C120.335776,59.254667 120.429199,59.4415141 120.429199,59.5749783 C120.415853,59.8018675 120.222333,59.9153104 119.848633,59.9153104 L102.731934,59.9153104 C102.505044,59.9153104 102.398275,59.7451461 102.411621,59.4048123 C102.424968,59.0644786 102.531737,58.8943143 102.731934,58.8943143 L109.999023,58.8943143 L109.999023,48.5642361 L104.473633,48.5642361 C104.26009,48.5642361 104.146647,48.3840622 104.133301,48.0237088 C104.119954,47.6633554 104.233397,47.4831815 104.473633,47.4831815 L109.999023,47.4831815 L109.999023,38.6946072 L106.535645,38.6946072 C106.375487,39.1216927 106.045169,39.9925336 105.544678,41.3071561 C105.044187,42.6217785 104.617108,43.7028224 104.263428,44.5503201 C103.909748,45.3978179 103.45264,46.3754285 102.89209,47.4831815 L102.511719,48.2239041 C102.391601,48.4774861 102.284831,48.590929 102.191406,48.5642361 C102.111328,48.5508897 102.067953,48.4908317 102.061279,48.3840604 C102.054606,48.277289 102.077962,48.1504999 102.131348,48.0036893 L102.331543,47.3230252 C102.344889,47.2562931 102.471678,46.8158678 102.711914,46.0017361 C102.95215,45.1876045 103.235757,44.1199068 103.562744,42.7986111 C103.889731,41.4773155 104.263426,39.6388736 104.683838,37.2832303 C105.10425,34.927587 105.374511,33.1091644 105.494629,31.827908 L105.594727,30.9870877 L105.614746,30.4065213 C105.628093,30.3531356 105.668131,30.313097 105.734863,30.2864041 C105.801595,30.2597113 106.021808,30.366481 106.395508,30.6067166 L108.777832,32.1682401 C108.844564,32.2216257 108.907959,32.2950299 108.968018,32.3884549 C109.028076,32.4818798 109.061442,32.5719668 109.068115,32.6587186 C109.074788,32.7454703 108.978028,32.8422304 108.777832,32.9490018 L108.057129,33.3894315 C107.696776,34.643995 107.423178,35.5882401 107.236328,36.2221951 C107.049478,36.8561501 106.916016,37.3199313 106.835937,37.6135526 Z M96.0053711,34.8108182 C96.0053711,34.6373147 96.0454098,34.5505643 96.1254883,34.5505643 C96.1655275,34.5639107 96.2122393,34.6072859 96.265625,34.6806912 C96.3190107,34.7540965 96.4791653,35.1811756 96.7460938,35.9619412 C97.0130222,36.7427068 97.1931961,37.4367103 97.2866211,38.0439725 C97.380046,38.6512346 97.440104,39.0849868 97.4667969,39.345242 C97.4934897,39.6054972 97.5068359,39.9057872 97.5068359,40.2461209 C97.5068359,40.5864546 97.4667973,40.9501392 97.3867188,41.3371854 C97.266601,41.8710422 97.056398,42.3515061 96.7561035,42.7785916 C96.455809,43.2056771 96.1021342,43.4125435 95.6950684,43.3991971 C95.2880025,43.3858507 94.9743663,43.2090132 94.7541504,42.8686795 C94.5339344,42.5283458 94.4238281,42.1112764 94.4238281,41.6174588 C94.4238281,41.1369877 94.5572903,40.6365044 94.8242188,40.115994 L95.2246094,39.3952908 C95.5983092,38.6879305 95.8185218,37.9739077 95.8852539,37.253201 C95.951986,36.5324943 95.9920247,35.8852026 96.0053711,35.3113065 L96.0053711,34.8108182 Z M100.830078,28.6448026 L100.830078,57.3528104 L100.970215,61.3366971 C100.890136,61.6570112 100.773357,61.9239356 100.619873,62.1374783 C100.466389,62.3510211 100.246177,62.5078392 99.9592285,62.6079373 C99.6722805,62.7080355 99.435385,62.7514107 99.2485352,62.7380643 C98.9949532,62.7380643 98.8114426,62.6713332 98.697998,62.537869 C98.5845535,62.4044047 98.4944665,62.1908652 98.4277344,61.897244 L98.5878906,56.2917752 L98.5878906,31.5075955 L98.4077148,26.4026151 C98.4744469,26.2691508 98.5411781,26.1890735 98.6079102,26.1623807 L99.0483398,26.3025174 L101.390625,27.003201 C101.590821,27.0699331 101.724284,27.1433373 101.791016,27.2234158 C101.857748,27.3034944 101.89445,27.3702255 101.901123,27.4236111 C101.907796,27.4769968 101.877767,27.5604107 101.811035,27.6738553 C101.744303,27.7872999 101.65088,27.8974062 101.530762,28.0041776 L100.830078,28.6448026 Z M101.530762,33.8098416 C101.530762,33.6363381 101.58081,33.5562608 101.680908,33.5696072 C101.781006,33.5829537 101.951171,33.7297621 102.191406,34.0100369 C102.431642,34.2903118 102.698566,34.6473232 102.992188,35.0810818 C103.285809,35.5148405 103.559406,35.9953045 103.812988,36.5224881 C104.06657,37.0496717 104.18335,37.6469151 104.16333,38.3142361 C104.14331,38.9815572 104.006512,39.4953867 103.75293,39.8557401 C103.499348,40.2160934 103.212404,40.3895943 102.89209,40.3762479 C102.465004,40.3762479 102.178061,40.1994104 102.03125,39.8457303 C101.884439,39.4920501 101.807699,39.1784139 101.801025,38.9048123 C101.794352,38.6312107 101.804362,38.3943153 101.831055,38.194119 L101.991211,37.1330838 C102.03125,36.8394625 102.05127,36.5591919 102.05127,36.2922635 C102.05127,36.1321064 102.027914,35.865182 101.981201,35.4914822 C101.934489,35.1177825 101.844402,34.7173958 101.710938,34.2903104 L101.530762,33.8098416 Z M149.796875,31.0671658 L149.816895,29.3054471 L149.696777,26.3225369 C149.763509,26.2157656 149.836914,26.1557076 149.916992,26.1423611 L150.097168,26.2024197 L152.539551,26.9231229 C152.673015,26.9765085 152.763102,27.0365665 152.809814,27.1032986 C152.856527,27.1700308 152.883219,27.2567812 152.889893,27.3635526 C152.896566,27.4703239 152.806479,27.6304786 152.619629,27.8440213 L152.15918,28.3645291 L152.15918,31.0671658 L156.062988,31.0671658 L156.062988,29.4255643 L155.942871,26.6028104 C155.98291,26.5627711 156.029622,26.5360787 156.083008,26.5227322 L156.483398,26.6428494 L158.725586,27.2634549 C158.872397,27.3168406 158.97583,27.3768986 159.035889,27.4436307 C159.095948,27.5103628 159.129313,27.6037863 159.135986,27.7239041 C159.14266,27.8440219 159.065919,27.9908303 158.905762,28.1643338 L158.385254,28.7248807 L158.385254,31.0671658 L160.807617,31.0671658 L161.728516,29.3855252 C161.928712,29.0118254 162.065511,28.8216418 162.138916,28.8149686 C162.212321,28.8082954 162.395832,28.9717866 162.689453,29.3054471 L164.130859,31.0671658 C164.317709,31.3074014 164.431152,31.4708926 164.471191,31.5576443 C164.511231,31.6443961 164.534587,31.7545024 164.54126,31.8879666 C164.547933,32.0214308 164.42448,32.0881619 164.170898,32.0881619 L162.128906,32.0881619 L162.128906,32.1482205 L158.385254,32.1482205 L158.385254,34.0100369 L158.465332,35.4914822 C158.3986,35.9452606 158.181724,36.2588967 157.814697,36.4324002 C157.447671,36.6059037 157.077313,36.6926541 156.703613,36.6926541 C156.463378,36.7060005 156.29655,36.6692984 156.203125,36.5825467 C156.1097,36.495795 156.029623,36.3656693 155.962891,36.1921658 L156.062988,33.4494901 L156.062988,32.1482205 L152.15918,32.1482205 L152.15918,34.3103299 L152.219238,35.6516385 C152.152506,36.0253383 151.942303,36.3156186 151.588623,36.5224881 C151.234943,36.7293576 150.884605,36.8261177 150.537598,36.8127713 C150.203937,36.8127713 149.990398,36.7393671 149.896973,36.5925565 C149.803548,36.4457458 149.74349,36.2655718 149.716797,36.0520291 L149.816895,33.6897244 L149.816895,32.1482205 L145.232422,32.1482205 C145.032226,32.1482205 144.932129,31.9680465 144.932129,31.6076932 C144.932129,31.2473398 145.032226,31.0671658 145.232422,31.0671658 L149.796875,31.0671658 Z M162.509277,38.1340604 L162.509277,38.1740994 L158.805664,38.1740994 C158.6722,38.4677207 158.492026,38.7212989 158.265137,38.9348416 C158.225097,40.1493659 158.198405,40.8834081 158.185059,41.1369901 L158.084961,42.9787869 L160.207031,42.9787869 L160.6875,41.9577908 C160.780925,41.7309017 160.861002,41.5874298 160.927734,41.5273709 C160.994466,41.467312 161.17464,41.557399 161.468262,41.7976346 L163.209961,43.2190213 C163.303386,43.3124462 163.370117,43.3958601 163.410156,43.4692654 C163.450196,43.5426708 163.473551,43.6260846 163.480225,43.7195096 C163.486898,43.8129345 163.423503,43.9463967 163.290039,44.1199002 L162.729492,44.8406033 L162.729492,59.7951932 C162.729492,60.075468 162.686117,60.3891042 162.599365,60.7361111 C162.512613,61.0831181 162.292401,61.3633887 161.938721,61.5769315 C161.585041,61.7904742 161.144615,62.0140234 160.617432,62.2475858 C160.090248,62.4811481 159.786621,62.5845813 159.706543,62.5578885 C159.613118,62.5578885 159.556397,62.5378692 159.536377,62.4978299 C159.516357,62.4577906 159.499675,62.4210885 159.486328,62.3877225 C159.472982,62.3543564 159.466309,62.2008749 159.466309,61.9272733 C159.466309,61.6536716 159.349529,61.2799774 159.115967,60.8061795 C158.882404,60.3323816 158.572105,59.968697 158.185059,59.7151151 L157.344238,59.1745877 C157.197428,59.0945092 157.130697,58.9877394 157.144043,58.8542752 C157.157389,58.6807717 157.264159,58.6006944 157.464355,58.6140408 L158.485352,58.734158 C158.952476,58.7875437 159.386228,58.8008899 159.786621,58.7741971 C160.040203,58.7608507 160.197021,58.6941196 160.25708,58.5740018 C160.317139,58.453884 160.347168,58.153594 160.347168,57.6731229 L160.347168,44.0998807 L157.984863,44.0998807 C157.904785,45.1275551 157.864746,45.6480577 157.864746,45.6614041 L157.604492,47.8235135 C158.165042,48.5442202 158.63216,49.2515699 159.005859,49.9455838 C159.379559,50.6395977 159.619791,51.2101486 159.726562,51.6572537 C159.833334,52.1043588 159.886719,52.5014089 159.886719,52.8484158 C159.886719,53.2087692 159.83667,53.5524344 159.736572,53.8794217 C159.636474,54.206409 159.479656,54.4866796 159.266113,54.720242 C159.052571,54.9538044 158.825685,55.0639107 158.585449,55.0505643 C158.35856,55.0505643 158.145021,54.9271117 157.944824,54.6802029 C157.744628,54.4332942 157.631185,54.029571 157.604492,53.4690213 C157.591146,53.2955178 157.611165,52.941843 157.664551,52.4079861 C157.717936,51.8741293 157.744629,51.3936654 157.744629,50.9665799 C157.744629,50.3126053 157.711263,49.8655069 157.644531,49.6252713 L157.404297,48.7644315 C157.297526,49.2315562 157.187419,49.705347 157.073975,50.1858182 C156.96053,50.6662893 156.763673,51.2301672 156.483398,51.8774686 C156.203124,52.52477 155.752689,53.3388894 155.13208,54.3198514 C154.511472,55.3008133 153.894209,56.0648845 153.280273,56.6120877 L152.539551,57.2927518 C152.472819,57.3594839 152.402751,57.3895129 152.329346,57.3828397 C152.25594,57.3761665 152.215902,57.3594837 152.209229,57.3327908 C152.202555,57.306098 152.205892,57.2727324 152.219238,57.2326932 L152.219238,57.1526151 C152.219238,57.0858829 152.252604,56.9991325 152.319336,56.8923611 L152.939941,56.0515408 C153.900884,54.7168987 154.581541,53.3021993 154.981934,51.8074002 C155.382326,50.3126011 155.639241,49.1081046 155.752686,48.1938748 C155.86613,47.279645 155.942871,46.4888814 155.98291,45.8215604 C156.022949,45.1542393 156.056315,44.5803518 156.083008,44.0998807 L152.299316,44.0998807 C152.245931,44.6203911 152.145834,45.521261 151.999023,46.8025174 C152.38607,47.1495243 152.7631,47.5632572 153.130127,48.0437283 C153.497154,48.5241995 153.79077,49.0013269 154.010986,49.4751248 C154.231202,49.9489228 154.344645,50.479435 154.351318,51.0666776 C154.357992,51.6539201 154.287924,52.1277109 154.141113,52.4880643 C154.020995,52.7683391 153.860841,53.001898 153.660645,53.1887479 C153.460448,53.3755978 153.266928,53.4623482 153.080078,53.4490018 C152.826496,53.4490018 152.612957,53.3088665 152.439453,53.0285916 C152.26595,52.7483168 152.172526,52.3212377 152.15918,51.7473416 C152.145833,51.4670668 152.162516,51.060007 152.209229,50.5261502 C152.255941,49.9922934 152.279297,49.5919068 152.279297,49.3249783 C152.279297,48.8044679 152.232585,48.3974082 152.13916,48.1037869 L151.898926,47.3630643 C151.818847,47.8435354 151.72876,48.3473553 151.628662,48.8745389 C151.528564,49.4017225 151.33838,50.1290915 151.058105,51.0566678 C150.777831,51.984244 150.357425,52.9284892 149.796875,53.8894315 C149.236325,54.8503738 148.662438,55.6644932 148.075195,56.3318143 L148.095215,60.7361111 C148.095215,60.9630003 148.028484,61.1665302 147.89502,61.3467068 C147.761555,61.5268835 147.551352,61.6803651 147.264404,61.8071561 C146.977456,61.9339471 146.733888,61.9906685 146.533691,61.9773221 C146.280109,61.9773221 146.113282,61.910591 146.033203,61.7771268 C145.953125,61.6436626 145.89974,61.4701617 145.873047,61.256619 L145.993164,57.7131619 L145.993164,45.8615994 L145.873047,41.5574002 C145.939779,41.4639753 145.993164,41.4105904 146.033203,41.397244 C146.073242,41.3838975 146.253416,41.4906673 146.57373,41.7175565 L148.275391,42.9787869 L150.497559,42.9787869 C150.497559,41.8443412 150.504232,40.9835099 150.517578,40.3962674 L150.517578,38.1740994 L145.612793,38.1740994 C145.412597,38.1740994 145.3125,37.9939254 145.3125,37.6335721 C145.3125,37.2732187 145.412597,37.0930447 145.612793,37.0930447 L160.847656,37.0930447 L161.788574,35.3713651 C161.922038,35.1044366 162.028808,34.9676379 162.108887,34.9609647 C162.188965,34.9542915 162.34912,35.0910902 162.589355,35.3713651 L164.170898,37.2932401 C164.264323,37.4267043 164.327718,37.533474 164.361084,37.6135526 C164.39445,37.6936311 164.414469,37.7636987 164.421143,37.8237576 C164.427816,37.8838165 164.397787,37.9505476 164.331055,38.0239529 C164.264323,38.0973583 164.170899,38.1340604 164.050781,38.1340604 L162.509277,38.1340604 Z M156.143066,38.1740994 L153.02002,38.1740994 C152.886555,38.3742957 152.74642,38.5878353 152.599609,38.8147244 C152.532877,39.975863 152.492839,40.6698665 152.479492,40.8967557 L152.359375,42.9787869 L156.103027,42.9787869 C156.116374,41.7642626 156.12972,40.8500465 156.143066,40.2361111 L156.143066,38.1740994 Z M148.075195,44.0998807 L148.095215,55.6711697 C148.762536,54.3498741 149.279702,52.8984726 149.646729,51.3169217 C150.013755,49.7353708 150.230631,48.2973155 150.297363,47.0027127 C150.364095,45.7081099 150.397461,45.0141064 150.397461,44.9206815 L150.41748,44.0998807 L148.075195,44.0998807 Z M139.106445,38.3542752 L138.666016,37.6736111 C138.585937,37.5801862 138.545898,37.5167917 138.545898,37.4834256 L138.545898,37.3733182 C138.559245,37.2532004 138.632649,37.1864693 138.766113,37.1731229 C139.006349,37.1731229 139.463457,37.3165947 140.137451,37.6035428 C140.811445,37.8904908 141.341958,38.2741947 141.729004,38.7546658 C142.11605,39.235137 142.30957,39.8690825 142.30957,40.6565213 C142.296224,41.1636853 142.166098,41.6408127 141.919189,42.0879178 C141.672281,42.5350229 141.328615,42.751899 140.888184,42.7385526 C140.554523,42.7385526 140.280926,42.5984172 140.067383,42.3181424 C139.85384,42.0378676 139.727051,41.7609335 139.687012,41.4873318 C139.646972,41.2137302 139.606934,40.7232566 139.566895,40.0158963 C139.526855,39.308536 139.373374,38.7546678 139.106445,38.3542752 Z M141.208496,28.6448026 L140.808105,28.0241971 C140.741373,27.9307721 140.708008,27.8573679 140.708008,27.8039822 L140.708008,27.7439236 C140.694661,27.7172308 140.694661,27.6972115 140.708008,27.6838651 C140.721354,27.5770937 140.808105,27.5170357 140.968262,27.5036893 C141.128419,27.5036893 141.5922,27.6671805 142.359619,27.9941678 C143.127038,28.3211551 143.674233,28.7882728 144.001221,29.395535 C144.328208,30.0027971 144.495036,30.5833577 144.501709,31.1372342 C144.508382,31.6911107 144.391603,32.1882574 144.151367,32.6286893 C143.831053,33.2159318 143.430666,33.5028755 142.950195,33.4895291 C142.563149,33.4895291 142.276205,33.3260379 142.089355,32.9990506 C141.902506,32.6720633 141.795736,32.2349746 141.769043,31.6877713 L141.729004,30.3264432 C141.702311,29.8993577 141.652263,29.5790484 141.578857,29.3655057 C141.505452,29.1519629 141.382,28.911731 141.208496,28.6448026 Z M145.492676,33.8498807 L144.952148,37.2131619 C144.912109,37.4934368 144.781984,38.2441617 144.561768,39.4653592 C144.341552,40.6865567 144.077964,42.2780935 143.770996,44.2400174 C143.464028,46.2019413 143.22046,47.696718 143.040283,48.7243924 C142.860107,49.7520668 142.719971,50.6195712 142.619873,51.3269315 C142.519775,52.0342918 142.469727,52.7416415 142.469727,53.4490018 C142.469727,53.8227016 142.486409,54.1263281 142.519775,54.3598904 C142.553141,54.5934528 142.656575,55.0905995 142.830078,55.8513455 L143.17041,57.412869 C143.343914,58.333772 143.417318,58.9877368 143.390625,59.374783 C143.363932,59.8285613 143.227133,60.2823328 142.980225,60.7361111 C142.733316,61.1898895 142.342939,61.4101021 141.809082,61.3967557 C141.341957,61.3967557 140.998292,61.176543 140.778076,60.7361111 C140.55786,60.2956793 140.447754,59.8485809 140.447754,59.3948026 C140.447754,58.9410242 140.454427,58.4638969 140.467773,57.9634061 C140.48112,57.4629153 140.49113,57.0725383 140.497803,56.7922635 C140.504476,56.5119887 140.501139,56.2784298 140.487793,56.0915799 C140.447754,55.4776445 140.350994,54.9371226 140.19751,54.4699979 C140.044026,54.0028731 139.893881,53.6692176 139.74707,53.4690213 C139.60026,53.268825 139.413413,53.0753048 139.186523,52.8884549 L138.726074,52.5080838 C138.632649,52.4413517 138.592611,52.3612744 138.605957,52.2678494 C138.605957,52.1610781 138.692707,52.094347 138.866211,52.0676541 L139.466797,52.0075955 C139.760418,51.9809027 139.980631,51.9175081 140.127441,51.81741 C140.274252,51.7173118 140.507811,51.093376 140.828125,49.9455838 L141.368652,47.9035916 L142.549805,43.6394315 L143.530762,39.6355252 L144.271484,36.9328885 L145.092285,33.6096463 C145.118978,33.4895285 145.169026,33.3894319 145.242432,33.3093533 C145.315837,33.2292748 145.379232,33.2559672 145.432617,33.3894315 C145.486003,33.5228957 145.512695,33.6229923 145.512695,33.6897244 L145.492676,33.8498807 Z M175.72168,43.359158 L172.71875,43.359158 C172.465168,43.359158 172.305013,43.1823206 172.238281,42.8286404 C172.171549,42.4749603 172.331704,42.2981229 172.71875,42.2981229 L184.27002,42.2981229 L184.850586,41.1770291 C184.970704,40.9367935 185.0708,40.8200141 185.150879,40.8266873 C185.230957,40.8333605 185.351073,40.9101013 185.51123,41.0569119 L187.633301,43.1189236 C187.780111,43.2790807 187.853516,43.4258891 187.853516,43.5593533 C187.840169,43.6928175 187.786784,43.8062604 187.693359,43.8996854 L187.032715,44.5803494 C187.006022,45.9283379 186.989339,47.1261612 186.982666,48.1738553 C186.975993,49.2215493 186.945964,50.4760941 186.892578,51.9375272 C186.839192,53.3989603 186.72575,54.8503618 186.552246,56.2917752 C186.378743,57.7331887 186.098472,58.8275788 185.711426,59.5749783 C185.32438,60.3223779 184.867272,60.9229578 184.340088,61.3767361 C183.812904,61.8305145 183.369142,62.1374775 183.008789,62.2976346 C182.648436,62.4577916 182.408204,62.5311958 182.288086,62.5178494 C182.194661,62.5178494 182.131266,62.5011667 182.0979,62.4678006 C182.064534,62.4344345 182.031169,62.3843862 181.997803,62.3176541 C181.964437,62.250922 181.934408,62.1441522 181.907715,61.9973416 L181.66748,60.956326 C181.574056,60.6627047 181.393882,60.3290492 181.126953,59.9553494 C180.860025,59.5816496 180.553062,59.2947059 180.206055,59.0945096 L179.14502,58.5139432 C179.024902,58.4605575 178.941488,58.3871533 178.894775,58.2937283 C178.848063,58.2003034 178.824707,58.1235626 178.824707,58.0635037 C178.824707,58.0034448 178.861409,57.9333772 178.934814,57.8532986 C179.00822,57.7732201 179.118326,57.7398546 179.265137,57.753201 L180.466309,57.9133572 C181.640794,58.0735143 182.404865,57.9967735 182.758545,57.6831326 C183.112225,57.3694917 183.385823,56.992461 183.579346,56.5520291 C183.772869,56.1115972 183.923014,55.3909013 184.029785,54.3899197 C184.136557,53.3889382 184.21997,52.2044611 184.280029,50.8364529 C184.340088,49.4684448 184.37679,47.6433491 184.390137,45.3611111 L184.390137,43.359158 L178.764648,43.359158 L178.404297,43.9797635 C178.310872,45.3144056 178.217448,46.6123255 178.124023,47.8735623 C178.030598,49.1347991 177.823732,50.4861039 177.503418,51.9275174 C177.183104,53.3689309 176.629236,54.7669475 175.841797,56.1216092 C175.054358,57.4762709 174.160161,58.5539782 173.15918,59.3547635 C172.158198,60.1555487 171.257328,60.8228598 170.456543,61.3567166 L169.515625,61.9773221 C169.448893,62.0307078 169.355469,62.0540637 169.235352,62.0473904 C169.115234,62.0407172 169.048503,61.9773227 169.035156,61.8572049 C169.02181,61.7370871 169.095214,61.5969518 169.255371,61.4367947 L170.17627,60.5359158 C172.458508,58.2670243 173.863197,56.1049365 174.390381,54.0495877 C174.917564,51.9942389 175.25122,50.2525571 175.391357,48.8244901 C175.531495,47.396423 175.614909,46.2252921 175.641602,45.3110623 C175.668294,44.3968325 175.681641,43.8930127 175.681641,43.7995877 L175.72168,43.359158 Z M177.743652,31.9680447 C176.662592,34.0500864 175.574875,36.0386733 174.480469,37.9338651 C173.386062,39.8290568 172.325038,41.4339399 171.297363,42.7485623 C170.269689,44.0631848 169.535647,44.9473719 169.095215,45.4011502 L168.214355,46.3020291 C168.054198,46.4755326 167.944092,46.532254 167.884033,46.4721951 C167.823974,46.4121362 167.793945,46.3153761 167.793945,46.1819119 C167.793945,46.0484477 167.833984,45.9083124 167.914062,45.7615018 L168.654785,44.6203885 C169.508956,43.2990928 170.336422,41.7209022 171.137207,39.8857693 C171.937992,38.0506365 172.591957,36.4424169 173.099121,35.0610623 C173.606285,33.6797078 173.95996,32.6020004 174.160156,31.827908 L174.660645,29.865994 L174.960938,28.6848416 C175.041016,28.6448024 175.174478,28.684841 175.361328,28.8049588 L178.26416,30.8669705 C178.517742,31.0671668 178.647868,31.2640236 178.654541,31.4575467 C178.661214,31.6510698 178.544435,31.7745223 178.304199,31.827908 L177.743652,31.9680447 Z M183.989746,29.6257596 C184.12321,30.1863093 184.266682,30.7068119 184.420166,31.187283 C184.57365,31.6677542 184.967363,32.5752972 185.601318,33.9099393 C186.235273,35.2445814 187.289625,36.732685 188.764404,38.3742947 C190.239184,40.0159045 191.617181,41.1169677 192.898438,41.6775174 L193.719238,42.037869 C193.879395,42.1179475 193.959473,42.2447366 193.959473,42.4182401 C193.959473,42.5917435 193.892742,42.6985133 193.759277,42.7385526 L193.058594,42.9787869 C192.391273,43.2056761 191.877443,43.4992929 191.51709,43.8596463 C191.156736,44.2199997 190.893149,44.570338 190.726318,44.9106717 C190.559488,45.2510054 190.449382,45.4211697 190.395996,45.4211697 C190.222493,45.4345162 189.685307,44.9440426 188.784424,43.9497342 C187.88354,42.9554258 187.039392,41.7108908 186.251953,40.2160916 C185.464514,38.7212925 184.870607,37.4333822 184.470215,36.3523221 C184.069822,35.271262 183.559329,33.5863016 182.938721,31.2973904 C182.318112,29.0084793 181.961101,27.7305786 181.867676,27.4636502 L181.627441,26.7829861 C181.560709,26.6495219 181.534017,26.5527618 181.547363,26.4927029 C181.56071,26.432644 181.594075,26.3892688 181.647461,26.362576 C181.700847,26.3358831 181.840982,26.3492294 182.067871,26.4026151 L184.910645,27.2634549 C185.097494,27.330187 185.207601,27.4102643 185.240967,27.5036893 C185.274333,27.5971142 185.287679,27.6538357 185.281006,27.6738553 C185.274333,27.6938749 185.250977,27.7572695 185.210938,27.8640408 C185.170898,27.9708122 185.137533,28.0442164 185.11084,28.0842557 L183.989746,29.6257596 Z M206.911621,32.7488065 C206.965007,32.3083746 207.018392,31.8646127 207.071777,31.4175076 C207.125163,30.9704025 207.171875,30.3598129 207.211914,29.5857205 L207.291992,27.5437283 L207.271973,26.062283 C207.312012,26.0355902 207.345377,26.0155708 207.37207,26.0022244 C207.398763,25.988878 207.618976,26.0355898 208.032715,26.1423611 L210.915527,26.9231229 C211.169109,27.0032014 211.309245,27.0799422 211.335938,27.1533475 C211.36263,27.2267528 211.37264,27.3335226 211.365967,27.47366 C211.359294,27.6137974 211.25586,27.7906348 211.055664,28.0041776 L210.455078,28.6448026 C210.33496,29.672477 210.241537,30.4398847 210.174805,30.9470486 L209.994629,32.3083768 L209.93457,32.7488065 L217.562012,32.7488065 L218.783203,30.4465604 C218.903321,30.2463641 219.000081,30.1429308 219.073486,30.1362576 C219.146892,30.1295844 219.330402,30.2797294 219.624023,30.5866971 L221.726074,32.8689236 C221.926271,33.0958128 222.026367,33.2826599 222.026367,33.4294705 C222.013021,33.5228955 221.972982,33.6096459 221.90625,33.6897244 C221.839518,33.769803 221.752767,33.8098416 221.645996,33.8098416 L219.984375,33.8098416 L219.984375,33.8298611 L211.255859,33.8298611 C211.40267,34.2302538 211.549478,34.5805921 211.696289,34.8808865 C211.8431,35.181181 212.296871,35.8585017 213.057617,36.912869 C213.818363,37.9672362 215.11962,38.981549 216.961426,39.9558377 C218.803232,40.9301264 220.538241,41.4906677 222.166504,41.6374783 L222.967285,41.7175565 C223.047364,41.7309029 223.100749,41.7809512 223.127441,41.8677029 C223.154134,41.9544547 223.16748,42.004503 223.16748,42.0178494 C223.154134,42.0712351 223.130778,42.1379662 223.097412,42.2180447 C223.064046,42.2981233 223.020671,42.3515081 222.967285,42.378201 L222.34668,42.7385526 L221.766113,43.0588651 C221.512531,43.2457149 221.268963,43.5193125 221.0354,43.8796658 C220.801838,44.2400192 220.638347,44.5803478 220.544922,44.9006619 C220.451497,45.220976 220.381429,45.4278424 220.334717,45.5212674 C220.288004,45.6146923 220.191244,45.6680772 220.044434,45.6814236 C219.737466,45.7214629 218.950039,45.3711246 217.682129,44.6303983 C216.414219,43.8896719 215.236415,42.8920419 214.148682,41.6374783 C213.060948,40.3829148 212.260175,39.1016776 211.746338,37.7937283 C211.232501,36.4857791 210.908855,35.4848125 210.775391,34.7907986 L210.735352,34.4704861 L210.615234,33.8298611 L209.794434,33.8298611 C209.647623,34.5906071 209.440757,35.4781308 209.173828,36.4924588 C208.9069,37.5067868 208.339685,38.6812542 207.472168,40.0158963 C206.604651,41.3505384 205.13323,42.6184294 203.057861,43.8196072 C200.982493,45.0207851 199.430995,45.7948659 198.40332,46.1418729 L197.342285,46.5022244 C197.182128,46.5689565 197.062012,46.5789662 196.981934,46.5322537 C196.901855,46.4855413 196.861816,46.4254833 196.861816,46.3520779 C196.861816,46.2786726 196.875163,46.2019319 196.901855,46.1218533 C196.928548,46.0417748 196.988606,45.9750437 197.082031,45.921658 L198.163086,45.3210721 C199.350917,44.6670975 200.662184,43.7261889 202.096924,42.4983182 C203.531664,41.2704475 204.559323,39.9825372 205.179932,38.6345486 C205.80054,37.2865601 206.187581,36.3056129 206.341064,35.6916776 C206.494548,35.0777422 206.63802,34.4571429 206.771484,33.8298611 L198.303223,33.8298611 C198.076334,33.8298611 197.949544,33.6496872 197.922852,33.2893338 C197.896159,32.9289804 198.022948,32.7488065 198.303223,32.7488065 L206.911621,32.7488065 Z M197.762695,49.7854276 C197.629231,49.7587347 197.532471,49.7086864 197.472412,49.6352811 C197.412353,49.5618758 197.378988,49.3850383 197.372314,49.1047635 C197.365641,48.8244887 197.482421,48.6843533 197.722656,48.6843533 L213.257812,48.6843533 L213.257812,46.6623807 L213.157715,43.4592557 C213.224447,43.3925236 213.284505,43.3524849 213.337891,43.3391385 L213.638184,43.4392361 L216.180664,44.1999783 C216.500978,44.3067497 216.661133,44.4368754 216.661133,44.5903592 C216.661133,44.743843 216.601075,44.8806418 216.480957,45.0007596 L215.840332,45.6814236 L215.840332,48.6843533 L218.723145,48.6843533 L219.804199,46.7424588 C219.991049,46.4087983 220.127848,46.238634 220.2146,46.2319608 C220.301351,46.2252875 220.471516,46.3554132 220.725098,46.6223416 L222.74707,48.7644315 C222.893881,48.9379349 222.990641,49.0747337 223.037354,49.1748318 C223.084066,49.27493 223.107422,49.365017 223.107422,49.4450955 C223.107422,49.525174 223.074056,49.6019148 223.007324,49.6753201 C222.940592,49.7487254 222.853842,49.7854276 222.74707,49.7854276 L215.820312,49.7854276 L215.820312,60.0754666 C215.820312,60.6760556 215.6001,61.1598561 215.159668,61.5268826 C214.719236,61.8939092 214.188724,62.2375744 213.568115,62.5578885 C212.947507,62.8782026 212.53711,63.0116648 212.336914,62.9582791 C212.283528,62.9582791 212.24349,62.9449329 212.216797,62.9182401 C212.190104,62.8915472 212.166748,62.8381623 212.146729,62.7580838 C212.126709,62.6780053 212.076661,62.2842918 211.996582,61.5769315 C211.916504,60.8695712 211.72632,60.3891072 211.426025,60.1355252 C211.125731,59.8819432 210.708662,59.6216919 210.174805,59.3547635 L209.494141,59.0144315 C209.387369,58.9610458 209.317302,58.8909781 209.283936,58.8042264 C209.250569,58.7174746 209.23055,58.647407 209.223877,58.5940213 C209.217204,58.5406356 209.233887,58.4872507 209.273926,58.4338651 C209.327311,58.3404401 209.434081,58.3004014 209.594238,58.3137479 L210.415039,58.4138455 C210.70866,58.4538848 211.362625,58.4872503 212.376953,58.5139432 C212.830731,58.540636 213.090983,58.4739049 213.157715,58.3137479 C213.224447,58.1535908 213.257812,57.9800899 213.257812,57.7932401 L213.257812,49.7854276 L197.762695,49.7854276 Z M203.768555,52.0676541 L203.308105,51.2668729 C203.25472,51.2001408 203.224691,51.1467559 203.218018,51.1067166 C203.211344,51.0666774 203.214681,51.0333118 203.228027,51.006619 C203.228027,50.8464619 203.301432,50.7463653 203.448242,50.706326 C203.56836,50.6929796 204.06217,50.9498943 204.929688,51.4770779 C205.797205,52.0042616 206.467852,52.6582264 206.94165,53.438992 C207.415448,54.2197576 207.645671,54.9838288 207.632324,55.7312283 C207.618978,56.1850066 207.472169,56.7255286 207.191895,57.3528104 C206.91162,57.9800921 206.464521,58.2803821 205.850586,58.2536893 C205.4235,58.2536893 205.099855,58.0668422 204.879639,57.6931424 C204.659423,57.3194426 204.53597,56.8790173 204.509277,56.3718533 L204.529297,54.550076 C204.489258,53.7225979 204.235679,52.8951322 203.768555,52.0676541 Z M234.998535,35.5715604 L235.979492,33.8699002 C236.09961,33.6697039 236.219726,33.5629341 236.339844,33.5495877 C236.419922,33.5495877 236.546711,33.6563575 236.720215,33.8699002 L238.121582,35.5715604 C238.255046,35.7450638 238.341797,35.8985454 238.381836,36.0320096 C238.421875,36.1654738 238.441895,36.2522242 238.441895,36.2922635 C238.428548,36.3990349 238.371827,36.4891218 238.271729,36.5625272 C238.17163,36.6359325 238.061524,36.6726346 237.941406,36.6726346 L230.53418,36.6726346 C230.427408,36.6325953 230.340658,36.5758739 230.273926,36.5024686 C230.207194,36.4290633 230.177165,36.2555624 230.183838,35.9819608 C230.190511,35.7083591 230.333983,35.5715604 230.614258,35.5715604 L234.998535,35.5715604 Z M245.04834,41.5173611 L240.403809,41.5173611 C240.176919,41.5173611 240.043457,41.3338506 240.003418,40.966824 C239.963379,40.5997975 240.096841,40.4162869 240.403809,40.4162869 L245.04834,40.4162869 L245.04834,37.2131619 L244.908203,34.050076 C244.948242,33.9966903 244.978271,33.9633248 244.998291,33.9499783 C245.018311,33.9366319 245.181802,33.9699975 245.48877,34.050076 L247.770996,34.6706815 C248.011232,34.75076 248.138021,34.8842222 248.151367,35.0710721 C248.164714,35.257922 248.104656,35.4247497 247.971191,35.5715604 L247.430664,36.1321072 L247.430664,40.4162869 L248.511719,40.4162869 L249.552734,38.5945096 C249.659506,38.3943133 249.759602,38.2908801 249.853027,38.2842068 C249.946452,38.2775336 250.073241,38.3809668 250.233398,38.5945096 L251.774902,40.6965604 C251.935059,40.9234495 252.015137,41.0902773 252.015137,41.1970486 C252.00179,41.4105914 251.875001,41.5173611 251.634766,41.5173611 L247.430664,41.5173611 L247.430664,53.268826 C247.430664,53.8827614 247.36727,54.433293 247.240479,54.9204373 C247.113688,55.4075817 246.676599,55.8413339 245.929199,56.2217068 C245.1818,56.6020798 244.681316,56.7855904 244.427734,56.772244 C244.267577,56.772244 244.167481,56.7355419 244.127441,56.6621365 C244.087402,56.5887312 244.037354,56.3518358 243.977295,55.9514432 C243.917236,55.5510506 243.777101,55.1806929 243.556885,54.8403592 C243.336669,54.5000255 243.059735,54.2297645 242.726074,54.0295682 L241.885254,53.5490994 C241.765136,53.4823673 241.688395,53.4156362 241.655029,53.3489041 C241.621663,53.282172 241.601644,53.1854119 241.594971,53.0586209 C241.588297,52.9318299 241.685058,52.8684354 241.885254,52.8684354 L243.246582,52.8684354 C244.007328,52.8684354 244.497802,52.8250601 244.718018,52.7383084 C244.938234,52.6515567 245.04834,52.3812957 245.04834,51.9275174 L245.04834,41.5173611 Z M227.95166,42.7986111 C227.844889,42.7719183 227.758138,42.7252065 227.691406,42.6584744 C227.624674,42.5917423 227.577962,42.4149049 227.55127,42.1279568 C227.524577,41.8410088 227.691404,41.6975369 228.051758,41.6975369 L236.600098,41.6975369 L237.621094,40.0359158 C237.794597,39.7422946 237.928059,39.588813 238.021484,39.5754666 C238.141602,39.5754666 238.295084,39.6889095 238.481934,39.9157986 L240.083496,41.9577908 C240.21696,42.1446407 240.283691,42.2981223 240.283691,42.4182401 C240.270345,42.671822 240.143556,42.7986111 239.90332,42.7986111 L237.76123,42.7986111 C237.627766,43.1589645 237.480958,43.49262 237.320801,43.7995877 L237.320801,55.9314236 C237.320801,56.1449664 237.337484,56.3384866 237.37085,56.5119901 C237.404216,56.6854935 237.601072,56.9691007 237.961426,57.3628201 C238.321779,57.7565395 239.69644,57.9400501 242.085449,57.9133572 C244.861505,57.9000108 246.663245,57.7465293 247.490723,57.452908 C248.318201,57.1592868 248.935463,56.7956022 249.342529,56.3618436 C249.749595,55.9280849 250.173338,54.937128 250.61377,53.3889432 L251.474609,50.3059354 C251.527995,50.1190855 251.608072,50.0256619 251.714844,50.0256619 C251.834962,50.0523548 251.901693,50.1357686 251.915039,50.2759061 C251.928385,50.4160435 251.935059,50.4927843 251.935059,50.5061307 L251.474609,53.7893338 C251.407877,54.3231906 251.377848,54.7903084 251.384521,55.190701 C251.391195,55.5910936 251.461262,55.9447685 251.594727,56.2517361 L251.955078,56.9123807 C252.008464,57.0458449 252.068522,57.2427016 252.135254,57.5029568 C252.201986,57.7632121 252.155274,58.1202235 251.995117,58.5740018 C251.714842,59.3214013 251.007493,59.9486737 249.873047,60.4558377 C248.738601,60.9630017 246.576513,61.2099068 243.386719,61.1965604 C239.769839,61.1965604 237.591068,60.9963671 236.850342,60.5959744 C236.109615,60.1955818 235.615805,59.7985317 235.368896,59.4048123 C235.121988,59.0110929 234.998535,58.1335789 234.998535,56.772244 L234.998535,42.7986111 L233.757324,42.7986111 L233.256836,43.7195096 C233.20345,45.2943872 233.150065,46.6156631 233.09668,47.6833768 C233.043294,48.7510904 232.933188,49.8554902 232.766357,50.9966092 C232.599527,52.1377282 232.349286,53.2287817 232.015625,54.2698026 C231.681964,55.3108234 231.261559,56.2450588 230.754395,57.0725369 C230.247231,57.900015 229.743411,58.6373937 229.24292,59.2846951 C228.742429,59.9319965 228.312014,60.415797 227.95166,60.7361111 L227.150879,61.4768338 C227.044108,61.5836052 226.950684,61.6336535 226.870605,61.6269803 C226.790527,61.6203071 226.743815,61.5969512 226.730469,61.5569119 C226.717122,61.5168727 226.710449,61.4734974 226.710449,61.426785 L226.710449,61.2666287 C226.710449,61.2065698 226.763834,61.0964635 226.870605,60.9363065 L227.571289,59.9553494 C227.811525,59.5949961 228.131834,59.047801 228.532227,58.3137479 C228.932619,57.5796947 229.353025,56.6387862 229.793457,55.490994 C230.233889,54.3432018 230.527506,52.7383187 230.674316,50.6762967 C230.821127,48.6142747 230.901204,46.8225445 230.914551,45.3010526 L230.914551,42.7986111 L227.95166,42.7986111 Z M247.130371,29.7658963 L248.091309,28.1242947 C248.251466,27.8573663 248.371582,27.7205676 248.45166,27.7138943 C248.531739,27.7072211 248.68522,27.8173275 248.912109,28.0442166 L251.294434,30.4065213 C251.641441,30.7535282 251.814941,31.0871838 251.814941,31.4074979 C251.801595,31.8345833 251.568036,32.0614691 251.114258,32.0881619 L250.273438,32.0681424 C249.806313,32.0814888 249.319176,32.2016048 248.812012,32.428494 C248.304848,32.6553831 247.917807,32.8956151 247.650879,33.1491971 L246.77002,34.0100369 C246.54313,34.2235797 246.406332,34.2636183 246.359619,34.1301541 C246.312907,33.9966899 246.289551,33.9066029 246.289551,33.8598904 C246.289551,33.813178 246.316243,33.7164179 246.369629,33.5696072 L247.250488,30.8669705 L230.734375,30.8669705 C230.814454,31.6811022 230.854492,32.2416435 230.854492,32.5486111 C230.841146,33.0290823 230.771078,33.5395752 230.644287,34.0801053 C230.517496,34.6206353 230.280601,35.1077724 229.933594,35.5415311 C229.586587,35.9752897 229.172854,36.1921658 228.692383,36.1921658 C228.185219,36.2055123 227.808188,35.9786265 227.561279,35.5115018 C227.314371,35.044377 227.184245,34.5605765 227.170898,34.0600858 C227.157552,33.559595 227.397784,32.9156398 227.891602,32.128201 C227.958334,32.0080832 228.135171,31.7444953 228.422119,31.3374295 C228.709067,30.9303637 228.905924,30.5866985 229.012695,30.3064236 C229.119467,30.0261488 229.186198,29.6257622 229.212891,29.1052518 L229.292969,27.6638455 C229.292969,27.4769956 229.3597,27.376899 229.493164,27.3635526 C229.653321,27.3635526 229.806803,27.5537362 229.953613,27.9341092 C230.100424,28.3144822 230.300617,28.9250718 230.554199,29.7658963 L247.130371,29.7658963 Z M240.32373,45.6814236 L239.843262,44.6203885 C239.803222,44.5269635 239.789876,44.4101841 239.803223,44.2700467 C239.816569,44.1299093 239.909993,44.0665147 240.083496,44.0798611 C240.337078,44.106554 240.750811,44.3301032 241.324707,44.7505154 C241.898603,45.1709277 242.359048,45.6981034 242.706055,46.3320584 C243.053062,46.9660134 243.219889,47.6099686 243.206543,48.2639432 C243.193197,48.7711072 243.059734,49.2649173 242.806152,49.7453885 C242.55257,50.2258596 242.192222,50.4594185 241.725098,50.4460721 C241.351398,50.4460721 241.071127,50.2859174 240.884277,49.9656033 C240.697427,49.6452892 240.580648,49.2682585 240.533936,48.8344998 C240.487223,48.4007411 240.47054,47.8401999 240.483887,47.1528592 C240.497233,46.4655185 240.443848,45.9750449 240.32373,45.6814236 Z" id="十分血性-满分夺冠"></path>
            </g>
        </g>
    </g>
</svg>