<svg xmlns="http://www.w3.org/2000/svg" width="940" height="295" viewBox="0 0 940 295">
    <g fill="none" fill-rule="evenodd">
        <path fill="#FFF" stroke="#CCC" d="M.5.5h939v294H.5z"/>
        <path fill="#D8D8D8" d="M0 152h940v1H0z"/>
        <path fill="#CCC" d="M469 196h1v40h-1z"/>
        <path fill="#333" d="M129.816 209.39v-7.265c-2.484.422-4.445.71-5.882.867l-1.243.14a.255.255 0 0 1-.14.013.283.283 0 0 1-.176-.106c-.055-.062-.086-.172-.094-.328-.008-.156.145-.29.457-.399l.797-.28c1.64-.563 3.422-1.329 5.344-2.298 1.922-.968 3.398-1.851 4.43-2.648l1.242-.961.398-.375c.078-.063.172-.031.281.094l2.625 3.117c.25.312.387.496.41.55.024.055.036.11.036.165 0 .054-.02.113-.059.176-.039.062-.308.164-.808.304l-1.149.328c-.672.204-1.734.477-3.187.82 0 .313-.008.477-.024.493l-.469.75v6.844h3.282l1.125-2.04c.265-.468.445-.706.539-.714.094-.008.312.199.656.62l1.875 2.345c.188.25.281.46.281.632a.469.469 0 0 1-.175.293.513.513 0 0 1-.34.13h-7.243v4.5c1.313.515 2.29.933 2.93 1.253.64.32 1.223.735 1.746 1.242a5.226 5.226 0 0 1 1.207 1.793c.282.688.41 1.47.387 2.344-.023.875-.262 1.512-.715 1.91-.453.399-.867.594-1.242.586-.375-.008-.695-.2-.961-.574-.266-.375-.48-.941-.644-1.7a30.575 30.575 0 0 0-.399-1.675c-.102-.36-.3-.895-.598-1.606-.296-.71-.554-1.183-.773-1.417l-.938-1.102v15.07l.141 5.461c-.203.61-.508.992-.914 1.149a3.463 3.463 0 0 1-1.172.246c-.375.008-.62-.07-.738-.235-.117-.164-.2-.418-.246-.761l.14-5.274v-12.914c-1.562 2.516-2.543 4.05-2.941 4.606a81.867 81.867 0 0 1-1.863 2.449c-.844 1.078-1.414 1.781-1.711 2.11l-.82.89c-.172.187-.305.277-.399.27-.094-.008-.148-.032-.164-.071a.378.378 0 0 1-.023-.14v-.176c0-.063.07-.211.21-.446l.938-1.64c1.484-2.625 2.684-5.11 3.598-7.453.914-2.344 1.582-4.188 2.004-5.532l.82-2.695.14-.469h-6.914c-.265 0-.406-.21-.421-.633-.016-.421.125-.632.421-.632h7.125zm21-10.195v34.875c0 .766-.074 1.344-.222 1.735-.149.39-.426.746-.832 1.066-.407.32-.907.645-1.5.973-.594.328-1.047.476-1.36.445-.109 0-.175-.02-.199-.059a.373.373 0 0 1-.047-.14c-.008-.055-.023-.211-.047-.469-.023-.258-.101-.656-.234-1.195a2.837 2.837 0 0 0-.832-1.406c-.422-.399-.773-.668-1.055-.81l-1.101-.515a.49.49 0 0 1-.246-.222.406.406 0 0 1-.059-.27c0-.219.133-.312.398-.281l1.36.187c.562.094.984.133 1.265.118 1 0 1.57-.13 1.711-.387.141-.258.211-.63.211-1.113v-29.18l-.117-6.422c.078-.125.14-.195.188-.21l.164.07 3.21 1.288c.25.11.364.23.34.364-.023.133-.175.394-.457.785l-.539.773zm-6.773 4.36v18.797l.117 4.312a2.545 2.545 0 0 1-.246.668c-.102.18-.36.355-.773.527-.414.172-.77.243-1.067.211-.375-.015-.617-.105-.726-.27-.11-.163-.18-.386-.211-.667l.21-5.461v-16.383l-.14-4.945a.606.606 0 0 1 .129-.082c.023-.008.191.05.504.175l2.906 1.196c.297.14.434.293.41.457-.023.164-.129.347-.316.55l-.797.915zm26.836-.047l1.453.96c.203.141.3.298.293.47-.008.171-.176.289-.504.351l-.656.14a73.375 73.375 0 0 0-1.172 1.548l-1.5 2.015-1.172 1.547 3.984.469c.594-1.016.907-1.547.938-1.594l.633-1.266.304-.703c.079-.062.157-.078.235-.047l.281.282 2.203 1.968c.188.172.281.336.281.493-.015.218-.14.351-.375.398l-.703.164c-2.047 2.266-4.547 4.82-7.5 7.664l7.172-.234c-.265-.906-.449-1.469-.55-1.688a14.626 14.626 0 0 0-.528-.984l-.445-.774a.552.552 0 0 1-.106-.363c.008-.133.082-.199.223-.199.266.016 1.121.496 2.566 1.441 1.446.946 2.153 2.418 2.121 4.418-.03.688-.203 1.297-.515 1.828-.313.532-.719.797-1.219.797-.266.016-.558-.144-.879-.48-.32-.336-.48-.848-.48-1.535l-.07-1.266-5.93 1.547 3.468.984c.11.047.2.114.27.2a.42.42 0 0 1 .105.27c0 .093-.125.257-.375.491l-.703.68v2.484h8.485l1.617-2.578c.14-.219.266-.332.375-.34.11-.007.266.106.469.34l2.367 2.79c.234.296.351.523.351.679 0 .281-.203.422-.609.422h-13.055v6.351l.118 3.704a2.112 2.112 0 0 1-.364.714c-.148.18-.414.34-.797.48-.382.142-.722.204-1.02.188-.452 0-.737-.101-.855-.304a1.816 1.816 0 0 1-.222-.703l.164-4.665v-5.765h-12.89c-.173 0-.298-.102-.376-.305-.047-.11-.086-.304-.117-.586-.031-.281.133-.422.492-.422h12.89v-2.672l-.093-2.32c-.344.172-.602.281-.773.328l-.704.164-1.851.68-.234.094c-.063 0-.11-.047-.141-.14l-.07-.352-.61-2.813-.117-.398c0-.047.04-.094.117-.14l.375-.048.914-.375c.297-.125.727-.476 1.29-1.054.562-.579 1.71-2.047 3.445-4.407-1.297.25-2.227.469-2.79.656l-1.242.446a2.873 2.873 0 0 0-.41.199c-.117.07-.215-.066-.293-.41l-.61-2.344-.163-.469c0-.015.023-.047.07-.093l.399-.235.562-.492a4.96 4.96 0 0 0 .727-.809c.234-.32.535-.894.902-1.722s.637-1.477.809-1.946l.445-1.335.164-.47H156.91c-.25 0-.398-.21-.445-.632-.047-.422.101-.633.445-.633h13.524c-.485-.203-.809-.52-.973-.949-.164-.43-.238-.926-.223-1.488l.047-1.57c-.047-.657-.25-1.227-.61-1.712l-.491-.68c-.063-.062-.098-.113-.106-.152a.16.16 0 0 1 .012-.105c.015-.172.156-.266.422-.281.515 0 1.125.172 1.828.515a5.84 5.84 0 0 1 1.816 1.371c.508.57.762 1.325.762 2.262a3.525 3.525 0 0 1-.469 1.723c-.297.508-.68.863-1.148 1.066h8.015l1.243-2.133c.187-.312.32-.472.398-.48.078-.008.266.152.563.48l2.062 2.25c.156.188.254.332.293.434.04.102.063.242.07.422.008.18-.16.27-.504.27h-2.015v.023h-10.547zm-10.453 16.594l-1.313 1.242c-.36.344-.562.511-.61.504-.046-.008-.116-.176-.21-.504l-.984-3.07-.164-.422c0-.047.054-.094.164-.141l.468-.094 1.664-.445c.125-.031.883-.27 2.274-.715 1.39-.445 2.11-.684 2.156-.715l1.664-.633c.203-.062.305.012.305.223s-.078.379-.235.504l-1.546 1.242c-1.938 1.563-3.149 2.57-3.633 3.024zm-.82-13.032l-.61-.867a.363.363 0 0 1-.105-.234c-.008-.094.011-.164.058-.211.031-.047.102-.078.211-.094.172 0 .574.148 1.207.445.633.297 1.29.82 1.969 1.57.68.75 1.023 1.59 1.031 2.52.008.93-.191 1.645-.597 2.145-.329.437-.72.656-1.172.656-.391.016-.72-.152-.985-.504-.265-.351-.43-.84-.492-1.465l-.023-1.664a8.963 8.963 0 0 0-.153-1.277c-.086-.461-.199-.8-.34-1.02zm22.171 1.336a143.71 143.71 0 0 0-4.078 4.781 89.462 89.462 0 0 1 3.41 1.993c1.04.64 1.684 1.367 1.934 2.18.25.812.379 1.413.387 1.804.007.39-.028.734-.106 1.031-.094.328-.277.649-.55.961-.274.313-.583.461-.926.446a1.37 1.37 0 0 1-.621-.176c-.227-.117-.45-.465-.668-1.043l-.61-2.344a9.335 9.335 0 0 0-.96-2.027c-.423-.68-.782-1.184-1.079-1.512l-.82-.82c-.219-.22-.328-.344-.328-.375 0-.032.093-.242.281-.633l.867-1.875.867-2.016c.328-.734.524-1.195.586-1.383l.516-1.476.234-.774c.063-.046.117-.054.164-.023s.243.21.586.54l1.922 1.92c.172.188.25.33.235.423-.032.172-.204.273-.516.304l-.727.094zm6.891 6.68c0-1.234.074-2.59.223-4.066.148-1.477.347-2.743.597-3.797.25-1.055.574-2.075.973-3.059a13.3 13.3 0 0 1 1.418-2.648c.547-.782 1.137-1.407 1.77-1.875.632-.47 1.402-.711 2.308-.727a3.92 3.92 0 0 1 1.84.434c.555.289 1.086.718 1.594 1.289.507.57.992 1.285 1.453 2.144.46.86.847 1.781 1.16 2.766.312.984.566 2.223.762 3.715a45.21 45.21 0 0 1 .363 4.394 69.773 69.773 0 0 1 0 4.43c-.047 1.594-.145 2.965-.293 4.113-.149 1.149-.348 2.153-.598 3.012-.25.86-.586 1.746-1.008 2.66-.421.914-.882 1.707-1.382 2.379a8.408 8.408 0 0 1-1.746 1.746 3.475 3.475 0 0 1-2.262.691c-.594-.015-1.192-.19-1.793-.527a6.09 6.09 0 0 1-1.64-1.36 10.65 10.65 0 0 1-1.348-2.015 18.83 18.83 0 0 1-1.09-2.531c-.32-.914-.582-2.031-.785-3.352a42.43 42.43 0 0 1-.422-4.02 53.91 53.91 0 0 1-.094-3.796zm7.336 16.172a2.265 2.265 0 0 0 1.254-.41c.367-.258.722-.66 1.066-1.207.344-.547.617-1.16.82-1.84.204-.68.364-1.727.481-3.14.117-1.415.2-2.864.246-4.349.047-1.484.07-3.101.07-4.851a194.103 194.103 0 0 0-.14-5.004c-.063-1.46-.14-2.598-.235-3.41a28.638 28.638 0 0 0-.457-2.695c-.21-.985-.468-1.766-.773-2.344-.305-.578-.656-1.012-1.055-1.301-.398-.289-.8-.441-1.207-.457-.484 0-.937.164-1.36.492-.421.328-.808.774-1.16 1.336a7.694 7.694 0 0 0-.843 1.922c-.211.719-.39 1.637-.54 2.754a34.476 34.476 0 0 0-.28 3.293c-.04 1.078-.051 2.969-.036 5.672.016 2.687.055 4.668.118 5.941.062 1.274.195 2.555.398 3.844.203 1.289.477 2.406.82 3.351.344.946.75 1.59 1.22 1.934.468.344 1 .5 1.593.469zm16.336-5.227c.375 0 .75.145 1.125.434.375.289.781 1.27 1.219 2.941 0 .61-.106 1.172-.317 1.688-.21.515-.5.922-.867 1.219-.367.296-.754.445-1.16.445-.438 0-.84-.149-1.207-.446-.367-.296-.653-.703-.856-1.218a4.532 4.532 0 0 1-.304-1.676c0-.602.101-1.168.304-1.7.22-.546.516-.964.891-1.253.375-.29.766-.434 1.172-.434zm20.297-7.875c-.422.453-.801.82-1.137 1.102-.336.281-.84.558-1.512.832-.672.273-1.297.402-1.875.387-.812 0-1.543-.204-2.191-.61a6.655 6.655 0 0 1-1.606-1.37c-.421-.509-.796-1.153-1.125-1.935-.328-.78-.574-1.687-.738-2.718-.164-1.032-.215-2.375-.152-4.031.078-1.547.238-2.915.48-4.102.242-1.188.531-2.117.867-2.79a9.88 9.88 0 0 1 1.184-1.839 7.546 7.546 0 0 1 1.711-1.512c.687-.453 1.492-.68 2.414-.68 1.063.016 1.941.297 2.637.844.695.547 1.242 1.063 1.64 1.547.399.485.793 1.16 1.184 2.028.39.867.71 1.87.96 3.011.25 1.14.423 2.203.517 3.188.093.984.14 2.125.14 3.422 0 1.297-.055 2.468-.164 3.515-.11.97-.266 1.88-.469 2.73-.203.852-.425 1.66-.668 2.427a22.038 22.038 0 0 1-.867 2.285 18.146 18.146 0 0 1-1.277 2.355c-.516.813-1.05 1.551-1.606 2.215a16.476 16.476 0 0 1-1.734 1.793c-.602.531-1.184.957-1.746 1.277-.563.32-1.219.59-1.969.809-.75.219-1.367.32-1.851.305h-1.032v-.891c.235-.063.5-.129.797-.2.297-.07.606-.155.926-.257a8.56 8.56 0 0 0 1.148-.48c.446-.22.887-.5 1.325-.844.437-.344.91-.82 1.418-1.43.507-.61.992-1.316 1.453-2.121.46-.805.91-1.75 1.347-2.836.438-1.086.727-1.941.868-2.566l.703-2.86zm-7.64-8.812c.03 1.375.1 2.48.21 3.316.11.836.29 1.668.54 2.496.25.828.57 1.52.96 2.074.39.555.832.922 1.324 1.102.492.18 1.051.238 1.676.176.5-.031.934-.125 1.3-.281a3.616 3.616 0 0 0 1.044-.692c.328-.305.578-.637.75-.996.172-.36.25-1.148.234-2.367a124.956 124.956 0 0 0-.164-4.254c-.078-1.398-.168-2.441-.27-3.129-.101-.687-.23-1.39-.386-2.11a13.852 13.852 0 0 0-.621-2.074 3.852 3.852 0 0 0-1.266-1.675c-.586-.453-1.16-.688-1.723-.703-.609 0-1.156.195-1.64.585-.485.391-.856.864-1.113 1.418a7.74 7.74 0 0 0-.575 1.805c-.125.649-.21 1.422-.257 2.32a37.297 37.297 0 0 0-.024 2.989zm24.444 8.812c-.421.453-.8.82-1.136 1.102-.336.281-.84.558-1.512.832-.672.273-1.297.402-1.875.387-.813 0-1.543-.204-2.191-.61a6.655 6.655 0 0 1-1.606-1.37c-.422-.509-.797-1.153-1.125-1.935-.328-.78-.574-1.687-.738-2.718-.164-1.032-.215-2.375-.153-4.031.079-1.547.239-2.915.48-4.102.243-1.188.532-2.117.868-2.79a9.88 9.88 0 0 1 1.184-1.839 7.546 7.546 0 0 1 1.71-1.512c.688-.453 1.493-.68 2.415-.68 1.062.016 1.941.297 2.636.844.696.547 1.243 1.063 1.641 1.547.399.485.793 1.16 1.184 2.028.39.867.71 1.87.96 3.011.25 1.14.422 2.203.516 3.188.094.984.14 2.125.14 3.422 0 1.297-.054 2.468-.163 3.515-.11.97-.266 1.88-.469 2.73-.203.852-.426 1.66-.668 2.427a22.038 22.038 0 0 1-.867 2.285 18.146 18.146 0 0 1-1.277 2.355c-.516.813-1.051 1.551-1.606 2.215a16.476 16.476 0 0 1-1.734 1.793c-.602.531-1.184.957-1.746 1.277-.563.32-1.22.59-1.97.809-.75.219-1.366.32-1.85.305h-1.032v-.891c.234-.063.5-.129.797-.2.297-.07.605-.155.926-.257a8.56 8.56 0 0 0 1.148-.48c.445-.22.887-.5 1.324-.844.438-.344.91-.82 1.418-1.43.508-.61.992-1.316 1.453-2.121.461-.805.91-1.75 1.348-2.836.438-1.086.727-1.941.867-2.566l.703-2.86zm-7.64-8.812c.031 1.375.101 2.48.21 3.316.11.836.29 1.668.54 2.496.25.828.57 1.52.96 2.074.391.555.833.922 1.325 1.102.492.18 1.05.238 1.676.176.5-.031.933-.125 1.3-.281a3.616 3.616 0 0 0 1.043-.692c.329-.305.579-.637.75-.996.172-.36.25-1.148.235-2.367a124.953 124.953 0 0 0-.164-4.254c-.078-1.398-.168-2.441-.27-3.129-.101-.687-.23-1.39-.386-2.11a13.852 13.852 0 0 0-.622-2.074 3.852 3.852 0 0 0-1.265-1.675c-.586-.453-1.16-.688-1.723-.703-.61 0-1.156.195-1.64.585-.485.391-.856.864-1.114 1.418a7.74 7.74 0 0 0-.574 1.805c-.125.649-.21 1.422-.258 2.32a37.297 37.297 0 0 0-.023 2.989zm17.625-11.016c.36.016.785.164 1.277.445.492.282.902.715 1.23 1.301.329.586.579 1.23.75 1.934.172.703.31 1.453.41 2.25.102.797.16 1.762.177 2.894.015 1.133-.07 2.38-.258 3.739-.125.859-.27 1.543-.434 2.05a8.948 8.948 0 0 1-.644 1.5c-.266.493-.621.95-1.067 1.371-.445.422-.957.633-1.535.633a1.998 1.998 0 0 1-1.43-.515 4.494 4.494 0 0 1-.996-1.266 10.02 10.02 0 0 1-.703-1.758c-.21-.687-.383-1.449-.515-2.285-.133-.836-.2-1.984-.2-3.445 0-1.461.086-2.692.258-3.692.11-.703.324-1.504.645-2.402.32-.898.73-1.582 1.23-2.05a2.545 2.545 0 0 1 1.805-.704zm0 16.875c.187 0 .386-.09.597-.27.211-.18.41-.546.598-1.101.188-.555.317-1.223.387-2.004.07-.781.11-1.992.117-3.633.008-1.64-.027-3.18-.105-4.617-.079-1.219-.211-2.094-.399-2.625-.187-.531-.379-.89-.574-1.078-.195-.188-.395-.29-.598-.305-.234 0-.469.114-.703.34-.234.227-.441.61-.621 1.149s-.3 1.246-.363 2.12a52.597 52.597 0 0 0-.106 3.329 58.048 58.048 0 0 0 .059 3.328c.031.844.086 1.621.164 2.332.078.71.2 1.312.363 1.805.164.492.352.824.563.996.21.172.418.25.62.234zm.094 18.984l13.195-35.882h1.148l-13.125 35.882h-1.218zm10.593-8.601c-.015-1 .047-2.027.188-3.082.14-1.055.375-2 .703-2.836.328-.836.742-1.504 1.242-2.004s1.078-.75 1.734-.75c.641.016 1.227.281 1.758.797.532.516.953 1.238 1.266 2.168.312.93.539 1.836.68 2.719.14.882.21 1.855.21 2.918a22.594 22.594 0 0 1-.222 2.964c-.133.899-.352 1.801-.656 2.708-.305.906-.746 1.636-1.325 2.19-.578.556-1.18.833-1.804.833a1.953 1.953 0 0 1-1.36-.469c-.39-.328-.757-.816-1.101-1.465-.344-.648-.645-1.511-.903-2.59-.257-1.078-.394-2.445-.41-4.101zm3.844 7.43c.188 0 .422-.11.703-.328.281-.22.504-.684.668-1.395.164-.711.262-1.55.293-2.52.031-.968.055-2.214.07-3.738.016-1.523-.039-2.855-.164-3.996-.078-.672-.183-1.195-.316-1.57a2.547 2.547 0 0 0-.563-.938c-.242-.25-.48-.375-.714-.375-.188.016-.391.121-.61.317-.219.195-.414.558-.586 1.09-.172.53-.3 1.265-.386 2.203a32.088 32.088 0 0 0-.141 2.601c-.008.797.012 1.774.059 2.93.046 1.312.109 2.297.187 2.953.078.656.2 1.207.363 1.652.164.446.356.746.575.903.218.156.406.226.562.21zm25.734-19.172v10.594c0 .453.098.855.293 1.207.196.351 1.2.511 3.012.48 2.266-.016 3.649-.285 4.149-.809.5-.523.898-1.285 1.195-2.285l.633-2.273.609-2.18c.047-.203.117-.305.211-.305.094.016.148.133.164.352l-.281 2.578c-.094.906-.14 1.668-.14 2.285 0 .617.062 1.067.187 1.348l.468.844c.172.343.262.699.27 1.066.008.367-.129.77-.41 1.207-.469.719-1.246 1.195-2.332 1.43-1.086.234-2.817.375-5.192.422-2.859.062-4.476-.426-4.851-1.465-.375-1.04-.563-1.91-.563-2.613v-11.649l-.093-3.75a.537.537 0 0 1 .093-.082c.016-.008.203.145.563.457l1.969 1.828h5.554V202.43h-8.297c-.547 0-.687-.203-.422-.61l.211-.61.235-.093h8.015l.844-1.383c.094-.156.16-.238.2-.246.038-.008.152.074.34.246l2.25 2.25c.093.11.152.18.175.211.023.032.031.07.023.118-.007.046-.058.124-.152.234l-.61.68v7.921l.094 3.282c-.062.28-.203.586-.421.914-.22.328-.637.496-1.254.504-.618.007-.973-.067-1.067-.223-.093-.156-.14-.375-.14-.656v-1.125h-5.532zm-4.195-8.836h-5.156v7.031h1.758l1.242-2.156c.156-.266.27-.403.34-.41.07-.008.168.082.293.27l1.992 2.976c.062.11.098.191.105.246.008.055.012.09.012.105a1.726 1.726 0 0 1-.059.188c-.023.062-.191.094-.503.094h-4.243c-.125.328-.214.53-.27.609-.054.078-.19.172-.41.281v6.07h1.876l.843-1.687c.188-.375.309-.55.364-.527.054.023.183.168.386.433l1.594 2.344c.11.156.172.262.188.316a.579.579 0 0 1 0 .235c-.016.101-.133.152-.352.152h-4.898l.023 10.992c.766.25 1.656.492 2.672.727 1.016.234 2.984.336 5.906.305 4.985-.032 8.383-.399 10.196-1.102l1.476-.563c.063-.015.14.008.234.07.094.063.13.141.106.235a.493.493 0 0 1-.129.235l-1.055 1.125c-.203.218-.418.539-.644.96a5.58 5.58 0 0 0-.504 1.29l-.281 1.148-.188.727c-.015.015-.125.023-.328.023h-.867c-1.25 0-3.531-.05-6.844-.152-3.312-.102-5.926-.344-7.84-.727-1.914-.383-3.476-1.195-4.687-2.437-1.211-1.243-2.074-2.84-2.59-4.793l-.867-3c-.766 2.797-1.336 4.754-1.711 5.87a44.636 44.636 0 0 1-1.008 2.755l-.469 1.148c-.078.188-.16.285-.246.293-.086.008-.137-.074-.152-.246a1.18 1.18 0 0 1 .023-.422l.375-1.476c.125-.5.324-1.547.598-3.141.273-1.594.48-2.906.621-3.938.14-1.03.277-2.41.41-4.136.133-1.727.215-2.88.246-3.457l.14-2.672a7.45 7.45 0 0 1 .048-.656c.015-.094.047-.149.093-.165l.211.118 2.883 1.476a.58.58 0 0 1 .188.176c.047.07.066.164.058.281-.007.117-.105.27-.293.457l-.492.516a740.318 740.318 0 0 1-1.148 5.719c.765 2.14 1.336 3.445 1.71 3.914l1.15 1.547v-17.25l-6.68-.024c-.172 0-.282-.11-.329-.328-.078-.64.047-.96.375-.96h6.633v-7.032h-5.742c-.266 0-.426-.211-.48-.633-.055-.422.105-.633.48-.633h5.742v-4.687l-.117-3.446c.031-.062.062-.101.094-.117l.257.117 3.047 1.243c.266.125.403.253.41.386.008.133-.074.293-.246.48l-.726.868v5.156h1.523l1.219-2.156c.078-.14.148-.215.211-.223.062-.008.164.082.305.27l2.156 2.93c.062.093.086.18.07.257-.015.125-.125.188-.328.188zM628.531 203.602h15.211l.867-1.454c.313-.5.536-.765.668-.796.133-.032.426.187.88.656l1.523 1.57c.39.438.586.742.586.914 0 .281-.125.422-.375.422h-9.141c-.39.547-.656.961-.797 1.242v2.578h4.899l.82-1.359c.297-.469.515-.707.656-.715.14-.008.43.23.867.715l1.22 1.406c.327.375.491.664.491.867-.015.22-.117.329-.304.329h-1.524v.046h-7.125v3.47h4.64l.915-1.5c.281-.438.469-.661.562-.669.094-.008.375.246.844.762l1.313 1.476c.343.391.515.68.515.868-.015.234-.125.351-.328.351h-8.46v3.61h7.593l.797-1.36c.344-.594.574-.894.691-.902.117-.008.363.191.738.598l1.547 1.687c.36.406.54.727.54.961 0 .219-.094.328-.282.328h-21.14v1.195c0 .375-.16.66-.481.856-.32.195-.719.297-1.195.305-.477.007-.754-.047-.832-.164-.078-.118-.125-.31-.14-.575l.093-4.289v-9.586c-2.031 2.828-3.297 4.532-3.797 5.11l-1.008 1.125c-.469.53-.773.78-.914.75-.14-.032-.21-.067-.21-.106v-.222c0-.094.054-.227.163-.399l.516-.773.89-1.43c.766-1.234 1.754-3.258 2.965-6.07 1.211-2.813 2.082-5.094 2.614-6.844l.586-1.969c.046-.203.082-.3.105-.293.023.008.121.059.293.153l2.953 1.921c.266.188.434.332.504.434.07.102.11.219.117.352.008.132-.176.285-.55.457l-.727.328-1.946 3.422.094.21zm6.703 9.89v-3.469h-6.797v3.47h6.797zm0-4.758v-3.82h-6.797v3.82h6.797zm0 9.657v-3.61h-6.797v3.61h6.797zm-6.187 15.82v1.805c0 .593-.274.972-.82 1.136-.547.164-.946.23-1.196.2-.234 0-.398-.051-.492-.153-.094-.101-.164-.285-.21-.55l.093-4.149v-5.93l-.094-3.656c.047-.094.086-.148.117-.164.032-.016.18.04.446.164l2.46 1.336h13.055l.703-1.219c.22-.39.38-.578.48-.562.102.015.317.164.645.445l1.5 1.336c.329.313.528.52.598.621.07.102.102.203.094.305-.008.101-.13.293-.364.574l-.632.727v5.343l.117 4.407c-.11.312-.277.582-.504.808-.227.227-.66.34-1.3.34-.345.016-.614-.047-.81-.188-.195-.14-.292-.304-.292-.492v-2.484h-13.594zm13.594-1.266v-7.406h-13.594v7.406h13.594zm-8.696-35.648c-.047-.063-.066-.176-.058-.34.008-.164.136-.254.386-.27.141 0 .524.04 1.149.118.625.078 1.23.297 1.816.656.586.36 1.024.828 1.313 1.406.289.578.433 1.188.433 1.828 0 .5-.14 1.067-.422 1.7-.28.632-.796.949-1.546.949a1.197 1.197 0 0 1-.938-.352c-.25-.25-.41-.512-.48-.785s-.118-.75-.141-1.43c-.023-.68-.117-1.238-.281-1.675a4.472 4.472 0 0 0-.621-1.149l-.61-.656zm32.297 36.187v3.258c0 .906-.617 1.383-1.851 1.43-.454.031-.73-.04-.832-.211a1.401 1.401 0 0 1-.176-.633l.117-4.969v-9.96l-.14-4.852c.093-.156.167-.238.222-.246.055-.008.207.074.457.246l2.203 1.687h10.336l.54-1.007c.327-.61.558-.91.69-.903.133.008.38.184.739.528l1.195 1.195c.375.39.61.656.703.797.094.14.137.265.13.375-.009.11-.13.32-.364.633l-.633.82v9.21l.117 5.11c-.093.313-.203.547-.328.703-.125.157-.36.297-.703.422a2.44 2.44 0 0 1-.96.164c-.657 0-.985-.304-.985-.914v-2.883h-10.477zm10.477-1.242v-11.695h-10.477v11.695h10.477zm-15.657-22.054h17.157l.937-1.735c.453-.875.742-1.293.867-1.254.125.04.305.192.54.457l1.875 2.297c.39.516.585.875.585 1.078 0 .282-.195.422-.586.422h-21.375c-.015.438-.027.754-.035.95-.007.195-.023 1.046-.047 2.554-.023 1.508-.128 3.438-.316 5.79-.187 2.35-.578 4.558-1.172 6.62-.594 2.063-1.258 3.824-1.992 5.285-.734 1.461-1.273 2.473-1.617 3.036l-.727 1.218c-.406.688-.695 1.016-.867.985-.125-.016-.187-.094-.187-.235 0-.14.015-.281.046-.422l.493-1.007.632-1.688a45.998 45.998 0 0 0 1.29-4.101c.406-1.516.761-3.461 1.066-5.836.305-2.375.473-4.403.504-6.082.031-1.68.047-3.254.047-4.723-.016-2.281-.028-4.137-.035-5.567-.008-1.43-.036-2.847-.082-4.253l-.165-4.57c-.015 0-.02-.032-.011-.095.008-.062.015-.113.023-.152a.107.107 0 0 1 .07-.082c.04-.016.184.04.434.164l2.649 1.524c2.171-.25 4.82-.864 7.945-1.84 3.125-.977 5.203-1.77 6.234-2.38l1.29-.75.187-.163c.062 0 .234.164.515.492l2.508 3.281c.235.313.344.547.328.703-.015.157-.054.235-.117.235l-2.062.187c-6.063.563-11.672.961-16.828 1.196v8.46zm50.274 11.625l.867-1.407c.125-.187.258-.289.399-.304.093 0 .257.101.492.304l1.898 1.711c.125.125.223.25.293.375.07.125.106.25.106.375s-.086.29-.258.492l-.703.868v9.046l.14 3.68a3.35 3.35 0 0 1-.28.692c-.11.195-.356.37-.74.527-.382.156-.737.226-1.066.21-.578 0-.867-.312-.867-.937v-2.343H702.5v1.84c0 .21-.023.386-.07.527-.094.234-.29.445-.586.633-.297.187-.672.28-1.125.28-.328.016-.555-.034-.68-.152a1.257 1.257 0 0 1-.305-.503l.118-3.985v-9.234l-.118-4.36a.566.566 0 0 1 .211-.175c.063-.024.32.12.774.433l1.968 1.406h8.649zm.281 6.82H702.5v5.18h9.117v-5.18zm0-1.29v-4.241H702.5v4.242h9.117zm-9.96-18.562l-.282-.75a.717.717 0 0 1-.082-.398c.008-.156.09-.25.246-.281.297-.032.918.449 1.863 1.441.946.992 1.418 1.96 1.418 2.906 0 .946-.125 1.653-.375 2.121-.297.578-.672.868-1.125.868-.468.015-.789-.196-.96-.633a4.008 4.008 0 0 1-.282-1.336l.024-1.875c0-.422-.036-.77-.106-1.043a9.636 9.636 0 0 0-.34-1.02zm-6.47.985v.023h-1.125v13.313l4.22-2.391c.359-.188.534-.149.527.117a.93.93 0 0 1-.27.656l-1.57 1.547-2.742 2.672-2.836 2.836-1.735 1.711a9.387 9.387 0 0 0-.586.621c-.093.117-.152.18-.175.188-.024.007-.13-.2-.317-.621l-1.312-3.282c-.172-.375-.25-.578-.235-.61a.858.858 0 0 1 .14-.163l4.313-1.875v-14.719h-4.265c-.282 0-.422-.21-.422-.633 0-.422.14-.633.422-.633h4.265v-6.492l-.117-5.648a.46.46 0 0 1 .094-.106c.016-.007.133.02.351.082l2.907.961a.674.674 0 0 1 .304.223c.079.102.122.21.13.328.007.117-.114.3-.364.55l-.726.774v9.328h.585l.938-1.851c.125-.235.23-.356.316-.363.086-.008.27.16.551.504l1.64 2.085v-2.742l-.093-3.422c.063-.109.117-.172.164-.187.047-.016.227.07.54.258l2.741 1.734h7.313c.75-2.531 1.265-4.367 1.547-5.508l.562-2.39c.172-.688.266-1.028.281-1.02.016.008.172.113.47.316L714.43 198c.234.188.351.375.351.563 0 .218-.14.375-.422.468l-.75.281c-.953 1.516-2.132 3.258-3.539 5.227h3.375l.774-1.36c.156-.28.27-.429.34-.445.07-.015.23.086.48.305l2.133 2.016c.11.11.187.203.234.28a.355.355 0 0 1 .059.224c-.008.07-.035.175-.082.316-.047.14-.117.266-.211.375l-.727.82v7.078l.14 3.797c-.202.563-.507.926-.913 1.09-.406.164-.742.238-1.008.223-.328 0-.574-.098-.738-.293a1.041 1.041 0 0 1-.246-.692v-1.195h-12.961v1.336c0 .172-.114.41-.34.715-.227.305-.7.45-1.418.434-.36 0-.606-.075-.738-.223-.133-.149-.23-.356-.293-.621l.164-4.758v-4.195h-2.907zm18.493-3.914h-4.805c-.14.28-.312.539-.516.773v8.156a150.35 150.35 0 0 0 1.43-4.36l.656-2.108.328-1.29c.032-.03.188.079.47.329l1.921 1.78c.11.11.215.263.316.458.102.195-.003.379-.316.55l-.633.376c-2.36 3.078-3.718 4.836-4.078 5.273h5.227v-9.937zm-7.922 0h-5.04v9.937h5.04v-9.937zm-4.711-8.18l-.61-.82c-.093-.094-.14-.172-.14-.235v-.14c.015-.188.125-.29.328-.305.344-.016 1.047.285 2.11.902 1.062.617 1.824 1.367 2.285 2.25.46.883.69 1.66.69 2.332 0 .61-.151 1.207-.456 1.793-.305.586-.738.88-1.3.88-.423.015-.747-.153-.974-.505-.226-.351-.402-.855-.527-1.512l-.375-2.109c-.25-1.062-.594-1.906-1.031-2.531zm30.984 37.055v-20.86l-.117-5.906c.078-.11.145-.168.2-.176.054-.008.23.106.527.34l2.109 1.664h2.672l.14-5.883h-7.851l-.094-.047-.047-.047c-.14-.156-.23-.39-.27-.703-.038-.312.13-.468.505-.468h7.758v-2.485l-.118-3.867c.063-.125.106-.195.13-.21.023-.017.19.015.503.093l3.211.867c.406.125.606.293.598.504-.008.21-.098.41-.27.598l-.82.82-.164 3.68h5.039l1.289-2.344c.203-.344.348-.524.434-.54.085-.015.253.118.503.4l1.922 2.366c.282.36.422.664.422.915 0 .312-.14.468-.422.468h-9.258l-.304 5.883h3.023l.867-1.57c.22-.407.356-.614.41-.621.055-.008.31.199.762.62l2.04 1.923c.171.187.261.367.269.539a.57.57 0 0 1-.176.445l-.96.938v22.664h.468l1.312-2.485c.125-.234.25-.36.375-.375.094 0 .266.164.516.492l1.852 2.672c.109.172.175.293.199.364.023.07.039.148.047.234.008.086-.04.176-.14.27a.517.517 0 0 1-.364.14h-22.196l-.351-.14c-.11-.157-.184-.391-.223-.704-.039-.312.121-.468.48-.468h3.563zm11.508 0v-5.532h-8.695v5.532h8.695zm0-23.649h-8.695v4.617h8.695v-4.617zm0 6.164h-8.695v4.547h8.695v-4.547zm0 5.86h-8.695v4.804h8.695v-4.804zm-14.39-23.18c-1.25 3.656-1.961 5.719-2.133 6.187l-.891 2.297 1.758.89c.14.079.246.153.316.224.07.07.11.125.117.164a.885.885 0 0 1-.011.234c-.016.117-.094.27-.235.457l-.539.727v21.046l.07 4.477c-.328.844-.824 1.297-1.488 1.36-.664.062-1.062.007-1.195-.165a2.001 2.001 0 0 1-.316-.632l.164-6.352v-18.89a117.44 117.44 0 0 1-1.864 3.609c-.68 1.265-1.129 2.078-1.347 2.437l-.89 1.43c-.11.172-.204.25-.282.234-.031 0-.067-.02-.106-.058-.039-.04-.058-.114-.058-.223 0-.11.023-.234.07-.375l.75-1.969c.5-1.36 1.125-3.383 1.875-6.07.75-2.688 1.32-4.95 1.711-6.785.39-1.836.656-3.223.797-4.16l.492-3.024.164-.96c.031-.048.059-.067.082-.06a.26.26 0 0 0 .082.012l.516.352 3.21 1.898c.329.22.493.43.493.633s-.125.375-.375.516l-.938.539zm35.156 5.18l.75-1.5c.156-.313.277-.473.363-.48.086-.009.27.105.55.339l2.274 2.039c.406.375.61.664.61.867-.016.219-.164.414-.446.586l-.89.586a112.956 112.956 0 0 1-1.828 3.492 65.39 65.39 0 0 1-2.016 3.352l.562.375c.078.078.133.144.164.199a.396.396 0 0 1 .047.2c0 .077-.086.202-.258.374l-.421.446.023.28c2.39.266 3.887.891 4.488 1.876.602.984.907 1.8.914 2.449.008.648-.097 1.191-.316 1.629-.344.734-.812 1.094-1.406 1.078a.949.949 0 0 1-.469-.117 1.413 1.413 0 0 1-.422-.399c-.14-.187-.273-.554-.398-1.101l-.446-1.758c-.203-.64-.441-1.184-.714-1.629-.274-.445-.684-.879-1.23-1.3l-.024 16.663.117 2.625c-.047.25-.16.547-.34.891-.18.344-.586.535-1.219.574-.633.04-1.008-.004-1.125-.129-.117-.125-.207-.304-.27-.539l.118-5.437v-13.664a58.408 58.408 0 0 1-2.649 3.129c-.968 1.07-1.671 1.793-2.109 2.168l-.984.89c-.22.188-.356.23-.41.13a.45.45 0 0 1-.047-.317c.023-.11.066-.219.129-.328l.984-1.336c.594-.828 1.27-1.813 2.027-2.953.758-1.141 1.735-2.93 2.93-5.368a83.648 83.648 0 0 0 3.27-7.617h-8.977c-.266 0-.399-.21-.399-.633 0-.422.133-.632.399-.632h9.094zm10.78-5.72v31.126c0 .531.15.89.446 1.078.297.187.867.266 1.711.234 1.766-.03 2.875-.254 3.328-.668.453-.414.832-.996 1.137-1.746.305-.75.543-1.453.715-2.11l.844-3.327a.8.8 0 0 1 .187-.41c.094-.102.164-.082.211.058.047.14.066.242.059.305a1.713 1.713 0 0 0-.012.21l-.445 3.727c-.11.875-.164 1.47-.164 1.782 0 .312.039.609.117.89.078.282.195.61.351.985.157.375.246.632.27.773.023.14.035.297.035.469-.016.484-.312 1.113-.89 1.887-.579.773-2.383 1.167-5.415 1.183-2.843.031-4.449-.367-4.816-1.195-.367-.828-.55-1.735-.55-2.719v-28.992l-.165-6.68a.66.66 0 0 1 .176-.14c.039-.016.23.039.574.164l3.047 1.101c.14.063.238.133.293.211a.489.489 0 0 1 .094.223c.007.07-.02.176-.082.316-.063.14-.141.258-.235.352l-.82.914zm-15.843-2.343l-.375-.586c-.078-.094-.117-.226-.117-.398 0-.172.14-.243.422-.211.656.094 1.59.492 2.8 1.195 1.212.703 1.81 1.898 1.794 3.586-.016.64-.192 1.281-.528 1.922-.336.64-.84.96-1.511.96-.485.016-.856-.187-1.114-.609-.258-.421-.418-1-.48-1.734l-.117-1.594a7.515 7.515 0 0 0-.153-1.148c-.086-.422-.293-.883-.62-1.383zm50.742 5.461l.844-1.617c.156-.313.285-.473.387-.48.101-.008.34.152.715.48l2.343 2.156c.125.125.215.242.27.352.055.109.086.234.094.375.008.14-.09.312-.293.515l-.844.82a284.421 284.421 0 0 0-.023 3.024l-.047 4.922a125.769 125.769 0 0 1-.246 6.469c-.133 2.03-.438 3.691-.914 4.98-.477 1.29-1.079 2.215-1.805 2.777-.727.563-1.356.961-1.887 1.196-.531.234-.867.344-1.008.328-.078 0-.136-.016-.175-.047a.596.596 0 0 1-.13-.176c-.046-.086-.113-.336-.199-.75-.086-.414-.207-.86-.363-1.336-.156-.476-.43-.832-.82-1.066l-1.406-.774c-.141-.062-.204-.187-.188-.375 0-.218.11-.328.328-.328h1.5c1.219 0 2.13-.273 2.73-.82.602-.547.985-1.863 1.15-3.95.163-2.085.253-3.823.269-5.214.015-1.39.023-3.758.023-7.102v-3.14h-13.734c-.094.187-.383.758-.867 1.71-.485.954-1.133 2.157-1.946 3.61l2.39 1.43h6l.798-1.57c.125-.235.222-.348.293-.34.07.007.23.12.48.34l2.18 2.015c.078.094.148.184.21.27a.529.529 0 0 1 .106.27c.008.093-.05.194-.176.304l-.843.82v5.297l.117 3.89c-.063.298-.149.532-.258.704-.11.172-.328.355-.656.55-.328.196-.727.286-1.196.27-.28 0-.503-.074-.667-.223a.739.739 0 0 1-.247-.574v-1.008h-6.14v8.836c0 .688.047 1.145.14 1.371.094.227.57.582 1.43 1.067.86.484 3.383.719 7.57.703 4.391 0 7.07-.379 8.04-1.137.968-.758 1.593-1.426 1.875-2.004.28-.578.585-1.398.914-2.46l1.054-3.493c.094-.312.219-.469.375-.469.094.016.153.09.176.223.023.133.04.242.047.328a2.04 2.04 0 0 1-.012.363l-.515 3.586c-.172 1.204-.247 2-.223 2.391.023.39.172.797.445 1.219.274.422.438.71.492.867.055.156.086.36.094.61.008.25-.05.523-.176.82-.422.937-1.484 1.683-3.187 2.238-1.703.555-4.688.84-8.953.855a46.617 46.617 0 0 1-5.508-.28c-1.844-.204-3.27-.473-4.277-.81-1.008-.335-1.68-.882-2.016-1.64-.336-.758-.504-1.684-.504-2.777v-22.102c-1.25 1.953-2.258 3.438-3.023 4.453l-1.196 1.547c-.203.281-.34.371-.41.27a.658.658 0 0 1-.117-.34c-.008-.125.043-.297.152-.516l.961-2.016c.625-1.312 1.04-2.199 1.242-2.66.204-.46.598-1.449 1.184-2.964.586-1.516.988-2.59 1.207-3.223.219-.633.59-1.774 1.113-3.422.524-1.648.856-2.73.996-3.246l.493-1.969.234-1.008c.047-.047.086-.066.117-.058.031.008.172.074.422.199l3.469 1.922c.14.078.246.176.316.293.07.117.106.234.106.351 0 .118-.203.285-.61.504l-1.03.586c-.767 1.688-1.407 3.024-1.923 4.008h12.867zm-7.71 17.719v-8.461h-6.141v8.46h6.14zM316.582 55.777v.963c-1.395.222-2.523.493-3.387.814-.863.32-1.815.907-2.855 1.76-1.04.852-1.904 1.676-2.59 2.473a24.795 24.795 0 0 0-2.025 2.74 22.152 22.152 0 0 0-1.76 3.336c-.51 1.196-.852 2.158-1.03 2.889l-1.294 4.914c1.15-.863 2.064-1.489 2.739-1.876.675-.387 1.466-.72 2.374-.996a7.066 7.066 0 0 1 2.756-.282 6.428 6.428 0 0 1 2.34.747c.764.41 1.484.985 2.159 1.726a9.678 9.678 0 0 1 1.61 2.374c.399.842.742 1.86 1.03 3.055.287 1.195.47 2.407.547 3.636.078 1.228.083 2.518.017 3.868a35.12 35.12 0 0 1-.482 4.549 25.961 25.961 0 0 1-1.128 4.283c-.499 1.395-1.13 2.584-1.893 3.57a9.27 9.27 0 0 1-2.74 2.39c-1.062.609-2.39.88-3.984.813-1.24-.044-2.296-.287-3.17-.73a9.292 9.292 0 0 1-2.424-1.793 14.262 14.262 0 0 1-1.943-2.457c-.553-.885-1.068-2.114-1.544-3.686a31.328 31.328 0 0 1-1.046-4.714c-.221-1.572-.348-3.498-.381-5.778-.034-2.28.038-4.194.215-5.744.133-1.284.377-2.656.73-4.117.355-1.461.726-2.745 1.113-3.852a31.152 31.152 0 0 1 1.444-3.42c.576-1.173 1.329-2.374 2.258-3.602a29.607 29.607 0 0 1 3.005-3.403 16.696 16.696 0 0 1 3.403-2.574c1.196-.675 2.38-1.167 3.553-1.477 1.173-.31 1.97-.454 2.39-.432l1.993.033zm-8.898 46.086c1.018-.199 1.82-.459 2.407-.78.586-.321 1.068-.802 1.444-1.444.376-.642.659-1.406.847-2.291.188-.886.326-1.843.415-2.872.088-1.03.138-2.308.15-3.835a63.638 63.638 0 0 0-.15-4.748c-.11-1.572-.299-2.961-.565-4.167-.265-1.207-.642-2.242-1.128-3.105-.487-.863-1.102-1.56-1.843-2.092-.742-.531-1.61-.808-2.607-.83-1.394 0-2.49.343-3.287 1.03l-2.258 1.726a435.72 435.72 0 0 0-.166 3.586 54.61 54.61 0 0 0-.033 3.32c0 1.262.055 2.623.166 4.084.11 1.461.305 2.867.581 4.217.277 1.35.609 2.557.996 3.62.388 1.062.814 1.908 1.279 2.54.464.63.957 1.084 1.477 1.36.52.277 1.278.504 2.275.681zm13.015-23.408c0-1.749.105-3.669.316-5.76.21-2.092.492-3.885.846-5.38a29.928 29.928 0 0 1 1.378-4.333c.565-1.394 1.234-2.645 2.009-3.752.775-1.106 1.61-1.992 2.507-2.656.896-.664 1.987-1.007 3.27-1.03.952 0 1.821.206 2.607.615.786.41 1.538 1.018 2.258 1.826s1.405 1.821 2.058 3.038a22.974 22.974 0 0 1 1.644 3.918c.443 1.395.802 3.15 1.079 5.263.277 2.114.448 4.19.515 6.226a98.845 98.845 0 0 1 0 6.275c-.067 2.258-.205 4.2-.415 5.827-.21 1.627-.493 3.05-.847 4.267a27.048 27.048 0 0 1-1.428 3.768c-.598 1.295-1.25 2.419-1.959 3.37a11.91 11.91 0 0 1-2.474 2.474c-.94.697-2.008 1.024-3.204.98-.84-.023-1.687-.272-2.54-.747a8.628 8.628 0 0 1-2.324-1.926c-.697-.808-1.334-1.76-1.91-2.856a26.675 26.675 0 0 1-1.543-3.586c-.454-1.295-.825-2.877-1.112-4.748a60.11 60.11 0 0 1-.598-5.694 76.373 76.373 0 0 1-.133-5.379zm10.393 22.91a3.209 3.209 0 0 0 1.776-.58c.52-.366 1.024-.936 1.51-1.71.488-.776.875-1.644 1.163-2.607.288-.963.515-2.446.68-4.45.167-2.003.283-4.056.35-6.159.066-2.103.099-4.393.099-6.873-.044-2.656-.11-5.019-.2-7.089-.088-2.07-.199-3.68-.331-4.83a40.57 40.57 0 0 0-.648-3.819c-.299-1.394-.664-2.501-1.095-3.32-.432-.82-.93-1.434-1.495-1.843-.564-.41-1.134-.625-1.71-.648-.686 0-1.328.233-1.925.698-.598.465-1.146 1.095-1.644 1.892a10.9 10.9 0 0 0-1.195 2.723c-.3 1.018-.554 2.319-.764 3.901a48.841 48.841 0 0 0-.398 4.665c-.056 1.528-.072 4.206-.05 8.036.022 3.807.077 6.613.166 8.417.088 1.804.277 3.619.564 5.445.288 1.826.675 3.409 1.162 4.748.487 1.34 1.063 2.252 1.727 2.74a3.404 3.404 0 0 0 2.258.663zm20.818 8.567l.863-1.13c.111-.132.366-.553.764-1.261.399-.708.67-1.228.814-1.56.143-.333.348-.974.614-1.926.265-.952.337-1.65.216-2.092-.122-.443-.26-.708-.415-.797-.089-.022-.288.033-.598.166s-.576.188-.797.166c-.863-.044-1.544-.443-2.042-1.195-.498-.753-.747-1.738-.747-2.955 0-1.218.31-2.27.93-3.155.62-.885 1.405-1.328 2.357-1.328 1.173.045 2.07.614 2.69 1.71a8.402 8.402 0 0 1 1.079 3.503c.1 1.24.072 2.435-.083 3.586-.244 1.682-.659 3.154-1.245 4.416-.587 1.262-1.118 2.186-1.594 2.773a27.217 27.217 0 0 1-1.494 1.693c-.52.542-.919.77-1.196.68-.276-.088-.415-.26-.415-.514 0-.255.1-.515.3-.78zm16.37-31.477c0-1.749.104-3.669.315-5.76.21-2.092.492-3.885.846-5.38a29.928 29.928 0 0 1 1.378-4.333c.565-1.394 1.234-2.645 2.01-3.752.774-1.106 1.61-1.992 2.506-2.656.896-.664 1.987-1.007 3.27-1.03.952 0 1.821.206 2.607.615.786.41 1.538 1.018 2.258 1.826s1.405 1.821 2.058 3.038a22.974 22.974 0 0 1 1.644 3.918c.443 1.395.802 3.15 1.079 5.263.277 2.114.448 4.19.515 6.226a98.844 98.844 0 0 1 0 6.275c-.067 2.258-.205 4.2-.415 5.827-.21 1.627-.493 3.05-.847 4.267a27.048 27.048 0 0 1-1.428 3.768c-.597 1.295-1.25 2.419-1.959 3.37a11.91 11.91 0 0 1-2.473 2.474c-.941.697-2.01 1.024-3.205.98-.84-.023-1.687-.272-2.54-.747a8.628 8.628 0 0 1-2.324-1.926c-.697-.808-1.333-1.76-1.909-2.856a26.675 26.675 0 0 1-1.544-3.586c-.454-1.295-.824-2.877-1.112-4.748a60.11 60.11 0 0 1-.598-5.694 76.373 76.373 0 0 1-.133-5.379zm10.392 22.91a3.209 3.209 0 0 0 1.776-.58c.52-.366 1.024-.936 1.511-1.71.487-.776.874-1.644 1.162-2.607.288-.963.515-2.446.68-4.45.167-2.003.283-4.056.35-6.159.066-2.103.099-4.393.099-6.873-.044-2.656-.11-5.019-.2-7.089-.088-2.07-.198-3.68-.331-4.83a40.57 40.57 0 0 0-.648-3.819c-.299-1.394-.664-2.501-1.095-3.32-.432-.82-.93-1.434-1.495-1.843-.564-.41-1.134-.625-1.71-.648-.686 0-1.328.233-1.925.698-.598.465-1.146 1.095-1.644 1.892a10.9 10.9 0 0 0-1.195 2.723c-.299 1.018-.554 2.319-.764 3.901a48.841 48.841 0 0 0-.398 4.665c-.056 1.528-.072 4.206-.05 8.036.022 3.807.077 6.613.166 8.417.088 1.804.277 3.619.564 5.445.288 1.826.676 3.409 1.163 4.748.486 1.34 1.062 2.252 1.726 2.74a3.404 3.404 0 0 0 2.258.663zm13.38-22.91c0-1.749.106-3.669.316-5.76.21-2.092.493-3.885.847-5.38a29.928 29.928 0 0 1 1.378-4.333c.564-1.394 1.234-2.645 2.009-3.752.774-1.106 1.61-1.992 2.506-2.656.897-.664 1.987-1.007 3.27-1.03.953 0 1.822.206 2.607.615.786.41 1.539 1.018 2.258 1.826.72.808 1.406 1.821 2.059 3.038a22.974 22.974 0 0 1 1.643 3.918c.443 1.395.803 3.15 1.08 5.263.276 2.114.448 4.19.514 6.226a98.844 98.844 0 0 1 0 6.275c-.066 2.258-.205 4.2-.415 5.827-.21 1.627-.492 3.05-.847 4.267a27.048 27.048 0 0 1-1.427 3.768c-.598 1.295-1.251 2.419-1.96 3.37a11.91 11.91 0 0 1-2.473 2.474c-.94.697-2.009 1.024-3.204.98-.841-.023-1.688-.272-2.54-.747a8.628 8.628 0 0 1-2.324-1.926c-.698-.808-1.334-1.76-1.91-2.856a26.675 26.675 0 0 1-1.543-3.586c-.454-1.295-.825-2.877-1.113-4.748a60.11 60.11 0 0 1-.597-5.694 76.373 76.373 0 0 1-.133-5.379zm10.393 22.91a3.209 3.209 0 0 0 1.777-.58c.52-.366 1.023-.936 1.51-1.71.487-.776.875-1.644 1.163-2.607.287-.963.514-2.446.68-4.45.166-2.003.282-4.056.349-6.159.066-2.103.1-4.393.1-6.873a274.99 274.99 0 0 0-.2-7.089c-.088-2.07-.199-3.68-.332-4.83a40.57 40.57 0 0 0-.647-3.819c-.3-1.394-.664-2.501-1.096-3.32-.432-.82-.93-1.434-1.494-1.843-.565-.41-1.135-.625-1.71-.648-.686 0-1.328.233-1.926.698-.598.465-1.145 1.095-1.643 1.892a10.9 10.9 0 0 0-1.196 2.723c-.299 1.018-.553 2.319-.763 3.901a48.841 48.841 0 0 0-.399 4.665c-.055 1.528-.072 4.206-.05 8.036.022 3.807.078 6.613.166 8.417.089 1.804.277 3.619.565 5.445.288 1.826.675 3.409 1.162 4.748.487 1.34 1.062 2.252 1.726 2.74a3.404 3.404 0 0 0 2.258.663zm13.381-22.91c0-1.749.105-3.669.316-5.76.21-2.092.492-3.885.846-5.38a29.928 29.928 0 0 1 1.378-4.333c.565-1.394 1.234-2.645 2.009-3.752.775-1.106 1.61-1.992 2.507-2.656.896-.664 1.986-1.007 3.27-1.03.952 0 1.821.206 2.607.615.786.41 1.538 1.018 2.258 1.826.719.808 1.405 1.821 2.058 3.038a22.974 22.974 0 0 1 1.644 3.918c.442 1.395.802 3.15 1.079 5.263.277 2.114.448 4.19.514 6.226a98.844 98.844 0 0 1 0 6.275c-.066 2.258-.204 4.2-.415 5.827-.21 1.627-.492 3.05-.846 4.267a27.048 27.048 0 0 1-1.428 3.768c-.598 1.295-1.25 2.419-1.959 3.37a11.91 11.91 0 0 1-2.474 2.474c-.94.697-2.008 1.024-3.204.98-.84-.023-1.687-.272-2.54-.747a8.628 8.628 0 0 1-2.324-1.926c-.697-.808-1.334-1.76-1.91-2.856a26.675 26.675 0 0 1-1.543-3.586c-.454-1.295-.825-2.877-1.112-4.748a60.11 60.11 0 0 1-.598-5.694 76.373 76.373 0 0 1-.133-5.379zm10.393 22.91a3.209 3.209 0 0 0 1.776-.58c.52-.366 1.024-.936 1.51-1.71.488-.776.875-1.644 1.163-2.607.288-.963.515-2.446.68-4.45.167-2.003.283-4.056.35-6.159.066-2.103.099-4.393.099-6.873-.044-2.656-.11-5.019-.2-7.089-.088-2.07-.199-3.68-.331-4.83a40.57 40.57 0 0 0-.648-3.819c-.299-1.394-.664-2.501-1.096-3.32-.431-.82-.93-1.434-1.494-1.843-.564-.41-1.134-.625-1.71-.648-.686 0-1.328.233-1.925.698-.598.465-1.146 1.095-1.644 1.892a10.9 10.9 0 0 0-1.195 2.723c-.3 1.018-.554 2.319-.764 3.901a48.841 48.841 0 0 0-.398 4.665c-.056 1.528-.072 4.206-.05 8.036.022 3.807.077 6.613.166 8.417.088 1.804.277 3.619.564 5.445.288 1.826.675 3.409 1.162 4.748.487 1.34 1.063 2.252 1.727 2.74a3.404 3.404 0 0 0 2.258.663zm16.07-27.426c-.221-.044-.382-.127-.481-.249-.1-.121-.155-.415-.166-.88-.011-.464.204-.697.647-.697h33.004l2.557-4.217c.132-.22.26-.337.381-.348.122-.011.338.171.648.548l3.287 4.216c.332.443.498.775.498.997a.795.795 0 0 1-.2.448.52.52 0 0 1-.398.182h-15.14l3.353 1.926c.244.155.41.294.498.415a.61.61 0 0 1 .117.415c-.012.155-.183.388-.515.698l-1.096 1.029v22.81c0 .997.083 1.75.25 2.258.165.51 1.112.742 2.838.698 2.28-.045 3.818-.266 4.615-.665.797-.398 1.434-1.1 1.91-2.108a34.695 34.695 0 0 0 1.344-3.304l1.694-4.88c.132-.421.31-.631.53-.631.112.022.195.121.25.298.055.178.077.31.066.399-.01.088-.016.2-.016.332L481.7 98.94c-.088.443-.138 1.04-.15 1.793-.01.753.084 1.362.283 1.827.066.177.255.498.564.962.31.465.487.814.532 1.046.044.233.072.454.083.664a2.16 2.16 0 0 1-.083.681c-.288 1.218-1.262 2.241-2.922 3.071-1.66.83-3.951 1.212-6.873 1.146-2.568-.022-4.466-.293-5.695-.814-1.228-.52-1.942-1.2-2.141-2.042-.2-.84-.299-1.815-.299-2.921V73.939h-8.533l3.054 1.561c.487.266.731.576.731.93a1.034 1.034 0 0 1-.365.697l-1.229 1.096c-.11 1.527-.216 3.099-.315 4.715-.1 1.615-.244 3.42-.432 5.412s-.553 4.1-1.096 6.325c-.542 2.224-1.61 4.543-3.204 6.956-1.593 2.413-5.113 4.803-10.558 7.172l-1.893.83c-.155.066-.288.06-.398-.017-.111-.077-.172-.227-.183-.448-.011-.221.083-.41.282-.564l1.926-1.295c.62-.421 1.843-1.406 3.67-2.955 1.825-1.55 3.28-3.46 4.365-5.728 1.085-2.269 1.843-4.466 2.275-6.59.431-2.126.725-4.594.88-7.405.155-2.811.243-5.246.265-7.305V73.94H442.29zm27.691-16.867l2.457-4.017c.2-.332.388-.51.565-.532.155 0 .343.133.564.399l3.387 4.15c.221.31.354.543.399.698.044.154.066.276.066.365v.166c-.044.31-.266.465-.664.465h-30.016c-.332 0-.509-.283-.531-.847-.022-.565.155-.847.531-.847h23.242zM190.297 76.786l.964-1.743c.287-.533.482-.796.584-.79.103.007.332.202.687.585l1.477 1.723c.41.464.615.8.615 1.004-.014.233-.123.35-.328.35h-3.548c-.068.314-.144.512-.226.594l-.164.143-.225.308v28.28c0 .438-.065.875-.195 1.313-.13.437-.567.82-1.313 1.148-.745.328-1.432.5-2.06.513-.11.014-.189 0-.236-.041a.414.414 0 0 1-.113-.205 6.665 6.665 0 0 1-.113-.728c-.048-.39-.202-.807-.461-1.251-.26-.445-.568-.762-.923-.954l-1.087-.554c-.123-.04-.205-.102-.246-.184a.673.673 0 0 1-.072-.246c-.007-.082.027-.154.103-.216a.318.318 0 0 1 .256-.071l1.6.246c1.203.191 1.9.178 2.091-.041.15-.164.226-.41.226-.739V77.914h-18.642c-.232 0-.348-.188-.348-.564 0-.376.116-.564.348-.564h21.349zm-15.401 19.647v3.65c0 .438-.233.731-.698.882-.465.15-.793.212-.984.184-.178-.013-.308-.065-.39-.153-.082-.09-.15-.27-.205-.544l.103-4.532v-8.244l-.103-4.553c.055-.096.096-.15.123-.164.028-.014.198.082.513.287l1.743 1.149h5.045l.574-1.005c.219-.356.38-.537.482-.544.103-.007.297.127.585.4l1.148 1.149c.246.26.4.44.461.543a.594.594 0 0 1 .093.308c0 .102-.11.276-.328.523l-.513.594v8.142l.123 3.896c-.055.301-.13.534-.226.698-.095.164-.331.29-.707.379-.376.089-.64.126-.79.113-.506 0-.758-.267-.758-.8v-2.358h-5.291zm5.29-1.108v-9.823h-5.29v9.823h5.29zm29.327 4.102V98.34l-.082-3.035a.522.522 0 0 1 .123-.123l.471.205 2.728 1.169c.766-.903 1.442-1.706 2.03-2.41.588-.704.923-1.104 1.005-1.2h-14.807c-.232 0-.338-.174-.317-.523.02-.348.126-.523.317-.523h15.402l1.107-1.128c.123-.123.226-.184.308-.184.068.014.191.13.369.349l2.235 2.768c.123.15.178.345.164.585-.013.239-.246.358-.697.358h-.984c-.834.383-1.73.8-2.687 1.251-.957.452-1.962.896-3.014 1.333-.301.397-.616.766-.944 1.108v1.087h7.465l1.518-2.482c.095-.15.18-.236.256-.256.075-.02.229.092.461.338l2.195 2.461c.095.123.167.236.215.339a.665.665 0 0 1 .072.277c0 .082-.045.17-.133.266a.399.399 0 0 1-.298.144h-11.75v7.28c0 .52-.086.995-.257 1.425-.171.43-.653.851-1.446 1.261-.793.41-1.38.595-1.764.554-.15 0-.235-.02-.256-.061a.94.94 0 0 1-.051-.123 3.446 3.446 0 0 1-.051-.462c-.021-.266-.106-.588-.257-.964a3.271 3.271 0 0 0-.523-.912c-.198-.233-.489-.472-.871-.718l-1.005-.636c-.219-.123-.322-.28-.308-.471.014-.22.171-.315.472-.288l1.23.164c.205.028.598.045 1.18.052.58.007.902-.045.963-.154.062-.11.113-.24.154-.39.041-.15.062-.266.062-.348v-5.21h-11.198c-.218 0-.341-.18-.369-.543-.027-.362.096-.543.37-.543h11.197zm9.7-21.123l1.394-2.42c.123-.205.24-.315.35-.328.095 0 .245.109.45.328l2.297 2.563c.082.11.144.216.185.318a.987.987 0 0 1 .071.256c.007.069-.04.15-.143.247a.535.535 0 0 1-.38.143h-24.773c-.219 0-.342-.184-.37-.554-.026-.369.097-.553.37-.553h10.972a2.602 2.602 0 0 1-.277-.277 1.948 1.948 0 0 1-.215-.37c-.082-.17-.123-.522-.123-1.055v-.698a9.055 9.055 0 0 0-.103-1.056 2.36 2.36 0 0 0-.39-.974l-.553-.8a.572.572 0 0 1-.093-.195 9.061 9.061 0 0 1-.04-.153c-.008-.028.003-.055.03-.082.027-.11.144-.165.349-.165.724.014 1.425.247 2.102.698.677.45 1.176.936 1.497 1.456.321.52.482 1.087.482 1.702-.014.533-.1.933-.257 1.2a7.252 7.252 0 0 1-.523.769h7.69zm-3.015 10.11H205.76v1.148c0 .165-.103.397-.308.698-.205.3-.57.458-1.097.471-.526.014-.837-.037-.933-.153a1.082 1.082 0 0 1-.205-.482l.123-2.933v-3.445l-.123-3.015c.054-.068.099-.11.133-.123.034-.014.181.055.441.205l2.235 1.374h9.947l.881-1.169c.137-.191.236-.307.298-.348.061-.041.167.006.318.143l2.133 2.174c.123.137.201.24.235.308a.63.63 0 0 1 .062.235c.007.09-.072.223-.236.4l-.78.841v1.866l.083 2.38c-.164.491-.482.816-.954.973-.471.158-.837.23-1.097.216-.479 0-.718-.253-.718-.76v-1.004zm-10.438-5.106v4.02h10.438v-4.02H205.76zm33.817 6.05l-.369.615v11.135l1.99-.656c.163-.055.249.017.256.215a.45.45 0 0 1-.257.441l-1.989 1.149v6.152c1.559-1.285 2.646-2.345 3.26-3.179a55.299 55.299 0 0 0 1.641-2.337 31.938 31.938 0 0 1-.83-1.815c-.212-.513-.438-1.217-.677-2.113a29.321 29.321 0 0 1-.502-2.122c-.096-.52-.185-1.06-.267-1.62-.082-.56-.13-.944-.144-1.149h-1.538c-.205 0-.338-.167-.4-.502-.061-.335.086-.55.441-.646h7.363l.758-1.23c.137-.22.223-.315.257-.288.034.028.16.15.38.37l1.865 2.01c.123.15.185.29.185.42s-.096.256-.287.379l-.697.513c-.657 1.845-1.186 3.233-1.59 4.163-.403.93-.92 1.975-1.548 3.137.615.643 1.45 1.262 2.502 1.856 1.053.595 2.14.96 3.26 1.098l.616.082c.137.027.208.123.215.287.007.164-.051.28-.174.348l-.513.308-.677.369c-.45.3-.875.759-1.271 1.374l-.451.78c-.123.19-.216.29-.277.297-.062.007-.147-.058-.256-.195-.123-.11-.41-.338-.862-.687-.45-.349-1.042-.875-1.774-1.58a22.834 22.834 0 0 1-2-2.183 24.257 24.257 0 0 1-2.624 2.389c-.903.704-2.01 1.432-3.322 2.184a2.118 2.118 0 0 1-.062.39c-.027.095-.178.239-.451.43-.274.192-.646.29-1.118.298-.472.006-.742-.048-.81-.164a1.219 1.219 0 0 1-.143-.42l.082-3.426v-2.666c-2.694 1.436-4.41 2.372-5.148 2.81l-1.517.902c-.725.424-1.104.64-1.139.646-.034.007-.106-.18-.215-.564l-.882-2.686-.266-.739a.363.363 0 0 1 .102-.164l.43-.04.678-.083c.793-.082 1.421-.177 1.886-.287V89.357h-3.178c-.233 0-.37-.184-.41-.553-.042-.37.095-.554.41-.554h21.594l1.026-1.805c.164-.3.277-.458.338-.471.062-.014.202.102.42.348l1.99 2.297c.136.164.198.328.184.492-.013.164-.095.246-.246.246h-13.248zm-6.542 8.408h3.733v-3.774h-3.733v3.774zm3.733-4.84v-3.569h-3.364l-.369.534v3.035h3.733zm5.64 1.148c.177.944.488 2.027.932 3.25a14.5 14.5 0 0 0 1.836 3.477c.396-.848.741-1.692 1.035-2.533.294-.84.523-1.52.687-2.04l.472-1.6c.041-.164.096-.349.164-.554h-5.127zm-9.373 8.737l3.733-.964v-2.974h-3.733v3.938zm1.6-28.24h10.356l.738-1.415c.165-.328.27-.495.318-.502.048-.007.175.078.38.256l1.989 1.928a.517.517 0 0 1 .133.308c.007.109-.037.211-.133.307l-.697.84v5.702l.123 3.486a6.758 6.758 0 0 1-.144.513c-.068.219-.335.39-.8.513-.464.123-.82.178-1.066.164-.478 0-.718-.24-.718-.718v-1.128h-10.602v.697c0 .274-.048.561-.144.862-.096.3-.468.475-1.118.523-.649.048-1.018-.007-1.107-.164a1.479 1.479 0 0 1-.174-.462l.102-3.137v-6.748l-.102-3.199a.448.448 0 0 1 .092-.123c.02-.013.16.055.42.205l2.154 1.292zm10.48 1.108h-10.603v3.035h10.602v-3.035zm0 4.163h-10.603v3.855h10.602v-3.855zm33.55-1.764l1.23-2.03c.15-.274.267-.414.35-.42.081-.007.232.12.45.379l1.743 2.092c.247.3.37.547.37.738-.014.232-.11.349-.287.349h-25.348c-.233 0-.366-.185-.4-.554-.034-.37.1-.554.4-.554h11.648a2.589 2.589 0 0 1-.307-.328c-.137-.164-.253-.526-.349-1.087l-.144-1.005a4.66 4.66 0 0 0-.297-.964c-.143-.341-.284-.594-.42-.758l-.698-.78a.382.382 0 0 1-.092-.164.595.595 0 0 1-.03-.154c0-.034.013-.071.04-.112.055-.11.22-.164.493-.164 1.298.027 2.324.369 3.076 1.025.752.656 1.128 1.312 1.128 1.969 0 .656-.09 1.21-.267 1.66a2.784 2.784 0 0 1-.595.862h8.306zm-11.648 26.312v1.579c0 .26-.185.495-.554.707-.37.212-.718.311-1.046.298-.205 0-.366-.041-.482-.123-.116-.082-.202-.22-.256-.41l.082-2.79v-4.614l-.123-2.768c.11-.082.328 0 .656.246l1.825 1.435h5.353l.615-1.046c.137-.205.253-.307.349-.307.068.013.177.089.328.225l1.743 1.846c.15.178.225.342.225.492 0 .15-.068.28-.205.39l-.553.492.02 3.035.062 2.112c-.164.848-.739 1.265-1.723 1.251-.574 0-.861-.28-.861-.84v-1.21h-5.455zm5.455-1.087v-4.225h-5.435l-.02 4.225h5.455zm-10.623-8.388v13.248c0 .424-.09.8-.267 1.128-.178.328-.543.547-1.097.656-.554.11-.9.09-1.036-.061a1.262 1.262 0 0 1-.287-.554l.123-3.958.02-9.475-.143-3.814a.452.452 0 0 1 .092-.144c.02-.013.168.069.441.246l2.502 1.62h5.291l10.46-.02.697-1.374c.123-.246.232-.359.328-.338.095.02.205.078.328.174l2.215 1.928c.123.136.194.236.215.297.02.062.034.113.041.154a.592.592 0 0 1-.041.226c-.034.109-.079.205-.133.287l-.718.963.02 12.12c0 .944-.52 1.641-1.558 2.092-1.04.452-1.668.67-1.887.657-.096 0-.164-.02-.205-.062a.56.56 0 0 1-.113-.205c-.034-.096-.099-.489-.195-1.18-.095-.69-.464-1.199-1.107-1.527l-.882-.43a.323.323 0 0 1-.205-.35c0-.095.027-.18.082-.256a.245.245 0 0 1 .205-.112h1.149c1.011 0 1.579-.055 1.702-.164a.995.995 0 0 0 .277-.452c.061-.191.092-.471.092-.84l-.02-10.48h-16.386zm3.773-5.332v.984c0 .342-.205.609-.615.8-.41.192-.776.29-1.097.298-.322.006-.527-.059-.616-.195a1.257 1.257 0 0 1-.174-.533l.144-3.343v-3.446l-.123-2.932c.068-.123.13-.192.184-.205l.246.164 2.42 1.66h8.04l.8-1.291c.15-.232.255-.352.317-.359.061-.007.188.072.38.236L277.25 83c.314.287.472.52.472.697-.014.15-.096.301-.246.451l-.636.595-.02 3.733.06 1.948a1.399 1.399 0 0 1-.768 1.015c-.417.212-.783.304-1.097.277a.82.82 0 0 1-.554-.216c-.164-.143-.246-.352-.246-.625v-1.292h-8.593zm8.593-1.107v-4.492h-8.593v4.492h8.593zM491.313 106.912l14.683-31.52c.15-.329.308-.547.472-.657.164-.109.342-.058.533.154s.246.4.164.564l-.144.39-14.704 31.54c-.164.343-.324.578-.482.708-.157.13-.324.134-.502.01-.178-.122-.232-.3-.164-.533l.144-.656zm37.14.082h-11.567v2.092c0 .451-.209.766-.626.943-.417.178-.769.26-1.056.246-.328 0-.543-.068-.646-.205a1.742 1.742 0 0 1-.256-.553l.143-4.204v-9.27l-.123-3.507c.055-.082.106-.13.154-.143.048-.014.174.047.38.184l2.255 1.559h11.157l.635-1.128c.246-.41.407-.619.482-.626.075-.007.27.134.585.42l1.312 1.21c.274.26.455.459.544.595.089.137.133.27.133.4s-.13.346-.39.646l-.533.616v7.998l.103 4.122c-.014.15-.038.273-.072.369-.034.096-.178.263-.43.502-.254.24-.688.366-1.303.38-.588.027-.882-.274-.882-.903v-1.743zm0-1.066V95.264l-11.567.02v10.644h11.566zm-5.148-29.962c-1.696 2.53-3.015 4.436-3.958 5.722-.944 1.285-2.229 2.877-3.856 4.778 5.742.013 10.733-.048 14.97-.185-1.01-2.379-2.084-4.122-3.219-5.23l-.615-.594c-.15-.137-.219-.27-.205-.4.014-.13.11-.208.287-.236.273-.013 1.22.455 2.84 1.405 1.62.95 2.79 1.935 3.507 2.953.718 1.019 1.142 1.914 1.272 2.687.13.772.194 1.309.194 1.61-.013.697-.177 1.316-.492 1.856-.314.54-.731.803-1.25.79-.425 0-.78-.206-1.067-.616-.287-.41-.54-1.142-.759-2.194l-.266-1.21-3.282.533-3.958.718c-3.076.546-4.915.895-5.516 1.045l-4.779 1.21-.102.041c-.028 0-.075-.109-.144-.328l-1.19-3.855a.602.602 0 0 1-.04-.226c0-.082.061-.136.184-.164l.616-.082c.902-.11 1.73-.67 2.481-1.681.752-1.012 1.644-2.526 2.676-4.543 1.033-2.017 1.829-3.9 2.39-5.65l.41-1.25c.013-.083.047-.13.102-.144.055-.014.185.034.39.143l2.707 1.6c.574.342.854.591.84.748-.013.158-.198.311-.553.462l-.615.287zM551.44 81.4v-3.65c-2.83.178-5.837.267-9.023.267h-1.19c-.164 0-.239-.09-.225-.267 0-.178.089-.28.267-.308l1.681-.184c7.233-.793 12.353-1.948 15.36-3.466l1.026-.513a1.389 1.389 0 0 0 .287-.154c.014-.006.103.1.267.318l2.194 3.159a.602.602 0 0 1 .041.225c0 .164-.062.246-.185.246l-1.538.103-3.014.246-2.79.225c-.04.26-.088.462-.143.605-.055.144-.219.277-.492.4V81.4h7.506l1.148-1.907.205-.348c.041 0 .116.061.226.184l2.071 2.502c.055.068.137.198.246.39.11.191-.034.287-.43.287h-10.972v3.732h4.86l.656-1.312c.082-.164.15-.27.206-.318.054-.048.17.003.348.154l2.38 2.112a.515.515 0 0 1 .112.154c.02.048.03.102.03.164 0 .061-.068.167-.204.318l-.698.738v7.342l.103 2.235c-.041.205-.154.458-.339.759-.184.3-.605.461-1.26.482-.657.02-1.01-.027-1.057-.144-.048-.116-.072-.297-.072-.543v-.472h-5.065v3.979h5.414l1.107-1.826c.082-.15.15-.225.205-.225l.164.225 2.092 2.42c.082.11.123.199.123.267-.013.15-.116.226-.307.226h-2.03v.02h-6.768v4.491h7.608l1.374-2.194c.069-.123.106-.188.113-.195.007-.007.065.058.174.195l2.297 2.769c.082.109.123.211.123.307-.013.137-.116.205-.307.205h-1.23v.02h-24.241c-.232 0-.366-.184-.4-.553-.034-.37.1-.554.4-.554h11.566v-4.49h-9.044c-.246 0-.39-.185-.43-.555-.041-.369.102-.553.43-.553h9.044v-3.979h-5.004v.472c0 .465-.304.78-.912.943-.608.164-.988.24-1.138.226-.164-.014-.277-.062-.339-.144-.061-.082-.092-.26-.092-.533l.103-3.937v-6.953l-.062-3.424a.321.321 0 0 1 .082-.062c.027-.014.28.157.759.513l1.6 1.23h5.003v-3.732h-11.607c-.232 0-.366-.185-.4-.554-.034-.369.1-.554.4-.554h11.607zm0 15.402v-4.368h-5.004v4.368h5.004zm0-5.476V87.39h-5.004v3.937h5.004zm7.588 0V87.39h-5.065v3.937h5.065zm0 5.476v-4.368h-5.065v4.368h5.065zm32.67-13.248h-7.712c-.136.273-.403.84-.8 1.702-.396.861-1.1 2.057-2.112 3.589l-.41.635c-.082.137-.17.199-.267.185-.095-.014-.15-.089-.164-.226a.702.702 0 0 1 .041-.348l.493-1.251c.232-.56.499-1.313.8-2.256.3-.943.584-1.92.85-2.933.267-1.011.462-1.845.585-2.502.123-.656.287-1.545.492-2.666.205-1.12.328-1.845.37-2.173l.143-1.313.061-.8a.198.198 0 0 1 .103-.082l.328.185 2.974 1.415c.15.082.218.178.205.287-.014.11-.075.226-.185.349l-.738.8c-.93 2.761-1.49 4.395-1.682 4.9l-.41.985-.164.39h6.952l.78-1.6c.109-.246.187-.38.235-.4.048-.02.14.031.277.154l1.948 2.071c.22.233.315.407.287.523-.027.117-.102.25-.225.4l-.615.759a185.385 185.385 0 0 0 0 4.594c-.014 1.572-.035 3.387-.062 5.445a341.55 341.55 0 0 1-.092 4.89 90.973 90.973 0 0 1-.215 4.04c-.11 1.491-.284 2.626-.523 3.405-.24.78-.547 1.405-.923 1.876a4.406 4.406 0 0 1-1.467 1.17c-.601.307-1.039.454-1.312.44a.228.228 0 0 1-.103-.02c-.027-.014-.047-.137-.061-.37-.014-.232-.11-.6-.287-1.107-.178-.506-.407-.909-.687-1.21a4.01 4.01 0 0 0-.913-.738l-.82-.472c-.137-.068-.205-.191-.205-.369 0-.082.027-.154.082-.215a.212.212 0 0 1 .205-.072l1.046.246c.78.192 1.401.205 1.866.041.465-.164.793-.369.984-.615.192-.246.39-.861.595-1.846.205-.984.332-2.645.38-4.983.047-2.338.078-4.84.092-7.506v-3.712l-.02-3.691zm-14.008-6.07h-5.209v17.39c0 2.133-.006 3.274-.02 3.425-.014.15-.045.297-.092.44-.048.144-.226.267-.534.37a3.153 3.153 0 0 1-.933.164c-.314.007-.502-.065-.564-.215a2.16 2.16 0 0 1-.133-.513l.082-3.568v-16.14l-.082-3.958a.237.237 0 0 0 .051-.03c.007-.008.113.057.318.194l1.969 1.312h5.065l.493-.902c.246-.437.396-.663.45-.677.055-.013.178.076.37.267l1.764 1.948a.484.484 0 0 1 .112.287c.007.11-.037.22-.133.328l-.677.78v14.95l.123 4.286a3.156 3.156 0 0 1-.133.472c-.048.123-.202.28-.461.471-.26.192-.588.28-.985.267-.41 0-.66-.089-.748-.267-.09-.177-.14-.41-.154-.697l.061-2.215v-18.17zm-2.317 21.492c1.791.902 2.98 1.657 3.568 2.266a8.248 8.248 0 0 1 1.405 1.917c.349.67.51 1.36.482 2.071-.014.356-.113.76-.297 1.21-.185.452-.479.68-.882.687-.403.007-.714-.133-.933-.42a2.32 2.32 0 0 1-.318-.605c-.103-.267-.24-.71-.41-1.333-.171-.622-.41-1.38-.718-2.276-.308-.896-.988-1.877-2.04-2.943a53.672 53.672 0 0 1-.544 1.979c-.226.772-.704 1.746-1.436 2.922-.731 1.176-1.732 2.44-3.004 3.794l-.78.82c-.3.315-.46.36-.481.134-.02-.226.017-.4.113-.523l.738-.985c.82-1.08 1.6-2.413 2.338-3.999.738-1.586 1.203-3.36 1.394-5.321.192-1.962.301-3.425.328-4.39.028-.963.045-2.76.052-5.393.007-2.631-.004-4.29-.031-4.973l-.103-1.845-.061-.964a.232.232 0 0 1 .082-.082c.027-.014.137.006.328.061l2.4.718c.095.04.146.082.153.123.007.041.01.082.01.123v.082a.532.532 0 0 1-.123.226l-.492.615c-.04 1.75-.065 3.408-.071 4.973-.007 1.565-.021 2.803-.041 3.712-.021.91-.083 2.116-.185 3.62-.103 1.503-.188 2.467-.256 2.891l-.185 1.108zm7.321-1.477l5.025-.492c-.192-.875-.4-1.596-.626-2.164-.225-.567-.413-.984-.564-1.25-.15-.267-.232-.428-.246-.483a1.344 1.344 0 0 1-.03-.215c-.007-.089.044-.133.153-.133.15.013.868.58 2.154 1.702 1.285 1.121 1.927 2.598 1.927 4.43a4.542 4.542 0 0 1-.174 1.056c-.103.362-.277.65-.523.861a1.35 1.35 0 0 1-.882.328c-.342.007-.629-.229-.861-.707-.15-.287-.226-.739-.226-1.354v-1.21c-2.365.916-3.999 1.661-4.901 2.236l-.8.533a3.27 3.27 0 0 0-.349.277c-.095.088-.164.044-.205-.134l-.758-2.358-.185-.533a.475.475 0 0 1 .144-.226l.492-.328c.123-.096.27-.314.44-.656.172-.342.442-1.156.81-2.44.37-1.286.698-2.547.985-3.784.287-1.238.465-2.055.533-2.451l.185-.964c.096-.547.147-.817.154-.81a.237.237 0 0 0 .051.03l.513.308 2.276 1.436c.178.123.256.25.236.38a.4.4 0 0 1-.215.297l-.76.471a404.669 404.669 0 0 1-3.773 8.347zm26.578-6.111c.096-1.34.185-2.557.267-3.65h-10.787a.64.64 0 0 1-.297-.165c-.062-.068-.106-.25-.134-.543-.027-.294.116-.441.43-.441h10.788c.014-.383.02-.677.02-.882l.042-.677c.013-.506.02-.977.02-1.415v-.45h-6.193v.922c0 .11-.082.297-.246.564-.164.266-.5.413-1.005.44-.506.028-.797-.01-.872-.112a1.145 1.145 0 0 1-.174-.42l.102-2.523V77.36l-.123-2.235.113-.072c.034-.02.222.079.564.298l1.743 1.189h14.848l.697-1.25c.096-.165.168-.244.216-.237.047.007.174.086.379.236l1.928 1.538c.04.055.078.113.112.174a.49.49 0 0 1 .062.185c.007.062-.051.168-.174.318l-.575.677v3.548l.062 1.845a1.368 1.368 0 0 1-.687.903c-.362.205-.704.31-1.025.317-.322.007-.537-.054-.646-.184a.666.666 0 0 1-.165-.441v-1.005h-7.854l2.05.656a.684.684 0 0 1 .267.144c.055.055.079.133.072.236-.007.102-.085.222-.236.359l-.615.533-.143 1.497h8.367l.82-1.395c.123-.232.209-.362.256-.39.048-.027.182.069.4.288l1.887 1.907c.205.205.308.355.308.451-.014.192-.144.287-.39.287h-11.751l-.328 3.65h4.265l.657-1.127c.136-.26.232-.386.287-.38.055.007.164.072.328.195l1.866 1.518c.178.15.284.256.318.318a.5.5 0 0 1 .062.194c.006.069-.072.206-.236.41l-.554.739v12.838h1.928l.923-1.62c.164-.287.276-.438.338-.451.062-.014.215.109.461.369l1.744 1.927c.191.22.3.366.328.441.027.075.044.175.051.298.007.123-.147.184-.461.184h-25.492a.568.568 0 0 1-.225-.164c-.055-.068-.093-.25-.113-.543-.02-.294.113-.441.4-.441h4.983V94.874l-.143-4.799a.366.366 0 0 1 .102-.102l.492.287 1.949 1.128h3.342zm-2.194-9.352v-4.348h-3.65v4.348h3.65zm9.044 24.056v-2.994h-10.192v2.994h10.192zm-10.192-10.398v2.4h10.192v-2.4h-10.192zm10.192 6.296v-2.768h-10.192v2.768h10.192zm0-7.403v-2.071h-10.192v2.07h10.192zm-3.589-12.55v-4.349h-3.117v4.348h3.117zm6.03 0v-4.349h-3.692l-.082.165v4.183h3.773zm18.682 14.416V86.24c-.123.164-.472.595-1.046 1.292l-.369.43c-.096.124-.178.185-.246.185-.096.014-.147-.05-.154-.194a.692.692 0 0 1 .051-.339l.35-.615c.108-.191.389-.81.84-1.856.451-1.046.861-2.02 1.23-2.922.37-.903.841-2.331 1.415-4.286.575-1.956.916-3.172 1.026-3.65l.102-.555.123-.656c.082-.068.308.028.677.287l2.215 1.559c.246.178.38.297.4.359.02.061.034.143.04.246.008.102-.085.208-.276.318l-.718.43c-.246.479-.478.927-.697 1.344-.219.417-.376.735-.472.953h3.856l.533-1.046c.178-.355.294-.536.349-.543.054-.007.253.133.594.42l1.99 1.744c.095.095.191.222.287.379.095.157.143.29.143.4a.926.926 0 0 1-.102.277c-.055.102-.294.229-.718.38-.424.15-.848.47-1.272.963-.423.492-1.34 1.75-2.748 3.773h3.507l.698-1.333c.136-.273.215-.413.235-.42.02-.007.195.133.523.42l1.743 1.58c.233.218.363.355.39.41a.346.346 0 0 1 .041.153c0 .048-.123.209-.369.482l-.738.8v9.044h.307l.841-1.682c.205-.41.335-.618.39-.625.054-.007.232.202.533.625l1.333 1.908c.068.123.123.236.164.338.041.103.065.181.072.236.007.055-.03.116-.113.184a.435.435 0 0 1-.287.103h-8.654c.191.506.533 1.34 1.025 2.502.492 1.162 1.555 2.324 3.189 3.486 1.634 1.162 2.97 1.84 4.01 2.03l.43.083c.15.04.226.15.226.328 0 .177-.076.294-.226.348l-.554.205c-.287.11-.557.28-.81.513a3.856 3.856 0 0 0-.605.687c-.15.226-.283.492-.4.8-.116.308-.201.499-.256.574-.055.075-.11.113-.164.113-.205.014-.578-.236-1.118-.749-.54-.512-.947-.916-1.22-1.21-.273-.293-.728-.875-1.364-1.743a11.245 11.245 0 0 1-1.466-2.655 20.26 20.26 0 0 1-.851-2.933 45.323 45.323 0 0 1-.462-2.379h-.123l-.174.984c-.048.274-.17.9-.37 1.877-.197.977-.789 2.133-1.773 3.466-.984 1.333-1.931 2.379-2.84 3.137-.91.76-1.812 1.368-2.707 1.826-.896.458-1.474.728-1.733.81l-.575.184c-.054.028-.102.007-.143-.061-.041-.069-.055-.13-.041-.185 0-.137.061-.246.184-.328l.472-.287c.233-.137.718-.489 1.456-1.056.739-.568 1.49-1.3 2.256-2.195.766-.895 1.456-1.982 2.071-3.26.616-1.279.998-2.26 1.149-2.943.15-.684.28-1.34.39-1.969h-7.322c-.232 0-.352-.181-.359-.543-.007-.363.113-.544.36-.544h2.42zm2.133 0h2.892c.19-1.463.297-3.093.317-4.891.02-1.798.031-3.36.031-4.686v-.451h-3.24v10.028zm5.27 0h3.753V86.425h-2.994c-.11.15-.246.287-.41.41a1073.27 1073.27 0 0 0-.072 3.886 93.083 93.083 0 0 1-.174 4.174l-.082 1.107-.02.451zm.82-16.775h-4.306c-.725 1.34-1.654 2.926-2.789 4.758l1.005.881h4.47c.794-2.693 1.334-4.573 1.62-5.64zm-13.965 2.133v-4.963l-.144-3.65c.096-.124.168-.189.216-.196.048-.006.188.031.42.113l2.092.759c.246.096.407.191.482.287.075.096.11.168.102.215a1.184 1.184 0 0 1-.102.267c-.062.13-.133.236-.216.318l-.656.677v6.173h.615l.657-1.272c.218-.424.362-.663.43-.718.069-.054.246.123.534.533l1.169 1.703c.218.341.338.577.358.707.02.13-.167.195-.564.195h-3.199v7.178c1.34-.602 2.03-.91 2.072-.923l.512-.205c.301-.11.448-.069.441.123-.007.191-.126.396-.359.615l-.43.39-1.23 1.148-1.006.923v13.781c0 1.08-.024 1.77-.072 2.072-.047.3-.157.57-.328.81-.17.239-.598.502-1.281.79-.684.286-1.094.416-1.23.389-.138-.014-.23-.055-.278-.123-.048-.069-.078-.29-.092-.667-.014-.376-.147-.83-.4-1.364-.253-.533-.619-.895-1.097-1.086l-.43-.164a.278.278 0 0 1-.175-.124c-.048-.068-.075-.177-.082-.328-.007-.15.079-.218.256-.205l.615.082c.834.123 1.347.178 1.539.164.314 0 .536-.085.666-.256.13-.17.195-.578.195-1.22V94.136c-.52.424-1.217 1.039-2.092 1.845l-.615.575-.349.39a.227.227 0 0 1-.072-.01c-.02-.008-.085-.257-.194-.75l-.78-2.994a5.957 5.957 0 0 1-.123-.512v-.062l.431-.123.78-.287 1.23-.41 1.784-.697v-8.142h-3.917c-.191 0-.294-.191-.308-.574-.013-.383.069-.574.246-.574h3.979zm42.451 10.623h5.168l1.456-2.42c.082-.123.15-.188.205-.195.055-.007.157.085.308.277l2.215 2.85c.027.055.058.123.092.205a.563.563 0 0 1 .051.164c-.013.164-.11.247-.287.247h-8.49c.574 1.394 1.046 2.474 1.415 3.24.369.765 1.032 1.74 1.99 2.922.956 1.183 1.893 2.088 2.809 2.717.916.63 1.64 1.033 2.174 1.21l.717.246c.123.055.188.161.195.318.007.158-.058.257-.195.298l-.84.307c-.684.26-1.224.65-1.62 1.17l-.575.758c-.137.191-.219.284-.246.277-.027-.007-.123-.1-.287-.277l-.759-.759c-.642-.629-1.316-1.473-2.02-2.532-.704-1.06-1.312-2.26-1.825-3.6-.513-1.34-1.05-3.438-1.61-6.295h-.04v11.915l.122 3.691a4.163 4.163 0 0 1-.184.482c-.082.184-.37.342-.862.472-.492.13-.854.188-1.087.174-.246 0-.393-.048-.44-.144a1.475 1.475 0 0 1-.113-.43l.143-4.902v-7.054c-.52.779-1.148 1.688-1.887 2.727-.738 1.04-1.702 2.164-2.891 3.374-1.19 1.21-1.894 1.917-2.112 2.122l-.8.698c-.11.095-.188.14-.236.133a.193.193 0 0 1-.113-.051c-.027-.028-.048-.09-.061-.185-.014-.096.047-.226.184-.39l.738-.923c.192-.26.653-.98 1.385-2.163a57.084 57.084 0 0 0 2.133-3.774c.69-1.333 1.244-2.553 1.66-3.66.418-1.108.688-1.812.81-2.112h-6.418c-.219 0-.345-.188-.38-.564-.034-.376.093-.564.38-.564h7.608v-2.851l-.082-3.63h-2.133v1.58c0 .45-.27.779-.81.984-.54.205-.92.294-1.138.266-.219-.013-.362-.075-.43-.184-.069-.11-.11-.294-.124-.554l.123-3.65V78.2l-.102-3.917a.448.448 0 0 1 .092-.123c.02-.014.209.096.564.328l1.948 1.292h7.014l.84-1.374c.151-.232.25-.352.298-.359.048-.006.12.031.216.113l1.948 1.866.307.349c.055.068.082.116.082.144v.143c0 .068-.047.15-.143.246l-.882.944v6.336l.103 2.687a1.883 1.883 0 0 1-.216.636c-.102.177-.342.345-.718.502a2.523 2.523 0 0 1-1.076.215c-.356 0-.533-.232-.533-.697v-1.579h-5.004l2.83 1.292c.082.041.154.1.215.174a.323.323 0 0 1 .082.236c-.007.082-.065.185-.174.308l-.677.759v3.712zm2.728-7.65V76.91h-7.363v7.875h7.363zm-14.315-1.702l1.128.78c.068.054.127.112.174.174.048.061.069.13.062.205-.007.075-.072.195-.195.359l-.554.758v20.16l.082 3.896a1.796 1.796 0 0 1-.256.513c-.102.136-.335.256-.697.359a3.22 3.22 0 0 1-1.015.133c-.192 0-.315-.034-.37-.103-.054-.068-.088-.212-.102-.43l.103-4.922V86.979c-1.149 2.42-2.079 4.238-2.79 5.455l-.86 1.435c-.083.15-.161.222-.237.215-.075-.006-.116-.082-.123-.225a1.09 1.09 0 0 1 .052-.4l.553-1.374c.766-1.928 1.62-4.61 2.564-8.05.943-3.438 1.606-6.299 1.989-8.582l.37-2.174.102-.512c0-.014.013-.028.04-.041l.308.184 2.912 1.58c.22.122.322.256.308.4-.014.143-.055.235-.123.276l-.656.41c-.834 2.406-1.367 3.89-1.6 4.45l-1.169 3.056zm42.123 24.056l.134-.585c.047-.212.153-.755.317-1.63.164-.875.37-1.9.616-3.076a509.3 509.3 0 0 0 .41-1.97l.574-3.629c.219-1.066.335-1.894.349-2.481.013-.588.061-.93.143-1.026a.66.66 0 0 1 .195-.174c.048-.02.277.12.687.42l2.297 1.805c.178.15.266.294.266.43-.013.178-.13.315-.348.41l-.677.288c-1.326 3.705-2.078 5.79-2.256 6.255l-1.271 3.199c-.342.902-.568 1.49-.677 1.764h2.769l1.168-1.949c.165-.273.277-.434.339-.481.061-.048.243.112.543.481l1.6 2.072c.15.218.226.424.226.615 0 .232-.124.349-.37.349h-18.19c-.219 0-.352-.182-.4-.544-.048-.362.086-.543.4-.543h11.156zm0-17.924l1.046-1.702c.068-.11.133-.168.195-.175.061-.006.215.12.461.38l1.477 1.722c.178.22.267.404.267.554-.014.233-.13.349-.35.349H697.19c-.218 0-.338-.188-.358-.564-.021-.376.112-.564.4-.564h7.26zm-11.607-13.515l.656-1.435c.082-.178.15-.27.205-.277.055-.007.192.085.41.277l2.113 2.071c.205.205.307.39.307.554-.013.177-.17.355-.471.533l-.76.472c-.3.902-.526 1.572-.676 2.01l-1.415 3.67-.78 2.092c1.272 2.338 2.178 4.054 2.718 5.147.54 1.094.796 2.632.769 4.615-.027 1.709-.345 3.014-.954 3.917-.608.902-1.134 1.449-1.579 1.64-.444.192-.762.28-.953.267a.336.336 0 0 1-.185-.041c-.041-.027-.068-.205-.082-.533-.014-.328-.12-.725-.318-1.19-.198-.465-.448-.813-.748-1.046l-.718-.512c-.137-.096-.198-.22-.185-.37.014-.205.144-.307.39-.307h.78c1.025 0 1.62-.4 1.783-1.2.164-.8.246-1.514.246-2.143-.013-.957-.126-2.013-.338-3.168-.212-1.156-.448-2.116-.707-2.882l-.739-2.194c.383-2.584.67-4.512.862-5.783.191-1.272.362-2.297.512-3.076h-3.22v27.521l.083 4.45a2.86 2.86 0 0 1-.205.687c-.082.171-.301.352-.657.544-.355.191-.663.273-.923.246-.26-.014-.434-.089-.522-.226-.09-.136-.147-.376-.175-.717l.123-6.255V79.719l-.123-5.763a.198.198 0 0 1 .103-.082c.04-.014.232.116.574.39l1.723 1.435h3.076zm10.172 1.108a98.855 98.855 0 0 1-2.953 6.121 41.495 41.495 0 0 1-3.753 5.855l-.862 1.149c-.11.136-.198.201-.266.194-.069-.006-.113-.027-.134-.061a.584.584 0 0 1-.05-.195c-.015-.096.04-.273.163-.533l.574-1.169c.903-1.9 1.781-4.06 2.636-6.48.854-2.42 1.473-4.458 1.856-6.112l.348-1.579.205-.984a.223.223 0 0 1 .082-.041l.472.266 2.769 1.497c.26.15.386.325.379.523a.49.49 0 0 1-.277.441l-.697.39a35.374 35.374 0 0 0 1.907 3.876c.656 1.135 1.552 2.273 2.687 3.414 1.134 1.142 2.426 1.904 3.876 2.287l.594.164c.164.055.246.154.246.297a.34.34 0 0 1-.184.318l-.656.41a9.448 9.448 0 0 0-.636.513c-.287.246-.574.581-.861 1.005l-.575.964c-.11.164-.205.246-.287.246-.205.027-.81-.564-1.815-1.774a16.666 16.666 0 0 1-2.41-3.825c-.601-1.34-1.056-2.47-1.363-3.394-.308-.923-.646-2.184-1.015-3.783zm-5.702 18.949l-.348-1.518c-.014-.013-.024-.054-.03-.123-.008-.068-.004-.116.01-.143.013-.11.081-.164.204-.164.233.027.636.52 1.21 1.476a13.113 13.113 0 0 1 1.344 3.087c.32 1.1.482 2.047.482 2.84 0 .848-.15 1.538-.452 2.071-.3.533-.71.8-1.23.8-.41.014-.742-.195-.995-.625a2.866 2.866 0 0 1-.4-1.395c-.013-.499.048-1.159.185-1.979.082-.492.137-.923.164-1.292.027-.37.044-.824.051-1.364a6.83 6.83 0 0 0-.195-1.671zm4.266-1.415l-.349-1.99a.883.883 0 0 1-.04-.194c0-.034.013-.086.04-.154.028-.096.069-.15.124-.164.027 0 .095.051.205.154.109.102.444.663 1.004 1.681a17.284 17.284 0 0 1 1.375 3.261c.355 1.155.526 2.088.512 2.8a5.245 5.245 0 0 1-.492 1.855c-.287.622-.697.92-1.23.892-.383 0-.684-.218-.903-.656a3.245 3.245 0 0 1-.359-1.302c-.02-.43.017-1.121.113-2.071.096-.95.144-1.733.144-2.349 0-.615-.048-1.203-.144-1.763zm25.47-14.581v-3.794l-.102-2.974.082-.082.985.267 2.502.656c.164.055.242.147.235.277-.006.13-.071.27-.194.42l-.78.964v4.266h7.035l1.127-2.236c.165-.314.284-.478.36-.492.075-.013.174.041.297.164l2.604 2.892c.137.164.195.331.175.502-.021.171-.127.257-.318.257h-11.28v6.685h3.507l.554-1.025c.11-.192.198-.277.267-.257.068.021.184.106.348.257l2.215 2.256c.232.232.335.427.308.584-.028.157-.13.298-.308.42l-.8.575c-.383 1.039-.728 1.941-1.035 2.707-.308.765-.852 1.951-1.63 3.558a32.67 32.67 0 0 1-2.79 4.686 28.74 28.74 0 0 0 5.28 3.117c1.867.848 3.518 1.34 4.953 1.477l1.005.102c.178.028.264.11.257.246a.9.9 0 0 1-.062.318c-.034.075-.078.12-.133.134l-.595.205c-.314.109-.65.314-1.005.615-.355.3-.642.625-.861.974-.219.349-.37.69-.451 1.025-.082.335-.171.51-.267.523-.04.014-.113-.01-.215-.071-.103-.062-.42-.206-.954-.431-.533-.226-1.295-.632-2.286-1.22a39.067 39.067 0 0 1-2.78-1.805c-.86-.615-2.077-1.634-3.65-3.056-1.408 1.203-2.566 2.113-3.476 2.728-.909.615-2.136 1.264-3.68 1.948-1.546.684-2.783 1.169-3.713 1.456l-1.415.43c-.15.055-.239.028-.266-.081a1.13 1.13 0 0 1-.041-.226c0-.164.068-.273.205-.328l.964-.37c.697-.259 2.02-1 3.968-2.224 1.948-1.224 3.866-2.93 5.752-5.117-.93-1.217-1.65-2.4-2.163-3.548-.513-1.148-.981-2.509-1.405-4.08-.424-1.573-.738-3.391-.943-5.456h-3.938c-.191 0-.297-.174-.318-.523-.02-.348.086-.523.318-.523h8.552v-6.685h-10.623c-.246 0-.37-.181-.37-.544 0-.362.124-.543.37-.543h10.623zm-4.08 8.818c.04.178.12.547.236 1.108.116.56.372 1.38.769 2.46.396 1.08.909 2.229 1.538 3.446s1.613 2.55 2.953 3.999c.738-1.244 1.316-2.283 1.733-3.117.417-.834.93-2.014 1.538-3.538s1.07-2.977 1.384-4.358H723.01zm26.947-6.275v-5.886l-.103-3.179a.497.497 0 0 1 .072-.061c.02-.014.188.034.503.143l2.481.882c.137.055.215.11.236.164a.75.75 0 0 1 .041.195c.007.075-.065.195-.215.359l-.718.84v6.543h1.005l.861-1.682c.15-.314.26-.482.328-.502.069-.02.164.05.287.215l1.723 2.338c0 .014.034.096.103.246.068.15.099.24.092.267a.949.949 0 0 1-.051.133.145.145 0 0 1-.144.092h-4.204v6.686l3.097-1.518c.177-.082.27-.044.276.113.007.157-.023.277-.092.359l-.328.328c-.055.068-.499.478-1.333 1.23l-1.62 1.477v14.807c0 .546-.065 1.015-.195 1.404-.13.39-.485.735-1.066 1.036-.581.3-1.015.489-1.303.564-.287.075-.437.106-.45.092-.07 0-.124-.04-.165-.123-.04-.082-.068-.314-.082-.697-.014-.383-.167-.82-.461-1.313-.294-.492-.571-.813-.83-.963l-.903-.493c-.123-.054-.178-.164-.164-.328 0-.04.017-.102.051-.184.034-.082.12-.11.256-.082l.431.102a6.791 6.791 0 0 0 1.548.216c.486.006.78-.069.882-.226.103-.157.154-.427.154-.81V93.972c-1.039.97-1.777 1.668-2.215 2.091l-.861.882c-.123.123-.205.137-.246.041l-.082-.41-.615-2.604-.288-1.026a.22.22 0 0 1 .041-.123l.534-.123 1.333-.513c1.08-.41 1.88-.745 2.399-1.004V83.41h-4.368c-.233 0-.37-.184-.41-.554-.041-.369.095-.553.41-.553h4.368zm14.622 11.525v-2.502l-.143-2.707c.04-.027.075-.048.102-.061l.615.205 2.215.656c.274.096.407.195.4.297a.573.573 0 0 1-.113.298l-.615.8v3.014h.984l.923-1.805c.15-.3.267-.444.349-.43.082.013.273.212.574.594l1.538 2.03c.123.179.181.34.175.483-.007.143-.065.215-.175.215h-4.368v12.407c0 .451-.044.82-.133 1.108-.09.287-.28.55-.574.79-.294.238-.705.485-1.23.738-.527.252-.968.372-1.324.358a.386.386 0 0 1-.154-.03c-.047-.02-.085-.072-.112-.154-.028-.082-.045-.366-.052-.851-.006-.486-.215-.94-.625-1.364-.41-.424-.732-.718-.964-.882l-.615-.39c-.123-.068-.178-.177-.164-.328.013-.205.116-.287.307-.246l.677.164c.56.137 1.176.212 1.846.226.314.014.502-.062.564-.226.061-.164.092-.403.092-.717V94.915h-8.777c-.219 0-.339-.181-.36-.543-.02-.363.1-.544.36-.544h8.777zM761.4 79.493v-3.179l-.123-2.953a.46.46 0 0 1 .134-.102c.034-.014.188.02.461.102l2.564.8c.164.068.256.147.276.236.02.089-.024.208-.133.359l-.718.964v3.773h2.605l.902-1.825c.096-.191.168-.297.215-.318.048-.02.182.086.4.318l1.764 2.01c.178.218.26.42.246.605-.014.184-.096.277-.246.277h-5.886v6.419h3.917l.882-1.662c.192-.369.318-.56.38-.574.061-.014.174.069.338.246l2.03 2.42c.082.096.12.226.113.39-.007.164-.065.246-.174.246h-16.201l-.165-.082a1.239 1.239 0 0 1-.174-.626c-.007-.239.106-.358.339-.358h6.254v-6.42h-5.106c-.219 0-.335-.177-.349-.533-.013-.355.103-.533.349-.533h5.106zm-4.08 16.714a.368.368 0 0 1 0-.174c.013-.075.068-.127.163-.154.028 0 .288.13.78.39l.738.41c.875.547 1.48 1.2 1.815 1.958.335.759.502 1.425.502 2-.013.355-.116.817-.307 1.384-.192.567-.571.858-1.138.872-.568.013-.954-.185-1.16-.595a1.778 1.778 0 0 1-.235-.79c-.02-.294-.044-.793-.072-1.497-.027-.704-.095-1.288-.205-1.753a5.106 5.106 0 0 0-.513-1.323c-.232-.417-.355-.66-.369-.728z"/>
    </g>
</svg>
