<svg xmlns="http://www.w3.org/2000/svg" width="1440" height="40" viewBox="0 0 1440 40">
    <g fill="none" fill-rule="evenodd">
        <path fill="#222" fill-rule="nonzero" d="M0 0h1440v40H0z"/>
        <g fill="#FFF">
            <path d="M1190.06 20.072a.536.536 0 0 0-.533-.533h-8.773a.535.535 0 0 0-.532.533v.752c0 .293.24.547.532.547h5.516c.369 0 .35.161.35.594v.09c0 .426.019.52-.347.52h-11.227a.53.53 0 0 1-.531-.532V18.796c0-.293.236-.535.53-.535H1189.528c.293 0 .533-.239.533-.532v-1.196a.535.535 0 0 0-.533-.533h-17.819a.532.532 0 0 0-.532.533v7.92c0 .293.236.533.532.533h17.818c.294 0 .534-.24.534-.533V19.981M1161.383 22.262c-.248.157-.425.312-.718.312h-2.26c-.292 0-.47-.155-.717-.312l-4.354-2.754c-.248-.157-.453-.044-.453.247v4.699c0 .292-.24.531-.533.531h-2.274a.535.535 0 0 1-.534-.531v-7.922c0-.291.24-.532.534-.532h2.435c.294 0 .469.128.714.285l5.94 3.845a.631.631 0 0 0 .738-.002l5.938-3.843c.248-.157.425-.285.717-.285h2.438c.292 0 .53.24.53.532v7.922c0 .292-.238.531-.53.531h-2.277a.535.535 0 0 1-.533-.531v-4.699c0-.291-.206-.404-.452-.247l-4.335 2.746-.014.008zM1129.842 24.985h-2.94c-.22 0-.315-.21-.214-.4l6.357-8.23c.148-.194.367-.355.588-.355h13.661c.367 0 .595.304.595.672v7.782c0 .292-.24.531-.534.531h-2.274a.535.535 0 0 1-.534-.531v-1.131c0-.317-.027-.44-.348-.44h-11.96c-.22 0-.377.157-.533.348l-.035.042-.912 1.181c-.23.293-.546.531-.841.531h-.076zm5.899-6.716c-.149 0-.283.106-.384.239l-1.403 1.817c-.102.13-.034.237.116.237h10.129c.32 0 .347-.123.348-.439v-1.262c0-.43.02-.592-.348-.592h-8.458zM1123.842 24.985c.293 0 .614-.238.841-.53l6.116-7.92c.23-.295.12-.535-.174-.535h-1.221c-.22 0-.44.16-.588.356l-6.355 8.229c-.106.19-.011.4.21.4h1.171zM1119.575 24.985c.293 0 .614-.238.84-.53l6.118-7.92c.227-.295.12-.535-.176-.535h-1.737c-.22 0-.437.16-.586.356l-6.357 8.229c-.104.19-.008.4.211.4h1.687zM1112.602 24.985c-.223 0-.316-.21-.211-.4l6.354-8.23c.147-.194.37-.355.587-.355h2.538c.295 0 .402.24.176.534l-6.118 7.92c-.228.293-.547.531-.842.531h-2.484zM1106.795 24.985c-.222 0-.315-.21-.211-.4l6.355-8.23c.15-.194.367-.355.588-.355h3.4c.296 0 .403.24.176.534l-6.118 7.92c-.227.293-.545.531-.84.531h-3.35zM1097.253 24.985c-.22 0-.314-.21-.211-.4l6.355-8.23c.148-.194.367-.355.588-.355h7.456c.292 0 .4.24.174.534l-6.117 7.92c-.228.293-.546.531-.842.531h-7.403z"/>
        </g>
    </g>
</svg>
