<svg xmlns="http://www.w3.org/2000/svg" xmlns:xlink="http://www.w3.org/1999/xlink" width="375" height="30" viewBox="0 0 375 30">
    <defs>
        <path id="a" d="M0 0h60v6H0z"/>
    </defs>
    <g fill="none" fill-rule="evenodd">
        <path fill="#222" d="M0 0h375v30H0z"/>
        <g transform="translate(293 12)">
            <mask id="b" fill="#fff">
                <use xlink:href="#a"/>
            </mask>
            <path fill="#FFF" d="M4.611 0a.642.642 0 0 0-.456.231L.047 5.77C-.047 5.896.004 6 .161 6h4.77a.643.643 0 0 0 .456-.231L9.497.233c.095-.127.045-.231-.112-.231L4.61 0M13.136.231c.091-.127.042-.231-.11-.231h-2.179a.62.62 0 0 0-.444.231L6.41 5.77c-.092.127-.043.231.11.231H8.7a.619.619 0 0 0 .444-.231L13.136.23M14.528 0a.627.627 0 0 0-.448.231L10.047 5.77c-.093.127-.043.231.11.231h1.679a.628.628 0 0 0 .448-.231L16.317.23C16.41.104 16.36 0 16.206 0h-1.678M13.229 5.769c-.094.127-.043.231.112.231l1.17-.001c.156 0 .36-.105.453-.232l4.08-5.534c.094-.127.043-.231-.113-.232L17.761 0a.635.635 0 0 0-.453.231l-4.08 5.538M16.41 5.768c-.092.128-.043.232.11.232h.828a.618.618 0 0 0 .443-.232L21.772.232c.092-.128.043-.232-.11-.232h-.825a.618.618 0 0 0-.443.232L16.41 5.768M23.973 3.041c-.156 0-.207-.104-.113-.232l.755-1.031a.636.636 0 0 1 .454-.232h5.254c.155 0 .283.13.283.29l.001.912c0 .16-.127.291-.282.291l-6.352.002zM23.67 0a.637.637 0 0 0-.454.232l-4.079 5.536c-.094.128-.043.232.112.232l1.98-.002c.157 0 .36-.104.455-.232l.65-.883a.639.639 0 0 1 .454-.232l7.534-.002c.155 0 .283.13.283.29v.768c0 .16.127.291.283.291L32.444 6c.156 0 .283-.13.283-.29V.292a.288.288 0 0 0-.283-.291L23.671 0zM33.636 5.709c0 .16.127.291.282.291h1.546c.154 0 .281-.13.281-.291l.002-3.06c0-.16.109-.224.242-.143l2.927 1.786c.133.081.368.148.523.147h1.124c.154-.001.39-.068.523-.149l2.927-1.782c.133-.081.242-.017.242.143l-.002 3.058c0 .16.127.291.281.291h1.548c.155 0 .282-.13.282-.291V.293a.288.288 0 0 0-.282-.291L44.536 0c-.154 0-.387.07-.517.158l-3.78 2.528a.46.46 0 0 1-.472 0L35.983.158A1.096 1.096 0 0 0 35.466 0l-1.548.002a.288.288 0 0 0-.282.29V5.71M47.727 5.709c0 .16.13.291.288.291h11.697A.29.29 0 0 0 60 5.709V2.711a.29.29 0 0 0-.288-.29l-5.759-.002a.29.29 0 0 0-.287.29v.582c.001.16.13.29.29.29l3.597.004a.29.29 0 0 1 .288.292v.308a.29.29 0 0 1-.288.29h-7.377a.29.29 0 0 1-.288-.292V1.819c0-.16.13-.29.288-.29l9.536-.003A.29.29 0 0 0 60 1.235V.291A.29.29 0 0 0 59.712 0L48.015.002a.29.29 0 0 0-.288.291V5.71" mask="url(#b)"/>
        </g>
    </g>
</svg>
