<?xml version="1.0" encoding="UTF-8"?>
<svg width="307px" height="86px" viewBox="0 0 307 86" version="1.1" xmlns="http://www.w3.org/2000/svg" xmlns:xlink="http://www.w3.org/1999/xlink">
    <!-- Generator: Sketch 51 (57462) - http://www.bohemiancoding.com/sketch -->
    <title>G-PC</title>
    <desc>Created with Sketch.</desc>
    <defs></defs>
    <g id="Page-1" stroke="none" stroke-width="1" fill="none" fill-rule="evenodd">
        <g id="G-PC" fill="#FFFFFF" fill-rule="nonzero">
            <rect id="Rectangle-Copy-13_3_" x="138.2" y="84.6" width="30.3" height="1"></rect>
            <g id="Group" transform="translate(0.000000, 28.000000)">
                <path d="M7.1,10.5 L8.3,11.3 C8.4,11.4 8.5,11.5 8.5,11.6 C8.5,11.7 8.4,11.9 8.2,12.1 L7.6,12.7 L7.6,32.9 L7.7,36.7 C7.6,36.9 7.6,37.1 7.4,37.3 C7.3,37.5 7,37.7 6.6,37.8 C6.4,37.9 6,38 5.7,38 C5.4,38 5.2,37.9 5.1,37.8 C5,37.7 5,37.5 5,37.4 L5.2,32.6 L5.2,14.3 C4.3,15.9 3.6,17.1 3.1,17.9 C2.6,18.7 2.1,19.5 1.5,20.4 L0.7,21.5 C0.6,21.6 0.6,21.6 0.5,21.6 C0.4,21.6 0.4,21.5 0.4,21.4 C0.4,21.3 0.4,21.2 0.5,21 L1,19.6 C2.4,16.4 3.6,13.2 4.6,9.8 C5.6,6.5 6.2,4.5 6.3,3.8 L7,1.2 C7.1,0.9 7.1,0.8 7.1,0.8 C7.1,0.8 7.1,0.8 7.2,0.7 C7.2,0.7 7.3,0.7 7.4,0.9 L10.3,3.1 C10.5,3.3 10.7,3.5 10.7,3.6 C10.7,3.7 10.6,3.9 10.5,3.9 L9.6,4.5 L7.1,10.5 Z M16.1,19 L16.1,8.3 C13.6,8.8 11.6,9.1 10.2,9.1 L9,9.2 C8.9,9.2 8.8,9.2 8.8,9.1 C8.7,9 8.7,8.9 8.7,8.8 C8.7,8.7 8.8,8.6 8.9,8.5 L10.2,8.2 C11.4,7.9 13.3,7.2 15.7,6.1 C18.1,5 20,4 21.3,3 L22.2,2.3 L22.6,2 C22.6,2 22.7,2.1 22.8,2.2 L25.8,5.7 C25.9,5.9 26,6 26,6.1 C26,6.2 25.9,6.3 25.7,6.4 L24.5,6.6 C22.2,7.1 20.6,7.4 19.5,7.7 C19.3,8 19.3,8.1 19.2,8.2 C19.2,8.2 19,8.3 18.8,8.5 L18.8,19 L22.7,19 L24.1,16.2 C24.1,16.1 24.2,16 24.3,16 C24.4,16 24.4,16 24.6,16.2 L27,19.5 C27,19.6 27.1,19.6 27.1,19.7 C27.1,19.8 27.2,19.8 27.2,19.9 C27.2,20.1 27.1,20.1 26.9,20.1 L18.9,20.1 L18.9,33.7 L22.8,33.7 L24.5,31.1 C24.6,30.9 24.7,30.9 24.7,30.9 C24.7,30.9 24.8,31 24.9,31.1 L27.1,34.2 C27.2,34.3 27.2,34.4 27.2,34.5 C27.2,34.5 27.2,34.6 27.2,34.6 C27.2,34.7 27.2,34.7 27.2,34.8 C27.2,34.8 27.1,34.9 26.9,34.9 L9,34.9 C8.9,34.9 8.8,34.8 8.7,34.8 C8.6,34.7 8.6,34.6 8.6,34.3 C8.6,34 8.7,33.9 9,33.9 L16.1,33.9 L16.1,20.1 L8.6,20.1 C8.4,20.1 8.3,20 8.3,19.9 C8.2,19.8 8.2,19.7 8.2,19.4 C8.2,19.1 8.3,19 8.5,19 L16.1,19 Z" id="Shape"></path>
                <path d="M32.8,28.5 L32.8,32 C32.8,32.2 32.8,32.4 32.7,32.6 C32.6,32.8 32.5,32.9 32.3,33 C32.1,33.1 31.8,33.2 31.3,33.2 C30.9,33.2 30.6,33.1 30.6,32.9 C30.6,32.7 30.5,32.5 30.5,32.4 L30.6,28 L30.6,7.5 C30.6,4.9 30.6,3.7 30.6,3.7 C30.6,3.7 30.8,3.8 31.1,4 L32.9,5.1 L36.7,5.1 L37.3,3.8 C37.5,3.3 37.7,3.1 37.8,3.1 C37.9,3.1 38,3.2 38.1,3.3 L39.9,5.1 C40.1,5.4 40.2,5.5 40.2,5.7 C40.2,5.8 40.1,5.9 40,6.1 L39.3,7 L39.3,25 L39.4,29.7 C39.4,29.9 39.3,30.1 39.3,30.2 C39.3,30.3 39.1,30.5 38.9,30.7 C38.7,30.9 38.3,31 37.8,31 C37.3,31 37,30.9 37,30.7 C36.9,30.5 36.9,30.3 36.9,30 L36.9,28.3 L32.8,28.3 L32.8,28.5 Z M36.9,16.2 L36.9,6.2 L32.9,6.2 L32.9,16.2 L36.9,16.2 Z M36.9,27.4 L36.9,17.3 L32.9,17.3 L32.9,27.4 L36.9,27.4 Z M51.8,11.6 L52.8,9.7 C53.1,9.2 53.3,8.9 53.3,9 C53.4,9 53.5,9.2 53.7,9.3 L56,12 C56,12.1 56.1,12.1 56.1,12.2 C56.1,12.3 56.1,12.4 56.1,12.5 C56.1,12.6 56,12.7 55.9,12.7 L50.8,12.7 L50.8,35 C50.8,35.8 50.4,36.4 49.7,36.7 C49,37 48.5,37.2 48.1,37.2 C47.8,37.2 47.6,37.3 47.4,37.4 C47.2,37.5 47.2,37.5 47.1,37.3 C47.1,37.3 47,36.9 47,36.1 C47,35.3 46.4,34.6 45.1,33.9 L44.4,33.5 C44.3,33.5 44.3,33.4 44.3,33.3 C44.3,33.2 44.3,33.2 44.3,33.1 C44.3,33 44.3,33 44.3,32.9 C44.3,32.8 44.4,32.8 44.6,32.8 L45.3,33 C45.8,33.1 46.4,33.2 47,33.2 C47.6,33.2 47.9,33.1 48,33 C48.1,32.8 48.1,32.6 48.1,32.3 L48.1,12.7 L40.1,12.7 L40,12.7 C39.8,12.5 39.8,12.3 39.8,12 C39.8,11.7 39.9,11.6 40.1,11.6 L48.2,11.6 L48.2,4.7 L48.1,0.5 C48.2,0.5 48.3,0.5 48.6,0.6 L51.5,1.6 C51.7,1.7 51.8,1.8 51.8,1.9 C51.8,2 51.7,2.1 51.6,2.3 L50.8,3.3 L50.8,11.7 L51.8,11.7 L51.8,11.6 Z M41.4,16.1 C41.4,15.9 41.5,15.8 41.6,15.8 C41.7,15.8 42.1,16.2 42.8,16.8 C43.5,17.4 44.1,18.2 44.5,19 C44.9,19.8 45.1,20.6 45.1,21.5 C45.1,22.4 45,23.1 44.7,23.7 C44.5,24.3 44,24.6 43.4,24.6 C42.9,24.6 42.6,24.4 42.3,24 C42.1,23.6 42,23.2 42,22.7 C42,22.5 42,22.1 42.1,21.5 C42.2,20.9 42.2,20.4 42.2,20.1 C42.2,20 42.2,19.7 42.2,19.3 C42.2,18.9 42.1,18.4 42,18 C41.9,17.6 41.8,17.2 41.6,16.9 C41.4,16.6 41.4,16.5 41.4,16.4 C41.4,16.3 41.4,16.2 41.4,16.1 Z" id="Shape"></path>
                <path d="M71,16.6 L71,5.2 L70.9,1.2 C71,1.2 71.1,1.2 71.5,1.3 L74.4,2.1 C74.6,2.2 74.7,2.3 74.8,2.4 C74.9,2.5 74.8,2.7 74.6,2.9 L73.8,3.8 L73.8,16.5 L81,16.5 L82.5,13.9 C82.6,13.7 82.7,13.5 82.8,13.5 C82.9,13.5 83,13.6 83.3,13.9 L85.5,16.6 C85.7,16.8 85.7,17 85.7,17.2 C85.7,17.3 85.6,17.4 85.6,17.5 C85.6,17.6 85.4,17.6 85.3,17.6 L82,17.6 L77,17.6 C76.7,18.1 76.5,18.4 76.4,18.6 L76.4,32.4 C76.4,32.8 76.5,33.1 76.7,33.3 C76.9,33.5 77.7,33.6 79.3,33.6 C81,33.6 82,33.4 82.3,32.9 C82.6,32.5 82.9,32 83.2,31.4 C83.5,30.8 83.7,30.3 83.9,29.6 L84.9,26.6 C85,26.4 85.1,26.3 85.2,26.3 C85.3,26.3 85.3,26.4 85.4,26.6 C85.5,26.8 85.4,26.9 85.4,26.9 L85,30 C84.9,30.6 84.9,31.2 84.9,31.6 C84.9,32 85,32.5 85.2,32.9 C85.4,33.3 85.5,33.5 85.5,33.6 C85.5,33.7 85.5,33.8 85.6,33.9 C85.7,34 85.6,34.1 85.6,34.2 C85.6,34.3 85.6,34.3 85.6,34.4 C85.6,34.6 85.5,34.8 85.4,35.2 C85.3,35.5 84.9,35.9 84.2,36.5 C83.5,37 81.9,37.3 79.5,37.3 C76.8,37.3 75.2,37 74.8,36.5 C74.4,36 74.2,35.5 74.1,35.1 C74,34.7 74,34.2 74,33.5 L74,17.7 L69.3,17.7 L71.2,18.6 C71.4,18.7 71.6,18.9 71.6,19 C71.6,19.2 71.5,19.3 71.3,19.4 L70.7,19.8 C70.3,22.3 70.1,24.2 69.8,25.4 C69.6,26.6 69.3,27.8 68.8,28.9 C68.4,30 67.8,31 67.1,31.9 C66.4,32.8 65.5,33.7 64.4,34.6 C63.3,35.5 62.3,36.2 61.2,36.7 L60,37.3 C59.9,37.4 59.8,37.4 59.7,37.4 C59.6,37.4 59.6,37.4 59.5,37.3 C59.5,37.3 59.4,37.2 59.4,37.1 C59.4,37 59.5,36.9 59.6,36.8 L60.6,36 C62.9,34.2 64.4,32.5 65.1,30.8 C65.8,29.1 66.4,27.7 66.6,26.5 C66.9,25.3 67.1,24.1 67.2,22.8 C67.3,21.5 67.4,20.6 67.5,20 C67.5,19.4 67.6,18.7 67.6,17.7 L59.6,17.7 C59.4,17.7 59.2,17.5 59.2,17.2 C59.2,16.8 59.3,16.7 59.6,16.7 L71,16.7 L71,16.6 Z M63.9,6.8 L63.3,5.8 C63.2,5.7 63.2,5.5 63.2,5.4 C63.2,5.3 63.3,5.2 63.4,5.2 C63.6,5.2 64.2,5.7 65.2,6.5 C66.2,7.3 66.8,8.1 67.3,8.7 C67.8,9.4 68.1,10 68.3,10.6 C68.5,11.2 68.6,11.8 68.6,12.4 C68.6,13.2 68.4,13.9 68,14.3 C67.6,14.8 67.2,15 66.8,15 C66.3,15 66,14.8 65.8,14.3 C65.6,13.8 65.4,13.2 65.3,12.5 L65.2,10.7 C65.1,10.2 65,9.6 64.9,9 C64.6,8.3 64.3,7.6 63.9,6.8 Z M81,8 C79.1,10.8 77.3,13.1 75.7,15 L74.8,16 C74.6,16.2 74.5,16.3 74.4,16.2 C74.3,16.1 74.3,16 74.3,16 C74.3,15.9 74.3,15.8 74.4,15.7 L75.1,14.2 C75.5,13.3 76,12.1 76.7,10.5 C77.3,8.9 77.8,7.8 78,7.2 L78.6,5.3 L78.9,4.4 C78.9,4.3 79,4.2 79,4.2 L79.2,4.4 L81.8,6.7 C82.1,7 82.2,7.2 82.2,7.4 C82.2,7.6 82.1,7.7 81.9,7.7 L81,8 Z" id="Shape"></path>
                <path d="M97,14 L94.8,18.2 L95.5,18.5 C95.8,18.7 96,18.8 96,18.8 C96,18.9 96.1,18.9 96.1,19 C96.1,19.1 96,19.2 95.8,19.4 L95.4,19.9 L95.4,33 L95.5,36.8 C95.3,37.2 95.1,37.5 94.7,37.6 C94.3,37.7 94,37.8 93.7,37.8 C93.5,37.8 93.3,37.7 93.2,37.6 C93.1,37.5 93,37.3 93,37.1 L93.1,33.1 L93.1,21.1 C92.1,22.7 91.4,23.8 91,24.3 L90,25.8 C89.5,26.5 89.2,26.8 89.1,26.8 C89.1,26.8 89,26.8 89,26.7 C89,26.7 89,26.6 89,26.5 C89,26.4 89,26.3 89.1,26.2 L89.6,25.2 L90.6,23 C92.1,19.7 93.4,16.3 94.4,12.8 L94.9,10.9 C94.9,10.8 95,10.7 95,10.7 C95,10.7 95.1,10.8 95.4,10.9 L97.7,12.6 C97.9,12.8 98.1,12.9 98.1,13 C98.2,13.1 98.2,13.2 98.2,13.3 C98.2,13.4 98.1,13.5 97.8,13.6 L97,14 Z M89.4,6.8 C89.2,6.8 89.1,6.7 89,6.7 C88.9,6.6 88.9,6.4 88.9,6.2 C88.9,6 89,5.8 89.3,5.8 L96.9,5.8 L96.9,3.3 L96.8,0.9 C96.8,0.8 96.9,0.8 96.9,0.8 C96.9,0.8 97.1,0.8 97.4,0.9 L99.7,1.6 C100,1.7 100.2,1.8 100.2,1.8 C100.2,1.8 100.3,1.9 100.3,1.9 C100.3,1.9 100.3,2 100.2,2.2 C100.1,2.4 100,2.5 99.9,2.6 L99.4,3.1 L99.4,5.7 L104.1,5.7 L104.1,3.6 L104,1.1 C104.1,1 104.1,1 104.1,1 C104.1,1 104.3,1 104.5,1.1 L107,1.8 C107.3,1.9 107.4,1.9 107.5,2 C107.6,2.1 107.6,2.1 107.6,2.2 C107.6,2.3 107.6,2.4 107.5,2.5 C107.4,2.6 107.4,2.8 107.3,2.9 L106.7,3.6 L106.7,5.9 L110.5,5.9 L111.5,4.2 C111.8,3.7 112,3.5 112,3.5 C112,3.5 112.3,3.7 112.6,4 L114.1,5.8 C114.5,6.2 114.6,6.5 114.6,6.7 C114.6,6.9 114.5,7 114.3,7 L106.7,7 L106.7,8 L106.8,11 C106.7,11.4 106.5,11.6 106.1,11.8 C105.7,12 105.4,12.1 105,12.1 C104.6,12.1 104.4,12.1 104.3,12 C104.2,11.9 104.2,11.8 104.1,11.6 L104,8 L104,6.8 L99.3,6.8 L99.3,8 L99.4,10.7 C99.2,11.5 98.5,11.8 97.6,11.8 C97.4,11.8 97.2,11.8 97.1,11.7 C97,11.6 96.9,11.5 96.8,11.2 L96.9,8 L96.9,6.7 L89.6,6.7 L89.4,6.8 Z M112.2,24.8 L106.1,24.8 L106.1,34.7 L109.9,34.7 L111,32.8 C111.3,32.4 111.4,32.2 111.6,32.2 C111.7,32.2 111.9,32.3 112.1,32.7 L113.6,34.7 C113.8,35 114,35.2 114,35.3 C114,35.4 114.1,35.5 114.1,35.5 C114.1,35.5 114.1,35.6 114,35.7 C113.9,35.8 113.8,35.8 113.8,35.8 L97,35.8 L96.9,35.8 C96.8,35.8 96.7,35.7 96.6,35.7 C96.5,35.6 96.5,35.5 96.5,35.2 C96.5,34.9 96.6,34.8 96.9,34.8 L103.5,34.8 L103.5,24.9 L96.3,24.9 C96.1,24.9 95.9,24.7 95.9,24.3 C95.9,23.9 96,23.7 96.3,23.7 L103.5,23.7 L103.5,15.7 C102,15.9 100.5,16 99.1,16.1 L97.8,16.2 C97.7,16.2 97.6,16.2 97.4,16.2 C97.2,16.2 97.1,16.2 97,16.2 C96.9,16.2 96.9,16.1 96.8,16.1 C96.8,16.1 96.7,16 96.7,15.9 C96.7,15.8 96.8,15.7 97,15.6 L97.7,15.5 L99,15.2 C103.2,14.2 106.4,13.1 108.5,12 L109.6,11.4 L109.9,11.2 C109.9,11.2 110,11.4 110.3,11.7 L112.1,13.9 C112.4,14.3 112.5,14.5 112.5,14.6 C112.5,14.7 112.4,14.8 112.2,14.8 L110,15 L108.2,15.2 L106.5,15.4 C106.5,15.5 106.5,15.6 106.5,15.7 C106.5,15.8 106.3,16.2 106,16.7 L106,23.7 L110.4,23.7 L111.3,22.2 C111.6,21.7 111.8,21.3 111.9,21.3 C112,21.2 112.1,21.2 112.2,21.3 C112.3,21.4 112.5,21.6 112.8,21.9 L114.2,23.7 C114.5,24.1 114.6,24.4 114.6,24.5 C114.6,24.7 114.5,24.8 114.4,24.8 L112.2,24.8 Z" id="Shape"></path>
                <path d="M122.5,26.2 L122.5,17.5 L122.4,13.2 C122.5,13 122.5,13 122.5,13 C122.5,13 122.7,13.1 122.9,13.2 L125.3,14.8 L129.5,14.8 L129.5,12.5 L129.4,9.3 C129.5,9.2 129.5,9.1 129.6,9.1 L129.8,9.2 L132.4,10 C132.6,10.1 132.7,10.1 132.8,10.2 C132.9,10.3 132.9,10.4 132.9,10.5 C132.9,10.6 132.8,10.8 132.6,11 L131.9,11.8 L131.9,14.9 L136.6,14.9 L137.3,13.8 C137.5,13.4 137.7,13.2 137.8,13.2 C137.9,13.2 138,13.3 138.1,13.4 L139.8,15 C140.1,15.3 140.3,15.5 140.3,15.6 C140.3,15.7 140.4,15.8 140.4,15.9 C140.4,16 140.3,16.2 140,16.5 L139.4,17.1 L139.4,26.3 L140.7,26.3 L141.8,24.4 C142.1,23.9 142.3,23.6 142.4,23.6 C142.5,23.6 142.7,23.8 143,24.2 L144.5,26.2 C144.7,26.4 144.8,26.6 144.8,26.8 C144.9,26.9 144.9,27.1 144.9,27.2 C144.9,27.3 144.8,27.4 144.7,27.4 L139.4,27.4 L139.4,35.5 C139.4,35.9 139.3,36.2 139.2,36.5 C139.1,36.8 138.6,37.2 137.9,37.5 C137.2,37.8 136.5,38 136,38 C135.9,38 135.8,38 135.8,37.9 C135.7,37.9 135.7,37.6 135.6,37.2 C135.5,36.8 135.4,36.3 135.1,36 C134.9,35.6 134.6,35.3 134.3,35.1 L133.2,34.5 C133.1,34.4 133,34.4 133,34.3 C133,34.2 132.9,34.1 132.9,34 C132.9,33.9 133,33.8 133.2,33.9 L134.3,34.1 C134.5,34.1 135,34.2 135.7,34.2 C136.4,34.2 136.8,34 136.8,33.4 L136.8,27.4 L124.8,27.4 L124.8,36.9 C124.8,37.2 124.6,37.5 124.1,37.6 C123.6,37.8 123.2,37.8 123,37.8 C122.8,37.8 122.6,37.8 122.6,37.7 C122.5,37.6 122.5,37.5 122.4,37.3 L122.5,32.9 L122.5,27.4 L117.9,27.4 C117.7,27.4 117.6,27.3 117.6,27.3 C117.5,27.2 117.5,27 117.5,26.7 C117.5,26.4 117.6,26.2 117.9,26.2 L122.5,26.2 Z M140.5,6.7 L135.9,6.7 L135.9,8 L136,10.5 C135.8,11.2 135.2,11.6 134.3,11.6 C134.1,11.6 133.9,11.6 133.8,11.5 C133.7,11.4 133.6,11.3 133.5,11.2 L133.6,8.1 L133.6,6.7 L128.5,6.7 L128.5,8 L128.6,10.6 C128.4,11.3 127.8,11.6 126.8,11.6 C126.5,11.6 126.3,11.6 126.2,11.4 C126.1,11.3 126,11.1 125.9,11 L126,8.1 L126,6.6 L123,6.6 L118.8,6.6 C118.6,6.6 118.4,6.4 118.4,6 C118.4,5.6 118.5,5.4 118.8,5.4 L126,5.4 L126,3.9 L125.9,0.8 C126,0.7 126,0.7 126,0.7 C126,0.7 126.1,0.7 126.3,0.8 L128.7,1.4 C129.1,1.5 129.3,1.6 129.4,1.6 C129.5,1.6 129.5,1.7 129.5,1.8 C129.5,1.9 129.4,2.1 129.1,2.4 L128.5,3 L128.5,5.3 L133.6,5.3 L133.6,3.9 L133.5,1 C133.6,0.8 133.7,0.8 133.9,0.8 L136.2,1.4 C136.4,1.5 136.6,1.6 136.7,1.6 C136.8,1.6 136.9,1.8 136.9,1.9 C136.9,2 136.7,2.2 136.5,2.5 L136,3 L136,5.2 L139.8,5.2 L140.8,3.5 C141.1,2.9 141.3,2.6 141.4,2.6 C141.5,2.6 141.7,2.8 142.1,3.3 L143.8,5.3 C144.1,5.7 144.2,5.9 144.2,6 C144.2,6.2 144.1,6.3 143.9,6.3 L140.5,6.3 L140.5,6.7 Z M124.9,16 L124.9,20.1 L129.5,20.1 L129.5,16 L124.9,16 Z M129.5,26.2 L129.5,21.3 L124.9,21.3 L124.9,26.2 L129.5,26.2 Z M136.8,20.1 L136.8,16 L131.8,16 L131.8,20.1 L136.8,20.1 Z M136.8,26.2 L136.8,21.3 L131.8,21.3 L131.8,26.2 L136.8,26.2 Z" id="Shape"></path>
                <path d="M167.8,25.4 L165,25.4 L165,29.2 C165,29.6 164.8,29.9 164.5,30 C164.2,30.2 163.9,30.2 163.5,30.2 C163.2,30.2 163.1,30.2 163,30 C162.9,29.9 162.9,29.7 162.8,29.5 L162.9,24.7 L162.9,11.1 L162.8,7.3 C162.9,7.2 162.9,7.1 163,7.1 L163.5,7.5 L165,8.6 L167.6,8.6 L168.1,7.7 C168.3,7.3 168.5,7.1 168.6,7.1 C168.7,7.1 168.8,7.2 169.1,7.4 L170.4,8.6 C170.6,8.8 170.8,9 170.8,9.1 C170.9,9.2 170.9,9.3 170.9,9.4 C170.9,9.5 170.7,9.7 170.5,10.1 L170,10.7 L170,22 L170.1,27.1 C170,27.4 170,27.6 169.9,27.7 C169.8,27.8 169.7,28 169.4,28.1 C169.2,28.2 168.9,28.3 168.6,28.3 C168.1,28.3 167.8,28.1 167.8,27.7 L167.8,25.4 Z M167.8,9.7 L165,9.7 L165,24.2 L167.9,24.2 L167.9,9.7 L167.8,9.7 Z M175.2,10.3 L184.6,10.3 L185.3,9 C185.6,8.5 185.8,8.2 185.9,8.2 C186,8.2 186.2,8.4 186.5,8.8 L187.8,10.4 C188,10.7 188.2,10.9 188.2,11.1 C188.2,11.3 188.1,11.4 187.9,11.4 L182.4,11.4 C182.3,11.6 182.2,11.8 182.2,11.9 C182.2,12 182,12.2 181.8,12.5 L181.8,18 L184,18 L184.6,16.9 C184.9,16.4 185.1,16.2 185.1,16.2 C185.2,16.2 185.4,16.4 185.8,16.8 L186.8,18 C187.1,18.4 187.3,18.7 187.3,18.9 C187.3,19.1 187.2,19.2 187,19.2 L181.8,19.2 L181.8,25.6 L184,25.6 L184.7,24.4 C184.9,24 185.1,23.7 185.2,23.8 C185.3,23.8 185.4,23.9 185.5,24.1 L186.7,25.7 C186.9,26 187,26.2 187.1,26.3 C187.2,26.4 187.2,26.5 187.2,26.6 C187.2,26.7 187.1,26.8 187,26.8 L181.7,26.8 L181.7,33.8 L184.9,33.8 L185.7,32.4 C185.9,32 186.1,31.7 186.2,31.7 C186.3,31.6 186.3,31.6 186.4,31.7 C186.5,31.8 186.7,32 187,32.3 L188.2,33.8 C188.5,34.2 188.7,34.5 188.7,34.6 C188.7,34.8 188.6,34.9 188.3,34.9 L186,34.9 L175.4,34.9 L175.4,37.5 C175.4,37.7 175.3,37.9 175,38.1 C174.8,38.3 174.4,38.5 174,38.5 C173.6,38.5 173.3,38.5 173.3,38.4 C173.2,38.3 173.2,38.1 173.1,37.9 L173.2,33.3 L173.2,14.4 C172.6,15.5 172.1,16.5 171.5,17.5 L170.9,18.5 C170.6,19 170.3,19.3 170.2,19.3 C170.2,19.3 170.1,19.3 170.1,19.3 C170.1,19.3 170.1,19.2 170.1,19.1 C170.1,19 170.1,18.9 170.2,18.8 L170.6,17.8 L171.1,16.4 L172,14 C172.7,12 173.3,9.8 173.9,7.5 C174.4,5.1 174.8,3.6 174.9,3 L175.3,0.9 C175.3,0.8 175.3,0.7 175.4,0.7 C175.4,0.7 175.6,0.8 175.8,0.9 L178.4,2.6 C178.7,2.8 178.9,3 178.9,3.1 C178.9,3.3 178.8,3.4 178.6,3.6 L178,4 C177.1,5.9 176.3,8 175.2,10.3 Z M179.5,18 L179.5,11.4 L175.5,11.4 L175.5,18 L179.5,18 Z M175.5,25.6 L179.5,25.6 L179.5,19.2 L175.5,19.2 L175.5,25.6 Z M179.5,33.7 L179.5,26.7 L175.5,26.7 L175.5,33.7 L179.5,33.7 Z M179.3,2.6 C179.3,2.5 179.4,2.4 179.6,2.4 C179.7,2.4 180.1,2.6 180.9,3.1 C181.7,3.6 182.3,4.2 182.7,5.1 C183,5.9 183.2,6.6 183.2,7.2 C183.2,7.8 183,8.4 182.7,8.9 C182.4,9.4 182,9.7 181.5,9.7 C181.1,9.7 180.7,9.5 180.5,9.1 C180.3,8.7 180.2,8.4 180.1,8.1 C180.1,7.8 180.1,7.5 180.1,7.2 L180.1,5.9 C180.1,5.4 180.1,4.9 180,4.6 C179.9,4.3 179.9,4 179.7,3.7 L179.3,2.9 C179.3,2.8 179.3,2.7 179.3,2.6 Z" id="Shape"></path>
                <path d="M200.5,4.3 C200.1,5.4 199.8,6.2 199.6,6.8 C199.4,7.4 198.8,8.9 197.8,11.3 L199.5,12.3 C199.6,12.4 199.7,12.5 199.8,12.6 C199.9,12.7 199.9,12.8 199.9,12.9 C199.9,13 199.8,13.1 199.7,13.3 L198.8,14.2 L198.8,32.7 L198.9,37 C198.8,37.3 198.7,37.5 198.6,37.7 C198.5,37.9 198.2,37.9 197.9,38 C197.6,38.1 197.3,38.1 197.1,38.1 C196.7,38.1 196.5,38 196.4,37.9 C196.3,37.8 196.3,37.6 196.2,37.3 L196.3,31.8 L196.3,14.5 C194.8,17 193.6,19 192.5,20.5 L191.9,21.3 C191.9,21.4 191.8,21.4 191.7,21.5 C191.6,21.6 191.5,21.6 191.5,21.5 C191.5,21.5 191.5,21.4 191.5,21.3 C191.5,21.2 191.5,21.1 191.6,20.9 L192,20.1 C192.2,19.7 192.5,18.9 193,17.7 C193.5,16.5 193.9,15.3 194.4,14 C194.9,12.7 195.5,10.8 196.2,8.4 C196.9,6 197.4,4.1 197.7,2.6 L197.9,1.6 L198,1 C198,1 198.2,1.1 198.6,1.3 L201.3,3 C201.6,3.2 201.8,3.4 201.7,3.6 C201.6,3.8 201.5,3.9 201.3,4 L200.5,4.3 Z M213.6,16.3 L214.7,14.2 C214.9,13.8 215.1,13.6 215.2,13.6 C215.3,13.6 215.5,13.8 215.8,14.2 L217.7,16.5 C217.8,16.6 217.8,16.7 217.9,16.8 C218,16.9 218,17 218,17.1 C218,17.2 218,17.2 217.9,17.3 C217.8,17.4 217.7,17.4 217.7,17.4 L207,17.4 L206.1,22.5 L211.6,22.5 L212.2,21.4 C212.4,21.1 212.5,20.9 212.6,20.9 C212.7,20.9 213,21.1 213.4,21.4 L215.7,23.6 C215.8,23.7 215.8,23.8 215.8,23.9 C215.8,24 215.8,24.1 215.8,24.1 C215.8,24.1 215.8,24.2 215.8,24.3 C215.8,24.4 215.7,24.4 215.7,24.5 C215.6,24.6 215.5,24.7 215.2,24.8 C214.9,24.9 214.7,25.1 214.4,25.3 C214.2,25.5 213.9,25.7 213.6,26.1 C213.3,26.4 212.7,27.2 211.8,28.5 L210.3,30.7 C211.8,31.6 212.7,32.5 213,33.3 C213.4,34.2 213.6,34.9 213.6,35.5 C213.6,36.1 213.4,36.7 213.1,37.3 C212.8,37.8 212.4,38.1 212,38.1 C211.9,38.1 211.8,38.1 211.5,38 C211.3,37.9 211,37.6 210.5,36.9 L209.7,35.6 C208.4,33.5 207.2,32 206.2,31.3 C205.2,30.6 204.5,30.1 204.2,30 C203.9,29.9 203.6,29.7 203.5,29.6 C203.4,29.5 203.3,29.4 203.3,29.4 C203.3,29.4 203.3,29.3 203.3,29.3 C203.3,29.1 203.4,29 203.6,29 C205.7,29.2 207.6,29.7 209.4,30.4 C209.8,28.9 210.2,27.6 210.5,26.7 C210.8,25.7 211,24.8 211.2,23.9 L206,23.9 L205,25.3 C204.7,25.7 204.6,25.8 204.5,25.8 C204.4,25.8 204.3,25.6 204,25.3 L202.7,23.5 C202.4,23.1 202.2,22.9 202.3,22.8 C202.3,22.7 202.3,22.7 202.4,22.6 C202.4,22.6 202.5,22.5 202.7,22.4 C202.9,22.3 203.1,22.1 203.3,21.9 C203.5,21.7 203.7,21.5 203.7,21.4 C203.8,21.3 203.8,20.9 204,20.3 L204.5,17.7 L200.1,17.7 L199.9,17.5 C199.8,17.4 199.8,17.2 199.8,17 C199.8,16.8 199.9,16.7 200.1,16.7 L204.7,16.7 L205.5,11.2 L200.5,11.2 C200.4,11.2 200.4,11.1 200.4,11 C200.3,10.9 200.3,10.7 200.3,10.5 C200.3,10.3 200.4,10.2 200.6,10.2 L205.6,10.2 C205.6,9.6 205.8,8.8 205.9,7.6 C206.1,6.5 206.2,5.5 206.2,4.8 L206.3,2.7 C206.4,1.9 206.4,1.5 206.4,1.4 C206.4,1.4 206.7,1.5 207.1,1.7 L209.7,3 C209.9,3.1 210,3.2 210.1,3.3 C210.2,3.4 210.2,3.4 210.2,3.5 C210.2,3.6 210.1,3.8 209.8,3.9 L208.9,4.6 L208.2,10.1 L212.5,10.1 L213.9,7.7 C214.1,7.4 214.2,7.3 214.3,7.3 C214.4,7.3 214.5,7.5 214.8,7.8 L216.9,10.4 C217,10.6 217.1,10.8 217.2,10.9 C217.3,11.1 217.1,11.2 216.7,11.2 L208.2,11.2 L207.4,16.7 L213.6,16.7 L213.6,16.3 Z" id="Shape"></path>
                <path d="M242.8,17.4 L244.1,15.1 C244.2,14.9 244.3,14.7 244.4,14.7 C244.5,14.7 244.7,14.8 244.9,15.1 L246.9,17.5 C247.1,17.7 247.2,17.9 247.2,18 C247.2,18.3 247,18.4 246.8,18.4 L243.4,18.4 L242.5,18.4 L242.1,19.3 L242.1,35.8 C242.1,36.4 241.9,36.9 241.6,37.2 C241.3,37.5 240.8,37.8 240.2,38.1 C239.6,38.4 239.1,38.5 238.8,38.5 C238.7,38.5 238.7,38.5 238.6,38.5 C238.6,38.5 238.6,38.4 238.5,38.4 C238.5,38.3 238.5,38.1 238.4,37.7 C238.3,37.3 238.2,36.9 238,36.5 C237.8,36.1 237.5,35.8 237.2,35.6 L236.6,35.3 L235.7,34.8 C235.6,34.7 235.5,34.7 235.5,34.6 C235.5,34.5 235.4,34.4 235.4,34.3 C235.4,34.2 235.5,34.1 235.7,34.1 L237,34.2 C237.7,34.3 238.2,34.3 238.6,34.3 C239,34.3 239.2,34.2 239.3,34 C239.4,33.8 239.4,33.6 239.4,33.3 L239.4,18.5 L221,18.5 C220.8,18.5 220.7,18.3 220.6,17.9 C220.6,17.5 220.7,17.3 221,17.3 L242.8,17.3 L242.8,17.4 Z M241.4,7.9 L234.2,7.9 L233.8,9.6 C235.6,10 237.1,10.4 238.1,10.7 C239.2,11 240.1,11.6 240.9,12.5 C241.7,13.3 242.1,14.1 242.1,14.7 C242.1,15.3 242,15.8 241.8,16.2 C241.5,16.7 241.2,17 240.7,17 C240.5,17 240.2,16.9 240,16.8 C239.8,16.6 239.6,16.5 239.5,16.3 C239.4,16.1 239,15.6 238.3,14.6 C237.6,13.6 237,12.8 236.5,12.3 C236,11.8 235,11 233.7,10.1 C233.4,10.8 233,11.5 232.6,12.4 C232.1,13.3 231.1,14.1 229.6,15 C228.1,15.8 226.6,16.5 225.1,16.9 L224,17.2 C224,17.2 223.9,17.2 223.8,17.2 C223.7,17.2 223.7,17.2 223.6,17.1 C223.5,17 223.5,17 223.5,16.9 C223.5,16.8 223.6,16.7 223.8,16.6 L224.8,16.1 C227.5,14.8 229.2,13.5 229.8,12.2 C230.5,10.9 230.9,10 231,9.5 C231.1,9 231.3,8.4 231.4,7.9 L222.9,7.9 C222.7,7.9 222.6,7.7 222.5,7.3 C222.4,6.9 222.6,6.7 222.9,6.7 L231.5,6.7 C231.5,6.5 231.5,6.3 231.6,6.1 L231.7,5.5 C231.8,4.8 231.8,4.1 231.8,3.4 L231.8,2.3 L231.7,0.5 C231.8,0.4 232,0.3 232.2,0.4 L235.3,1.4 C235.6,1.5 235.8,1.7 235.7,1.9 C235.6,2.1 235.5,2.3 235.3,2.5 L234.7,3.1 C234.6,3.9 234.6,4.5 234.6,4.9 C234.6,5.3 234.5,5.9 234.4,6.7 L241.1,6.7 L242.3,4.7 C242.4,4.5 242.6,4.3 242.6,4.3 C242.7,4.3 242.9,4.4 243.1,4.7 L244.9,6.8 C245.1,7 245.2,7.1 245.2,7.2 C245.2,7.3 245.3,7.4 245.3,7.4 C245.3,7.4 245.3,7.5 245.2,7.6 C245.1,7.7 245,7.7 244.8,7.7 L241.5,7.7 L241.4,7.7 L241.4,7.9 Z M232.8,30.6 L227.6,30.6 L227.6,32.8 C227.6,33 227.5,33.3 227.3,33.6 C227.1,33.9 226.6,34.1 226,34.1 C225.8,34.1 225.6,34.1 225.5,34 C225.4,33.9 225.3,33.8 225.2,33.6 L225.3,30.1 L225.3,24.3 L225.2,21 C225.2,20.9 225.3,20.9 225.4,20.9 C225.5,20.9 225.7,21 226,21.3 L227.9,22.7 L232.6,22.7 L233.4,21.3 C233.5,21.2 233.6,21.1 233.7,21.1 C233.8,21.1 233.9,21.2 234.2,21.4 L235.8,22.9 C235.9,23 236,23.1 236.1,23.2 C236.1,23.3 236.2,23.4 236.1,23.4 C236.1,23.5 236,23.6 235.9,23.7 L235.4,24.4 L235.4,29.6 L235.5,31.5 C235.4,32.3 234.7,32.8 233.7,32.8 C233.2,32.8 233,32.6 233,32.1 L233,30.6 L232.8,30.6 Z M232.8,29.5 L232.8,23.7 L227.6,23.7 L227.6,29.5 L232.8,29.5 Z" id="Shape"></path>
                <path d="M258.2,16.6 L258.7,15.5 C258.8,15.3 258.9,15.1 259,15.1 C259.1,15.1 259.2,15.2 259.4,15.4 L261.2,17.1 C261.5,17.4 261.7,17.7 261.8,17.7 C261.8,17.8 261.9,17.9 261.9,18 C261.9,18.1 261.8,18.2 261.6,18.4 L260.8,18.9 C259.6,22.1 258.7,24.5 257.9,26.1 C257.2,27.8 256.2,29.3 255,30.8 C253.8,32.3 252.5,33.5 251.3,34.6 L250.9,35 C250.7,35.2 250.6,35.2 250.5,35.2 C250.4,35.1 250.4,35 250.4,34.9 C250.4,34.8 250.4,34.7 250.5,34.6 L251,34 C252,32.7 253,31.3 253.9,29.8 C254.8,28.3 255.7,26.2 256.5,23.6 C257.3,21 257.9,19.1 258.2,17.8 L252,17.8 C251.8,17.8 251.6,17.6 251.6,17.2 C251.6,16.8 251.7,16.6 252,16.6 L258.2,16.6 Z M262.9,10.2 L255.9,10.2 C255.7,10.2 255.5,10 255.5,9.6 C255.5,9.2 255.6,9 255.9,9 L262.8,9 L263.3,7.8 C263.4,7.6 263.5,7.4 263.6,7.4 C263.7,7.4 263.9,7.5 264.2,7.8 L265.9,9.1 C266.2,9.3 266.3,9.5 266.4,9.6 C266.5,9.7 266.5,9.8 266.5,9.9 C266.5,10 266.5,10.1 266.3,10.2 L265.8,10.8 C265.9,11.5 265.9,12 266,12.4 C266.1,12.8 266.2,13.4 266.3,14.1 C266.5,14.9 266.6,15.6 266.8,16.4 C267,17.2 267.3,18.1 267.8,19.4 C268.3,18.5 268.7,17.9 268.9,17.4 C269.1,16.9 269.6,16.1 270.2,14.9 C270.8,13.7 271.2,13 271.2,12.8 L271.4,12.3 C271.6,11.9 271.7,11.8 271.8,11.8 C271.9,11.8 272,12 272.3,12.3 L274,14.6 C274.3,15 274.5,15.3 274.5,15.4 C274.5,15.5 274.5,15.5 274.4,15.6 C274.3,15.6 274.2,15.7 274,15.7 L273.2,15.7 C271.2,17.5 269.4,19 268,20.1 C268.5,21.3 268.9,22.3 269.2,22.9 C269.5,23.5 270,24.3 270.7,25.4 C271.4,26.5 272.1,27.4 272.9,28.1 C273.7,28.8 274.3,29.4 274.9,29.8 C275.5,30.2 275.9,30.5 276.1,30.6 L276.6,30.8 C276.8,30.9 276.9,31.1 277,31.2 C277,31.4 276.9,31.5 276.8,31.5 L276.3,31.7 C275.9,31.8 275.6,31.9 275.4,32.1 C275.2,32.3 275,32.5 274.7,32.8 C274.5,33.1 274.3,33.4 274.2,33.8 C274.1,34.1 274,34.3 274,34.4 C274,34.4 273.9,34.5 273.9,34.4 C273.9,34.4 273.8,34.4 273.7,34.3 C273.6,34.3 273.5,34.2 273.4,34 C273.3,33.8 272.9,33.4 272.2,32.7 C271.5,32 270.9,31.1 270.1,29.8 C269.3,28.5 268.7,27.2 268.1,25.8 C267.6,24.4 267.2,22.9 266.8,21.3 C266.5,19.7 266.2,18.2 266,16.9 C265.8,15.6 265.7,14.2 265.6,12.8 L265.5,11.2 L265.3,11.3 L265.3,35.8 C265.3,36.7 265.1,37.2 264.6,37.5 C264.1,37.8 263.6,38 262.9,38.2 C262.3,38.4 261.9,38.4 261.8,38.2 C261.8,38.1 261.7,37.9 261.7,37.5 C261.7,37.1 261.6,36.7 261.4,36.3 C261.2,35.9 261,35.7 260.8,35.5 C260.6,35.3 260.2,35.1 259.7,34.9 L259.1,34.6 C259,34.5 258.9,34.5 258.9,34.4 C258.9,34.3 258.9,34.2 258.9,34.2 C258.9,34.1 259.1,34 259.2,34.1 L259.6,34.2 C259.6,34.2 259.9,34.3 260.6,34.4 C261.3,34.5 261.7,34.5 261.8,34.5 C262.3,34.5 262.6,34.1 262.6,33.5 L262.6,10.2 L262.9,10.2 Z M260.5,0.8 C260.5,0.7 260.6,0.6 260.9,0.6 C261.7,0.6 262.7,0.9 263.9,1.3 C265.1,1.7 265.8,2.4 265.9,3.1 C266,3.8 266.1,4.3 266.1,4.5 C266.1,4.7 266,5.1 265.9,5.6 C265.8,6.2 265.5,6.6 264.9,6.9 C264.4,7.2 263.9,7.1 263.4,6.5 C263.2,6.3 263,6 262.9,5.6 L262.7,4.2 C262.5,2.9 261.9,1.9 261.1,1.3 L260.5,0.9 C260.5,1 260.5,0.9 260.5,0.8 Z" id="Shape"></path>
                <path d="M281.6,9.5 C281.7,9.5 281.7,9.5 281.8,9.6 C281.8,9.7 282,10.2 282.3,11 C282.6,11.8 282.7,12.7 282.8,13.5 C282.9,14.3 282.9,14.9 282.9,15.3 C282.9,15.9 282.8,16.4 282.7,17 C282.6,17.5 282.3,18 282,18.3 C281.7,18.7 281.3,18.8 280.8,18.8 C280.3,18.8 280,18.6 279.8,18.2 C279.6,17.8 279.5,17.4 279.5,16.9 C279.5,16.4 279.6,15.9 280,15.3 L280.5,14.6 C281,13.8 281.3,12.9 281.4,11.8 L281.5,10.3 L281.5,9.8 C281.5,9.7 281.5,9.6 281.6,9.5 Z M285.9,3.4 L285.9,32.1 L286.1,36.8 C286,37.1 285.9,37.3 285.8,37.5 C285.7,37.7 285.4,37.8 285.1,37.9 C284.8,38 284.5,38 284.3,38 C284,38 283.8,37.9 283.7,37.8 C283.6,37.7 283.5,37.4 283.4,37.1 L283.6,31.4 L283.6,6.3 L283.4,1.1 C283.5,1 283.5,1 283.6,1 C283.7,1 283.8,1 284.1,1.1 L286.5,1.9 C286.7,2 286.7,2 286.8,2.1 C286.8,2.2 286.9,2.2 286.9,2.3 C286.9,2.4 286.8,2.5 286.6,2.7 L285.9,3.4 Z M287,9.9 C287,9.9 287.1,9.9 287.1,9.9 C287.2,9.9 287.3,10.1 287.7,10.4 C288,10.7 288.5,11.2 289,11.9 C289.6,12.6 289.8,13.3 289.8,14.2 C289.8,15.1 289.6,15.7 289.3,16.2 C289,16.7 288.6,16.9 288.2,16.9 C287.8,16.9 287.5,16.7 287.3,16.3 C287.1,15.9 287.1,15.5 287.1,15.1 C287.1,14.8 287.1,14.4 287.2,14 C287.3,13.6 287.3,13.3 287.3,13.2 C287.3,13.1 287.3,12.9 287.3,12.8 C287.3,12.7 287.3,12.5 287.3,12.3 C287.3,11.9 287.1,11.4 287,10.9 L286.8,10.4 C286.8,10 286.8,9.9 287,9.9 Z M302.2,34.4 L303.2,32.5 C303.4,32.2 303.5,32 303.5,31.9 C303.5,31.9 303.7,32 303.9,32.2 L306,34.5 C306.1,34.7 306.2,34.8 306.3,34.9 C306.4,35 306.4,35.1 306.4,35.2 C306.4,35.3 306.2,35.4 305.9,35.4 L288.1,35.4 L287.9,35.3 C287.8,35.1 287.7,34.9 287.7,34.7 C287.7,34.5 287.8,34.3 288,34.3 L302.2,34.3 L302.2,34.4 Z M301.2,4.1 L302.1,2.3 C302.3,1.9 302.4,1.7 302.5,1.7 C302.6,1.7 302.7,1.9 303.1,2.2 L305.1,4.4 C305.3,4.6 305.3,4.7 305.4,4.8 C305.4,4.9 305.4,5 305.5,5.1 C305.6,5.2 305.4,5.3 305.2,5.3 L289.2,5.3 C289,5.3 288.9,5.3 288.9,5.2 L288.8,4.9 C288.8,4.4 288.9,4.2 289.1,4.2 L301.2,4.2 L301.2,4.1 Z M293,11.2 L299.9,11.2 L300.6,9.7 C300.7,9.4 300.8,9.3 300.8,9.3 C300.8,9.3 301,9.4 301.2,9.6 L303.2,11.4 C303.4,11.6 303.5,11.7 303.6,11.8 C303.7,11.9 303.7,11.9 303.7,12 C303.7,12.1 303.6,12.2 303.4,12.5 L302.8,13.2 L302.8,25.3 L302.9,28.9 C302.9,29.1 302.7,29.4 302.6,29.8 C302.4,30.1 302,30.3 301.2,30.3 C300.5,30.3 300.2,30 300.2,29.4 L300.2,27.7 L293,27.7 L293,29.9 C293,30.2 292.9,30.5 292.8,30.9 C292.7,31.2 292.3,31.4 291.7,31.4 C291.1,31.4 290.8,31.3 290.7,31.2 C290.6,31 290.5,30.8 290.5,30.6 L290.7,26.3 L290.7,13.4 L290.6,9.6 C290.7,9.5 290.7,9.4 290.8,9.4 L291.2,9.7 L293,11.2 Z M300.2,26.4 L300.2,19.5 L293,19.5 L293,26.4 L300.2,26.4 Z M300.2,18.4 L300.2,12.3 L293,12.3 L293,18.4 L300.2,18.4 Z" id="Shape"></path>
            </g>
            <g id="Group" transform="translate(108.000000, 0.000000)">
                <path d="M4.4,6.4 C3.8,7.2 3.2,7.8 2.7,8.4 C2.2,9 1.7,9.3 1.4,9.6 C1.1,9.9 0.9,10 0.9,10 L0.6,10.2 C0.6,10.2 0.5,10.3 0.5,10.3 C0.5,10.3 0.4,10.3 0.4,10.3 C0.4,10.3 0.4,10.3 0.4,10.2 C0.4,10.1 0.4,10.1 0.5,10.1 L0.7,9.8 C1.2,9.2 1.8,8.4 2.3,7.6 C2.8,6.8 3.4,5.7 4.1,4.5 C4.8,3.3 5.2,2.3 5.4,1.5 L5.6,1.1 L5.7,0.7 C5.7,0.7 5.7,0.7 5.7,0.7 L6,0.9 L7.5,1.8 C7.6,1.8 7.6,1.9 7.6,1.9 C7.6,1.9 7.6,2 7.6,2 C7.6,2 7.6,2.1 7.5,2.2 L7,2.5 L6.9,2.6 C7.4,3.8 7.9,4.7 8.4,5.3 C8.9,5.9 9.4,6.3 9.7,6.6 C10,6.9 10.5,7.2 10.9,7.5 C11.3,7.8 11.8,8 12.2,8.1 L12.6,8.2 L12.9,8.3 C13,8.3 13,8.4 13,8.4 C13,8.4 13,8.5 13,8.5 C13,8.6 13,8.6 12.9,8.6 L12.7,8.7 C12.5,8.8 12.3,8.9 12.2,9 C12.1,9.1 12,9.2 11.8,9.4 C11.6,9.6 11.6,9.7 11.5,9.9 C11.4,10.1 11.4,10.1 11.4,10.2 C11.4,10.3 11.4,10.3 11.3,10.2 C11.2,10.2 10.8,9.9 10,9.3 C9.2,8.7 8.7,8.1 8.2,7.4 C7.7,6.7 7.4,6 7.1,5.3 C6.8,4.6 7.1,4 7,3.4 L6.8,2.7 C5.9,4.4 5.1,5.6 4.4,6.4 Z M7.5,9.3 C7.5,9.3 7.4,9.4 7.4,9.5 C7.4,9.6 7.3,9.7 7.2,9.7 L7.2,12.6 L8.5,12.6 L9,11.7 C9.1,11.5 9.2,11.4 9.2,11.4 C9.2,11.4 9.3,11.5 9.5,11.7 L10.4,12.7 C10.5,12.8 10.6,12.9 10.5,13 C10.4,13.1 10.4,13.1 10.3,13.1 L7.1,13.1 L7.1,16.7 L10.1,16.7 L10.8,15.7 L10.9,15.5 C11,15.4 11,15.3 11,15.3 C11,15.3 11.1,15.4 11.3,15.6 L12.3,16.7 C12.4,16.8 12.4,16.9 12.4,16.9 C12.4,16.9 12.4,17 12.4,17 C12.4,17 12.3,17.1 12.2,17.1 L11.5,17.1 L0.9,17.1 C0.8,17.1 0.7,17 0.7,16.8 C0.7,16.6 0.8,16.5 0.9,16.5 L5.7,16.5 L5.7,12.9 L2.8,12.9 L2.7,12.9 C2.7,12.9 2.6,12.9 2.6,12.8 C2.6,12.7 2.6,12.7 2.6,12.5 C2.6,12.3 2.6,12.3 2.7,12.3 L5.7,12.3 L5.7,9.3 L2.7,9.3 C2.6,9.3 2.5,9.2 2.5,9 C2.5,8.8 2.5,8.7 2.7,8.7 L7.6,8.7 L8.1,7.9 C8.2,7.7 8.3,7.6 8.3,7.6 C8.3,7.6 8.4,7.7 8.6,7.8 L9.5,8.8 C9.6,8.9 9.6,9 9.6,9.1 C9.6,9.2 9.5,9.2 9.4,9.2 L8.5,9.2 L7.5,9.2 L7.5,9.3 Z" id="Shape"></path>
                <path d="M19.5,3.2 L19.8,2.5 C19.9,2.2 20,2.1 20,2.1 C20,2.1 20.1,2.2 20.3,2.4 L20.9,3.2 C21,3.4 21.1,3.5 21.1,3.5 C21.1,3.5 21.1,3.6 21,3.6 C20.9,3.6 20.9,3.6 20.9,3.6 L19.7,3.6 L19,3.6 L20.1,4.4 C20.2,4.5 20.3,4.5 20.3,4.6 C20.3,4.7 20.3,4.7 20.3,4.7 C20.3,4.7 20.2,4.8 20.1,4.8 L19.7,5 C19.3,6 19,6.7 18.7,7.2 L19.5,7.2 L19.9,6.5 C20,6.3 20.1,6.2 20.1,6.2 C20.1,6.2 20.1,6.2 20.2,6.2 C20.3,6.2 20.3,6.3 20.4,6.4 L21,7.2 C21.1,7.4 21.2,7.5 21.2,7.6 C21.2,7.6 21.2,7.7 21.1,7.7 C21,7.7 21,7.8 20.9,7.8 L18.7,7.8 C18.7,7.8 18.6,7.9 18.6,7.9 C18.6,7.9 18.5,8 18.4,8.1 L18.4,10.1 L19,10.1 L19.4,9.3 C19.5,9.2 19.5,9.1 19.6,9.1 C19.7,9.1 19.7,9.2 19.9,9.4 L20.6,10.3 C20.7,10.4 20.7,10.4 20.7,10.5 C20.7,10.5 20.7,10.6 20.7,10.6 C20.7,10.6 20.6,10.6 20.6,10.6 L18.4,10.6 L18.4,16 C18.4,16.3 18.4,16.5 18.3,16.7 C18.2,16.9 18.1,17 18,17.1 C17.9,17.2 17.7,17.3 17.5,17.4 C17.3,17.5 17.1,17.5 17,17.5 C17,17.5 17,17.5 16.9,17.5 C16.8,17.5 16.9,17.5 16.9,17.4 C16.9,17.3 16.9,17.3 16.9,17.2 C16.9,17.1 16.9,16.9 16.8,16.7 C16.7,16.5 16.6,16.3 16.4,16.1 L16,15.9 C15.9,15.8 15.9,15.8 15.9,15.7 C15.9,15.6 16,15.6 16.1,15.6 L16.5,15.7 C16.6,15.7 16.7,15.7 16.8,15.7 C16.9,15.7 16.9,15.7 17,15.7 L17.2,15.7 C17.4,15.7 17.5,15.7 17.5,15.5 L17.5,10.9 L15,10.9 L14.9,10.9 C14.8,10.8 14.8,10.7 14.8,10.6 C14.8,10.5 14.9,10.4 15,10.4 L17.6,10.4 L17.6,7.9 L14.9,7.9 L14.8,7.9 C14.8,7.9 14.7,7.9 14.7,7.8 C14.7,7.7 14.7,7.7 14.7,7.6 C14.7,7.5 14.8,7.4 14.9,7.4 L18.5,7.4 C18.6,7 18.7,6.4 18.8,5.7 C18.9,5 19,4.5 19,4.3 L19.1,3.8 L15.1,3.8 C15,3.8 14.9,3.7 14.9,3.5 C14.9,3.3 14.9,3.2 15.1,3.2 L19.5,3.2 Z M16.8,12.5 C16.6,13.1 16.4,13.4 16.3,13.6 C16.2,13.8 16,14.2 15.7,14.8 C15.4,15.4 15.2,15.8 15.1,15.9 L14.8,16.3 C14.7,16.4 14.7,16.4 14.7,16.4 C14.7,16.4 14.7,16.4 14.7,16.4 C14.7,16.4 14.7,16.4 14.7,16.3 C14.7,16.2 14.7,16.2 14.7,16.1 L14.9,15.7 C14.9,15.6 15,15.4 15.1,15.1 C15.2,14.8 15.3,14.5 15.3,14.4 C15.3,14.3 15.4,14 15.5,13.5 C15.6,13 15.7,12.6 15.7,12.4 L15.8,11.8 L15.8,11.3 C15.8,11.3 15.8,11.3 15.8,11.2 L16,11.3 L17,11.9 C17.1,12 17.2,12 17.2,12.1 C17.2,12.1 17.2,12.1 17.2,12.2 C17.2,12.3 17.2,12.3 17.1,12.3 L16.8,12.5 Z M16.1,4.8 L16,4.5 C16,4.5 16,4.5 16,4.4 C16,4.3 16,4.3 16,4.3 C16,4.2 16,4.2 16.1,4.2 C16.2,4.2 16.4,4.4 16.8,4.8 C17.2,5.2 17.5,5.7 17.4,6.3 C17.4,6.5 17.3,6.8 17.2,7 C17.1,7.2 16.9,7.3 16.7,7.3 C16.4,7.3 16.3,7.2 16.2,7 C16.1,6.8 16.2,6.5 16.2,6.3 C16.2,6.1 16.2,5.9 16.2,5.8 C16.2,5.4 16.2,5 16.1,4.8 Z M16.8,0.8 L16.6,0.6 C16.6,0.6 16.6,0.5 16.6,0.5 C16.6,0.5 16.6,0.4 16.6,0.4 C16.6,0.4 16.6,0.3 16.7,0.3 C16.7,0.3 16.9,0.3 17.1,0.4 C17.3,0.5 17.6,0.6 17.9,0.8 C18.2,1 18.4,1.2 18.4,1.6 C18.4,2 18.5,2.1 18.5,2.2 C18.5,2.3 18.5,2.3 18.5,2.4 C18.5,2.6 18.4,2.7 18.3,2.9 C18.2,3.1 18,3.2 17.8,3.2 C17.6,3.2 17.4,3.1 17.3,3 C17.2,2.9 17.2,2.7 17.1,2.5 L17,1.9 C17,1.7 17,1.6 16.9,1.5 C16.8,1.4 17,1 16.8,0.8 Z M25.3,7 L25.6,6.3 C25.7,6 25.8,5.9 25.8,5.9 C25.8,5.9 25.8,5.9 25.9,5.9 C26,5.9 26,6 26.2,6.3 L26.9,7.2 C27,7.3 27,7.4 27,7.4 C27,7.4 27,7.5 27,7.5 C27,7.6 27,7.7 26.9,7.7 L25.4,7.7 C25.3,7.8 25.3,7.9 25.3,7.9 C25.3,7.9 25.2,8 25.2,8 L25.2,16.4 L25.2,17.6 C25.1,17.8 25,18 24.9,18.1 C24.7,18.2 24.6,18.2 24.4,18.2 C24.2,18.2 24.1,18.2 24.1,18.1 C24.1,18 24,17.9 24,17.8 L24.1,15.8 L24.1,7.6 L22.8,7.6 C22.8,8.5 22.8,9.2 22.7,9.9 C22.6,10.6 22.6,11.1 22.6,11.7 C22.6,12.3 22.4,12.9 22.2,13.6 C22,14.3 21.7,15 21.2,15.6 C20.8,16.2 20.4,16.6 20.2,16.9 C20,17.2 19.7,17.4 19.6,17.5 L19.3,17.7 C19.2,17.7 19.2,17.8 19.2,17.8 C19.2,17.8 19.1,17.8 19.1,17.8 C19.1,17.8 19.1,17.8 19.1,17.7 C19.1,17.6 19.1,17.7 19.1,17.6 C19.1,17.5 19.1,17.5 19.2,17.5 L19.5,17.2 C20.1,16.5 20.6,15.7 21,14.9 C21.4,14.1 21.6,13.2 21.7,12.3 C21.8,11.4 21.9,10.6 21.9,9.8 C21.9,9 21.9,8.1 21.9,7 C21.9,6.3 21.9,5.6 21.9,4.9 C21.9,4.2 21.9,3.8 21.9,3.8 L21.9,3.3 L21.8,1.9 C21.8,1.9 21.8,1.9 21.8,1.9 C21.8,1.9 21.9,2 22.1,2.1 L23.1,2.8 C23.9,2.4 24.5,1.9 25,1.5 L25.3,1.2 L25.5,0.9 C25.5,0.9 25.6,0.9 25.6,0.9 L25.8,1.2 L26.6,2.1 C26.7,2.3 26.8,2.4 26.8,2.4 C26.8,2.5 26.8,2.5 26.7,2.5 L26,2.6 L24.1,3 L22.6,3.2 C22.6,3.9 22.6,4.5 22.6,4.8 L22.6,5.9 L22.6,7 L25.3,7 Z M19.2,12.3 L19.1,12.1 C19,12 19,11.9 19,11.8 C19,11.7 19,11.7 19,11.7 C19,11.7 19,11.7 19,11.7 C19.1,11.7 19.3,11.8 19.6,12.1 C19.9,12.4 20.2,12.7 20.3,12.9 C20.4,13.1 20.5,13.5 20.5,13.8 C20.5,14 20.4,14.2 20.3,14.4 C20.2,14.6 20,14.7 19.8,14.7 C19.6,14.7 19.4,14.6 19.4,14.4 C19.4,14.2 19.3,14 19.3,13.8 L19.3,13.2 C19.4,12.9 19.3,12.6 19.2,12.3 Z" id="Shape"></path>
                <path d="M34.1,9.8 L33.5,9.8 C33.3,9.8 33.3,9.7 33.3,9.5 C33.3,9.3 33.4,9.2 33.5,9.2 L37.2,9.2 C37.4,9.2 37.4,9.3 37.4,9.5 C37.4,9.7 37.3,9.8 37.2,9.8 L36.8,9.8 C36.6,9.8 36.5,9.8 36.4,9.9 C36.3,10 36.2,10.1 36.2,10.2 C36.2,10.3 36.1,10.5 36.1,10.6 L36.1,15 C36.1,15.1 36.1,15.2 36,15.3 C35.9,15.3 35.9,15.3 35.8,15.2 L35.6,15 C35.5,14.9 35.3,14.8 35.1,14.8 C34.9,14.8 34.7,14.9 34.4,15 C34.1,15.1 33.9,15.3 33.6,15.4 C33.3,15.5 33,15.6 32.6,15.6 C32.2,15.6 31.7,15.5 31.2,15.3 C30.7,15.1 30.2,14.7 29.8,14.1 C29.3,13.5 29,12.9 28.7,12.1 C28.4,11.3 28.3,10.6 28.2,9.7 C28.1,8.9 28.1,8 28.2,7 C28.3,6 28.5,5.1 28.7,4.3 C28.9,3.5 29.3,2.9 29.7,2.4 C30.1,1.9 30.6,1.5 31.1,1.3 C31.6,1.1 32.1,1 32.6,1 C32.9,1 33.1,1 33.3,1.1 C33.5,1.2 33.7,1.2 33.9,1.3 C34.1,1.4 34.3,1.5 34.3,1.5 C34.5,1.5 34.6,1.5 34.7,1.5 C34.8,1.5 34.9,1.3 34.9,1.2 L35,1 C35,0.9 35.1,0.9 35.2,0.9 C35.3,0.9 35.4,1 35.4,1.2 L36.2,4.3 C36.3,4.6 36.2,4.8 36.1,4.9 C36,5 35.9,4.9 35.8,4.7 L36,4.5 C35.9,4.2 35.7,3.9 35.5,3.6 C35.3,3.3 35.1,3 34.8,2.7 C34.5,2.4 34.2,2.2 33.8,2 C33.4,1.8 33,1.8 32.5,2 C32.2,2.1 31.8,2.3 31.5,2.6 C31.2,2.9 30.9,3.3 30.6,3.9 C30.3,4.5 30.1,5.1 30,5.9 C29.9,6.7 29.8,7.3 29.8,8 C29.8,8.7 29.8,9.3 29.8,9.8 C29.9,10.8 30.1,11.7 30.4,12.6 C30.7,13.5 31.1,14 31.6,14.4 C32.1,14.8 32.6,15 33.1,15 C33.6,15 34.1,14.9 34.4,14.6 C34.8,14.3 35,14 35.1,13.6 C35.2,13.2 35.3,12.8 35.3,12.5 L35.3,10.9 C35.3,10.6 35.3,10.4 35.2,10.3 C35.1,10.1 35,10 34.9,9.9 C34.6,9.8 34.4,9.8 34.1,9.8 Z" id="Shape"></path>
                <path d="M39.5,6.2 L41.4,6.7 C41.6,6.4 41.6,6.2 41.7,6.1 C41.7,6 41.8,5.7 42,5.4 L42.4,4.4 L42.4,4.3 C42.4,4.3 42.5,4.3 42.5,4.4 L43.7,5.6 C43.8,5.7 43.8,5.7 43.8,5.8 C43.8,5.9 43.7,5.9 43.6,6 L43.2,6.1 C42.3,7.5 41.7,8.4 41.5,8.7 L39.9,10.9 C40.5,10.9 41,10.8 41.6,10.8 C42.2,10.8 42.5,10.7 42.7,10.7 L43.4,10.6 C43.5,10.6 43.5,10.6 43.5,10.7 C43.5,10.8 43.5,10.8 43.4,10.9 L42.7,11.2 C41.2,11.8 40.3,12.2 39.8,12.4 L39.1,12.7 C39,12.8 38.9,12.8 38.9,12.8 C38.9,12.8 38.9,12.7 38.8,12.6 L38.4,11.2 C38.4,11.1 38.4,11.1 38.4,11 C38.4,10.9 38.4,10.9 38.5,10.9 L38.7,10.8 C38.8,10.8 39,10.7 39.2,10.5 C39.4,10.3 39.8,9.6 40.5,8.4 L41.1,7.3 C40.4,7.4 39.8,7.5 39.3,7.7 L39,7.5 L38.9,7.5 C38.9,7.5 38.9,7.5 38.8,7.4 L38.5,6 C38.5,5.9 38.5,5.9 38.5,5.9 C38.5,5.9 38.5,5.8 38.6,5.8 L38.8,5.7 C39.1,5.6 39.4,5 39.8,4.1 C40.2,3.2 40.5,2.2 40.8,1.3 L41,0.7 L41.1,0.5 C41.1,0.5 41.1,0.5 41.1,0.5 L41.2,0.6 L42.5,1.6 C42.6,1.7 42.6,1.7 42.6,1.8 C42.6,1.9 42.6,1.9 42.5,1.9 L42,2 C41.1,3.5 40.3,4.8 39.5,6.2 Z M39.3,14.8 C41.1,14.2 42.2,13.7 42.8,13.5 L43.3,13.3 C43.3,13.3 43.4,13.3 43.4,13.3 C43.4,13.3 43.5,13.4 43.4,13.4 C43.3,13.4 43.4,13.5 43.3,13.6 L42.9,14 C41.2,15.4 40.2,16.2 39.9,16.4 L39.3,16.9 C39.2,17 39.1,17 39.1,17 C39.1,17 39.1,16.9 39.1,16.9 L38.7,15.4 L38.6,15.1 C38.6,15.1 38.6,15 38.6,15 L38.7,15 L39.3,14.8 Z M43.2,2.7 C43.1,2.7 43,2.6 43,2.4 C43,2.2 43,2.1 43.2,2.1 L47.8,2.1 L48.2,1.4 C48.2,1.3 48.3,1.3 48.3,1.3 C48.3,1.3 48.4,1.3 48.4,1.4 L49.4,2.4 C49.4,2.4 49.5,2.5 49.5,2.5 C49.5,2.5 49.5,2.6 49.5,2.6 C49.5,2.6 49.5,2.7 49.4,2.7 L49,3.1 C48.7,4.2 48.5,4.9 48.4,5.5 C48.3,6.1 48.1,6.6 47.9,7.2 L49,7.2 L49.3,6.7 C49.3,6.6 49.4,6.6 49.4,6.6 C49.4,6.6 49.5,6.6 49.6,6.7 L50.6,7.7 C50.6,7.8 50.7,7.8 50.7,7.8 C50.7,7.8 50.7,7.8 50.7,7.8 C50.7,7.8 50.7,7.8 50.7,7.8 C50.7,7.8 50.7,7.8 50.7,7.9 L50.4,8.2 C49.8,10.6 49.3,12 49,12.7 L48.3,14.2 C48.5,14.5 48.8,14.8 49,15.1 C49.3,15.4 49.6,15.6 49.9,15.8 C50.3,16 50.5,16.1 50.7,16.2 L51.1,16.3 C51.2,16.3 51.2,16.4 51.2,16.4 C51.2,16.5 51.2,16.5 51.1,16.6 L50.7,16.8 C50.3,17 50,17.2 49.9,17.4 L49.6,17.8 C49.5,17.9 49.5,17.9 49.5,17.9 C49.5,17.9 49.5,17.9 49.4,17.8 L49.2,17.6 C48.6,17 48.1,16.2 47.5,15.3 C47.2,15.6 46.8,16 46.2,16.5 C45.7,17 44.8,17.4 43.7,17.8 L43.2,18 C43.2,18 43.2,18 43.1,18 C43.1,18 43.1,18 43.1,18 C43.1,18 43.1,17.9 43.1,17.9 C43.1,17.9 43.1,17.8 43.2,17.8 L43.6,17.6 C44.7,16.9 45.8,15.8 46.9,14.3 C46.6,13.6 46.4,12.9 46.2,12.1 C46,11.3 45.8,10.5 45.7,9.6 L45.5,7.8 C45.4,9 45.4,10.2 45.3,11.2 C45.2,12.2 45,13.3 44.6,14.3 C44.2,15.3 43.7,16.2 43.1,16.8 C42.5,17.4 42.1,17.8 41.9,18 L41.5,18.3 C41.4,18.4 41.4,18.4 41.3,18.3 C41.2,18.2 41.3,18.2 41.3,18.2 C41.3,18.2 41.3,18.1 41.4,18.1 L41.8,17.7 C42.1,17.3 42.5,16.8 42.9,16.2 C43.3,15.6 43.7,14.6 43.9,13.2 C44.1,11.8 44.3,10.6 44.4,9.4 C44.4,8.2 44.5,7 44.5,5.7 C44.5,4.4 44.5,3.8 44.5,3.7 L44.5,2.8 L43.2,2.8 L43.2,2.7 Z M47.8,2.7 L45.8,2.7 C45.8,2.8 45.7,2.8 45.7,2.9 C45.7,2.9 45.6,3 45.5,3.1 C45.5,3.7 45.5,4.2 45.5,4.5 C45.5,4.8 45.5,5.4 45.5,6.1 C45.5,6.9 45.6,7.9 45.9,9.1 C46.2,10.3 46.5,11.4 46.9,12.3 L47.3,13.2 C47.4,12.9 47.6,12.6 47.7,12.2 C47.8,11.8 48,11.3 48.2,10.5 C48.4,9.7 48.5,9.2 48.6,8.7 C48.7,8.2 48.7,7.9 48.8,7.8 L47.6,7.8 L47.3,8.3 C47.2,8.4 47.2,8.5 47.2,8.5 C47.2,8.5 47.2,8.5 47.1,8.5 L46.3,7.5 C46.3,7.5 46.3,7.5 46.3,7.4 C46.3,7.3 46.3,7.4 46.3,7.3 C46.3,7.3 46.3,7.2 46.4,7.2 L46.6,7 C46.7,7 46.7,6.9 46.7,6.8 C46.7,6.7 46.8,6.6 46.8,6.4 L46.9,5.9 L47.8,2.7 Z" id="Shape"></path>
                <path d="M52.7,7.7 C52.6,7.6 52.6,7.5 52.6,7.4 C52.6,7.3 52.7,7.2 52.8,7.2 L55.3,7.2 L55.3,4.2 L53.2,4.2 C53.1,4.2 53,4.1 53,3.9 C53,3.7 53,3.6 53.2,3.6 L55.3,3.6 L55.3,1.9 L55.3,0.1 C55.3,0.1 55.3,0.1 55.4,0.1 L55.6,0.2 L56.7,0.6 C56.7,0.6 56.8,0.6 56.8,0.7 C56.8,0.8 56.8,0.8 56.8,0.8 C56.8,0.8 56.8,0.9 56.7,1 L56.4,1.4 L56.4,3.7 L57.1,3.7 L57.5,2.9 C57.5,2.8 57.6,2.8 57.6,2.8 C57.6,2.8 57.7,2.8 57.7,2.9 L58.5,4 C58.5,4 58.5,4.1 58.5,4.1 C58.5,4.1 58.5,4.2 58.4,4.2 L58,4.2 L56.4,4.2 L56.4,7.2 L57.3,7.2 L57.7,6.4 C57.7,6.3 57.8,6.3 57.8,6.3 C57.8,6.3 57.9,6.3 57.9,6.4 L58.7,7.5 C58.8,7.6 58.8,7.7 58.8,7.7 C58.8,7.7 58.8,7.8 58.7,7.8 L56.8,7.8 C56.7,8 56.7,8 56.7,8.1 C56.7,8.1 56.6,8.2 56.5,8.3 L56.5,10.9 L57.3,10.9 L57.7,10.2 L57.8,10 C57.8,10 57.9,10 57.9,10.1 L58.6,11.2 C58.6,11.2 58.6,11.3 58.6,11.3 C58.6,11.4 58.6,11.4 58.5,11.4 L56.5,11.4 L56.5,15.9 C56.7,16 57,16.2 57.4,16.3 C57.8,16.5 58.8,16.6 60.3,16.6 C60.9,16.6 61.7,16.6 62.6,16.5 C63.6,16.4 64.2,16.3 64.6,16.2 L65.2,16 C65.3,16 65.3,16 65.3,16.1 C65.3,16.2 65.3,16.2 65.2,16.3 L64.7,16.8 C64.6,16.9 64.5,17 64.5,17.2 C64.5,17.4 64.4,17.6 64.3,17.7 L64.2,18.1 C64.2,18.2 64.2,18.3 64.1,18.3 C64,18.3 64,18.3 63.9,18.3 L63.5,18.3 L61.4,18.4 C60.6,18.4 59.7,18.4 58.6,18.2 C57.5,18 56.6,17.7 55.9,17.2 C55.2,16.6 54.7,15.9 54.4,15 L53.9,13.7 C53.8,14.2 53.7,14.7 53.5,15.1 C53.3,15.5 53.2,16 53,16.5 C52.8,16.9 52.7,17.2 52.6,17.3 L52.4,17.7 C52.4,17.8 52.3,17.8 52.3,17.8 C52.3,17.8 52.2,17.8 52.2,17.8 C52.2,17.8 52.2,17.8 52.2,17.7 C52.2,17.6 52.2,17.6 52.2,17.6 L52.4,16.9 C52.6,16.1 52.8,15.2 53,14.2 C53.1,13.2 53.2,12.4 53.2,11.7 C53.2,11 53.3,10.6 53.3,10.3 L53.3,9.3 C53.3,9.1 53.3,8.9 53.3,8.9 C53.3,8.9 53.3,8.9 53.3,8.9 C53.3,8.9 53.4,8.9 53.5,9 L54.5,9.5 C54.5,9.5 54.6,9.6 54.6,9.6 C54.6,9.6 54.6,9.7 54.6,9.7 C54.6,9.7 54.6,9.7 54.6,9.8 L54.4,10.1 C54.2,11.1 54.1,11.6 54.1,11.8 L53.8,13.2 C54.1,13.9 54.3,14.5 54.6,14.8 L54.9,15.2 L54.9,7.7 L52.7,7.7 Z M61,4.1 C61,3.9 61,3.7 61,3.6 C61,3.5 61,3.2 61,2.7 C61,2.2 61,1.8 61,1.5 L61,0.5 C61,0.4 61,0.4 61,0.3 C61,0.2 61,0.2 61,0.2 L62.3,0.7 C62.3,0.7 62.4,0.7 62.4,0.8 C62.4,0.9 62.4,0.9 62.4,0.9 C62.4,0.9 62.4,1 62.3,1.1 L62,1.5 C62,2.1 62,2.5 62,2.9 C62,3.2 62,3.7 62,4.2 L63.5,4.2 L64,3.3 C64,3.3 64,3.2 64.1,3.2 C64.2,3.2 64.1,3.2 64.2,3.3 L65.1,4.5 C65.1,4.5 65.1,4.6 65.2,4.6 C65.2,4.7 65.2,4.7 65.1,4.7 L64.6,4.7 L62,4.7 C62,5.2 62,5.9 62.1,6.7 C62.1,7.6 62.2,8.5 62.4,9.5 L62.6,10.4 C62.7,9.9 62.9,9.4 63,8.9 C63.1,8.4 63.3,7.7 63.4,6.8 L63.5,5.8 L63.5,5.7 C63.5,5.7 63.6,5.7 63.7,5.7 L64.8,6.5 C64.9,6.5 64.9,6.6 64.9,6.6 C64.9,6.6 64.9,6.7 64.9,6.7 C64.9,6.7 64.9,6.8 64.8,6.8 L64.4,7 C64.3,7.6 64.1,8.2 64,8.9 C63.9,9.6 63.7,10.1 63.5,10.7 L63.1,11.8 C63.2,12 63.3,12.2 63.3,12.3 C63.4,12.5 63.5,12.7 63.7,12.9 C63.9,13.1 64,13.2 64.1,13.2 C64.2,13.2 64.4,12.9 64.7,12.4 L65.1,11.8 C65.2,11.7 65.2,11.7 65.2,11.7 C65.2,11.7 65.2,11.8 65.2,11.8 C65.2,11.8 65.2,11.9 65.2,11.9 L65,12.6 C64.9,12.8 64.9,13 64.9,13.2 C64.9,13.4 64.9,13.5 64.9,13.6 C64.9,13.7 64.9,13.9 65,14.1 C65,14.2 65,14.3 65.1,14.5 C65.2,14.7 65.2,14.8 65.2,14.9 C65.2,15.2 65.1,15.3 64.8,15.3 C64.5,15.3 64.2,15.2 63.8,14.9 C63.4,14.6 63.1,14.2 62.9,13.7 L62.4,12.9 C62.1,13.3 61.7,13.7 61.3,14.2 C60.9,14.7 60.3,15.1 59.6,15.5 L59.2,15.7 C59.1,15.7 59.1,15.8 59.1,15.7 C59.1,15.7 59.1,15.6 59.1,15.6 C59.1,15.6 59.1,15.6 59.1,15.5 C59.1,15.5 59.1,15.4 59.2,15.4 L59.5,15.1 C60.5,14.2 61.2,13.3 61.7,12.4 L62.1,11.7 C62,11.4 61.9,11 61.8,10.7 C61.1,11.5 60.3,12.4 59.7,13.2 L59.3,13.7 L59.1,14 C59.1,14 59,14 59,13.8 L58.6,12.7 L58.5,12.5 C58.5,12.5 58.5,12.5 58.5,12.5 C58.5,12.5 58.6,12.4 58.7,12.3 C58.8,12.2 58.9,12 58.9,11.8 C58.9,11.6 59,11.3 59,10.8 L59,5.1 L59,3.4 C59,3.3 59,3.3 59,3.3 C59,3.3 59.1,3.3 59.3,3.5 L60,4.1 L61,4.1 Z M61,4.7 L59.8,4.7 L59.8,11.7 L61.6,10.7 C61.5,10.1 61.3,9.4 61.2,8.8 C61.1,8.2 61,7.4 61,6.5 C61,5.7 61,5 61,4.7 Z M62.7,1.1 C63,1.1 63.2,1.2 63.3,1.2 C63.4,1.2 63.6,1.4 63.7,1.6 C63.8,1.8 64,2 64,2.3 C64,2.6 63.9,2.8 63.9,2.9 C63.8,3.1 63.7,3.1 63.5,3.1 C63.3,3.1 63.2,3 63.1,2.9 C63,2.8 63,2.5 63,2.2 C63,1.9 62.9,1.6 62.7,1.5 C62.5,1.4 62.5,1.3 62.5,1.2 C62.5,1.1 62.6,1.1 62.7,1.1 Z" id="Shape"></path>
                <path d="M66.8,11.3 C66.8,11.2 66.7,11.1 66.7,11 C66.7,10.9 66.8,10.8 66.9,10.8 L69.2,10.8 L69.2,8.1 L68.2,8.1 L68.2,8.5 C68.2,8.6 68.2,8.7 68.1,8.8 C68,8.9 67.9,9 67.9,9 C67.8,9 67.7,9.1 67.5,9.1 C67.3,9.1 67.2,9.1 67.2,9.1 C67.2,9.1 67.2,9 67.2,8.8 L67.3,6.9 L67.3,2.3 L67.3,0.6 C67.3,0.6 67.4,0.6 67.5,0.6 L68.4,1.3 L71.4,1.3 L71.8,0.7 C71.8,0.7 71.8,0.7 71.8,0.6 C71.8,0.5 71.8,0.6 71.9,0.6 L72.9,1.5 C72.9,1.5 72.9,1.6 73,1.6 C73.1,1.6 73,1.6 73,1.7 C73,1.7 73,1.8 72.9,1.8 L72.6,2.1 L72.6,6.8 L72.6,8.1 C72.6,8.2 72.6,8.3 72.5,8.3 C72.5,8.4 72.4,8.5 72.2,8.5 C72,8.5 71.9,8.6 71.7,8.6 C71.6,8.6 71.5,8.6 71.5,8.5 C71.5,8.4 71.5,8.4 71.5,8.3 L71.5,8.1 L70.5,8.1 L70.5,10.8 L71.8,10.8 L72.3,10 C72.3,9.9 72.4,9.9 72.4,9.9 C72.4,9.9 72.4,9.9 72.5,10 L73.4,11.2 C73.4,11.2 73.4,11.3 73.4,11.3 C73.4,11.3 73.4,11.3 73.3,11.3 L70.5,11.3 L70.5,14.2 C71.3,14 72,13.9 72.6,13.7 L73.4,13.5 C73.5,13.5 73.5,13.5 73.5,13.6 C73.5,13.7 73.5,13.7 73.4,13.8 L72.6,14.2 C72.1,14.5 71.4,14.8 70.4,15.3 C69.4,15.8 68.7,16.2 68.1,16.5 L67.5,16.9 C67.4,17 67.3,17 67.3,17 C67.3,17 67.3,16.9 67.2,16.8 L66.8,15.2 C66.8,15 66.7,15 66.7,14.9 C66.7,14.8 66.7,14.9 66.7,14.9 C66.7,14.9 66.7,14.9 66.8,14.9 L67.3,14.8 C67.5,14.8 68.1,14.7 69.2,14.4 L69.2,11.2 L66.8,11.3 Z M69.2,4.4 L69.2,1.9 L68.2,1.9 L68.2,4.5 L69.2,4.5 L69.2,4.4 Z M69.2,7.6 L69.2,5 L68.2,5 L68.2,7.6 L69.2,7.6 Z M71.3,4.4 L71.3,1.9 L70.4,1.9 C70.4,1.9 70.3,2 70.3,2 L70.3,4.5 L71.3,4.5 L71.3,4.4 Z M71.3,7.6 L71.3,5 L70.3,5 L70.3,7.6 L71.3,7.6 Z M77.5,7.3 L76.2,7.3 C76.2,7.4 76.2,7.4 76.1,7.4 C76,7.4 76,7.5 75.9,7.6 L75.9,16.7 C75.9,17.2 75.5,17.6 74.8,17.7 L74.5,17.8 C74.4,17.8 74.3,17.8 74.3,17.8 C74.3,17.8 74.3,17.7 74.3,17.7 L74.2,17.3 C74.1,16.9 73.9,16.7 73.5,16.5 L73,16.3 C73,16.3 72.9,16.3 72.9,16.2 C72.9,16.2 72.9,16.1 72.9,16.1 C72.9,16 72.9,16 73,16 L73.6,16.1 C74,16.1 74.3,16.2 74.5,16.2 C74.7,16.2 74.8,16.2 74.8,16.1 C74.8,16 74.8,15.9 74.8,15.8 L74.8,7.3 L72.7,7.3 C72.6,7.3 72.5,7.2 72.5,7.1 L72.5,7 C72.5,6.9 72.5,6.9 72.5,6.9 L72.6,6.8 L77.4,6.8 L77.8,6.1 C77.8,6 77.9,6 77.9,6 C77.9,6 77.9,6 78,6 L79.4,7.4 C79.4,7.4 79.5,7.5 79.5,7.6 C79.5,7.7 79.5,7.8 79.4,7.8 C79.4,7.9 79.2,7.9 79,7.9 C78.8,7.9 78.5,8 78.2,8.3 C77.9,8.5 77.6,8.9 77.4,9.3 L77.2,9.7 C77.2,9.8 77.1,9.8 77.1,9.8 C77.1,9.8 77,9.8 77,9.7 C77,9.6 77,9.6 77,9.6 C77,9.6 77,9.6 77,9.5 L77.2,8.9 L77.5,7.3 Z M76.3,2.1 L73,2.1 C72.9,2.1 72.8,2 72.8,1.8 C72.8,1.6 72.8,1.5 73,1.5 L76.4,1.5 L76.8,0.8 C76.8,0.7 76.9,0.7 76.9,0.7 C76.9,0.7 77,0.7 77,0.8 L78.4,1.9 C78.5,2 78.5,2 78.5,2.1 C78.5,2.2 78.5,2.2 78.4,2.3 L77.5,2.7 L75.8,4.4 C75.9,4.6 76,4.7 76,4.9 C76,5.1 76.1,5.3 76.1,5.6 C76.1,5.9 76,6.1 75.9,6.3 C75.8,6.5 75.6,6.6 75.4,6.6 C75.2,6.6 75,6.5 74.9,6.2 C74.8,6.1 74.8,5.9 74.7,5.6 C74.7,5.3 74.6,5.1 74.6,4.9 C74.6,4.7 74.4,4.5 74.3,4.2 C74.1,3.9 74,3.7 73.9,3.6 C73.8,3.5 73.7,3.5 73.7,3.4 C73.7,3.4 73.7,3.3 73.7,3.3 C73.7,3.2 73.7,3.2 73.8,3.2 C73.9,3.2 74.2,3.3 74.6,3.5 C75,3.7 75.2,3.8 75.2,3.8 L75.6,4.1 L76.3,2.1 Z" id="Shape"></path>
                <path d="M86.6,12.6 L86.6,9.5 L83.7,9.5 L83.2,10.2 C83.1,10.3 83.1,10.3 83.1,10.2 L82.3,9 C82.2,8.9 82.2,8.8 82.2,8.8 C82.2,8.8 82.3,8.7 82.5,8.6 C82.6,8.5 82.7,8.4 82.8,8.3 C82.9,8.2 83.1,7.7 83.3,7.1 C83.6,6.4 83.8,5.9 83.9,5.5 C84,5.1 84.2,4.7 84.4,4.1 L81.2,4.1 C81.1,4.1 81,4 81,3.8 C81,3.6 81.1,3.5 81.2,3.5 L84.6,3.5 C84.6,3.5 84.7,3.1 84.9,2.5 C85.1,1.9 85.3,1.4 85.3,1 L85.5,0.4 L85.6,0 C85.6,0 85.6,0 85.6,0 L85.8,0.2 L87.2,1.1 C87.2,1.1 87.3,1.2 87.3,1.3 C87.3,1.4 87.3,1.4 87.2,1.5 L86.7,1.8 L86,3.6 L90.3,3.6 L90.8,2.6 C90.9,2.4 91,2.3 91,2.2 C91,2.1 91.1,2.2 91.2,2.4 L92.3,3.6 C92.4,3.7 92.4,3.8 92.4,3.9 C92.4,4 92.4,4 92.3,4 L91.8,4 L85.8,4 L83.8,8.9 L86.5,8.9 L86.5,7 L86.5,5.3 C86.5,5.3 86.6,5.2 86.6,5.2 L86.8,5.3 L88.2,5.9 C88.3,5.9 88.3,6 88.3,6.1 C88.3,6.2 88.3,6.2 88.2,6.3 L87.9,6.5 L87.9,9 L89.8,9 L90.3,8.1 C90.4,7.8 90.5,7.7 90.6,7.8 C90.7,7.9 90.7,7.9 90.9,8.1 L91.8,9.2 C91.9,9.3 91.9,9.4 91.9,9.5 C91.9,9.6 91.9,9.6 91.8,9.6 L88,9.6 L88,12.7 L91.2,12.7 L91.8,11.7 C91.9,11.6 91.9,11.5 92,11.5 C92,11.5 92.1,11.5 92.1,11.6 L93.1,12.8 C93.2,12.9 93.2,12.9 93.2,13 C93.2,13.1 93.2,13.1 93.2,13.2 C93.2,13.3 93.2,13.3 93.1,13.3 L91.5,13.3 L88,13.3 L88,16.2 L88,17.9 C88,18 88,18.1 87.9,18.1 C87.8,18.1 87.8,18.2 87.7,18.3 C87.6,18.4 87.4,18.4 87.2,18.4 C87,18.4 86.8,18.4 86.8,18.3 C86.8,18.2 86.7,18.1 86.7,17.9 L86.7,16.3 L86.7,13.3 L80.9,13.3 L80.8,13.3 C80.8,13.3 80.7,13.3 80.7,13.3 L80.7,13.2 C80.7,13 80.8,12.8 80.9,12.8 L86.6,12.8 L86.6,12.6 Z" id="Shape"></path>
            </g>
        </g>
    </g>
</svg>