<?xml version="1.0" encoding="UTF-8" standalone="no"?>
<svg width="131px" height="68px" viewBox="0 0 131 68" version="1.1" xmlns="http://www.w3.org/2000/svg" xmlns:xlink="http://www.w3.org/1999/xlink">
    <!-- Generator: Sketch 50 (54983) - http://www.bohemiancoding.com/sketch -->
    <title>CLA</title>
    <desc>Created with Sketch.</desc>
    <defs></defs>
    <g id="Page-1" stroke="none" stroke-width="1" fill="none" fill-rule="evenodd">
        <g id="S-Class-Headline&amp;Subheadline-M" transform="translate(-24.000000, 0.000000)" fill="#333333">
            <g id="CLA" transform="translate(1.000000, 0.000000)">
                <rect id="Rectangle-Copy" x="74" y="67" width="30" height="1"></rect>
                <path d="M50.8632812,31.608941 C50.8997398,31.3081582 50.9361977,31.0051014 50.9726562,30.6997613 C51.0091148,30.3944212 51.0410155,29.9774332 51.0683594,29.4487847 L51.1230469,28.0542535 L51.109375,27.0425347 C51.1367189,27.0243055 51.1595051,27.0106338 51.1777344,27.0015191 C51.1959636,26.9924045 51.3463528,27.0243052 51.6289062,27.0972222 L53.5976562,27.6304254 C53.7708342,27.6851131 53.8665364,27.7375215 53.8847656,27.7876519 C53.9029949,27.8377824 53.9098308,27.9106983 53.9052734,28.0064019 C53.9007161,28.1021055 53.8300788,28.2228726 53.6933594,28.3687066 L53.2832031,28.8062066 C53.2011715,29.508033 53.13737,30.0321163 53.0917969,30.3784722 L52.96875,31.3081597 L52.9277344,31.608941 L58.1367188,31.608941 L58.9707031,30.0366754 C59.0527348,29.8999559 59.1188149,29.8293186 59.1689453,29.8247613 C59.2190758,29.820204 59.3444,29.922742 59.5449219,30.1323785 L60.9804688,31.6909722 C61.1171882,31.8459209 61.1855469,31.9735238 61.1855469,32.0737847 C61.1764322,32.1375871 61.1490888,32.1968313 61.1035156,32.2515191 C61.0579425,32.3062069 60.9986983,32.3335504 60.9257812,32.3335504 L59.7910156,32.3335504 L59.7910156,32.3472222 L53.8300781,32.3472222 C53.930339,32.6206611 54.0305985,32.8599165 54.1308594,33.0649957 C54.2311203,33.2700748 54.541013,33.7326353 55.0605469,34.452691 C55.5800807,35.1727467 56.4687437,35.8654481 57.7265625,36.530816 C58.9843813,37.1961839 60.1692653,37.5789926 61.28125,37.6792535 L61.828125,37.733941 C61.8828128,37.7430556 61.9192707,37.777235 61.9375,37.8364801 C61.9557293,37.8957251 61.9648438,37.9299045 61.9648438,37.9390191 C61.9557291,37.9754776 61.9397788,38.0210501 61.9169922,38.0757379 C61.8942056,38.1304256 61.8645835,38.1668836 61.828125,38.1851129 L61.4042969,38.4312066 L61.0078125,38.6499566 C60.8346346,38.7775614 60.6682951,38.9644085 60.5087891,39.2105035 C60.3492831,39.4565985 60.2376305,39.689018 60.1738281,39.9077691 C60.1100257,40.1265202 60.0621746,40.2677948 60.0302734,40.3315972 C59.9983722,40.3953996 59.9322922,40.4318576 59.8320312,40.4409722 C59.6223948,40.4683161 59.0846397,40.2290607 58.21875,39.7231988 C57.3528603,39.2173369 56.5485063,38.5360286 55.8056641,37.6792535 C55.0628218,36.8224784 54.5159523,35.9474871 54.1650391,35.0542535 C53.8141258,34.1610199 53.5930994,33.4774329 53.5019531,33.0034722 L53.4746094,32.7847222 L53.3925781,32.3472222 L52.8320312,32.3472222 C52.7317703,32.8667561 52.5904957,33.4728698 52.4082031,34.1655816 C52.2259105,34.8582934 51.8385446,35.6603687 51.2460938,36.5718316 C50.6536429,37.4832945 49.6487701,38.3491713 48.2314453,39.1694879 C46.8141205,39.9898045 45.7545608,40.518445 45.0527344,40.7554254 L44.328125,41.0015191 C44.2187495,41.0470923 44.136719,41.0539281 44.0820312,41.0220269 C44.0273435,40.9901257 44,40.9491105 44,40.8989801 C44,40.8488496 44.0091145,40.7964413 44.0273438,40.7417535 C44.045573,40.6870657 44.0865882,40.6414933 44.1503906,40.6050347 L44.8886719,40.1948785 C45.6998738,39.7482617 46.5953727,39.10569 47.5751953,38.2671441 C48.5550179,37.4285983 49.2568338,36.5490498 49.6806641,35.6284722 C50.1044943,34.7078947 50.3688146,34.0379796 50.4736328,33.6187066 C50.578451,33.1994337 50.6764318,32.7756098 50.7675781,32.3472222 L44.984375,32.3472222 C44.8294263,32.3472222 44.7428386,32.2241766 44.7246094,31.9780816 C44.7063801,31.7319866 44.7929678,31.608941 44.984375,31.608941 L50.8632812,31.608941 Z M44.6152344,43.2437066 C44.5240881,43.2254774 44.458008,43.191298 44.4169922,43.1411676 C44.3759764,43.0910371 44.3531901,42.9702701 44.3486328,42.7788629 C44.3440755,42.5874557 44.4238273,42.4917535 44.5878906,42.4917535 L55.1972656,42.4917535 L55.1972656,41.1108941 L55.1289062,38.9233941 C55.1744794,38.877821 55.2154946,38.8504775 55.2519531,38.8413629 L55.4570312,38.9097222 L57.1933594,39.4292535 C57.4121105,39.5021705 57.5214844,39.5910368 57.5214844,39.6958551 C57.5214844,39.8006733 57.4804692,39.8940968 57.3984375,39.9761285 L56.9609375,40.4409722 L56.9609375,42.4917535 L58.9296875,42.4917535 L59.6679688,41.1655816 C59.7955736,40.9377159 59.8889971,40.8215061 59.9482422,40.8169488 C60.0074873,40.8123915 60.1236971,40.9012578 60.296875,41.0835504 L61.6777344,42.546441 C61.7779953,42.6649312 61.8440754,42.7583547 61.8759766,42.8267144 C61.9078778,42.8950742 61.9238281,42.956597 61.9238281,43.0112847 C61.9238281,43.0659725 61.9010419,43.1183808 61.8554688,43.1685113 C61.8098956,43.2186418 61.7506514,43.2437066 61.6777344,43.2437066 L56.9472656,43.2437066 L56.9472656,50.2710504 C56.9472656,50.6812087 56.7968765,51.011609 56.4960938,51.2622613 C56.195311,51.5129136 55.8330099,51.7476118 55.4091797,51.9663629 C54.9853494,52.185114 54.7050788,52.2762589 54.5683594,52.2398004 C54.5319009,52.2398004 54.5045574,52.2306859 54.4863281,52.2124566 C54.4680989,52.1942274 54.4521485,52.1577694 54.4384766,52.1030816 C54.4248046,52.0483938 54.3906253,51.7795163 54.3359375,51.296441 C54.2812497,50.8133657 54.1513682,50.4852439 53.9462891,50.312066 C53.7412099,50.138888 53.456382,49.9611554 53.0917969,49.7788629 L52.6269531,49.546441 C52.5540361,49.5099825 52.506185,49.4621314 52.4833984,49.4028863 C52.4606119,49.3436412 52.4469401,49.2957901 52.4423828,49.2593316 C52.4378255,49.2228731 52.4492186,49.1864151 52.4765625,49.1499566 C52.513021,49.0861542 52.585937,49.0588107 52.6953125,49.0679254 L53.2558594,49.1362847 C53.4563812,49.1636286 53.9029913,49.1864149 54.5957031,49.2046441 C54.9056005,49.2228734 55.0833331,49.1773009 55.1289062,49.0679254 C55.1744794,48.9585498 55.1972656,48.8400614 55.1972656,48.7124566 L55.1972656,43.2437066 L44.6152344,43.2437066 Z M48.7167969,44.8023004 L48.4023438,44.2554254 C48.3658852,44.2098522 48.3453776,44.1733943 48.3408203,44.1460504 C48.336263,44.1187065 48.3385416,44.0959203 48.3476562,44.077691 C48.3476562,43.9683154 48.397786,43.8999568 48.4980469,43.8726129 C48.5800785,43.8634982 48.9173147,44.0389522 49.5097656,44.3989801 C50.1022165,44.7590079 50.5602197,45.205618 50.8837891,45.7388238 C51.2073584,46.2720296 51.3645834,46.7938343 51.3554688,47.3042535 C51.3463541,47.6141509 51.2460947,47.9832878 51.0546875,48.4116754 C50.8632803,48.8400629 50.5579448,49.045139 50.1386719,49.0269097 C49.8470037,49.0269097 49.6259773,48.8993069 49.4755859,48.6440972 C49.3251946,48.3888876 49.2408855,48.0881094 49.2226562,47.7417535 L49.2363281,46.4976129 C49.2089842,45.9325059 49.0358089,45.3674074 48.7167969,44.8023004 Z M76.7382812,48.0835504 L69.3007812,48.0835504 L69.3007812,50.1890191 C69.3007812,50.4715726 69.1640639,50.6903204 68.890625,50.8452691 C68.6171861,51.0002178 68.3391941,51.0731338 68.0566406,51.0640191 C67.8287749,51.0640191 67.6875003,51.016168 67.6328125,50.9204644 C67.5781247,50.8247608 67.5416668,50.7039938 67.5234375,50.5581597 L67.6328125,45.8413629 L67.6328125,33.5913629 L67.5234375,28.6148004 C67.5507814,28.5874565 67.5758462,28.5715061 67.5986328,28.5669488 C67.6214194,28.5623915 67.7285147,28.6239143 67.9199219,28.7515191 L69.4238281,29.8179254 L76.6015625,29.8179254 L77.0664062,28.8472222 C77.1484379,28.6831589 77.214518,28.5965713 77.2646484,28.5874566 C77.3147789,28.578342 77.4355459,28.6649297 77.6269531,28.8472222 L78.7753906,29.9273004 C78.8665369,30.0275613 78.932617,30.1095917 78.9736328,30.1733941 C79.0146486,30.2371965 79.0351562,30.2804904 79.0351562,30.3032769 C79.0351562,30.3260635 79.0237631,30.3670787 79.0009766,30.4263238 C78.97819,30.4855689 78.9576824,30.5243055 78.9394531,30.5425347 L78.515625,31.1304254 L78.515625,46.5659722 L78.5839844,49.7925347 C78.4381503,50.3485271 78.0940782,50.6310764 77.5517578,50.640191 C77.0094374,50.6493056 76.7382812,50.471573 76.7382812,50.1069879 L76.7382812,48.0835504 Z M76.7382812,35.4917535 L76.7382812,30.5425347 L69.3007812,30.5425347 L69.3007812,35.4917535 L76.7382812,35.4917535 Z M76.7382812,41.3569879 L76.7382812,36.202691 L69.3007812,36.202691 L69.3007812,41.3569879 L76.7382812,41.3569879 Z M76.7382812,47.358941 L76.7382812,42.0815972 L69.3007812,42.0815972 L69.3007812,47.358941 L76.7382812,47.358941 Z M102.921875,38.6226129 L102.921875,33.5230035 L99.3945312,33.5230035 C99.130207,34.0881105 98.9091806,34.550671 98.7314453,34.9106988 C98.55371,35.2707267 98.2871112,35.7492375 97.9316406,36.3462457 C97.5761701,36.9432539 97.3300788,37.3511274 97.1933594,37.5698785 L96.7011719,38.3081597 C96.6464841,38.399306 96.5872399,38.4403213 96.5234375,38.4312066 C96.4596351,38.4312066 96.4277344,38.3833555 96.4277344,38.2876519 C96.4277344,38.1919483 96.4414061,38.103082 96.46875,38.0210504 L96.8242188,37.077691 C96.9244797,36.8224814 97.0771474,36.3508064 97.2822266,35.6626519 C97.4873057,34.9744975 97.67871,34.2977464 97.8564453,33.6323785 C98.0341806,32.9670106 98.2278635,32.0646759 98.4375,30.9253472 L98.7246094,29.4624566 L98.8203125,28.7378472 C98.8476564,28.6740448 98.8704426,28.6398655 98.8886719,28.6353082 C98.9069011,28.6307509 98.9752598,28.6558157 99.09375,28.7105035 L101.048828,29.7085504 C101.167318,29.7814674 101.224284,29.8748909 101.219727,29.9888238 C101.215169,30.1027567 101.139975,30.2144092 100.994141,30.3237847 L100.597656,30.6108941 C100.223956,31.5314716 99.9231782,32.2651883 99.6953125,32.812066 L102.921875,32.812066 L102.921875,29.8862847 L102.839844,27.3706597 C102.876302,27.3342012 102.903646,27.3136936 102.921875,27.3091363 C102.940104,27.304579 103.054035,27.3342011 103.263672,27.3980035 L105.109375,27.9585504 C105.23698,28.0041235 105.298503,28.0815967 105.293945,28.1909722 C105.289388,28.3003478 105.227865,28.4279507 105.109375,28.5737847 L104.671875,29.0796441 L104.671875,32.812066 L107.693359,32.812066 L108.527344,31.2534722 C108.636719,31.0438358 108.707357,30.9299046 108.739258,30.9116754 C108.771159,30.8934461 108.864583,30.9709193 109.019531,31.1440972 L110.482422,32.9351129 C110.582683,33.0627177 110.632812,33.1675343 110.632812,33.249566 C110.623698,33.4318586 110.514324,33.5230035 110.304688,33.5230035 L104.671875,33.5230035 L104.671875,38.6226129 L108.882812,38.6226129 L109.826172,36.9136285 C109.908204,36.7677944 109.967448,36.6925999 110.003906,36.6880426 C110.040365,36.6834852 110.13151,36.7586798 110.277344,36.9136285 L111.808594,38.718316 C111.89974,38.8276915 111.974935,38.9621303 112.03418,39.1216363 C112.093425,39.2811423 111.954429,39.3608941 111.617188,39.3608941 L106.667969,39.3608941 C106.503905,39.5887598 106.344402,39.8257366 106.189453,40.0718316 L106.189453,48.1655816 C106.189453,48.4116766 106.225911,48.6258672 106.298828,48.8081597 C106.371745,48.9904523 106.877599,49.07704 107.816406,49.0679254 C108.718755,49.0679254 109.324868,48.9858949 109.634766,48.8218316 C109.944663,48.6577683 110.18164,48.4162343 110.345703,48.0972222 C110.509766,47.7782102 110.692056,47.3179284 110.892578,46.7163629 L111.617188,44.5288629 C111.662761,44.3647996 111.726562,44.2873264 111.808594,44.296441 C111.872396,44.3146703 111.904297,44.4012579 111.904297,44.5562066 L111.904297,44.843316 L111.5625,46.9761285 C111.507812,47.2951405 111.485026,47.5252814 111.494141,47.6665582 C111.503255,47.8078349 111.539713,47.9605027 111.603516,48.124566 L111.904297,48.7398004 C112.077475,49.1499587 112.11849,49.5190956 112.027344,49.8472222 C111.981771,49.9930563 111.806317,50.2847201 111.500977,50.7222222 C111.195636,51.1597244 110.136077,51.3784722 108.322266,51.3784722 C107.347,51.3875869 106.576826,51.3215068 106.011719,51.1802301 C105.446612,51.0389533 105.072918,50.8748925 104.890625,50.6880426 C104.708332,50.5011927 104.592123,50.2892807 104.541992,50.0523004 C104.491862,49.81532 104.466797,49.5783432 104.466797,49.3413629 L104.466797,39.3608941 L101.226562,39.3608941 L102.689453,40.0718316 C102.835287,40.1447487 102.908203,40.2313363 102.908203,40.3315972 C102.908203,40.4045143 102.848959,40.5002164 102.730469,40.6187066 L102.361328,40.9878472 C102.270182,41.7079029 102.176758,42.384654 102.081055,43.0181207 C101.985351,43.6515874 101.841798,44.3078308 101.650391,44.9868707 C101.458983,45.6659105 101.053389,46.5614094 100.433594,47.6733941 C99.813799,48.7853788 98.3600375,49.9064614 96.0722656,51.0366754 L95.4433594,51.3511285 C95.3886716,51.3784724 95.3339846,51.3944227 95.2792969,51.3989801 C95.2246091,51.4035374 95.1927084,51.3898656 95.1835938,51.3579644 C95.1744791,51.3260632 95.1676433,51.2736549 95.1630859,51.2007379 C95.1585286,51.1278208 95.2154942,51.0457904 95.3339844,50.9546441 L95.9628906,50.4624566 C96.1451832,50.3257372 96.4459614,50.054581 96.8652344,49.6489801 C97.2845073,49.2433791 97.751625,48.7511965 98.2666016,48.1724176 C98.7815781,47.5936386 99.2076806,46.8257427 99.5449219,45.8687066 C99.8821631,44.9116706 100.116861,43.9979427 100.249023,43.1274957 C100.381186,42.2570486 100.470052,41.4253512 100.515625,40.6323785 L100.597656,39.3608941 L95.2246094,39.3608941 C95.0240875,39.3608941 94.9215495,39.2378485 94.9169922,38.9917535 C94.9124349,38.7456585 94.9921867,38.6226129 95.15625,38.6226129 L102.921875,38.6226129 Z M129.015625,40.7007379 L129.617188,39.702691 C129.671875,39.6115447 129.71289,39.5636936 129.740234,39.5591363 C129.767578,39.554579 129.822265,39.6024301 129.904297,39.702691 L130.984375,41.1792535 C131.002604,41.2065974 131.011719,41.2384981 131.011719,41.2749566 L131.011719,41.3569879 C130.993489,41.4116756 130.952474,41.4390191 130.888672,41.4390191 L127.333984,41.4390191 L127.333984,43.5718316 L129.056641,43.5718316 L129.712891,42.4780816 C129.749349,42.4051646 129.785807,42.3687066 129.822266,42.3687066 C129.858724,42.3778213 129.904297,42.4142792 129.958984,42.4780816 L130.984375,43.968316 C131.002604,43.9956599 131.020833,44.0366751 131.039062,44.0913629 C131.057292,44.1460506 131.066406,44.1779514 131.066406,44.187066 C131.057292,44.2690977 130.998047,44.3101129 130.888672,44.3101129 L127.333984,44.3101129 L127.333984,46.4292535 L129.904297,46.4292535 L130.451172,45.280816 C130.524089,45.1349819 130.578776,45.0643446 130.615234,45.0689019 C130.651693,45.0734592 130.710937,45.1258676 130.792969,45.2261285 L132.064453,46.8530816 C132.091797,46.9077694 132.110026,46.9715708 132.119141,47.0444879 C132.110026,47.1265195 132.059896,47.1675347 131.96875,47.1675347 L127.333984,47.1675347 L127.333984,49.7241754 L127.375,51.3648004 C127.356771,51.4650613 127.327149,51.5630421 127.286133,51.6587457 C127.245117,51.7544493 127.112957,51.8501515 126.889648,51.9458551 C126.66634,52.0415587 126.443035,52.0916884 126.219727,52.0962457 C125.996418,52.100803 125.861979,52.0689023 125.816406,52.0005426 C125.770833,51.9321828 125.738932,51.8433165 125.720703,51.733941 L125.775391,49.4097222 L125.775391,47.1675347 L121.892578,47.1675347 C121.746744,47.1675347 121.669271,47.0444891 121.660156,46.7983941 C121.651042,46.5522991 121.728515,46.4292535 121.892578,46.4292535 L125.775391,46.4292535 L125.775391,44.3101129 L122.644531,44.3101129 C122.580729,44.282769 122.530599,44.246311 122.494141,44.2007379 C122.457682,44.1551647 122.439453,44.038955 122.439453,43.8521051 C122.439453,43.6652552 122.507812,43.5718316 122.644531,43.5718316 L125.775391,43.5718316 L125.775391,41.4390191 L122.34375,41.4390191 L122.220703,41.3843316 L122.125,41.1792535 C122.125,40.8602415 122.197916,40.7007379 122.34375,40.7007379 L125.775391,40.7007379 L125.775391,39.8667535 L125.734375,38.0073785 C125.770834,37.97092 125.798177,37.9481338 125.816406,37.9390191 C125.834636,37.9299045 125.921223,37.9481335 126.076172,37.9937066 L127.552734,38.4858941 C127.66211,38.5314673 127.723633,38.5702039 127.737305,38.6021051 C127.750977,38.6340063 127.76237,38.6636284 127.771484,38.6909722 C127.780599,38.7183161 127.753256,38.7638886 127.689453,38.827691 L127.333984,39.2105035 L127.333984,40.7007379 L129.015625,40.7007379 Z M119.376953,36.9546441 C119.340495,37.0275612 119.310873,37.0959198 119.288086,37.1597222 C119.265299,37.2235246 119.185548,37.3055551 119.048828,37.405816 L119.048828,40.9194879 L119.896484,40.9194879 L120.429688,39.9351129 C120.502605,39.7892788 120.584635,39.7710498 120.675781,39.8804254 L121.810547,41.3706597 C121.865235,41.4526914 121.892578,41.5119356 121.892578,41.5483941 C121.892578,41.6304258 121.828777,41.671441 121.701172,41.671441 L119.048828,41.671441 L119.048828,47.3862847 C119.331382,47.1857629 119.973953,46.6799086 120.976562,45.8687066 L121.810547,45.1987847 C121.865235,45.1532116 121.908528,45.1554902 121.94043,45.2056207 C121.972331,45.2557511 121.988281,45.3036022 121.988281,45.3491754 C121.988281,45.3947485 121.97461,45.4357637 121.947266,45.4722222 L121.208984,46.4292535 C121.026692,46.6662338 120.696291,47.1515806 120.217773,47.8853082 C119.739255,48.6190358 119.171878,49.4598477 118.515625,50.4077691 L117.927734,51.2554254 C117.863932,51.3465717 117.820638,51.3944227 117.797852,51.3989801 C117.775065,51.4035374 117.745443,51.3556863 117.708984,51.2554254 L116.916016,49.437066 C116.852213,49.2912319 116.820312,49.1909725 116.820312,49.1362847 C116.820312,49.0907116 116.909179,48.9722232 117.086914,48.780816 C117.264649,48.5894088 117.387695,48.3729396 117.456055,48.1314019 C117.524414,47.8898643 117.558594,47.5685784 117.558594,47.1675347 L117.558594,41.671441 L115.056641,41.671441 L114.878906,41.5757379 C114.815104,41.4845916 114.776367,41.3524314 114.762695,41.1792535 C114.749023,41.0060755 114.847004,40.9194879 115.056641,40.9194879 L117.558594,40.9194879 L117.558594,36.9546441 L116.123047,36.9546441 C115.949869,36.9546441 115.863281,36.8315985 115.863281,36.5855035 C115.863281,36.3394085 115.949869,36.2163629 116.123047,36.2163629 L119.773438,36.2163629 L120.333984,35.1909722 C120.397787,35.0815967 120.443359,35.0246311 120.470703,35.0200738 C120.498047,35.0155165 120.557291,35.0724821 120.648438,35.1909722 L121.728516,36.6948785 C121.75586,36.7404516 121.77181,36.7791882 121.776367,36.8110894 C121.780925,36.8429906 121.778646,36.8634982 121.769531,36.8726129 C121.742187,36.9273006 121.701172,36.9546441 121.646484,36.9546441 L119.376953,36.9546441 Z M124.859375,30.7202691 L128.400391,30.7202691 L128.974609,29.7769097 C129.029297,29.6766488 129.068034,29.6242405 129.09082,29.6196832 C129.113607,29.6151259 129.17513,29.6675342 129.275391,29.7769097 L130.697266,31.4175347 C130.761068,31.4904518 130.802083,31.5451387 130.820312,31.5815972 C130.838542,31.6180558 130.845378,31.6636282 130.84082,31.718316 C130.836263,31.7730038 130.788412,31.8231335 130.697266,31.8687066 L129.904297,32.3062066 C129.238929,33.4090767 128.564457,34.4800296 127.880859,35.5190972 C128.865239,36.2664968 130.177726,36.7450077 131.818359,36.9546441 L132.460938,37.0366754 C132.542969,37.0549046 132.583984,37.1095916 132.583984,37.2007379 C132.57487,37.2645403 132.533855,37.3283417 132.460938,37.3921441 L132.009766,37.8159722 C131.772785,38.0347233 131.567709,38.4266465 131.394531,38.9917535 L131.271484,39.3882379 C131.207682,39.5614158 131.164388,39.657118 131.141602,39.6753472 C131.118815,39.6935765 131.066407,39.6799048 130.984375,39.6343316 L130.4375,39.3882379 C129.207025,38.8504748 127.994798,37.9618118 126.800781,36.7222222 C125.533848,38.0073849 124.029957,39.1239102 122.289062,40.0718316 L121.769531,40.358941 C121.733073,40.3771703 121.705729,40.3817275 121.6875,40.3726129 C121.660156,40.3726129 121.644206,40.3589411 121.639648,40.3315972 C121.635091,40.3042534 121.630534,40.2746313 121.625977,40.2427301 C121.621419,40.2108289 121.621419,40.1834854 121.625977,40.1606988 C121.630534,40.1379122 121.655599,40.1082901 121.701172,40.0718316 L122.125,39.702691 L123.259766,38.7456597 C124.01628,38.0711772 124.904943,36.9956671 125.925781,35.5190972 C125.369789,34.616749 124.996095,33.8967041 124.804687,33.358941 L124.257812,31.9233941 C123.401037,33.4819957 122.794924,34.5347195 122.439453,35.0815972 L122.015625,35.7515191 C121.915364,35.9064678 121.849284,35.9565975 121.817383,35.9019097 C121.785482,35.847222 121.767253,35.792535 121.762695,35.7378472 C121.758138,35.6831595 121.774088,35.6102435 121.810547,35.5190972 L122.070312,34.8491754 C122.188803,34.539278 122.421222,33.8602483 122.767578,32.812066 C123.113934,31.7638837 123.396483,30.7293888 123.615234,29.7085504 L123.970703,28.0269097 L124.121094,27.2749566 L124.148437,27.0972222 L124.175781,27.0425347 L124.367187,27.1655816 L126.185547,28.2730035 C126.249349,28.3185766 126.285807,28.3755422 126.294922,28.4439019 C126.304037,28.5122617 126.253907,28.5783417 126.144531,28.6421441 L125.652344,28.9565972 L124.859375,30.7202691 Z M128.25,31.4585504 L124.503906,31.4585504 L124.462891,31.5542535 C125.100915,32.6571236 125.606769,33.3999547 125.980469,33.7827691 L126.595703,34.4663629 C127.060549,33.7098487 127.402343,33.1265212 127.621094,32.7163629 L128.25,31.4585504 Z M117.900391,31.9233941 L120.115234,31.9233941 L120.716797,30.8843316 C120.780599,30.7749561 120.821614,30.7179905 120.839844,30.7134332 C120.858073,30.7088759 120.899088,30.738498 120.962891,30.8023004 L122.083984,32.3608941 C122.129558,32.4246965 122.152344,32.4930552 122.152344,32.5659722 C122.152344,32.6388893 122.0931,32.6753472 121.974609,32.6753472 L117.599609,32.6753472 C116.724605,34.6258778 116.248373,35.6786017 116.170898,35.8335504 C116.093424,35.9884991 115.808596,36.5353686 115.316406,37.4741754 L114.974609,38.1304254 C114.947265,38.1851131 114.90625,38.2078994 114.851562,38.1987847 C114.778645,38.1987847 114.742188,38.1782771 114.742188,38.1372613 L114.742188,37.9253472 L115.001953,37.2280816 C115.129558,36.899955 115.346027,36.2391543 115.651367,35.2456597 C115.956707,34.2521652 116.271157,33.0376591 116.594727,31.6021051 C116.918296,30.166551 117.125651,29.1252203 117.216797,28.4780816 L117.394531,27.3023004 L117.408203,27.1382379 C117.417318,27.1017794 117.435547,27.0789931 117.462891,27.0698785 L117.558594,27.1382379 L119.445312,28.218316 C119.536459,28.2730038 119.593424,28.3185762 119.616211,28.3550347 C119.638998,28.3914933 119.648112,28.4325085 119.643555,28.4780816 C119.638997,28.5236548 119.591146,28.5783417 119.5,28.6421441 L118.994141,28.983941 L117.900391,31.9233941 Z" id="夺目-先锋"></path>
                <path d="M30.3930664,9.77197266 C30.3588865,9.81298849 30.3212893,9.87451131 30.2802734,9.95654297 C30.2392576,10.0385746 30.164063,10.124023 30.0546875,10.2128906 L30.0546875,13.2583008 L31.4697266,13.2583008 L32.0131836,12.3457031 C32.1225591,12.1542959 32.1909178,12.0568848 32.2182617,12.0534668 C32.2456056,12.0500488 32.3549795,12.1474599 32.5463867,12.3457031 L33.4794922,13.4018555 C33.5888677,13.5317389 33.6401368,13.634277 33.6333008,13.7094727 C33.6264648,13.7846683 33.5615241,13.8222656 33.4384766,13.8222656 L30.0546875,13.8222656 L30.0546875,17.5546875 L33.2231445,17.5546875 L33.9306641,16.4575195 L34.0537109,16.293457 C34.1220707,16.1772455 34.1699217,16.1208496 34.1972656,16.1242676 C34.2246095,16.1276856 34.3374014,16.2387684 34.5356445,16.4575195 L35.5917969,17.6469727 C35.6669926,17.7426763 35.7114257,17.809326 35.7250977,17.8469238 C35.7387696,17.8845217 35.7473144,17.9357907 35.7507324,18.0007324 C35.7541504,18.0656742 35.6738289,18.0981445 35.5097656,18.0981445 L23.6459961,18.0981445 C23.5297846,18.0981445 23.4699707,18.0075693 23.4665527,17.826416 C23.4631347,17.6452628 23.5229486,17.5546875 23.6459961,17.5546875 L28.6704102,17.5546875 L28.6704102,13.8222656 L25.5327148,13.8222656 C25.484863,13.8017577 25.4472658,13.7761232 25.4199219,13.7453613 C25.392578,13.7145995 25.3806152,13.6257332 25.3840332,13.4787598 C25.3874512,13.3317864 25.4370112,13.2583008 25.5327148,13.2583008 L28.6704102,13.2583008 L28.6704102,9.77197266 L25.5634766,9.77197266 C25.454101,9.77197266 25.3959961,9.68139739 25.3891602,9.50024414 C25.3823242,9.31909089 25.4404291,9.22851563 25.5634766,9.22851563 L30.7211914,9.22851563 L31.2646484,8.37744141 C31.3876959,8.17919823 31.4594726,8.08178709 31.4799805,8.08520508 C31.5004884,8.08862306 31.5893547,8.17236246 31.746582,8.33642578 L32.6899414,9.36181641 C32.792481,9.47802792 32.8403321,9.57031216 32.8334961,9.63867188 C32.8266601,9.72753951 32.7651373,9.77197266 32.6489258,9.77197266 L30.3930664,9.77197266 Z M29.7163086,2.86083984 C28.6704049,4.59034068 27.831302,5.86010337 27.1989746,6.67016602 C26.5666472,7.48022866 25.9719266,8.17065144 25.4147949,8.74145508 C24.8576632,9.31225871 24.4047869,9.72753776 24.0561523,9.98730469 C23.7075178,10.2470716 23.5229493,10.3872069 23.5024414,10.4077148 L23.2358398,10.6333008 C23.187988,10.6743166 23.136719,10.6931153 23.0820312,10.6896973 C23.0273435,10.6862793 23,10.6743165 23,10.6538086 L23,10.5615234 C23,10.5205076 23.0239255,10.4692386 23.0717773,10.4077148 L23.328125,10.1103516 C23.8886747,9.44042634 24.4611787,8.66968209 25.0456543,7.7980957 C25.6301299,6.92650931 26.248776,5.83789715 26.9016113,4.53222656 C27.5544466,3.22655597 28.0209947,2.18408593 28.3012695,1.40478516 L28.465332,0.943359375 L28.578125,0.543457031 C28.5917969,0.522949116 28.6020507,0.505859443 28.6088867,0.4921875 L28.9575195,0.717773438 L30.4853516,1.66113281 C30.5537113,1.70898461 30.5981444,1.7517088 30.6186523,1.78930664 C30.6391603,1.82690448 30.651123,1.87475557 30.654541,1.93286133 C30.657959,1.99096709 30.6118169,2.04736301 30.5161133,2.10205078 L30.0341797,2.38916016 L29.9624023,2.51220703 C30.5024441,3.81104165 31.0390598,4.75097366 31.5722656,5.33203125 C32.1054714,5.91308884 32.5703105,6.36767414 32.9667969,6.69580078 C33.3632832,7.02392742 33.7871071,7.3332505 34.2382812,7.6237793 C34.6894554,7.91430809 35.1474586,8.13476487 35.6123047,8.28515625 L36.0839844,8.42871094 L36.4326172,8.54150391 C36.5214848,8.57568376 36.5693359,8.60815414 36.5761719,8.63891602 C36.5830078,8.66967789 36.5864258,8.6953124 36.5864258,8.71582031 C36.5727538,8.78418003 36.5488283,8.82861318 36.5146484,8.84912109 L36.2993164,8.97216797 C36.0942373,9.09521546 35.9318854,9.2080073 35.8122559,9.31054688 C35.6926264,9.41308645 35.5644538,9.55834867 35.4277344,9.74633789 C35.2910149,9.93432711 35.1987307,10.1086418 35.1508789,10.2692871 C35.1030271,10.4299324 35.0688478,10.5290525 35.0483398,10.5666504 C35.0278319,10.6042482 35.0039064,10.6196289 34.9765625,10.612793 C34.853515,10.612793 34.4040566,10.3051789 33.6281738,9.68994141 C32.852291,9.07470396 32.2251,8.39624394 31.746582,7.65454102 C31.268064,6.91283809 30.8732926,6.18823596 30.5622559,5.48071289 C30.2512191,4.77318982 30.0273444,4.12890916 29.890625,3.54785156 L29.7163086,2.86083984 Z M43.1361328,3.32226562 L43.5052734,2.60449219 C43.6419929,2.33788929 43.7223143,2.20629881 43.7462402,2.2097168 C43.7701661,2.21313478 43.8709952,2.32421766 44.0487305,2.54296875 L44.6947266,3.36328125 C44.82461,3.54101651 44.8895508,3.65380835 44.8895508,3.70166016 C44.8827148,3.74267599 44.8622072,3.78027327 44.8280273,3.81445312 C44.7938475,3.84863298 44.7494143,3.86572266 44.6947266,3.86572266 L43.4027344,3.86572266 L43.4027344,3.88623047 L42.7054688,3.88623047 L43.8641602,4.76806641 C43.9666997,4.85009807 44.0265136,4.90649399 44.0436035,4.93725586 C44.0606934,4.96801773 44.0675293,5.00903295 44.0641113,5.06030273 C44.0606933,5.11157252 44.0077154,5.16113257 43.9051758,5.20898438 L43.5052734,5.4140625 C43.0677713,6.41211437 42.7293957,7.18114964 42.4901367,7.72119141 L43.3514648,7.72119141 L43.7206055,7.03417969 C43.836817,6.82226457 43.9034667,6.70776376 43.9205566,6.69067383 C43.9376466,6.6735839 43.9615721,6.6787108 43.992334,6.70605469 C44.0230959,6.73339857 44.0931635,6.81201107 44.2025391,6.94189453 L44.8280273,7.74169922 C44.9784187,7.9399424 45.0536133,8.06640598 45.0536133,8.12109375 C45.0536133,8.16210958 45.0331057,8.20141583 44.9920898,8.23901367 C44.951074,8.27661152 44.8963871,8.29541016 44.8280273,8.29541016 L42.4696289,8.29541016 C42.435449,8.33642599 42.4081056,8.37402327 42.3875977,8.40820312 C42.3670897,8.44238298 42.3055669,8.50048787 42.2030273,8.58251953 L42.2030273,10.7255859 L42.8695313,10.7255859 L43.330957,9.92578125 C43.4061527,9.78222584 43.4625486,9.70874025 43.5001465,9.70532227 C43.5377443,9.70190428 43.6351555,9.79589748 43.7923828,9.98730469 L44.5511719,10.9511719 C44.6126956,11.0332035 44.643457,11.1015622 44.643457,11.15625 C44.643457,11.1972658 44.6280763,11.2331541 44.5973145,11.263916 C44.5665526,11.2946779 44.5340822,11.3100586 44.4999023,11.3100586 L42.2030273,11.3100586 L42.2030273,16.734375 C42.2030273,17.0283218 42.1585942,17.2658682 42.0697266,17.4470215 C41.9808589,17.6281747 41.873194,17.7580562 41.7467285,17.8366699 C41.620263,17.9152836 41.4339856,18.0092768 41.1878906,18.1186523 C40.9417956,18.2280279 40.7777348,18.275879 40.6957031,18.262207 C40.6615233,18.262207 40.6375977,18.2553712 40.6239258,18.2416992 C40.6102538,18.2280273 40.5982911,18.2006838 40.5880371,18.159668 C40.5777832,18.1186521 40.5709473,18.0400396 40.5675293,17.9238281 C40.5641113,17.8076166 40.5401858,17.6384288 40.495752,17.4162598 C40.4513181,17.1940907 40.2958021,16.9941415 40.0291992,16.8164062 L39.6395508,16.5600586 C39.5438472,16.5053708 39.499414,16.4335942 39.50625,16.3447266 C39.50625,16.249023 39.560937,16.2045898 39.6703125,16.2114258 L40.1214844,16.2729492 C40.224024,16.2934571 40.3145992,16.3088378 40.3932129,16.3190918 C40.4718266,16.3293458 40.5282225,16.3344727 40.5624023,16.3344727 L40.7879883,16.3344727 C40.9657235,16.3549806 41.0545898,16.2866219 41.0545898,16.1293945 L41.0545898,11.3100586 L38.3885742,11.3100586 L38.2860352,11.269043 C38.2040035,11.1938473 38.1544434,11.0844734 38.1373535,10.940918 C38.1202636,10.7973626 38.1903312,10.7255859 38.3475586,10.7255859 L41.0545898,10.7255859 L41.0545898,8.29541016 L38.19375,8.29541016 L38.1117188,8.27490234 C38.0707029,8.25439443 38.0365236,8.22875992 38.0091797,8.19799805 C37.9818358,8.16723617 37.9647461,8.08007884 37.9579102,7.93652344 C37.9510742,7.79296803 38.0194329,7.72119141 38.1629883,7.72119141 L41.9364258,7.72119141 C42.0526373,7.25634533 42.1756829,6.65649781 42.3055664,5.92163086 C42.4354499,5.1867639 42.5140624,4.68945442 42.5414063,4.4296875 L42.6029297,3.88623047 L38.4500977,3.88623047 C38.3338861,3.88623047 38.2638185,3.79223727 38.2398926,3.60424805 C38.2159667,3.41625883 38.2860343,3.32226562 38.4500977,3.32226562 L43.1361328,3.32226562 Z M46.3866211,7.35205078 L49.2166992,7.35205078 L49.5755859,6.61376953 C49.7123054,6.33349469 49.7909179,6.18481454 49.8114258,6.16772461 C49.8319337,6.15063468 49.8592772,6.15576158 49.893457,6.18310547 C49.9276369,6.21044936 50.0335929,6.333495 50.2113281,6.55224609 L50.9188477,7.47509766 C50.9872074,7.57080126 51.0265136,7.63403305 51.0367676,7.66479492 C51.0470215,7.69555679 51.0521484,7.72460924 51.0521484,7.75195313 C51.0521484,7.86132867 51.0077153,7.91601563 50.9188477,7.91601563 L49.2987305,7.91601563 C49.2440427,8.02539117 49.1996095,8.09545883 49.1654297,8.1262207 C49.1312498,8.15698258 49.0833987,8.18603502 49.021875,8.21337891 L49.021875,17.0009766 L49.0628906,18.2827148 C49.0013669,18.5288098 48.8800302,18.7014155 48.698877,18.8005371 C48.5177237,18.8996587 48.3485359,18.9458008 48.1913086,18.9389648 C48.0067374,18.9389648 47.8888186,18.8979496 47.8375488,18.815918 C47.786279,18.7338863 47.7538087,18.6347662 47.7401367,18.5185547 L47.8016602,16.4165039 L47.8016602,7.91601563 L46.3866211,7.91601563 C46.3592772,8.81152792 46.3336427,9.59936183 46.3097168,10.279541 C46.2857909,10.9597202 46.2379398,11.5766574 46.1661621,12.1303711 C46.0943844,12.6840848 45.9422863,13.350582 45.7098633,14.1298828 C45.4774402,14.9091836 45.1339378,15.6013153 44.6793457,16.2062988 C44.2247536,16.8112823 43.8590346,17.2692856 43.5821777,17.5803223 C43.3053209,17.891359 43.0917,18.1049799 42.9413086,18.2211914 L42.6336914,18.4775391 C42.5721677,18.5253909 42.5226076,18.5476074 42.4850098,18.5441895 C42.4474119,18.5407715 42.4234864,18.5288087 42.4132324,18.5083008 C42.4029785,18.4877929 42.3978516,18.4672853 42.3978516,18.4467773 C42.3978516,18.4262694 42.3995605,18.4006349 42.4029785,18.369873 C42.4063965,18.3391112 42.4354489,18.2895511 42.4901367,18.2211914 L42.7567383,17.9033203 C43.3993196,17.1308555 43.9103008,16.3105512 44.2896973,15.4423828 C44.6690937,14.5742144 44.9066401,13.6667528 45.0023438,12.7199707 C45.0980474,11.7731886 45.1595702,10.8981974 45.1869141,10.0949707 C45.214258,9.29174403 45.2313476,8.32275958 45.2381836,7.18798828 C45.2381836,6.45653931 45.2262208,5.73193718 45.2022949,5.01416016 C45.178369,4.29638313 45.1664063,3.89990272 45.1664063,3.82470703 L45.1664063,3.40429688 L45.0741211,1.95849609 L45.1202637,1.92773438 C45.1305176,1.9208984 45.2416005,1.99267503 45.4535156,2.14306641 L46.4789063,2.88134766 C47.3197308,2.41650158 47.9964818,1.95849835 48.5091797,1.50732422 L48.8578125,1.19970703 L49.0936523,0.922851563 C49.1278322,0.909179619 49.1620115,0.909179619 49.1961914,0.922851563 L49.4525391,1.26123047 L50.2728516,2.20458984 C50.416407,2.37548914 50.4881836,2.48828098 50.4881836,2.54296875 C50.4813476,2.62500041 50.4334965,2.67285149 50.3446289,2.68652344 L49.9037109,2.75830078 L47.9657227,3.14794922 L46.4173828,3.40429688 C46.4105468,4.16308973 46.4071289,4.72704894 46.4071289,5.09619141 L46.3866211,6.22412109 L46.3866211,7.35205078 Z M40.2547852,13.0942383 C40.0155261,13.6752959 39.8463384,14.0734853 39.7472168,14.2888184 C39.6480952,14.5041515 39.4361833,14.9245574 39.1114746,15.5500488 C38.786766,16.1755402 38.573145,16.5634758 38.4706055,16.7138672 L38.1629883,17.175293 C38.1014645,17.2641606 38.0536135,17.3085938 38.0194336,17.3085938 C38.0057617,17.3154297 37.9937989,17.3120118 37.9835449,17.2983398 C37.973291,17.2846679 37.9681641,17.2521975 37.9681641,17.2009277 C37.9681641,17.1496579 37.9818358,17.0761724 38.0091797,16.9804688 L38.1629883,16.5395508 C38.1903322,16.4711911 38.2603998,16.2490253 38.3731934,15.8730469 C38.4859869,15.4970684 38.5560546,15.2543951 38.5833984,15.1450195 C38.6107423,15.035644 38.6893548,14.7126492 38.8192383,14.1760254 C38.9491217,13.6394016 39.0311522,13.2377943 39.065332,12.9711914 L39.1576172,12.3354492 L39.1986328,11.8535156 C39.2054688,11.8261717 39.2191405,11.8056641 39.2396484,11.7919922 L39.4242188,11.925293 L40.4393555,12.5712891 C40.548731,12.6464848 40.603418,12.7080076 40.603418,12.7558594 C40.603418,12.7763673 40.5931642,12.8071287 40.5726563,12.8481445 C40.5521483,12.8891604 40.5282228,12.9165038 40.5008789,12.9301758 L40.2547852,13.0942383 Z M39.5370117,5.03466797 L39.4037109,4.68603516 C39.390039,4.67236321 39.3832031,4.64331077 39.3832031,4.59887695 L39.3832031,4.51171875 C39.3968751,4.44335903 39.4276365,4.40917969 39.4754883,4.40917969 C39.537012,4.41601566 39.800193,4.6279276 40.2650391,5.04492188 C40.7298851,5.46191615 40.9520509,5.9814422 40.931543,6.60351562 C40.924707,6.86328255 40.8563483,7.10424694 40.7264648,7.32641602 C40.5965814,7.5485851 40.4222667,7.65966797 40.2035156,7.65966797 C39.9164048,7.66650394 39.7557619,7.54687623 39.721582,7.30078125 C39.6874022,7.05468627 39.6720215,6.82397569 39.6754395,6.60864258 C39.6788574,6.39330947 39.6805664,6.22070377 39.6805664,6.09082031 C39.6737304,5.61230229 39.6258794,5.26025503 39.5370117,5.03466797 Z M40.3163086,0.779296875 L40.1522461,0.533203125 C40.1317382,0.499023267 40.1197754,0.464843921 40.1163574,0.430664062 C40.1129394,0.396484204 40.1146484,0.369140728 40.1214844,0.348632812 C40.1351563,0.300781011 40.1727536,0.273437534 40.2342773,0.266601562 C40.2752932,0.266601562 40.4256823,0.307616777 40.6854492,0.389648438 C40.9452161,0.471680098 41.2374495,0.610106448 41.5621582,0.804931641 C41.8868669,0.999756833 42.0748533,1.26635573 42.126123,1.60473633 C42.1773928,1.94311693 42.2030273,2.14477507 42.2030273,2.2097168 C42.2030273,2.27465853 42.1927735,2.35839792 42.1722656,2.4609375 C42.1312498,2.63867276 42.0526373,2.82153226 41.9364258,3.00952148 C41.8202143,3.19751071 41.6458996,3.28808597 41.4134766,3.28125 C41.1742176,3.28125 41.0067388,3.1975106 40.9110352,3.0300293 C40.8153316,2.86254799 40.7572267,2.67285262 40.7367188,2.4609375 L40.6751953,1.8046875 C40.6546874,1.64062418 40.625635,1.48681712 40.5880371,1.34326172 C40.5504393,1.19970631 40.459864,1.01171991 40.3163086,0.779296875 Z M42.7772461,12.8481445 L42.6541992,12.6123047 C42.5926755,12.4892572 42.5704589,12.4003909 42.5875488,12.3457031 C42.6046388,12.2910154 42.6148926,12.2602539 42.6183105,12.253418 C42.6217285,12.246582 42.6336913,12.2397461 42.6541992,12.2329102 C42.7499028,12.2329102 42.9652327,12.3815903 43.3001953,12.6789551 C43.6351579,12.9763198 43.8863761,13.2702622 44.0538574,13.560791 C44.2213387,13.8513198 44.3016602,14.153807 44.2948242,14.4682617 C44.2879882,14.7075207 44.2247565,14.9331044 44.105127,15.1450195 C43.9854975,15.3569347 43.8231456,15.4628906 43.6180664,15.4628906 C43.3924793,15.4697266 43.2489261,15.3757334 43.1874023,15.1809082 C43.1258786,14.986083 43.0916993,14.7861338 43.0848633,14.5810547 L43.0746094,13.9555664 C43.0472655,13.5454081 42.9481454,13.1762712 42.7772461,12.8481445 Z M60.3806641,1.22021484 L61.0779297,4.63476562 C61.1257815,4.87402463 61.0933111,5.03124962 60.9805176,5.10644531 C60.867724,5.181641 60.7771488,5.13037198 60.7087891,4.95263672 L60.5037109,4.47070312 C60.3601555,4.14257648 60.1995126,3.8076189 60.0217773,3.46582031 C59.8440421,3.12402173 59.5637714,2.76855653 59.180957,2.39941406 C58.7981426,2.03027159 58.2957062,1.85937486 57.6736328,1.88671875 C57.147263,1.92089861 56.6619163,2.14990022 56.2175781,2.57373047 C55.77324,2.99756071 55.4451183,3.54784818 55.2332031,4.22460938 C55.021288,4.90137057 54.864063,5.6259727 54.7615234,6.3984375 C54.6589839,7.1709023 54.6111328,7.92968377 54.6179688,8.67480469 C54.6179688,10.0351631 54.7803206,11.2006787 55.1050293,12.1713867 C55.429738,13.1420947 55.8398901,13.8769506 56.335498,14.3759766 C56.831106,14.8750025 57.3967742,15.1313476 58.0325195,15.1450195 C58.5862332,15.1655274 59.0510723,15.0083025 59.4270508,14.6733398 C59.8030292,14.3383772 60.1243151,13.9196802 60.390918,13.4172363 C60.6575209,12.9147924 60.8489252,12.5302748 60.9651367,12.2636719 L61.1702148,11.8125 C61.2522465,11.6279288 61.332568,11.5681149 61.4111816,11.6330566 C61.4897953,11.6979984 61.4983402,11.8398427 61.4368164,12.0585938 L61.2830078,12.6020508 C61.1941402,12.8959976 61.0215345,13.343747 60.7651855,13.9453125 C60.5088366,14.546878 60.1294459,15.1022924 59.627002,15.6115723 C59.124558,16.1208522 58.5247105,16.3959959 57.8274414,16.4370117 C57.0618126,16.4848635 56.3816436,16.249026 55.7869141,15.7294922 C55.1921845,15.2099583 54.7222185,14.6135288 54.377002,13.9401855 C54.0317854,13.2668423 53.7737313,12.5148967 53.602832,11.6843262 C53.4319327,10.8537556 53.3464844,9.88477116 53.3464844,8.77734375 C53.3533203,7.79296383 53.4302239,6.8906291 53.5771973,6.0703125 C53.7241707,5.2499959 53.9497543,4.47925165 54.2539551,3.75805664 C54.5581558,3.03686163 54.9734349,2.44043205 55.4998047,1.96875 C56.0261745,1.49706795 56.6584924,1.23388699 57.3967773,1.17919922 C57.8206076,1.15185533 58.2239239,1.20654229 58.6067383,1.34326172 L59.3142578,1.63037109 C59.4646492,1.68505887 59.5842769,1.70556647 59.6731445,1.69189453 C59.796192,1.67822259 59.9363273,1.60302803 60.0935547,1.46630859 L60.3806641,1.22021484 Z M71.0114258,16.4370117 L63.3517578,16.4370117 C63.2287103,16.4370117 63.1688965,16.3344737 63.1723145,16.1293945 C63.1757324,15.9243154 63.252636,15.8217773 63.4030273,15.8217773 L63.7106445,15.8217773 C63.9088877,15.8217773 64.0626948,15.7790532 64.1720703,15.6936035 C64.2814459,15.6081539 64.3617673,15.4919441 64.4130371,15.3449707 C64.4643069,15.1979973 64.4899414,14.9433612 64.4899414,14.5810547 L64.4899414,3.19921875 C64.4899414,2.87792808 64.4762697,2.67456097 64.4489258,2.58911133 C64.4215819,2.50366168 64.3446784,2.41650435 64.2182129,2.32763672 C64.0917474,2.23876909 63.9225597,2.19433594 63.7106445,2.19433594 L63.3004883,2.19433594 C63.1432609,2.19433594 63.0646484,2.09008893 63.0646484,1.8815918 C63.0646484,1.67309466 63.1432609,1.56884766 63.3004883,1.56884766 L66.8483398,1.56884766 C66.9850593,1.56884766 67.0636718,1.67309466 67.0841797,1.8815918 C67.1046876,2.09008893 67.0260751,2.19433594 66.8483398,2.19433594 L66.4279297,2.19433594 C66.2228505,2.19433594 66.0724614,2.23706012 65.9767578,2.32250977 C65.8810542,2.40795941 65.8144045,2.51904229 65.7768066,2.65576172 C65.7392088,2.79248115 65.7204102,2.96337788 65.7204102,3.16845703 L65.7204102,14.5810547 C65.7204102,14.9296892 65.7545895,15.1826164 65.8229492,15.3398438 C65.8913089,15.4970711 66.0194815,15.6166988 66.2074707,15.6987305 C66.3954599,15.7807621 66.6979471,15.8217773 67.1149414,15.8217773 L68.1198242,15.8217773 C68.4616228,15.8217773 68.7897445,15.7705083 69.1041992,15.6679688 C69.4186539,15.5654292 69.6920887,15.3842786 69.9245117,15.1245117 C70.1569348,14.8647448 70.3363763,14.5690935 70.4628418,14.2375488 C70.5893073,13.9060042 70.707226,13.5385762 70.8166016,13.1352539 L71.0011719,12.4072266 C71.0421877,12.2568352 71.1088374,12.1782227 71.2011231,12.1713867 C71.2934087,12.1645507 71.3327149,12.2431632 71.319043,12.4072266 L71.0114258,16.4370117 Z M78.740332,1.70214844 L79.5708984,5.28076172 C79.6187502,5.48584087 79.5862799,5.63281206 79.4734863,5.72167969 C79.3606928,5.81054732 79.2632817,5.73877069 79.18125,5.50634766 L78.9966797,5.02441406 C78.8873041,4.73046728 78.6976088,4.32373307 78.4275879,3.80419922 C78.157567,3.28466537 77.8157736,2.81640833 77.4021973,2.39941406 C76.988621,1.98241979 76.5254909,1.77392578 76.012793,1.77392578 C75.5000951,1.78076175 75.0762712,1.99950957 74.7413086,2.43017578 C74.406346,2.860842 74.2029789,3.44530881 74.1312012,4.18359375 C74.0594235,4.92187869 74.1568346,5.55419659 74.4234375,6.08056641 C74.6011728,6.45654485 74.8780255,6.77612173 75.2540039,7.03930664 C75.6299824,7.30249155 76.1409636,7.57934425 76.7869629,7.86987305 C77.4329622,8.16040184 77.9798318,8.46630699 78.4275879,8.78759766 C78.875344,9.10888833 79.2359361,9.56860052 79.509375,10.166748 C79.7828139,10.7648956 79.9246582,11.4467735 79.9349121,12.2124023 C79.9451661,12.9780312 79.8135756,13.6855436 79.5401367,14.3349609 C79.2940417,14.9296905 78.9471214,15.4184551 78.4993652,15.8012695 C78.0516091,16.1840839 77.5508817,16.4062497 76.997168,16.4677734 C76.6348615,16.5156252 76.296486,16.4985356 75.9820313,16.4165039 C75.6675766,16.3344722 75.4112315,16.2456059 75.2129883,16.1499023 L74.4336914,15.7910156 C74.2696281,15.7363279 74.1534183,15.7363279 74.0850586,15.7910156 C74.0166989,15.8320315 73.9688478,15.9038081 73.9415039,16.0063477 L73.8799805,16.2319336 C73.8321287,16.375489 73.760352,16.4541015 73.6646484,16.4677734 C73.5689448,16.4814454 73.4971682,16.3754894 73.4493164,16.1499023 L72.3931641,12.0483398 C72.3384763,11.8090808 72.3675287,11.6501469 72.4803223,11.5715332 C72.5931158,11.4929195 72.6836911,11.5424796 72.7520508,11.7202148 L73.0083984,12.3662109 C73.110938,12.6464858 73.321141,13.0891083 73.6390137,13.6940918 C73.9568864,14.2990753 74.3550757,14.7963848 74.8335938,15.1860352 C75.3121118,15.5756855 75.8487275,15.7739257 76.443457,15.7807617 C76.8125995,15.7875977 77.1680647,15.6918955 77.5098633,15.4936523 C77.8516619,15.2954092 78.1456042,14.9553247 78.3916992,14.4733887 C78.6377942,13.9914527 78.7608398,13.4121128 78.7608398,12.7353516 C78.7540039,12.147458 78.6565927,11.6655292 78.4686035,11.2895508 C78.2806143,10.9135723 77.9952168,10.5905775 77.6124023,10.3205566 C77.2295879,10.0505358 76.7151888,9.76172029 76.0691895,9.45410156 C75.4231901,9.14648284 74.8763206,8.83545079 74.4285645,8.52099609 C73.9808083,8.2065414 73.6202162,7.7622099 73.3467773,7.18798828 C73.0733385,6.61376666 72.9280763,5.94556045 72.9109863,5.18334961 C72.8938964,4.42113877 73.0323228,3.70166354 73.3262695,3.02490234 C73.5997084,2.40282892 73.9654274,1.92260911 74.4234375,1.58422852 C74.8814476,1.24584792 75.4146454,1.08691396 76.0230469,1.10742188 C76.3443375,1.12109382 76.6177723,1.17919871 76.8433594,1.28173828 C77.0689464,1.38427786 77.301366,1.52783111 77.540625,1.71240234 C77.779884,1.89697358 77.9473628,1.96875021 78.0430664,1.92773438 C78.1045902,1.90722646 78.1592771,1.86279331 78.2071289,1.79443359 L78.3506836,1.53808594 C78.3916994,1.47656219 78.4549312,1.43725594 78.5403809,1.42016602 C78.6258305,1.40307609 78.6924802,1.49706929 78.740332,1.70214844 Z M83.2495117,2.17382813 L91.8012695,2.17382813 L92.1293945,1.65087891 C92.252442,1.45263573 92.3378904,1.35180666 92.3857422,1.34838867 C92.433594,1.34497069 92.5429679,1.42529215 92.7138672,1.58935547 L93.277832,2.17382813 L93.6367188,2.53271484 C93.6572267,2.58056665 93.6657715,2.62329083 93.6623535,2.66088867 C93.6589355,2.69848652 93.6059576,2.78906178 93.503418,2.93261719 L93.1958008,3.35302734 L93.1958008,14.9501953 L93.2675781,17.0830078 C93.2402342,17.1923834 93.2043459,17.2778317 93.1599121,17.3393555 C93.1154783,17.4008792 92.9958506,17.4726558 92.8010254,17.5546875 C92.6062002,17.6367192 92.4370124,17.6743164 92.293457,17.6674805 C92.1909175,17.6674805 92.1020512,17.6350101 92.0268555,17.5700684 C91.9516598,17.5051266 91.9140625,17.4179693 91.9140625,17.3085938 L91.9140625,15.8217773 L83.1777344,15.8217773 L83.1777344,17.390625 C83.1777344,17.5136725 83.1008309,17.645263 82.9470215,17.7854004 C82.7932121,17.9255378 82.6103526,17.9973144 82.3984375,18.0007324 C82.1865224,18.0041504 82.0566409,17.9768069 82.0087891,17.9187012 C81.9609373,17.8605954 81.9267579,17.7836919 81.90625,17.6879883 L81.9780274,15.309082 L81.9780274,3.71191406 L81.90625,1.32275391 C81.9404299,1.24072225 81.9694823,1.1962891 81.9934082,1.18945313 C82.0173341,1.18261715 82.1010735,1.23388617 82.2446289,1.34326172 L83.2495117,2.17382813 Z M91.9140625,15.2578125 L91.9140625,2.73779297 L89.6582031,2.73779297 C89.6308592,2.79248074 89.5522468,2.92236226 89.4223633,3.12744141 L89.4223633,10.7768555 C89.4223633,10.9067389 89.4462888,11.0041501 89.4941406,11.0690918 C89.5419924,11.1340335 89.6479484,11.163086 89.8120117,11.15625 C90.3178736,11.1425781 90.6528312,11.0827642 90.8168945,10.9768066 C90.9809579,10.8708491 91.0903318,10.8161621 91.1450195,10.8127441 C91.1997073,10.8093262 91.2783198,10.8657221 91.3808594,10.9819336 C91.4970709,11.118653 91.5910641,11.275878 91.6628418,11.4536133 C91.7346195,11.6313485 91.7705078,11.7851556 91.7705078,11.9150391 C91.7499999,12.5234405 91.172369,12.8310547 90.0375977,12.8378906 C89.0873976,12.8515626 88.5593267,12.6994645 88.4533691,12.3815918 C88.3474116,12.0637191 88.2944336,11.809083 88.2944336,11.6176758 L88.2944336,2.73779297 L86.8383789,2.73779297 L86.7050781,2.91210938 C86.6982422,3.52051085 86.6914063,4.22289641 86.6845703,5.01928711 C86.6777343,5.81567781 86.6384281,6.69237803 86.5666504,7.64941406 C86.4948727,8.6064501 86.3120132,9.50878482 86.0180664,10.3564453 C85.7241196,11.2041058 85.129399,12.133784 84.2338867,13.1455078 L83.8237305,13.6069336 C83.6323233,13.8188487 83.5161135,13.9213868 83.4750977,13.9145508 C83.4682617,13.9145508 83.452881,13.9094239 83.4289551,13.8991699 C83.4050292,13.888916 83.3913574,13.8752442 83.3879395,13.8581543 C83.3845215,13.8410644 83.3811035,13.8171388 83.3776856,13.786377 C83.3742676,13.7556151 83.3964841,13.6958012 83.4443359,13.6069336 L83.659668,13.2583008 L84.0288086,12.6020508 C84.3432633,12.0415011 84.5927725,11.4843778 84.7773438,10.9306641 C84.961915,10.3769504 85.0969234,9.81811805 85.1823731,9.25415039 C85.2678227,8.69018273 85.3293455,8.06811864 85.3669434,7.38793945 C85.4045412,6.70776027 85.4267578,6.12842036 85.4335938,5.64990234 C85.4404297,5.17138433 85.4455566,4.71338109 85.4489746,4.27587891 C85.4523926,3.83837672 85.4506836,3.49658326 85.4438477,3.25048828 L85.4335938,3.00439453 L85.4233399,2.73779297 L83.1777344,2.73779297 L83.1777344,15.2578125 L91.9140625,15.2578125 Z M106.308008,2.41992188 L106.605371,1.90722656 C106.728419,1.69531144 106.817285,1.59106444 106.871973,1.59448242 C106.92666,1.59790041 107.049706,1.68847567 107.241113,1.86621094 L107.825586,2.43017578 C107.969141,2.57373119 108.05459,2.66943335 108.081934,2.71728516 C108.109277,2.76513696 108.124658,2.80786114 108.128076,2.84545898 C108.131494,2.88305683 108.068262,2.99072177 107.938379,3.16845703 L107.641016,3.58886719 L107.641016,17.4008789 C107.641016,17.5239264 107.61709,17.6708976 107.569238,17.8417969 C107.521386,18.0126962 107.377833,18.1579584 107.138574,18.2775879 C106.899315,18.3972174 106.666896,18.4792478 106.441309,18.5236816 C106.215722,18.5681155 106.079004,18.5869141 106.031152,18.5800781 C105.976465,18.5800781 105.935449,18.5698243 105.908105,18.5493164 C105.880762,18.5288085 105.860254,18.499756 105.846582,18.4621582 C105.83291,18.4245604 105.819238,18.3425299 105.805566,18.2160645 C105.791894,18.089599 105.740625,17.8981946 105.651758,17.6418457 C105.56289,17.3854968 105.361232,17.16504 105.046777,16.9804688 L104.564844,16.7036133 C104.475976,16.6557615 104.434961,16.5908207 104.441797,16.5087891 C104.441797,16.3925775 104.496484,16.3413085 104.605859,16.3549805 L105.303125,16.4575195 C105.911526,16.5532231 106.246484,16.5446783 106.308008,16.4318848 C106.369532,16.3190912 106.400293,16.1943366 106.400293,16.0576172 L106.420801,2.97363281 L101.673242,2.97363281 C101.557031,2.97363281 101.488672,2.88134858 101.468164,2.69677734 C101.447656,2.51220611 101.516015,2.41992188 101.673242,2.41992188 L106.308008,2.41992188 Z M98.2381836,4.61425781 L98.2381836,18.0058594 C98.2381836,18.2246105 98.1698249,18.3732906 98.0331055,18.4519043 C97.896386,18.530518 97.7254893,18.5749511 97.5204102,18.5852051 C97.315331,18.595459 97.1888674,18.5715335 97.1410156,18.5134277 C97.0931638,18.455322 97.0555666,18.3784184 97.0282227,18.2827148 L97.1,16.078125 L97.1,5.59863281 L97.0282227,3.25048828 C97.0555666,3.21630842 97.0760742,3.19750978 97.0897461,3.1940918 C97.103418,3.19067381 97.1615229,3.20947245 97.2640625,3.25048828 L98.3817383,3.70166016 C98.5321297,3.7631839 98.6295408,3.82299776 98.6739746,3.88110352 C98.7184084,3.93920927 98.738916,3.99389623 98.7354981,4.04516602 C98.7320801,4.0964358 98.6654303,4.18701107 98.5355469,4.31689453 L98.2381836,4.61425781 Z M98.5355469,0.758789062 C98.5218749,0.745117119 98.516748,0.705810872 98.520166,0.640869141 C98.523584,0.57592741 98.5594723,0.536621162 98.627832,0.522949219 C98.6551759,0.522949219 98.8773417,0.616942419 99.2943359,0.804931641 C99.7113302,0.992920862 100.044579,1.2783184 100.294092,1.66113281 C100.543605,2.04394723 100.668359,2.42333796 100.668359,2.79931641 C100.661523,3.0659193 100.615381,3.28979402 100.529932,3.47094727 C100.444482,3.65210052 100.297511,3.82983311 100.089014,4.00415039 C99.8805165,4.17846767 99.6532239,4.12548968 99.4071289,3.84521484 C99.2840814,3.71533138 99.2105958,3.58715884 99.1866699,3.46069336 C99.162744,3.33422788 99.1388185,3.06592002 99.1148926,2.65576172 C99.0909667,2.24560342 99.0465335,1.92602654 98.9815918,1.69702148 C98.9166501,1.46801643 98.8260748,1.25097759 98.7098633,1.04589844 L98.5355469,0.758789062 Z M121.563281,5.42431641 L122.116992,4.40917969 C122.20586,4.25195234 122.263965,4.17504881 122.291309,4.1784668 C122.318652,4.18188478 122.373339,4.23144483 122.455371,4.32714844 L123.378223,5.51660156 C123.480762,5.653321 123.525195,5.7626949 123.511523,5.84472656 C123.497852,5.92675822 123.453418,5.96777344 123.378223,5.96777344 L120.066211,5.96777344 C120.168751,6.25488425 120.233691,6.43432581 120.261035,6.50610352 C120.288379,6.57788122 120.430223,6.84789805 120.686572,7.31616211 C120.942921,7.78442617 121.344529,8.24072043 121.891406,8.68505859 C122.438284,9.12939675 122.954392,9.43701086 123.439746,9.60791016 L123.92168,9.78222656 C123.996875,9.80957045 124.032764,9.86083947 124.029346,9.93603516 C124.025928,10.0112308 123.990039,10.0624999 123.92168,10.0898438 L123.644824,10.2026367 C123.378221,10.3188482 123.169727,10.4999988 123.019336,10.7460938 L122.79375,11.1870117 C122.732226,11.3100592 122.680957,11.3681641 122.639941,11.3613281 C122.537402,11.3544922 122.32549,11.1818865 122.004199,10.8435059 C121.682909,10.5051253 121.435108,10.206056 121.260791,9.94628906 C121.086474,9.68652214 120.907032,9.36352732 120.722461,8.97729492 C120.53789,8.59106252 120.378956,8.20654488 120.245654,7.82373047 C120.112353,7.44091605 120.016651,7.06665222 119.958545,6.70092773 C119.900439,6.33520325 119.861133,6.09082093 119.840625,5.96777344 L119.163867,5.96777344 C119.095507,6.13867273 119.027149,6.29589772 118.958789,6.43945312 L118.507617,7.42382813 C118.152147,8.14160515 117.687308,8.87475212 117.113086,9.62329102 C116.538864,10.3718299 116.036428,10.9340802 115.605762,11.3100586 L115.226367,11.6381836 C115.130664,11.7270512 115.075977,11.7219243 115.062305,11.6228027 C115.048633,11.5236811 115.075976,11.4331059 115.144336,11.3510742 L115.492969,10.9306641 C115.670704,10.7187489 115.855272,10.4692397 116.04668,10.1821289 C116.238087,9.8950181 116.475633,9.4558135 116.759326,8.86450195 C117.043019,8.2731904 117.249804,7.82031407 117.379688,7.50585938 C117.509571,7.19140468 117.617236,6.89917127 117.702686,6.62915039 C117.788135,6.35912951 117.861621,6.13867273 117.923145,5.96777344 L115.318652,5.96777344 C115.209277,5.96777344 115.149463,5.87719817 115.139209,5.69604492 C115.128955,5.51489167 115.188769,5.42431641 115.318652,5.42431641 L118.097461,5.42431641 C118.117969,5.3286128 118.153857,5.19873129 118.205127,5.03466797 C118.256397,4.87060465 118.312793,4.68090928 118.374316,4.46557617 C118.43584,4.25024306 118.541796,3.783695 118.692188,3.06591797 C117.564252,3.27099712 116.863576,3.37353516 116.590137,3.37353516 L116.292773,3.37353516 C116.190234,3.37353516 116.144092,3.33422891 116.154346,3.25561523 C116.1646,3.17700156 116.19707,3.12744151 116.251758,3.10693359 L116.754199,2.953125 C117.07549,2.8574214 117.324999,2.77539097 117.502734,2.70703125 C117.68047,2.63867153 118.160689,2.43188649 118.943408,2.08666992 C119.726127,1.74145335 120.243944,1.48339929 120.496875,1.3125 L121.153125,0.871582031 C121.207813,0.837402173 121.269336,0.786133154 121.337695,0.717773437 C121.406055,0.649413721 121.448779,0.610107473 121.465869,0.599853516 C121.482959,0.589599558 121.570116,0.680174824 121.727344,0.871582031 L122.598926,1.97900391 C122.728809,2.15673917 122.788623,2.26611308 122.778369,2.30712891 C122.768115,2.34814474 122.708301,2.37890615 122.598926,2.39941406 L122.045215,2.50195312 C121.778612,2.5566409 121.411184,2.63354443 120.94292,2.73266602 C120.474656,2.8317876 120.028615,2.9052732 119.604785,2.953125 L120.302051,3.37353516 C120.329395,3.40087904 120.346484,3.43334942 120.35332,3.47094727 C120.360156,3.50854511 120.325977,3.55126929 120.250781,3.59912109 L119.973926,3.78369141 C119.809862,4.22802957 119.685108,4.56127819 119.599658,4.78344727 C119.514209,5.00561635 119.437305,5.21923726 119.368945,5.42431641 L121.563281,5.42431641 Z M112.10918,3.59912109 L112.396289,2.03027344 L112.621875,0.594726562 L112.662891,0.174316406 C112.690235,0.153808491 112.768847,0.174316099 112.89873,0.235839844 L114.221484,0.90234375 C114.289844,0.94335958 114.327441,0.994628599 114.334277,1.05615234 C114.341113,1.11767609 114.303516,1.17919891 114.221484,1.24072266 L113.84209,1.50732422 L113.360156,3.59912109 L114.846973,3.59912109 L115.205859,2.86083984 C115.281055,2.71728444 115.332324,2.64038091 115.359668,2.63012695 C115.387012,2.619873 115.431445,2.64892544 115.492969,2.71728516 L116.395313,3.80419922 C116.436328,3.85888699 116.451709,3.93237259 116.441455,4.0246582 C116.431201,4.11694382 116.402149,4.16308594 116.354297,4.16308594 L113.196094,4.16308594 L112.068164,8.52099609 L113.308887,8.52099609 L113.308887,7.11621094 L113.257617,5.40380859 C113.278125,5.36962874 113.305469,5.34570319 113.339648,5.33203125 L113.55498,5.42431641 L114.703418,5.85498047 C114.812794,5.90283227 114.862354,5.95581026 114.8521,6.01391602 C114.841846,6.07202177 114.809375,6.13183563 114.754688,6.19335937 L114.416309,6.57275391 L114.416309,8.52099609 L114.775195,8.52099609 L115.205859,7.69042969 C115.267383,7.57421817 115.318652,7.51440431 115.359668,7.51098633 C115.400684,7.50756834 115.445117,7.53662079 115.492969,7.59814453 L116.323535,8.75683594 C116.391895,8.85253954 116.422656,8.932861 116.41582,8.99780273 C116.408984,9.06274447 116.378223,9.09521484 116.323535,9.09521484 L114.416309,9.09521484 L114.416309,12.8071289 C114.682911,12.7045893 114.887988,12.6259768 115.031543,12.5712891 L116.323535,12.0893555 L116.764453,11.925293 C116.839649,11.8979491 116.880664,11.9304195 116.8875,12.0227051 C116.894336,12.1149907 116.873828,12.1782225 116.825977,12.2124023 L116.395313,12.5097656 C116.326953,12.5576174 115.667291,12.9814413 114.416309,13.78125 L114.416309,16.6625977 L114.467578,18.5185547 C114.337695,18.8261734 114.13091,18.9919432 113.847217,19.0158691 C113.563524,19.039795 113.399463,19.0141605 113.355029,18.9389648 C113.310595,18.8637692 113.278125,18.7783208 113.257617,18.6826172 L113.308887,16.8779297 L113.308887,14.4785156 C113.151659,14.5878912 112.721,14.8749977 112.016895,15.3398438 L111.514453,15.6884766 L111.227344,15.9345703 C111.2,15.9550782 111.18291,15.9619141 111.176074,15.9550781 C111.162402,15.9550781 111.152148,15.9482423 111.145313,15.9345703 L111.124805,15.8422852 L110.653125,13.9145508 L110.612109,13.7915039 C110.612109,13.76416 110.625781,13.7333986 110.653125,13.6992188 L110.970996,13.6582031 L111.473438,13.5761719 C111.904104,13.5078122 112.515914,13.360841 113.308887,13.1352539 L113.308887,9.09521484 L111.945117,9.09521484 L111.740039,9.60791016 C111.637499,9.85400514 111.577686,9.99072252 111.560596,10.0180664 C111.543506,10.0454103 111.528125,10.060791 111.514453,10.064209 C111.500781,10.067627 111.449512,10.014649 111.360645,9.90527344 L110.653125,9.05419922 C110.605273,9.00634742 110.579639,8.9704591 110.576221,8.9465332 C110.572803,8.9226073 110.622363,8.86621138 110.724902,8.77734375 C110.800098,8.71582 110.878711,8.57226675 110.960742,8.34667969 C111.042774,8.12109262 111.097461,7.95361383 111.124805,7.84423828 L111.40166,6.75732422 C111.463184,6.52490118 111.66826,5.66016374 112.016895,4.16308594 L110.530078,4.16308594 C110.454882,4.08105428 110.412158,3.96655347 110.401904,3.81958008 C110.39165,3.67260669 110.451464,3.59912109 110.581348,3.59912109 L112.10918,3.59912109 Z M121.347949,11.1870117 L121.347949,16.7548828 L121.399219,18.375 C121.392383,18.4775396 121.358203,18.6074211 121.29668,18.7646484 C121.235156,18.9218758 121.054005,19.0073242 120.753223,19.0209961 C120.45244,19.034668 120.278125,19.0039066 120.230273,18.9287109 C120.182422,18.8535152 120.15166,18.764649 120.137988,18.6621094 L120.179004,17.2368164 L120.179004,11.8535156 L120.127734,10.0898438 C120.155078,10.0556639 120.179004,10.0317383 120.199512,10.0180664 L120.435352,10.1206055 L121.53252,10.5717773 C121.607715,10.6059572 121.643604,10.6520993 121.640186,10.7102051 C121.636768,10.7683108 121.611133,10.8281247 121.563281,10.8896484 L121.347949,11.1870117 Z M118.456348,10.8691406 C118.449512,11.3681666 118.437549,11.7936994 118.420459,12.145752 C118.403369,12.4978045 118.360645,12.9370091 118.292285,13.4633789 C118.223925,13.9897487 118.095753,14.603268 117.907764,15.3039551 C117.719774,16.0046422 117.359182,16.6249973 116.825977,17.1650391 C116.292771,17.7050808 115.889455,18.0707998 115.616016,18.262207 L115.082813,18.6416016 C114.966601,18.7304692 114.905078,18.7270513 114.898242,18.6313477 C114.891406,18.5356441 114.911914,18.4604495 114.959766,18.4057617 L115.410938,17.9238281 C115.834768,17.465818 116.21245,16.8659705 116.543994,16.1242676 C116.875539,15.3825647 117.073779,14.6596715 117.138721,13.9555664 C117.203662,13.2514613 117.242969,12.6823752 117.256641,12.248291 C117.270313,11.8142068 117.275439,11.4946299 117.272021,11.2895508 C117.268604,11.0844716 117.266895,10.9169928 117.266895,10.7871094 L117.246387,10.1513672 L117.215625,9.78222656 C117.229297,9.76171865 117.244678,9.74804691 117.261768,9.74121094 C117.278858,9.73437497 117.342089,9.7480467 117.451465,9.78222656 L118.743457,10.2231445 C118.791309,10.2436524 118.820361,10.265869 118.830615,10.2897949 C118.840869,10.3137208 118.847705,10.3308105 118.851123,10.3410645 C118.854541,10.3513184 118.845996,10.3786619 118.825488,10.4230957 C118.80498,10.4675295 118.787891,10.496582 118.774219,10.5102539 L118.456348,10.8691406 Z M128.964063,10.5102539 L129.599805,10.5102539 L130.050977,9.59765625 C130.071484,9.54296848 130.091992,9.51391603 130.1125,9.51049805 C130.133008,9.50708006 130.167187,9.5361325 130.215039,9.59765625 L131.055859,10.8896484 C131.137891,11.0126959 131.110548,11.0742188 130.973828,11.0742188 L128.964063,11.0742188 L128.964063,15.3500977 C129.640824,15.1245106 130.150096,14.946778 130.491895,14.8168945 L131.107129,14.5810547 C131.195997,14.5537108 131.243848,14.5742184 131.250684,14.6425781 C131.25752,14.7109378 131.226758,14.7690427 131.158398,14.8168945 L130.563672,15.206543 C129.387885,15.9790078 128.013875,16.9257756 126.441602,18.046875 L126.031445,18.3442383 C125.942578,18.405762 125.891309,18.4279786 125.877637,18.4108887 C125.863965,18.3937987 125.853711,18.3579104 125.846875,18.3032227 L125.46748,16.7036133 C125.446973,16.6284176 125.436719,16.5703127 125.436719,16.5292969 L125.436719,16.4780273 C125.436719,16.4506835 125.460644,16.4301758 125.508496,16.4165039 L125.99043,16.3037109 L125.99043,11.0332031 L125.959668,9.3515625 C125.980176,9.32421861 125.997266,9.30712894 126.010938,9.30029297 L126.103223,9.34130859 L127.374707,9.79248047 C127.436231,9.81982436 127.468701,9.8591306 127.472119,9.91040039 C127.475537,9.96167018 127.436231,10.0283199 127.354199,10.1103516 L127.026074,10.4487305 L127.026074,15.9960938 L127.979688,15.6679688 L127.979688,6.75732422 L127.292676,6.75732422 L127.292676,7.59814453 C127.292676,7.84423951 127.125197,7.97582999 126.790234,7.99291992 C126.455272,8.01000985 126.277539,7.99975605 126.257031,7.9621582 C126.236523,7.92456036 126.222852,7.85791063 126.216016,7.76220703 L126.257031,6.01904297 L126.257031,2.74804688 L126.22627,1.17919922 C126.239941,1.1586913 126.257031,1.14501957 126.277539,1.13818359 L126.441602,1.26123047 L127.354199,1.90722656 L129.148633,1.90722656 L129.548535,1.19970703 C129.575879,1.1586912 129.594678,1.13647463 129.604932,1.13305664 C129.615186,1.12963865 129.644238,1.15185523 129.69209,1.19970703 L130.676465,2.16357422 C130.724317,2.21826199 130.748242,2.26611308 130.748242,2.30712891 C130.748242,2.34814474 130.73457,2.38232408 130.707227,2.40966797 L130.317578,2.85058594 L130.317578,6.25488281 L130.338086,7.32128906 C130.283398,7.48535238 130.151808,7.60839803 129.943311,7.69042969 C129.734813,7.77246135 129.555372,7.80664069 129.40498,7.79296875 C129.281933,7.78613278 129.22041,7.72119202 129.22041,7.59814453 L129.22041,6.75732422 L128.964063,6.75732422 L128.964063,10.5102539 Z M129.22041,2.48144531 L127.292676,2.48144531 L127.292676,6.17285156 L129.22041,6.17285156 L129.22041,2.48144531 Z M136.398145,4.72705078 L132.419629,4.72705078 L131.671094,6.37792969 L132.758008,7.07519531 L134.183301,7.07519531 L134.501172,6.51123047 C134.549024,6.42236284 134.617382,6.41210903 134.70625,6.48046875 L135.721387,7.32128906 C135.741895,7.34863295 135.758984,7.37426746 135.772656,7.39819336 C135.786328,7.42211926 135.791455,7.44946274 135.788037,7.48022461 C135.784619,7.51098648 135.762403,7.55029273 135.721387,7.59814453 L135.383008,7.94677734 L135.383008,10.1308594 L135.41377,11.0742188 C135.393262,11.1699224 135.360791,11.2519528 135.316357,11.3203125 C135.271924,11.3886722 135.154005,11.4604488 134.962598,11.5356445 C134.77119,11.6108402 134.617383,11.6416016 134.501172,11.6279297 C134.412304,11.6210937 134.354199,11.5920413 134.326855,11.5407715 C134.299512,11.4895017 134.28584,11.4160161 134.28584,11.3203125 L134.28584,10.8896484 L132.768262,10.8896484 L132.768262,16.0576172 C132.768262,16.2011726 132.776807,16.3139644 132.793896,16.3959961 C132.810986,16.4780278 132.901562,16.6010734 133.065625,16.7651367 C133.229688,16.9292 134.019231,16.9941408 135.434277,16.9599609 C136.357134,16.946289 136.907421,16.8505868 137.085156,16.6728516 C137.262892,16.4951163 137.409863,16.2832044 137.526074,16.0371094 C137.642286,15.7910144 137.813182,15.3227574 138.03877,14.6323242 L138.356641,13.6274414 C138.377149,13.5590817 138.40791,13.5249023 138.448926,13.5249023 C138.496778,13.5317383 138.522412,13.5624997 138.52583,13.6171875 C138.529248,13.6718753 138.530957,13.7026367 138.530957,13.7094727 L138.356641,14.7451172 C138.301953,15.0732438 138.264356,15.3432607 138.243848,15.5551758 C138.22334,15.7670909 138.213086,15.920898 138.213086,16.0166016 C138.213086,16.1123052 138.233594,16.2216791 138.274609,16.3447266 C138.295117,16.4404302 138.358349,16.5839834 138.464307,16.7753906 C138.570264,16.9667978 138.623242,17.1291497 138.623242,17.2624512 C138.623242,17.3957526 138.565137,17.5512686 138.448926,17.7290039 C138.30537,17.9340831 138.076369,18.1169426 137.761914,18.2775879 C137.447459,18.4382332 136.58614,18.5151368 135.17793,18.5083008 C134.070502,18.5083008 133.268997,18.4536138 132.773389,18.3442383 C132.277781,18.2348627 131.970167,18.0520032 131.850537,17.7956543 C131.730908,17.5393054 131.671094,17.2539078 131.671094,16.9394531 L131.671094,8.43896484 L131.630078,6.51123047 C131.363475,7.06494417 131.161817,7.47509632 131.025098,7.74169922 L130.625195,8.49023438 L130.368848,9.00292969 C130.334668,9.0712894 130.300488,9.10205082 130.266309,9.09521484 C130.218457,9.09521484 130.192822,9.06958033 130.189404,9.01831055 C130.185986,8.96704076 130.194531,8.91748071 130.215039,8.86962891 L130.420117,8.24414062 C130.953323,6.63768728 131.348094,5.27222242 131.604443,4.14770508 C131.860792,3.02318774 132.019726,2.27636903 132.08125,1.90722656 L132.235059,0.943359375 L132.26582,0.717773437 C132.272656,0.697265522 132.281201,0.683593784 132.291455,0.676757812 C132.301709,0.669921841 132.358105,0.690429448 132.460645,0.73828125 L133.81416,1.42529297 C133.909864,1.47998074 133.954297,1.53637666 133.947461,1.59448242 C133.940625,1.65258818 133.913282,1.70214823 133.86543,1.74316406 L133.414258,2.12255859 L132.634961,4.15283203 L136.367383,4.15283203 L136.72627,3.40429687 C136.760449,3.33593716 136.821972,3.33593716 136.91084,3.40429687 L138.03877,4.40917969 L138.110547,4.47070312 C138.117383,4.49121104 138.120801,4.51684555 138.120801,4.54760742 C138.120801,4.57836929 138.093457,4.62792935 138.03877,4.69628906 L137.628613,5.17822266 C137.614941,6.79834794 137.602979,8.10741688 137.592725,9.10546875 C137.582471,10.1035206 137.548291,10.9306608 137.490186,11.5869141 C137.43208,12.2431673 137.290236,12.8413059 137.064648,13.3813477 C136.839061,13.9213894 136.37764,14.2631829 135.680371,14.4067383 L135.383008,14.4682617 C135.29414,14.4887696 135.236035,14.4819338 135.208691,14.4477539 L135.157422,14.2426758 L135.085645,13.9658203 C135.037793,13.801757 134.952344,13.6376961 134.829297,13.4736328 C134.706249,13.3095695 134.576368,13.1967777 134.439648,13.1352539 L134.008984,12.9404297 C133.981641,12.9335937 133.961133,12.916504 133.947461,12.8891602 C133.933789,12.8618163 133.925244,12.8190921 133.921826,12.7609863 C133.918408,12.7028806 133.947461,12.6738281 134.008984,12.6738281 L134.644727,12.7148438 C135.30098,12.7626956 135.736767,12.6499037 135.9521,12.3764648 C136.167433,12.103026 136.299023,11.5561564 136.346875,10.7358398 C136.394727,9.91552324 136.418652,8.9721733 136.418652,7.90576172 L136.418652,6.31640625 L136.398145,4.72705078 Z M134.28584,10.3051758 L134.28584,7.63916016 L132.768262,7.63916016 L132.768262,10.3051758 L134.28584,10.3051758 Z M146.56748,13.1967773 L146.56748,9.98730469 L143.52207,9.98730469 L142.988867,10.6743164 C142.934179,10.7495121 142.886328,10.7495121 142.845313,10.6743164 L142.107031,9.43359375 C142.025,9.30371029 141.982275,9.22680676 141.978857,9.20288086 C141.975439,9.17895496 142.072851,9.11572317 142.271094,9.01318359 C142.387305,8.95849582 142.491552,8.85253985 142.583838,8.6953125 C142.676124,8.53808515 142.867528,8.10571643 143.158057,7.39819336 C143.448585,6.69067029 143.669042,6.14550973 143.819434,5.76269531 C143.969825,5.3798809 144.147558,4.89453419 144.352637,4.30664062 L140.968848,4.30664062 C140.852636,4.30664062 140.789404,4.21435639 140.77915,4.02978516 C140.768896,3.84521392 140.832128,3.75292969 140.968848,3.75292969 L144.547461,3.75292969 C144.561133,3.70507789 144.675634,3.34277682 144.890967,2.66601562 C145.1063,1.98925443 145.261816,1.46972837 145.35752,1.10742188 L145.521582,0.4921875 L145.603613,0.0205078125 C145.610449,0.0136718408 145.620703,0.00683597168 145.634375,0 L145.890723,0.184570312 L147.32627,1.10742188 C147.374121,1.14843771 147.398047,1.20483363 147.398047,1.27661133 C147.398047,1.34838903 147.353614,1.41162082 147.264746,1.46630859 L146.772559,1.78417969 L145.993262,3.75292969 L150.494727,3.75292969 L151.038184,2.74804688 C151.161231,2.51562384 151.238135,2.39257819 151.268896,2.37890625 C151.299658,2.36523431 151.373144,2.41992126 151.489355,2.54296875 L152.607031,3.84521484 C152.695899,3.95459039 152.738623,4.05712843 152.735205,4.15283203 C152.731787,4.24853563 152.689063,4.29638672 152.607031,4.29638672 L152.084082,4.29638672 L152.084082,4.30664062 L145.767676,4.30664062 L143.686133,9.43359375 L146.56748,9.43359375 L146.56748,7.30078125 L146.526465,5.54736328 C146.553809,5.50634745 146.581152,5.47900397 146.608496,5.46533203 L146.772559,5.53710938 L148.197852,6.14208984 C148.293555,6.18994165 148.337988,6.2548824 148.331152,6.33691406 C148.324316,6.41894572 148.279883,6.49072235 148.197852,6.55224609 L147.869727,6.79833984 L147.869727,9.43359375 L149.9,9.43359375 L150.402441,8.44921875 C150.532325,8.18261585 150.629736,8.06811505 150.694678,8.10571289 C150.759619,8.14331073 150.850195,8.233886 150.966406,8.37744141 L151.889258,9.50537109 C151.971289,9.61474664 152.012305,9.71899365 152.012305,9.81811523 C152.012305,9.91723682 151.971289,9.96679688 151.889258,9.96679688 L147.869727,9.98730469 L147.869727,13.1967773 L151.274023,13.1967773 L151.889258,12.1098633 C151.971289,11.9526359 152.027685,11.8723145 152.058447,11.8688965 C152.089209,11.8654785 152.135351,11.8945309 152.196875,11.9560547 L153.23252,13.2583008 C153.294043,13.3334965 153.336767,13.4035641 153.360693,13.4685059 C153.384619,13.5334476 153.396582,13.5949704 153.396582,13.6530762 C153.396582,13.7111819 153.352149,13.7402344 153.263281,13.7402344 L151.571387,13.7402344 L151.571387,13.7607422 L147.869727,13.7607422 L147.869727,16.847168 L147.920996,18.590332 C147.907324,18.6791997 147.888526,18.7543942 147.8646,18.815918 C147.840674,18.8774417 147.756934,18.9577632 147.613379,19.0568848 C147.469824,19.1560064 147.278419,19.2072754 147.03916,19.2106934 C146.799901,19.2141113 146.656348,19.1628423 146.608496,19.0568848 C146.560644,18.9509272 146.533301,18.8125009 146.526465,18.6416016 L146.56748,16.9189453 L146.56748,13.7607422 L140.456152,13.7607422 L140.384375,13.7299805 C140.336523,13.7094726 140.312598,13.6923829 140.312598,13.6787109 L140.29209,13.565918 C140.29209,13.319823 140.346777,13.1967773 140.456152,13.1967773 L146.56748,13.1967773 Z" id="全新CLS四门轿跑车"></path>
            </g>
        </g>
    </g>
</svg>