<?xml version="1.0" encoding="UTF-8"?>
<svg width="132px" height="66px" viewBox="0 0 132 66" version="1.1" xmlns="http://www.w3.org/2000/svg" xmlns:xlink="http://www.w3.org/1999/xlink">
    <!-- Generator: Sketch 51 (57462) - http://www.bohemiancoding.com/sketch -->
    <title>amg-mob-eq</title>
    <desc>Created with Sketch.</desc>
    <defs></defs>
    <g id="Page-1" stroke="none" stroke-width="1" fill="none" fill-rule="evenodd">
        <g id="amg-mob-eq" fill="#000000" fill-rule="nonzero">
            <g id="Page-1" transform="translate(51.000000, 64.000000)">
                <g id="amg-mob">
                    <rect id="Rectangle-Copy-5_1_" x="0" y="0.9" width="30" height="1"></rect>
                </g>
            </g>
            <g id="Group" transform="translate(0.000000, 31.000000)">
                <path d="M11.1,16.3 L7.1,16.3 L7.1,21.1 C7.1,21.3 7.1,21.4 7.1,21.6 C7.1,21.7 7.3,21.9 7.5,22.1 C7.7,22.3 8.6,22.5 10.1,22.5 C11.7,22.5 12.7,22.3 13.1,22 C13.5,21.6 13.7,21.3 13.8,20.9 C13.9,20.5 14.1,20.1 14.2,19.5 L14.6,18 C14.6,17.9 14.7,17.8 14.7,17.8 C14.8,17.8 14.8,17.9 14.8,17.9 C14.8,18 14.8,18 14.8,18 L14.6,19.8 C14.6,20.2 14.5,20.6 14.5,20.8 C14.5,21 14.5,21.3 14.6,21.4 C14.7,21.6 14.7,21.7 14.8,21.9 C14.9,22 15,22.2 15,22.3 C15,22.4 15.1,22.5 15.1,22.7 C15.1,22.9 15.1,23 15,23.2 C14.6,24.3 13.1,24.8 10.5,24.8 C10.1,24.8 9.5,24.8 8.9,24.7 C8.3,24.7 7.6,24.6 6.9,24.4 C6.2,24.3 5.8,24 5.5,23.5 C5.3,23 5.2,22.5 5.2,21.9 L5.2,16.3 L1.8,16.3 L1.8,18.5 C1.8,18.7 1.7,18.9 1.4,19 C1.2,19.2 0.9,19.2 0.7,19.2 C0.5,19.2 0.4,19.1 0.3,19 C0.2,18.9 0.2,18.8 0.1,18.6 L0.2,16 L0.2,7.5 L0.1,5 C0.1,4.9 0.2,4.9 0.2,4.9 C0.2,4.9 0.3,5 0.5,5.1 L1.9,6.1 L5.5,6.1 L5.5,4.6 L5.4,1.4 C5.5,1.3 5.5,1.3 5.6,1.3 L6,1.4 L7.6,1.8 C7.7,1.8 7.8,1.9 7.8,1.9 C7.8,2 7.9,2 7.9,2.1 C7.9,2.2 7.8,2.3 7.7,2.4 L7.2,3 L7.2,6 L11,6 L11.5,5.1 C11.6,5 11.6,4.9 11.7,4.9 C11.7,4.9 11.9,5 12.1,5.2 L13.3,6.3 C13.4,6.4 13.4,6.4 13.5,6.5 C13.5,6.5 13.5,6.5 13.5,6.6 C13.5,6.6 13.4,6.7 13.3,6.9 L12.9,7.4 L12.9,15.2 L13,17.3 C12.8,17.9 12.5,18.2 12,18.2 C11.5,18.2 11.2,18 11.2,17.6 L11.1,16.3 Z M5.5,10.9 L5.5,6.9 L1.8,6.9 L1.8,10.9 L5.5,10.9 Z M5.5,15.6 L5.5,11.6 L1.8,11.6 L1.8,15.6 L5.5,15.6 Z M11.1,10.9 L11.1,6.9 L7.1,6.9 L7.1,10.9 L11.1,10.9 Z M11.1,15.6 L11.1,11.6 L7.1,11.6 L7.1,15.6 L11.1,15.6 Z" id="Shape"></path>
                <path d="M21.8,11.4 L18.2,11.4 C18.1,11.4 18,11.3 18,11.1 C18,10.9 18.1,10.8 18.2,10.8 L25.2,10.8 L26,9.4 C26.1,9.2 26.2,9.1 26.3,9.1 C26.3,9.1 26.4,9.2 26.6,9.4 L27.7,10.8 C27.8,10.9 27.9,11 27.9,11.1 C27.9,11.2 28,11.2 28,11.3 C28,11.3 28,11.4 27.9,11.5 C27.9,11.6 27.8,11.6 27.7,11.6 L22.8,11.6 L23.9,12.2 C24.1,12.3 24.2,12.4 24.2,12.6 C24.2,12.7 24.1,12.8 24,12.9 L23.6,13.1 C23.1,14.3 22.6,15.3 22.2,16.2 C21.8,17 21.3,18.1 20.6,19.3 C22.1,19.2 23.7,19 25.3,18.8 C25.2,18.5 25.2,18.3 25.1,18.1 C25.1,17.9 24.9,17.6 24.8,17.2 C24.6,16.8 24.5,16.4 24.3,16.2 L23.7,15 C23.7,15 23.7,14.9 23.6,14.9 C23.6,14.8 23.6,14.8 23.6,14.7 C23.6,14.7 23.6,14.6 23.8,14.6 C24,14.6 24.3,14.8 24.7,15.1 C25.2,15.4 25.6,15.8 26,16.2 C26.4,16.6 26.7,17 26.9,17.4 C27.1,17.8 27.2,18.1 27.3,18.5 C27.4,18.9 27.4,19.2 27.4,19.5 C27.4,19.8 27.3,20.1 27.2,20.4 C27,20.9 26.7,21.2 26.3,21.2 C26,21.2 25.8,21.1 25.6,20.8 C25.4,20.5 25.3,20.2 25.3,19.9 L25.2,19.1 C23.2,20 21.7,20.7 20.7,21.3 L20,21.6 L19.6,21.9 C19.6,21.9 19.5,21.9 19.5,21.9 C19.5,21.9 19.4,21.7 19.3,21.5 L18.7,19.9 C18.6,19.8 18.6,19.7 18.6,19.6 C18.6,19.6 18.6,19.5 18.6,19.5 C18.6,19.5 18.7,19.4 18.8,19.3 L19.1,19 C19.2,18.9 19.5,18.6 19.8,18.1 C20.2,17.6 20.5,16.6 20.9,15.1 C21.3,13.6 21.6,12.4 21.8,11.4 Z M24.6,5.1 L25.3,3.8 C25.4,3.6 25.4,3.6 25.5,3.6 C25.6,3.6 25.7,3.7 25.8,3.8 L26.9,5.1 C27,5.2 27,5.3 27.1,5.4 C27.1,5.5 27.2,5.5 27.2,5.6 C27.2,5.6 27.2,5.7 27.1,5.8 C27,5.9 27,5.9 26.9,5.9 L25.6,5.9 L19,5.9 C18.8,5.9 18.8,5.8 18.7,5.5 C18.7,5.3 18.8,5.1 19,5.1 L24.6,5.1 Z M26.2,8 L26.3,8 L29,7.8 C29,7 29,6.3 29,5.7 C29,5.1 29,4.5 29,3.9 L29,2.4 L29,1.2 C29,1.2 29.1,1.1 29.1,1.1 C29.1,1.1 29.3,1.1 29.5,1.2 L31.2,1.6 C31.3,1.6 31.4,1.7 31.4,1.7 C31.5,1.7 31.5,1.8 31.5,1.8 C31.5,1.8 31.5,1.9 31.5,1.9 C31.5,1.9 31.5,1.9 31.5,2 L31.3,2.3 L30.8,3 C30.8,4.3 30.8,5.1 30.8,5.3 L30.8,7.6 L33,7.5 L33.5,6.6 C33.6,6.4 33.7,6.3 33.7,6.3 C33.8,6.3 33.9,6.3 34,6.5 L35.4,7.9 C35.4,7.9 35.5,8 35.5,8.1 C35.6,8.2 35.6,8.2 35.6,8.2 C35.6,8.2 35.6,8.2 35.6,8.3 C35.6,8.3 35.6,8.4 35.6,8.4 C35.6,8.4 35.5,8.5 35.4,8.6 L34.8,9.2 C34.8,10.5 34.8,11.5 34.8,12.3 C34.8,13.1 34.8,14.4 34.7,16.2 C34.6,18 34.6,19.4 34.5,20.4 C34.4,21.4 34.2,22.2 34,22.9 C33.8,23.5 33.6,24 33.3,24.3 C33,24.6 32.7,24.9 32.4,25 C32.1,25.1 31.9,25.3 31.9,25.3 C31.9,25.3 31.8,25.3 31.8,25.2 C31.8,25.2 31.7,25.1 31.7,25 L31.5,24.3 C31.3,23.7 31,23.3 30.5,23.1 L29.8,22.8 C29.7,22.8 29.7,22.7 29.7,22.7 C29.7,22.6 29.7,22.6 29.7,22.5 C29.7,22.4 29.8,22.3 29.9,22.3 L30.8,22.4 C31.4,22.4 31.8,22.4 32.1,22.2 C32.3,22 32.5,21.6 32.7,21 C32.9,20.4 33,19.4 33,17.8 L33,14 C33,13.4 33,12.5 33,11.3 C33,10.1 33,9.4 33,9.3 L33,8.3 L30.6,8.4 C30.6,8.5 30.6,8.6 30.6,8.7 L30.6,10.1 C30.5,13.3 30.3,15.7 29.9,17.2 C29.5,18.7 29.1,19.9 28.6,20.7 C28.1,21.5 27.5,22.3 26.9,23 C26.3,23.7 25.6,24.3 24.9,24.8 L24.3,25.2 C24.2,25.3 24.1,25.3 24.1,25.3 C24,25.3 24,25.3 24,25.3 C24,25.3 24,25.2 24,25.2 C24,25.1 24,25 24.1,25 L24.7,24.3 C26.2,22.6 27.1,21.2 27.5,20 C27.9,18.9 28.2,17.7 28.4,16.6 C28.6,15.5 28.7,14.4 28.8,13.4 C28.9,12.3 28.9,11.3 28.9,10.2 L28.9,9.4 L28.9,8.6 L26.1,8.8 C26,8.8 25.9,8.7 25.9,8.5 C26,8.2 26.1,8.1 26.2,8 Z" id="Shape"></path>
                <path d="M40.2,25 L40.6,24.5 C40.6,24.4 40.7,24.3 40.9,24 C41.1,23.7 41.2,23.5 41.2,23.4 C41.2,23.3 41.3,23 41.4,22.6 C41.5,22.2 41.5,21.9 41.5,21.8 C41.5,21.6 41.4,21.5 41.3,21.5 C41.3,21.5 41.2,21.5 41.1,21.6 C41,21.7 40.9,21.7 40.8,21.7 C40.5,21.7 40.2,21.5 40,21.2 C39.8,20.9 39.7,20.5 39.7,20 C39.7,19.5 39.8,19.1 40.1,18.7 C40.4,18.3 40.7,18.2 41,18.2 C41.5,18.2 41.8,18.4 42.1,18.9 C42.4,19.4 42.5,19.8 42.5,20.3 C42.5,20.8 42.5,21.3 42.5,21.8 C42.4,22.5 42.2,23.1 42,23.6 C41.8,24.1 41.6,24.5 41.4,24.7 C41.2,24.9 41,25.2 40.8,25.4 C40.6,25.6 40.4,25.7 40.3,25.7 C40.2,25.7 40.1,25.6 40.1,25.5 C40.1,25.2 40.1,25.1 40.2,25 Z" id="Shape"></path>
                <path d="M62.2,13.5 C62.2,13.4 62.2,13.1 62.2,12.6 C62.2,12.1 62.2,11.6 62.2,10.8 C62.2,10.1 62.2,9 62.2,7.6 C62.2,6.3 62.2,5.4 62.1,5 L62,3.9 L60.8,3.9 L58.1,3.9 C57.9,3.9 57.9,3.8 57.9,3.5 C57.9,3.3 58,3.1 58.1,3.1 L70.3,3.1 L71.1,1.7 C71.3,1.3 71.4,1.2 71.4,1.2 C71.4,1.2 71.5,1.3 71.7,1.5 L73.2,3.2 C73.3,3.3 73.3,3.4 73.4,3.5 C73.4,3.6 73.5,3.6 73.5,3.7 C73.5,3.8 73.4,3.9 73.2,3.9 L72.8,3.9 L69.8,3.9 C69.8,4 69.8,4.2 69.7,4.3 C69.7,4.4 69.6,4.5 69.5,4.6 L69.5,13.5 L71.2,13.5 L72,12.1 C72.3,11.7 72.4,11.4 72.5,11.4 C72.5,11.4 72.7,11.5 72.9,11.9 L74.3,13.8 C74.4,13.9 74.4,14 74.4,14.1 C74.4,14.2 74.3,14.3 74.1,14.3 L71.6,14.3 L69.5,14.3 L69.5,22.6 L69.5,24.9 C69.3,25.3 68.8,25.5 68.2,25.5 C68.1,25.5 68,25.5 67.9,25.5 C67.8,25.5 67.7,25.4 67.6,25.2 L67.7,22.1 L67.7,14.2 L64,14.2 C64,14.9 63.9,15.5 63.8,16.1 C63.7,16.7 63.6,17.4 63.4,18.2 C63.2,19 62.9,19.7 62.6,20.3 C62.3,20.9 61.9,21.4 61.5,21.9 C61.1,22.4 60.7,22.8 60.2,23.3 C59.7,23.7 59,24.2 58,24.8 L57.3,25.2 C57.3,25.2 57.2,25.2 57.1,25.2 C57.1,25.2 57,25.2 57,25.1 C57,25.1 57,25 57,25 C57,24.9 57,24.9 57.1,24.8 L57.9,24.1 C58.8,23.3 59.6,22.4 60.2,21.3 C60.9,20.2 61.3,19.1 61.6,18.1 C61.8,17 62,16.1 62,15.3 L62.1,14.5 L62.1,14.2 L56.9,14.2 C56.7,14.2 56.7,14.1 56.7,13.8 C56.7,13.6 56.8,13.4 56.9,13.4 L62.2,13.4 L62.2,13.5 Z M67.6,13.5 L67.6,3.9 L66.6,3.9 L64.3,3.9 C64.2,4.1 64.2,4.3 64.2,4.3 C64.2,4.4 64.1,4.5 63.9,4.6 C63.9,5.9 63.9,6.8 63.9,7.5 C63.9,8.1 63.9,8.8 63.9,9.4 C63.9,10 63.9,10.6 63.9,11 L63.9,13.2 L63.9,13.5 L67.6,13.5 Z" id="Shape"></path>
                <path d="M83.2,20.2 C83.5,20.7 83.6,21.1 83.6,21.6 C83.6,22 83.5,22.3 83.4,22.5 C83.2,22.8 83,23 82.8,23 C82.5,23 82.2,22.8 81.9,22.2 L81.3,21 L80.8,20.4 C80.3,21.2 79.8,21.9 79.4,22.5 C78.9,23.1 78.3,23.8 77.6,24.4 L77,24.8 C76.8,25 76.6,25.1 76.5,25.2 C76.4,25.3 76.3,25.3 76.3,25.2 C76.3,25.1 76.3,25.1 76.3,25.1 C76.3,25 76.4,24.9 76.5,24.8 L76.8,24.5 L77.4,23.8 C78,23 78.5,22.3 78.9,21.5 C79.3,20.8 79.6,20 79.8,19.3 C79.6,19.1 79.5,19 79.3,18.9 C79.2,18.8 78.7,18.5 77.9,18.1 C77.5,18 77.2,17.9 77.1,17.9 C77,17.9 76.9,17.9 76.8,17.8 C76.8,17.7 76.7,17.7 76.7,17.6 L76.7,17.5 L77.1,14.9 C77.2,14.5 77.3,13.7 77.4,12.6 C77.5,11.5 77.6,10.7 77.6,10.4 C77.6,10 77.7,9.6 77.7,9.2 L76.1,9.3 C76,9.3 75.9,9.2 75.8,9 C75.7,8.8 75.8,8.6 76,8.6 L77.7,8.5 L78,3.7 L78.1,1.4 C78.2,1.3 78.2,1.3 78.4,1.3 L80.1,1.8 C80.3,1.9 80.4,1.9 80.4,2 C80.4,2 80.5,2.1 80.5,2.1 C80.5,2.1 80.4,2.3 80.2,2.5 L79.9,2.9 L79.4,8.4 L80.9,8.3 L81.3,7.6 C81.4,7.3 81.5,7.2 81.6,7.2 C81.7,7.2 81.8,7.3 82,7.5 L82.9,8.3 C83.1,8.5 83.2,8.6 83.3,8.7 C83.3,8.8 83.4,8.8 83.3,8.9 C83.3,9 83.2,9.1 83.1,9.3 L82.7,9.7 C82.7,10.4 82.6,11.1 82.6,11.7 C82.6,12.3 82.5,13.2 82.3,14.3 C82.2,15.4 82,16.5 81.8,17.4 L81.6,18.4 L81.5,18.7 C82.3,19.2 82.9,19.8 83.2,20.2 Z M80.2,18 C80.3,17.6 80.4,17.3 80.4,17 C80.4,16.8 80.5,16.2 80.6,15.3 C80.7,14.4 80.8,13.5 80.9,12.7 C81,11.8 81,10.9 81,10 L81,9 L79.3,9.1 L79.2,9.7 C78.9,12.4 78.7,14.5 78.5,15.9 L78.2,17.4 C79.3,17.7 79.9,17.9 80.2,18 Z M86.4,11.7 L84.1,12.5 C84,12.4 83.9,12.3 83.8,12 L83.4,10.9 L83.2,10.3 C83.2,10.2 83.4,10.1 83.8,9.8 C84.2,9.5 84.6,8.8 85,7.7 C85.4,6.6 85.7,5.5 85.9,4.7 C86.1,3.8 86.3,3.2 86.4,2.7 L86.6,1.4 C86.6,1.3 86.6,1.3 86.7,1.3 C86.8,1.3 86.9,1.3 87,1.4 L88.6,2.3 C88.8,2.4 88.9,2.5 89,2.6 C89,2.7 89.1,2.7 89.1,2.8 C89.1,2.9 89,3 88.7,3.1 L88.3,3.4 C87.9,4.3 87.6,5.2 87.2,6.1 C86.8,7 86.1,8.3 85.1,10.2 C87,10.2 88.9,10.1 90.9,10.1 C90.8,9.8 90.7,9.5 90.6,9.1 C90.5,8.7 90.2,8.1 89.7,7.3 L89.4,6.8 C89.3,6.7 89.3,6.6 89.3,6.6 C89.3,6.5 89.4,6.5 89.4,6.5 C89.5,6.5 89.6,6.5 89.9,6.7 C90,6.8 90.2,6.9 90.5,7.1 C90.9,7.3 91.3,7.7 91.7,8.3 C92.2,8.9 92.5,9.4 92.7,9.8 C92.9,10.3 93,10.7 93,11.1 C93,11.5 92.9,12 92.7,12.3 C92.5,12.7 92.3,12.9 92,12.9 C91.7,12.9 91.5,12.8 91.4,12.5 C91.3,12.2 91.2,11.8 91.1,11.3 L91,10.6 L86.4,11.7 Z M85.7,14.7 L90.2,14.7 L90.6,14.1 C90.7,13.9 90.8,13.8 90.9,13.8 C90.9,13.8 91.1,13.9 91.3,14.1 L92.2,14.9 C92.3,15 92.4,15.1 92.4,15.1 C92.4,15.2 92.4,15.2 92.4,15.2 C92.4,15.2 92.4,15.3 92.4,15.3 C92.4,15.3 92.3,15.4 92.2,15.6 L91.9,16 L91.9,21.3 L92,24.1 C92,24.3 91.9,24.4 91.8,24.4 C91.7,24.5 91.6,24.5 91.3,24.6 C91,24.7 90.9,24.7 90.7,24.7 C90.6,24.7 90.5,24.7 90.4,24.6 C90.3,24.5 90.3,24.4 90.3,24.3 L90.3,22.6 L85.7,22.6 L85.7,24.5 C85.7,24.6 85.6,24.8 85.5,24.9 C85.3,25.1 85.1,25.1 84.7,25.1 C84.5,25.1 84.4,25.1 84.3,25 C84.2,24.9 84.2,24.8 84.1,24.7 L84.2,21.9 L84.2,16.4 L84.1,13.8 C84.1,13.8 84.1,13.8 84.2,13.7 L84.4,13.9 L85.7,14.7 Z M90.3,21.9 L90.3,15.4 L85.7,15.4 L85.7,21.9 L90.3,21.9 Z" id="Shape"></path>
                <path d="M109.5,17.3 L110.4,15.9 C110.5,15.8 110.6,15.7 110.6,15.7 C110.7,15.7 110.8,15.8 110.9,15.9 L112.1,17.4 C112.2,17.6 112.3,17.7 112.3,17.8 C112.3,17.9 112.2,18 112,18 L107.8,18 L107.8,22.9 L107.9,24.8 C107.9,24.9 107.8,25.1 107.7,25.3 C107.6,25.5 107.3,25.6 107,25.6 C106.6,25.6 106.4,25.6 106.3,25.5 C106.2,25.4 106.2,25.3 106.1,25.2 L106.2,22.1 L106.2,18 L100.7,18 C100.7,18.1 100.7,18.2 100.7,18.3 L100.7,19.2 C100.6,20.6 100.3,21.7 99.9,22.3 C99.5,23 98.9,23.5 98.3,24 C97.6,24.5 97,24.9 96.4,25.1 L95.7,25.4 C95.6,25.4 95.6,25.4 95.6,25.4 C95.6,25.4 95.5,25.4 95.5,25.4 C95.5,25.4 95.4,25.4 95.4,25.4 C95.4,25.4 95.4,25.3 95.4,25.3 C95.4,25.2 95.4,25.2 95.5,25.1 L96.3,24.5 C97.6,23.6 98.3,22.6 98.6,21.5 C98.9,20.5 99,19.7 99,19.2 C99,18.7 99,18.3 99.1,17.9 L95.4,17.9 C95.3,17.9 95.2,17.8 95.2,17.5 C95.2,17.3 95.3,17.1 95.4,17.1 L99.2,17.1 C99.2,17 99.2,16.8 99.2,16.7 C99.2,16.6 99.2,16.5 99.2,16.4 C99.2,16.3 99.2,16.1 99.2,15.8 C99.2,15.5 99.2,15.4 99.2,15.4 L99.2,15.2 L99.2,14.1 L99.1,13.3 C99.1,13.2 99.2,13.2 99.2,13.2 L99.5,13.3 L101.1,13.8 C101.2,13.9 101.3,13.9 101.4,14 C101.5,14.1 101.5,14.1 101.5,14.2 C101.5,14.3 101.5,14.3 101.4,14.5 L101,14.9 C101,15.4 101,15.8 101,16.1 L101,16.7 L101,17.3 L106.5,17.3 L106.5,15.4 L106.4,13.2 C106.4,13.1 106.5,13.1 106.5,13.1 L106.8,13.2 L108.5,13.8 C108.7,13.9 108.8,13.9 108.8,14.1 C108.8,14.2 108.7,14.3 108.6,14.5 L108.2,14.9 L108.2,17.4 L109.5,17.4 L109.5,17.3 Z M100.9,4.9 C101,4.6 101.1,4.2 101.3,3.8 C101.5,3.4 101.6,3 101.7,2.7 L102,1.6 L102.2,0.9 C102.2,0.9 102.3,0.9 102.3,0.9 C102.3,0.9 102.4,0.9 102.6,1 L104.5,2.1 C104.6,2.2 104.7,2.2 104.7,2.3 C104.7,2.4 104.7,2.4 104.7,2.5 C104.7,2.6 104.6,2.7 104.4,2.8 L104,3 C103.3,4.3 103,5 103,5 L108.6,5 L109.4,3.6 C109.5,3.4 109.6,3.3 109.7,3.3 C109.8,3.3 109.9,3.4 110,3.5 L111.4,5.1 C111.5,5.2 111.6,5.3 111.6,5.4 C111.6,5.5 111.6,5.5 111.6,5.6 C111.6,5.7 111.6,5.7 111.5,5.8 C111.4,5.9 111.4,5.9 111.3,5.9 L108.6,5.9 L108.1,5.9 L105.8,5.9 C106.3,7 106.9,7.9 107.7,8.8 C108.5,9.7 109.2,10.2 109.9,10.5 C110.6,10.8 111.2,11.1 111.8,11.3 L112.3,11.5 C112.4,11.5 112.5,11.6 112.5,11.7 C112.5,11.8 112.4,11.9 112.3,12 L111.9,12.2 C111.7,12.3 111.6,12.4 111.4,12.5 C111.3,12.6 111.1,12.8 111,13.1 C110.9,13.3 110.8,13.5 110.8,13.6 C110.8,13.7 110.7,13.8 110.7,13.8 C110.7,13.8 110.7,13.9 110.6,13.9 C110.5,13.9 110,13.6 109,12.8 C108,12 107.4,11 107,10 C106.5,9 106.2,8.3 106,7.7 C105.8,7.1 105.7,6.7 105.6,6.3 L105.5,6 L105.4,5.6 L102.6,5.6 C102.5,5.7 102.5,5.8 102.5,5.8 L101.9,6.8 C101,8.4 100.1,9.6 99.2,10.6 C98.3,11.6 97.7,12.2 97.3,12.5 C96.9,12.8 96.5,13.1 96,13.5 L95.4,14 C95.4,14 95.3,14 95.3,14 C95.2,14 95.2,14 95.2,14 C95.2,14 95.2,13.9 95.2,13.8 C95.2,13.7 95.2,13.6 95.3,13.5 L95.9,12.9 C96.6,12.1 97.3,11.3 97.9,10.4 C98.5,9.5 99,8.8 99.3,8.2 C99.6,7.6 99.9,7.1 100.2,6.5 L100.5,5.8 L100.6,5.6 L95.8,5.6 C95.7,5.6 95.6,5.5 95.6,5.2 C95.6,4.9 95.7,4.8 95.8,4.8 L100.9,4.8 L100.9,4.9 Z M102.6,11.8 L99.3,11.8 C99.1,11.8 99.1,11.7 99,11.4 C99,11.2 99.1,11 99.3,11 L102.6,11 L102.6,8.7 L102.5,6.8 C102.6,6.7 102.7,6.7 102.8,6.7 L104.6,7.2 C104.7,7.2 104.7,7.3 104.8,7.3 C104.8,7.3 104.9,7.4 104.9,7.5 C104.9,7.6 104.8,7.7 104.7,7.8 L104.3,8.3 L104.3,11 L105.3,11 L106,9.9 C106.1,9.8 106.1,9.7 106.2,9.7 C106.3,9.7 106.3,9.8 106.4,9.9 L107.4,11.2 C107.5,11.3 107.5,11.4 107.5,11.4 C107.5,11.4 107.5,11.5 107.5,11.5 C107.5,11.5 107.5,11.6 107.4,11.6 C107.3,11.6 107.3,11.7 107.2,11.7 L104.3,11.7 L104.3,14 L104.3,15.4 C104.1,15.9 103.7,16.2 103,16.2 C102.9,16.2 102.8,16.2 102.7,16.1 C102.6,16.1 102.6,16 102.5,15.8 L102.6,13.4 L102.6,11.8 Z" id="Shape"></path>
                <path d="M119,3.8 L114.5,3.8 C114.3,3.8 114.2,3.7 114.3,3.5 L114.3,3.3 C114.3,3.2 114.4,3.1 114.5,3.1 L119.1,3.1 L119.6,2.2 C119.7,2.1 119.7,2 119.7,2 C119.7,2 119.7,2 119.7,2 L119.8,2.1 L121,3.3 C121.1,3.4 121.1,3.4 121.1,3.5 C121.1,3.5 121.1,3.6 121.1,3.6 C121.1,3.7 121.1,3.7 121,3.8 L120.5,4.3 L119.8,13.1 L120.2,13.1 L120.5,12.5 C120.6,12.3 120.6,12.3 120.6,12.3 C120.6,12.3 120.6,12.3 120.7,12.4 C120.7,12.4 120.8,12.5 120.8,12.5 L122,13.7 C122.1,13.8 122.1,13.9 122.1,13.9 C122.1,14 122,14.1 121.9,14.2 L121.6,14.6 C121.6,15.3 121.5,15.7 121.5,16.1 L121.4,18.4 C121.3,19.7 121.2,20.6 121.1,21.4 C121,22.1 120.9,22.7 120.7,23.2 C120.5,23.7 120.3,24 120.1,24.3 C119.9,24.5 119.6,24.7 119.3,25 C118.9,25.2 118.6,25.3 118.3,25.4 C118.2,25.4 118.2,25.4 118.2,25.4 C118.2,25.4 118.1,25.3 118.1,25.1 C118.1,24.9 118,24.6 117.8,24.2 C117.6,23.8 117.3,23.5 117,23.2 L116.6,22.9 C116.6,22.9 116.5,22.9 116.5,22.8 C116.5,22.8 116.5,22.7 116.5,22.6 C116.5,22.5 116.5,22.5 116.6,22.5 L117,22.6 C117.5,22.8 118,22.8 118.2,22.8 C118.7,22.8 119,22.7 119.1,22.4 C119.3,22.1 119.4,21.8 119.4,21.4 C119.5,21 119.5,20.5 119.6,19.9 C119.7,19.3 119.7,18.7 119.8,18.1 C119.8,17.5 119.9,16.8 119.9,16.2 C119.9,15.5 119.9,14.9 119.9,14.5 L119.9,14.2 L115.9,14.2 L115.3,15.3 C115.2,15.4 115.2,15.5 115.2,15.5 C115.2,15.5 115.1,15.4 115,15.3 L114.3,14.4 C114.1,14.2 114,14.1 114.1,14 C114.1,14 114.1,13.9 114.2,13.8 L114.5,13.4 C114.6,11.7 114.7,10.1 114.9,8.9 C115,7.6 115.1,6.8 115.1,6.5 L115.2,5.2 L115.2,4.7 C115.2,4.6 115.2,4.6 115.3,4.6 L115.5,4.7 L117.1,5.5 C117.1,5.5 117.2,5.6 117.2,5.6 C117.2,5.6 117.2,5.8 117,5.9 L116.5,6.3 C116.4,7.6 116.3,8.7 116.2,9.6 C116.1,10.5 116,11.8 115.9,13.4 L118,13.4 L119,3.8 Z M115.6,20.4 C115.3,20.7 115.2,20.8 115.2,20.8 C115.2,20.8 115.1,20.7 115.1,20.5 L114.4,18.7 C114.3,18.6 114.3,18.5 114.3,18.5 C114.3,18.5 114.4,18.4 114.7,18.3 L115.3,18.1 C115.8,18 116.5,17.7 117.3,17.4 C118.2,17 118.9,16.8 119.3,16.5 L119.6,16.3 C119.7,16.3 119.7,16.3 119.7,16.3 C119.7,16.3 119.7,16.4 119.7,16.5 C119.7,16.6 119.7,16.6 119.6,16.6 L119,17.1 L117.7,18.3 L116.5,19.4 L115.6,20.4 Z M122.5,9.8 L122.5,7.4 L122.4,5.3 C122.4,5.3 122.4,5.3 122.4,5.3 C122.4,5.3 122.5,5.3 122.7,5.4 L124.3,6.1 C124.4,6.1 124.4,6.2 124.4,6.2 C124.4,6.2 124.4,6.3 124.5,6.3 C124.5,6.3 124.5,6.4 124.3,6.5 L124,7 L124,9.3 L125.6,8.7 L125.6,3.4 L125.5,1.4 C125.5,1.4 125.6,1.3 125.6,1.3 C125.6,1.3 125.8,1.3 126.1,1.4 L127.4,1.8 C127.5,1.9 127.6,1.9 127.6,2 C127.6,2.1 127.5,2.1 127.5,2.2 L127,2.8 L127,8.1 L128.7,7.5 L129.1,6.5 C129.1,6.4 129.2,6.3 129.2,6.3 C129.2,6.3 129.3,6.3 129.4,6.3 L130.7,7.4 C130.8,7.5 130.9,7.6 130.9,7.6 C130.9,7.6 130.9,7.7 130.9,7.7 C130.9,7.7 130.9,7.8 130.9,7.8 C130.9,7.9 130.8,7.9 130.8,7.9 L130.4,8.5 C130.4,9.8 130.4,10.9 130.4,11.7 C130.4,12.6 130.4,13.4 130.3,14.2 C130.3,15 130.2,15.6 130.2,16 C130.2,16.4 130.1,16.9 129.9,17.3 C129.7,17.8 129.5,18.1 129.1,18.3 C128.7,18.5 128.5,18.5 128.4,18.5 C128.4,18.5 128.3,18.3 128.2,17.9 C128.1,17.5 127.9,17.1 127.7,16.9 L127.3,16.6 C127.2,16.6 127.2,16.5 127.2,16.4 C127.2,16.3 127.3,16.3 127.3,16.3 L127.4,16.3 L127.8,16.4 C127.9,16.4 128,16.4 128.1,16.4 C128.4,16.4 128.6,16.2 128.7,15.7 C128.8,15.3 128.8,14.8 128.8,14.4 C128.8,14 128.8,13.4 128.9,12.8 C129,12.2 128.9,11.5 128.9,10.8 C128.9,10.1 128.9,9.6 128.9,9.1 L128.9,8.7 L128.9,8.2 L127.1,8.9 L127.1,17.5 L127.2,19.4 C127.2,19.6 127.1,19.8 127.1,19.9 C127,20 126.9,20.1 126.8,20.2 C126.6,20.3 126.5,20.3 126.3,20.3 C126.2,20.3 126.1,20.3 126,20.2 C125.9,20.2 125.8,20.1 125.8,20.1 C125.8,20 125.7,19.9 125.7,19.8 L125.8,17.3 L125.8,9.4 L124,10 L124,21.1 C124,21.5 124,21.8 124.1,21.9 C124.2,22.1 124.4,22.2 124.7,22.3 C125,22.4 125.7,22.5 126.9,22.5 C128.2,22.5 129,22.4 129.4,22.2 C129.7,22 130,21.8 130.1,21.6 C130.3,21.4 130.4,21 130.6,20.6 C130.7,20.1 130.9,19.6 131,19.2 L131.3,18 C131.3,17.9 131.4,17.8 131.4,17.8 C131.5,17.8 131.5,17.9 131.5,18 L131.4,19 C131.3,19.9 131.3,20.4 131.3,20.7 C131.3,21 131.3,21.3 131.4,21.5 L131.7,22 C131.8,22.2 131.8,22.3 131.8,22.4 C131.8,22.5 131.8,22.6 131.8,22.7 C131.8,23.2 131.6,23.6 131.3,23.9 C131,24.2 130.3,24.4 129.3,24.5 C128.3,24.6 127.6,24.7 127.2,24.7 C126.3,24.7 125.3,24.6 124.3,24.4 C123.3,24.2 122.8,23.8 122.7,23.3 C122.6,22.8 122.5,22.4 122.5,22.1 L122.5,10.6 L120.7,11.3 C120.6,11.4 120.5,11.3 120.4,11 C120.3,10.8 120.4,10.6 120.6,10.6 L122.5,9.8 Z" id="Shape"></path>
            </g>
            <g id="Group" transform="translate(13.000000, 0.000000)">
                <path d="M2.1,5 L0.3,5 C0.2,5 0.2,4.9 0.1,4.8 C0.1,4.6 0.1,4.6 0.3,4.6 L2.1,4.6 L2.1,1.9 L2.1,0.5 C2.1,0.5 2.1,0.5 2.1,0.5 C2.1,0.5 2.2,0.5 2.3,0.6 L3.4,1 C3.5,1 3.5,1.1 3.4,1.3 L3,1.6 L3,4.6 L3.3,4.6 L3.6,4 C3.7,3.9 3.7,3.8 3.8,3.8 C3.9,3.8 3.9,3.9 4.1,4.1 L4.5,4.5 C4.6,4.7 4.7,4.8 4.7,4.9 C4.6,5 4.6,5 4.5,5 L3,5 L3,7.1 C3.8,7.4 4.2,7.7 4.3,8 C4.4,8.4 4.5,8.6 4.5,8.8 L4.5,8.9 L5.1,8.9 C5.1,8.8 5.1,8.7 5.1,8.7 L5.2,7.5 C5.2,6.9 5.3,6.4 5.3,6.1 L5.3,5.2 C5.1,5.5 5,5.9 4.7,6.2 L4.5,6.6 C4.4,6.7 4.4,6.8 4.3,6.7 C4.3,6.7 4.3,6.6 4.3,6.5 L4.5,6 C4.6,5.5 4.8,5 4.9,4.4 C5.1,3.8 5.2,3.4 5.2,3.1 L5.4,2.2 C5.5,1.7 5.6,1.4 5.6,1.3 L5.7,0.6 L5.7,0.3 C5.7,0.3 5.7,0.3 5.8,0.3 L6,0.5 L7,1.1 C7.1,1.2 7.1,1.2 7.1,1.3 C7.1,1.4 7.1,1.4 7,1.5 L6.8,1.6 L6.2,3.1 L9.5,3.1 L9.9,2.3 C9.9,2.2 10,2.2 10,2.1 C10,2.1 10.1,2.1 10.1,2.2 L11,3.2 C11.1,3.3 11.1,3.4 11.1,3.4 C11.1,3.5 11.1,3.5 11,3.5 L10.5,3.5 L6,3.5 L5.5,5 L6.4,5.6 L9.1,5.6 L9.3,5 C9.3,4.9 9.4,4.8 9.4,4.8 C9.4,4.8 9.5,4.8 9.6,4.9 L10.4,5.7 C10.5,5.8 10.5,5.8 10.5,5.9 C10.5,6 10.5,6 10.4,6.1 L10.2,6.4 L10,9 L10.1,9 L10.4,8.5 C10.5,8.3 10.6,8.2 10.6,8.2 C10.6,8.2 10.7,8.2 10.8,8.3 L11.4,9.1 C11.5,9.2 11.5,9.3 11.5,9.3 C11.5,9.4 11.5,9.4 11.4,9.4 L10.6,9.4 L10,9.4 C10,9.5 10,9.8 10,10.3 C10,10.8 10,11.2 10,11.5 L10,12.4 L10,12.6 L10.3,12 C10.4,11.9 10.4,11.8 10.4,11.8 C10.4,11.8 10.5,11.8 10.6,11.9 L11.2,12.5 C11.4,12.7 11.4,12.8 11.4,12.9 C11.4,13 11.3,13 11.3,13 L10.3,13 L10,13 C10,13.1 10,13.3 10,13.3 C10,13.4 10,13.5 10,13.6 C10,13.7 9.9,13.9 9.9,14.2 C9.8,14.5 9.7,14.7 9.7,14.9 C9.6,15.1 9.5,15.3 9.2,15.5 C9,15.7 8.7,15.8 8.5,15.8 C8.4,15.8 8.4,15.8 8.4,15.8 C8.4,15.8 8.4,15.7 8.3,15.5 C8.3,15.3 8.2,15.2 8.1,15 C8,14.9 7.9,14.7 7.9,14.7 C7.8,14.6 7.7,14.6 7.6,14.5 L7,14.7 C7,14.7 6.9,14.7 6.9,14.6 C6.9,14.6 6.9,14.5 6.9,14.5 C6.9,14.5 6.9,14.4 7,14.4 L7.4,14.5 C8,14.6 8.3,14.6 8.5,14.4 C8.7,14.2 8.7,14 8.8,13.7 L8.8,13.5 L8.8,13.3 L5.7,13.3 L5.5,13.7 C5.4,13.8 5.4,13.9 5.3,13.9 C5.2,13.9 5.2,13.9 5.2,13.8 L4.7,13.3 C4.6,13.2 4.5,13.1 4.5,13 C4.5,13 4.5,12.9 4.5,12.9 L4.7,12.7 L4.9,12.5 C5,11.9 5,11.4 5.1,11 C5.1,10.6 5.2,10.1 5.2,9.5 L4.5,9.5 C4.4,9.6 4.2,9.7 4.1,9.7 C4,9.7 3.9,9.6 3.8,9.5 C3.7,9.4 3.7,9.3 3.7,9.2 C3.7,9.1 3.7,8.9 3.7,8.7 C3.7,8.5 3.7,8.3 3.6,8.1 C3.6,7.9 3.5,7.8 3.4,7.7 L3,7.5 L3,13.7 L3,15.5 C3,15.6 3,15.6 2.9,15.7 C2.9,15.8 2.8,15.8 2.7,15.9 C2.7,16 2.6,16 2.4,16 C2.2,16 2.1,16 2.1,15.9 C2.1,15.8 2,15.8 2,15.7 L2.1,14 L2.1,9.4 C2,9.7 1.8,10 1.6,10.4 C1.4,10.8 1.2,11.1 1.1,11.4 C0.9,11.7 0.8,11.9 0.8,12 C0.8,12.1 0.7,12.2 0.7,12.2 L0.5,12.5 C0.4,12.6 0.4,12.6 0.4,12.6 C0.4,12.6 0.4,12.5 0.4,12.4 L0.6,11.9 C1,10.7 1.4,9.5 1.6,8.3 C1.8,6.9 2,5.9 2.1,5 Z M5.7,12.7 L8.8,12.7 C8.8,12.6 8.8,12.5 8.8,12.4 C8.8,12.3 8.8,11.9 8.9,11.5 L8.9,10.5 L8.9,9.5 L5.9,9.5 L5.7,12.7 Z M6.1,9 L9.1,9 C9.1,8.8 9.1,8.7 9.1,8.6 C9.1,8.5 9.1,8.3 9.1,8 C9.1,7.7 9.1,7.4 9.1,7 C9.1,6.6 9.1,6.4 9.1,6.3 L9.1,6.1 L6.3,6.1 L6.1,9 Z M6.8,10.1 C6.8,10 6.9,10 7,10 C7.5,10.3 7.8,10.7 8,11 C8.1,11.3 8.1,11.6 8.1,11.8 C8.1,12 8,12.1 7.9,12.2 C7.8,12.3 7.7,12.4 7.5,12.4 C7.3,12.4 7.2,12.3 7.1,12.2 C7.1,12.1 7,12 7,11.9 C7,11.8 7,11.6 7,11.4 C7,11.2 7,11 7,10.9 C7,10.8 6.9,10.7 6.9,10.5 C6.8,10.2 6.8,10.1 6.8,10.1 Z M6.9,6.4 C6.9,6.4 7,6.4 7.2,6.5 C7.4,6.6 7.5,6.7 7.7,6.8 C7.8,6.9 7.9,7 8,7.2 C8.1,7.4 8.2,7.6 8.2,7.8 C8.2,8 8.2,8.2 8.1,8.4 C8,8.6 7.9,8.7 7.7,8.7 C7.5,8.7 7.4,8.6 7.3,8.4 C7.3,8.3 7.2,8.2 7.2,8 L7.2,7.6 C7.2,7.3 7.1,7 7,6.9 C6.9,6.8 6.9,6.6 6.9,6.6 C6.8,6.4 6.9,6.4 6.9,6.4 Z" id="Shape"></path>
                <path d="M20.6,4.3 L20.8,4 C20.9,3.8 21,3.7 21,3.7 L21.2,4 L21.7,4.6 C21.7,4.6 21.8,4.7 21.8,4.8 C21.8,4.9 21.8,4.9 21.7,4.9 L20,4.9 L20,5.9 L20.6,5.9 L21,5.4 C21.1,5.3 21.1,5.2 21.1,5.2 C21.1,5.2 21.2,5.3 21.3,5.4 L21.7,5.9 C21.8,6 21.8,6.1 21.8,6.1 C21.8,6.2 21.8,6.2 21.7,6.2 L20.1,6.2 L20.1,7.2 L21.9,7.2 L22.3,6.6 C22.4,6.4 22.5,6.4 22.5,6.4 C22.5,6.4 22.6,6.5 22.8,6.6 L23.4,7.3 C23.5,7.4 23.6,7.5 23.6,7.6 C23.6,7.6 23.6,7.7 23.6,7.7 C23.6,7.7 23.5,7.7 23.5,7.7 L22.7,7.7 L20.4,7.7 C20.4,7.8 20.5,7.9 20.7,8.1 C20.9,8.3 21.2,8.6 21.7,9 C22.2,9.4 22.9,9.6 23.6,9.7 L24,9.7 C24,9.7 24.1,9.7 24.1,9.8 C24.1,9.8 24.1,9.9 24.1,9.9 C24.1,9.9 24.1,9.9 24.1,10 C24.1,10 24.1,10 24.1,10.1 L23.9,10.2 C23.6,10.4 23.4,10.6 23.3,10.9 C23.2,11.2 23.1,11.4 23,11.3 C22.7,11.3 22.2,10.9 21.4,10.1 L21.3,10.2 L21.3,11.6 L21.3,13.1 C21.3,13.2 21.3,13.2 21.2,13.3 C21.2,13.3 21.1,13.4 21,13.4 C20.9,13.5 20.8,13.5 20.8,13.5 C20.8,13.5 20.7,13.5 20.5,13.5 C20.3,13.5 20.3,13.5 20.2,13.4 C20.2,13.3 20.1,13.3 20.1,13.1 L20.1,9.6 L16.3,9.6 L16.3,13.5 C16.3,13.6 16.2,13.7 16.1,13.8 C16,13.9 15.8,14 15.6,14 C15.5,14 15.4,14 15.4,13.9 C15.4,13.8 15.4,13.8 15.3,13.7 L15.3,12.2 L15.3,10 C14.5,10.7 13.8,11.1 13.4,11.4 L13,11.6 C12.8,11.7 12.7,11.8 12.7,11.8 C12.7,11.8 12.6,11.8 12.6,11.8 C12.6,11.8 12.6,11.7 12.6,11.7 C12.6,11.6 12.6,11.6 12.7,11.5 L13,11.3 L13.4,11 C13.8,10.7 14.3,10.2 14.7,9.6 C15.1,9 15.5,8.6 15.6,8.4 C15.8,8 15.9,7.9 16,7.8 L13.2,7.8 C13.1,7.8 13,7.7 13,7.6 C13,7.5 13,7.4 13.2,7.4 L16.2,7.4 L16.2,6.4 L14.8,6.4 L14.7,6.4 C14.7,6.4 14.6,6.4 14.6,6.3 C14.6,6.3 14.6,6.2 14.6,6.1 C14.6,6 14.6,5.9 14.7,5.9 L16.1,5.9 L16.1,4.9 L14.8,4.9 L14.7,4.9 C14.7,4.9 14.6,4.9 14.6,4.8 C14.6,4.7 14.6,4.7 14.6,4.6 C14.6,4.5 14.6,4.4 14.7,4.4 L16.1,4.4 L16.1,4.2 L16.1,3 L16.1,2.9 L14.6,2.9 C14.6,3 14.6,3.1 14.6,3.1 C14.6,3.1 14.6,3.3 14.6,3.5 C14.6,3.7 14.6,3.9 14.5,4.1 C14.5,4.3 14.4,4.5 14.2,4.8 C14.1,5 13.9,5.1 13.6,5.1 C13.4,5.1 13.2,5 13.1,4.8 C13,4.6 12.9,4.4 12.9,4.2 C12.9,4 13,3.7 13.1,3.5 C13.1,3.5 13.2,3.3 13.5,3.1 C13.7,2.8 13.9,2.5 14,2.2 L14.1,1.8 C14.1,1.7 14.1,1.7 14.2,1.7 C14.2,1.7 14.3,1.8 14.3,1.9 L14.4,2.2 L14.5,2.4 L18.1,2.4 C18,2.3 17.9,2.3 17.8,2.2 C17.7,2.1 17.8,2.1 17.8,2 C17.8,1.9 17.7,1.7 17.7,1.4 C17.6,1.1 17.5,0.8 17.4,0.6 L17.3,0.4 C17.2,0.3 17.2,0.3 17.2,0.2 C17.2,0.1 17.3,0.1 17.4,0.1 C17.7,0.1 18.1,0.2 18.5,0.4 C18.9,0.6 19.1,0.9 19.1,1.2 C19.1,1.5 19.1,1.8 19,1.9 C18.9,2.1 18.9,2.2 18.8,2.2 L18.5,2.4 L22,2.4 L22.2,2 C22.3,1.8 22.4,1.7 22.4,1.8 C22.4,1.9 22.5,1.9 22.7,2.1 L23.5,3 C23.7,3.2 23.8,3.4 23.7,3.5 C23.7,3.6 23.5,3.7 23.3,3.7 C23.1,3.7 22.8,3.7 22.6,3.8 C22.4,3.9 22.2,4 22.1,4.1 L21.8,4.4 C21.7,4.5 21.6,4.5 21.6,4.5 C21.6,4.5 21.6,4.4 21.6,4.3 L22,3 L16.3,3 L17.1,3.2 C17.3,3.3 17.4,3.3 17.4,3.3 C17.4,3.3 17.4,3.3 17.4,3.4 C17.4,3.5 17.4,3.5 17.3,3.6 L17.1,3.8 L17.1,4.3 L19.2,4.3 L19.2,3.9 C19.2,3.5 19.2,3.3 19.2,3.2 C19.2,3.1 19.2,3.1 19.2,3.1 L19.4,3.1 L20.3,3.3 C20.4,3.3 20.5,3.4 20.5,3.4 C20.5,3.4 20.5,3.4 20.5,3.5 C20.5,3.6 20.5,3.5 20.5,3.6 C20.5,3.6 20.4,3.7 20.4,3.7 L20.2,3.9 L20.2,4.4 L20.6,4.4 L20.6,4.3 Z M18.8,11 C18.8,11.4 18.7,11.8 18.7,12.3 C18.7,12.8 18.6,13.3 18.4,13.8 C18.2,14.3 18,14.6 17.6,14.9 C17.2,15.2 16.8,15.4 16.4,15.6 C15.9,15.8 15.4,16 14.8,16.1 L14.2,16.2 C14.1,16.2 14.1,16.2 14,16.2 C13.9,16.2 13.9,16.2 13.9,16.2 C13.9,16.2 13.9,16.1 13.9,16.1 C13.9,16.1 13.9,16 14,16 L14.2,15.9 L14.6,15.8 C15.1,15.6 15.5,15.4 15.9,15.2 C16.3,14.9 16.6,14.7 16.8,14.5 C17,14.3 17.2,13.9 17.4,13.5 C17.5,13.1 17.6,12.7 17.6,12.3 C17.6,11.9 17.6,11.5 17.7,11.1 L17.7,10.1 C17.7,10.1 17.7,10 17.7,10 C17.7,10 17.7,10 17.8,10 L18.9,10.3 C19,10.3 19,10.4 19.1,10.4 C19.1,10.4 19.2,10.5 19.2,10.5 C19.2,10.5 19.2,10.6 19.1,10.7 L18.8,11 Z M20.1,9.2 C20.1,9.1 20.2,9 20.2,9 C20.2,9 20.3,9 20.4,9.1 C20.2,8.6 20.1,8.2 20,7.9 L17,7.9 L17.2,8 C17.3,8 17.3,8 17.3,8 C17.3,8 17.3,8.1 17.3,8.1 C17.3,8.1 17.3,8.2 17.2,8.2 L17,8.4 L16.3,9.2 L20.1,9.2 Z M19.2,5.8 L19.2,4.8 L17.1,4.8 L17.1,5.8 L19.2,5.8 Z M19.2,7.3 L19.2,6.3 L17.1,6.3 L17.1,7.3 L19.2,7.3 Z M18.7,13.6 C18.7,13.5 18.8,13.5 18.9,13.5 C18.9,13.5 19,13.5 19.1,13.5 C19.2,13.5 19.4,13.6 19.8,13.6 C20.2,13.6 20.7,13.8 21.2,14 C21.8,14.2 22.2,14.5 22.3,14.8 C22.5,15.1 22.5,15.3 22.5,15.6 C22.5,15.9 22.5,16 22.4,16.2 C22.3,16.4 22.2,16.5 22,16.5 C21.8,16.5 21.6,16.4 21.4,16.2 C21.4,16.2 21.2,15.9 20.8,15.4 C20.5,14.9 20.1,14.6 19.8,14.4 C19.5,14.2 19.2,14.1 19.1,14 L18.7,13.9 C18.7,13.7 18.7,13.6 18.7,13.6 Z" id="Shape"></path>
                <path d="M27.7,7.3 L27.9,7.5 C28,7.6 28,7.6 28.1,7.7 C28.1,7.7 28.1,7.7 28.1,7.8 C28.1,7.9 28.1,7.8 28.1,7.9 C28.1,7.9 28.1,8 28,8 L27.8,8.3 L27.8,14.3 L27.8,15.8 C27.7,16.1 27.6,16.3 27.3,16.3 C27.1,16.3 26.9,16.3 26.9,16.3 C26.9,16.3 26.8,16.2 26.8,16.1 L26.8,14.3 L26.8,8.6 C26.7,8.8 26.5,9 26.3,9.4 C26.1,9.7 26,9.9 26,10 L25.7,10.3 C25.5,10.6 25.4,10.7 25.3,10.7 C25.3,10.7 25.3,10.7 25.2,10.7 C25.2,10.7 25.2,10.7 25.2,10.6 C25.2,10.5 25.2,10.6 25.2,10.5 C25.2,10.5 25.2,10.4 25.3,10.4 L25.5,10.1 L25.8,9.4 C26,9 26.2,8.6 26.3,8.3 C26.4,8 26.6,7.5 26.8,6.9 C27,6.3 27.2,5.9 27.2,5.7 C27.3,5.5 27.3,5.2 27.4,5 L27.6,4.3 C27.6,4.3 27.6,4.3 27.6,4.2 C27.6,4.2 27.7,4.2 27.8,4.3 L28.7,5 C28.8,5 28.8,5.1 28.8,5.1 C28.8,5.1 28.9,5.2 28.8,5.2 C28.7,5.2 28.7,5.3 28.6,5.4 L28.3,5.5 L27.7,7.3 Z M28.6,1.8 C28.1,2.5 27.7,3.2 27.4,3.7 C27,4.2 26.6,4.8 26.1,5.3 L25.8,5.6 C25.7,5.8 25.6,5.8 25.5,5.8 C25.5,5.8 25.5,5.8 25.5,5.8 C25.5,5.8 25.5,5.8 25.5,5.7 C25.5,5.7 25.5,5.6 25.5,5.6 L25.7,5.3 L26,4.8 C26.2,4.4 26.5,3.7 26.9,3 C27.3,2.3 27.5,1.6 27.6,1.1 L27.8,0.6 C27.8,0.5 27.8,0.5 27.8,0.5 C27.8,0.5 27.9,0.5 27.9,0.6 L28.8,1.3 C28.9,1.3 29,1.3 29,1.4 C29,1.4 29,1.5 29,1.5 C29,1.5 29,1.6 28.9,1.6 L28.6,1.8 Z M29.3,11.5 C29.4,11.6 29.4,11.8 29.5,12.1 C29.6,12.4 29.6,12.6 29.6,12.8 C29.6,13 29.6,13.2 29.6,13.4 C29.6,13.9 29.5,14.3 29.4,14.7 C29.2,15.1 29,15.2 28.7,15.2 C28.5,15.2 28.3,15.1 28.3,15 C28.2,14.8 28.2,14.6 28.2,14.4 C28.2,14.2 28.3,13.9 28.5,13.7 L28.8,13.3 C28.9,13.1 29,13 29.1,12.8 C29.2,12.6 29.2,12.4 29.3,12.1 L29.3,11.7 C29.2,11.5 29.3,11.4 29.3,11.5 Z M35.1,9.6 L35.4,9 C35.5,8.8 35.6,8.7 35.6,8.7 C35.6,8.7 35.7,8.8 35.9,9 L36.5,9.7 C36.6,9.8 36.7,10 36.7,10 C36.7,10.1 36.7,10.1 36.6,10.1 L28.6,10.1 C28.5,10.1 28.5,10.1 28.5,10 C28.5,9.9 28.4,9.9 28.4,9.8 C28.4,9.7 28.4,9.6 28.6,9.6 L35.1,9.6 Z M28.9,3.1 C28.8,3.1 28.8,3.1 28.7,3 C28.6,2.9 28.7,2.9 28.6,2.8 C28.6,2.7 28.6,2.6 28.8,2.6 L31.5,2.6 L31.5,1.6 L31.5,0.4 C31.5,0.4 31.5,0.3 31.5,0.3 C31.5,0.3 31.6,0.3 31.7,0.3 L32.7,0.6 C32.8,0.6 32.8,0.7 32.9,0.7 C32.9,0.7 33,0.8 33,0.8 C33,0.8 33,0.8 33,0.9 C33,0.9 33,0.9 33,1 L32.6,1.4 L32.6,2.7 L34.4,2.7 L34.7,2 C34.8,1.8 34.9,1.7 34.9,1.7 C34.9,1.7 35,1.7 35,1.7 C35,1.7 35.1,1.8 35.3,2 L36,2.7 C36.1,2.8 36.2,2.9 36.2,3 C36.2,3.1 36.1,3.1 36.1,3.1 L32.7,3.1 L32.6,4.9 L34.4,4.9 L34.6,4.5 C34.7,4.4 34.7,4.3 34.8,4.3 C34.8,4.3 34.9,4.4 35.1,4.5 L35.5,5 C35.6,5.1 35.7,5.2 35.7,5.2 C35.7,5.2 35.7,5.3 35.7,5.3 C35.7,5.3 35.7,5.4 35.6,5.5 L35.4,5.8 L35.4,7.1 L35.4,8.4 C35.3,8.6 35.2,8.7 35,8.7 C34.8,8.7 34.7,8.8 34.6,8.8 C34.5,8.8 34.4,8.7 34.4,8.6 L34.4,8.1 L30.2,8.1 L30.2,8.7 C30.2,8.8 30.1,8.9 30,9 C29.9,9.1 29.7,9.1 29.4,9.1 C29.3,9.1 29.3,9.1 29.3,9.1 C29.3,9.1 29.2,9 29.2,8.9 L29.2,7.5 L29.2,5.8 L29.2,4.3 C29.2,4.2 29.3,4.2 29.3,4.2 C29.3,4.2 29.4,4.2 29.5,4.3 L30.3,4.9 L31.5,4.9 L31.5,3.1 L28.9,3.1 Z M31,5.4 L30.2,5.4 L30.2,7.6 L31,7.6 L31,5.4 Z M31.3,11.8 L31.3,14.4 C31.3,14.6 31.4,14.7 31.5,14.8 C31.6,14.8 31.8,14.9 32.1,14.9 C32.7,14.9 33.1,14.9 33.3,14.8 C33.6,14.7 33.7,14.6 33.8,14.4 C33.9,14.2 34,14 34.1,13.7 L34.4,12.7 C34.4,12.6 34.5,12.5 34.5,12.5 C34.5,12.5 34.6,12.5 34.6,12.6 C34.6,12.6 34.6,12.7 34.6,12.7 C34.6,12.7 34.6,12.8 34.6,12.8 L34.5,13.8 C34.5,13.9 34.5,13.9 34.5,14 C34.5,14.1 34.5,14.1 34.5,14.2 C34.5,14.4 34.6,14.5 34.7,14.7 C34.8,14.9 34.8,15 34.8,15 C34.8,15.1 34.8,15.1 34.8,15.2 C34.8,15.5 34.6,15.8 34.2,16 C33.8,16.2 33.2,16.3 32.5,16.3 C31.8,16.3 31.3,16.3 31,16.2 C30.7,16.1 30.5,16 30.4,15.7 C30.3,15.4 30.3,15.3 30.3,15.2 L30.3,12.5 L30.3,11 C30.3,11 30.3,11 30.4,10.9 L30.6,11 L31.5,11.3 C31.6,11.3 31.6,11.4 31.6,11.4 C31.6,11.5 31.6,11.6 31.5,11.7 L31.3,11.8 Z M32.7,5.4 L31.9,5.4 L31.8,5.5 L31.8,7.6 L32.6,7.6 L32.6,5.4 L32.7,5.4 Z M31.8,10.6 C31.8,10.6 31.9,10.5 31.8,10.6 C31.9,10.5 32,10.5 32.1,10.6 C32.1,10.6 32.2,10.7 32.4,10.8 C32.6,10.9 32.8,11.2 33,11.5 C33.2,11.8 33.3,12.1 33.3,12.3 C33.3,12.6 33.3,12.8 33.2,12.9 C33.1,13.2 32.9,13.3 32.7,13.3 C32.6,13.3 32.5,13.3 32.4,13.2 C32.3,13.1 32.2,13 32.2,12.9 C32.2,12.8 32.1,12.6 32.1,12.2 C32.1,11.9 32.1,11.6 32,11.5 C32,11.3 31.9,11.2 31.9,11 L31.7,10.7 C31.8,10.7 31.8,10.7 31.8,10.6 Z M34.4,5.4 L33.5,5.4 L33.4,5.6 L33.4,7.7 L34.4,7.7 L34.4,5.4 Z M34.6,11.3 C34.6,11.3 34.6,11.2 34.7,11.2 C34.7,11.2 34.9,11.3 35.1,11.4 C35.3,11.5 35.7,11.8 36.1,12.2 C36.5,12.6 36.6,13 36.6,13.6 C36.6,13.7 36.6,13.9 36.5,14.1 C36.4,14.3 36.3,14.5 36.1,14.6 C35.9,14.7 35.7,14.7 35.6,14.4 C35.5,14.3 35.4,14.2 35.4,14 C35.4,13.8 35.3,13.6 35.3,13.2 C35.3,12.8 35.2,12.5 35.1,12.3 C35,12.1 34.9,11.8 34.8,11.6 L34.6,11.3 C34.6,11.4 34.6,11.4 34.6,11.3 Z" id="Shape"></path>
                <path d="M39.2,10.7 L39.2,3.9 L38,3.9 C37.9,3.9 37.8,3.8 37.8,3.7 C37.8,3.5 37.8,3.5 38,3.5 L39.2,3.5 L39.2,1.7 L39.2,0.2 C39.2,0.2 39.2,0.1 39.2,0.1 C39.2,0.1 39.3,0.1 39.4,0.2 L40.2,0.5 C40.3,0.5 40.4,0.6 40.4,0.6 C40.4,0.6 40.4,0.7 40.4,0.7 C40.4,0.7 40.4,0.8 40.3,0.9 L40.1,1.1 L40.1,3.4 L41.7,3.4 L41.7,1.6 L41.7,0.4 C41.7,0.4 41.7,0.4 41.7,0.3 L42,0.4 L42.8,0.7 C42.9,0.7 42.9,0.8 43,0.8 C43,0.8 43,0.8 43,0.9 C43,0.9 43,1 42.9,1 L42.6,1.3 L42.6,3.5 L42.7,3.5 L43.1,2.8 C43.2,2.7 43.2,2.6 43.3,2.6 C43.3,2.6 43.4,2.7 43.5,2.9 L44,3.7 C44,3.8 44,3.8 44.1,3.8 C44.1,3.8 44.1,3.8 44.1,3.9 C44.1,4 44.1,3.9 44.1,3.9 C44.1,3.9 44.1,4 44,4 L43.1,4 L42.6,4 L42.6,10.7 L43,10 C43.1,9.9 43.1,9.8 43.2,9.8 C43.3,9.8 43.3,9.8 43.3,10 L43.9,10.9 C44,11 44,11.1 44,11.1 C44,11.1 43.9,11.2 43.8,11.2 L37.8,11.2 L37.7,11.2 C37.6,11.2 37.6,11.2 37.6,11.1 C37.6,11.1 37.6,11 37.6,10.9 C37.6,10.8 37.7,10.7 37.8,10.7 L39.2,10.7 Z M40.5,12.7 C40,13.4 39.5,13.9 39.1,14.4 C38.7,14.9 38.4,15.2 38.3,15.3 L38,15.5 C37.9,15.6 37.9,15.6 37.9,15.6 C37.9,15.6 37.9,15.6 37.9,15.6 C37.9,15.6 37.9,15.6 37.9,15.5 C37.9,15.5 37.9,15.4 38,15.3 L38.2,14.9 C38.4,14.6 38.7,14.1 38.9,13.6 C39.1,13.1 39.4,12.6 39.5,12.3 L39.7,11.8 L39.8,11.5 C39.8,11.5 39.8,11.5 39.9,11.5 L40.1,11.6 L40.9,12.2 C41,12.3 41,12.3 41,12.3 C41,12.3 41,12.4 41,12.4 C41,12.4 41,12.5 40.9,12.5 L40.5,12.7 Z M41.7,5.7 L41.7,3.9 L40.1,3.9 L40.1,5.6 L41.7,5.6 L41.7,5.7 Z M41.7,8.2 L41.7,6.2 L40.1,6.2 L40.1,8.2 L41.7,8.2 Z M41.7,10.7 L41.7,8.7 L40.1,8.7 L40.1,10.8 L41.7,10.8 L41.7,10.7 Z M41.5,12.3 L41.3,12 L41.2,11.9 C41.2,11.9 41.2,11.9 41.2,11.8 C41.2,11.7 41.2,11.7 41.3,11.7 C41.4,11.7 41.6,11.8 42,12.1 C42.4,12.4 42.7,12.7 42.8,13 C43,13.3 43,13.6 43,13.8 C43,13.9 43,14.1 42.9,14.2 C42.9,14.3 42.8,14.4 42.7,14.6 C42.6,14.7 42.5,14.8 42.4,14.8 C42.2,14.8 42.1,14.7 42,14.6 C41.9,14.4 41.9,14.2 41.8,14 L41.7,13.4 C41.7,13.2 41.6,12.9 41.5,12.8 C41.4,12.7 41.6,12.5 41.5,12.3 Z M45.2,6.3 L47.5,6.3 L48,5.5 C48.1,5.4 48.1,5.3 48.2,5.3 C48.2,5.3 48.3,5.4 48.4,5.5 L49.1,6.5 C49.1,6.6 49.2,6.6 49.2,6.7 C49.2,6.8 49.1,6.8 49.1,6.8 L47.9,6.8 C47.9,6.8 47.8,6.9 47.8,7 L47.8,7.1 L47.7,7.2 L47.7,14.6 L47.7,15.8 C47.7,16.1 47.5,16.2 47.4,16.3 C47.2,16.4 47.1,16.4 47,16.4 C46.9,16.4 46.8,16.4 46.7,16.3 C46.7,16.2 46.6,16.2 46.6,16 L46.7,14.2 L46.7,6.7 L45.3,6.7 C45.3,7.7 45.3,8.5 45.2,9.1 C45.1,9.7 45.1,10.5 45,11 C44.9,11.5 44.8,12 44.7,12.5 C44.5,13 44.4,13.4 44.2,13.7 C44,14.1 43.8,14.4 43.6,14.7 L43,15.5 C42.9,15.7 42.8,15.8 42.7,15.8 L42.4,16.1 C42.4,16.1 42.3,16.2 42.3,16.2 C42.3,16.2 42.2,16.2 42.2,16.2 C42.2,16.2 42.2,16.2 42.2,16.1 C42.2,16.1 42.2,16 42.3,15.9 L42.6,15.6 C42.9,15.2 43.2,14.8 43.4,14.3 C43.6,13.8 43.8,13.3 43.9,12.7 C44,12 44,11.5 44.1,11 C44.2,10.6 44.2,10 44.2,9.3 C44.2,8.6 44.2,7.9 44.2,7.3 C44.2,6.7 44.2,6.3 44.2,6.1 C44.2,5.8 44.2,5.5 44.2,5.2 L44.2,3.3 L44.2,3 L44.1,1.7 C44.1,1.7 44.1,1.7 44.1,1.6 L44.3,1.8 L45.3,2.5 C45.8,2.2 46.2,1.9 46.6,1.6 C47,1.4 47.2,1.2 47.3,1 L47.6,0.7 C47.7,0.6 47.7,0.5 47.8,0.5 C47.9,0.5 47.9,0.6 48,0.7 L48.6,1.7 C48.7,1.9 48.7,2 48.7,2 C48.7,2.1 48.7,2.1 48.5,2.1 L48.2,2.1 C48.1,2.1 47.9,2.2 47.5,2.2 L46.4,2.4 L45.1,2.7 L45.1,6.3 L45.2,6.3 Z" id="Shape"></path>
                <polygon id="Shape" points="57.8 7.4 57.8 8.9 50.3 8.9 50.3 7.4"></polygon>
                <path d="M68.4,10.9 L69,10 C69.1,9.9 69.1,9.9 69.1,9.9 C69.1,9.9 69.2,9.9 69.3,10 L70.1,11 C70.2,11.1 70.2,11.2 70.2,11.3 C70.2,11.4 70.1,11.4 70,11.4 L67.3,11.4 L67.3,14.6 L67.3,15.9 C67.3,16 67.2,16.1 67.2,16.2 C67.1,16.3 67,16.4 66.7,16.4 C66.5,16.4 66.3,16.4 66.3,16.3 C66.3,16.3 66.2,16.2 66.2,16.1 L66.2,14.1 L66.2,11.4 L62.6,11.4 C62.6,11.5 62.6,11.6 62.6,11.6 L62.6,12.2 C62.5,13.1 62.4,13.8 62.1,14.2 C61.8,14.6 61.5,15 61,15.3 C60.6,15.6 60.2,15.9 59.8,16 L59.3,16.2 C59.3,16.2 59.2,16.2 59.2,16.2 C59.2,16.2 59.2,16.2 59.1,16.2 C59,16.2 59.1,16.2 59.1,16.2 C59.1,16.2 59.1,16.2 59.1,16.1 C59.1,16.1 59.1,16 59.2,16 L59.7,15.6 C60.5,15 61,14.3 61.2,13.7 C61.4,13 61.5,12.5 61.5,12.2 C61.5,11.9 61.5,11.6 61.5,11.4 L59.1,11.4 C59,11.4 59,11.3 58.9,11.2 C58.8,11.1 58.9,11 59.1,11 L61.6,11 C61.6,10.9 61.6,10.8 61.6,10.8 C61.6,10.7 61.6,10.7 61.6,10.6 C61.6,10.5 61.6,10.4 61.6,10.2 C61.6,10 61.6,9.9 61.6,9.9 L61.6,9.8 L61.6,9.1 L61.6,8.6 C61.6,8.6 61.6,8.5 61.7,8.5 L61.9,8.6 L62.9,8.9 C63,8.9 63.1,9 63.1,9 C63.1,9 63.2,9.1 63.2,9.1 C63.2,9.1 63.2,9.2 63.1,9.3 L62.8,9.6 C62.8,9.9 62.8,10.2 62.8,10.4 L62.8,10.8 L62.8,11.2 L66.4,11.2 L66.4,10 L66.4,8.6 C66.4,8.6 66.4,8.5 66.4,8.5 L66.6,8.6 L67.7,9 C67.8,9 67.9,9.1 67.9,9.2 C67.9,9.3 67.9,9.4 67.8,9.4 L67.5,9.7 L67.5,11.3 L68.4,11.3 L68.4,10.9 Z M62.7,2.8 C62.8,2.6 62.9,2.4 63,2.1 C63.1,1.8 63.2,1.6 63.2,1.4 L63.4,0.7 L63.5,0.2 C63.5,0.2 63.5,0.2 63.5,0.2 C63.5,0.2 63.6,0.2 63.7,0.3 L65,0.9 C65.1,0.9 65.1,1 65.1,1 C65.1,1 65.1,1.1 65.1,1.1 C65.1,1.1 65.1,1.3 65,1.4 L64.7,1.5 C64.3,2.4 64,2.8 64,2.8 L67.6,2.8 L68.2,1.9 C68.3,1.8 68.3,1.7 68.4,1.7 C68.4,1.7 68.5,1.7 68.6,1.9 L69.5,2.9 C69.6,2.9 69.7,3 69.7,3 C69.7,3 69.7,3.1 69.7,3.1 C69.7,3.1 69.7,3.2 69.6,3.2 C69.6,3.2 69.5,3.3 69.5,3.3 L67.8,3.3 L67.5,3.3 L66,3.3 C66.3,4 66.7,4.6 67.2,5.2 C67.7,5.8 68.2,6.1 68.6,6.3 C69,6.5 69.4,6.7 69.8,6.8 L70.1,6.9 C70.2,6.9 70.2,7 70.2,7.1 C70.2,7.2 70.2,7.2 70.1,7.3 L69.8,7.4 C69.7,7.5 69.6,7.5 69.5,7.6 C69.4,7.7 69.3,7.8 69.2,8 C69.1,8.1 69.1,8.3 69,8.3 C68.9,8.3 69,8.4 69,8.5 C69,8.5 69,8.5 68.9,8.5 C68.8,8.5 68.5,8.3 67.9,7.8 C67.3,7.3 66.8,6.8 66.5,6.1 C66.2,5.5 66,5 65.9,4.6 C65.8,4.2 65.9,4 65.8,3.7 L65.8,3.5 L65.7,3.2 L63.9,3.2 C63.9,3.3 63.8,3.3 63.8,3.3 L63.4,4 C62.8,5 62.2,5.8 61.7,6.4 C61.1,7 60.7,7.4 60.5,7.6 C60.3,7.8 60,8 59.7,8.2 L59.3,8.5 C59.3,8.5 59.2,8.5 59.2,8.5 C59.2,8.5 59.1,8.5 59.1,8.5 C59.1,8.5 59.1,8.4 59.1,8.4 C59.1,8.4 59.1,8.3 59.2,8.2 L59.6,7.8 C60.1,7.3 60.5,6.8 60.9,6.2 C61.3,5.6 61.6,5.1 61.8,4.8 C62,4.4 62.2,4.1 62.4,3.7 L62.6,3.2 L62.7,3 L59.6,3 C59.5,3 59.5,2.9 59.4,2.8 C59.4,2.6 59.4,2.6 59.6,2.6 L62.7,2.6 L62.7,2.8 Z M63.9,7.3 L61.7,7.3 C61.6,7.3 61.5,7.2 61.5,7.1 C61.5,7 61.5,6.9 61.7,6.9 L63.9,6.9 L63.9,5.4 L63.9,4.2 C63.9,4.1 64,4.1 64.1,4.1 L65.3,4.4 C65.4,4.4 65.4,4.4 65.4,4.5 C65.4,4.5 65.4,4.6 65.4,4.6 C65.4,4.6 65.4,4.7 65.3,4.8 L65,5.1 L65,6.9 L65.6,6.9 L66,6.1 C66.1,6 66.1,6 66.1,6 C66.1,6 66.2,6 66.3,6.1 L67,6.9 C67,7 67,7 67.1,7.1 C67.1,7.1 67.1,7.2 67.1,7.2 C67.1,7.2 67.1,7.3 67,7.3 C67,7.3 66.9,7.3 66.8,7.3 L65,7.3 L65,8.8 L65,9.7 C64.9,10 64.6,10.2 64.2,10.2 C64.1,10.2 64,10.2 64,10.2 C64,10.2 63.9,10.1 63.9,10 L63.9,8.4 L63.9,7.3 Z" id="Shape"></path>
                <path d="M74.5,2.1 L71.5,2.1 C71.4,2.1 71.3,2 71.3,1.9 L71.3,1.8 C71.3,1.7 71.3,1.7 71.4,1.7 L74.4,1.7 L74.8,1 C74.8,0.9 74.9,0.9 74.9,0.9 C74.9,0.9 74.9,0.9 74.9,0.9 L75,1 L75.8,1.8 C75.8,1.8 75.9,1.9 75.9,1.9 C75.9,1.9 75.9,2 75.9,2 C75.9,2 75.9,2.1 75.8,2.1 L75.5,2.4 L75,8.1 L75.3,8.1 L75.5,7.7 C75.6,7.6 75.6,7.6 75.6,7.6 C75.6,7.6 75.6,7.6 75.6,7.6 C75.6,7.6 75.6,7.7 75.7,7.7 L76.5,8.5 C76.5,8.6 76.6,8.6 76.6,8.6 C76.6,8.6 76.6,8.7 76.5,8.8 L76.3,9 C76.3,9.4 76.3,9.7 76.2,10 L76.1,11.5 C76.1,12.3 76,13 75.9,13.4 C75.8,13.8 75.7,14.2 75.6,14.6 C75.5,14.9 75.4,15.1 75.2,15.3 C75.1,15.4 74.9,15.6 74.7,15.7 C74.5,15.8 74.3,15.9 74.1,15.9 C74.1,15.9 74,15.9 74,15.9 C74,15.9 74,15.8 74,15.7 C74,15.6 73.9,15.4 73.8,15.1 C73.7,14.8 73.5,14.6 73.3,14.5 L73,14.3 C73,14.3 73,14.3 73,14.3 C73,14.3 73,14.2 73,14.2 C73,14.1 73,14.1 73.1,14.1 L73.3,14.2 C73.7,14.3 73.9,14.3 74.1,14.3 C74.4,14.3 74.6,14.2 74.7,14 C74.8,13.8 74.9,13.6 74.9,13.3 C74.9,13 75,12.7 75,12.3 C75,11.9 75.1,11.5 75.1,11.1 C75.1,10.7 75.1,10.3 75.2,9.8 C75.2,9.4 75.2,9 75.2,8.7 L75.2,8.6 L72.6,8.6 L72.2,9.3 C72.2,9.4 72.1,9.4 72.1,9.4 C72.1,9.4 72,9.4 72,9.3 L71.6,8.7 C71.5,8.6 71.4,8.5 71.4,8.5 C71.4,8.5 71.4,8.4 71.5,8.4 L71.7,8.2 C71.9,7 71.9,6 72,5.2 C72.1,4.4 72.1,3.8 72.1,3.6 L72.2,2.8 L72.2,2.5 C72.2,2.5 72.2,2.4 72.2,2.4 L72.3,2.5 L73.5,3 C73.5,3 73.5,3 73.5,3.1 C73.5,3.1 73.5,3.2 73.4,3.3 L73.1,3.6 C73,4.4 73,5.1 72.9,5.7 C72.8,6.3 72.8,7.1 72.7,8.2 L74.1,8.2 L74.5,2.1 Z M72.3,12.9 C72.1,13.1 72,13.2 72,13.1 C72,13 72,13 71.9,12.9 L71.5,11.7 C71.5,11.6 71.5,11.6 71.4,11.5 C71.4,11.5 71.5,11.4 71.7,11.4 L72.1,11.3 C72.4,11.2 72.9,11.1 73.4,10.8 C74,10.6 74.4,10.4 74.7,10.2 L74.9,10.1 C74.9,10.1 75,10.1 75,10.1 C75,10.1 75,10.2 75,10.2 C75,10.2 75,10.3 75,10.3 L74.6,10.6 L73.7,11.4 L72.9,12.1 L72.3,12.9 Z M76.8,6 L76.8,4.4 L76.8,3 C76.8,3 76.8,3 76.8,3 C76.8,3 76.9,3 77,3.1 L78,3.5 C78,3.5 78.1,3.5 78.1,3.6 C78.1,3.6 78.1,3.7 78.1,3.7 C78.1,3.7 78.1,3.8 78,3.9 L77.7,4.2 L77.7,5.7 L78.7,5.3 L78.7,1.8 L78.6,0.5 C78.6,0.5 78.6,0.5 78.7,0.4 C78.7,0.4 78.8,0.4 79,0.5 L80,0.9 C80.1,0.9 80.1,1 80.1,1 C80.1,1 80.1,1.1 80,1.1 L79.7,1.5 L79.7,5 L80.8,4.6 L81.1,4 C81.1,3.9 81.2,3.9 81.2,3.9 C81.2,3.9 81.3,3.9 81.3,3.9 L82.1,4.6 C82.2,4.7 82.2,4.7 82.2,4.7 C82.2,4.7 82.2,4.7 82.2,4.8 C82.2,4.9 82.2,4.8 82.2,4.9 C82.2,4.9 82.2,5 82.2,5 L81.9,5.4 C81.9,6.2 81.9,6.9 81.9,7.5 C81.9,8.1 81.9,8.6 81.9,9.1 C81.9,9.6 81.9,10 81.8,10.3 C81.8,10.6 81.7,10.9 81.6,11.2 C81.5,11.5 81.3,11.7 81.1,11.8 C80.9,11.9 80.7,12 80.7,11.9 C80.7,11.9 80.6,11.8 80.6,11.5 C80.5,11.2 80.4,11 80.3,10.9 L80.1,10.7 C80.1,10.7 80,10.6 80,10.6 C80,10.5 80,10.5 80.1,10.5 L80.2,10.5 L80.5,10.5 C80.6,10.5 80.6,10.5 80.7,10.5 C80.9,10.5 81,10.3 81.1,10.1 C81.1,9.8 81.2,9.5 81.2,9.3 C81.2,9 81.2,8.7 81.2,8.2 C81.2,7.8 81.2,7.3 81.2,6.9 C81.2,6.5 81.2,6.1 81.2,5.8 L81.2,5.5 L81.2,5.2 L80,5.6 L80,11.2 L80.1,12.5 C80.1,12.6 80,12.7 80,12.8 C80,12.9 79.9,12.9 79.8,13 C79.7,13.1 79.6,13.1 79.5,13.1 C79.4,13.1 79.4,13.1 79.3,13.1 C79.2,13.1 79.2,13 79.2,13 C79.2,13 79.2,12.9 79.2,12.8 L79.3,11.2 L79.3,6.1 L78.3,6.5 L78.3,13.7 C78.3,14 78.3,14.1 78.4,14.2 C78.4,14.3 78.6,14.4 78.8,14.5 C79,14.6 79.5,14.6 80.2,14.6 C81.1,14.6 81.6,14.5 81.8,14.4 C82,14.3 82.2,14.1 82.3,14 C82.4,13.9 82.5,13.6 82.6,13.3 C82.7,13 82.8,12.7 82.9,12.4 L83.1,11.6 C83.1,11.5 83.2,11.5 83.2,11.5 C83.2,11.5 83.3,11.6 83.3,11.6 L83.2,12.2 C83.1,12.8 83.1,13.1 83.1,13.3 C83.1,13.5 83.1,13.7 83.2,13.8 L83.4,14.1 C83.4,14.2 83.5,14.3 83.5,14.3 C83.5,14.4 83.5,14.4 83.5,14.5 C83.5,14.8 83.4,15.1 83.2,15.3 C83,15.5 82.6,15.6 81.9,15.7 C81.2,15.8 80.8,15.8 80.5,15.8 C79.9,15.8 79.3,15.7 78.6,15.6 C78,15.4 77.6,15.2 77.5,14.9 C77.4,14.6 77.4,14.3 77.4,14.1 L77.4,6.5 L76.2,6.9 C76.1,6.9 76,6.9 76,6.7 C76,6.6 76,6.5 76.1,6.4 L76.8,6 Z" id="Shape"></path>
                <path d="M96.8,1.4 L97,4.5 C97,4.7 97,4.8 96.9,4.8 C96.8,4.8 96.7,4.8 96.7,4.6 L96.5,4.2 C96.4,3.9 96.3,3.7 96.1,3.3 C95.9,3 95.7,2.7 95.5,2.5 C95.3,2.3 95.1,2.2 94.8,2.1 C94.5,2 94.3,2 94,2 L93,2 C92.7,2 92.5,2 92.5,2.1 C92.4,2.2 92.4,2.3 92.4,2.4 L92.4,3 L92.4,7.3 L93.8,7.3 C94,7.3 94.2,7.2 94.3,7.1 C94.4,7 94.5,6.8 94.6,6.6 C94.7,6.4 94.7,6.2 94.7,5.8 L94.7,5.2 C94.7,5 94.8,5 94.9,4.9 C95,4.9 95.1,5 95.1,5.2 L95.1,9.8 C95.1,10 95,10.1 94.9,10.1 C94.8,10.1 94.7,10 94.7,9.8 L94.7,9 C94.7,8.7 94.7,8.4 94.6,8.2 C94.5,8 94.5,7.9 94.4,7.8 C94.3,7.7 94.1,7.7 94,7.7 L92.5,7.7 L92.5,12.4 C92.5,12.8 92.5,13.1 92.5,13.2 C92.5,13.3 92.6,13.3 92.7,13.4 C92.8,13.5 92.9,13.5 93.1,13.5 L94.5,13.5 C94.7,13.5 95,13.4 95.2,13.3 C95.4,13.2 95.7,13 95.9,12.7 C96.1,12.4 96.3,12.2 96.4,11.9 C96.5,11.6 96.6,11.4 96.7,11 L96.9,10.5 C97,10.3 97,10.3 97.1,10.3 C97.2,10.3 97.2,10.4 97.2,10.6 L96.9,13.9 L90.4,13.9 C90.3,13.9 90.2,13.8 90.2,13.6 C90.2,13.4 90.3,13.3 90.4,13.3 L90.7,13.3 C90.8,13.3 90.9,13.3 91,13.2 C91.1,13.1 91.2,13.1 91.2,12.9 C91.3,12.8 91.3,12.5 91.3,12.2 L91.3,3.1 C91.3,2.7 91.2,2.4 91.1,2.2 C91,2.1 90.8,2 90.6,2 L90.3,2 C90.2,2 90.1,1.9 90.1,1.7 C90.1,1.5 90.2,1.4 90.3,1.4 L96.8,1.4 Z" id="Shape"></path>
                <path d="M103.9,14.5 C104.1,14.7 104.3,14.9 104.5,14.9 C104.7,14.9 104.9,14.8 105,14.7 C105.1,14.6 105.2,14.5 105.3,14.4 C105.4,14.4 105.4,14.4 105.4,14.4 C105.4,14.4 105.4,14.5 105.4,14.7 C105.4,14.8 105.3,14.8 105.3,15 L105.2,15.2 C105.1,15.4 104.9,15.6 104.7,15.7 C104.5,15.8 104.3,15.9 104.1,15.9 C103.8,15.9 103.6,15.8 103.4,15.6 C103.2,15.4 103,15.1 102.9,14.6 L102.7,14 C102.5,14.1 102.2,14.2 101.9,14.2 C101.6,14.3 101.2,14.2 100.7,14.1 C100.2,13.9 99.8,13.6 99.5,13.3 C99.2,12.9 98.9,12.5 98.6,11.9 C98.3,11.3 98.1,10.7 97.9,10 C97.7,9.3 97.7,8.4 97.7,7.4 C97.7,6.5 97.8,5.8 98,5.1 C98.2,4.4 98.4,3.7 98.8,3.1 C99.2,2.5 99.6,2 100,1.7 C100.5,1.4 101,1.3 101.5,1.2 C102.1,1.2 102.6,1.3 103.1,1.6 C103.6,1.9 104,2.3 104.4,2.9 C104.8,3.5 105.1,4.2 105.3,5 C105.5,5.8 105.6,6.6 105.6,7.5 C105.6,8.4 105.5,9.2 105.4,10 C105.2,10.9 105,11.6 104.7,12.1 C104.4,12.6 104.1,13 103.8,13.3 L103.5,13.6 C103.6,13.9 103.8,14.3 103.9,14.5 Z M100,11.4 C100,11.1 100.2,10.8 100.4,10.6 C100.6,10.4 100.9,10.2 101.1,10.2 C101.3,10.2 101.5,10.2 101.7,10.3 C101.9,10.4 102,10.5 102.2,10.7 C102.3,10.9 102.5,11.1 102.6,11.3 C102.7,11.5 102.8,11.8 103,12.2 L103.2,12.8 C103.3,12.6 103.4,12.5 103.6,12.3 C103.7,12.1 103.9,11.8 104,11.3 C104.2,10.8 104.3,10.3 104.4,9.7 C104.5,9.1 104.5,8.3 104.5,7.4 C104.5,6.5 104.4,5.8 104.3,5.2 C104.2,4.6 104,4 103.8,3.5 C103.6,3 103.3,2.6 102.9,2.3 C102.5,2 102.1,1.8 101.7,1.8 C101.3,1.8 101,2 100.7,2.2 C100.4,2.5 100.1,2.8 99.9,3.3 C99.7,3.8 99.5,4.2 99.4,4.7 C99.3,5.2 99.2,5.7 99.2,6 C99.2,6.4 99.1,6.9 99.1,7.6 C99.1,8.3 99.1,8.9 99.2,9.5 C99.3,10.3 99.5,11.1 99.9,11.8 L100.1,12.2 C99.9,12 99.9,11.7 100,11.4 Z M102.6,13.3 C102.6,13.1 102.5,12.9 102.5,12.8 C102.5,12.7 102.4,12.4 102.3,12.1 C102.2,11.8 102.1,11.5 101.9,11.2 C101.7,10.9 101.5,10.8 101.2,10.8 C101,10.8 100.8,10.9 100.6,11.1 C100.4,11.3 100.4,11.6 100.4,12 C100.4,12.4 100.4,12.7 100.5,12.9 C100.6,13.1 100.8,13.2 101,13.4 C101.2,13.6 101.5,13.6 101.7,13.6 C102,13.6 102.2,13.6 102.4,13.5 C102.5,13.3 102.6,13.3 102.6,13.3 Z" id="Shape"></path>
            </g>
        </g>
    </g>
</svg>