<?xml version="1.0" encoding="UTF-8" standalone="no"?>
<svg width="173px" height="80px" viewBox="0 0 173 80" version="1.1" xmlns="http://www.w3.org/2000/svg" xmlns:xlink="http://www.w3.org/1999/xlink">
    <!-- Generator: Sketch 50 (54983) - http://www.bohemiancoding.com/sketch -->
    <title>S-Class-Headline&amp;Subheadline-D</title>
    <desc>Created with Sketch.</desc>
    <defs></defs>
    <g id="Page-1" stroke="none" stroke-width="1" fill="none" fill-rule="evenodd">
        <g id="S-Class-Headline&amp;Subheadline-D" fill="#FFFFFF">
            <g>
                <path d="M9.46080034,36.9132047 L9.46080034,29.3284266 L1.03080362,29.3284266 C0.79545915,29.3284266 0.656607996,29.1468778 0.614245992,28.7837749 C0.571883988,28.420672 0.710735141,28.2391233 1.03080362,28.2391233 L9.26311197,28.2391233 L9.92678005,27.2103369 C10.143297,26.8875788 10.2845015,26.7228401 10.350398,26.716116 C10.4162944,26.7093919 10.661049,26.9010267 11.0846691,27.2910261 L12.242558,28.360157 C12.4684887,28.5753291 12.6096933,28.7299817 12.666176,28.8241195 C12.7226586,28.9182573 12.753253,29.0157557 12.7579599,29.1166176 C12.7626667,29.2174795 12.6567633,29.3956662 12.4402464,29.6511831 L11.8330607,30.3773852 L11.8330607,35.0371824 L11.9177843,39.0514666 C11.8518879,39.2397421 11.7342174,39.444825 11.5647694,39.6667212 C11.3953213,39.8886174 11.002302,40.0029258 10.3856995,40.00965 C9.76909697,40.0163741 9.46080034,39.7911192 9.46080034,39.3338785 L9.46080034,38.0025079 L4.23617925,38.0025079 L3.23361683,45.6679751 L9.75733288,45.6679751 L10.2515538,44.9821175 C10.5339672,44.5921181 10.7151797,44.3937593 10.7951968,44.3870352 C10.8752139,44.3803111 11.0799605,44.5517738 11.4094428,44.9014284 L12.52497,46.1117653 C12.9297625,46.5555577 13.1392159,46.7976227 13.1533366,46.8379675 C13.1674573,46.8783122 13.1768709,46.9421905 13.1815778,47.0296042 C13.1862847,47.1170178 13.0380199,47.3288247 12.736779,47.665031 L12.0589903,48.4114055 C11.9177836,49.7427828 11.776579,50.9396595 11.6353724,52.0020717 C11.4941657,53.0644839 11.2941259,54.1638623 11.035247,55.3002398 C10.776368,56.4366174 10.453951,57.5225478 10.067986,58.5580634 C9.6820211,59.5935791 9.10778921,60.4139103 8.34527313,61.0190818 C7.58275705,61.6242533 6.96145698,61.9671787 6.48135426,62.0478682 C6.00125154,62.1285578 5.72354924,62.18235 5.64823901,62.2092465 C5.57292878,62.236143 5.52586059,62.242867 5.50703303,62.2294188 C5.39406769,62.2294188 5.30934495,62.1621785 5.25286228,62.0276959 C5.1963796,61.8932134 5.1446046,61.6679585 5.0975357,61.3519245 C5.05046681,61.0358905 4.91867588,60.5786567 4.70215897,59.9802093 C4.48564206,59.3817619 4.13733747,58.900994 3.65723476,58.5378911 L2.93708428,58.0134118 C2.82411894,57.9461705 2.75351666,57.8621202 2.72527532,57.7612583 C2.69703398,57.6603964 2.68056012,57.5561739 2.67585323,57.4485879 C2.67114634,57.3410019 2.73468839,57.2905717 2.8664813,57.2972958 C2.9982742,57.3040199 3.0735833,57.3073819 3.09241086,57.3073819 L4.47622941,57.8520335 C5.17284904,58.1344469 5.77532184,58.2554794 6.28366589,58.2151346 C6.79200995,58.1747899 7.17796909,57.952897 7.44155489,57.5494493 C7.7051407,57.1460016 7.98519641,56.5374772 8.28173044,55.7238578 C8.57826447,54.9102383 8.85361337,53.7268096 9.1077854,52.1735361 C9.36195742,50.6202626 9.52198926,49.4939881 9.58788571,48.7946788 C9.65378216,48.0953696 9.71026399,47.4162429 9.75733288,46.7572783 L2.97944608,46.7572783 L2.24517501,47.9877876 L2.08984843,48.2500272 C2.07102087,48.2634755 1.98629814,48.1760631 1.83567768,47.9877876 L0.268291353,46.1924544 C0.0894295566,45.9907306 0,45.8528881 0,45.7789227 C0,45.7049573 0.160031838,45.5200465 0.480100316,45.2241849 C0.800168793,44.9283233 1.02138928,44.343333 1.1437684,43.4691964 L1.83567768,38.5068149 L2.08984843,35.2590775 C2.11808977,35.0842502 2.14397727,34.9901138 2.16751172,34.9766656 C2.19104617,34.9632173 2.28753595,35.0304576 2.45698397,35.1783884 L4.32090284,36.9132047 L9.46080034,36.9132047 Z M21.858685,28.7232581 L21.858685,57.2670374 L21.9998909,61.7251117 C21.9810634,61.8595943 21.9457622,62.0041608 21.8939864,62.1588158 C21.8422107,62.3134707 21.6539379,62.4681233 21.3291625,62.6227783 C21.0043872,62.7774332 20.6490224,62.8547595 20.2630574,62.8547595 C19.9335752,62.8682078 19.7123547,62.8211396 19.5993894,62.7135535 C19.486424,62.6059675 19.3922876,62.3975227 19.3169774,62.0882128 L19.4440628,57.3477265 L19.4440628,30.2966961 L19.331098,26.2218951 C19.3687531,26.1277573 19.4064077,26.0672411 19.4440628,26.0403446 L19.8676807,26.1815505 L22.2116999,26.927925 C22.418803,26.9951663 22.5647144,27.0691306 22.6494384,27.1498201 C22.7341624,27.2305096 22.7741704,27.324646 22.7694635,27.432232 C22.7647566,27.5398181 22.7106282,27.6541265 22.6070766,27.7751608 L21.858685,28.7232581 Z M37.0738305,45.6881474 L29.900567,45.6881474 C29.6746363,45.6881474 29.552259,45.5301328 29.5334315,45.2140988 C29.5146039,44.8980648 29.6511017,44.6929819 29.9429288,44.5988442 L30.0841348,44.5786719 L37.1020717,44.5786719 L37.6810162,43.4490241 C37.7657402,43.2741968 37.8434027,43.1834224 37.9140061,43.1766983 C37.9846094,43.1699741 38.1469947,43.2943686 38.4011667,43.5498855 L40.2792062,45.5671137 C40.5051369,45.8226306 40.6298676,45.9840072 40.653402,46.0512485 C40.6769365,46.1184897 40.6887035,46.179006 40.6887035,46.232799 C40.6792897,46.3941781 40.6439886,46.5051245 40.582799,46.5656417 C40.5216095,46.6261588 40.4510072,46.673227 40.3709901,46.7068476 C40.2909729,46.7404683 40.159182,46.7875365 39.9756133,46.8480536 C39.7920446,46.9085708 39.6108321,46.9858971 39.4319703,47.0800349 C39.2531085,47.1741727 39.0295346,47.3826175 38.7612419,47.7053756 C38.4929492,48.0281337 38.0952231,48.6064 37.5680515,49.4401919 C37.0408798,50.2739837 36.2124797,51.5112046 35.0828263,53.1518918 C36.0995144,54.0932697 36.7796497,54.8631707 37.1232526,55.4616181 C37.4668556,56.0600655 37.6786624,56.5946256 37.7586795,57.0653145 C37.8386966,57.5360035 37.881058,57.9730652 37.8857649,58.3765129 C37.8904718,58.7799605 37.793982,59.1766781 37.5962926,59.5666775 C37.3421206,60.0508147 36.9891092,60.2928797 36.5372478,60.2928797 C36.2924896,60.3063279 36.0618555,60.2088295 35.8453386,60.0003816 C35.6288216,59.7919336 35.4028943,59.3649579 35.1675499,58.7194417 L34.3061934,56.1979064 C33.6660565,54.5841158 32.7293995,53.1048299 31.4961945,51.7600043 L30.6913205,50.8925962 C30.6065965,50.8119067 30.5618817,50.7480284 30.5571748,50.7009595 C30.5524679,50.6538906 30.5548213,50.6101844 30.5642351,50.5698397 C30.5736489,50.3681158 30.6866125,50.3210477 30.9031294,50.4286337 L31.7644859,50.8925962 C32.8282429,51.4708712 33.7507793,52.0760336 34.532123,52.7081016 C35.4640871,50.3815534 36.3113145,48.0415921 37.0738305,45.6881474 Z M50.4742776,37.437684 L43.6963908,37.437684 L43.6963908,53.9386108 C43.6963908,54.0999899 43.5928408,54.3319688 43.3857376,54.6345545 C43.1786345,54.9371403 42.8115026,55.0884309 42.284331,55.0884309 C42.0395728,55.1018791 41.8560068,55.054811 41.7336277,54.9472249 C41.6112486,54.8396389 41.5124054,54.6782622 41.4370952,54.4630901 L41.55006,50.8119071 L41.55006,38.869916 L41.4653364,35.0371824 C41.5124053,34.9968376 41.5641803,34.9699415 41.6206629,34.9564933 C41.6771456,34.943045 41.8936593,35.0640775 42.2702104,35.3195944 L43.7387526,36.3483808 L45.1084505,36.3483808 C45.1272781,36.1466569 45.1719929,35.6322689 45.2425962,34.8052012 C45.3131995,33.9781335 45.3626211,33.4637454 45.3908625,33.2620216 L45.6732744,30.5387635 L45.7156362,30.1151456 L39.9544324,30.1151456 L39.6861411,29.8730782 L39.6720205,29.8529059 L39.6578999,29.8125613 C39.610831,29.2880794 39.7096742,29.0258423 39.9544324,29.0258423 L50.6154836,29.0258423 L51.6321666,27.2506815 C51.7922008,26.9682681 51.8957508,26.8304256 51.9428197,26.8371497 C51.9898886,26.8438738 52.1452136,26.9817164 52.4087994,27.2506815 L54.2303565,29.2275651 C54.3527356,29.3620477 54.4256913,29.4662701 54.4492258,29.5402355 C54.4727602,29.6142009 54.4868807,29.6747172 54.4915876,29.7217861 C54.4962945,29.768855 54.470407,29.8260092 54.4139243,29.8932505 C54.3292003,30.0008365 54.2021162,30.0680768 54.0326682,30.0949733 L52.0416639,30.0949733 L52.0416639,30.1151456 L48.7656853,30.1151456 C48.8598231,30.2899729 48.9115981,30.4244534 48.9210119,30.5185912 L48.9210119,30.5992803 C48.9210119,30.6396251 48.9186584,30.6833313 48.9139516,30.7304002 C48.9092447,30.7774691 48.8033412,30.8480713 48.5962381,30.9422091 L47.93257,31.2851379 L46.3510631,36.3483808 L50.2059862,36.3483808 L50.9120161,35.1582161 C51.0720503,34.889251 51.185014,34.7581325 51.2509104,34.7648566 C51.3168069,34.7715807 51.443891,34.8623551 51.6321666,35.0371824 L53.2842765,36.650965 C53.3972418,36.7719993 53.4725509,36.8694977 53.510206,36.9434631 C53.5478612,37.0174285 53.564335,37.0913928 53.5596281,37.1653582 C53.5549212,37.2393236 53.4631383,37.3838902 53.2842765,37.5990622 L52.7900556,38.1840584 L52.7900556,49.9646712 L52.8747792,53.3737869 C52.7900551,53.8175793 52.5782483,54.1369706 52.2393523,54.3319703 C51.9004562,54.52697 51.5662721,54.6244684 51.2367898,54.6244684 C50.8602387,54.6379166 50.6390182,54.5236082 50.5731218,54.2815396 C50.5072253,54.039471 50.4742776,53.6763736 50.4742776,53.1922364 L50.4742776,37.437684 Z M35.6617708,30.216007 C37.5068714,31.3860052 38.6671022,32.2937488 39.1424981,32.9392651 C39.6178939,33.5847813 39.9591383,34.1630476 40.1662414,34.6740813 C40.3733445,35.185115 40.4721877,35.6961411 40.4627739,36.2071748 C40.4439464,36.6509672 40.3662839,37.0207887 40.2297841,37.3166503 C40.0932843,37.6125119 39.9238388,37.8579389 39.7214426,38.0529386 C39.5190463,38.2479383 39.3142997,38.3387127 39.1071966,38.3252644 C38.8812659,38.3252644 38.669459,38.214318 38.4717697,37.9924217 C38.2740803,37.7705255 38.099928,37.37717 37.9493076,36.8123432 L37.4833279,34.9161487 C37.2950523,34.2571842 37.0620648,33.6452978 36.7843583,33.080471 C36.5066518,32.5156443 36.0383233,31.7760014 35.3793588,30.86152 C34.0990849,33.6318606 32.967095,35.8810476 31.9833551,37.6091484 C30.9996153,39.3372492 30.2347572,40.5845562 29.688758,41.3511067 L28.8697634,42.5009268 C28.7850394,42.6219611 28.7097303,42.6757533 28.6438338,42.6623051 C28.6061787,42.6623051 28.573231,42.648857 28.5449896,42.6219605 C28.5167483,42.595064 28.5026278,42.5311857 28.5026278,42.4303238 C28.5026278,42.3294619 28.5308688,42.2050674 28.5873514,42.0571366 L29.2227783,40.6450769 C29.6652259,39.649906 30.3077067,38.0495876 31.1502399,35.8440737 C31.9927731,33.6385598 32.7152698,31.1977381 33.3177516,28.5215353 L33.586043,27.3313706 L33.7554901,26.3429288 C33.8213866,26.302584 33.9955389,26.3563762 34.2779522,26.5043071 L36.7914186,27.9365391 C36.9326253,28.0306769 37.0385287,28.1348993 37.109132,28.2492095 C37.1797354,28.3635196 37.2173899,28.46438 37.2220968,28.5517937 C37.2268037,28.6392074 37.0926594,28.7636018 36.8196598,28.9249809 L36.0430269,29.3889434 L35.6617708,30.216007 Z M33.8402137,37.6797514 L33.4730782,36.9333769 C33.4071817,36.8123426 33.374234,36.7182063 33.374234,36.650965 L33.374234,36.5702759 C33.3648202,36.5299311 33.3648202,36.503035 33.374234,36.4895867 C33.3836478,36.4223454 33.4401296,36.3820013 33.5436812,36.368553 C33.6943016,36.368553 34.047313,36.5501018 34.602726,36.9132047 C35.1581389,37.2763075 35.6617685,37.7637995 36.1136299,38.3756951 C36.5654913,38.9875907 36.793772,39.569219 36.7984789,40.1205975 C36.8031858,40.671976 36.7631778,41.0821416 36.6784538,41.3511067 C36.5654885,41.7142096 36.3889828,42.0302389 36.1489314,42.299204 C35.90888,42.5681691 35.6523584,42.6959256 35.3793588,42.6824774 C35.0687041,42.6824774 34.8121825,42.5278247 34.6097863,42.2185149 C34.40739,41.909205 34.2873661,41.5998998 34.249711,41.2905899 C34.2120559,40.98128 34.1885218,40.5341322 34.179108,39.9491331 C34.1696943,39.364134 34.1343931,38.8900901 34.0732036,38.5269872 C34.012014,38.1638843 33.9343515,37.8814752 33.8402137,37.6797514 Z M47.5089521,53.8982662 C48.8645362,54.5437825 50.0412409,55.1354969 51.0391015,55.6734271 C52.036962,56.2113573 52.8983099,56.897208 53.6231708,57.7309998 C54.3480318,58.5647917 54.70575,59.4725353 54.6963362,60.4542579 C54.6869225,61.0459812 54.5433645,61.5536452 54.265658,61.9772652 C53.9879515,62.4008853 53.6231731,62.572348 53.1713117,62.4916584 C53.030105,62.4782102 52.8677198,62.3739878 52.6841511,62.1789881 C52.5005824,61.9839884 52.2346471,61.4897724 51.8863373,60.6963253 C51.5380275,59.9028783 51.1967832,59.2170275 50.862594,58.6387525 C50.5284049,58.0604776 50.0718434,57.421695 49.4928961,56.7223857 C48.9139487,56.0230765 48.5209293,55.5994628 48.3138262,55.451532 L47.3112637,54.6849852 C47.1135744,55.2094672 46.8193982,55.8919559 46.4287264,56.7324719 C46.0380546,57.5729878 45.1272851,58.5244376 43.6963908,59.5868498 C42.2654964,60.649262 40.7216598,61.4426971 39.0648348,61.9671791 L38.0622724,62.2899356 C37.949307,62.3302804 37.8551706,62.3336424 37.7798604,62.3000218 C37.7045502,62.2664011 37.6598354,62.229419 37.6457147,62.1890742 C37.6315941,62.1487294 37.6268873,62.1117473 37.6315941,62.0781267 C37.636301,62.044506 37.6527749,61.9907138 37.6810162,61.9167484 C37.7092576,61.842783 37.7563258,61.7856288 37.8222222,61.745284 L38.8953876,61.2611492 C39.3095939,61.0863219 40.3050861,60.4408153 41.881894,59.3246101 C43.4587019,58.2084049 44.4683146,56.8635996 44.9107622,55.2901537 C45.3532098,53.7167078 45.6238518,52.2744041 45.7226965,50.9631992 C45.8215412,49.6519943 45.8850832,48.5257198 45.9133246,47.5843419 C45.9415659,46.642964 45.953333,45.8965971 45.9486261,45.3452186 C45.9439192,44.7938401 45.9415658,44.2021258 45.9415658,43.5700578 L45.9133246,41.4721404 L45.8568422,40.0197361 C45.8944973,39.9659431 45.927445,39.935685 45.9556864,39.9289608 C45.9839277,39.9222367 46.0968914,39.9457708 46.2945807,39.9995638 L48.6527205,40.6854214 C48.7562721,40.7257662 48.8315812,40.7795584 48.8786501,40.8467997 C48.925719,40.914041 48.9468996,40.9880052 48.9421928,41.0686948 C48.9374859,41.1493843 48.8362893,41.310761 48.6385999,41.5528295 L48.2573438,42.016792 C48.24793,43.3078246 48.2361629,44.3130666 48.2220423,45.0325482 C48.2079216,45.7520299 48.1726205,46.6530495 48.1161378,47.735634 C48.0596551,48.8182186 47.9984665,49.7831164 47.93257,50.6303565 C47.8666736,51.4775966 47.7913645,52.1567233 47.7066405,52.667757 L47.5089521,53.8982662 Z M77.6072075,29.1065315 L78.8921818,26.927925 C79.0051472,26.7262011 79.1063438,26.6219787 79.1957747,26.6152546 C79.2852056,26.6085305 79.4617113,26.739649 79.7252971,27.0086141 L81.6033366,29.0460146 C81.8763361,29.3553245 82.0128339,29.6041135 82.0128339,29.792389 C81.9940063,30.0882507 81.8292677,30.2361793 81.518613,30.2361793 L72.6226365,30.2361793 C72.4155334,30.5454891 72.1848993,30.8211742 71.9307273,31.0632428 C71.9118997,32.3273788 71.8977793,33.4435673 71.8883655,34.4118417 C71.8789517,35.380116 71.8554176,36.4963045 71.8177625,37.7604405 L71.7330389,40.3424926 L71.7189183,40.7862828 L79.4993675,40.7862828 L80.8267037,38.5471595 C81.0149793,38.2244014 81.151477,38.0596627 81.236201,38.0529386 C81.320925,38.0462145 81.4433023,38.1302648 81.6033366,38.3050921 L83.6649438,40.7862828 C83.8061505,40.9745584 83.9073471,41.135935 83.9685366,41.2704176 C84.0297262,41.4049002 84.0603205,41.4855885 84.0603205,41.512485 C84.041493,41.7411053 83.8249793,41.8554138 83.410773,41.8554138 L72.6932395,41.8554138 C72.8344462,42.5681713 73.0886144,43.7280659 73.4557518,45.3351325 C73.8228892,46.942199 74.7595461,48.9829411 76.2657507,51.4574201 C77.7719553,53.9318991 79.1887078,55.6532499 80.5160506,56.6215243 C81.8433934,57.5897987 82.8082912,58.161341 83.410773,58.3361683 L84.1874059,58.5782357 C84.2909575,58.6185805 84.3450859,58.7396129 84.3497928,58.9413368 C84.3544997,59.1430606 84.2674235,59.2708171 84.0885617,59.3246101 L83.410773,59.526333 C83.1848424,59.5935742 82.8977264,59.7549509 82.5494166,60.0104677 C82.2011068,60.2659846 81.8998704,60.5349457 81.6456984,60.817359 C81.3915263,61.0997724 81.1867797,61.4090776 81.0314524,61.745284 C80.876125,62.0814904 80.760808,62.242867 80.6854977,62.2294188 C80.6101875,62.2294188 80.4125011,62.1218343 80.0924326,61.9066623 C79.7723642,61.6914902 79.02398,60.9148651 77.8472576,59.5767637 C76.6705353,58.2386623 75.6326817,56.4971393 74.7336659,54.3521426 C73.83465,52.2071459 73.1992295,49.9277008 72.8273852,47.5137389 C72.4555409,45.0997771 72.2319671,43.2136876 72.1566568,41.8554138 L71.6765565,41.8554138 C71.6483152,42.0571376 71.6341947,42.2050662 71.6341947,42.299204 L71.5071093,44.0945371 C71.2341098,47.7659108 70.6363438,50.5328478 69.7137935,52.3954312 C68.7912431,54.2580146 67.6239521,55.9827275 66.2118853,57.5696216 C64.7998185,59.1565157 62.9217978,60.5954575 60.5777669,61.88649 L59.518722,62.4714862 C59.4057567,62.5387274 59.2904396,62.5689856 59.1727674,62.5622614 C59.0550952,62.5555373 58.9891997,62.5252792 58.975079,62.4714862 C58.9609584,62.4176931 58.9491913,62.3403668 58.9397776,62.2395049 C58.9303638,62.138643 59.0150865,62.0209725 59.1939483,61.88649 L60.3518373,60.9787373 C61.7544903,59.8759803 63.2277246,58.3092821 64.7715843,56.2785955 C66.315444,54.247909 67.3015226,52.1264785 67.7298495,49.9142405 C68.1581764,47.7020025 68.4288185,45.9840137 68.5417839,44.7602224 C68.6547492,43.5364312 68.7347651,42.5681713 68.781834,41.8554138 L58.4596772,41.8554138 C58.2337465,41.8554138 58.1160761,41.6772271 58.1066623,41.3208483 C58.0972485,40.9644695 58.214919,40.7862828 58.4596772,40.7862828 L68.781834,40.7862828 C68.7912478,40.5980073 68.8053683,40.3324082 68.8241958,39.9894777 C68.8430234,39.6465472 68.8665575,38.6144091 68.8947988,36.8930324 C68.9230401,35.1716557 68.9371606,34.250464 68.9371606,34.1294297 L68.8947988,30.2361793 L60.1965107,30.2361793 C59.8387871,30.2361793 59.6811087,30.0479065 59.7234707,29.6713554 C59.7658327,29.2948042 59.9235111,29.1065315 60.1965107,29.1065315 L77.6072075,29.1065315 Z M88.3461236,30.5992803 C88.1672618,30.5858321 88.0448846,30.5354019 87.9789881,30.4479882 C87.9130917,30.3605746 87.8872041,30.1790258 87.9013248,29.9033366 C87.9154455,29.6276474 88.0307625,29.4898048 88.2472795,29.4898048 L108.905714,29.4898048 L110.134206,27.2708538 C110.510757,26.5849928 110.724917,26.2454294 110.776693,26.2521535 C110.828469,26.2588777 111.056749,26.4975806 111.461542,26.9682695 L113.904405,29.8932505 C114.045612,30.081526 114.116214,30.2294546 114.116214,30.3370407 C114.097387,30.511868 113.998543,30.5992803 113.819682,30.5992803 L102.325515,30.5992803 C102.13724,30.9892797 102.036043,31.1943626 102.021922,31.2145349 C102.007802,31.2347073 101.812469,31.4196181 101.435918,31.7692727 L101.435918,56.742558 L101.605365,61.2611492 C101.539468,61.4763213 101.461806,61.654508 101.372375,61.7957147 C101.282944,61.9369214 101.064077,62.1050221 100.715767,62.3000218 C100.367457,62.4950215 99.9250163,62.5857958 99.3884309,62.5723476 C99.0495349,62.5723476 98.8424348,62.5118313 98.7671246,62.390797 C98.6918144,62.2697627 98.6400394,62.1151101 98.611798,61.9268345 L98.753004,57.2266928 L98.753004,30.5992803 L88.3461236,30.5992803 Z M103.017424,38.9909497 C102.998597,38.7892259 103.09744,38.6816415 103.313957,38.6681932 C103.389267,38.6681932 104.092937,38.88 105.424986,39.3036201 C106.757036,39.7272401 107.969042,40.708948 109.06104,42.2487733 C110.153039,43.7885985 110.633134,45.2678844 110.501341,46.6866754 C110.369548,48.1054663 109.865919,48.781231 108.990437,48.7139897 C108.745679,48.7005415 108.482097,48.5458888 108.199684,48.2500272 C107.91727,47.9541656 107.625448,47.3758993 107.324207,46.515211 L106.364006,43.8322974 C105.978041,42.8909196 105.570901,42.0974844 105.142574,41.4519681 C104.714247,40.8064519 104.255333,40.2887018 103.765816,39.8987024 C103.2763,39.508703 103.026838,39.2061218 103.017424,38.9909497 Z M135.036081,36.650965 L118.656188,36.650965 C118.420843,36.650965 118.303173,36.4694163 118.303173,36.1063134 C118.303173,35.7432105 118.420843,35.5616617 118.656188,35.5616617 L135.516181,35.5616617 L136.829397,33.7663286 C137.027086,33.4973635 137.14711,33.352797 137.189472,33.3326246 C137.231834,33.3124522 137.333031,33.3763304 137.493065,33.5242612 L140.260702,36.2878639 C140.392495,36.4223465 140.458391,36.550103 140.458391,36.6711373 C140.448977,36.8594128 140.35484,36.9938934 140.175979,37.0745829 L138.778039,37.7200959 C132.969738,44.5518097 128.813617,49.1375959 126.309552,51.4775924 L124.092618,53.5755097 C125.805926,55.2296451 126.85084,56.197905 127.227391,56.4803184 C127.603942,56.7627317 128.246423,57.0081587 129.154852,57.2166067 C130.063282,57.4250546 131.298822,57.5091049 132.861509,57.4687602 C137.916708,57.3880706 141.239722,57.0653174 142.830651,56.5004906 L143.903816,56.1172173 C143.941471,56.103769 143.98854,56.1205791 144.045022,56.167648 C144.101505,56.2147169 144.132099,56.2987672 144.136806,56.4198015 C144.141513,56.5408358 144.101505,56.6282482 144.016781,56.6820412 L143.240148,57.3477265 C142.505873,57.9797945 142.021071,58.6992654 141.785727,59.5061607 L141.446832,60.6559808 L141.39035,61.0392541 C141.333867,61.1737367 141.19737,61.2409769 140.980853,61.2409769 L139.73824,61.2409769 C139.634688,61.2409769 138.512112,61.261149 136.370478,61.3014938 C134.228843,61.3418386 132.452019,61.3014944 131.039952,61.1804601 C129.627885,61.0594258 128.519429,60.7534826 127.714551,60.2626213 C126.909673,59.7717599 126.349562,59.3145261 126.0342,58.8909061 C125.718839,58.467286 125.23639,57.717557 124.586839,56.6416966 C123.937288,55.5658362 123.311281,55.027914 122.708799,55.027914 C122.369903,55.0413623 122.000418,55.222911 121.600333,55.5725657 C121.200247,55.9222203 120.783693,56.5374687 120.35066,57.4183295 C119.917626,58.2991902 119.639924,58.9077146 119.517544,59.243921 L119.235132,60.03064 L119.037444,60.4340857 L118.910359,60.1920183 L117.441817,56.7627303 C117.413575,56.7089373 117.387688,56.6652311 117.364153,56.6316105 C117.340619,56.5979898 117.328852,56.5542837 117.328852,56.5004906 C117.328852,56.4466976 117.385334,56.3660093 117.498299,56.2584232 L118.190208,55.6734271 C118.303174,55.5792893 118.594996,55.3641204 119.065685,55.027914 L120.816639,53.7772325 C121.626224,53.2661988 122.398143,53.057754 123.132417,53.1518918 C127.067377,48.0818995 129.783211,44.4710971 131.280002,42.3193763 C132.776793,40.1676554 134.028807,38.2782039 135.036081,36.650965 Z M126.394275,26.4236179 C126.441344,26.3698249 126.495473,26.3395668 126.556662,26.3328427 C126.617852,26.3261185 126.937916,26.3967208 127.516863,26.5446516 C128.09581,26.6925824 128.705343,26.9245614 129.34548,27.2405954 C129.985617,27.5566294 130.599857,28.0878275 131.188218,28.8342056 C131.776579,29.5805838 132.058989,30.4210872 132.035454,31.3557409 C132.01192,32.2903947 131.830707,33.0367616 131.491811,33.5948642 C131.152915,34.1529668 130.715181,34.4185659 130.178596,34.3916694 C129.585527,34.3782211 129.183094,34.1327941 128.971284,33.6553811 C128.759474,33.177968 128.630037,32.677028 128.582968,32.1525461 L128.441762,30.5589358 C128.33821,29.7923852 128.156998,29.1636887 127.898119,28.6728274 C127.63924,28.1819661 127.32859,27.7751624 126.96616,27.4524043 C126.603729,27.1296462 126.403689,26.9312874 126.366034,26.857322 C126.328379,26.7833566 126.311905,26.7093923 126.316612,26.6354269 C126.321319,26.5614615 126.347207,26.4908592 126.394275,26.4236179 Z M164.117653,34.4925308 C163.919964,36.0659767 163.764639,37.1283729 163.651674,37.6797514 L163.383382,38.9707774 C164.560105,39.6566385 165.360264,40.305507 165.783884,40.9174027 C166.207504,41.5292983 166.409897,42.218511 166.39107,42.9850616 C166.381656,43.3347162 166.296933,43.7112617 166.136899,44.1147094 C165.976865,44.518157 165.708576,44.7198778 165.332025,44.7198778 C164.983715,44.7333261 164.698952,44.6089316 164.477729,44.3466906 C164.256505,44.0844497 163.816417,43.4624772 163.157453,42.4807545 L162.409061,41.3511067 C161.910131,42.2117951 161.382967,42.9548 160.827554,43.5801439 C160.272141,44.2054878 159.561412,44.8947005 158.695344,45.6478028 L160.96876,46.3134881 C161.222932,46.3941777 161.361783,46.468142 161.385318,46.5353832 C161.408852,46.6026245 161.422973,46.6866749 161.42768,46.7875368 C161.432386,46.8883987 161.335897,47.0329653 161.138207,47.2212408 L160.615745,47.7457202 C160.549849,48.2298574 160.512194,48.5055425 160.50278,48.5727837 L160.290972,49.7427761 L166.334587,49.7427761 L167.012376,48.5324392 C167.134755,48.3038188 167.233598,48.1861484 167.308908,48.1794242 C167.384219,48.1727001 167.53013,48.2634745 167.746647,48.4517501 L169.652928,50.2269109 C169.756479,50.3344969 169.836495,50.4387193 169.892978,50.5395813 C169.94946,50.6404432 169.975348,50.7244935 169.970641,50.7917348 C169.965934,50.8589761 169.878858,50.9732845 169.70941,51.1346636 L169.102224,51.7196598 C168.989259,52.7148307 168.80334,54.2075646 168.544461,56.1979064 C168.285582,58.1882482 167.810193,59.6809821 167.11828,60.676153 C166.426368,61.6713239 165.710931,62.3000204 164.97195,62.5622614 C164.232968,62.8245024 163.646969,62.969069 163.213935,62.9959655 C163.044487,63.0094137 162.940937,62.9892417 162.903282,62.9354486 C162.865627,62.8816556 162.837386,62.8312254 162.818558,62.7841565 C162.799731,62.7370876 162.77855,62.585797 162.755016,62.3302802 C162.731481,62.0747633 162.651465,61.741924 162.514966,61.3317522 C162.378466,60.9215804 162.216081,60.5887411 162.027805,60.3332242 C161.839529,60.0777074 161.608895,59.8289184 161.335896,59.5868498 L160.700469,59.0421982 C160.531021,58.9077156 160.451005,58.7732351 160.460419,58.6387525 C160.460419,58.5446148 160.50278,58.4672884 160.587504,58.4067713 C160.672228,58.3462542 160.766364,58.3227201 160.869916,58.3361683 L161.844237,58.5782357 C162.663236,58.7934078 163.289243,58.8942682 163.722277,58.8808199 C164.27769,58.8808199 164.715424,58.6219449 165.035492,58.1041871 C165.355561,57.5864292 165.616789,56.8165282 165.819185,55.7944608 C166.021582,54.7723934 166.169846,53.8949079 166.263984,53.1619779 C166.358122,52.429048 166.442845,51.6591469 166.518155,50.8522516 L160.121524,50.8522516 C160.065042,51.1212167 160.027387,51.3229375 160.00856,51.4574201 L159.867354,52.2643114 C159.556699,53.8915503 159.060129,55.2699758 158.377631,56.3996292 C157.695132,57.5292827 156.751414,58.5614208 155.546451,59.4960745 C154.341487,60.4307283 153.235385,61.0358907 152.22811,61.3115799 C151.220836,61.5872692 150.303006,61.8058 149.474594,61.9671791 L148.542634,62.1487296 C148.401428,62.1756262 148.297878,62.1588161 148.231981,62.0982989 C148.166085,62.0377818 148.130784,61.9470074 148.126077,61.8259731 C148.12137,61.7049388 148.213153,61.6040784 148.401428,61.5233889 L149.474594,61.099771 C152.712934,59.8221867 154.762753,58.2554885 155.624114,56.3996292 C156.485475,54.54377 156.982044,53.3267211 157.113837,52.7484462 C157.24563,52.1701712 157.377421,51.5381127 157.509214,50.8522516 L149.079217,50.8522516 C148.872114,50.8522516 148.747383,50.684151 148.705021,50.3479446 C148.662659,50.0117382 148.810924,49.8100174 149.14982,49.7427761 L157.66454,49.7427761 C157.777506,48.6400192 157.843401,47.9474444 157.862229,47.665031 L157.961073,46.1521099 C157.25504,46.5824541 156.831426,46.831243 156.690219,46.8984843 L155.786501,47.3826191 C155.48526,47.5439982 155.325228,47.5675323 155.306401,47.4532221 C155.287573,47.3389119 155.282866,47.2279655 155.29228,47.1203794 C155.301694,47.0127934 155.372296,46.905209 155.504089,46.7976229 L156.167757,46.232799 C157.231514,45.3317659 158.090508,44.4206603 158.744766,43.4994548 C159.399024,42.5782493 160.093279,41.3376663 160.827554,39.7776687 C160.469831,39.3338763 160.025036,38.9506068 159.493158,38.6278486 C158.961279,38.3050905 158.690637,38.1168178 158.681223,38.0630247 C158.67181,38.0092317 158.67181,37.9487155 158.681223,37.8814742 L158.681223,37.8209573 C158.690637,37.6730265 158.784774,37.5990622 158.963635,37.5990622 C159.359014,37.6125105 160.121519,37.7940592 161.251172,38.1437139 C161.439448,36.9871639 161.557118,36.1769187 161.604187,35.7129539 C161.651256,35.2489891 161.688911,34.9161497 161.717152,34.7144259 L157.819867,35.0573547 C157.518626,35.0842512 157.34212,34.9195125 157.290345,34.5631338 C157.238569,34.206755 157.39154,34.0083962 157.749264,33.9680515 L161.773634,33.6049504 C161.76422,33.4166748 161.761867,33.2788323 161.766574,33.1914186 C161.771281,33.1040049 161.785401,32.7409075 161.808936,32.1021154 C161.83247,31.4633232 161.844237,30.6127338 161.844237,29.5503217 L161.844237,27.9163668 L161.773634,26.8472359 C161.801876,26.7665463 161.844237,26.7060301 161.90072,26.6656853 L162.296096,26.7665467 L164.837804,27.3717152 C164.979011,27.41206 165.080207,27.4557661 165.141397,27.502835 C165.202586,27.5499039 165.252008,27.6238682 165.289663,27.7247301 C165.327318,27.825592 165.209648,28.0239508 164.936648,28.3198124 L164.484789,28.8241195 C164.428306,30.168945 164.390652,30.9892763 164.371824,31.2851379 L164.230618,33.3427107 L166.263984,33.2015047 L167.012376,33.1409879 L167.746647,31.7692727 L167.972577,31.4666885 C168.085542,31.3187577 168.269108,31.3591018 168.52328,31.5877222 L170.062425,33.080471 C170.250701,33.2821949 170.375431,33.4334855 170.436621,33.5343474 C170.49781,33.6352093 170.526051,33.7125356 170.521344,33.7663286 C170.516638,33.8201217 170.410734,33.9747743 170.203631,34.2302911 L169.46936,35.1380438 C169.375222,35.9314909 169.31168,36.5736354 169.278732,37.0644968 C169.245784,37.5553581 169.234017,38.1638825 169.24343,38.8900883 C169.24343,40.8804301 169.386988,42.1613572 169.674109,42.7329081 C169.961229,43.3044589 170.229517,43.7045385 170.478983,43.9331588 C170.728448,44.1617792 170.952022,44.2559156 171.149711,44.2155708 C171.206194,44.2155708 171.316804,44.0911763 171.481545,43.8423836 C171.646286,43.5935909 171.85574,43.0859268 172.109912,42.3193763 L172.830062,40.1205975 C172.877131,39.9592185 172.943026,39.8818921 173.02775,39.8886163 C173.112474,39.8953404 173.176017,39.9424086 173.218379,40.0298222 C173.260741,40.1172359 173.279568,40.1878382 173.274861,40.2416312 C173.270154,40.2954242 173.267801,40.3492164 173.267801,40.4030095 L172.886544,42.9648893 C172.820648,43.3548887 172.790054,43.7919504 172.794761,44.2760876 C172.799467,44.7602248 172.848889,45.1771145 172.943027,45.5267691 L173.296042,46.5555555 C173.39018,46.8783137 173.437248,47.1876189 173.437248,47.4834805 C173.427834,48.2903758 173.074823,48.7207135 172.378203,48.7745066 C171.879273,48.8148513 171.253266,48.5996825 170.500164,48.1289935 C169.747061,47.6583046 169.092813,47.0363321 168.5374,46.2630574 C167.981988,45.4897828 167.588968,44.558505 167.358331,43.4691964 C167.127693,42.3798877 167.017083,40.9207739 167.026497,39.0918111 C167.026497,38.1773298 167.03591,37.4074287 167.054738,36.7820848 C167.073565,36.1567409 167.115927,35.3061516 167.181823,34.2302911 L164.117653,34.4925308 Z M152.92002,32.8787482 L148.076655,32.8787482 C147.850724,32.8787482 147.71658,32.6938375 147.674218,32.3240105 C147.631856,31.9541834 147.766,31.7692727 148.076655,31.7692727 L152.92002,31.7692727 L152.92002,29.2275651 L152.849417,26.141206 C152.905899,26.0739647 152.962381,26.0268965 153.018864,26 L153.541326,26.1815505 L155.701777,26.8875804 C155.871225,26.9548217 155.979482,27.0119759 156.026551,27.0590448 C156.07362,27.1061137 156.104214,27.1498199 156.118335,27.1901646 C156.132456,27.2305094 156.141869,27.2809396 156.146576,27.3414568 C156.151283,27.4019739 156.078327,27.5196444 155.927707,27.6944717 L155.235798,28.4811907 L155.235798,31.7692727 L156.676099,31.7692727 L157.65042,30.1151456 C157.791626,29.873077 157.885763,29.7554065 157.932832,29.7621306 C157.979901,29.7688548 158.097571,29.8865252 158.285847,30.1151456 L159.712027,31.9508232 C159.91913,32.2332366 160.017973,32.4484055 160.00856,32.5963363 C159.999146,32.6635775 159.973258,32.7274558 159.930896,32.7879729 C159.888534,32.8484901 159.839113,32.8787482 159.78263,32.8787482 L155.235798,32.8787482 L155.235798,36.9333769 L158.215244,35.9449351 C158.290554,35.9314869 158.375277,35.9314869 158.469414,35.9449351 C158.554138,35.9718316 158.598853,36.065968 158.60356,36.2273471 C158.608267,36.3887261 158.502364,36.5299307 158.285847,36.650965 L155.235798,38.4866427 L155.235798,45.6074583 C155.235798,45.8495269 155.153428,46.1117639 154.988687,46.3941773 C154.823946,46.6765906 154.600372,46.9253796 154.317959,47.1405517 L152.792934,47.9676153 C152.538762,48.1155461 152.345783,48.1760623 152.21399,48.1491658 C152.129266,48.1491658 152.079844,48.1323558 152.065723,48.0987351 C152.051603,48.0651145 152.042189,48.0382184 152.037482,48.018046 C152.032775,47.9978736 152.011595,47.8802031 151.97394,47.665031 L151.832734,46.9791735 C151.635044,46.2126229 151.28674,45.6881488 150.787809,45.4057354 L150.011177,44.9821175 C149.841728,44.901428 149.761713,44.7803955 149.771126,44.6190164 C149.771126,44.4172926 149.888797,44.3231562 150.124141,44.3366045 L151.197307,44.4172936 C152.129271,44.4979831 152.649374,44.457639 152.757633,44.2962599 C152.865891,44.1348809 152.92002,43.9398841 152.92002,43.7112637 L152.92002,39.8381856 L149.573438,41.8554138 C149.196887,42.0840341 148.930952,42.2588588 148.775624,42.3798931 C148.620297,42.5009274 148.472032,42.2992066 148.330825,41.7747247 L147.638916,39.4145676 L147.441228,38.7690546 C147.460055,38.7018133 147.507124,38.6345731 147.582434,38.5673318 L148.076655,38.4866427 L148.90977,38.3050921 L150.914895,37.9016465 L152.92002,37.437684 L152.92002,32.8787482 Z" id="引领天下之势" fill-rule="nonzero"></path>
                <path d="M67.0704323,1.62109375 L67.8614479,5.02929687 C67.9070211,5.22461035 67.8760969,5.36458291 67.7686745,5.44921875 C67.6612521,5.53385459 67.5684796,5.4654959 67.4903542,5.24414062 L67.3145729,4.78515625 C67.2104057,4.50520693 67.0297435,4.11784102 66.7725807,3.62304687 C66.515418,3.12825273 66.1899004,2.68229365 65.7960182,2.28515625 C65.4021361,1.88801885 64.9610598,1.68945312 64.4727761,1.68945312 C63.9844924,1.69596357 63.5808506,1.90429482 63.2618386,2.31445312 C62.9428265,2.72461143 62.7491436,3.28124648 62.6807839,3.984375 C62.6124242,4.68750352 62.7051967,5.28971104 62.9591042,5.79101562 C63.1283759,6.14909033 63.3920451,6.45344927 63.7501198,6.70410156 C64.1081945,6.95475386 64.5948433,7.2184231 65.2100807,7.49511719 C65.8253182,7.77181128 66.3461463,8.06314951 66.7725807,8.36914062 C67.1990152,8.67513174 67.5424362,9.11295288 67.8028542,9.68261719 C68.0632722,10.2522815 68.1983619,10.9016891 68.2081276,11.6308594 C68.2178933,12.3600297 68.092569,13.0338511 67.8321511,13.6523437 C67.5977749,14.2187528 67.2673745,14.684243 66.8409401,15.0488281 C66.4145057,15.4134133 65.9376224,15.6249997 65.4102761,15.6835937 C65.0652223,15.7291669 64.7429598,15.712891 64.4434792,15.6347656 C64.1439985,15.5566402 63.8998603,15.4720057 63.7110573,15.3808594 L62.9688698,15.0390625 C62.812619,14.9869789 62.7019431,14.9869789 62.6368386,15.0390625 C62.5717341,15.0781252 62.5261616,15.1464839 62.5001198,15.2441406 L62.4415261,15.4589844 C62.3959529,15.5957038 62.3275942,15.6705729 62.2364479,15.6835937 C62.1453016,15.6966146 62.076943,15.5957042 62.0313698,15.3808594 L61.0255104,11.4746094 C60.9734268,11.2467437 61.0010958,11.095378 61.1085182,11.0205078 C61.2159407,10.9456376 61.3022028,10.9928377 61.3673073,11.1621094 L61.6114479,11.7773437 C61.7091047,12.0442722 61.909298,12.4658174 62.2120339,13.0419922 C62.5147698,13.6181669 62.8939977,14.091795 63.3497292,14.4628906 C63.8054606,14.8339862 64.3165232,15.0227864 64.8829323,15.0292969 C65.2344966,15.0358073 65.5730348,14.9446624 65.8985573,14.7558594 C66.2240798,14.5670563 66.5040249,14.2431664 66.7384011,13.7841797 C66.9727772,13.325193 67.0899636,12.7734407 67.0899636,12.1289062 C67.0834531,11.5690076 66.9906806,11.1100278 66.8116432,10.7519531 C66.6326059,10.3938784 66.3607987,10.0862643 65.9962136,9.82910156 C65.6316284,9.57193882 65.1417244,9.29687646 64.526487,9.00390625 C63.9112495,8.71093604 63.3904214,8.41471504 62.963987,8.11523438 C62.5375526,7.81575371 62.1941315,7.39258086 61.9337136,6.84570312 C61.6732956,6.29882539 61.5349506,5.66243853 61.5186745,4.93652344 C61.5023984,4.21060835 61.634233,3.52539385 61.9141823,2.88085937 C62.1746003,2.2884085 62.5229041,1.8310563 62.9591042,1.50878906 C63.3953043,1.18652183 63.9031117,1.03515615 64.4825417,1.0546875 C64.7885328,1.0677084 65.0489469,1.12304639 65.2637917,1.22070312 C65.4786365,1.31835986 65.6999885,1.45507725 65.9278542,1.63085937 C66.1557199,1.8066415 66.3152235,1.8750002 66.4063698,1.8359375 C66.4649639,1.81640615 66.5170467,1.77408887 66.5626198,1.70898437 L66.6993386,1.46484375 C66.7384013,1.40624971 66.798622,1.36881519 66.8800026,1.35253906 C66.9613832,1.33626294 67.0248592,1.42578027 67.0704323,1.62109375 Z M75.510823,2.67578125 L74.338948,2.67578125 C74.2282703,2.67578125 74.1631668,2.5878915 74.1436355,2.41210937 C74.1241041,2.23632725 74.1892076,2.1484375 74.338948,2.1484375 L78.9580886,2.1484375 L79.3291823,1.49414062 C79.3617346,1.44205703 79.3845208,1.41113286 79.3975417,1.40136719 C79.4105626,1.39160151 79.4496247,1.41601533 79.5147292,1.47460937 L80.510823,2.5 C80.5498857,2.54557314 80.5759271,2.57975249 80.588948,2.60253906 C80.6019689,2.62532563 80.6084792,2.65462222 80.6084792,2.69042969 C80.6084792,2.72623716 80.5791826,2.76367168 80.5205886,2.80273437 L80.1299636,3.11523437 C79.8435038,4.16992715 79.625407,4.96419004 79.4756667,5.49804687 C79.3259264,6.03190371 79.1599124,6.58528359 78.9776198,7.15820312 L80.0323073,7.15820312 L80.3252761,6.640625 C80.3578283,6.56901006 80.3903801,6.53157554 80.4229323,6.52832031 C80.4554846,6.52506509 80.5075674,6.55924443 80.5791823,6.63085937 L81.5557448,7.64648437 C81.601318,7.69856797 81.6257318,7.72949214 81.628987,7.73925781 C81.6322422,7.74902349 81.637125,7.7604166 81.6436355,7.7734375 C81.6501459,7.7864584 81.6534011,7.80110669 81.6534011,7.81738281 C81.6534011,7.83365894 81.6371252,7.85807275 81.604573,7.890625 L81.2627761,8.23242188 C80.6638148,10.5892045 80.2113453,12.0768198 79.9053542,12.6953125 L79.2022292,14.1992187 C79.4366054,14.4986994 79.6839987,14.7884101 79.9444167,15.0683594 C80.2048347,15.3483087 80.5140764,15.5908193 80.8721511,15.7958984 C81.2302258,16.0009776 81.4971502,16.129557 81.6729323,16.1816406 L82.1123855,16.3183594 C82.1840004,16.3444012 82.2198073,16.3916012 82.2198073,16.4599609 C82.2198073,16.5283207 82.1840004,16.5787759 82.1123855,16.6113281 L81.7315261,16.7773438 C81.3474096,16.9531259 81.0642093,17.1614571 80.8819167,17.4023438 L80.5791823,17.8125 C80.5270987,17.8841149 80.494547,17.9215495 80.4815261,17.9248047 C80.4685052,17.9280599 80.4392086,17.9036461 80.3936355,17.8515625 L80.198323,17.65625 C79.6319139,17.0833305 79.0524926,16.3053435 78.4600417,15.3222656 C78.1475401,15.6347672 77.7162294,16.0416642 77.1660964,16.5429688 C76.6159634,17.0442733 75.7940316,17.4804669 74.7002761,17.8515625 L74.2217605,18.0175781 C74.1957187,18.030599 74.1729324,18.030599 74.1534011,18.0175781 C74.1403802,18.0175781 74.1306147,18.006185 74.1241042,17.9833984 C74.1175938,17.9606119 74.112711,17.9296877 74.1094558,17.890625 C74.1062005,17.8515623 74.1338695,17.8125002 74.1924636,17.7734375 L74.6123855,17.5292969 C75.7582245,16.8717415 76.8584739,15.7649817 77.9131667,14.2089844 C77.6657696,13.5318977 77.4216315,12.7994831 77.1807448,12.0117187 C76.9398582,11.2239544 76.7836098,10.3971397 76.7119948,9.53125 L76.5459792,7.7734375 C76.4873852,9.0039124 76.4092609,10.1318308 76.3116042,11.1572266 C76.2139475,12.1826223 75.9714369,13.214513 75.5840651,14.2529297 C75.1966934,15.2913463 74.7116722,16.110023 74.128987,16.7089844 C73.5463018,17.3079457 73.1345221,17.6953116 72.8936355,17.8710938 L72.542073,18.1347656 C72.4509267,18.1998701 72.3939611,18.2080081 72.3711745,18.1591797 C72.3483879,18.1103513 72.3386224,18.0664064 72.3418776,18.0273438 C72.3451329,17.9882811 72.3662915,17.9459638 72.4053542,17.9003906 L72.776448,17.4902344 C73.1019704,17.1321597 73.4714329,16.6341178 73.8848464,15.9960937 C74.2982599,15.3580697 74.641681,14.3668687 74.9151198,13.0224609 C75.1885587,11.6780532 75.3448071,10.4183001 75.3838698,9.24316406 C75.4229325,8.06802798 75.4522291,6.83431636 75.4717605,5.54199219 C75.4912918,4.24966802 75.5010573,3.5937501 75.5010573,3.57421875 L75.510823,2.67578125 Z M78.948323,2.67578125 L76.9561355,2.67578125 C76.9300937,2.74739619 76.9056798,2.80273418 76.8828933,2.84179688 C76.8601067,2.88085957 76.7901204,2.93619756 76.6729323,3.0078125 C76.653401,3.61979473 76.6436355,4.0804021 76.6436355,4.38964844 C76.6436355,4.69889478 76.6550286,5.24413672 76.6778151,6.02539062 C76.7006017,6.80664453 76.8242984,7.79296279 77.0489089,8.984375 C77.2735194,10.1757872 77.6071749,11.2369745 78.0498855,12.1679688 L78.4893386,13.1054688 C78.6195476,12.7994776 78.7611477,12.4560566 78.9141433,12.0751953 C79.0671388,11.694334 79.2396631,11.1328162 79.4317214,10.390625 C79.6237796,9.64843379 79.7588694,9.04459868 79.8369948,8.57910156 C79.9151202,8.11360444 79.967203,7.81901104 79.9932448,7.6953125 L78.8116042,7.6953125 L78.5284011,8.22265625 C78.469807,8.32682344 78.4307449,8.38053384 78.4112136,8.38378906 C78.3916822,8.38704429 78.3721512,8.372396 78.3526198,8.33984375 L77.6006667,7.34375 C77.5811354,7.3177082 77.5681147,7.29492197 77.5616042,7.27539062 C77.5550938,7.25585928 77.5518386,7.23144546 77.5518386,7.20214844 C77.5518386,7.17285142 77.5681145,7.14192725 77.6006667,7.109375 L77.7862136,6.953125 C77.8448076,6.90755186 77.8871249,6.85709663 77.9131667,6.80175781 C77.9392085,6.74641899 77.9815258,6.60481885 78.0401198,6.37695312 L78.1573073,5.90820312 L78.948323,2.67578125 Z M70.6280105,6.1328125 L72.5616042,6.6015625 C72.7113445,6.30208184 72.8106274,6.09537817 72.8594558,5.98144531 C72.9082841,5.86751245 73.0043118,5.63151221 73.1475417,5.2734375 L73.5186355,4.31640625 L73.5674636,4.16992188 C73.5804845,4.15039053 73.6195466,4.17317676 73.6846511,4.23828125 L74.9151198,5.45898438 C74.9867348,5.53059932 75.0225417,5.59244766 75.0225417,5.64453125 C75.0160313,5.73567754 74.9574381,5.79101553 74.8467605,5.81054688 L74.4756667,5.87890625 C73.5772247,7.32422598 73.0238448,8.18684756 72.8155105,8.46679688 L71.2334792,10.6738281 C71.8194196,10.628255 72.3744271,10.5859377 72.8985183,10.546875 C73.4226094,10.5078123 73.7920719,10.4752605 74.0069167,10.4492188 L74.7198073,10.3710938 C74.8109536,10.3645833 74.8581537,10.4003902 74.8614089,10.4785156 C74.8646641,10.556641 74.8272296,10.6087238 74.7491042,10.6347656 L74.0655105,10.8984375 C72.5941489,11.4648466 71.6273617,11.8587229 71.1651198,12.0800781 L70.510823,12.3925781 C70.3675931,12.4641931 70.292724,12.4967448 70.2862136,12.4902344 C70.2797031,12.4837239 70.2601721,12.4218756 70.2276198,12.3046875 L69.8174636,10.9277344 C69.7914218,10.8430985 69.7784011,10.7877605 69.7784011,10.7617188 C69.791422,10.7096352 69.8142082,10.6770834 69.8467605,10.6640625 L70.0811355,10.5761719 C70.1983235,10.5371092 70.3561996,10.4394539 70.5547683,10.2832031 C70.753337,10.1269523 71.1781374,9.41081367 71.8291823,8.13476562 L72.3955886,7.01171875 C71.7315228,7.10937549 71.1325704,7.23307217 70.5987136,7.3828125 L70.1494948,7.50976562 L70.0225417,7.54882812 C69.9964999,7.54231768 69.9769689,7.51302109 69.963948,7.4609375 L69.6221511,6.07421875 C69.6091302,6.01562471 69.6026198,5.97005225 69.6026198,5.9375 C69.6026198,5.90494775 69.6384268,5.86914082 69.7100417,5.83007812 L69.885823,5.7421875 C70.13322,5.61848896 70.4505997,5.0895229 70.8379714,4.15527344 C71.2253431,3.22102397 71.5557435,2.27865059 71.8291823,1.328125 L72.0147292,0.72265625 L72.0635573,0.478515625 C72.0700678,0.465494727 72.0765781,0.455729199 72.0830886,0.44921875 L72.1905105,0.537109375 L73.4698073,1.53320312 C73.5609536,1.60481807 73.6065261,1.67968711 73.6065261,1.7578125 C73.6000156,1.82942744 73.5674639,1.87174473 73.5088698,1.88476562 L73.0791823,2.02148438 C72.2588657,3.43425186 71.4418166,4.80468086 70.6280105,6.1328125 Z M70.4131667,14.7753906 C72.1644775,14.1503875 73.3298305,13.7174491 73.9092605,13.4765625 L74.4073073,13.2714844 C74.4398596,13.2584635 74.4740389,13.2600911 74.5098464,13.2763672 C74.5456539,13.2926433 74.5619297,13.333333 74.5586745,13.3984375 C74.5554193,13.463542 74.5277503,13.5156248 74.4756667,13.5546875 L74.0459792,13.90625 C72.3141997,15.2929757 71.3278815,16.0904938 71.0869948,16.2988281 L70.510823,16.8066406 C70.4066558,16.9042974 70.3496902,16.9498698 70.3399245,16.9433594 C70.3301588,16.9368489 70.3122554,16.8912765 70.2862136,16.8066406 L69.8565261,15.3320312 L69.7686355,15.0390625 C69.762125,15.0065103 69.7686354,14.9772137 69.7881667,14.9511719 L69.8955886,14.9316406 L70.4131667,14.7753906 Z M94.644573,5.16601562 L95.1719167,4.19921875 C95.2565526,4.04947842 95.3118906,3.97623696 95.3379324,3.97949219 C95.3639742,3.98274741 95.416057,4.02994746 95.4941824,4.12109375 L96.3730886,5.25390625 C96.4707453,5.38411523 96.5130626,5.48828086 96.5000417,5.56640625 C96.4870208,5.64453164 96.4447035,5.68359375 96.3730886,5.68359375 L93.2187917,5.68359375 C93.3164485,5.95703262 93.3782968,6.12792935 93.4043386,6.19628906 C93.4303804,6.26464878 93.5654702,6.52180767 93.809612,6.96777344 C94.0537539,7.41373921 94.436237,7.84830518 94.957073,8.27148438 C95.4779089,8.69466357 95.9694405,8.98762939 96.4316824,9.15039062 L96.8906667,9.31640625 C96.9622817,9.34244805 96.996461,9.39127568 96.9932058,9.46289062 C96.9899506,9.53450557 96.9557712,9.5833332 96.8906667,9.609375 L96.6269949,9.71679688 C96.3730873,9.82747451 96.1745216,9.99999883 96.0312917,10.234375 L95.816448,10.6542969 C95.7578539,10.771485 95.7090263,10.8268229 95.6699636,10.8203125 C95.5723069,10.8138021 95.370486,10.6494157 95.0644949,10.3271484 C94.7585037,10.0048812 94.5225035,9.72005332 94.356487,9.47265625 C94.1904706,9.22525918 94.0195739,8.91764507 93.8437917,8.54980469 C93.6680096,8.18196431 93.5166439,7.81575703 93.3896902,7.45117188 C93.2627364,7.08658672 93.1715915,6.73014497 93.1162527,6.38183594 C93.0609138,6.0335269 93.0234793,5.80078184 93.003948,5.68359375 L92.3594167,5.68359375 C92.2943122,5.84635498 92.2292087,5.99609307 92.1641042,6.1328125 L91.7344167,7.0703125 C91.3958734,7.75390967 90.9531695,8.45214487 90.4062917,9.16503906 C89.859414,9.87793325 89.3809032,10.4134097 88.9707449,10.7714844 L88.6094167,11.0839844 C88.5182704,11.1686202 88.4661876,11.1637375 88.4531667,11.0693359 C88.4401458,10.9749344 88.4661872,10.8886723 88.5312917,10.8105469 L88.863323,10.4101562 C89.0325947,10.2083323 89.2083742,9.97070449 89.3906667,9.69726562 C89.5729593,9.42382676 89.799194,9.00553667 90.0693777,8.44238281 C90.3395613,7.87922896 90.5364994,7.44791816 90.660198,7.1484375 C90.7838965,6.84895684 90.8864346,6.57063931 90.9678152,6.31347656 C91.0491958,6.05631382 91.1191821,5.84635498 91.1777761,5.68359375 L88.6973074,5.68359375 C88.5931402,5.68359375 88.5361746,5.59733159 88.5264089,5.42480469 C88.5166432,5.25227778 88.5736088,5.16601562 88.6973074,5.16601562 L91.3437917,5.16601562 C91.3633231,5.07486934 91.3975024,4.95117266 91.4463308,4.79492188 C91.4951592,4.63867109 91.5488696,4.45800884 91.6074636,4.25292969 C91.6660576,4.04785054 91.7669681,3.60351904 91.910198,2.91992188 C90.8359739,3.11523535 90.1686628,3.21289062 89.9082449,3.21289062 L89.6250417,3.21289062 C89.527385,3.21289062 89.4834401,3.1754561 89.4932058,3.10058594 C89.5029715,3.02571577 89.5338956,2.97851572 89.5859792,2.95898438 L90.0644949,2.8125 C90.370486,2.72135371 90.6081138,2.64322949 90.7773855,2.578125 C90.9466572,2.51302051 91.4040094,2.31608237 92.1494558,1.98730469 C92.8949022,1.658527 93.3880614,1.41276123 93.628948,1.25 L94.253948,0.830078125 C94.3060316,0.797525879 94.3646247,0.748698242 94.4297292,0.68359375 C94.4948337,0.618489258 94.5355234,0.581054736 94.5517995,0.571289063 C94.5680757,0.561523389 94.6510826,0.647785547 94.800823,0.830078125 L95.6309011,1.88476562 C95.7545996,2.0540373 95.8115652,2.15820293 95.8017995,2.19726562 C95.7920339,2.23632832 95.7350683,2.2656249 95.6309011,2.28515625 L95.1035574,2.3828125 C94.8496498,2.43489609 94.4997184,2.50813755 94.0537527,2.60253906 C93.6077869,2.69694058 93.1829865,2.76692686 92.7793386,2.8125 L93.4434011,3.21289062 C93.4694429,3.23893242 93.4857188,3.26985659 93.4922292,3.30566406 C93.4987397,3.34147153 93.4661879,3.38216123 93.394573,3.42773438 L93.1309011,3.60351562 C92.9746503,4.02669482 92.8558364,4.34407446 92.7744558,4.55566406 C92.6930752,4.76725366 92.6198337,4.97070215 92.5547292,5.16601562 L94.644573,5.16601562 Z M85.6406667,3.42773437 L85.9141042,1.93359375 L86.128948,0.56640625 L86.1680105,0.166015625 C86.1940523,0.146484277 86.2689213,0.166015332 86.3926199,0.224609375 L87.6523855,0.859375 C87.71749,0.898437695 87.7532969,0.947265332 87.7598074,1.00585937 C87.7663178,1.06445342 87.7305109,1.12304658 87.6523855,1.18164062 L87.2910574,1.43554687 L86.832073,3.42773437 L88.2480886,3.42773437 L88.5898855,2.72460937 C88.6615004,2.58788994 88.7103281,2.51464849 88.7363699,2.50488281 C88.7624117,2.49511714 88.8047289,2.52278613 88.863323,2.58789062 L89.722698,3.62304688 C89.7617607,3.67513047 89.776409,3.74511675 89.7666433,3.83300781 C89.7568776,3.92089888 89.7292086,3.96484375 89.6836355,3.96484375 L86.675823,3.96484375 L85.6016042,8.11523438 L86.7832449,8.11523438 L86.7832449,6.77734375 L86.7344167,5.14648437 C86.7539481,5.11393213 86.7799895,5.0911459 86.8125417,5.078125 L87.0176199,5.16601562 L88.1113699,5.57617187 C88.215537,5.62174502 88.2627371,5.67220024 88.2529714,5.72753906 C88.2432057,5.78287788 88.2122816,5.83984346 88.160198,5.8984375 L87.8379324,6.25976562 L87.8379324,8.11523438 L88.1797292,8.11523438 L88.5898855,7.32421875 C88.6484795,7.21354111 88.6973072,7.15657554 88.7363699,7.15332031 C88.7754325,7.15006509 88.8177498,7.17773408 88.863323,7.23632812 L89.6543386,8.33984375 C89.7194431,8.43099004 89.7487397,8.50748667 89.7422292,8.56933594 C89.7357188,8.63118521 89.7064222,8.66210938 89.6543386,8.66210938 L87.8379324,8.66210938 L87.8379324,12.1972656 C88.0918399,12.0996089 88.2871504,12.0247398 88.4238699,11.9726563 L89.6543386,11.5136719 L90.0742605,11.3574219 C90.1458754,11.3313801 90.1849375,11.3623042 90.191448,11.4501953 C90.1979584,11.5380864 90.1784274,11.5983071 90.1328542,11.6308594 L89.722698,11.9140625 C89.6575935,11.9596356 89.0293446,12.3632774 87.8379324,13.125 L87.8379324,15.8691406 L87.8867605,17.6367188 C87.7630619,17.929689 87.5661238,18.087565 87.2959402,18.1103516 C87.0257565,18.1331381 86.8695081,18.1087243 86.8271902,18.0371094 C86.7848722,17.9654944 86.7539481,17.884115 86.7344167,17.7929688 L86.7832449,16.0742188 L86.7832449,13.7890625 C86.6335045,13.8932297 86.2233524,14.1666645 85.5527761,14.609375 L85.0742605,14.9414062 L84.800823,15.1757812 C84.7747812,15.1953126 84.7585053,15.2018229 84.7519949,15.1953125 C84.738974,15.1953125 84.7292084,15.1888021 84.722698,15.1757812 L84.7031667,15.0878906 L84.253948,13.2519531 L84.2148855,13.1347656 C84.2148855,13.1087238 84.2279062,13.0794272 84.253948,13.046875 L84.5566824,13.0078125 L85.035198,12.9296875 C85.4453563,12.864583 86.0280327,12.7246104 86.7832449,12.5097656 L86.7832449,8.66210938 L85.4844167,8.66210938 L85.2891042,9.15039062 C85.1914475,9.3847668 85.1344819,9.51497383 85.1182058,9.54101562 C85.1019297,9.56705742 85.0872814,9.58170571 85.0742605,9.58496094 C85.0612396,9.58821616 85.0124119,9.53776094 84.9277761,9.43359375 L84.253948,8.62304688 C84.2083748,8.57747373 84.183961,8.54329438 84.1807058,8.52050781 C84.1774506,8.49772124 84.2246506,8.44401084 84.3223074,8.359375 C84.3939223,8.30078096 84.4687913,8.16406357 84.5469167,7.94921875 C84.6250421,7.73437393 84.6771249,7.57487031 84.7031667,7.47070312 L84.9668386,6.43554687 C85.0254326,6.2141916 85.2207432,5.39063213 85.5527761,3.96484375 L84.1367605,3.96484375 C84.0651455,3.88671836 84.0244558,3.77766997 84.0146902,3.63769531 C84.0049245,3.49772065 84.0618901,3.42773437 84.1855886,3.42773437 L85.6406667,3.42773437 Z M94.4394949,10.6542969 L94.4394949,15.9570312 L94.488323,17.5 C94.4818125,17.5976567 94.4492608,17.7213534 94.3906667,17.8710938 C94.3320727,18.0208341 94.1595484,18.1022135 93.8730886,18.1152344 C93.5866288,18.1282553 93.4206149,18.0989587 93.3750417,18.0273438 C93.3294686,17.9557288 93.300172,17.8710942 93.2871511,17.7734375 L93.3262136,16.4160156 L93.3262136,11.2890625 L93.2773855,9.609375 C93.3034273,9.57682275 93.3262135,9.55403652 93.3457449,9.54101562 L93.5703542,9.63867188 L94.6152761,10.0683594 C94.686891,10.1009116 94.7210704,10.1448565 94.7178152,10.2001953 C94.7145599,10.2555341 94.6901461,10.3124997 94.644573,10.3710938 L94.4394949,10.6542969 Z M91.6855886,10.3515625 C91.6790782,10.8268253 91.667685,11.2320947 91.6514089,11.5673828 C91.6351328,11.9026709 91.5944431,12.320961 91.5293386,12.8222656 C91.4642341,13.3235702 91.342165,13.9078743 91.1631277,14.5751953 C90.9840903,15.2425164 90.6406693,15.8333308 90.1328542,16.3476562 C89.6250392,16.8619817 89.2409284,17.2102855 88.9805105,17.3925781 L88.472698,17.7539062 C88.3620203,17.8385421 88.3034272,17.8352869 88.2969167,17.7441406 C88.2904063,17.6529943 88.3099373,17.5813805 88.3555105,17.5292969 L88.785198,17.0703125 C89.1888458,16.6341124 89.5485428,16.0628291 89.8642995,15.3564453 C90.1800563,14.6500616 90.3688565,13.9615919 90.4307058,13.2910156 C90.4925551,12.6204394 90.5299896,12.0784526 90.5430105,11.6650391 C90.5560314,11.2516255 90.5609141,10.9472666 90.5576589,10.7519531 C90.5544037,10.5566396 90.5527761,10.397136 90.5527761,10.2734375 L90.5332449,9.66796875 L90.503948,9.31640625 C90.5169689,9.2968749 90.5316172,9.2838542 90.5478933,9.27734375 C90.5641694,9.2708333 90.6243902,9.283854 90.7285574,9.31640625 L91.9590261,9.73632812 C92.0045992,9.75585947 92.0322682,9.77701812 92.0420339,9.79980469 C92.0517996,9.82259126 92.0583099,9.83886714 92.0615652,9.84863281 C92.0648204,9.85839849 92.0566825,9.88443989 92.0371511,9.92675781 C92.0176198,9.96907573 92.0013439,9.99674473 91.988323,10.0097656 L91.6855886,10.3515625 Z M104.803714,12.5683594 L104.803714,9.51171875 L101.903323,9.51171875 L101.39551,10.1660156 C101.343427,10.2376306 101.297854,10.2376306 101.258792,10.1660156 L100.555667,8.984375 C100.477541,8.86067646 100.436852,8.78743501 100.433596,8.76464844 C100.430341,8.74186187 100.523114,8.68164111 100.711917,8.58398438 C100.822594,8.53190078 100.921877,8.43099033 101.009768,8.28125 C101.097659,8.13150967 101.279949,7.71972993 101.556643,7.04589844 C101.833337,6.37206694 102.043296,5.85286641 102.186526,5.48828125 C102.329756,5.12369609 102.499025,4.66146113 102.694339,4.1015625 L99.4716824,4.1015625 C99.3610047,4.1015625 99.300784,4.01367275 99.2910183,3.83789062 C99.2812526,3.6621085 99.3414734,3.57421875 99.4716824,3.57421875 L102.879885,3.57421875 C102.892906,3.52864561 103.001955,3.18359697 103.207034,2.5390625 C103.412113,1.89452803 103.560224,1.39974131 103.65137,1.0546875 L103.80762,0.46875 L103.885745,0.01953125 C103.892255,0.0130208008 103.902021,0.00651044922 103.915042,0 L104.159182,0.17578125 L105.52637,1.0546875 C105.571943,1.0937502 105.594729,1.1474606 105.594729,1.21582031 C105.594729,1.28418003 105.552412,1.34440078 105.467776,1.39648438 L104.999026,1.69921875 L104.256839,3.57421875 L108.543948,3.57421875 L109.061526,2.6171875 C109.178714,2.39583223 109.251956,2.2786459 109.281253,2.265625 C109.31055,2.2526041 109.380536,2.30468691 109.491214,2.421875 L110.555667,3.66210938 C110.640303,3.76627656 110.680992,3.86393184 110.677737,3.95507812 C110.674482,4.04622441 110.633792,4.09179688 110.555667,4.09179688 L110.05762,4.09179688 L110.05762,4.1015625 L104.041995,4.1015625 L102.059573,8.984375 L104.803714,8.984375 L104.803714,6.953125 L104.764651,5.28320313 C104.790693,5.24414043 104.816734,5.21809902 104.842776,5.20507812 L104.999026,5.2734375 L106.356448,5.84960938 C106.447594,5.89518252 106.489912,5.95703086 106.483401,6.03515625 C106.476891,6.11328164 106.434573,6.18164033 106.356448,6.24023438 L106.043948,6.47460938 L106.043948,8.984375 L107.977542,8.984375 L108.456057,8.046875 C108.579756,7.79296748 108.672528,7.68391909 108.734378,7.71972656 C108.796227,7.75553403 108.882489,7.84179619 108.993167,7.97851562 L109.872073,9.05273438 C109.950198,9.15690156 109.98926,9.25618442 109.98926,9.35058594 C109.98926,9.44498745 109.950198,9.4921875 109.872073,9.4921875 L106.043948,9.51171875 L106.043948,12.5683594 L109.286135,12.5683594 L109.872073,11.5332031 C109.950198,11.3834628 110.003909,11.3069662 110.033206,11.3037109 C110.062503,11.3004557 110.106448,11.3281247 110.165042,11.3867188 L111.15137,12.6269531 C111.209964,12.6985681 111.250654,12.7652992 111.27344,12.8271484 C111.296227,12.8889977 111.30762,12.9475909 111.30762,13.0029297 C111.30762,13.0582685 111.265303,13.0859375 111.180667,13.0859375 L109.569339,13.0859375 L109.569339,13.1054688 L106.043948,13.1054688 L106.043948,16.0449219 L106.092776,17.7050781 C106.079755,17.789714 106.061852,17.8613278 106.039065,17.9199219 C106.016279,17.9785159 105.936527,18.0550125 105.799807,18.1494141 C105.663088,18.2438156 105.480798,18.2926432 105.252932,18.2958984 C105.025067,18.2991537 104.888349,18.250326 104.842776,18.1494141 C104.797203,18.0485021 104.771162,17.9166675 104.764651,17.7539062 L104.803714,16.1132812 L104.803714,13.1054688 L98.9834011,13.1054688 L98.9150417,13.0761719 C98.8694686,13.0566405 98.8466824,13.0403646 98.8466824,13.0273438 L98.8271511,12.9199219 C98.8271511,12.6855457 98.8792339,12.5683594 98.9834011,12.5683594 L104.803714,12.5683594 Z" id="S级轿车"></path>
                <rect id="Rectangle-Copy-10" x="72" y="79" width="30" height="1"></rect>
            </g>
        </g>
    </g>
</svg>