<?xml version="1.0" encoding="UTF-8" standalone="no"?>
<svg width="118px" height="68px" viewBox="0 0 118 68" version="1.1" xmlns="http://www.w3.org/2000/svg" xmlns:xlink="http://www.w3.org/1999/xlink">
    <!-- Generator: Sketch 50 (54983) - http://www.bohemiancoding.com/sketch -->
    <title>S-Class-Headline&amp;Subheadline-D</title>
    <desc>Created with Sketch.</desc>
    <defs></defs>
    <g id="Page-1" stroke="none" stroke-width="1" fill="none" fill-rule="evenodd">
        <g id="S-Class-Headline&amp;Subheadline-M" fill="#333333">
            <g id="S-Class-Headline&amp;Subheadline-D">
                <path d="M6.39243266,33.373787 L6.39243266,28.2489369 L0.696488933,28.2489369 C0.537472399,28.2489369 0.443654051,28.1262688 0.415031076,27.880929 C0.3864081,27.6355892 0.480226447,27.5129211 0.696488933,27.5129211 L6.25885944,27.5129211 L6.70728382,26.8177952 C6.85357906,26.5997154 6.9489875,26.4884055 6.99351216,26.4838622 C7.03803676,26.4793189 7.20341149,26.6088018 7.48964129,26.8723149 L8.27199865,27.5947007 C8.42465453,27.7400872 8.52006304,27.8445822 8.55822703,27.9081889 C8.59639095,27.9717955 8.61706284,28.0376728 8.62024318,28.1058227 C8.62342345,28.1739726 8.5518671,28.2943691 8.40557189,28.4670156 L7.99531129,28.9576927 L7.99531129,32.1062043 L8.05255696,34.8185585 C8.00803237,34.9457717 7.92852527,35.0843412 7.81403338,35.2342711 C7.69954142,35.3842009 7.43398784,35.4614364 7.01736453,35.4659797 C6.6007412,35.470523 6.39243266,35.3183238 6.39243266,35.0093774 L6.39243266,34.1098026 L2.86228328,34.1098026 L2.18487624,39.2891724 L6.59279249,39.2891724 L6.92672554,38.8257551 C7.11754541,38.562242 7.23998629,38.4282157 7.29405189,38.4236724 C7.3481175,38.4191291 7.4864598,38.5349823 7.70908298,38.7712354 L8.46281757,39.5890306 C8.73632602,39.8888903 8.87784858,40.0524478 8.8873896,40.0797078 C8.89693061,40.1069677 8.90329115,40.1501287 8.90647149,40.209192 C8.90965183,40.2682553 8.80947291,40.411368 8.60593176,40.6385345 L8.14796642,41.1428416 C8.05255649,42.0424208 7.95714798,42.8511213 7.86173811,43.5689674 C7.76632818,44.2868135 7.63116615,45.0296367 7.45624798,45.7974593 C7.28132973,46.565282 7.06348041,47.2990188 6.80269325,47.9986915 C6.54190615,48.6983643 6.15391163,49.2526421 5.63869806,49.6615418 C5.12348449,50.0704414 4.70368715,50.3021478 4.37929342,50.3566677 C4.05489969,50.4111877 3.867263,50.4475338 3.81637771,50.4657071 C3.76549242,50.4838804 3.73368959,50.4884237 3.72096826,50.479337 C3.64464033,50.479337 3.58739524,50.4339044 3.54923127,50.3430378 C3.5110673,50.2521712 3.47608419,50.099972 3.44428088,49.8864355 C3.41247758,49.672899 3.32342965,49.3639572 3.17713444,48.9596009 C3.03083923,48.5552445 2.79549829,48.2304014 2.47110457,47.9850616 L1.98451641,47.6306837 C1.90818847,47.5852503 1.86048423,47.5284596 1.84140224,47.4603097 C1.82232026,47.3921597 1.81118927,47.3217391 1.80800894,47.2490459 C1.80482861,47.1763526 1.84776243,47.1422782 1.93681169,47.1468215 C2.02586095,47.1513648 2.07674547,47.1536364 2.0894668,47.1536364 L3.02447933,47.5216443 C3.49516827,47.7124641 3.90224449,47.7942428 4.2457202,47.7669828 C4.58919591,47.7397229 4.84997912,47.5897953 5.02807763,47.3171955 C5.20617615,47.0445957 5.39540298,46.6334305 5.59576381,46.0836877 C5.79612464,45.5339448 5.9821712,44.7343308 6.15390906,43.6848217 C6.32564691,42.6353126 6.43377653,41.8743163 6.47830116,41.40181 C6.52282579,40.9293038 6.56098918,40.4704344 6.59279249,40.025188 L2.01313924,40.025188 L1.51701014,40.8566132 L1.41205975,41.0338022 C1.39933843,41.0428889 1.34209334,40.9838264 1.24032276,40.8566132 L0.181277941,39.6435503 C0.0604253761,39.5072504 0,39.4141136 0,39.364137 C0,39.3141603 0.10812962,39.1892206 0.324392106,38.9893141 C0.54065459,38.7894076 0.690127892,38.3941439 0.772816487,37.8035111 L1.24032276,34.4505506 L1.41205975,32.2561334 C1.43114174,32.1380069 1.44863329,32.0744012 1.46453495,32.0653146 C1.4804366,32.0562279 1.5456324,32.1016605 1.6601243,32.2016138 L2.91952895,33.373787 L6.39243266,33.373787 Z M14.7693818,27.8400393 L14.7693818,47.1263766 L14.8647912,50.138589 C14.8520699,50.2294556 14.8282177,50.3271357 14.7932341,50.4316323 C14.7582505,50.5361289 14.6310391,50.6406239 14.4115963,50.7451205 C14.1921535,50.849617 13.9520422,50.9018645 13.691255,50.9018645 C13.4686319,50.9109512 13.3191586,50.8791484 13.2428307,50.8064551 C13.1665027,50.7337618 13.102897,50.5929208 13.0520118,50.3839276 L13.1378803,47.1808963 L13.1378803,28.903173 L13.0615527,26.1499291 C13.0869953,26.0863225 13.1124376,26.0454332 13.1378803,26.0272599 L13.4241086,26.1226693 L15.0079053,26.6269764 C15.1478399,26.6724097 15.2464287,26.7223855 15.3036746,26.7769055 C15.3609205,26.8314254 15.387953,26.8950311 15.3847726,26.9677243 C15.3815923,27.0404176 15.3450191,27.117653 15.2750518,27.199433 L14.7693818,27.8400393 Z M25.0498855,39.3028023 L20.2030858,39.3028023 C20.0504299,39.3028023 19.9677426,39.1960357 19.9550213,38.9824992 C19.9422999,38.7689627 20.0345282,38.6303932 20.2317087,38.5667866 L20.3271181,38.5531567 L25.0689674,38.5531567 L25.4601461,37.7898812 C25.517392,37.6717546 25.5698667,37.6104205 25.6175717,37.6058772 C25.6652766,37.6013339 25.7749964,37.6853842 25.9467343,37.8580307 L27.2156799,39.2210228 C27.3683358,39.3936693 27.4526133,39.5027076 27.4685149,39.5481409 C27.4844166,39.5935741 27.4923672,39.6344635 27.4923672,39.6708101 C27.4860066,39.7798501 27.4621545,39.8548139 27.4208101,39.8957039 C27.3794659,39.9365938 27.3317616,39.9683966 27.277696,39.9911132 C27.2236303,40.0138299 27.1345824,40.0456328 27.0105495,40.0865227 C26.8865166,40.1274127 26.7640758,40.1796602 26.6432232,40.2432668 C26.5223706,40.3068735 26.3713072,40.4477145 26.1900283,40.6657943 C26.0087495,40.8838741 25.7400156,41.2745946 25.3838186,41.8379675 C25.0276215,42.4013403 24.4678917,43.2373004 23.7046124,44.3458728 C24.3915638,44.981939 24.8511147,45.5021424 25.0832788,45.9064987 C25.315443,46.3108551 25.4585557,46.6720443 25.5126213,46.9900774 C25.5666869,47.3081105 25.5953095,47.6034224 25.5984898,47.8760222 C25.6016701,48.148622 25.5364743,48.4166744 25.4029004,48.6801875 C25.2311626,49.0073072 24.9926414,49.1708647 24.6873296,49.1708647 C24.5219524,49.1799513 24.3661186,49.114074 24.2198234,48.9732308 C24.0735281,48.8323876 23.9208745,48.5438905 23.761858,48.1077309 L23.1798604,46.4039908 C22.7473355,45.3135918 22.1144591,44.3140743 21.2812125,43.4054083 L20.7373787,42.8193218 C20.6801328,42.7648018 20.6499201,42.7216408 20.6467397,42.6898375 C20.6435594,42.6580342 20.6451495,42.628503 20.6515102,42.601243 C20.6578709,42.4649431 20.7341976,42.4331403 20.8804928,42.5058336 L21.4624905,42.8193218 C22.1812452,43.2100481 22.8045806,43.6189416 23.3325155,44.0460146 C23.962221,42.4740226 24.534672,40.8929676 25.0498855,39.3028023 Z M34.1042416,33.7281649 L29.5245884,33.7281649 L29.5245884,44.8774397 C29.5245884,44.9864797 29.4546222,45.1432222 29.3146876,45.347672 C29.174753,45.5521218 28.926691,45.6543452 28.5704939,45.6543452 C28.4051168,45.6634318 28.2810857,45.6316291 28.1983971,45.5589357 C28.1157085,45.4862425 28.0489226,45.3772042 27.9980373,45.2318176 L28.0743649,42.7648021 L28.0743649,34.6958892 L28.0171192,32.1062043 C28.0489225,32.0789443 28.0839056,32.0607713 28.1220695,32.0516847 C28.1602335,32.042598 28.3065266,32.1243767 28.560953,32.2970232 L29.5532112,32.9921492 L30.4786828,32.9921492 C30.4914041,32.8558493 30.5216168,32.5082898 30.5693218,31.9494603 C30.6170267,31.3906307 30.6504197,31.0430712 30.6695017,30.9067714 L30.8603205,29.0667321 L30.8889434,28.7805038 L26.9962381,28.7805038 L26.8149602,28.6169447 L26.8054193,28.6033148 L26.7958783,28.5760549 C26.764075,28.2216753 26.830861,28.044488 26.9962381,28.044488 L34.1996511,28.044488 L34.8865991,26.8450551 C34.9947303,26.6542352 35.0646965,26.5610984 35.0964998,26.5656417 C35.1283031,26.570185 35.2332524,26.6633219 35.411351,26.8450551 L36.6421328,28.1807872 C36.7248214,28.2716539 36.7741158,28.3420744 36.7900174,28.392051 C36.8059191,28.4420276 36.8154599,28.482917 36.8186403,28.5147203 C36.8218206,28.5465236 36.8043291,28.5851414 36.7661651,28.6305747 C36.7089191,28.7032679 36.6230515,28.7487005 36.5085596,28.7668739 L35.1632864,28.7668739 L35.1632864,28.7805038 L32.9497874,28.7805038 C33.013394,28.8986303 33.0483771,28.9894955 33.0547378,29.0531022 L33.0547378,29.1076218 C33.0547378,29.1348818 33.0531476,29.164413 33.0499673,29.1962164 C33.046787,29.2280197 32.9752306,29.2757239 32.835296,29.3393305 L32.3868716,29.5710391 L31.3182859,32.9921492 L33.9229637,32.9921492 L34.4000109,32.1879839 C34.5081421,32.0062507 34.5844689,31.9176571 34.6289935,31.9222004 C34.6735182,31.9267437 34.7593858,31.9880778 34.8865991,32.1062043 L36.0028895,33.196598 C36.0792174,33.2783779 36.130102,33.3442552 36.1555446,33.3942318 C36.1809873,33.4442084 36.1921183,33.4941843 36.1889379,33.5441609 C36.1857576,33.5941376 36.1237421,33.6918177 36.0028895,33.8372042 L35.6689565,34.2324719 L35.6689565,42.1923454 L35.7262022,44.495802 C35.6689562,44.7956617 35.5258435,45.0114666 35.2968597,45.1432232 C35.0678758,45.2749797 34.8420758,45.340857 34.6194526,45.340857 C34.3650262,45.3499437 34.2155528,45.2727082 34.1710283,45.1091484 C34.1265036,44.9455885 34.1042416,44.7002524 34.1042416,44.3731327 L34.1042416,33.7281649 Z M24.0957911,28.8486534 C25.3424807,29.6391927 26.1264204,30.252533 26.4476339,30.6886926 C26.7688472,31.1248522 26.9994178,31.5155727 27.1393523,31.8608657 C27.2792868,32.2061588 27.3460728,32.5514467 27.3397121,32.8967397 C27.3269908,33.1965995 27.2745162,33.4464789 27.1822866,33.6463853 C27.090057,33.8462918 26.9755668,34.0121209 26.8388126,34.1438774 C26.7020583,34.275634 26.563716,34.336968 26.4237815,34.3278814 C26.2711256,34.3278814 26.1280128,34.2529176 25.994439,34.1029876 C25.8608651,33.9530578 25.7431946,33.687277 25.6414241,33.3056373 L25.3265729,32.0244248 C25.1993597,31.5791785 25.0419357,31.1657418 24.8542962,30.784102 C24.6666566,30.4024624 24.3502185,29.9027036 23.9049722,29.2848108 C23.0399222,31.1566626 22.2750642,32.6763835 21.6103751,33.8440192 C20.945686,35.0116549 20.42889,35.8544299 20.0599716,36.3723694 L19.5065969,37.1492749 C19.449351,37.2310548 19.3984664,37.2674009 19.3539418,37.2583143 C19.3284991,37.2583143 19.3062372,37.2492277 19.2871551,37.2310544 C19.2680732,37.2128811 19.2585323,37.1697201 19.2585323,37.1015701 C19.2585323,37.0334202 19.2776141,36.9493699 19.315778,36.8494166 L19.7451205,35.8953222 C20.0440716,35.2229095 20.4781802,34.1416132 21.0474594,32.6514012 C21.6167386,31.1611891 22.104912,29.5119852 22.5119943,27.7037401 L22.6932723,26.8995747 L22.8077636,26.2317086 C22.8522883,26.2044486 22.9699587,26.2407947 23.1607785,26.340748 L24.8590666,27.3084724 C24.9544766,27.372079 25.0260329,27.4424995 25.0737378,27.5197361 C25.1214428,27.5969727 25.1468851,27.6651216 25.1500654,27.7241849 C25.1532458,27.7832482 25.0626077,27.8672985 24.8781485,27.9763384 L24.3533966,28.2898266 L24.0957911,28.8486534 Z M22.8650093,33.8917239 L22.6169447,33.3874168 C22.5724201,33.3056369 22.5501581,33.2420313 22.5501581,33.196598 L22.5501581,33.1420783 C22.5437974,33.1148183 22.5437974,33.0966453 22.5501581,33.0875586 C22.5565188,33.0421253 22.5946822,33.0148657 22.6646495,33.0057791 C22.76642,33.0057791 23.0049412,33.1284472 23.3802203,33.373787 C23.7554993,33.6191267 24.0957895,33.9485132 24.4011013,34.3619562 C24.706413,34.7753991 24.8606568,35.1683912 24.8638371,35.5409443 C24.8670174,35.9134973 24.839985,36.1906362 24.7827391,36.3723694 C24.7064112,36.6177092 24.5871505,36.8312425 24.4249537,37.0129757 C24.2627568,37.1947089 24.0894314,37.2810308 23.9049722,37.2719442 C23.6950703,37.2719442 23.5217449,37.1674491 23.3849908,36.958456 C23.2482365,36.7494628 23.1671393,36.5404728 23.1416966,36.3314797 C23.116254,36.1224865 23.1003526,35.8203596 23.0939919,35.4250899 C23.0876313,35.0298203 23.0637791,34.7095203 23.0224349,34.4641805 C22.9810905,34.2188407 22.9286159,34.0280238 22.8650093,33.8917239 Z M32.1006433,44.8501799 C33.0165785,45.2863395 33.8116493,45.6861466 34.4858794,46.0496129 C35.1601095,46.4130793 35.7421013,46.8764919 36.2318722,47.4398647 C36.7216431,48.0032376 36.9633446,48.6165779 36.9569839,49.279904 C36.9506233,49.679717 36.8536247,50.0227333 36.6659851,50.308963 C36.4783456,50.5951928 36.2318737,50.711046 35.926562,50.656526 C35.831152,50.6474393 35.7214323,50.5770188 35.5973994,50.4452622 C35.4733665,50.3135057 35.2936805,49.979576 35.058336,49.443463 C34.8229916,48.9073502 34.5924211,48.4439375 34.3666176,48.0532112 C34.1408141,47.6624849 33.8323266,47.230875 33.441146,46.7583687 C33.0499653,46.2858625 32.7844117,45.999637 32.6444772,45.8996838 L31.9670701,45.3817468 C31.8334962,45.7361265 31.6347285,46.1972675 31.3707611,46.7651837 C31.1067937,47.3330999 30.4914089,47.9759714 29.5245884,48.6938174 C28.5577678,49.4116635 27.514635,49.9477683 26.3951587,50.302148 L25.7177516,50.5202268 C25.6414237,50.5474868 25.577818,50.5497584 25.5269327,50.5270418 C25.4760474,50.5043251 25.4458347,50.4793372 25.4362937,50.4520772 C25.4267528,50.4248172 25.4235725,50.3998293 25.4267528,50.3771126 C25.4299331,50.354396 25.4410641,50.3180499 25.4601461,50.2680733 C25.4792281,50.2180966 25.511031,50.1794789 25.5555555,50.1522189 L26.2806673,49.8251008 C26.5605364,49.7069743 27.2331663,49.2708212 28.298577,48.5166285 C29.3639878,47.7624357 30.0461585,46.8537835 30.3451096,45.7906444 C30.6440607,44.7275053 30.8269269,43.7529757 30.8937139,42.8670265 C30.9605008,41.9810772 31.0034346,41.220081 31.0225166,40.5840148 C31.0415986,39.9479487 31.0495493,39.4436467 31.046369,39.0710937 C31.0431887,38.6985406 31.0415985,38.2987337 31.0415985,37.8716607 L31.0225166,36.4541489 L30.9843528,35.4727947 C31.0097955,35.436448 31.0320574,35.4160034 31.0511395,35.41146 C31.0702214,35.4069167 31.1465483,35.4228181 31.2801221,35.4591647 L32.8734598,35.922582 C32.9434271,35.949842 32.9943116,35.9861881 33.0261149,36.0316214 C33.0579183,36.0770547 33.0722295,36.1270305 33.0690492,36.1815505 C33.0658689,36.2360705 32.9974928,36.3451088 32.8639189,36.5086686 L32.6063134,36.8221568 C32.5999527,37.6944761 32.592002,38.3736937 32.582461,38.8598299 C32.57292,39.3459662 32.5490679,39.9547632 32.5109039,40.6862392 C32.4727399,41.4177153 32.4313963,42.0696732 32.3868716,42.6421328 C32.342347,43.2145923 32.2914625,43.6734617 32.2342166,44.0187547 L32.1006433,44.8501799 Z M52.4373024,28.0990078 L53.3055283,26.6269764 C53.3818562,26.4906764 53.4502323,26.4202559 53.5106586,26.4157126 C53.5710849,26.4111693 53.6903455,26.4997628 53.868444,26.681496 L55.1373896,28.058118 C55.3218487,28.2671111 55.414077,28.4352118 55.414077,28.562425 C55.4013556,28.7623316 55.2900458,28.8622833 55.0801439,28.8622833 L49.069349,28.8622833 C48.9294145,29.0712764 48.7735806,29.2575501 48.6018428,29.42111 C48.5891214,30.2752559 48.5795806,31.0294374 48.5732199,31.6836768 C48.5668593,32.3379162 48.5509579,33.0920976 48.5255152,33.9462436 L48.4682695,35.6908734 L48.4587286,35.9907316 L53.7157889,35.9907316 L54.6126377,34.4778105 C54.7398509,34.2597307 54.8320791,34.1484207 54.889325,34.1438774 C54.946571,34.1393341 55.0292583,34.1961249 55.1373896,34.3142514 L56.5303674,35.9907316 C56.6257774,36.1179449 56.6941535,36.2269831 56.7354977,36.3178497 C56.776842,36.4087164 56.7975139,36.4632355 56.7975139,36.4814088 C56.7847926,36.635882 56.6384995,36.7131174 56.3586304,36.7131174 L49.1170537,36.7131174 C49.2124637,37.1947103 49.3841989,37.9784229 49.6322647,39.0642787 C49.8803306,40.1501345 50.5132068,41.5290143 51.5309127,43.2009595 C52.5486185,44.8729048 53.5058837,46.0359797 54.4027369,46.6902191 C55.2995902,47.3444586 55.9515481,47.7306358 56.3586304,47.8487624 L56.8833824,48.0123214 C56.9533497,48.0395814 56.9899229,48.1213601 56.9931033,48.25766 C56.9962836,48.3939599 56.9374483,48.4802818 56.8165958,48.5166285 L56.3586304,48.6529277 C56.2059746,48.698361 56.0119773,48.8073993 55.7766329,48.9800458 C55.5412884,49.1526923 55.3377503,49.3344228 55.1660124,49.5252426 C54.9942745,49.7160624 54.8559322,49.9250524 54.7509814,50.1522189 C54.6460304,50.3793854 54.5681135,50.4884237 54.5172282,50.479337 C54.4663429,50.479337 54.332771,50.4066448 54.1165085,50.2612583 C53.9002461,50.1158718 53.3945811,49.5911251 52.5994984,48.6870025 C51.8044158,47.7828799 51.1031633,46.6061752 50.4957202,45.1568531 C49.888277,43.707531 49.4589389,42.1673654 49.2076927,40.5363101 C48.9564466,38.9052548 48.8053832,37.63087 48.7544979,36.7131174 L48.4301058,36.7131174 C48.4110238,36.8494173 48.4014829,36.9493691 48.4014829,37.0129757 L48.3156144,38.2260386 C48.1311553,40.7066965 47.7272593,42.5762485 47.1039145,43.8347508 C46.4805697,45.0932531 45.6918595,46.2585997 44.7377604,47.3308254 C43.7836612,48.4030512 42.5147283,49.3753091 40.9309236,50.2476284 L40.2153527,50.6428961 C40.1390248,50.6883293 40.0611078,50.7087741 39.9815996,50.7042307 C39.9020914,50.6996874 39.8575674,50.6792427 39.8480264,50.6428961 C39.8384854,50.6065494 39.8305347,50.5543019 39.8241741,50.486152 C39.8178134,50.418002 39.8750585,50.3384949 39.995911,50.2476284 L40.7782685,49.634282 C41.726007,48.8891759 42.7214356,47.830596 43.764584,46.4585105 C44.8077324,45.086425 45.4740018,43.653026 45.7634118,42.1582706 C46.0528219,40.6635152 46.2356882,39.502712 46.3120162,38.6758259 C46.3883441,37.84894 46.4424089,37.1947103 46.4742122,36.7131174 L39.4997819,36.7131174 C39.347126,36.7131174 39.267619,36.592721 39.2612583,36.3519245 C39.2548976,36.111128 39.3344047,35.9907316 39.4997819,35.9907316 L46.4742122,35.9907316 C46.4805729,35.8635184 46.4901137,35.6840596 46.502835,35.4523498 C46.5155564,35.22064 46.5314578,34.5232494 46.5505397,33.360157 C46.5696217,32.1970647 46.5791626,31.5746378 46.5791626,31.4928579 L46.5505397,28.8622833 L40.6733181,28.8622833 C40.4316129,28.8622833 40.3250735,28.735072 40.3536964,28.4806455 C40.3823194,28.2262191 40.4888589,28.0990078 40.6733181,28.0990078 L52.4373024,28.0990078 Z M59.6933268,29.1076218 C59.5724742,29.0985352 59.4897869,29.0644607 59.4452622,29.0053974 C59.4007377,28.9463342 59.383246,28.8236661 59.392787,28.6373896 C59.4023281,28.4511131 59.480245,28.3579762 59.6265402,28.3579762 L73.5849419,28.3579762 L74.4150041,26.858685 C74.6694304,26.3952654 74.8141331,26.1658307 74.8491169,26.170374 C74.8841007,26.1749174 75.0383439,26.3362031 75.3118527,26.6542361 L76.9624358,28.6305747 C77.057846,28.7577878 77.10555,28.8577396 77.10555,28.9304329 C77.0928291,29.0485595 77.0260426,29.1076218 76.9051906,29.1076218 L69.1388615,29.1076218 C69.0116487,29.3711349 68.9432723,29.5097045 68.9337311,29.5233344 C68.9241906,29.5369644 68.7922088,29.6619041 68.5377825,29.8981572 L68.5377825,46.7719987 L68.6522737,49.8251008 C68.6077487,49.9704874 68.5552743,50.0908838 68.494848,50.1862937 C68.4344216,50.2817037 68.2865385,50.3952852 68.0511939,50.5270418 C67.8158493,50.6587983 67.5169029,50.7201323 67.1543452,50.7110457 C66.9253614,50.7110457 66.7854289,50.6701563 66.7345437,50.5883764 C66.6836584,50.5065964 66.6486753,50.4021014 66.6295933,50.2748882 L66.7250027,47.0991168 L66.7250027,29.1076218 L59.6933268,29.1076218 Z M69.6063676,34.7776687 C69.5936466,34.6413689 69.6604325,34.5686767 69.8067277,34.55959 C69.8576129,34.55959 70.3330656,34.7027027 71.2330987,34.9889325 C72.1331325,35.2751622 72.9520554,35.9384784 73.6898919,36.9789009 C74.4277291,38.0193233 74.7521176,39.0188408 74.6630683,39.9774834 C74.5740189,40.9361259 74.2337291,41.3927237 73.6421872,41.3472903 C73.4768102,41.3382037 73.2987142,41.2337087 73.1078946,41.0338022 C72.9170743,40.8338957 72.7198973,40.4431752 72.5163561,39.8616291 L71.8675716,38.0488496 C71.6067845,37.4127835 71.3316899,36.8766787 71.0422798,36.440519 C70.7528696,36.0043594 70.4427926,35.6545282 70.1120379,35.3910151 C69.7812838,35.127502 69.6127284,34.9230553 69.6063676,34.7776687 Z M91.2405953,33.196598 L80.1731,33.196598 C80.0140831,33.196598 79.9345764,33.0739299 79.9345764,32.8285901 C79.9345764,32.5832503 80.0140831,32.4605822 80.1731,32.4605822 L91.5649872,32.4605822 L92.4522953,31.2475193 C92.5858689,31.0657862 92.6669662,30.9681061 92.6955892,30.9544761 C92.7242122,30.9408461 92.7925885,30.984007 92.9007196,31.0839603 L94.7707446,32.9512594 C94.8597939,33.042126 94.9043183,33.128448 94.9043183,33.2102279 C94.8979575,33.3374411 94.8343514,33.4283064 94.7134994,33.4828263 L93.7689453,33.9189837 C89.8444176,38.5350066 87.0362277,41.6335107 85.3442919,43.2145895 L83.8463635,44.6321012 C85.0040041,45.7497602 85.7100271,46.4039899 85.9644534,46.5948097 C86.2188798,46.7856295 86.6529885,46.9514586 87.2667919,47.0923018 C87.880596,47.233145 88.7154203,47.2899357 89.7712899,47.2626758 C93.1869649,47.2081558 95.4322446,46.9900793 96.5071967,46.6084396 L97.2323081,46.3494712 C97.2577507,46.3403845 97.2895541,46.3517426 97.3277176,46.383546 C97.3658818,46.4153493 97.3865534,46.47214 97.3897338,46.5539199 C97.3929142,46.6356999 97.3658818,46.6947623 97.3086358,46.7311089 L96.7838838,47.1808963 C96.2877521,47.6079693 95.9601831,48.0940982 95.8011669,48.6392978 L95.5721838,49.4162033 L95.5340203,49.6751717 C95.4958561,49.7660383 95.4036284,49.8114709 95.2573331,49.8114709 L94.4177298,49.8114709 C94.3477622,49.8114709 93.5892649,49.8251007 92.1422149,49.8523607 C90.6951642,49.8796207 89.4946075,49.8523611 88.5405081,49.7705812 C87.5864088,49.6888012 86.8374521,49.4820828 86.2936156,49.1504198 C85.7497791,48.8187567 85.3713257,48.5098149 85.1582433,48.2235852 C84.9451615,47.9373554 84.6191825,47.4307818 84.1802966,46.7038491 C83.7414108,45.9769164 83.3184331,45.6134554 82.9113507,45.6134554 C82.6823669,45.6225421 82.4327149,45.7452101 82.1623872,45.9814633 C81.8920588,46.2177164 81.6106034,46.6334248 81.3180135,47.228601 C81.025423,47.8237772 80.8377865,48.2349423 80.7550973,48.4621088 L80.5642784,48.9936757 L80.4307054,49.2662741 L80.3448372,49.1027151 L79.3525791,46.7856286 C79.3334966,46.749282 79.3160054,46.7197507 79.3001034,46.6970341 C79.2842021,46.6743174 79.2762514,46.6447863 79.2762514,46.6084396 C79.2762514,46.572093 79.3144149,46.5175739 79.3907426,46.4448805 L79.8582487,46.0496129 C79.9345771,45.9860063 80.1317541,45.8406219 80.4497872,45.6134554 L81.6328642,44.7684003 C82.1798811,44.4231073 82.701448,44.2822662 83.1975791,44.3458728 C85.8563358,40.9202024 87.6913588,38.480471 88.7027041,37.0266056 C89.7140494,35.5727401 90.5600048,34.2960837 91.2405953,33.196598 Z M85.4015372,26.2862283 C85.4333406,26.2498817 85.4699142,26.229437 85.5112581,26.2248937 C85.5526027,26.2203503 85.7688622,26.2680546 86.1600426,26.3680078 C86.551223,26.4679611 86.9630696,26.6247036 87.3955946,26.8382401 C87.8281196,27.0517766 88.2431466,27.4106943 88.6406879,27.9150038 C89.0382291,28.4193134 89.2290466,28.9872211 89.2131446,29.6187439 C89.1972433,30.2502667 89.0748021,30.7545687 88.8458183,31.131665 C88.6168345,31.5087614 88.3210683,31.6882202 87.9585108,31.6700469 C87.5577885,31.6609602 87.2858744,31.4951312 87.1427595,31.1725548 C86.9996446,30.8499784 86.9121872,30.5115054 86.8803838,30.1571257 L86.7849744,29.080362 C86.7150068,28.5624224 86.5925662,28.1376275 86.417648,27.8059645 C86.2427298,27.4743014 86.0328311,27.1994341 85.787946,26.9813543 C85.5430602,26.7632745 85.407898,26.6292482 85.3824554,26.5792716 C85.3570129,26.529295 85.3458818,26.4793191 85.3490622,26.4293425 C85.3522426,26.3793659 85.3697345,26.3316616 85.4015372,26.2862283 Z M110.890306,31.7381965 C110.756732,32.8013356 110.651783,33.5191709 110.575455,33.8917239 L110.394177,34.7640388 C111.18926,35.2274584 111.729908,35.6658831 112.016138,36.0793262 C112.302368,36.4927691 112.43912,36.9584534 112.426399,37.476393 C112.420038,37.7126461 112.362793,37.9670687 112.254662,38.2396685 C112.14653,38.5122682 111.965254,38.6485661 111.710828,38.6485661 C111.475483,38.6576528 111.283076,38.5736024 111.133601,38.3964126 C110.984125,38.2192228 110.686768,37.7989711 110.241522,37.1356449 L109.735852,36.3723694 C109.398737,36.9539156 109.042545,37.4559459 108.667266,37.8784756 C108.291987,38.3010053 107.811765,38.7666895 107.226584,39.2755424 L108.762676,39.7253298 C108.934414,39.7798498 109.028232,39.8298257 109.044134,39.8752589 C109.060035,39.9206922 109.069576,39.977483 109.072757,40.045633 C109.075937,40.1137829 109.010741,40.211463 108.877167,40.3386762 L108.524152,40.6930542 C108.479628,41.0201739 108.454185,41.2064476 108.447824,41.2518809 L108.304711,42.0424163 L112.388234,42.0424163 L112.8462,41.2246211 C112.928889,41.0701478 112.995674,40.9906408 113.046559,40.9860974 C113.097445,40.9815541 113.196034,41.0428882 113.342329,41.1701014 L114.630357,42.3695344 C114.700324,42.4422276 114.754389,42.5126482 114.792553,42.5807982 C114.830716,42.6489481 114.848208,42.7057389 114.845028,42.7511722 C114.841847,42.7966055 114.783012,42.8738409 114.66852,42.9828808 L114.258259,43.3781485 C114.181932,44.0505613 114.056311,45.0591653 113.881393,46.4039908 C113.706474,47.7488164 113.385266,48.7574203 112.917757,49.4298331 C112.450249,50.1022459 111.966845,50.5270408 111.467534,50.7042307 C110.968222,50.8814205 110.572276,50.9791007 110.279686,50.997274 C110.165194,51.0063606 110.095228,50.9927309 110.069785,50.9563842 C110.044343,50.9200376 110.025261,50.8859631 110.012539,50.8541598 C109.999818,50.8223565 109.985507,50.7201331 109.969605,50.5474866 C109.953703,50.3748401 109.899639,50.1499487 109.807409,49.8728055 C109.71518,49.5956624 109.60546,49.370771 109.478247,49.1981245 C109.351033,49.025478 109.195199,48.8573773 109.010741,48.6938174 L108.581398,48.3258096 C108.466906,48.234943 108.412841,48.1440778 108.419202,48.0532112 C108.419202,47.9896046 108.447824,47.937357 108.50507,47.8964671 C108.562316,47.8555772 108.625922,47.8396757 108.695889,47.8487624 L109.354214,48.0123214 C109.907592,48.157708 110.33057,48.2258569 110.62316,48.2167702 C110.998439,48.2167702 111.294205,48.0418547 111.510468,47.6920183 C111.72673,47.3421819 111.903236,46.8219785 112.03999,46.1313924 C112.176745,45.4408064 112.276923,44.8479107 112.34053,44.3526878 C112.404137,43.8574649 112.461382,43.3372614 112.512267,42.7920619 L108.190219,42.7920619 C108.152055,42.9737951 108.126613,43.1100929 108.113892,43.2009595 L108.018482,43.7461564 C107.80858,44.8456421 107.47306,45.7770107 107.011913,46.54029 C106.550765,47.3035694 105.913118,48.00096 105.098953,48.6324828 C104.284789,49.2640056 103.537422,49.6728991 102.856831,49.8591756 C102.176241,50.0454522 101.556085,50.1931081 100.996347,50.302148 L100.366645,50.4248173 C100.271235,50.4429907 100.201269,50.4316325 100.156744,50.3907425 C100.11222,50.3498526 100.088368,50.2885185 100.085187,50.2067386 C100.082007,50.1249587 100.144022,50.0568097 100.271235,50.0022898 L100.996347,49.7160615 C103.184415,48.8528289 104.569428,47.794249 105.151428,46.54029 C105.733429,45.2863311 106.068949,44.4640007 106.157998,44.0732745 C106.247047,43.6825481 106.336095,43.2554816 106.425145,42.7920619 L100.729201,42.7920619 C100.589266,42.7920619 100.504989,42.6784804 100.476366,42.4513139 C100.447743,42.2241474 100.547922,42.0878496 100.776905,42.0424163 L106.530095,42.0424163 C106.606423,41.2973103 106.650947,40.8293543 106.663668,40.6385345 L106.730455,39.6162905 C106.253405,39.9070636 105.96718,40.0751642 105.87177,40.1205975 L105.261149,40.4477156 C105.057608,40.5567555 104.949478,40.572657 104.936757,40.4954203 C104.924036,40.4181837 104.920855,40.3432199 104.927216,40.2705266 C104.933577,40.1978334 104.981281,40.1251412 105.07033,40.0524479 L105.518755,39.6708101 C106.237509,39.062004 106.817911,38.4463921 107.259977,37.8239559 C107.702043,37.2015198 108.171134,36.363288 108.667266,35.3092356 C108.425562,35.0093759 108.125024,34.75041 107.765647,34.5323301 C107.40627,34.3142503 107.223403,34.1870391 107.217043,34.1506924 C107.210682,34.1143457 107.210682,34.0734564 107.217043,34.0280231 L107.217043,33.9871333 C107.223403,33.8871801 107.287009,33.8372042 107.407862,33.8372042 C107.675009,33.8462909 108.190216,33.9689589 108.953495,34.2052121 C109.080708,33.4237594 109.160215,32.8762964 109.192018,32.5628067 C109.223822,32.249317 109.249264,32.0244255 109.268346,31.8881256 L106.635045,32.1198343 C106.431504,32.1380076 106.312243,32.0266976 106.27726,31.7859012 C106.242276,31.5451047 106.345635,31.4110785 106.587341,31.3838186 L109.306509,31.13848 C109.300149,31.0112668 109.298559,30.9181299 109.301739,30.8590666 C109.30492,30.8000033 109.31446,30.5546672 109.330362,30.1230509 C109.346264,29.6914346 109.354214,29.116712 109.354214,28.398866 L109.354214,27.2948424 L109.306509,26.5724567 C109.325592,26.5179367 109.354214,26.4770474 109.392378,26.4497874 L109.659524,26.517937 L111.376895,26.9268346 C111.472305,26.9540946 111.54068,26.9836257 111.582025,27.0154291 C111.623369,27.0472324 111.656762,27.0972082 111.682205,27.1653582 C111.707647,27.2335081 111.628141,27.3675343 111.443681,27.5674408 L111.138371,27.9081889 C111.100207,28.8168547 111.074765,29.3711326 111.062043,29.5710391 L110.966634,30.961291 L112.34053,30.8658816 L112.8462,30.8249918 L113.342329,29.8981572 L113.494984,29.6937084 C113.571312,29.5937552 113.695343,29.6210147 113.867081,29.775488 L114.907044,30.784102 C115.034257,30.920402 115.118534,31.0226253 115.159879,31.0907753 C115.201223,31.1589252 115.220305,31.2111727 115.217124,31.2475193 C115.213945,31.283866 115.142388,31.388361 115.002453,31.5610075 L114.506324,32.1743539 C114.442718,32.7104668 114.399784,33.1443482 114.377522,33.4760114 C114.355259,33.8076744 114.347309,34.2188395 114.353669,34.7095191 C114.353669,36.0543447 114.450668,36.9198359 114.644668,37.306019 C114.838668,37.692202 115.019944,37.962526 115.188502,38.1169992 C115.357059,38.2714724 115.508123,38.3350781 115.641697,38.3078181 C115.679861,38.3078181 115.754597,38.2237678 115.865909,38.0556646 C115.97722,37.8875614 116.118743,37.5445451 116.290481,37.0266056 L116.777069,35.5409443 C116.808872,35.4319044 116.853396,35.3796568 116.910642,35.3842002 C116.967888,35.3887435 117.010822,35.4205464 117.039445,35.4796096 C117.068068,35.5386729 117.080789,35.5863772 117.077609,35.6227238 C117.074428,35.6590704 117.072839,35.6954165 117.072839,35.7317632 L116.815232,37.462763 C116.770708,37.7262762 116.750037,38.0215881 116.753217,38.3487078 C116.756397,38.6758276 116.78979,38.9575098 116.853397,39.1937629 L117.09192,39.8888889 C117.155527,40.1069687 117.18733,40.3159587 117.18733,40.5158652 C117.180969,41.0610647 116.942448,41.3518335 116.471759,41.3881801 C116.134644,41.4154401 115.711666,41.2700557 115.202814,40.9520226 C114.69396,40.6339896 114.251901,40.2137379 113.876622,39.691255 C113.501343,39.1687722 113.235789,38.5395304 113.079953,37.8035111 C112.924117,37.0674917 112.84938,36.081604 112.855741,34.8458183 C112.855741,34.2279255 112.862101,33.7077221 112.874823,33.2851924 C112.887544,32.8626628 112.916167,32.2879403 112.960691,31.5610075 L110.890306,31.7381965 Z M103.324338,30.6478028 L100.051794,30.6478028 C99.8991379,30.6478028 99.8085,30.5228632 99.7798771,30.2729801 C99.7512541,30.0230969 99.8418919,29.8981572 100.051794,29.8981572 L103.324338,29.8981572 L103.324338,28.1807872 L103.276633,26.0954095 C103.314797,26.0499761 103.35296,26.0181733 103.391124,26 L103.744139,26.1226693 L105.203903,26.5997165 C105.318395,26.6451498 105.391542,26.6837675 105.423345,26.7155708 C105.455149,26.7473741 105.47582,26.7769053 105.485362,26.8041653 C105.494903,26.8314253 105.501263,26.8654997 105.504443,26.9063897 C105.507624,26.9472797 105.458329,27.0267868 105.356559,27.1449133 L104.889053,27.6764802 L104.889053,29.8981572 L105.862229,29.8981572 L106.520554,28.7805038 C106.615964,28.6169439 106.67957,28.5374368 106.711373,28.5419801 C106.743176,28.5465235 106.822683,28.6260305 106.949897,28.7805038 L107.913532,30.0208265 C108.053466,30.2116464 108.120252,30.3570307 108.113892,30.456984 C108.107531,30.5024172 108.090039,30.5455782 108.061416,30.5864682 C108.032793,30.6273582 107.999401,30.6478028 107.961237,30.6478028 L104.889053,30.6478028 L104.889053,33.3874168 L106.902192,32.7195507 C106.953077,32.7104641 107.010322,32.7104641 107.073928,32.7195507 C107.131174,32.7377241 107.161387,32.8013297 107.164568,32.9103697 C107.167748,33.0194095 107.096192,33.114818 106.949897,33.196598 L104.889053,34.4369207 L104.889053,39.2482826 C104.889053,39.4118425 104.833397,39.5890297 104.722086,39.7798495 C104.610774,39.9706693 104.459711,40.13877 104.268891,40.2841566 L103.238469,40.8429833 C103.066731,40.9429366 102.93634,40.9838259 102.847291,40.9656526 C102.790045,40.9656526 102.756651,40.9542945 102.74711,40.9315778 C102.73757,40.9088612 102.731209,40.8906881 102.728028,40.8770581 C102.724848,40.8634281 102.710537,40.783921 102.685095,40.6385345 L102.589685,40.1751172 C102.456111,39.6571776 102.22077,39.3028032 101.883655,39.1119834 L101.358903,38.8257551 C101.244411,38.7712351 101.190347,38.6894564 101.196707,38.5804165 C101.196707,38.4441166 101.276214,38.3805109 101.43523,38.3895976 L102.160343,38.4441173 C102.790048,38.4986372 103.141469,38.4713777 103.214617,38.3623378 C103.287764,38.2532979 103.324338,38.1215433 103.324338,37.9670701 L103.324338,35.3501254 L101.063134,36.7131174 C100.808707,36.8675906 100.629022,36.9857154 100.52407,37.0674953 C100.41912,37.1492753 100.318941,37.0129774 100.22353,36.6585978 L99.7560244,35.063897 L99.6224514,34.6277396 C99.6351723,34.5823063 99.6669757,34.5368737 99.7178608,34.4914404 L100.051794,34.4369207 L100.614709,34.3142514 L101.969524,34.041653 L103.324338,33.7281649 L103.324338,30.6478028 Z" id="引领天下之势" fill-rule="nonzero"></path>
                <path d="M40.0704323,1.62109375 L40.8614479,5.02929688 C40.9070211,5.22461035 40.8760969,5.36458291 40.7686745,5.44921875 C40.6612521,5.53385459 40.5684796,5.4654959 40.4903542,5.24414063 L40.3145729,4.78515625 C40.2104057,4.50520693 40.0297435,4.11784102 39.7725807,3.62304688 C39.515418,3.12825273 39.1899004,2.68229365 38.7960182,2.28515625 C38.4021361,1.88801885 37.9610598,1.68945313 37.4727761,1.68945313 C36.9844924,1.69596357 36.5808506,1.90429482 36.2618386,2.31445313 C35.9428265,2.72461143 35.7491436,3.28124648 35.6807839,3.984375 C35.6124242,4.68750352 35.7051967,5.28971104 35.9591042,5.79101563 C36.1283759,6.14909033 36.3920451,6.45344927 36.7501198,6.70410156 C37.1081945,6.95475386 37.5948433,7.2184231 38.2100807,7.49511719 C38.8253182,7.77181128 39.3461463,8.06314951 39.7725807,8.36914062 C40.1990152,8.67513174 40.5424362,9.11295288 40.8028542,9.68261719 C41.0632722,10.2522815 41.1983619,10.9016891 41.2081276,11.6308594 C41.2178933,12.3600297 41.092569,13.0338511 40.8321511,13.6523438 C40.5977749,14.2187528 40.2673745,14.684243 39.8409401,15.0488281 C39.4145057,15.4134133 38.9376224,15.6249997 38.4102761,15.6835938 C38.0652223,15.7291669 37.7429598,15.712891 37.4434792,15.6347656 C37.1439985,15.5566402 36.8998603,15.4720057 36.7110573,15.3808594 L35.9688698,15.0390625 C35.812619,14.9869789 35.7019431,14.9869789 35.6368386,15.0390625 C35.5717341,15.0781252 35.5261616,15.1464839 35.5001198,15.2441406 L35.4415261,15.4589844 C35.3959529,15.5957038 35.3275942,15.6705729 35.2364479,15.6835938 C35.1453016,15.6966146 35.076943,15.5957042 35.0313698,15.3808594 L34.0255104,11.4746094 C33.9734268,11.2467437 34.0010958,11.095378 34.1085182,11.0205078 C34.2159407,10.9456376 34.3022028,10.9928377 34.3673073,11.1621094 L34.6114479,11.7773438 C34.7091047,12.0442722 34.909298,12.4658174 35.2120339,13.0419922 C35.5147698,13.6181669 35.8939977,14.091795 36.3497292,14.4628906 C36.8054606,14.8339862 37.3165232,15.0227864 37.8829323,15.0292969 C38.2344966,15.0358073 38.5730348,14.9446624 38.8985573,14.7558594 C39.2240798,14.5670563 39.5040249,14.2431664 39.7384011,13.7841797 C39.9727772,13.325193 40.0899636,12.7734407 40.0899636,12.1289063 C40.0834531,11.5690076 39.9906806,11.1100278 39.8116432,10.7519531 C39.6326059,10.3938784 39.3607987,10.0862643 38.9962136,9.82910156 C38.6316284,9.57193882 38.1417244,9.29687646 37.526487,9.00390625 C36.9112495,8.71093604 36.3904214,8.41471504 35.963987,8.11523438 C35.5375526,7.81575371 35.1941315,7.39258086 34.9337136,6.84570313 C34.6732956,6.29882539 34.5349506,5.66243853 34.5186745,4.93652344 C34.5023984,4.21060835 34.634233,3.52539385 34.9141823,2.88085938 C35.1746003,2.2884085 35.5229041,1.8310563 35.9591042,1.50878906 C36.3953043,1.18652183 36.9031117,1.03515615 37.4825417,1.0546875 C37.7885328,1.0677084 38.0489469,1.12304639 38.2637917,1.22070313 C38.4786365,1.31835986 38.6999885,1.45507725 38.9278542,1.63085938 C39.1557199,1.8066415 39.3152235,1.8750002 39.4063698,1.8359375 C39.4649639,1.81640615 39.5170467,1.77408887 39.5626198,1.70898438 L39.6993386,1.46484375 C39.7384013,1.40624971 39.798622,1.36881519 39.8800026,1.35253906 C39.9613832,1.33626294 40.0248592,1.42578027 40.0704323,1.62109375 Z M48.1108229,2.67578125 L46.9389479,2.67578125 C46.8282703,2.67578125 46.7631668,2.5878915 46.7436354,2.41210938 C46.7241041,2.23632725 46.7892076,2.1484375 46.9389479,2.1484375 L51.5580886,2.1484375 L51.9291823,1.49414062 C51.9617346,1.44205703 51.9845208,1.41113286 51.9975417,1.40136719 C52.0105626,1.39160151 52.0496247,1.41601533 52.1147292,1.47460937 L53.1108229,2.5 C53.1498856,2.54557314 53.175927,2.57975249 53.1889479,2.60253906 C53.2019688,2.62532563 53.2084792,2.65462222 53.2084792,2.69042969 C53.2084792,2.72623716 53.1791826,2.76367168 53.1205886,2.80273438 L52.7299636,3.11523438 C52.4435038,4.16992715 52.225407,4.96419004 52.0756667,5.49804688 C51.9259264,6.03190371 51.7599124,6.58528359 51.5776198,7.15820312 L52.6323073,7.15820312 L52.9252761,6.640625 C52.9578283,6.56901006 52.9903801,6.53157554 53.0229323,6.52832031 C53.0554846,6.52506509 53.1075674,6.55924443 53.1791823,6.63085938 L54.1557448,7.64648438 C54.201318,7.69856797 54.2257318,7.72949214 54.228987,7.73925781 C54.2322422,7.74902349 54.237125,7.7604166 54.2436354,7.7734375 C54.2501459,7.7864584 54.2534011,7.80110669 54.2534011,7.81738281 C54.2534011,7.83365894 54.2371252,7.85807275 54.2045729,7.890625 L53.8627761,8.23242188 C53.2638147,10.5892045 52.8113453,12.0768198 52.5053542,12.6953125 L51.8022292,14.1992188 C52.0366054,14.4986994 52.2839987,14.7884101 52.5444167,15.0683594 C52.8048347,15.3483087 53.1140764,15.5908193 53.4721511,15.7958984 C53.8302258,16.0009776 54.0971502,16.129557 54.2729323,16.1816406 L54.7123854,16.3183594 C54.7840004,16.3444012 54.8198073,16.3916012 54.8198073,16.4599609 C54.8198073,16.5283207 54.7840004,16.5787759 54.7123854,16.6113281 L54.3315261,16.7773438 C53.9474096,16.9531259 53.6642093,17.1614571 53.4819167,17.4023438 L53.1791823,17.8125 C53.1270987,17.8841149 53.094547,17.9215495 53.0815261,17.9248047 C53.0685052,17.9280599 53.0392086,17.9036461 52.9936354,17.8515625 L52.7983229,17.65625 C52.2319139,17.0833305 51.6524926,16.3053435 51.0600417,15.3222656 C50.7475401,15.6347672 50.3162293,16.0416642 49.7660964,16.5429688 C49.2159634,17.0442733 48.3940315,17.4804669 47.3002761,17.8515625 L46.8217604,18.0175781 C46.7957186,18.030599 46.7729324,18.030599 46.7534011,18.0175781 C46.7403802,18.0175781 46.7306146,18.006185 46.7241042,17.9833984 C46.7175937,17.9606119 46.712711,17.9296877 46.7094557,17.890625 C46.7062005,17.8515623 46.7338695,17.8125002 46.7924636,17.7734375 L47.2123854,17.5292969 C48.3582245,16.8717415 49.4584739,15.7649817 50.5131667,14.2089844 C50.2657696,13.5318977 50.0216314,12.7994831 49.7807448,12.0117188 C49.5398582,11.2239544 49.3836098,10.3971397 49.3119948,9.53125 L49.1459792,7.7734375 C49.0873851,9.0039124 49.0092609,10.1318308 48.9116042,11.1572266 C48.8139474,12.1826223 48.5714369,13.214513 48.1840651,14.2529297 C47.7966934,15.2913463 47.3116722,16.110023 46.728987,16.7089844 C46.1463018,17.3079457 45.7345221,17.6953116 45.4936354,17.8710938 L45.1420729,18.1347656 C45.0509266,18.1998701 44.9939611,18.2080081 44.9711745,18.1591797 C44.9483879,18.1103513 44.9386224,18.0664064 44.9418776,18.0273438 C44.9451328,17.9882811 44.9662915,17.9459638 45.0053542,17.9003906 L45.3764479,17.4902344 C45.7019704,17.1321597 46.0714328,16.6341178 46.4848464,15.9960938 C46.8982599,15.3580697 47.2416809,14.3668687 47.5151198,13.0224609 C47.7885587,11.6780532 47.9448071,10.4183001 47.9838698,9.24316406 C48.0229325,8.06802798 48.0522291,6.83431636 48.0717604,5.54199219 C48.0912918,4.24966802 48.1010573,3.5937501 48.1010573,3.57421875 L48.1108229,2.67578125 Z M51.5483229,2.67578125 L49.5561354,2.67578125 C49.5300936,2.74739619 49.5056798,2.80273418 49.4828932,2.84179688 C49.4601067,2.88085957 49.3901204,2.93619756 49.2729323,3.0078125 C49.253401,3.61979473 49.2436354,4.0804021 49.2436354,4.38964844 C49.2436354,4.69889478 49.2550286,5.24413672 49.2778151,6.02539062 C49.3006017,6.80664453 49.4242984,7.79296279 49.6489089,8.984375 C49.8735194,10.1757872 50.2071749,11.2369745 50.6498854,12.1679688 L51.0893386,13.1054688 C51.2195475,12.7994776 51.3611477,12.4560566 51.5141432,12.0751953 C51.6671388,11.694334 51.8396631,11.1328162 52.0317214,10.390625 C52.2237796,9.64843379 52.3588694,9.04459868 52.4369948,8.57910156 C52.5151202,8.11360444 52.567203,7.81901104 52.5932448,7.6953125 L51.4116042,7.6953125 L51.1284011,8.22265625 C51.069807,8.32682344 51.0307449,8.38053384 51.0112136,8.38378906 C50.9916822,8.38704429 50.9721512,8.372396 50.9526198,8.33984375 L50.2006667,7.34375 C50.1811353,7.3177082 50.1681146,7.29492197 50.1616042,7.27539062 C50.1550937,7.25585928 50.1518386,7.23144546 50.1518386,7.20214844 C50.1518386,7.17285142 50.1681144,7.14192725 50.2006667,7.109375 L50.3862136,6.953125 C50.4448076,6.90755186 50.4871249,6.85709663 50.5131667,6.80175781 C50.5392085,6.74641899 50.5815258,6.60481885 50.6401198,6.37695312 L50.7573073,5.90820312 L51.5483229,2.67578125 Z M43.2280104,6.1328125 L45.1616042,6.6015625 C45.3113445,6.30208184 45.4106274,6.09537817 45.4594557,5.98144531 C45.5082841,5.86751245 45.6043118,5.63151221 45.7475417,5.2734375 L46.1186354,4.31640625 L46.1674636,4.16992188 C46.1804845,4.15039053 46.2195466,4.17317676 46.2846511,4.23828125 L47.5151198,5.45898438 C47.5867348,5.53059932 47.6225417,5.59244766 47.6225417,5.64453125 C47.6160312,5.73567754 47.5574381,5.79101553 47.4467604,5.81054688 L47.0756667,5.87890625 C46.1772247,7.32422598 45.6238448,8.18684756 45.4155104,8.46679688 L43.8334792,10.6738281 C44.4194196,10.628255 44.9744271,10.5859377 45.4985182,10.546875 C46.0226094,10.5078123 46.3920719,10.4752605 46.6069167,10.4492188 L47.3198073,10.3710938 C47.4109536,10.3645833 47.4581536,10.4003902 47.4614089,10.4785156 C47.4646641,10.556641 47.4272296,10.6087238 47.3491042,10.6347656 L46.6655104,10.8984375 C45.1941489,11.4648466 44.2273617,11.8587229 43.7651198,12.0800781 L43.1108229,12.3925781 C42.9675931,12.4641931 42.892724,12.4967448 42.8862136,12.4902344 C42.8797031,12.4837239 42.8601721,12.4218756 42.8276198,12.3046875 L42.4174636,10.9277344 C42.3914218,10.8430985 42.3784011,10.7877605 42.3784011,10.7617188 C42.391422,10.7096352 42.4142082,10.6770834 42.4467604,10.6640625 L42.6811354,10.5761719 C42.7983235,10.5371092 42.9561995,10.4394539 43.1547682,10.2832031 C43.3533369,10.1269523 43.7781374,9.41081367 44.4291823,8.13476562 L44.9955886,7.01171875 C44.3315227,7.10937549 43.7325704,7.23307217 43.1987136,7.3828125 L42.7494948,7.50976562 L42.6225417,7.54882812 C42.5964999,7.54231768 42.5769688,7.51302109 42.5639479,7.4609375 L42.2221511,6.07421875 C42.2091302,6.01562471 42.2026198,5.97005225 42.2026198,5.9375 C42.2026198,5.90494775 42.2384267,5.86914082 42.3100417,5.83007812 L42.4858229,5.7421875 C42.73322,5.61848896 43.0505996,5.0895229 43.4379714,4.15527344 C43.8253431,3.22102397 44.1557434,2.27865059 44.4291823,1.328125 L44.6147292,0.72265625 L44.6635573,0.478515625 C44.6700678,0.465494727 44.6765781,0.455729199 44.6830886,0.44921875 L44.7905104,0.537109375 L46.0698073,1.53320312 C46.1609536,1.60481807 46.2065261,1.67968711 46.2065261,1.7578125 C46.2000156,1.82942744 46.1674639,1.87174473 46.1088698,1.88476562 L45.6791823,2.02148438 C44.8588657,3.43425186 44.0418166,4.80468086 43.2280104,6.1328125 Z M43.0131667,14.7753906 C44.7644775,14.1503875 45.9298305,13.7174491 46.5092604,13.4765625 L47.0073073,13.2714844 C47.0398596,13.2584635 47.0740389,13.2600911 47.1098464,13.2763672 C47.1456538,13.2926433 47.1619297,13.333333 47.1586745,13.3984375 C47.1554193,13.463542 47.1277503,13.5156248 47.0756667,13.5546875 L46.6459792,13.90625 C44.9141997,15.2929757 43.9278814,16.0904938 43.6869948,16.2988281 L43.1108229,16.8066406 C43.0066557,16.9042974 42.9496902,16.9498698 42.9399245,16.9433594 C42.9301588,16.9368489 42.9122554,16.8912765 42.8862136,16.8066406 L42.4565261,15.3320313 L42.3686354,15.0390625 C42.362125,15.0065103 42.3686353,14.9772137 42.3881667,14.9511719 L42.4955886,14.9316406 L43.0131667,14.7753906 Z M66.8445729,5.16601562 L67.3719167,4.19921875 C67.4565525,4.04947842 67.5118905,3.97623696 67.5379323,3.97949219 C67.5639741,3.98274741 67.6160569,4.02994746 67.6941823,4.12109375 L68.5730886,5.25390625 C68.6707453,5.38411523 68.7130626,5.48828086 68.7000417,5.56640625 C68.6870208,5.64453164 68.6447035,5.68359375 68.5730886,5.68359375 L65.4187917,5.68359375 C65.5164484,5.95703262 65.5782968,6.12792935 65.6043386,6.19628906 C65.6303804,6.26464878 65.7654702,6.52180767 66.009612,6.96777344 C66.2537538,7.41373921 66.636237,7.84830518 67.1570729,8.27148438 C67.6779089,8.69466357 68.1694404,8.98762939 68.6316823,9.15039062 L69.0906667,9.31640625 C69.1622816,9.34244805 69.196461,9.39127568 69.1932057,9.46289062 C69.1899505,9.53450557 69.1557712,9.5833332 69.0906667,9.609375 L68.8269948,9.71679688 C68.5730873,9.82747451 68.3745216,9.99999883 68.2312917,10.234375 L68.0164479,10.6542969 C67.9578539,10.771485 67.9090263,10.8268229 67.8699636,10.8203125 C67.7723068,10.8138021 67.5704859,10.6494157 67.2644948,10.3271484 C66.9585037,10.0048812 66.7225035,9.72005332 66.556487,9.47265625 C66.3904705,9.22525918 66.2195738,8.91764507 66.0437917,8.54980469 C65.8680096,8.18196431 65.7166439,7.81575703 65.5896901,7.45117188 C65.4627364,7.08658672 65.3715914,6.73014497 65.3162526,6.38183594 C65.2609138,6.0335269 65.2234793,5.80078184 65.2039479,5.68359375 L64.5594167,5.68359375 C64.4943122,5.84635498 64.4292087,5.99609307 64.3641042,6.1328125 L63.9344167,7.0703125 C63.5958733,7.75390967 63.1531694,8.45214487 62.6062917,9.16503906 C62.059414,9.87793325 61.5809031,10.4134097 61.1707448,10.7714844 L60.8094167,11.0839844 C60.7182704,11.1686202 60.6661876,11.1637375 60.6531667,11.0693359 C60.6401458,10.9749344 60.6661872,10.8886723 60.7312917,10.8105469 L61.0633229,10.4101562 C61.2325946,10.2083323 61.4083741,9.97070449 61.5906667,9.69726562 C61.7729593,9.42382676 61.999194,9.00553667 62.2693776,8.44238281 C62.5395613,7.87922896 62.7364994,7.44791816 62.8601979,7.1484375 C62.9838965,6.84895684 63.0864345,6.57063931 63.1678151,6.31347656 C63.2491957,6.05631382 63.319182,5.84635498 63.3777761,5.68359375 L60.8973073,5.68359375 C60.7931401,5.68359375 60.7361745,5.59733159 60.7264089,5.42480469 C60.7166432,5.25227778 60.7736088,5.16601562 60.8973073,5.16601562 L63.5437917,5.16601562 C63.563323,5.07486934 63.5975024,4.95117266 63.6463307,4.79492188 C63.6951591,4.63867109 63.7488695,4.45800884 63.8074636,4.25292969 C63.8660576,4.04785054 63.9669681,3.60351904 64.1101979,2.91992187 C63.0359738,3.11523535 62.3686628,3.21289062 62.1082448,3.21289062 L61.8250417,3.21289062 C61.7273849,3.21289062 61.6834401,3.1754561 61.6932057,3.10058594 C61.7029714,3.02571577 61.7338956,2.97851572 61.7859792,2.95898437 L62.2644948,2.8125 C62.5704859,2.72135371 62.8081138,2.64322949 62.9773854,2.578125 C63.1466571,2.51302051 63.6040093,2.31608237 64.3494557,1.98730469 C65.0949022,1.658527 65.5880613,1.41276123 65.8289479,1.25 L66.4539479,0.830078125 C66.5060315,0.797525879 66.5646247,0.748698242 66.6297292,0.68359375 C66.6948337,0.618489258 66.7355234,0.581054736 66.7517995,0.571289062 C66.7680756,0.561523389 66.8510826,0.647785547 67.0008229,0.830078125 L67.8309011,1.88476562 C67.9545996,2.0540373 68.0115652,2.15820293 68.0017995,2.19726562 C67.9920338,2.23632832 67.9350682,2.2656249 67.8309011,2.28515625 L67.3035573,2.3828125 C67.0496498,2.43489609 66.6997184,2.50813755 66.2537526,2.60253906 C65.8077869,2.69694058 65.3829864,2.76692686 64.9793386,2.8125 L65.6434011,3.21289062 C65.6694429,3.23893242 65.6857187,3.26985659 65.6922292,3.30566406 C65.6987396,3.34147153 65.6661879,3.38216123 65.5945729,3.42773438 L65.3309011,3.60351562 C65.1746503,4.02669482 65.0558364,4.34407446 64.9744557,4.55566406 C64.8930751,4.76725366 64.8198337,4.97070215 64.7547292,5.16601562 L66.8445729,5.16601562 Z M57.8406667,3.42773438 L58.1141042,1.93359375 L58.3289479,0.56640625 L58.3680104,0.166015625 C58.3940522,0.146484277 58.4689213,0.166015332 58.5926198,0.224609375 L59.8523854,0.859375 C59.9174899,0.898437695 59.9532969,0.947265332 59.9598073,1.00585938 C59.9663178,1.06445342 59.9305108,1.12304658 59.8523854,1.18164063 L59.4910573,1.43554688 L59.0320729,3.42773438 L60.4480886,3.42773438 L60.7898854,2.72460938 C60.8615004,2.58788994 60.910328,2.51464849 60.9363698,2.50488281 C60.9624116,2.49511714 61.0047289,2.52278613 61.0633229,2.58789063 L61.9226979,3.62304688 C61.9617606,3.67513047 61.9764089,3.74511675 61.9666432,3.83300781 C61.9568776,3.92089888 61.9292086,3.96484375 61.8836354,3.96484375 L58.8758229,3.96484375 L57.8016042,8.11523438 L58.9832448,8.11523438 L58.9832448,6.77734375 L58.9344167,5.14648438 C58.953948,5.11393213 58.9799894,5.0911459 59.0125417,5.078125 L59.2176198,5.16601563 L60.3113698,5.57617188 C60.415537,5.62174502 60.462737,5.67220024 60.4529714,5.72753906 C60.4432057,5.78287788 60.4122815,5.83984346 60.3601979,5.8984375 L60.0379323,6.25976563 L60.0379323,8.11523438 L60.3797292,8.11523438 L60.7898854,7.32421875 C60.8484795,7.21354111 60.8973071,7.15657554 60.9363698,7.15332031 C60.9754325,7.15006509 61.0177498,7.17773408 61.0633229,7.23632813 L61.8543386,8.33984375 C61.9194431,8.43099004 61.9487396,8.50748667 61.9422292,8.56933594 C61.9357187,8.63118521 61.9064222,8.66210938 61.8543386,8.66210938 L60.0379323,8.66210938 L60.0379323,12.1972656 C60.2918398,12.0996089 60.4871504,12.0247398 60.6238698,11.9726563 L61.8543386,11.5136719 L62.2742604,11.3574219 C62.3458754,11.3313801 62.3849375,11.3623042 62.3914479,11.4501953 C62.3979584,11.5380864 62.3784273,11.5983071 62.3328542,11.6308594 L61.9226979,11.9140625 C61.8575934,11.9596356 61.2293445,12.3632774 60.0379323,13.125 L60.0379323,15.8691406 L60.0867604,17.6367188 C59.9630619,17.929689 59.7661238,18.087565 59.4959401,18.1103516 C59.2257565,18.1331381 59.069508,18.1087243 59.0271901,18.0371094 C58.9848722,17.9654944 58.953948,17.884115 58.9344167,17.7929688 L58.9832448,16.0742188 L58.9832448,13.7890625 C58.8335045,13.8932297 58.4233523,14.1666645 57.7527761,14.609375 L57.2742604,14.9414062 L57.0008229,15.1757812 C56.9747811,15.1953126 56.9585053,15.2018229 56.9519948,15.1953125 C56.9389739,15.1953125 56.9292084,15.1888021 56.9226979,15.1757812 L56.9031667,15.0878906 L56.4539479,13.2519531 L56.4148854,13.1347656 C56.4148854,13.1087238 56.4279061,13.0794272 56.4539479,13.046875 L56.7566823,13.0078125 L57.2351979,12.9296875 C57.6453562,12.864583 58.2280327,12.7246104 58.9832448,12.5097656 L58.9832448,8.66210938 L57.6844167,8.66210938 L57.4891042,9.15039062 C57.3914474,9.3847668 57.3344819,9.51497383 57.3182057,9.54101562 C57.3019296,9.56705742 57.2872813,9.58170571 57.2742604,9.58496094 C57.2612395,9.58821616 57.2124119,9.53776094 57.1277761,9.43359375 L56.4539479,8.62304688 C56.4083748,8.57747373 56.383961,8.54329438 56.3807057,8.52050781 C56.3774505,8.49772124 56.4246506,8.44401084 56.5223073,8.359375 C56.5939223,8.30078096 56.6687913,8.16406357 56.7469167,7.94921875 C56.8250421,7.73437393 56.8771249,7.57487031 56.9031667,7.47070313 L57.1668386,6.43554688 C57.2254326,6.2141916 57.4207432,5.39063213 57.7527761,3.96484375 L56.3367604,3.96484375 C56.2651455,3.88671836 56.2244558,3.77766997 56.2146901,3.63769531 C56.2049245,3.49772065 56.26189,3.42773438 56.3855886,3.42773438 L57.8406667,3.42773438 Z M66.6394948,10.6542969 L66.6394948,15.9570312 L66.6883229,17.5 C66.6818125,17.5976567 66.6492607,17.7213534 66.5906667,17.8710938 C66.5320726,18.0208341 66.3595483,18.1022135 66.0730886,18.1152344 C65.7866288,18.1282553 65.6206148,18.0989587 65.5750417,18.0273438 C65.5294685,17.9557288 65.500172,17.8710942 65.4871511,17.7734375 L65.5262136,16.4160156 L65.5262136,11.2890625 L65.4773854,9.609375 C65.5034272,9.57682275 65.5262135,9.55403652 65.5457448,9.54101562 L65.7703542,9.63867188 L66.8152761,10.0683594 C66.886891,10.1009116 66.9210703,10.1448565 66.9178151,10.2001953 C66.9145599,10.2555341 66.8901461,10.3124997 66.8445729,10.3710938 L66.6394948,10.6542969 Z M63.8855886,10.3515625 C63.8790781,10.8268253 63.867685,11.2320947 63.8514089,11.5673828 C63.8351328,11.9026709 63.7944431,12.320961 63.7293386,12.8222656 C63.6642341,13.3235702 63.542165,13.9078743 63.3631276,14.5751953 C63.1840903,15.2425164 62.8406692,15.8333308 62.3328542,16.3476562 C61.8250391,16.8619817 61.4409284,17.2102855 61.1805104,17.3925781 L60.6726979,17.7539062 C60.5620203,17.8385421 60.5034271,17.8352869 60.4969167,17.7441406 C60.4904062,17.6529943 60.5099373,17.5813805 60.5555104,17.5292969 L60.9851979,17.0703125 C61.3888458,16.6341124 61.7485427,16.0628291 62.0642995,15.3564453 C62.3800563,14.6500616 62.5688565,13.9615919 62.6307057,13.2910156 C62.692555,12.6204394 62.7299895,12.0784526 62.7430104,11.6650391 C62.7560313,11.2516255 62.7609141,10.9472666 62.7576589,10.7519531 C62.7544036,10.5566396 62.7527761,10.397136 62.7527761,10.2734375 L62.7332448,9.66796875 L62.7039479,9.31640625 C62.7169688,9.2968749 62.7316171,9.2838542 62.7478932,9.27734375 C62.7641694,9.2708333 62.8243901,9.283854 62.9285573,9.31640625 L64.1590261,9.73632812 C64.2045992,9.75585947 64.2322682,9.77701812 64.2420339,9.79980469 C64.2517995,9.82259126 64.2583099,9.83886714 64.2615651,9.84863281 C64.2648203,9.85839849 64.2566824,9.88443989 64.2371511,9.92675781 C64.2176197,9.96907573 64.2013438,9.99674473 64.1883229,10.0097656 L63.8855886,10.3515625 Z M76.6037136,12.5683594 L76.6037136,9.51171875 L73.7033229,9.51171875 L73.1955104,10.1660156 C73.1434268,10.2376306 73.0978544,10.2376306 73.0587917,10.1660156 L72.3556667,8.984375 C72.2775413,8.86067646 72.2368516,8.78743501 72.2335964,8.76464844 C72.2303412,8.74186187 72.3231137,8.68164111 72.5119167,8.58398438 C72.6225943,8.53190078 72.7218772,8.43099033 72.8097682,8.28125 C72.8976593,8.13150967 73.0799492,7.71972993 73.3566432,7.04589844 C73.6333373,6.37206694 73.8432962,5.85286641 73.9865261,5.48828125 C74.1297559,5.12369609 74.2990251,4.66146113 74.4943386,4.1015625 L71.2716823,4.1015625 C71.1610047,4.1015625 71.1007839,4.01367275 71.0910182,3.83789062 C71.0812526,3.6621085 71.1414733,3.57421875 71.2716823,3.57421875 L74.6798854,3.57421875 C74.6929063,3.52864561 74.8019547,3.18359697 75.0070339,2.5390625 C75.212113,1.89452803 75.3602235,1.39974131 75.4513698,1.0546875 L75.6076198,0.46875 L75.6857448,0.01953125 C75.6922553,0.0130208008 75.7020208,0.00651044922 75.7150417,0 L75.9591823,0.17578125 L77.3263698,1.0546875 C77.371943,1.0937502 77.3947292,1.1474606 77.3947292,1.21582031 C77.3947292,1.28418003 77.3524119,1.34440078 77.2677761,1.39648438 L76.7990261,1.69921875 L76.0568386,3.57421875 L80.3439479,3.57421875 L80.8615261,2.6171875 C80.9787141,2.39583223 81.0519556,2.2786459 81.0812526,2.265625 C81.1105496,2.2526041 81.1805359,2.30468691 81.2912136,2.421875 L82.3556667,3.66210938 C82.4403025,3.76627656 82.4809922,3.86393184 82.477737,3.95507812 C82.4744818,4.04622441 82.4337921,4.09179688 82.3556667,4.09179688 L81.8576198,4.09179688 L81.8576198,4.1015625 L75.8419948,4.1015625 L73.8595729,8.984375 L76.6037136,8.984375 L76.6037136,6.953125 L76.5646511,5.28320313 C76.5906929,5.24414043 76.6167343,5.21809902 76.6427761,5.20507812 L76.7990261,5.2734375 L78.1564479,5.84960938 C78.2475942,5.89518252 78.2899115,5.95703086 78.2834011,6.03515625 C78.2768906,6.11328164 78.2345733,6.18164033 78.1564479,6.24023438 L77.8439479,6.47460938 L77.8439479,8.984375 L79.7775417,8.984375 L80.2560573,8.046875 C80.3797558,7.79296748 80.4725284,7.68391909 80.5343776,7.71972656 C80.5962269,7.75553403 80.6824891,7.84179619 80.7931667,7.97851562 L81.6720729,9.05273438 C81.7501983,9.15690156 81.7892604,9.25618442 81.7892604,9.35058594 C81.7892604,9.44498745 81.7501983,9.4921875 81.6720729,9.4921875 L77.8439479,9.51171875 L77.8439479,12.5683594 L81.0861354,12.5683594 L81.6720729,11.5332031 C81.7501983,11.3834628 81.8039087,11.3069662 81.8332057,11.3037109 C81.8625028,11.3004557 81.9064476,11.3281247 81.9650417,11.3867188 L82.9513698,12.6269531 C83.0099639,12.6985681 83.0506536,12.7652992 83.0734401,12.8271484 C83.0962267,12.8889977 83.1076198,12.9475909 83.1076198,13.0029297 C83.1076198,13.0582685 83.0653025,13.0859375 82.9806667,13.0859375 L81.3693386,13.0859375 L81.3693386,13.1054688 L77.8439479,13.1054688 L77.8439479,16.0449219 L77.8927761,17.7050781 C77.8797552,17.789714 77.8618517,17.8613278 77.8390651,17.9199219 C77.8162786,17.9785159 77.7365267,18.0550125 77.5998073,18.1494141 C77.4630879,18.2438156 77.280798,18.2926432 77.0529323,18.2958984 C76.8250666,18.2991537 76.6883492,18.250326 76.6427761,18.1494141 C76.5972029,18.0485021 76.5711615,17.9166675 76.5646511,17.7539062 L76.6037136,16.1132812 L76.6037136,13.1054688 L70.7834011,13.1054688 L70.7150417,13.0761719 C70.6694685,13.0566405 70.6466823,13.0403646 70.6466823,13.0273438 L70.6271511,12.9199219 C70.6271511,12.6855457 70.6792339,12.5683594 70.7834011,12.5683594 L76.6037136,12.5683594 Z" id="S级轿车"></path>
                <rect id="Rectangle-Copy-9" x="44" y="67" width="30" height="1"></rect>
            </g>
        </g>
    </g>
</svg>